<!DOCTYPE svg PUBLIC "-//W3C//DTD SVG 1.1//EN" "http://www.w3.org/Graphics/SVG/1.1/DTD/svg11.dtd">
<!-- Uploaded to: SVG Repo, www.svgrepo.com, Transformed by: SVG Repo Mixer Tools -->
<svg fill="#e5001f" height="100px" width="100px" version="1.1" id="Layer_1" xmlns="http://www.w3.org/2000/svg" xmlns:xlink="http://www.w3.org/1999/xlink" viewBox="-25.6 -25.6 563.20 563.20" xml:space="preserve" stroke="#e5001f" stroke-width="0.00512">
<g id="SVGRepo_bgCarrier" stroke-width="0"/>
<g id="SVGRepo_tracerCarrier" stroke-linecap="round" stroke-linejoin="round"/>
<g id="SVGRepo_iconCarrier"> <g> <g> <path d="M397.618,278.311c27.106-32.787,42.034-74.31,42.034-116.92V16.696c0-9.22-7.475-16.696-16.696-16.696H289.391 c-6.324,0-12.105,3.573-14.933,9.229l-33.391,66.783c-4.124,8.247-0.781,18.276,7.466,22.399l51.849,25.925l-27.687,55.375v-29.45 c0-6.324-3.573-12.105-9.229-14.933l-53.831-26.917l28.813-86.437C242.046,11.177,234.001,0,222.609,0H89.044 c-9.22,0-16.696,7.475-16.696,16.696v144.696c0,42.61,14.928,84.133,42.034,116.92c23.794,28.78,55.915,49.676,91.531,59.783 v73.732h-16.696c-46.03,0-83.478,37.448-83.478,83.478c0,9.22,7.475,16.696,16.696,16.696h267.13 c9.22,0,16.696-7.475,16.696-16.696c0-46.03-37.448-83.478-83.478-83.478h-16.696v-73.732 C341.703,327.987,373.825,307.091,397.618,278.311z M289.391,445.217h33.391c21.768,0,40.336,13.956,47.226,33.391H141.991 c6.89-19.435,25.459-33.391,47.226-33.391h33.391c9.22,0,16.696-7.475,16.696-16.696V324.983c0-7.94-5.592-14.781-13.374-16.362 c-69.643-14.141-120.191-76.061-120.191-147.23v-128h93.705l-26.066,78.199c-2.627,7.881,0.942,16.496,8.372,20.212l57.554,28.778 v89.855c0,17.544,23.783,23.162,31.628,7.466l66.783-133.565c4.124-8.247,0.781-18.276-7.466-22.399L278.4,76.012l21.31-42.621 h106.551v128c0,71.169-50.548,133.089-120.191,147.229c-7.781,1.581-13.374,8.421-13.374,16.362v103.54 C272.696,437.742,280.171,445.217,289.391,445.217z"/> </g> </g> </g>
</svg>