<!DOCTYPE svg PUBLIC "-//W3C//DTD SVG 1.1//EN" "http://www.w3.org/Graphics/SVG/1.1/DTD/svg11.dtd">
<!-- Uploaded to: SVG Repo, www.svgrepo.com, Transformed by: SVG Repo Mixer Tools -->
<svg fill="#e5001f" width="100px" height="100px" viewBox="0 0 64 64" data-name="Layer 1" id="Layer_1" xmlns="http://www.w3.org/2000/svg" stroke="#e5001f" stroke-width="1.6">
<g id="SVGRepo_bgCarrier" stroke-width="0"/>
<g id="SVGRepo_tracerCarrier" stroke-linecap="round" stroke-linejoin="round"/>
<g id="SVGRepo_iconCarrier">
<title/>
<path d="M53.72,55.22H10.28a2,2,0,0,1-2-2V10.78a2,2,0,0,1,2-2h7a2,2,0,0,1,0,4h-5V51.22H51.72V12.78H30.13a2,2,0,0,1,0-4H53.72a2,2,0,0,1,2,2V53.22A2,2,0,0,1,53.72,55.22Z"/>
<path d="M31.86,40.63a2,2,0,0,1-2-2V34H25.23a2,2,0,0,1,0-4h6.63a2,2,0,0,1,2,2v6.63A2,2,0,0,1,31.86,40.63Z"/>
<path d="M19.2,46.66a2,2,0,0,1-1.42-3.42L30.44,30.59a2,2,0,0,1,2.83,2.82L20.61,46.07A2,2,0,0,1,19.2,46.66Z"/>
</g>
</svg>