<!DOCTYPE svg PUBLIC "-//W3C//DTD SVG 1.1//EN" "http://www.w3.org/Graphics/SVG/1.1/DTD/svg11.dtd">
<!-- Uploaded to: SVG Repo, www.svgrepo.com, Transformed by: SVG Repo Mixer Tools -->
<svg width="100px" height="100px" viewBox="-1.44 -1.44 50.88 50.88" xmlns="http://www.w3.org/2000/svg" fill="#ffaa32" stroke="#ffaa32" stroke-width="0.00048000000000000007">
<g id="SVGRepo_bgCarrier" stroke-width="0"/>
<g id="SVGRepo_tracerCarrier" stroke-linecap="round" stroke-linejoin="round"/>
<g id="SVGRepo_iconCarrier"> <title>warning-solid</title> <g id="Layer_2" data-name="Layer 2"> <g id="invisible_box" data-name="invisible box"> <rect width="48" height="48" fill="none"/> </g> <g id="icons_Q2" data-name="icons Q2"> <path d="M45.7,40,25.8,4a2.1,2.1,0,0,0-3.5,0L2.3,40A2,2,0,0,0,4,43H44A2,2,0,0,0,45.7,40ZM24,36a2,2,0,1,1,2-2A2,2,0,0,1,24,36Zm2-8a2,2,0,0,1-4,0V19a2,2,0,0,1,4,0Z"/> </g> </g> </g>
</svg>