*
G04 Job   : C:\Work\Skoda\12202943\12202943-02\panel_12202944\panel.pnl*
G04 User  : UA220008:semen002*
G04 Layer : SolderPasteBot.gbr*
G04 Date  : Fri Aug 09 23:31:15 2024*
G04 Expedition Layer: Solder Paste - Bottom*
%ICAS*%
%MOIN*%
%FSDAX24Y24*%
%OFA0.0000B0.0000*%
G90*
G74*
%AMVB_RECTANGLE*
21,1,$1,$2,0,0,$3*
%
%AMVB_RCRECTANGLE*
$3=$3X2*
21,1,$1-$3,$2,0,0,0*
21,1,$1,$2-$3,0,0,0*
$1=$1/2*
$2=$2/2*
$3=$3/2*
$1=$1-$3*
$2=$2-$3*
1,1,$3X2,0-$1,0-$2*
1,1,$3X2,0-$1,$2*
1,1,$3X2,$1,$2*
1,1,$3X2,$1,0-$2*
%
%ADD11C,0.00787*%
%ADD10C,0.03937*%
%ADD70VB_RECTANGLE,0.04528X0.01378X90.00000*%
%ADD71VB_RCRECTANGLE,0.02362X0.01575X0.00197*%
%ADD20VB_RCRECTANGLE,0.01575X0.02362X0.00197*%
%ADD29VB_RCRECTANGLE,0.02756X0.01969X0.00197*%
%ADD19VB_RCRECTANGLE,0.01969X0.02756X0.00197*%
%ADD21VB_RCRECTANGLE,0.02953X0.02362X0.00197*%
%ADD14VB_RCRECTANGLE,0.03150X0.01575X0.00197*%
%ADD30VB_RCRECTANGLE,0.02362X0.03150X0.00197*%
%ADD17VB_RCRECTANGLE,0.03150X0.03150X0.00197*%
%ADD18VB_RCRECTANGLE,0.03543X0.01575X0.00197*%
%ADD32VB_RCRECTANGLE,0.01969X0.03543X0.00197*%
%ADD31VB_RCRECTANGLE,0.03150X0.03543X0.00197*%
%ADD73VB_RCRECTANGLE,0.03937X0.02756X0.00197*%
%ADD27VB_RCRECTANGLE,0.02756X0.03937X0.00197*%
%ADD22VB_RCRECTANGLE,0.04331X0.02362X0.00197*%
%ADD72VB_RCRECTANGLE,0.05118X0.03150X0.00197*%
%ADD23VB_RCRECTANGLE,0.03150X0.05118X0.00197*%
%ADD13VB_RCRECTANGLE,0.05118X0.03543X0.00197*%
%ADD12VB_RCRECTANGLE,0.03937X0.05512X0.00197*%
%ADD16VB_RCRECTANGLE,0.05906X0.03150X0.00197*%
%ADD25VB_RCRECTANGLE,0.03150X0.05906X0.00197*%
%ADD26VB_RCRECTANGLE,0.07480X0.06693X0.00197*%
%ADD28VB_RCRECTANGLE,0.06299X0.09055X0.00197*%
%ADD15VB_RCRECTANGLE,0.05118X0.09843X0.00197*%
%ADD24VB_RCRECTANGLE,0.15157X0.06299X0.00197*%
G01*
G36*
X003583Y-000118D02*
X003858D01*
Y000433*
X003583*
Y-000118*
X004409D02*
X004685D01*
Y000433*
X004409*
Y-000118*
X004964Y-074948D02*
G03X005003Y-074951I000039J000283D01*
X005289Y-074665J000286*
X005286Y-074626I000286*
G01X005043*
Y-074383*
G03X005003Y-074380I000040J000282*
X004718Y-074665J000285*
X004721Y-074705I000285*
G01X004964*
Y-074948*
X005043D02*
Y-074705D01*
X005286*
G03X005289Y-074665I000283J000040*
X005003Y-074380I000286*
X004964Y-074383J000285*
G01Y-074626*
X004721*
G03X004718Y-074665I000282J000039*
X005003Y-074951I000285*
X005043Y-074948J000286*
G01X005079Y-000118D02*
X005354D01*
Y000433*
X005079*
Y-000118*
X005669D02*
X005945D01*
Y000433*
X005669*
Y-000118*
X006181D02*
X006457D01*
Y000433*
X006181*
Y-000118*
X006654D02*
X006929D01*
Y000433*
X006654*
Y-000118*
X075255Y-010027D02*
G03X075295Y-010030I000040J000283D01*
X075580Y-009744J000286*
X075577Y-009705I000285*
G01X075334*
Y-009461*
G03X075295Y-009459I000039J000283*
X075009Y-009744J000285*
X075012Y-009783I000286*
G01X075255*
Y-010027*
Y-074948D02*
G03X075295Y-074951I000040J000283D01*
X075580Y-074665J000286*
X075577Y-074626I000285*
G01X075334*
Y-074383*
G03X075295Y-074380I000039J000282*
X075009Y-074665J000285*
X075012Y-074705I000286*
G01X075255*
Y-074948*
X075334D02*
Y-074705D01*
X075577*
G03X075580Y-074665I000282J000040*
X075295Y-074380I000285*
X075255Y-074383J000285*
G01Y-074626*
X075012*
G03X075009Y-074665I000283J000039*
X075295Y-074951I000286*
X075334Y-074948J000286*
G01Y-010027D02*
Y-009783D01*
X075577*
G03X075580Y-009744I000282J000039*
X075295Y-009459I000285*
X075255Y-009461J000285*
G01Y-009705*
X075012*
G03X075009Y-009744I000283J000039*
X075295Y-010030I000286*
X075334Y-010027J000286*
G37*
G54D10*
G01X-010000Y000591D02*
G02X-009213Y001704I001181D01*
G01X-008143Y001987*
G02X-007988Y002008I000155J000570*
G01X105150*
G02X105304Y001987J000591*
G01X106378Y001704*
G02X107165Y000591I000394J001113*
G01Y-082638*
X-010000*
Y000591*
G54D11*
X000000Y-000591D02*
Y000591D01*
X000591Y000000D02*
X-000591D01*
X014666Y000394D02*
Y001378D01*
X014447Y000394*
X014228Y001378*
Y000394*
X015355D02*
Y001378D01*
X015073*
X014979Y001318*
X014948Y001274*
X014917Y001184*
Y001050*
X014948Y000945*
X014979Y000901*
X015073Y000856*
X015355*
X018679Y001378D02*
Y000394D01*
X018898Y001378D02*
X018460D01*
X019431D02*
X019483Y001318D01*
X019535Y001229*
X019567Y001139*
X019587Y001005*
Y000767*
X019567Y000632*
X019535Y000528*
X019483Y000438*
X019431Y000394*
X019316*
X019264Y000438*
X019201Y000528*
X019180Y000632*
X019149Y000767*
Y001005*
X019180Y001139*
X019201Y001229*
X019264Y001318*
X019316Y001378*
X019431*
X020276Y000901D02*
X019995D01*
X019901Y000856*
X019869Y000811*
X019838Y000722*
Y000573*
X019869Y000483*
X019901Y000438*
X019995Y000394*
X020276*
Y001378*
X019995*
X019901Y001318*
X019869Y001274*
X019838Y001184*
Y001095*
X019869Y001005*
X019901Y000945*
X019995Y000901*
X021654Y000767D02*
X021602Y000901D01*
X021498Y000990*
X021383Y001035*
X021216*
X021654D02*
Y000394D01*
X022343Y000767D02*
X021905D01*
Y000856*
X021936Y000945*
X021978Y000990*
X022051Y001035*
X022166*
X022239Y000990*
X022312Y000901*
X022343Y000767*
Y000662*
X022312Y000528*
X022239Y000438*
X022166Y000394*
X022051*
X021978Y000438*
X021905Y000528*
X022594Y001035D02*
X022803Y000394D01*
X022865Y000200*
X022938Y000110*
X023001Y000066*
X023032*
X023001Y001035D02*
X022803Y000394D01*
X023283Y000901D02*
X023356Y000990D01*
X023429Y001035*
X023544*
X023617Y000990*
X023690Y000901*
X023721Y000767*
Y000662*
X023690Y000528*
X023617Y000438*
X023544Y000394*
X023429*
X023356Y000438*
X023283Y000528*
Y001035D02*
Y000394D01*
X024410Y001378D02*
Y000394D01*
X023972*
X028080Y001139D02*
Y001184D01*
X028049Y001274*
X028017Y001318*
X027955Y001378*
X027830*
X027767Y001318*
X027736Y001274*
X027704Y001184*
Y001095*
X027736Y001005*
X027798Y000856*
X028111Y000394*
X027673*
X028612Y001363D02*
X028706Y001318D01*
X028769Y001184*
X028800Y000945*
Y000811*
X028769Y000573*
X028706Y000438*
X028612Y000394*
X028550*
X028456Y000438*
X028393Y000573*
X028362Y000811*
Y000945*
X028393Y001184*
X028456Y001318*
X028550Y001363*
X028612*
X029886D02*
X030178Y000722D01*
X029740*
X029886Y001363D02*
Y000394D01*
X030575Y001363D02*
Y000394D01*
Y001363D02*
X030867Y000722D01*
X030429*
X031118Y001050D02*
X031149Y000901D01*
X031212Y000811*
X031327Y000767*
X031358*
X031462Y000811*
X031525Y000901*
X031556Y001050*
Y001095*
X031525Y001229*
X031462Y001318*
X031358Y001363*
X031327*
X031212Y001318*
X031149Y001229*
X031118Y001050*
Y000811*
X031149Y000573*
X031212Y000438*
X031327Y000394*
X031389*
X031494Y000438*
X031525Y000528*
X032214Y001139D02*
Y001184D01*
X032182Y001274*
X032151Y001318*
X032089Y001378*
X031963*
X031901Y001318*
X031869Y001274*
X031838Y001184*
Y001095*
X031869Y001005*
X031932Y000856*
X032245Y000394*
X031807*
X032746Y001363D02*
X032840Y001318D01*
X032903Y001184*
X032934Y000945*
Y000811*
X032903Y000573*
X032840Y000438*
X032746Y000394*
X032684*
X032590Y000438*
X032527Y000573*
X032496Y000811*
Y000945*
X032527Y001184*
X032590Y001318*
X032684Y001363*
X032746*
X033592Y001139D02*
Y001184D01*
X033560Y001274*
X033529Y001318*
X033466Y001378*
X033341*
X033279Y001318*
X033247Y001274*
X033216Y001184*
Y001095*
X033247Y001005*
X033310Y000856*
X033623Y000394*
X033185*
X034281Y001139D02*
Y001184D01*
X034249Y001274*
X034218Y001318*
X034155Y001378*
X034030*
X033968Y001318*
X033936Y001274*
X033905Y001184*
Y001095*
X033936Y001005*
X033999Y000856*
X034312Y000394*
X033874*
X034834Y001184D02*
X034792Y001229D01*
X034740Y001363*
Y000394*
X036379Y001378D02*
Y000394D01*
X035940*
X037068D02*
Y001378D01*
X036629Y000394*
Y001378*
X037757Y000394D02*
Y001378D01*
X037475*
X037381Y001318*
X037350Y001274*
X037318Y001184*
Y001050*
X037350Y000945*
X037381Y000901*
X037475Y000856*
X037757*
X039103Y001139D02*
Y001184D01*
X039072Y001274*
X039041Y001318*
X038978Y001378*
X038853*
X038790Y001318*
X038759Y001274*
X038728Y001184*
Y001095*
X038759Y001005*
X038822Y000856*
X039135Y000394*
X038696*
X039636Y001363D02*
X039730Y001318D01*
X039792Y001184*
X039824Y000945*
Y000811*
X039792Y000573*
X039730Y000438*
X039636Y000394*
X039573*
X039479Y000438*
X039417Y000573*
X039385Y000811*
Y000945*
X039417Y001184*
X039479Y001318*
X039573Y001363*
X039636*
X041139D02*
X040795D01*
X040982Y000990*
X040888*
X040826Y000945*
X040795Y000901*
X040763Y000767*
Y000662*
X040795Y000528*
X040857Y000438*
X040951Y000394*
X041045*
X041139Y000438*
X041170Y000483*
X041202Y000573*
X041598Y001363D02*
Y000394D01*
Y001363D02*
X041891Y000722D01*
X041452*
X042141Y001050D02*
X042172Y000901D01*
X042235Y000811*
X042350Y000767*
X042381*
X042486Y000811*
X042548Y000901*
X042580Y001050*
Y001095*
X042548Y001229*
X042486Y001318*
X042381Y001363*
X042350*
X042235Y001318*
X042172Y001229*
X042141Y001050*
Y000811*
X042172Y000573*
X042235Y000438*
X042350Y000394*
X042413*
X042517Y000438*
X042548Y000528*
X043237Y001139D02*
Y001184D01*
X043206Y001274*
X043175Y001318*
X043112Y001378*
X042987*
X042924Y001318*
X042893Y001274*
X042861Y001184*
Y001095*
X042893Y001005*
X042955Y000856*
X043269Y000394*
X042830*
X043770Y001363D02*
X043864Y001318D01*
X043926Y001184*
X043957Y000945*
Y000811*
X043926Y000573*
X043864Y000438*
X043770Y000394*
X043707*
X043613Y000438*
X043550Y000573*
X043519Y000811*
Y000945*
X043550Y001184*
X043613Y001318*
X043707Y001363*
X043770*
X044615Y001139D02*
Y001184D01*
X044584Y001274*
X044552Y001318*
X044490Y001378*
X044365*
X044302Y001318*
X044271Y001274*
X044239Y001184*
Y001095*
X044271Y001005*
X044333Y000856*
X044646Y000394*
X044208*
X045304Y001139D02*
Y001184D01*
X045273Y001274*
X045241Y001318*
X045179Y001378*
X045054*
X044991Y001318*
X044960Y001274*
X044928Y001184*
Y001095*
X044960Y001005*
X045022Y000856*
X045335Y000394*
X044897*
X045857Y001184D02*
X045816Y001229D01*
X045763Y001363*
Y000394*
X047402Y001378D02*
X047183D01*
X047089Y001318*
X047026Y001229*
X046995Y001139*
X046964Y001005*
Y000767*
X046995Y000632*
X047026Y000528*
X047089Y000438*
X047183Y000394*
X047402*
Y001378*
X047872Y000901D02*
X047653Y000394D01*
X048091D02*
Y001378D01*
X047809*
X047715Y001318*
X047684Y001274*
X047653Y001184*
Y001095*
X047684Y001005*
X047715Y000945*
X047809Y000901*
X048091*
X048780D02*
X048498D01*
X048404Y000856*
X048373Y000811*
X048342Y000722*
Y000573*
X048373Y000483*
X048404Y000438*
X048498Y000394*
X048780*
Y001378*
X048498*
X048404Y001318*
X048373Y001274*
X048342Y001184*
Y001095*
X048373Y001005*
X048404Y000945*
X048498Y000901*
G54D12*
X-006238Y-065394D03*
Y-064390D03*
X-005568Y-065394D03*
Y-064390D03*
X-005431Y-062854D03*
X-004761D03*
X017680Y-021555D03*
X018349D03*
X018487Y-020020D03*
Y-019016D03*
X019156Y-020020D03*
Y-019016D03*
X027462Y-065394D03*
Y-064390D03*
X028131Y-065394D03*
Y-064390D03*
X028269Y-062854D03*
X028938D03*
X051379Y-021555D03*
X052049D03*
X052186Y-020020D03*
Y-019016D03*
X052856Y-020020D03*
Y-019016D03*
X061162Y-065394D03*
Y-064390D03*
X061831Y-065394D03*
Y-064390D03*
X061969Y-062854D03*
X062638D03*
X085079Y-021555D03*
X085749D03*
X085886Y-020020D03*
Y-019016D03*
X086556Y-020020D03*
Y-019016D03*
X094862Y-065394D03*
Y-064390D03*
X095531Y-065394D03*
Y-064390D03*
X095669Y-062854D03*
X096338D03*
G54D13*
X004921Y-036423D03*
Y-014631D03*
Y-004081D03*
X005551Y-036423D03*
Y-014631D03*
Y-004081D03*
X007367Y-080328D03*
Y-069779D03*
Y-047987D03*
X007997Y-080328D03*
Y-069779D03*
Y-047987D03*
X038621Y-036423D03*
Y-014631D03*
Y-004081D03*
X039251Y-036423D03*
Y-014631D03*
Y-004081D03*
X041067Y-080328D03*
Y-069779D03*
Y-047987D03*
X041697Y-080328D03*
Y-069779D03*
Y-047987D03*
X072321Y-036423D03*
Y-014631D03*
Y-004081D03*
X072951Y-036423D03*
Y-014631D03*
Y-004081D03*
X074767Y-080328D03*
Y-069779D03*
Y-047987D03*
X075397Y-080328D03*
Y-069779D03*
Y-047987D03*
X106020Y-036423D03*
Y-014631D03*
Y-004081D03*
X106650Y-036423D03*
Y-014631D03*
Y-004081D03*
G54D14*
X-004604Y-065207D03*
Y-064951D03*
Y-064695D03*
Y-064439D03*
X-003501Y-065207D03*
Y-064951D03*
Y-064695D03*
Y-064439D03*
X016420Y-019971D03*
Y-019715D03*
Y-019459D03*
Y-019203D03*
X017522Y-019971D03*
Y-019715D03*
Y-019459D03*
Y-019203D03*
X029096Y-065207D03*
Y-064951D03*
Y-064695D03*
Y-064439D03*
X030198Y-065207D03*
Y-064951D03*
Y-064695D03*
Y-064439D03*
X050120Y-019971D03*
Y-019715D03*
Y-019459D03*
Y-019203D03*
X051222Y-019971D03*
Y-019715D03*
Y-019459D03*
Y-019203D03*
X062796Y-065207D03*
Y-064951D03*
Y-064695D03*
Y-064439D03*
X063898Y-065207D03*
Y-064951D03*
Y-064695D03*
Y-064439D03*
X083819Y-019971D03*
Y-019715D03*
Y-019459D03*
Y-019203D03*
X084922Y-019971D03*
Y-019715D03*
Y-019459D03*
Y-019203D03*
X096496Y-065207D03*
Y-064951D03*
Y-064695D03*
Y-064439D03*
X097598Y-065207D03*
Y-064951D03*
Y-064695D03*
Y-064439D03*
G54D15*
X-004053Y-064823D03*
X016971Y-019587D03*
X029647Y-064823D03*
X050671Y-019587D03*
X063347Y-064823D03*
X084371Y-019587D03*
X097047Y-064823D03*
G54D16*
X-003792Y-038911D03*
Y-037730D03*
X-003679Y-006260D03*
Y-005079D03*
X-002768Y-038911D03*
Y-037730D03*
X-002596Y-006260D03*
Y-005079D03*
X-001745Y-038911D03*
Y-037730D03*
X-001474Y-006260D03*
Y-005079D03*
X014392Y-079331D03*
Y-078150D03*
X014663Y-046680D03*
Y-045499D03*
X015514Y-079331D03*
Y-078150D03*
X015687Y-046680D03*
Y-045499D03*
X016597Y-079331D03*
Y-078150D03*
X016710Y-046680D03*
Y-045499D03*
X029908Y-038911D03*
Y-037730D03*
X030021Y-006260D03*
Y-005079D03*
X030931Y-038911D03*
Y-037730D03*
X031104Y-006260D03*
Y-005079D03*
X031955Y-038911D03*
Y-037730D03*
X032226Y-006260D03*
Y-005079D03*
X048092Y-079331D03*
Y-078150D03*
X048363Y-046680D03*
Y-045499D03*
X049214Y-079331D03*
Y-078150D03*
X049386Y-046680D03*
Y-045499D03*
X050297Y-079331D03*
Y-078150D03*
X050410Y-046680D03*
Y-045499D03*
X063608Y-038911D03*
Y-037730D03*
X063721Y-006260D03*
Y-005079D03*
X064631Y-038911D03*
Y-037730D03*
X064804Y-006260D03*
Y-005079D03*
X065655Y-038911D03*
Y-037730D03*
X065926Y-006260D03*
Y-005079D03*
X081792Y-079331D03*
Y-078150D03*
X082063Y-046680D03*
Y-045499D03*
X082914Y-079331D03*
Y-078150D03*
X083086Y-046680D03*
Y-045499D03*
X083997Y-079331D03*
Y-078150D03*
X084110Y-046680D03*
Y-045499D03*
X097307Y-038911D03*
Y-037730D03*
X097421Y-006260D03*
Y-005079D03*
X098331Y-038911D03*
Y-037730D03*
X098504Y-006260D03*
Y-005079D03*
X099355Y-038911D03*
Y-037730D03*
X099626Y-006260D03*
Y-005079D03*
G54D17*
X-006834Y-063360D03*
Y-062691D03*
X-006086Y-063360D03*
Y-062691D03*
X000298Y-031161D03*
Y-030492D03*
X001046Y-031161D03*
Y-030492D03*
X011872Y-053917D03*
Y-053248D03*
X012620Y-053917D03*
Y-053248D03*
X019005Y-021719D03*
Y-021050D03*
X019753Y-021719D03*
Y-021050D03*
X026865Y-063360D03*
Y-062691D03*
X027613Y-063360D03*
Y-062691D03*
X033998Y-031161D03*
Y-030492D03*
X034746Y-031161D03*
Y-030492D03*
X045572Y-053917D03*
Y-053248D03*
X046320Y-053917D03*
Y-053248D03*
X052705Y-021719D03*
Y-021050D03*
X053453Y-021719D03*
Y-021050D03*
X060565Y-063360D03*
Y-062691D03*
X061313Y-063360D03*
Y-062691D03*
X067697Y-031161D03*
Y-030492D03*
X068445Y-031161D03*
Y-030492D03*
X079272Y-053917D03*
Y-053248D03*
X080020Y-053917D03*
Y-053248D03*
X086404Y-021719D03*
Y-021050D03*
X087152Y-021719D03*
Y-021050D03*
X094265Y-063360D03*
Y-062691D03*
X095013Y-063360D03*
Y-062691D03*
X101397Y-031161D03*
Y-030492D03*
X102145Y-031161D03*
Y-030492D03*
G54D18*
X-006854Y-063025D03*
X-006067D03*
X000278Y-030827D03*
X001066D03*
X011853Y-053583D03*
X012640D03*
X018985Y-021384D03*
X019772D03*
X026846Y-063025D03*
X027633D03*
X033978Y-030827D03*
X034765D03*
X045553Y-053583D03*
X046340D03*
X052685Y-021384D03*
X053472D03*
X060545Y-063025D03*
X061333D03*
X067678Y-030827D03*
X068465D03*
X079252Y-053583D03*
X080040D03*
X086385Y-021384D03*
X087172D03*
X094245Y-063025D03*
X095033D03*
X101378Y-030827D03*
X102165D03*
G54D19*
X-005450Y-059055D03*
X-005096Y-059803D03*
Y-059055D03*
X-004742Y-059803D03*
X-003836Y-026122D03*
X-003541Y-035354D03*
Y-034705D03*
Y-034055D03*
X-003482Y-026122D03*
X-003186Y-035354D03*
Y-034705D03*
Y-034055D03*
X-002753Y-063268D03*
Y-062776D03*
X-002399Y-063268D03*
Y-062776D03*
X-001789Y-065217D03*
X-001434D03*
X014353Y-019193D03*
X014707D03*
X015317Y-021634D03*
Y-021142D03*
X015672Y-021634D03*
Y-021142D03*
X016105Y-050354D03*
Y-049705D03*
Y-049055D03*
X016400Y-058288D03*
X016459Y-050354D03*
Y-049705D03*
Y-049055D03*
X016754Y-058288D03*
X017660Y-024606D03*
X018014Y-025354D03*
Y-024606D03*
X018369Y-025354D03*
X028249Y-059055D03*
X028604Y-059803D03*
Y-059055D03*
X028958Y-059803D03*
X029864Y-026122D03*
X030159Y-035354D03*
Y-034705D03*
Y-034055D03*
X030218Y-026122D03*
X030513Y-035354D03*
Y-034705D03*
Y-034055D03*
X030946Y-063268D03*
Y-062776D03*
X031301Y-063268D03*
Y-062776D03*
X031911Y-065217D03*
X032265D03*
X048053Y-019193D03*
X048407D03*
X049017Y-021634D03*
Y-021142D03*
X049372Y-021634D03*
Y-021142D03*
X049805Y-050354D03*
Y-049705D03*
Y-049055D03*
X050100Y-058287D03*
X050159Y-050354D03*
Y-049705D03*
Y-049055D03*
X050454Y-058287D03*
X051360Y-024606D03*
X051714Y-025354D03*
Y-024606D03*
X052068Y-025354D03*
X061949Y-059055D03*
X062304Y-059803D03*
Y-059055D03*
X062658Y-059803D03*
X063564Y-026122D03*
X063859Y-035354D03*
Y-034705D03*
Y-034055D03*
X063918Y-026122D03*
X064213Y-035354D03*
Y-034705D03*
Y-034055D03*
X064646Y-063268D03*
Y-062776D03*
X065001Y-063268D03*
Y-062776D03*
X065611Y-065217D03*
X065965D03*
X081752Y-019193D03*
X082107D03*
X082717Y-021634D03*
Y-021142D03*
X083071Y-021634D03*
Y-021142D03*
X083504Y-050354D03*
Y-049705D03*
Y-049055D03*
X083800Y-058287D03*
X083859Y-050354D03*
Y-049705D03*
Y-049055D03*
X084154Y-058287D03*
X085060Y-024606D03*
X085414Y-025354D03*
Y-024606D03*
X085768Y-025354D03*
X095649Y-059055D03*
X096004Y-059803D03*
Y-059055D03*
X096358Y-059803D03*
X097263Y-026122D03*
X097559Y-035354D03*
Y-034705D03*
Y-034055D03*
X097618Y-026122D03*
X097913Y-035354D03*
Y-034705D03*
Y-034055D03*
X098346Y-063268D03*
Y-062776D03*
X098700Y-063268D03*
Y-062776D03*
X099311Y-065217D03*
X099665D03*
G54D20*
X-001297Y-020354D03*
Y-019567D03*
X-001041Y-020354D03*
Y-019567D03*
X-000785Y-020354D03*
Y-019567D03*
X-000431Y-042582D03*
Y-041794D03*
X-000175Y-042582D03*
Y-041794D03*
X000081Y-042582D03*
Y-041794D03*
X012837Y-042615D03*
Y-041828D03*
X013093Y-042615D03*
Y-041828D03*
X013349Y-042615D03*
Y-041828D03*
X013703Y-064843D03*
Y-064055D03*
X013959Y-064843D03*
Y-064055D03*
X014215Y-064843D03*
Y-064055D03*
X032403Y-020354D03*
Y-019567D03*
X032659Y-020354D03*
Y-019567D03*
X032915Y-020354D03*
Y-019567D03*
X033269Y-042582D03*
Y-041794D03*
X033525Y-042582D03*
Y-041794D03*
X033781Y-042582D03*
Y-041794D03*
X046537Y-042615D03*
Y-041828D03*
X046793Y-042615D03*
Y-041828D03*
X047049Y-042615D03*
Y-041828D03*
X047403Y-064843D03*
Y-064055D03*
X047659Y-064843D03*
Y-064055D03*
X047915Y-064843D03*
Y-064055D03*
X066103Y-020354D03*
Y-019567D03*
X066359Y-020354D03*
Y-019567D03*
X066615Y-020354D03*
Y-019567D03*
X066969Y-042582D03*
Y-041794D03*
X067225Y-042582D03*
Y-041794D03*
X067481Y-042582D03*
Y-041794D03*
X080237Y-042615D03*
Y-041828D03*
X080493Y-042615D03*
Y-041828D03*
X080749Y-042615D03*
Y-041828D03*
X081103Y-064843D03*
Y-064055D03*
X081359Y-064843D03*
Y-064055D03*
X081615Y-064843D03*
Y-064055D03*
X099803Y-020354D03*
Y-019567D03*
X100059Y-020354D03*
Y-019567D03*
X100315Y-020354D03*
Y-019567D03*
X100669Y-042582D03*
Y-041794D03*
X100925Y-042582D03*
Y-041794D03*
X101181Y-042582D03*
Y-041794D03*
G54D21*
X000345Y-009370D03*
X001153Y-009626D03*
Y-009114D03*
X005505Y-079994D03*
Y-069444D03*
Y-058547D03*
Y-047652D03*
Y-036974D03*
Y-025862D03*
Y-015182D03*
Y-004632D03*
X007414Y-079777D03*
Y-069228D03*
Y-058547D03*
Y-047436D03*
Y-036757D03*
Y-025863D03*
Y-014966D03*
Y-004416D03*
X011766Y-075295D03*
Y-074784D03*
X012573Y-075040D03*
X034045Y-009370D03*
X034852Y-009626D03*
Y-009114D03*
X039204Y-079994D03*
Y-069444D03*
Y-058547D03*
Y-047652D03*
Y-036974D03*
Y-025862D03*
Y-015182D03*
Y-004632D03*
X041114Y-079777D03*
Y-069227D03*
Y-058547D03*
Y-047436D03*
Y-036757D03*
Y-025862D03*
Y-014966D03*
Y-004416D03*
X045466Y-075295D03*
Y-074784D03*
X046273Y-075039D03*
X067745Y-009370D03*
X068552Y-009626D03*
Y-009114D03*
X072904Y-079994D03*
Y-069444D03*
Y-058547D03*
Y-047652D03*
Y-036974D03*
Y-025862D03*
Y-015182D03*
Y-004632D03*
X074814Y-079777D03*
Y-069227D03*
Y-058547D03*
Y-047436D03*
Y-036757D03*
Y-025862D03*
Y-014966D03*
Y-004416D03*
X079165Y-075295D03*
Y-074784D03*
X079973Y-075039D03*
X101445Y-009370D03*
X102252Y-009626D03*
Y-009114D03*
X106604Y-079994D03*
Y-069444D03*
Y-058547D03*
Y-047652D03*
Y-036974D03*
Y-025862D03*
Y-015182D03*
Y-004632D03*
G54D22*
X005042Y-079994D03*
Y-069444D03*
Y-058547D03*
Y-047652D03*
Y-036974D03*
Y-025862D03*
Y-015182D03*
Y-004632D03*
X007876Y-079777D03*
Y-069228D03*
Y-058547D03*
Y-047436D03*
Y-036757D03*
Y-025863D03*
Y-014966D03*
Y-004416D03*
X038742Y-079994D03*
Y-069444D03*
Y-058547D03*
Y-047652D03*
Y-036974D03*
Y-025862D03*
Y-015182D03*
Y-004632D03*
X041576Y-079777D03*
Y-069227D03*
Y-058547D03*
Y-047436D03*
Y-036757D03*
Y-025862D03*
Y-014966D03*
Y-004416D03*
X072441Y-079994D03*
Y-069444D03*
Y-058547D03*
Y-047652D03*
Y-036974D03*
Y-025862D03*
Y-015182D03*
Y-004632D03*
X075276Y-079777D03*
Y-069227D03*
Y-058547D03*
Y-047436D03*
Y-036757D03*
Y-025862D03*
Y-014966D03*
Y-004416D03*
X106141Y-079994D03*
Y-069444D03*
Y-058547D03*
Y-047652D03*
Y-036974D03*
Y-025862D03*
Y-015182D03*
Y-004632D03*
G54D23*
X-003974Y-062894D03*
X-003265D03*
X-002911Y-060945D03*
X-002202D03*
X-001789Y-064409D03*
X-001779Y-062854D03*
X-001080Y-064409D03*
X-001070Y-062854D03*
X000573Y-016575D03*
X001282D03*
X001833Y-038425D03*
X002089Y-078917D03*
Y-069449D03*
Y-025866D03*
X002542Y-038425D03*
X002798Y-078917D03*
Y-069449D03*
Y-025866D03*
X010120Y-058543D03*
Y-014961D03*
Y-005492D03*
X010376Y-045984D03*
X010829Y-058543D03*
Y-014961D03*
Y-005492D03*
X011085Y-045984D03*
X011636Y-067835D03*
X012345D03*
X013989Y-021555D03*
X013998Y-020000D03*
X014697Y-021555D03*
X014707Y-020000D03*
X015120Y-023465D03*
X015829D03*
X016183Y-021516D03*
X016892D03*
X029726Y-062894D03*
X030435D03*
X030789Y-060945D03*
X031498D03*
X031911Y-064409D03*
X031921Y-062854D03*
X032620Y-064409D03*
X032629Y-062854D03*
X034273Y-016575D03*
X034982D03*
X035533Y-038425D03*
X035789Y-078917D03*
Y-069449D03*
Y-025866D03*
X036242Y-038425D03*
X036498Y-078917D03*
Y-069449D03*
Y-025866D03*
X043820Y-058543D03*
Y-014961D03*
Y-005492D03*
X044076Y-045984D03*
X044529Y-058543D03*
Y-014961D03*
Y-005492D03*
X044785Y-045984D03*
X045336Y-067835D03*
X046045D03*
X047688Y-021555D03*
X047698Y-020000D03*
X048397Y-021555D03*
X048407Y-020000D03*
X048820Y-023465D03*
X049529D03*
X049883Y-021516D03*
X050592D03*
X063426Y-062894D03*
X064134D03*
X064489Y-060945D03*
X065197D03*
X065611Y-064409D03*
X065621Y-062854D03*
X066319Y-064409D03*
X066329Y-062854D03*
X067973Y-016575D03*
X068682D03*
X069233Y-038425D03*
X069489Y-078917D03*
Y-069449D03*
Y-025866D03*
X069941Y-038425D03*
X070197Y-078917D03*
Y-069449D03*
Y-025866D03*
X077520Y-058543D03*
Y-014961D03*
Y-005492D03*
X077776Y-045984D03*
X078229Y-058543D03*
Y-014961D03*
Y-005492D03*
X078485Y-045984D03*
X079036Y-067835D03*
X079745D03*
X081388Y-021555D03*
X081398Y-020000D03*
X082097Y-021555D03*
X082107Y-020000D03*
X082520Y-023465D03*
X083229D03*
X083583Y-021516D03*
X084292D03*
X097126Y-062894D03*
X097834D03*
X098189Y-060945D03*
X098897D03*
X099311Y-064409D03*
X099320Y-062854D03*
X100019Y-064409D03*
X100029Y-062854D03*
X101673Y-016575D03*
X102381D03*
X102933Y-038425D03*
X103189Y-078917D03*
Y-069449D03*
Y-025866D03*
X103641Y-038425D03*
X103897Y-078917D03*
Y-069449D03*
Y-025866D03*
G54D24*
X-001249Y-053095D03*
X000818D03*
X012100Y-031314D03*
X014167D03*
X032451Y-053095D03*
X034518D03*
X045800Y-031314D03*
X047867D03*
X066151Y-053095D03*
X068218D03*
X079500Y-031314D03*
X081567D03*
X099851Y-053095D03*
X101918D03*
G54D25*
X-003423Y-016161D03*
Y-015000D03*
Y-013839D03*
X-002793Y-047677D03*
Y-046516D03*
X-002242Y-016161D03*
Y-015000D03*
Y-013839D03*
X-001612Y-047677D03*
Y-046516D03*
X014530Y-037894D03*
Y-036732D03*
X015160Y-070571D03*
Y-069410D03*
Y-068248D03*
X015711Y-037894D03*
Y-036732D03*
X016341Y-070571D03*
Y-069410D03*
Y-068248D03*
X030277Y-016161D03*
Y-015000D03*
Y-013839D03*
X030907Y-047677D03*
Y-046516D03*
X031458Y-016161D03*
Y-015000D03*
Y-013839D03*
X032088Y-047677D03*
Y-046516D03*
X048230Y-037894D03*
Y-036732D03*
X048860Y-070571D03*
Y-069410D03*
Y-068248D03*
X049411Y-037894D03*
Y-036732D03*
X050041Y-070571D03*
Y-069410D03*
Y-068248D03*
X063977Y-016161D03*
Y-015000D03*
Y-013839D03*
X064607Y-047677D03*
Y-046516D03*
X065158Y-016161D03*
Y-015000D03*
Y-013839D03*
X065788Y-047677D03*
Y-046516D03*
X081930Y-037894D03*
Y-036732D03*
X082560Y-070571D03*
Y-069410D03*
Y-068248D03*
X083111Y-037894D03*
Y-036732D03*
X083741Y-070571D03*
Y-069410D03*
Y-068248D03*
X097677Y-016161D03*
Y-015000D03*
Y-013839D03*
X098307Y-047677D03*
Y-046516D03*
X098858Y-016161D03*
Y-015000D03*
Y-013839D03*
X099488Y-047677D03*
Y-046516D03*
G54D26*
X-004940Y-053981D03*
X-003444D03*
X016362Y-030428D03*
X017858D03*
X028760Y-053981D03*
X030256D03*
X050062Y-030428D03*
X051558D03*
X062460Y-053981D03*
X063956D03*
X083762Y-030428D03*
X085258D03*
X096160Y-053981D03*
X097656D03*
G54D27*
X-002320Y-033858D03*
X-002025Y-059961D03*
X-001769Y-033858D03*
X-001474Y-059961D03*
X014392Y-024449D03*
X014687Y-050551D03*
X014943Y-024449D03*
X015239Y-050551D03*
X031379Y-033858D03*
X031675Y-059961D03*
X031931Y-033858D03*
X032226Y-059961D03*
X048092Y-024449D03*
X048387Y-050551D03*
X048643Y-024449D03*
X048938Y-050551D03*
X065079Y-033858D03*
X065375Y-059961D03*
X065630Y-033858D03*
X065926Y-059961D03*
X081792Y-024449D03*
X082087Y-050551D03*
X082343Y-024449D03*
X082638Y-050551D03*
X098779Y-033858D03*
X099074Y-059961D03*
X099330Y-033858D03*
X099626Y-059961D03*
G54D28*
X-005009Y-052446D03*
X-003296D03*
X016214Y-031964D03*
X017927D03*
X028691Y-052446D03*
X030404D03*
X049914Y-031964D03*
X051627D03*
X062391Y-052446D03*
X064103D03*
X083614Y-031964D03*
X085327D03*
X096091Y-052446D03*
X097803D03*
G54D29*
X-004033Y-035354D03*
Y-035000D03*
X-002753Y-065276D03*
Y-064921D03*
Y-064114D03*
Y-063760D03*
X-000864Y-034665D03*
Y-034311D03*
X013782Y-050099D03*
Y-049744D03*
X015672Y-020650D03*
Y-020295D03*
Y-019488D03*
Y-019134D03*
X016951Y-049410D03*
Y-049055D03*
X029667Y-035354D03*
Y-035000D03*
X030946Y-065276D03*
Y-064921D03*
Y-064114D03*
Y-063760D03*
X032836Y-034665D03*
Y-034311D03*
X047482Y-050099D03*
Y-049744D03*
X049372Y-020650D03*
Y-020295D03*
Y-019488D03*
Y-019134D03*
X050651Y-049410D03*
Y-049055D03*
X063367Y-035354D03*
Y-035000D03*
X064646Y-065276D03*
Y-064921D03*
Y-064114D03*
Y-063760D03*
X066536Y-034665D03*
Y-034311D03*
X081182Y-050099D03*
Y-049744D03*
X083071Y-020650D03*
Y-020295D03*
Y-019488D03*
Y-019134D03*
X084351Y-049410D03*
Y-049055D03*
X097067Y-035354D03*
Y-035000D03*
X098346Y-065276D03*
Y-064921D03*
Y-064114D03*
Y-063760D03*
X100236Y-034665D03*
Y-034311D03*
G54D30*
X-000352Y-063636D03*
Y-062702D03*
X013270Y-021707D03*
Y-020773D03*
X033348Y-063636D03*
Y-062702D03*
X046970Y-021707D03*
Y-020773D03*
X067048Y-063636D03*
Y-062702D03*
X080670Y-021707D03*
Y-020773D03*
X100748Y-063636D03*
Y-062702D03*
G54D31*
X-006169Y-032539D03*
Y-031870D03*
Y-030728D03*
Y-030059D03*
X-005086Y-032539D03*
Y-031870D03*
Y-030728D03*
Y-030059D03*
X018004Y-054351D03*
Y-053681D03*
Y-052540D03*
Y-051870D03*
X019087Y-054351D03*
Y-053681D03*
Y-052540D03*
Y-051870D03*
X027531Y-032539D03*
Y-031870D03*
Y-030728D03*
Y-030059D03*
X028614Y-032539D03*
Y-031870D03*
Y-030728D03*
Y-030059D03*
X051704Y-054350D03*
Y-053681D03*
Y-052539D03*
Y-051870D03*
X052787Y-054350D03*
Y-053681D03*
Y-052539D03*
Y-051870D03*
X061231Y-032539D03*
Y-031870D03*
Y-030728D03*
Y-030059D03*
X062314Y-032539D03*
Y-031870D03*
Y-030728D03*
Y-030059D03*
X085404Y-054350D03*
Y-053681D03*
Y-052539D03*
Y-051870D03*
X086487Y-054350D03*
Y-053681D03*
Y-052539D03*
Y-051870D03*
X094931Y-032539D03*
Y-031870D03*
Y-030728D03*
Y-030059D03*
X096013Y-032539D03*
Y-031870D03*
Y-030728D03*
Y-030059D03*
G54D32*
X-005785Y-032539D03*
Y-031870D03*
Y-030728D03*
Y-030059D03*
X-005470Y-032539D03*
Y-031870D03*
Y-030728D03*
Y-030059D03*
X018388Y-054351D03*
Y-053681D03*
Y-052540D03*
Y-051870D03*
X018703Y-054351D03*
Y-053681D03*
Y-052540D03*
Y-051870D03*
X027915Y-032539D03*
Y-031870D03*
Y-030728D03*
Y-030059D03*
X028230Y-032539D03*
Y-031870D03*
Y-030728D03*
Y-030059D03*
X052088Y-054350D03*
Y-053681D03*
Y-052539D03*
Y-051870D03*
X052403Y-054350D03*
Y-053681D03*
Y-052539D03*
Y-051870D03*
X061615Y-032539D03*
Y-031870D03*
Y-030728D03*
Y-030059D03*
X061930Y-032539D03*
Y-031870D03*
Y-030728D03*
Y-030059D03*
X085788Y-054350D03*
Y-053681D03*
Y-052539D03*
Y-051870D03*
X086103Y-054350D03*
Y-053681D03*
Y-052539D03*
Y-051870D03*
X095315Y-032539D03*
Y-031870D03*
Y-030728D03*
Y-030059D03*
X095630Y-032539D03*
Y-031870D03*
Y-030728D03*
Y-030059D03*
G54D70*
X-003836Y-032785D03*
Y-029734D03*
X-003580Y-032785D03*
Y-029734D03*
X-003324Y-032785D03*
Y-029734D03*
X-003068Y-032785D03*
Y-029734D03*
X-002812Y-032785D03*
Y-029734D03*
X-002557Y-032785D03*
Y-029734D03*
X-002301Y-032785D03*
Y-029734D03*
X-002045Y-032785D03*
Y-029734D03*
X-001789Y-032785D03*
Y-029734D03*
X-001533Y-032785D03*
Y-029734D03*
X-001277Y-032785D03*
Y-029734D03*
X-001021Y-032785D03*
Y-029734D03*
X-000765Y-032785D03*
Y-029734D03*
X-000509Y-032785D03*
Y-029734D03*
X-000253Y-032785D03*
Y-029734D03*
X013172Y-054676D03*
Y-051625D03*
X013428Y-054676D03*
Y-051625D03*
X013683Y-054676D03*
Y-051625D03*
X013939Y-054676D03*
Y-051625D03*
X014195Y-054676D03*
Y-051625D03*
X014451Y-054676D03*
Y-051625D03*
X014707Y-054676D03*
Y-051625D03*
X014963Y-054676D03*
Y-051625D03*
X015219Y-054676D03*
Y-051625D03*
X015475Y-054676D03*
Y-051625D03*
X015731Y-054676D03*
Y-051625D03*
X015987Y-054676D03*
Y-051625D03*
X016243Y-054676D03*
Y-051625D03*
X016498Y-054676D03*
Y-051625D03*
X016754Y-054676D03*
Y-051625D03*
X029864Y-032785D03*
Y-029734D03*
X030120Y-032785D03*
Y-029734D03*
X030375Y-032785D03*
Y-029734D03*
X030631Y-032785D03*
Y-029734D03*
X030887Y-032785D03*
Y-029734D03*
X031143Y-032785D03*
Y-029734D03*
X031399Y-032785D03*
Y-029734D03*
X031655Y-032785D03*
Y-029734D03*
X031911Y-032785D03*
Y-029734D03*
X032167Y-032785D03*
Y-029734D03*
X032423Y-032785D03*
Y-029734D03*
X032679Y-032785D03*
Y-029734D03*
X032935Y-032785D03*
Y-029734D03*
X033190Y-032785D03*
Y-029734D03*
X033446Y-032785D03*
Y-029734D03*
X046872Y-054676D03*
Y-051625D03*
X047127Y-054676D03*
Y-051625D03*
X047383Y-054676D03*
Y-051625D03*
X047639Y-054676D03*
Y-051625D03*
X047895Y-054676D03*
Y-051625D03*
X048151Y-054676D03*
Y-051625D03*
X048407Y-054676D03*
Y-051625D03*
X048663Y-054676D03*
Y-051625D03*
X048919Y-054676D03*
Y-051625D03*
X049175Y-054676D03*
Y-051625D03*
X049431Y-054676D03*
Y-051625D03*
X049686Y-054676D03*
Y-051625D03*
X049942Y-054676D03*
Y-051625D03*
X050198Y-054676D03*
Y-051625D03*
X050454Y-054676D03*
Y-051625D03*
X063564Y-032785D03*
Y-029734D03*
X063819Y-032785D03*
Y-029734D03*
X064075Y-032785D03*
Y-029734D03*
X064331Y-032785D03*
Y-029734D03*
X064587Y-032785D03*
Y-029734D03*
X064843Y-032785D03*
Y-029734D03*
X065099Y-032785D03*
Y-029734D03*
X065355Y-032785D03*
Y-029734D03*
X065611Y-032785D03*
Y-029734D03*
X065867Y-032785D03*
Y-029734D03*
X066123Y-032785D03*
Y-029734D03*
X066378Y-032785D03*
Y-029734D03*
X066634Y-032785D03*
Y-029734D03*
X066890Y-032785D03*
Y-029734D03*
X067146Y-032785D03*
Y-029734D03*
X080571Y-054676D03*
Y-051625D03*
X080827Y-054676D03*
Y-051625D03*
X081083Y-054676D03*
Y-051625D03*
X081339Y-054676D03*
Y-051625D03*
X081595Y-054676D03*
Y-051625D03*
X081851Y-054676D03*
Y-051625D03*
X082107Y-054676D03*
Y-051625D03*
X082363Y-054676D03*
Y-051625D03*
X082619Y-054676D03*
Y-051625D03*
X082875Y-054676D03*
Y-051625D03*
X083130Y-054676D03*
Y-051625D03*
X083386Y-054676D03*
Y-051625D03*
X083642Y-054676D03*
Y-051625D03*
X083898Y-054676D03*
Y-051625D03*
X084154Y-054676D03*
Y-051625D03*
X097263Y-032785D03*
Y-029734D03*
X097519Y-032785D03*
Y-029734D03*
X097775Y-032785D03*
Y-029734D03*
X098031Y-032785D03*
Y-029734D03*
X098287Y-032785D03*
Y-029734D03*
X098543Y-032785D03*
Y-029734D03*
X098799Y-032785D03*
Y-029734D03*
X099055Y-032785D03*
Y-029734D03*
X099311Y-032785D03*
Y-029734D03*
X099567Y-032785D03*
Y-029734D03*
X099822Y-032785D03*
Y-029734D03*
X100078Y-032785D03*
Y-029734D03*
X100334Y-032785D03*
Y-029734D03*
X100590Y-032785D03*
Y-029734D03*
X100846Y-032785D03*
Y-029734D03*
G54D71*
X000377Y-010748D03*
Y-010492D03*
Y-010236D03*
X001164Y-010748D03*
Y-010492D03*
Y-010236D03*
X011754Y-074173D03*
Y-073917D03*
Y-073662D03*
X012542Y-074173D03*
Y-073917D03*
Y-073662D03*
X034076Y-010748D03*
Y-010492D03*
Y-010236D03*
X034864Y-010748D03*
Y-010492D03*
Y-010236D03*
X045454Y-074173D03*
Y-073917D03*
Y-073662D03*
X046242Y-074173D03*
Y-073917D03*
Y-073662D03*
X067776Y-010748D03*
Y-010492D03*
Y-010236D03*
X068564Y-010748D03*
Y-010492D03*
Y-010236D03*
X079154Y-074173D03*
Y-073917D03*
Y-073662D03*
X079941Y-074173D03*
Y-073917D03*
Y-073662D03*
X101476Y-010748D03*
Y-010492D03*
Y-010236D03*
X102263Y-010748D03*
Y-010492D03*
Y-010236D03*
G54D72*
X-000421Y-010817D03*
Y-010108D03*
X002247Y-057972D03*
Y-057264D03*
X010672Y-027146D03*
Y-026437D03*
X013339Y-074301D03*
Y-073593D03*
X033279Y-010817D03*
Y-010108D03*
X035946Y-057972D03*
Y-057264D03*
X044372Y-027146D03*
Y-026437D03*
X047039Y-074301D03*
Y-073593D03*
X066979Y-010817D03*
Y-010108D03*
X069646Y-057972D03*
Y-057264D03*
X078071Y-027146D03*
Y-026437D03*
X080739Y-074301D03*
Y-073593D03*
X100679Y-010817D03*
Y-010108D03*
X103346Y-057972D03*
Y-057264D03*
G54D73*
X-005923Y-060354D03*
Y-059803D03*
X018841Y-024606D03*
Y-024055D03*
X027777Y-060354D03*
Y-059803D03*
X052541Y-024606D03*
Y-024055D03*
X061477Y-060354D03*
Y-059803D03*
X086241Y-024606D03*
Y-024055D03*
X095177Y-060354D03*
Y-059803D03*
M02*
