*
G04 Job   : N:\Projects\COMUN\PSA\P07520_P2_Faceplate\C4_Capacitive_short\12005659-03\panel_12005656\12005656.pnl*
G04 User  : ESSECAE006:bolet001*
G04 Layer : 12005656-02-g11.gbr*
G04 Date  : Mon Mar 23 11:52:01 2020*
G04 equiv. Boardstation g11*
G04 Expedition Layer: Solder Paste - Top*
%ICAS*%
%MOIN*%
%FSDAX24Y24*%
%OFA0.0000B0.0000*%
G90*
G74*
%AMVB_RECTANGLE*
21,1,$1,$2,0,0,$3*
%
%AMVB_RCRECTANGLE*
$3=$3X2*
21,1,$1-$3,$2,0,0,0*
21,1,$1,$2-$3,0,0,0*
$1=$1/2*
$2=$2/2*
$3=$3/2*
$1=$1-$3*
$2=$2-$3*
1,1,$3X2,0-$1,0-$2*
1,1,$3X2,0-$1,$2*
1,1,$3X2,$1,$2*
1,1,$3X2,$1,0-$2*
%
%ADD11C,0.00591*%
%ADD10C,0.03937*%
%ADD33C,0.06693*%
%ADD24VB_RECTANGLE,0.03150X0.03150X180.00000*%
%ADD22VB_RECTANGLE,0.02756X0.01969X180.00000*%
%ADD12VB_RECTANGLE,0.03937X0.02756X0.00000*%
%ADD71VB_RECTANGLE,0.03937X0.02756X270.00000*%
%ADD17VB_RECTANGLE,0.04331X0.01772X0.00000*%
%ADD35VB_RECTANGLE,0.04331X0.01772X270.00000*%
%ADD20VB_RECTANGLE,0.04331X0.01969X90.00000*%
%ADD18VB_RECTANGLE,0.04331X0.03150X0.00000*%
%ADD36VB_RECTANGLE,0.04331X0.03150X270.00000*%
%ADD32VB_RECTANGLE,0.04724X0.03150X0.00000*%
%ADD19VB_RECTANGLE,0.04724X0.03150X270.00000*%
%ADD15VB_RECTANGLE,0.04724X0.03937X180.00000*%
%ADD31VB_RECTANGLE,0.05118X0.03150X270.00000*%
%ADD16VB_RECTANGLE,0.05906X0.03150X180.00000*%
%ADD23VB_RECTANGLE,0.05906X0.03150X270.00000*%
%ADD21VB_RECTANGLE,0.05906X0.04724X0.00000*%
%ADD28VB_RECTANGLE,0.06299X0.01181X0.00000*%
%ADD27VB_RECTANGLE,0.06299X0.01181X270.00000*%
%ADD34VB_RECTANGLE,0.06299X0.02362X90.00000*%
%ADD29VB_RECTANGLE,0.06299X0.09449X0.00000*%
%ADD72VB_RECTANGLE,0.07480X0.06693X180.00000*%
%ADD30VB_RECTANGLE,0.09055X0.06299X90.00000*%
%ADD70VB_RECTANGLE,0.10630X0.06299X180.00000*%
%ADD73VB_RECTANGLE,0.15157X0.06299X180.00000*%
%ADD25VB_RCRECTANGLE,0.02362X0.01181X0.00299*%
%ADD13VB_RCRECTANGLE,0.01181X0.02362X0.00299*%
%ADD26VB_RCRECTANGLE,0.02362X0.01772X0.00299*%
%ADD14VB_RCRECTANGLE,0.01772X0.02362X0.00299*%
G01*
G36*
X-110218Y079424D02*
Y079668D01*
X-110462*
G02X-110464Y079707I000283J000039*
X-110179Y079992I000285*
X-110139Y079990J000285*
G01Y079746*
X-109896*
G02X-109893Y079707I000283J000039*
X-110179Y079422I000286*
X-110218Y079424J000285*
G01Y079990D02*
Y079746D01*
X-110462*
G03X-110464Y079707I000283J000039*
X-110179Y079422I000285*
X-110139Y079424J000285*
G01Y079668*
X-109896*
G03X-109893Y079707I000283J000039*
X-110179Y079992I000286*
X-110218Y079990J000285*
G01X-110211Y-000339D02*
Y-000095D01*
X-110454*
G02X-110457Y-000056I000282J000039*
X-110172Y000229I000285*
X-110132Y000227J000285*
G01Y-000017*
X-109889*
G02X-109886Y-000056I000283J000039*
X-110172Y-000341I000286*
X-110211Y-000339J000285*
G01Y000227D02*
Y-000017D01*
X-110454*
G03X-110457Y-000056I000282J000039*
X-110172Y-000341I000285*
X-110132Y-000339J000285*
G01Y-000095*
X-109889*
G03X-109886Y-000056I000283J000039*
X-110172Y000229I000286*
X-110211Y000227J000285*
G01X-101269Y079626D02*
X-100993D01*
Y080177*
X-101269*
Y079626*
X-100442D02*
X-100167D01*
Y080177*
X-100442*
Y079626*
X-099773D02*
X-099497D01*
Y080177*
X-099773*
Y079626*
X-099182D02*
X-098907D01*
Y080177*
X-099182*
Y079626*
X-098671D02*
X-098395D01*
Y080177*
X-098671*
Y079626*
X-098198D02*
X-097923D01*
Y080177*
X-098198*
Y079626*
X-091435Y-000324D02*
X-091160D01*
Y000228*
X-091435*
Y-000324*
X-090963D02*
X-090687D01*
Y000228*
X-090963*
Y-000324*
X-090451D02*
X-090175D01*
Y000228*
X-090451*
Y-000324*
X-089861D02*
X-089585D01*
Y000228*
X-089861*
Y-000324*
X-089191D02*
X-088916D01*
Y000228*
X-089191*
Y-000324*
X-088364D02*
X-088089D01*
Y000228*
X-088364*
Y-000324*
X007331Y079353D02*
Y079596D01*
X007088*
G02X007085Y079635I000282J000039*
X007370Y079921I000285*
X007410Y079918J000286*
G01Y079675*
X007653*
G02X007656Y079635I000283J000040*
X007370Y079350I000286*
X007331Y079353J000285*
G01Y079918D02*
Y079675D01*
X007088*
G03X007085Y079635I000282J000040*
X007370Y079350I000285*
X007410Y079353J000285*
G01Y079596*
X007653*
G03X007656Y079635I000283J000039*
X007370Y079921I000286*
X007331Y079918J000286*
G37*
G54D10*
G01X009563Y-001602D02*
X008151Y-001987D01*
G02X007995Y-002008I000156J000570*
G01X-110504*
G02X-110658Y-001987J000591*
G01X-112161Y-001602*
G02X-112598Y-001032I000154J000570*
G01Y-001031*
X-112638Y080764*
G02X-112197Y081335I000591J000001*
G01X-110697Y081713*
G02X-110546Y081732I000151J000571*
X-110543J000590*
G01X007953*
G02X008102Y081713I000002J000590*
G01X009563Y081339*
G02X010000Y080768I000154J000571*
G01Y-001031*
Y-001032*
G02X009563Y-001602I000591*
G54D11*
G01X-066218Y079921D02*
Y080905D01*
X-065936*
X-065842Y080846*
X-065811Y080801*
X-065780Y080712*
Y080577*
X-065811Y080473*
X-065842Y080428*
X-065936Y080384*
X-066218*
X-065091Y080428D02*
X-065164Y080518D01*
X-065237Y080563*
X-065352*
X-065425Y080518*
X-065498Y080428*
X-065529Y080294*
Y080190*
X-065498Y080055*
X-065425Y079966*
X-065352Y079921*
X-065237*
X-065164Y079966*
X-065091Y080055*
Y080563D02*
Y079921D01*
X-064402Y080428D02*
X-064443Y080518D01*
X-064558Y080563*
X-064684*
X-064809Y080518*
X-064840Y080428*
X-064809Y080339*
X-064725Y080294*
X-064527Y080249*
X-064443Y080190*
X-064402Y080100*
Y080055*
X-064443Y079966*
X-064558Y079921*
X-064684*
X-064809Y079966*
X-064840Y080055*
X-064151Y080563D02*
X-063765D01*
X-063995Y080891D02*
Y080100D01*
X-063932Y079966*
X-063817Y079921*
X-063713*
X-063462Y080294D02*
X-063024D01*
Y080384*
X-063055Y080473*
X-063097Y080518*
X-063170Y080563*
X-063285*
X-063358Y080518*
X-063431Y080428*
X-063462Y080294*
Y080190*
X-063431Y080055*
X-063358Y079966*
X-063285Y079921*
X-063170*
X-063097Y079966*
X-063024Y080055*
X-062084Y079921D02*
Y080905D01*
X-061865Y079921*
X-061646Y080905*
Y079921*
X-060957Y080428D02*
X-061030Y080518D01*
X-061103Y080563*
X-061218*
X-061291Y080518*
X-061364Y080428*
X-061395Y080294*
Y080190*
X-061364Y080055*
X-061291Y079966*
X-061218Y079921*
X-061103*
X-061030Y079966*
X-060957Y080055*
Y080563D02*
Y079921D01*
X-060268Y080428D02*
X-060310Y080518D01*
X-060424Y080563*
X-060550*
X-060675Y080518*
X-060706Y080428*
X-060675Y080339*
X-060591Y080294*
X-060393Y080249*
X-060310Y080190*
X-060268Y080100*
Y080055*
X-060310Y079966*
X-060424Y079921*
X-060550*
X-060675Y079966*
X-060706Y080055*
X-060017Y080891D02*
Y079921D01*
X-059861Y080294D02*
X-059579Y079921D01*
X-059621Y080563D02*
X-060017Y080100D01*
X-058639Y080905D02*
X-058201D01*
X-058420D02*
Y079921D01*
X-057783Y080563D02*
X-057857Y080518D01*
X-057919Y080428*
X-057950Y080294*
Y080190*
X-057919Y080055*
X-057857Y079966*
X-057783Y079921*
X-057679*
X-057616Y079966*
X-057543Y080055*
X-057512Y080190*
Y080294*
X-057543Y080428*
X-057616Y080518*
X-057679Y080563*
X-057783*
X-057262Y080428D02*
X-057199Y080518D01*
X-057115Y080563*
X-057011*
X-056938Y080518*
X-056854Y080428*
X-056823Y080294*
Y080190*
X-056854Y080055*
X-056938Y079966*
X-057011Y079921*
X-057115*
X-057199Y079966*
X-057262Y080055*
Y080563D02*
Y079593D01*
X-034918Y080428D02*
X-034637D01*
X-034543Y080384*
X-034511Y080339*
X-034480Y080249*
Y080100*
X-034511Y080011*
X-034543Y079966*
X-034637Y079921*
X-034918*
Y080905*
X-034637*
X-034543Y080846*
X-034511Y080801*
X-034480Y080712*
Y080622*
X-034511Y080533*
X-034543Y080473*
X-034637Y080428*
X-034229Y079921D02*
Y080905D01*
X-033948*
X-033854Y080846*
X-033822Y080801*
X-033791Y080712*
Y080622*
X-033822Y080533*
X-033854Y080473*
X-033948Y080428*
X-034229*
X-034010D02*
X-033791Y079921D01*
X-033540Y080905D02*
X-033321D01*
X-033227Y080846*
X-033165Y080756*
X-033133Y080667*
X-033102Y080533*
Y080294*
X-033133Y080160*
X-033165Y080055*
X-033227Y079966*
X-033321Y079921*
X-033540*
Y080905*
X-031996Y080712D02*
X-031954Y080756D01*
X-031902Y080891*
Y079921*
X-031442Y080667D02*
Y080712D01*
X-031411Y080801*
X-031380Y080846*
X-031317Y080905*
X-031192*
X-031129Y080846*
X-031098Y080801*
X-031066Y080712*
Y080622*
X-031098Y080533*
X-031160Y080384*
X-031474Y079921*
X-031035*
X-030597Y080891D02*
X-030691Y080846D01*
X-030753Y080712*
X-030785Y080473*
Y080339*
X-030753Y080100*
X-030691Y079966*
X-030597Y079921*
X-030534*
X-030440Y079966*
X-030377Y080100*
X-030346Y080339*
Y080473*
X-030377Y080712*
X-030440Y080846*
X-030534Y080891*
X-030597*
X-029908D02*
X-030002Y080846D01*
X-030064Y080712*
X-030096Y080473*
Y080339*
X-030064Y080100*
X-030002Y079966*
X-029908Y079921*
X-029845*
X-029751Y079966*
X-029689Y080100*
X-029657Y080339*
Y080473*
X-029689Y080712*
X-029751Y080846*
X-029845Y080891*
X-029908*
X-029031D02*
X-029344D01*
X-029375Y080473*
X-029344Y080518*
X-029250Y080563*
X-029156*
X-029062Y080518*
X-029000Y080428*
X-028968Y080294*
Y080190*
X-029000Y080055*
X-029062Y079966*
X-029156Y079921*
X-029250*
X-029344Y079966*
X-029375Y080011*
X-029407Y080100*
X-028311Y080756D02*
X-028342Y080846D01*
X-028446Y080891*
X-028519*
X-028624Y080846*
X-028686Y080712*
X-028718Y080473*
Y080249*
X-028686Y080055*
X-028624Y079966*
X-028519Y079921*
X-028488*
X-028384Y079966*
X-028311Y080055*
X-028279Y080190*
Y080249*
X-028311Y080384*
X-028384Y080473*
X-028488Y080518*
X-028519*
X-028624Y080473*
X-028686Y080384*
X-028718Y080249*
X-027653Y080891D02*
X-027966D01*
X-027997Y080473*
X-027966Y080518*
X-027872Y080563*
X-027778*
X-027684Y080518*
X-027622Y080428*
X-027590Y080294*
Y080190*
X-027622Y080055*
X-027684Y079966*
X-027778Y079921*
X-027872*
X-027966Y079966*
X-027997Y080011*
X-028029Y080100*
X-026901Y080577D02*
X-026933Y080428D01*
X-026995Y080339*
X-027110Y080294*
X-027141*
X-027246Y080339*
X-027308Y080428*
X-027340Y080577*
Y080622*
X-027308Y080756*
X-027246Y080846*
X-027141Y080891*
X-027110*
X-026995Y080846*
X-026933Y080756*
X-026901Y080577*
Y080339*
X-026933Y080100*
X-026995Y079966*
X-027110Y079921*
X-027173*
X-027277Y079966*
X-027308Y080055*
X-026651Y080339D02*
X-026212D01*
X-025774Y080891D02*
X-025868Y080846D01*
X-025931Y080712*
X-025962Y080473*
Y080339*
X-025931Y080100*
X-025868Y079966*
X-025774Y079921*
X-025711*
X-025617Y079966*
X-025555Y080100*
X-025523Y080339*
Y080473*
X-025555Y080712*
X-025617Y080846*
X-025711Y080891*
X-025774*
X-025106Y080712D02*
X-025064Y080756D01*
X-025012Y080891*
Y079921*
X-023895D02*
Y080905D01*
X-023613*
X-023519Y080846*
X-023488Y080801*
X-023457Y080712*
Y080577*
X-023488Y080473*
X-023519Y080428*
X-023613Y080384*
X-023895*
X-023206Y079921D02*
Y080905D01*
X-022768Y079921*
Y080905*
X-022517D02*
Y079921D01*
X-022079*
X-021661Y080712D02*
X-021619Y080756D01*
X-021567Y080891*
Y079921*
X-021108Y080667D02*
Y080712D01*
X-021077Y080801*
X-021045Y080846*
X-020983Y080905*
X-020857*
X-020795Y080846*
X-020763Y080801*
X-020732Y080712*
Y080622*
X-020763Y080533*
X-020826Y080384*
X-021139Y079921*
X-020701*
X-020262Y080891D02*
X-020356Y080846D01*
X-020419Y080712*
X-020450Y080473*
Y080339*
X-020419Y080100*
X-020356Y079966*
X-020262Y079921*
X-020200*
X-020106Y079966*
X-020043Y080100*
X-020012Y080339*
Y080473*
X-020043Y080712*
X-020106Y080846*
X-020200Y080891*
X-020262*
X-019573D02*
X-019667Y080846D01*
X-019730Y080712*
X-019761Y080473*
Y080339*
X-019730Y080100*
X-019667Y079966*
X-019573Y079921*
X-019511*
X-019417Y079966*
X-019354Y080100*
X-019323Y080339*
Y080473*
X-019354Y080712*
X-019417Y080846*
X-019511Y080891*
X-019573*
X-018696D02*
X-019010D01*
X-019041Y080473*
X-019010Y080518*
X-018916Y080563*
X-018822*
X-018728Y080518*
X-018665Y080428*
X-018634Y080294*
Y080190*
X-018665Y080055*
X-018728Y079966*
X-018822Y079921*
X-018916*
X-019010Y079966*
X-019041Y080011*
X-019072Y080100*
X-017976Y080756D02*
X-018007Y080846D01*
X-018112Y080891*
X-018185*
X-018289Y080846*
X-018352Y080712*
X-018383Y080473*
Y080249*
X-018352Y080055*
X-018289Y079966*
X-018185Y079921*
X-018154*
X-018049Y079966*
X-017976Y080055*
X-017945Y080190*
Y080249*
X-017976Y080384*
X-018049Y080473*
X-018154Y080518*
X-018185*
X-018289Y080473*
X-018352Y080384*
X-018383Y080249*
X-017319Y080891D02*
X-017632D01*
X-017663Y080473*
X-017632Y080518*
X-017538Y080563*
X-017444*
X-017350Y080518*
X-017287Y080428*
X-017256Y080294*
Y080190*
X-017287Y080055*
X-017350Y079966*
X-017444Y079921*
X-017538*
X-017632Y079966*
X-017663Y080011*
X-017694Y080100*
X-016598Y080756D02*
X-016630Y080846D01*
X-016734Y080891*
X-016807*
X-016911Y080846*
X-016974Y080712*
X-017005Y080473*
Y080249*
X-016974Y080055*
X-016911Y079966*
X-016807Y079921*
X-016776*
X-016671Y079966*
X-016598Y080055*
X-016567Y080190*
Y080249*
X-016598Y080384*
X-016671Y080473*
X-016776Y080518*
X-016807*
X-016911Y080473*
X-016974Y080384*
X-017005Y080249*
X-016316Y080339D02*
X-015878D01*
X-015440Y080891D02*
X-015533Y080846D01*
X-015596Y080712*
X-015627Y080473*
Y080339*
X-015596Y080100*
X-015533Y079966*
X-015440Y079921*
X-015377*
X-015283Y079966*
X-015220Y080100*
X-015189Y080339*
Y080473*
X-015220Y080712*
X-015283Y080846*
X-015377Y080891*
X-015440*
X-014907Y080667D02*
Y080712D01*
X-014876Y080801*
X-014845Y080846*
X-014782Y080905*
X-014657*
X-014594Y080846*
X-014563Y080801*
X-014531Y080712*
Y080622*
X-014563Y080533*
X-014625Y080384*
X-014938Y079921*
X-014500*
G54D12*
X-106602Y005926D03*
Y006477D03*
X-105480Y005855D03*
Y006406D03*
X-105228Y032576D03*
Y033127D03*
X-104811Y005855D03*
Y006406D03*
X-104567Y016060D03*
Y016611D03*
X-104382Y025339D03*
Y025890D03*
X-104323Y031426D03*
Y031977D03*
X-104126Y014119D03*
Y014670D03*
X-103772Y035658D03*
Y036209D03*
X-103661Y016906D03*
Y017457D03*
X-103218Y038406D03*
Y038957D03*
X-102642Y038402D03*
Y038953D03*
X-102053Y038127D03*
Y038678D03*
X-101466Y038127D03*
Y038678D03*
X-100886Y038127D03*
Y038678D03*
X-100823Y026906D03*
Y027457D03*
X-100819Y060776D03*
Y061327D03*
X-100305Y038127D03*
Y038678D03*
X-100185Y006725D03*
Y007276D03*
X-099961Y069745D03*
Y070296D03*
X-099728Y038127D03*
Y038678D03*
X-099139Y038124D03*
Y038676D03*
X-098122Y031095D03*
Y031646D03*
X-096846Y020784D03*
Y021335D03*
X-095134Y004479D03*
Y005030D03*
X-086110Y074703D03*
Y075254D03*
X-084398Y058398D03*
Y058949D03*
X-083123Y048087D03*
Y048638D03*
X-082105Y041057D03*
Y041609D03*
X-081516Y041055D03*
Y041606D03*
X-081284Y009437D03*
Y009988D03*
X-081060Y072457D03*
Y073008D03*
X-080940Y041055D03*
Y041606D03*
X-080426Y018406D03*
Y018957D03*
X-080422Y052276D03*
Y052827D03*
X-080359Y041055D03*
Y041606D03*
X-079778Y041055D03*
Y041606D03*
X-079192Y041055D03*
Y041606D03*
X-078603Y040780D03*
Y041331D03*
X-078026Y040776D03*
Y041327D03*
X-077583Y062276D03*
Y062827D03*
X-077473Y043524D03*
Y044075D03*
X-077119Y065063D03*
Y065614D03*
X-076922Y047756D03*
Y048307D03*
X-076863Y053843D03*
Y054394D03*
X-076678Y063122D03*
Y063673D03*
X-076434Y073327D03*
Y073878D03*
X-076016Y046606D03*
Y047157D03*
X-075764Y073327D03*
Y073878D03*
X-074642Y073256D03*
Y073807D03*
X-067024Y005926D03*
Y006477D03*
X-065902Y005855D03*
Y006406D03*
X-065650Y032576D03*
Y033127D03*
X-065232Y005855D03*
Y006406D03*
X-064988Y016060D03*
Y016611D03*
X-064803Y025339D03*
Y025890D03*
X-064744Y031426D03*
Y031977D03*
X-064547Y014119D03*
Y014670D03*
X-064193Y035658D03*
Y036209D03*
X-064083Y016906D03*
Y017457D03*
X-063640Y038406D03*
Y038957D03*
X-063063Y038402D03*
Y038953D03*
X-062474Y038127D03*
Y038678D03*
X-061888Y038127D03*
Y038678D03*
X-061307Y038127D03*
Y038678D03*
X-061244Y026906D03*
Y027457D03*
X-061240Y060776D03*
Y061327D03*
X-060726Y038127D03*
Y038678D03*
X-060606Y006725D03*
Y007276D03*
X-060382Y069745D03*
Y070296D03*
X-060150Y038127D03*
Y038678D03*
X-059561Y038124D03*
Y038676D03*
X-058543Y031095D03*
Y031646D03*
X-057268Y020784D03*
Y021335D03*
X-055556Y004479D03*
Y005030D03*
X-046925Y074703D03*
Y075254D03*
X-045213Y058398D03*
Y058949D03*
X-043937Y048087D03*
Y048638D03*
X-042920Y041057D03*
Y041609D03*
X-042331Y041055D03*
Y041606D03*
X-042099Y009437D03*
Y009988D03*
X-041874Y072457D03*
Y073008D03*
X-041754Y041055D03*
Y041606D03*
X-041240Y018406D03*
Y018957D03*
X-041236Y052276D03*
Y052827D03*
X-041173Y041055D03*
Y041606D03*
X-040593Y041055D03*
Y041606D03*
X-040006Y041055D03*
Y041606D03*
X-039418Y040780D03*
Y041331D03*
X-038841Y040776D03*
Y041327D03*
X-038398Y062276D03*
Y062827D03*
X-038288Y043524D03*
Y044075D03*
X-037933Y065063D03*
Y065614D03*
X-037736Y047756D03*
Y048307D03*
X-037677Y053843D03*
Y054394D03*
X-037492Y063122D03*
Y063673D03*
X-037248Y073327D03*
Y073878D03*
X-036831Y046606D03*
Y047157D03*
X-036579Y073327D03*
Y073878D03*
X-035457Y073256D03*
Y073807D03*
X-027720Y005926D03*
Y006477D03*
X-026598Y005855D03*
Y006406D03*
X-026346Y032576D03*
Y033127D03*
X-025929Y005855D03*
Y006406D03*
X-025685Y016060D03*
Y016611D03*
X-025500Y025339D03*
Y025890D03*
X-025441Y031426D03*
Y031977D03*
X-025244Y014119D03*
Y014670D03*
X-024889Y035658D03*
Y036209D03*
X-024779Y016906D03*
Y017457D03*
X-024336Y038406D03*
Y038957D03*
X-023759Y038402D03*
Y038953D03*
X-023171Y038127D03*
Y038678D03*
X-022584Y038127D03*
Y038678D03*
X-022004Y038127D03*
Y038678D03*
X-021941Y026906D03*
Y027457D03*
X-021937Y060776D03*
Y061327D03*
X-021423Y038127D03*
Y038678D03*
X-021303Y006725D03*
Y007276D03*
X-021078Y069745D03*
Y070296D03*
X-020846Y038127D03*
Y038678D03*
X-020257Y038124D03*
Y038676D03*
X-019240Y031095D03*
Y031646D03*
X-017964Y020784D03*
Y021335D03*
X-016252Y004479D03*
Y005030D03*
X-007633Y074703D03*
Y075254D03*
X-005921Y058398D03*
Y058949D03*
X-004646Y048087D03*
Y048638D03*
X-003628Y041057D03*
Y041609D03*
X-003039Y041055D03*
Y041606D03*
X-002807Y009437D03*
Y009988D03*
X-002583Y072457D03*
Y073008D03*
X-002463Y041055D03*
Y041606D03*
X-001949Y018406D03*
Y018957D03*
X-001945Y052276D03*
Y052827D03*
X-001882Y041055D03*
Y041606D03*
X-001301Y041055D03*
Y041606D03*
X-000715Y041055D03*
Y041606D03*
X-000126Y040780D03*
Y041331D03*
X000451Y040776D03*
Y041327D03*
X000894Y062276D03*
Y062827D03*
X001004Y043524D03*
Y044075D03*
X001358Y065063D03*
Y065614D03*
X001555Y047756D03*
Y048307D03*
X001614Y053843D03*
Y054394D03*
X001799Y063122D03*
Y063673D03*
X002043Y073327D03*
Y073878D03*
X002461Y046606D03*
Y047157D03*
X002713Y073327D03*
Y073878D03*
X003835Y073256D03*
Y073807D03*
G54D13*
X-101669Y039572D03*
Y040005D03*
X-101468Y039572D03*
Y040005D03*
X-100624Y040127D03*
Y040560D03*
X-100423Y040127D03*
Y040560D03*
X-080821Y039173D03*
Y039606D03*
X-080621Y039173D03*
Y039606D03*
X-079776Y039728D03*
Y040161D03*
X-079575Y039728D03*
Y040161D03*
X-062091Y039572D03*
Y040005D03*
X-061890Y039572D03*
Y040005D03*
X-061045Y040127D03*
Y040560D03*
X-060844Y040127D03*
Y040560D03*
X-041636Y039173D03*
Y039606D03*
X-041435Y039173D03*
Y039606D03*
X-040591Y039728D03*
Y040161D03*
X-040390Y039728D03*
Y040161D03*
X-022787Y039572D03*
Y040005D03*
X-022586Y039572D03*
Y040005D03*
X-021742Y040127D03*
Y040560D03*
X-021541Y040127D03*
Y040560D03*
X-002344Y039173D03*
Y039606D03*
X-002144Y039173D03*
Y039606D03*
X-001299Y039728D03*
Y040161D03*
X-001098Y039728D03*
Y040161D03*
G54D14*
X-101909Y039572D03*
Y040005D03*
X-101228Y039572D03*
Y040005D03*
X-100864Y040127D03*
Y040560D03*
X-100183Y040127D03*
Y040560D03*
X-081062Y039173D03*
Y039606D03*
X-080380Y039173D03*
Y039606D03*
X-080016Y039728D03*
Y040161D03*
X-079335Y039728D03*
Y040161D03*
X-062331Y039572D03*
Y040005D03*
X-061650Y039572D03*
Y040005D03*
X-061285Y040127D03*
Y040560D03*
X-060604Y040127D03*
Y040560D03*
X-041876Y039173D03*
Y039606D03*
X-041195Y039173D03*
Y039606D03*
X-040831Y039728D03*
Y040161D03*
X-040150Y039728D03*
Y040161D03*
X-023027Y039572D03*
Y040005D03*
X-022346Y039572D03*
Y040005D03*
X-021982Y040127D03*
Y040560D03*
X-021301Y040127D03*
Y040560D03*
X-002585Y039173D03*
Y039606D03*
X-001904Y039173D03*
Y039606D03*
X-001539Y039728D03*
Y040161D03*
X-000858Y039728D03*
Y040161D03*
G54D15*
X-094804Y006618D03*
Y007405D03*
Y016940D03*
Y017728D03*
Y027251D03*
Y028039D03*
Y037566D03*
Y038354D03*
Y047885D03*
Y048673D03*
Y058200D03*
Y058988D03*
Y068514D03*
Y069301D03*
X-092197Y031063D03*
Y031850D03*
Y051693D03*
Y052480D03*
Y072319D03*
Y073106D03*
X-089047Y006627D03*
Y007414D03*
Y027253D03*
Y028040D03*
Y047883D03*
Y048670D03*
X-086440Y010432D03*
Y011219D03*
Y020745D03*
Y021533D03*
Y031060D03*
Y031848D03*
Y041379D03*
Y042167D03*
Y051694D03*
Y052482D03*
Y062005D03*
Y062793D03*
Y072328D03*
Y073115D03*
X-055226Y006618D03*
Y007405D03*
Y016940D03*
Y017728D03*
Y027251D03*
Y028039D03*
Y037566D03*
Y038354D03*
Y047885D03*
Y048673D03*
Y058200D03*
Y058988D03*
Y068514D03*
Y069301D03*
X-053012Y031063D03*
Y031850D03*
Y051693D03*
Y052480D03*
Y072319D03*
Y073106D03*
X-049469Y006627D03*
Y007414D03*
Y027253D03*
Y028040D03*
Y047883D03*
Y048670D03*
X-047255Y010432D03*
Y011219D03*
Y020745D03*
Y021533D03*
Y031060D03*
Y031848D03*
Y041379D03*
Y042167D03*
Y051694D03*
Y052482D03*
Y062005D03*
Y062793D03*
Y072328D03*
Y073115D03*
X-015922Y006618D03*
Y007405D03*
Y016940D03*
Y017728D03*
Y027251D03*
Y028039D03*
Y037566D03*
Y038354D03*
Y047885D03*
Y048673D03*
Y058200D03*
Y058988D03*
Y068514D03*
Y069301D03*
X-013720Y031063D03*
Y031850D03*
Y051693D03*
Y052480D03*
Y072319D03*
Y073106D03*
X-010165Y006627D03*
Y007414D03*
Y027253D03*
Y028040D03*
Y047883D03*
Y048670D03*
X-007963Y010432D03*
Y011219D03*
Y020745D03*
Y021533D03*
Y031060D03*
Y031848D03*
Y041379D03*
Y042167D03*
Y051694D03*
Y052482D03*
Y062005D03*
Y062793D03*
Y072328D03*
Y073115D03*
G54D16*
X-096240Y041674D03*
Y042855D03*
Y043347D03*
Y044528D03*
X-096169Y062438D03*
Y063619D03*
Y064272D03*
Y065453D03*
X-096012Y012528D03*
Y013709D03*
X-095992Y010721D03*
Y011902D03*
X-095252Y062438D03*
Y063619D03*
Y064272D03*
Y065453D03*
X-095083Y012552D03*
Y013733D03*
X-095063Y010721D03*
Y011902D03*
X-086182Y067831D03*
Y069012D03*
X-086162Y066000D03*
Y067181D03*
X-085993Y014280D03*
Y015461D03*
Y016114D03*
Y017295D03*
X-085253Y067831D03*
Y069012D03*
X-085233Y066024D03*
Y067205D03*
X-085075Y014280D03*
Y015461D03*
Y016114D03*
Y017295D03*
X-085005Y035205D03*
Y036386D03*
Y036878D03*
Y038059D03*
X-056661Y041674D03*
Y042855D03*
Y043347D03*
Y044528D03*
X-056591Y062438D03*
Y063619D03*
Y064272D03*
Y065453D03*
X-056433Y012528D03*
Y013709D03*
X-056413Y010721D03*
Y011902D03*
X-055673Y062438D03*
Y063619D03*
Y064272D03*
Y065453D03*
X-055504Y012552D03*
Y013733D03*
X-055484Y010721D03*
Y011902D03*
X-046996Y067831D03*
Y069012D03*
X-046977Y066000D03*
Y067181D03*
X-046807Y014280D03*
Y015461D03*
Y016114D03*
Y017295D03*
X-046067Y067831D03*
Y069012D03*
X-046048Y066024D03*
Y067205D03*
X-045890Y014280D03*
Y015461D03*
Y016114D03*
Y017295D03*
X-045819Y035205D03*
Y036386D03*
Y036878D03*
Y038059D03*
X-017358Y041674D03*
Y042855D03*
Y043347D03*
Y044528D03*
X-017287Y062438D03*
Y063619D03*
Y064272D03*
Y065453D03*
X-017130Y012528D03*
Y013709D03*
X-017110Y010721D03*
Y011902D03*
X-016370Y062438D03*
Y063619D03*
Y064272D03*
Y065453D03*
X-016200Y012552D03*
Y013733D03*
X-016181Y010721D03*
Y011902D03*
X-007705Y067831D03*
Y069012D03*
X-007685Y066000D03*
Y067181D03*
X-007516Y014280D03*
Y015461D03*
Y016114D03*
Y017295D03*
X-006776Y067831D03*
Y069012D03*
X-006756Y066024D03*
Y067205D03*
X-006598Y014280D03*
Y015461D03*
Y016114D03*
Y017295D03*
X-006528Y035205D03*
Y036386D03*
Y036878D03*
Y038059D03*
G54D17*
X-098018Y003883D03*
Y004198D03*
X-097270Y003883D03*
Y004198D03*
X-083974Y075535D03*
Y075850D03*
X-083226Y075535D03*
Y075850D03*
X-058440Y003883D03*
Y004198D03*
X-057692Y003883D03*
Y004198D03*
X-044789Y075535D03*
Y075850D03*
X-044041Y075535D03*
Y075850D03*
X-019136Y003883D03*
Y004198D03*
X-018388Y003883D03*
Y004198D03*
X-005497Y075535D03*
Y075850D03*
X-004749Y075535D03*
Y075850D03*
G54D18*
X-098018Y003499D03*
Y004581D03*
X-097270Y003499D03*
Y004581D03*
X-083974Y075152D03*
Y076234D03*
X-083226Y075152D03*
Y076234D03*
X-058440Y003499D03*
Y004581D03*
X-057692Y003499D03*
Y004581D03*
X-044789Y075152D03*
Y076234D03*
X-044041Y075152D03*
Y076234D03*
X-019136Y003499D03*
Y004581D03*
X-018388Y003499D03*
Y004581D03*
X-005497Y075152D03*
Y076234D03*
X-004749Y075152D03*
Y076234D03*
G54D19*
X-096839Y055587D03*
X-096528Y052229D03*
X-096509Y004560D03*
X-096465Y056532D03*
X-096153Y053174D03*
X-096135Y005505D03*
X-096091Y055587D03*
X-095779Y052229D03*
X-095761Y004560D03*
X-093598Y017674D03*
Y028076D03*
Y058989D03*
X-093579Y007520D03*
X-093500Y069324D03*
X-093224Y016729D03*
Y027131D03*
Y058044D03*
X-093205Y006576D03*
X-093126Y068379D03*
X-092850Y017674D03*
Y028076D03*
Y058989D03*
X-092831Y007520D03*
X-092752Y069324D03*
X-088493Y010409D03*
X-088414Y072213D03*
X-088394Y020744D03*
Y051657D03*
Y062059D03*
X-088119Y011354D03*
X-088040Y073157D03*
X-088020Y021689D03*
Y052602D03*
Y063004D03*
X-087745Y010409D03*
X-087666Y072213D03*
X-087646Y020744D03*
Y051657D03*
Y062059D03*
X-085484Y075173D03*
X-085465Y027504D03*
X-085154Y024146D03*
X-085110Y074228D03*
X-085091Y026559D03*
X-084780Y023201D03*
X-084736Y075173D03*
X-084717Y027504D03*
X-084406Y024146D03*
X-057260Y055587D03*
X-056949Y052229D03*
X-056930Y004560D03*
X-056886Y056532D03*
X-056575Y053174D03*
X-056556Y005505D03*
X-056512Y055587D03*
X-056201Y052229D03*
X-056182Y004560D03*
X-054020Y017674D03*
Y028076D03*
Y058989D03*
X-054000Y007520D03*
X-053921Y069324D03*
X-053646Y016729D03*
Y027131D03*
Y058044D03*
X-053626Y006576D03*
X-053547Y068379D03*
X-053272Y017674D03*
Y028076D03*
Y058989D03*
X-053252Y007520D03*
X-053173Y069324D03*
X-049307Y010409D03*
X-049229Y072213D03*
X-049209Y020744D03*
Y051657D03*
Y062059D03*
X-048933Y011354D03*
X-048855Y073157D03*
X-048835Y021689D03*
Y052602D03*
Y063004D03*
X-048559Y010409D03*
X-048481Y072213D03*
X-048461Y020744D03*
Y051657D03*
Y062059D03*
X-046299Y075173D03*
X-046280Y027504D03*
X-045969Y024146D03*
X-045925Y074228D03*
X-045906Y026559D03*
X-045595Y023201D03*
X-045551Y075173D03*
X-045532Y027504D03*
X-045221Y024146D03*
X-017956Y055587D03*
X-017645Y052229D03*
X-017626Y004560D03*
X-017582Y056532D03*
X-017271Y053174D03*
X-017252Y005505D03*
X-017208Y055587D03*
X-016897Y052229D03*
X-016878Y004560D03*
X-014716Y017674D03*
Y028076D03*
Y058989D03*
X-014696Y007520D03*
X-014618Y069324D03*
X-014342Y016729D03*
Y027131D03*
Y058044D03*
X-014322Y006576D03*
X-014244Y068379D03*
X-013968Y017674D03*
Y028076D03*
Y058989D03*
X-013948Y007520D03*
X-013870Y069324D03*
X-010016Y010409D03*
X-009937Y072213D03*
X-009917Y020744D03*
Y051657D03*
Y062059D03*
X-009642Y011354D03*
X-009563Y073157D03*
X-009543Y021689D03*
Y052602D03*
Y063004D03*
X-009268Y010409D03*
X-009189Y072213D03*
X-009169Y020744D03*
Y051657D03*
Y062059D03*
X-007007Y075173D03*
X-006988Y027504D03*
X-006677Y024146D03*
X-006633Y074228D03*
X-006614Y026559D03*
X-006303Y023201D03*
X-006259Y075173D03*
X-006240Y027504D03*
X-005929Y024146D03*
G54D20*
X-098315Y058170D03*
Y059170D03*
X-097945Y050178D03*
Y051178D03*
X-097941Y058170D03*
Y059170D03*
X-097854Y006001D03*
Y007001D03*
X-097571Y050178D03*
Y051178D03*
X-097567Y058170D03*
Y059170D03*
X-097480Y006001D03*
Y007001D03*
X-097197Y050178D03*
Y051178D03*
X-097106Y006001D03*
Y007001D03*
X-084138Y072732D03*
Y073732D03*
X-084048Y028555D03*
Y029555D03*
X-083764Y072732D03*
Y073732D03*
X-083678Y020563D03*
Y021563D03*
X-083674Y028555D03*
Y029555D03*
X-083390Y072732D03*
Y073732D03*
X-083304Y020563D03*
Y021563D03*
X-083300Y028555D03*
Y029555D03*
X-082930Y020563D03*
Y021563D03*
X-058736Y058170D03*
Y059170D03*
X-058366Y050178D03*
Y051178D03*
X-058362Y058170D03*
Y059170D03*
X-058276Y006001D03*
Y007001D03*
X-057992Y050178D03*
Y051178D03*
X-057988Y058170D03*
Y059170D03*
X-057902Y006001D03*
Y007001D03*
X-057618Y050178D03*
Y051178D03*
X-057528Y006001D03*
Y007001D03*
X-044953Y072732D03*
Y073732D03*
X-044862Y028555D03*
Y029555D03*
X-044579Y072732D03*
Y073732D03*
X-044492Y020563D03*
Y021563D03*
X-044488Y028555D03*
Y029555D03*
X-044205Y072732D03*
Y073732D03*
X-044118Y020563D03*
Y021563D03*
X-044114Y028555D03*
Y029555D03*
X-043744Y020563D03*
Y021563D03*
X-019433Y058170D03*
Y059170D03*
X-019063Y050178D03*
Y051178D03*
X-019059Y058170D03*
Y059170D03*
X-018972Y006001D03*
Y007001D03*
X-018689Y050178D03*
Y051178D03*
X-018685Y058170D03*
Y059170D03*
X-018598Y006001D03*
Y007001D03*
X-018315Y050178D03*
Y051178D03*
X-018224Y006001D03*
Y007001D03*
X-005661Y072732D03*
Y073732D03*
X-005571Y028555D03*
Y029555D03*
X-005287Y072732D03*
Y073732D03*
X-005201Y020563D03*
Y021563D03*
X-005197Y028555D03*
Y029555D03*
X-004913Y072732D03*
Y073732D03*
X-004827Y020563D03*
Y021563D03*
X-004823Y028555D03*
Y029555D03*
X-004453Y020563D03*
Y021563D03*
G54D21*
X-110435Y016763D03*
Y017963D03*
X-070857Y016763D03*
Y017963D03*
X-070809Y061770D03*
Y062970D03*
X-031624Y061770D03*
Y062970D03*
X-031553Y016763D03*
Y017963D03*
X007668Y061770D03*
Y062970D03*
G54D22*
X-103117Y041764D03*
Y042119D03*
X-103030Y042709D03*
Y043064D03*
X-102554Y042709D03*
Y043064D03*
X-102211Y041843D03*
Y042198D03*
X-101621Y041627D03*
Y041981D03*
X-101070Y040977D03*
Y041331D03*
X-100142Y041300D03*
Y041654D03*
X-099575Y041320D03*
Y041674D03*
X-081670Y038059D03*
Y038413D03*
X-081103Y038079D03*
Y038433D03*
X-080175Y038402D03*
Y038756D03*
X-079624Y037752D03*
Y038106D03*
X-079033Y037535D03*
Y037890D03*
X-078691Y036669D03*
Y037024D03*
X-078214Y036669D03*
Y037024D03*
X-078128Y037614D03*
Y037969D03*
X-063538Y041764D03*
Y042119D03*
X-063451Y042709D03*
Y043064D03*
X-062975Y042709D03*
Y043064D03*
X-062633Y041843D03*
Y042198D03*
X-062042Y041627D03*
Y041981D03*
X-061491Y040977D03*
Y041331D03*
X-060563Y041300D03*
Y041654D03*
X-059996Y041320D03*
Y041674D03*
X-042485Y038059D03*
Y038413D03*
X-041918Y038079D03*
Y038433D03*
X-040990Y038402D03*
Y038756D03*
X-040439Y037752D03*
Y038106D03*
X-039848Y037535D03*
Y037890D03*
X-039505Y036669D03*
Y037024D03*
X-039029Y036669D03*
Y037024D03*
X-038942Y037614D03*
Y037969D03*
X-024235Y041764D03*
Y042119D03*
X-024148Y042709D03*
Y043064D03*
X-023672Y042709D03*
Y043064D03*
X-023329Y041843D03*
Y042198D03*
X-022738Y041627D03*
Y041981D03*
X-022187Y040977D03*
Y041331D03*
X-021259Y041300D03*
Y041654D03*
X-020693Y041320D03*
Y041674D03*
X-003193Y038059D03*
Y038413D03*
X-002626Y038079D03*
Y038433D03*
X-001698Y038402D03*
Y038756D03*
X-001147Y037752D03*
Y038106D03*
X-000556Y037535D03*
Y037890D03*
X-000214Y036669D03*
Y037024D03*
X000263Y036669D03*
Y037024D03*
X000349Y037614D03*
Y037969D03*
G54D23*
X-098653Y019166D03*
X-097472D03*
X-097102Y040123D03*
X-096882Y046288D03*
X-096216Y061182D03*
Y066387D03*
X-096134Y032414D03*
Y033343D03*
X-096126Y009737D03*
Y014717D03*
X-096059Y030324D03*
X-095921Y040123D03*
X-095701Y046288D03*
X-095035Y061182D03*
Y066387D03*
X-094953Y032414D03*
Y033343D03*
X-094945Y009737D03*
Y014717D03*
X-094878Y030324D03*
X-086367Y049409D03*
X-086300Y065016D03*
Y069996D03*
X-086292Y046390D03*
Y047319D03*
X-086209Y013346D03*
Y018551D03*
X-085544Y033445D03*
X-085323Y039610D03*
X-085186Y049409D03*
X-085119Y065016D03*
Y069996D03*
X-085111Y046390D03*
Y047319D03*
X-085028Y013346D03*
Y018551D03*
X-084363Y033445D03*
X-084142Y039610D03*
X-083772Y060567D03*
X-082591D03*
X-059075Y019166D03*
X-057894D03*
X-057524Y040123D03*
X-057303Y046288D03*
X-056638Y061182D03*
Y066387D03*
X-056555Y032414D03*
Y033343D03*
X-056547Y009737D03*
Y014717D03*
X-056480Y030324D03*
X-056343Y040123D03*
X-056122Y046288D03*
X-055457Y061182D03*
Y066387D03*
X-055374Y032414D03*
Y033343D03*
X-055366Y009737D03*
Y014717D03*
X-055299Y030324D03*
X-047181Y049409D03*
X-047114Y065016D03*
Y069996D03*
X-047107Y046390D03*
Y047319D03*
X-047024Y013346D03*
Y018551D03*
X-046359Y033445D03*
X-046138Y039610D03*
X-046000Y049409D03*
X-045933Y065016D03*
Y069996D03*
X-045925Y046390D03*
Y047319D03*
X-045843Y013346D03*
Y018551D03*
X-045177Y033445D03*
X-044957Y039610D03*
X-044587Y060567D03*
X-043406D03*
X-019771Y019166D03*
X-018590D03*
X-018220Y040123D03*
X-018000Y046288D03*
X-017334Y061182D03*
Y066387D03*
X-017252Y032414D03*
Y033343D03*
X-017244Y009737D03*
Y014717D03*
X-017177Y030324D03*
X-017039Y040123D03*
X-016818Y046288D03*
X-016153Y061182D03*
Y066387D03*
X-016070Y032414D03*
Y033343D03*
X-016063Y009737D03*
Y014717D03*
X-015996Y030324D03*
X-007890Y049409D03*
X-007823Y065016D03*
Y069996D03*
X-007815Y046390D03*
Y047319D03*
X-007732Y013346D03*
Y018551D03*
X-007067Y033445D03*
X-006846Y039610D03*
X-006709Y049409D03*
X-006642Y065016D03*
Y069996D03*
X-006634Y046390D03*
Y047319D03*
X-006551Y013346D03*
Y018551D03*
X-005886Y033445D03*
X-005665Y039610D03*
X-005295Y060567D03*
X-004114D03*
G54D24*
X-092197Y010508D03*
Y011138D03*
Y020823D03*
Y021453D03*
Y062075D03*
Y062705D03*
X-089047Y017028D03*
Y017658D03*
Y058280D03*
Y058910D03*
Y068595D03*
Y069225D03*
X-053012Y010508D03*
Y011138D03*
Y020823D03*
Y021453D03*
Y062075D03*
Y062705D03*
X-049469Y017028D03*
Y017658D03*
Y058280D03*
Y058910D03*
Y068595D03*
Y069225D03*
X-013720Y010508D03*
Y011138D03*
Y020823D03*
Y021453D03*
Y062075D03*
Y062705D03*
X-010165Y017028D03*
Y017658D03*
Y058280D03*
Y058910D03*
Y068595D03*
Y069225D03*
G54D25*
X-103516Y040341D03*
Y040542D03*
X-103083Y040341D03*
Y040542D03*
X-099165Y040597D03*
Y040798D03*
X-098732Y040597D03*
Y040798D03*
X-082512Y038935D03*
Y039136D03*
X-082079Y038935D03*
Y039136D03*
X-078162Y039191D03*
Y039392D03*
X-077729Y039191D03*
Y039392D03*
X-063937Y040341D03*
Y040542D03*
X-063504Y040341D03*
Y040542D03*
X-059587Y040597D03*
Y040798D03*
X-059154Y040597D03*
Y040798D03*
X-043327Y038935D03*
Y039136D03*
X-042894Y038935D03*
Y039136D03*
X-038977Y039191D03*
Y039392D03*
X-038544Y039191D03*
Y039392D03*
X-024633Y040341D03*
Y040542D03*
X-024200Y040341D03*
Y040542D03*
X-020283Y040597D03*
Y040798D03*
X-019850Y040597D03*
Y040798D03*
X-004035Y038935D03*
Y039136D03*
X-003602Y038935D03*
Y039136D03*
X000315Y039191D03*
Y039392D03*
X000748Y039191D03*
Y039392D03*
G54D26*
X-103516Y040101D03*
Y040782D03*
X-103083Y040101D03*
Y040782D03*
X-099165Y040357D03*
Y041038D03*
X-098732Y040357D03*
Y041038D03*
X-082512Y038695D03*
Y039376D03*
X-082079Y038695D03*
Y039376D03*
X-078162Y038951D03*
Y039632D03*
X-077729Y038951D03*
Y039632D03*
X-063937Y040101D03*
Y040782D03*
X-063504Y040101D03*
Y040782D03*
X-059587Y040357D03*
Y041038D03*
X-059154Y040357D03*
Y041038D03*
X-043327Y038695D03*
Y039376D03*
X-042894Y038695D03*
Y039376D03*
X-038977Y038951D03*
Y039632D03*
X-038544Y038951D03*
Y039632D03*
X-024633Y040101D03*
Y040782D03*
X-024200Y040101D03*
Y040782D03*
X-020283Y040357D03*
Y041038D03*
X-019850Y040357D03*
Y041038D03*
X-004035Y038695D03*
Y039376D03*
X-003602Y038695D03*
Y039376D03*
X000315Y038951D03*
Y039632D03*
X000748Y038951D03*
Y039632D03*
G54D27*
X-102425Y031450D03*
Y036016D03*
X-102228Y031450D03*
Y036016D03*
X-102031Y031450D03*
Y036016D03*
X-101835Y031450D03*
Y036016D03*
X-101638Y031450D03*
Y036016D03*
X-101441Y031450D03*
Y036016D03*
X-101244Y031450D03*
Y036016D03*
X-101047Y031450D03*
Y036016D03*
X-100850Y031450D03*
Y036016D03*
X-100653Y031450D03*
Y036016D03*
X-100457Y031450D03*
Y036016D03*
X-100260Y031450D03*
Y036016D03*
X-100063Y031450D03*
Y036016D03*
X-099866Y031450D03*
Y036016D03*
X-099669Y031450D03*
Y036016D03*
X-099472Y031450D03*
Y036016D03*
X-081772Y043717D03*
Y048283D03*
X-081575Y043717D03*
Y048283D03*
X-081379Y043717D03*
Y048283D03*
X-081182Y043717D03*
Y048283D03*
X-080985Y043717D03*
Y048283D03*
X-080788Y043717D03*
Y048283D03*
X-080591Y043717D03*
Y048283D03*
X-080394Y043717D03*
Y048283D03*
X-080197Y043717D03*
Y048283D03*
X-080001Y043717D03*
Y048283D03*
X-079804Y043717D03*
Y048283D03*
X-079607Y043717D03*
Y048283D03*
X-079410Y043717D03*
Y048283D03*
X-079213Y043717D03*
Y048283D03*
X-079016Y043717D03*
Y048283D03*
X-078819Y043717D03*
Y048283D03*
X-062846Y031450D03*
Y036016D03*
X-062650Y031450D03*
Y036016D03*
X-062453Y031450D03*
Y036016D03*
X-062256Y031450D03*
Y036016D03*
X-062059Y031450D03*
Y036016D03*
X-061862Y031450D03*
Y036016D03*
X-061665Y031450D03*
Y036016D03*
X-061469Y031450D03*
Y036016D03*
X-061272Y031450D03*
Y036016D03*
X-061075Y031450D03*
Y036016D03*
X-060878Y031450D03*
Y036016D03*
X-060681Y031450D03*
Y036016D03*
X-060484Y031450D03*
Y036016D03*
X-060287Y031450D03*
Y036016D03*
X-060091Y031450D03*
Y036016D03*
X-059894Y031450D03*
Y036016D03*
X-042587Y043717D03*
Y048283D03*
X-042390Y043717D03*
Y048283D03*
X-042193Y043717D03*
Y048283D03*
X-041996Y043717D03*
Y048283D03*
X-041799Y043717D03*
Y048283D03*
X-041603Y043717D03*
Y048283D03*
X-041406Y043717D03*
Y048283D03*
X-041209Y043717D03*
Y048283D03*
X-041012Y043717D03*
Y048283D03*
X-040815Y043717D03*
Y048283D03*
X-040618Y043717D03*
Y048283D03*
X-040422Y043717D03*
Y048283D03*
X-040225Y043717D03*
Y048283D03*
X-040028Y043717D03*
Y048283D03*
X-039831Y043717D03*
Y048283D03*
X-039634Y043717D03*
Y048283D03*
X-023543Y031450D03*
Y036016D03*
X-023346Y031450D03*
Y036016D03*
X-023149Y031450D03*
Y036016D03*
X-022952Y031450D03*
Y036016D03*
X-022756Y031450D03*
Y036016D03*
X-022559Y031450D03*
Y036016D03*
X-022362Y031450D03*
Y036016D03*
X-022165Y031450D03*
Y036016D03*
X-021968Y031450D03*
Y036016D03*
X-021771Y031450D03*
Y036016D03*
X-021574Y031450D03*
Y036016D03*
X-021378Y031450D03*
Y036016D03*
X-021181Y031450D03*
Y036016D03*
X-020984Y031450D03*
Y036016D03*
X-020787Y031450D03*
Y036016D03*
X-020590Y031450D03*
Y036016D03*
X-003295Y043717D03*
Y048283D03*
X-003098Y043717D03*
Y048283D03*
X-002902Y043717D03*
Y048283D03*
X-002705Y043717D03*
Y048283D03*
X-002508Y043717D03*
Y048283D03*
X-002311Y043717D03*
Y048283D03*
X-002114Y043717D03*
Y048283D03*
X-001917Y043717D03*
Y048283D03*
X-001720Y043717D03*
Y048283D03*
X-001524Y043717D03*
Y048283D03*
X-001327Y043717D03*
Y048283D03*
X-001130Y043717D03*
Y048283D03*
X-000933Y043717D03*
Y048283D03*
X-000736Y043717D03*
Y048283D03*
X-000539Y043717D03*
Y048283D03*
X-000343Y043717D03*
Y048283D03*
G54D28*
X-103232Y032257D03*
Y032453D03*
Y032650D03*
Y032847D03*
Y033044D03*
Y033241D03*
Y033438D03*
Y033635D03*
Y033831D03*
Y034028D03*
Y034225D03*
Y034422D03*
Y034619D03*
Y034816D03*
Y035013D03*
Y035209D03*
X-098665Y032257D03*
Y032453D03*
Y032650D03*
Y032847D03*
Y033044D03*
Y033241D03*
Y033438D03*
Y033635D03*
Y033831D03*
Y034028D03*
Y034225D03*
Y034422D03*
Y034619D03*
Y034816D03*
Y035013D03*
Y035209D03*
X-082579Y044524D03*
Y044720D03*
Y044917D03*
Y045114D03*
Y045311D03*
Y045508D03*
Y045705D03*
Y045902D03*
Y046098D03*
Y046295D03*
Y046492D03*
Y046689D03*
Y046886D03*
Y047083D03*
Y047280D03*
Y047476D03*
X-078012Y044524D03*
Y044720D03*
Y044917D03*
Y045114D03*
Y045311D03*
Y045508D03*
Y045705D03*
Y045902D03*
Y046098D03*
Y046295D03*
Y046492D03*
Y046689D03*
Y046886D03*
Y047083D03*
Y047280D03*
Y047476D03*
X-063654Y032257D03*
Y032453D03*
Y032650D03*
Y032847D03*
Y033044D03*
Y033241D03*
Y033438D03*
Y033635D03*
Y033831D03*
Y034028D03*
Y034225D03*
Y034422D03*
Y034619D03*
Y034816D03*
Y035013D03*
Y035209D03*
X-059087Y032257D03*
Y032453D03*
Y032650D03*
Y032847D03*
Y033044D03*
Y033241D03*
Y033438D03*
Y033635D03*
Y033831D03*
Y034028D03*
Y034225D03*
Y034422D03*
Y034619D03*
Y034816D03*
Y035013D03*
Y035209D03*
X-043394Y044524D03*
Y044720D03*
Y044917D03*
Y045114D03*
Y045311D03*
Y045508D03*
Y045705D03*
Y045902D03*
Y046098D03*
Y046295D03*
Y046492D03*
Y046689D03*
Y046886D03*
Y047083D03*
Y047280D03*
Y047476D03*
X-038827Y044524D03*
Y044720D03*
Y044917D03*
Y045114D03*
Y045311D03*
Y045508D03*
Y045705D03*
Y045902D03*
Y046098D03*
Y046295D03*
Y046492D03*
Y046689D03*
Y046886D03*
Y047083D03*
Y047280D03*
Y047476D03*
X-024350Y032257D03*
Y032453D03*
Y032650D03*
Y032847D03*
Y033044D03*
Y033241D03*
Y033438D03*
Y033635D03*
Y033831D03*
Y034028D03*
Y034225D03*
Y034422D03*
Y034619D03*
Y034816D03*
Y035013D03*
Y035209D03*
X-019783Y032257D03*
Y032453D03*
Y032650D03*
Y032847D03*
Y033044D03*
Y033241D03*
Y033438D03*
Y033635D03*
Y033831D03*
Y034028D03*
Y034225D03*
Y034422D03*
Y034619D03*
Y034816D03*
Y035013D03*
Y035209D03*
X-004102Y044524D03*
Y044720D03*
Y044917D03*
Y045114D03*
Y045311D03*
Y045508D03*
Y045705D03*
Y045902D03*
Y046098D03*
Y046295D03*
Y046492D03*
Y046689D03*
Y046886D03*
Y047083D03*
Y047280D03*
Y047476D03*
X000465Y044524D03*
Y044720D03*
Y044917D03*
Y045114D03*
Y045311D03*
Y045508D03*
Y045705D03*
Y045902D03*
Y046098D03*
Y046295D03*
Y046492D03*
Y046689D03*
Y046886D03*
Y047083D03*
Y047280D03*
Y047476D03*
G54D29*
X-101122Y029308D03*
X-099626D03*
X-081619Y050425D03*
X-080123D03*
X-061543Y029308D03*
X-060047D03*
X-042433Y050425D03*
X-040937D03*
X-022240Y029308D03*
X-020744D03*
X-003142Y050425D03*
X-001646D03*
G54D30*
X-106514Y012568D03*
X-104801D03*
X-076443Y067165D03*
X-074731D03*
X-066935Y012568D03*
X-065222D03*
X-037258Y067165D03*
X-035546D03*
X-027631Y012568D03*
X-025919D03*
X002033Y067165D03*
X003746D03*
G54D31*
X-105185Y009969D03*
X-104476D03*
X-076768Y069764D03*
X-076060D03*
X-065606Y009969D03*
X-064898D03*
X-037583Y069764D03*
X-036874D03*
X-026303Y009969D03*
X-025594D03*
X001709Y069764D03*
X002417D03*
G54D32*
X-102768Y006623D03*
X-101823Y006249D03*
Y006997D03*
X-079422Y072736D03*
Y073484D03*
X-078477Y073110D03*
X-063189Y006623D03*
X-062244Y006249D03*
Y006997D03*
X-040236Y072736D03*
Y073484D03*
X-039292Y073110D03*
X-023885Y006623D03*
X-022941Y006249D03*
Y006997D03*
X-000945Y072736D03*
Y073484D03*
X000000Y073110D03*
G54D33*
X-106798Y015363D03*
Y016363D03*
Y017363D03*
Y018363D03*
Y019363D03*
X-105798Y015363D03*
Y016363D03*
Y017363D03*
Y018363D03*
Y019363D03*
X-075447Y060370D03*
Y061370D03*
Y062370D03*
Y063370D03*
Y064370D03*
X-074447Y060370D03*
Y061370D03*
Y062370D03*
Y063370D03*
Y064370D03*
X-067219Y015363D03*
Y016363D03*
Y017363D03*
Y018363D03*
Y019363D03*
X-066219Y015363D03*
Y016363D03*
Y017363D03*
Y018363D03*
Y019363D03*
X-036262Y060370D03*
Y061370D03*
Y062370D03*
Y063370D03*
Y064370D03*
X-035262Y060370D03*
Y061370D03*
Y062370D03*
Y063370D03*
Y064370D03*
X-027915Y015363D03*
Y016363D03*
Y017363D03*
Y018363D03*
Y019363D03*
X-026915Y015363D03*
Y016363D03*
Y017363D03*
Y018363D03*
Y019363D03*
X003030Y060370D03*
Y061370D03*
Y062370D03*
Y063370D03*
Y064370D03*
X004030Y060370D03*
Y061370D03*
Y062370D03*
Y063370D03*
Y064370D03*
G54D34*
X-100583Y021406D03*
Y023690D03*
X-100083Y021406D03*
Y023690D03*
X-099583Y021406D03*
Y023690D03*
X-099083Y021406D03*
Y023690D03*
X-098583Y021406D03*
Y023690D03*
X-098083Y021406D03*
Y023690D03*
X-097583Y021406D03*
Y023690D03*
X-083662Y056043D03*
Y058327D03*
X-083162Y056043D03*
Y058327D03*
X-082662Y056043D03*
Y058327D03*
X-082162Y056043D03*
Y058327D03*
X-081662Y056043D03*
Y058327D03*
X-081162Y056043D03*
Y058327D03*
X-080662Y056043D03*
Y058327D03*
X-061004Y021406D03*
Y023690D03*
X-060504Y021406D03*
Y023690D03*
X-060004Y021406D03*
Y023690D03*
X-059504Y021406D03*
Y023690D03*
X-059004Y021406D03*
Y023690D03*
X-058504Y021406D03*
Y023690D03*
X-058004Y021406D03*
Y023690D03*
X-044477Y056043D03*
Y058327D03*
X-043977Y056043D03*
Y058327D03*
X-043477Y056043D03*
Y058327D03*
X-042977Y056043D03*
Y058327D03*
X-042477Y056043D03*
Y058327D03*
X-041977Y056043D03*
Y058327D03*
X-041477Y056043D03*
Y058327D03*
X-021700Y021406D03*
Y023690D03*
X-021200Y021406D03*
Y023690D03*
X-020700Y021406D03*
Y023690D03*
X-020200Y021406D03*
Y023690D03*
X-019700Y021406D03*
Y023690D03*
X-019200Y021406D03*
Y023690D03*
X-018700Y021406D03*
Y023690D03*
X-005185Y056043D03*
Y058327D03*
X-004685Y056043D03*
Y058327D03*
X-004185Y056043D03*
Y058327D03*
X-003685Y056043D03*
Y058327D03*
X-003185Y056043D03*
Y058327D03*
X-002685Y056043D03*
Y058327D03*
X-002185Y056043D03*
Y058327D03*
G54D35*
X-103209Y026477D03*
Y027225D03*
X-102894Y026477D03*
Y027225D03*
X-078351Y052508D03*
Y053256D03*
X-078036Y052508D03*
Y053256D03*
X-063630Y026477D03*
Y027225D03*
X-063315Y026477D03*
Y027225D03*
X-039166Y052508D03*
Y053256D03*
X-038851Y052508D03*
Y053256D03*
X-024326Y026477D03*
Y027225D03*
X-024011Y026477D03*
Y027225D03*
X000126Y052508D03*
Y053256D03*
X000441Y052508D03*
Y053256D03*
G54D36*
X-103592Y026477D03*
Y027225D03*
X-102510Y026477D03*
Y027225D03*
X-078735Y052508D03*
Y053256D03*
X-077652Y052508D03*
Y053256D03*
X-064014Y026477D03*
Y027225D03*
X-062931Y026477D03*
Y027225D03*
X-039549Y052508D03*
Y053256D03*
X-038467Y052508D03*
Y053256D03*
X-024710Y026477D03*
Y027225D03*
X-023628Y026477D03*
Y027225D03*
X-000258Y052508D03*
Y053256D03*
X000825Y052508D03*
Y053256D03*
G54D70*
X-099842Y004107D03*
Y005209D03*
X-081402Y074524D03*
Y075626D03*
X-060264Y004107D03*
Y005209D03*
X-042217Y074524D03*
Y075626D03*
X-020960Y004107D03*
Y005209D03*
X-002925Y074524D03*
Y075626D03*
G54D71*
X-106165Y020524D03*
X-105614D03*
X-105492Y013839D03*
X-105059Y027402D03*
X-104941Y013839D03*
X-104508Y027402D03*
X-103075Y036820D03*
X-102827Y019241D03*
X-102713Y028296D03*
X-102697Y029229D03*
Y029802D03*
X-102524Y036820D03*
X-102276Y019241D03*
X-102161Y028296D03*
X-102146Y029229D03*
Y029802D03*
X-101587Y019221D03*
X-101196Y028250D03*
X-101035Y019221D03*
X-100645Y028250D03*
X-100457Y058280D03*
X-100012Y028250D03*
X-099905Y058280D03*
X-099847Y030379D03*
X-099587Y024898D03*
X-099461Y028250D03*
Y062194D03*
X-099296Y030379D03*
X-099035Y024898D03*
X-098909Y062194D03*
X-098839Y030560D03*
X-098287D03*
X-098079Y008261D03*
X-097925Y051859D03*
X-097551Y060450D03*
X-097528Y008261D03*
X-097374Y051859D03*
X-097000Y060450D03*
X-096732Y054619D03*
X-096728Y053851D03*
X-096181Y054619D03*
X-096177Y053851D03*
X-085068Y025882D03*
X-085064Y025114D03*
X-084516Y025882D03*
X-084512Y025114D03*
X-084245Y019283D03*
X-083871Y027874D03*
X-083717Y071472D03*
X-083693Y019283D03*
X-083319Y027874D03*
X-083166Y071472D03*
X-082957Y049173D03*
X-082406D03*
X-082335Y017539D03*
X-082209Y054835D03*
X-081949Y049354D03*
X-081784Y017539D03*
Y051483D03*
X-081658Y054835D03*
X-081397Y049354D03*
X-081339Y021453D03*
X-081233Y051483D03*
X-080788Y021453D03*
X-080600Y051483D03*
X-080209Y060512D03*
X-080049Y051483D03*
X-079658Y060512D03*
X-079099Y049931D03*
Y050504D03*
X-079083Y051437D03*
X-078969Y060492D03*
X-078721Y042913D03*
X-078548Y049931D03*
Y050504D03*
X-078532Y051437D03*
X-078418Y060492D03*
X-078170Y042913D03*
X-076737Y052331D03*
X-076304Y065894D03*
X-076186Y052331D03*
X-075753Y065894D03*
X-075630Y059209D03*
X-075079D03*
X-066587Y020524D03*
X-066035D03*
X-065913Y013839D03*
X-065480Y027402D03*
X-065362Y013839D03*
X-064929Y027402D03*
X-063496Y036820D03*
X-063248Y019241D03*
X-063134Y028296D03*
X-063118Y029229D03*
Y029802D03*
X-062945Y036820D03*
X-062697Y019241D03*
X-062583Y028296D03*
X-062567Y029229D03*
Y029802D03*
X-062008Y019221D03*
X-061617Y028250D03*
X-061457Y019221D03*
X-061066Y028250D03*
X-060878Y058280D03*
X-060433Y028250D03*
X-060327Y058280D03*
X-060269Y030379D03*
X-060008Y024898D03*
X-059882Y028250D03*
Y062194D03*
X-059717Y030379D03*
X-059457Y024898D03*
X-059331Y062194D03*
X-059260Y030560D03*
X-058709D03*
X-058500Y008261D03*
X-058346Y051859D03*
X-057972Y060450D03*
X-057949Y008261D03*
X-057795Y051859D03*
X-057421Y060450D03*
X-057154Y054619D03*
X-057150Y053851D03*
X-056602Y054619D03*
X-056598Y053851D03*
X-045882Y025882D03*
X-045878Y025114D03*
X-045331Y025882D03*
X-045327Y025114D03*
X-045059Y019283D03*
X-044685Y027874D03*
X-044532Y071472D03*
X-044508Y019283D03*
X-044134Y027874D03*
X-043981Y071472D03*
X-043772Y049173D03*
X-043221D03*
X-043150Y017539D03*
X-043024Y054835D03*
X-042763Y049354D03*
X-042599Y017539D03*
Y051483D03*
X-042473Y054835D03*
X-042212Y049354D03*
X-042154Y021453D03*
X-042048Y051483D03*
X-041603Y021453D03*
X-041414Y051483D03*
X-041024Y060512D03*
X-040863Y051483D03*
X-040473Y060512D03*
X-039914Y049931D03*
Y050504D03*
X-039898Y051437D03*
X-039784Y060492D03*
X-039536Y042913D03*
X-039362Y049931D03*
Y050504D03*
X-039347Y051437D03*
X-039233Y060492D03*
X-038985Y042913D03*
X-037551Y052331D03*
X-037118Y065894D03*
X-037000Y052331D03*
X-036567Y065894D03*
X-036445Y059209D03*
X-035894D03*
X-027283Y020524D03*
X-026732D03*
X-026610Y013839D03*
X-026177Y027402D03*
X-026059Y013839D03*
X-025626Y027402D03*
X-024193Y036820D03*
X-023944Y019241D03*
X-023830Y028296D03*
X-023815Y029229D03*
Y029802D03*
X-023641Y036820D03*
X-023393Y019241D03*
X-023279Y028296D03*
X-023263Y029229D03*
Y029802D03*
X-022704Y019221D03*
X-022314Y028250D03*
X-022153Y019221D03*
X-021763Y028250D03*
X-021574Y058280D03*
X-021130Y028250D03*
X-021023Y058280D03*
X-020965Y030379D03*
X-020704Y024898D03*
X-020578Y028250D03*
Y062194D03*
X-020414Y030379D03*
X-020153Y024898D03*
X-020027Y062194D03*
X-019956Y030560D03*
X-019405D03*
X-019196Y008261D03*
X-019043Y051859D03*
X-018669Y060450D03*
X-018645Y008261D03*
X-018492Y051859D03*
X-018118Y060450D03*
X-017850Y054619D03*
X-017846Y053851D03*
X-017299Y054619D03*
X-017295Y053851D03*
X-006591Y025882D03*
X-006587Y025114D03*
X-006039Y025882D03*
X-006035Y025114D03*
X-005768Y019283D03*
X-005394Y027874D03*
X-005240Y071472D03*
X-005217Y019283D03*
X-004843Y027874D03*
X-004689Y071472D03*
X-004480Y049173D03*
X-003929D03*
X-003858Y017539D03*
X-003732Y054835D03*
X-003472Y049354D03*
X-003307Y017539D03*
Y051483D03*
X-003181Y054835D03*
X-002920Y049354D03*
X-002862Y021453D03*
X-002756Y051483D03*
X-002311Y021453D03*
X-002123Y051483D03*
X-001732Y060512D03*
X-001572Y051483D03*
X-001181Y060512D03*
X-000622Y049931D03*
Y050504D03*
X-000606Y051437D03*
X-000492Y060492D03*
X-000244Y042913D03*
X-000071Y049931D03*
Y050504D03*
X-000055Y051437D03*
X000059Y060492D03*
X000307Y042913D03*
X001740Y052331D03*
X002173Y065894D03*
X002291Y052331D03*
X002724Y065894D03*
X002846Y059209D03*
X003398D03*
G54D72*
X-106441Y011036D03*
X-104945D03*
X-076300Y068697D03*
X-074804D03*
X-066862Y011036D03*
X-065366D03*
X-037114Y068697D03*
X-035618D03*
X-027559Y011036D03*
X-026063D03*
X002177Y068697D03*
X003673D03*
G54D73*
X-106278Y008115D03*
X-104211D03*
X-077034Y071618D03*
X-074967D03*
X-066699Y008115D03*
X-064632D03*
X-037849Y071618D03*
X-035782D03*
X-027395Y008115D03*
X-025328D03*
X001443Y071618D03*
X003510D03*
M02*
