*
G04 Job   : N:\Projects\COMUN\PSA\P07520_P2_Faceplate\C4_Not_Capacitive\12005658-18\panel_12005655\panel_12005655.pnl*
G04 User  : ESSECAE006:bolet001*
G04 Layer : 12005655-06-g12.gbr*
G04 Date  : Thu Mar 12 09:05:55 2020*
G04 equiv. Boardstation g12*
G04 Expedition Layer: Solder Paste - Bottom*
%ICAS*%
%MOIN*%
%FSDAX24Y24*%
%OFA0.0000B0.0000*%
G90*
G74*
%AMVB_RECTANGLE*
21,1,$1,$2,0,0,$3*
%
%ADD11C,0.00591*%
%ADD10C,0.03937*%
%ADD25VB_RECTANGLE,0.02362X0.03150X0.00000*%
%ADD19VB_RECTANGLE,0.02362X0.06102X90.00000*%
%ADD15VB_RECTANGLE,0.02756X0.01969X0.00000*%
%ADD14VB_RECTANGLE,0.02756X0.01969X90.00000*%
%ADD21VB_RECTANGLE,0.03150X0.01575X270.00000*%
%ADD12VB_RECTANGLE,0.03150X0.03937X0.00000*%
%ADD18VB_RECTANGLE,0.03937X0.02756X0.00000*%
%ADD16VB_RECTANGLE,0.03937X0.02756X90.00000*%
%ADD24VB_RECTANGLE,0.04724X0.03150X180.00000*%
%ADD17VB_RECTANGLE,0.04724X0.03150X270.00000*%
%ADD23VB_RECTANGLE,0.05118X0.03150X180.00000*%
%ADD20VB_RECTANGLE,0.05118X0.03150X90.00000*%
%ADD13VB_RECTANGLE,0.05906X0.03150X180.00000*%
%ADD28VB_RECTANGLE,0.05906X0.03150X270.00000*%
%ADD26VB_RECTANGLE,0.06299X0.02362X270.00000*%
%ADD70VB_RECTANGLE,0.07087X0.04724X0.00000*%
%ADD27VB_RECTANGLE,0.07087X0.06693X270.00000*%
%ADD22VB_RECTANGLE,0.09843X0.05118X180.00000*%
%ADD71VB_RECTANGLE,0.10630X0.06299X270.00000*%
G01*
G36*
X-110218Y079424D02*
G03X-110179Y079422I000039J000283D01*
X-109893Y079707J000285*
X-109896Y079746I000286*
G01X-110139*
Y079990*
G03X-110179Y079992I000040J000283*
X-110464Y079707J000285*
X-110462Y079668I000285*
G01X-110218*
Y079424*
Y079990D02*
Y079746D01*
X-110462*
G03X-110464Y079707I000283J000039*
X-110179Y079422I000285*
X-110139Y079424J000285*
G01Y079668*
X-109896*
G03X-109893Y079707I000283J000039*
X-110179Y079992I000286*
X-110218Y079990J000285*
G01X-110211Y-000339D02*
G03X-110172Y-000341I000039J000283D01*
X-109886Y-000056J000285*
X-109889Y-000017I000286*
G01X-110132*
Y000227*
G03X-110172Y000229I000040J000283*
X-110457Y-000056J000285*
X-110454Y-000095I000285*
G01X-110211*
Y-000339*
Y000227D02*
Y-000017D01*
X-110454*
G03X-110457Y-000056I000282J000039*
X-110172Y-000341I000285*
X-110132Y-000339J000285*
G01Y-000095*
X-109889*
G03X-109886Y-000056I000283J000039*
X-110172Y000229I000286*
X-110211Y000227J000285*
G01X-101269Y079626D02*
X-100993D01*
Y080177*
X-101269*
Y079626*
X-100442D02*
X-100167D01*
Y080177*
X-100442*
Y079626*
X-099773D02*
X-099497D01*
Y080177*
X-099773*
Y079626*
X-099182D02*
X-098907D01*
Y080177*
X-099182*
Y079626*
X-098671D02*
X-098395D01*
Y080177*
X-098671*
Y079626*
X-098198D02*
X-097923D01*
Y080177*
X-098198*
Y079626*
X-091435Y-000324D02*
X-091160D01*
Y000228*
X-091435*
Y-000324*
X-090963D02*
X-090687D01*
Y000228*
X-090963*
Y-000324*
X-090451D02*
X-090175D01*
Y000228*
X-090451*
Y-000324*
X-089861D02*
X-089585D01*
Y000228*
X-089861*
Y-000324*
X-089191D02*
X-088916D01*
Y000228*
X-089191*
Y-000324*
X-088364D02*
X-088089D01*
Y000228*
X-088364*
Y-000324*
X007331Y079353D02*
G03X007370Y079350I000039J000282D01*
X007656Y079635J000285*
X007653Y079675I000286*
G01X007410*
Y079918*
G03X007370Y079921I000040J000283*
X007085Y079635J000286*
X007088Y079596I000285*
G01X007331*
Y079353*
Y079918D02*
Y079675D01*
X007088*
G03X007085Y079635I000282J000040*
X007370Y079350I000285*
X007410Y079353J000285*
G01Y079596*
X007653*
G03X007656Y079635I000283J000039*
X007370Y079921I000286*
X007331Y079918J000286*
G37*
G54D10*
G01X009563Y-001602D02*
X008151Y-001987D01*
G02X007995Y-002008I000156J000570*
G01X-110504*
G02X-110658Y-001987J000591*
G01X-112161Y-001602*
G02X-112598Y-001032I000154J000570*
G01Y-001031*
X-112638Y080764*
G02X-112197Y081335I000591J000001*
G01X-110697Y081713*
G02X-110546Y081732I000151J000571*
X-110543J000590*
G01X007953*
G02X008102Y081713I000002J000590*
G01X009563Y081339*
G02X010000Y080768I000154J000571*
G01Y-001031*
Y-001032*
G02X009563Y-001602I000591*
G54D11*
G01X-065924Y080891D02*
Y080100D01*
X-065986Y079966*
X-066101Y079921*
X-066206*
X-065767Y080563D02*
X-066153D01*
X-065245D02*
X-065172Y080518D01*
X-065110Y080428*
X-065078Y080294*
Y080190*
X-065110Y080055*
X-065172Y079966*
X-065245Y079921*
X-065350*
X-065412Y079966*
X-065485Y080055*
X-065517Y080190*
Y080294*
X-065485Y080428*
X-065412Y080518*
X-065350Y080563*
X-065245*
X-064389Y080428D02*
X-064671D01*
X-064765Y080384*
X-064796Y080339*
X-064828Y080249*
Y080100*
X-064796Y080011*
X-064765Y079966*
X-064671Y079921*
X-064389*
Y080905*
X-064671*
X-064765Y080846*
X-064796Y080801*
X-064828Y080712*
Y080622*
X-064796Y080533*
X-064765Y080473*
X-064671Y080428*
X-063408Y080563D02*
X-063011Y080100D01*
X-063168Y080294D02*
X-063450Y079921D01*
X-063011Y080891D02*
Y079921D01*
X-062761Y080428D02*
X-062719Y080518D01*
X-062604Y080563*
X-062479*
X-062354Y080518*
X-062322Y080428*
X-062354Y080339*
X-062437Y080294*
X-062636Y080249*
X-062719Y080190*
X-062761Y080100*
Y080055*
X-062719Y079966*
X-062604Y079921*
X-062479*
X-062354Y079966*
X-062322Y080055*
X-062072Y080428D02*
X-061999Y080518D01*
X-061926Y080563*
X-061811*
X-061738Y080518*
X-061665Y080428*
X-061633Y080294*
Y080190*
X-061665Y080055*
X-061738Y079966*
X-061811Y079921*
X-061926*
X-061999Y079966*
X-062072Y080055*
Y080563D02*
Y079921D01*
X-060944D02*
Y080905D01*
X-061164Y079921*
X-061383Y080905*
Y079921*
X-059567Y080294D02*
X-060005D01*
Y080384*
X-059974Y080473*
X-059932Y080518*
X-059859Y080563*
X-059744*
X-059671Y080518*
X-059598Y080428*
X-059567Y080294*
Y080190*
X-059598Y080055*
X-059671Y079966*
X-059744Y079921*
X-059859*
X-059932Y079966*
X-060005Y080055*
X-059034Y080891D02*
Y080100D01*
X-059097Y079966*
X-059212Y079921*
X-059316*
X-058878Y080563D02*
X-059264D01*
X-058627Y080428D02*
X-058585Y080518D01*
X-058470Y080563*
X-058345*
X-058220Y080518*
X-058189Y080428*
X-058220Y080339*
X-058303Y080294*
X-058502Y080249*
X-058585Y080190*
X-058627Y080100*
Y080055*
X-058585Y079966*
X-058470Y079921*
X-058345*
X-058220Y079966*
X-058189Y080055*
X-057938Y080428D02*
X-057865Y080518D01*
X-057792Y080563*
X-057677*
X-057604Y080518*
X-057531Y080428*
X-057500Y080294*
Y080190*
X-057531Y080055*
X-057604Y079966*
X-057677Y079921*
X-057792*
X-057865Y079966*
X-057938Y080055*
Y080563D02*
Y079921D01*
X-056811D02*
Y080905D01*
X-057093*
X-057186Y080846*
X-057218Y080801*
X-057249Y080712*
Y080577*
X-057218Y080473*
X-057186Y080428*
X-057093Y080384*
X-056811*
X-034878Y080756D02*
X-034846Y080846D01*
X-034742Y080891*
X-034669*
X-034564Y080846*
X-034502Y080712*
X-034471Y080473*
Y080249*
X-034502Y080055*
X-034564Y079966*
X-034669Y079921*
X-034700*
X-034805Y079966*
X-034878Y080055*
X-034909Y080190*
Y080249*
X-034878Y080384*
X-034805Y080473*
X-034700Y080518*
X-034669*
X-034564Y080473*
X-034502Y080384*
X-034471Y080249*
X-033969Y080891D02*
X-033876Y080846D01*
X-033813Y080712*
X-033782Y080473*
Y080339*
X-033813Y080100*
X-033876Y079966*
X-033969Y079921*
X-034032*
X-034126Y079966*
X-034189Y080100*
X-034220Y080339*
Y080473*
X-034189Y080712*
X-034126Y080846*
X-034032Y080891*
X-033969*
X-033093Y080339D02*
X-033531D01*
X-032779Y080891D02*
X-032466D01*
X-032435Y080473*
X-032466Y080518*
X-032560Y080563*
X-032654*
X-032748Y080518*
X-032811Y080428*
X-032842Y080294*
Y080190*
X-032811Y080055*
X-032748Y079966*
X-032654Y079921*
X-032560*
X-032466Y079966*
X-032435Y080011*
X-032404Y080100*
X-032090Y080891D02*
X-031777D01*
X-031746Y080473*
X-031777Y080518*
X-031871Y080563*
X-031965*
X-032059Y080518*
X-032122Y080428*
X-032153Y080294*
Y080190*
X-032122Y080055*
X-032059Y079966*
X-031965Y079921*
X-031871*
X-031777Y079966*
X-031746Y080011*
X-031715Y080100*
X-031433Y080756D02*
X-031402Y080846D01*
X-031297Y080891*
X-031224*
X-031120Y080846*
X-031057Y080712*
X-031026Y080473*
Y080249*
X-031057Y080055*
X-031120Y079966*
X-031224Y079921*
X-031255*
X-031360Y079966*
X-031433Y080055*
X-031464Y080190*
Y080249*
X-031433Y080384*
X-031360Y080473*
X-031255Y080518*
X-031224*
X-031120Y080473*
X-031057Y080384*
X-031026Y080249*
X-030713Y080891D02*
X-030399D01*
X-030368Y080473*
X-030399Y080518*
X-030493Y080563*
X-030587*
X-030681Y080518*
X-030744Y080428*
X-030775Y080294*
Y080190*
X-030744Y080055*
X-030681Y079966*
X-030587Y079921*
X-030493*
X-030399Y079966*
X-030368Y080011*
X-030337Y080100*
X-029836Y080891D02*
X-029742Y080846D01*
X-029679Y080712*
X-029648Y080473*
Y080339*
X-029679Y080100*
X-029742Y079966*
X-029836Y079921*
X-029898*
X-029992Y079966*
X-030055Y080100*
X-030086Y080339*
Y080473*
X-030055Y080712*
X-029992Y080846*
X-029898Y080891*
X-029836*
X-029147D02*
X-029053Y080846D01*
X-028990Y080712*
X-028959Y080473*
Y080339*
X-028990Y080100*
X-029053Y079966*
X-029147Y079921*
X-029209*
X-029303Y079966*
X-029366Y080100*
X-029397Y080339*
Y080473*
X-029366Y080712*
X-029303Y080846*
X-029209Y080891*
X-029147*
X-028301Y080667D02*
Y080712D01*
X-028333Y080801*
X-028364Y080846*
X-028426Y080905*
X-028552*
X-028614Y080846*
X-028646Y080801*
X-028677Y080712*
Y080622*
X-028646Y080533*
X-028583Y080384*
X-028270Y079921*
X-028708*
X-027748Y080712D02*
X-027790Y080756D01*
X-027842Y080891*
Y079921*
X-026892Y080905D02*
Y079921D01*
X-027330*
X-026203D02*
Y080905D01*
X-026641Y079921*
Y080905*
X-025514Y079921D02*
Y080905D01*
X-025796*
X-025890Y080846*
X-025921Y080801*
X-025952Y080712*
Y080577*
X-025921Y080473*
X-025890Y080428*
X-025796Y080384*
X-025514*
X-024543Y080756D02*
X-024512Y080846D01*
X-024408Y080891*
X-024334*
X-024230Y080846*
X-024167Y080712*
X-024136Y080473*
Y080249*
X-024167Y080055*
X-024230Y079966*
X-024334Y079921*
X-024366*
X-024470Y079966*
X-024543Y080055*
X-024575Y080190*
Y080249*
X-024543Y080384*
X-024470Y080473*
X-024366Y080518*
X-024334*
X-024230Y080473*
X-024167Y080384*
X-024136Y080249*
X-023635Y080891D02*
X-023541Y080846D01*
X-023478Y080712*
X-023447Y080473*
Y080339*
X-023478Y080100*
X-023541Y079966*
X-023635Y079921*
X-023698*
X-023792Y079966*
X-023854Y080100*
X-023886Y080339*
Y080473*
X-023854Y080712*
X-023792Y080846*
X-023698Y080891*
X-023635*
X-022758Y080339D02*
X-023197D01*
X-022226Y080891D02*
X-022132Y080846D01*
X-022101Y080756*
Y080667*
X-022132Y080563*
X-022194Y080518*
X-022320Y080473*
X-022414Y080428*
X-022476Y080339*
X-022508Y080249*
Y080100*
X-022476Y080011*
X-022445Y079966*
X-022351Y079921*
X-022226*
X-022132Y079966*
X-022101Y080011*
X-022069Y080100*
Y080249*
X-022101Y080339*
X-022163Y080428*
X-022257Y080473*
X-022382Y080518*
X-022445Y080563*
X-022476Y080667*
Y080756*
X-022445Y080846*
X-022351Y080891*
X-022226*
X-021756D02*
X-021443D01*
X-021412Y080473*
X-021443Y080518*
X-021537Y080563*
X-021631*
X-021725Y080518*
X-021787Y080428*
X-021819Y080294*
Y080190*
X-021787Y080055*
X-021725Y079966*
X-021631Y079921*
X-021537*
X-021443Y079966*
X-021412Y080011*
X-021380Y080100*
X-021098Y080756D02*
X-021067Y080846D01*
X-020963Y080891*
X-020890*
X-020785Y080846*
X-020723Y080712*
X-020691Y080473*
Y080249*
X-020723Y080055*
X-020785Y079966*
X-020890Y079921*
X-020921*
X-021025Y079966*
X-021098Y080055*
X-021130Y080190*
Y080249*
X-021098Y080384*
X-021025Y080473*
X-020921Y080518*
X-020890*
X-020785Y080473*
X-020723Y080384*
X-020691Y080249*
X-020378Y080891D02*
X-020065D01*
X-020034Y080473*
X-020065Y080518*
X-020159Y080563*
X-020253*
X-020347Y080518*
X-020409Y080428*
X-020441Y080294*
Y080190*
X-020409Y080055*
X-020347Y079966*
X-020253Y079921*
X-020159*
X-020065Y079966*
X-020034Y080011*
X-020002Y080100*
X-019501Y080891D02*
X-019407Y080846D01*
X-019345Y080712*
X-019313Y080473*
Y080339*
X-019345Y080100*
X-019407Y079966*
X-019501Y079921*
X-019564*
X-019658Y079966*
X-019720Y080100*
X-019752Y080339*
Y080473*
X-019720Y080712*
X-019658Y080846*
X-019564Y080891*
X-019501*
X-018812D02*
X-018718Y080846D01*
X-018656Y080712*
X-018624Y080473*
Y080339*
X-018656Y080100*
X-018718Y079966*
X-018812Y079921*
X-018875*
X-018969Y079966*
X-019032Y080100*
X-019063Y080339*
Y080473*
X-019032Y080712*
X-018969Y080846*
X-018875Y080891*
X-018812*
X-017967Y080667D02*
Y080712D01*
X-017998Y080801*
X-018029Y080846*
X-018092Y080905*
X-018217*
X-018280Y080846*
X-018311Y080801*
X-018343Y080712*
Y080622*
X-018311Y080533*
X-018249Y080384*
X-017935Y079921*
X-018374*
X-017414Y080712D02*
X-017455Y080756D01*
X-017507Y080891*
Y079921*
X-015869Y080905D02*
X-016088D01*
X-016182Y080846*
X-016244Y080756*
X-016276Y080667*
X-016307Y080533*
Y080294*
X-016276Y080160*
X-016244Y080055*
X-016182Y079966*
X-016088Y079921*
X-015869*
Y080905*
X-015399Y080428D02*
X-015618Y079921D01*
X-015180D02*
Y080905D01*
X-015461*
X-015555Y080846*
X-015587Y080801*
X-015618Y080712*
Y080622*
X-015587Y080533*
X-015555Y080473*
X-015461Y080428*
X-015180*
X-014491D02*
X-014772D01*
X-014866Y080384*
X-014898Y080339*
X-014929Y080249*
Y080100*
X-014898Y080011*
X-014866Y079966*
X-014772Y079921*
X-014491*
Y080905*
X-014772*
X-014866Y080846*
X-014898Y080801*
X-014929Y080712*
Y080622*
X-014898Y080533*
X-014866Y080473*
X-014772Y080428*
G54D12*
X-090938Y030630D03*
Y051260D03*
Y071890D03*
Y020311D03*
Y061575D03*
Y010000D03*
Y032283D03*
Y052913D03*
Y073543D03*
Y021965D03*
Y063228D03*
Y011653D03*
X-090878Y040945D03*
Y042598D03*
X-090366Y037135D03*
Y038788D03*
X-090307Y068080D03*
Y016505D03*
Y057768D03*
Y006190D03*
Y026820D03*
Y047450D03*
Y069733D03*
Y018158D03*
Y059422D03*
Y007843D03*
Y028473D03*
Y049103D03*
X-051752Y030630D03*
Y051260D03*
Y071890D03*
Y020311D03*
Y061575D03*
Y010000D03*
Y032283D03*
Y052913D03*
Y073543D03*
Y021965D03*
Y063228D03*
Y011653D03*
X-051693Y040945D03*
Y042598D03*
X-050788Y037135D03*
Y038788D03*
X-050728Y068080D03*
Y016505D03*
Y057768D03*
Y006190D03*
Y026820D03*
Y047450D03*
Y069733D03*
Y018158D03*
Y059422D03*
Y007843D03*
Y028473D03*
Y049103D03*
X-012461Y030630D03*
Y051260D03*
Y071890D03*
Y020311D03*
Y061575D03*
Y010000D03*
Y032283D03*
Y052913D03*
Y073543D03*
Y021965D03*
Y063228D03*
Y011653D03*
X-012401Y040945D03*
Y042598D03*
X-011484Y037135D03*
Y038788D03*
X-011425Y068080D03*
Y016505D03*
Y057768D03*
Y006190D03*
Y026820D03*
Y047450D03*
Y069733D03*
Y018158D03*
Y059422D03*
Y007843D03*
Y028473D03*
Y049103D03*
G54D13*
X-105085Y011919D03*
Y013100D03*
X-092598Y037418D03*
Y038599D03*
X-092307Y006387D03*
Y007568D03*
Y016662D03*
Y017843D03*
Y027103D03*
Y028284D03*
Y047646D03*
Y048827D03*
Y057957D03*
Y059139D03*
Y068237D03*
Y069418D03*
X-091480Y037418D03*
Y038599D03*
X-089764Y041134D03*
Y042315D03*
X-088938Y010315D03*
Y011496D03*
Y020594D03*
Y021776D03*
Y030906D03*
Y032087D03*
Y051449D03*
Y052630D03*
Y061890D03*
Y063071D03*
Y072165D03*
Y073346D03*
X-088646Y041134D03*
Y042315D03*
X-076160Y066633D03*
Y067814D03*
X-065506Y011919D03*
Y013100D03*
X-053020Y037418D03*
Y038599D03*
X-052728Y006387D03*
Y007568D03*
Y016662D03*
Y017843D03*
Y027103D03*
Y028284D03*
Y047646D03*
Y048827D03*
Y057957D03*
Y059139D03*
Y068237D03*
Y069418D03*
X-051902Y037418D03*
Y038599D03*
X-050579Y041134D03*
Y042315D03*
X-049752Y010315D03*
Y011496D03*
Y020594D03*
Y021776D03*
Y030906D03*
Y032087D03*
Y051449D03*
Y052630D03*
Y061890D03*
Y063071D03*
Y072165D03*
Y073346D03*
X-049461Y041134D03*
Y042315D03*
X-036975Y066633D03*
Y067814D03*
X-026202Y011919D03*
Y013100D03*
X-013716Y037418D03*
Y038599D03*
X-013425Y006387D03*
Y007568D03*
Y016662D03*
Y017843D03*
Y027103D03*
Y028284D03*
Y047646D03*
Y048827D03*
Y057957D03*
Y059139D03*
Y068237D03*
Y069418D03*
X-012598Y037418D03*
Y038599D03*
X-011287Y041134D03*
Y042315D03*
X-010461Y010315D03*
Y011496D03*
Y020594D03*
Y021776D03*
Y030906D03*
Y032087D03*
Y051449D03*
Y052630D03*
Y061890D03*
Y063071D03*
Y072165D03*
Y073346D03*
X-010169Y041134D03*
Y042315D03*
X002317Y066633D03*
Y067814D03*
G54D14*
X-098783Y003031D03*
X-098428D03*
X-082816Y076702D03*
X-082462D03*
X-059204Y003031D03*
X-058850D03*
X-043631Y076702D03*
X-043277D03*
X-019900Y003031D03*
X-019546D03*
X-004339Y076702D03*
X-003985D03*
G54D15*
X-097688Y001263D03*
Y001618D03*
X-083556Y078115D03*
Y078470D03*
X-058109Y001263D03*
Y001618D03*
X-044371Y078115D03*
Y078470D03*
X-018806Y001263D03*
Y001618D03*
X-005079Y078115D03*
Y078470D03*
G54D16*
X-107138Y009543D03*
X-106587D03*
X-106318Y020288D03*
X-105766D03*
X-100728Y020717D03*
X-100177D03*
X-097413Y056190D03*
X-097146Y005184D03*
X-097098Y020254D03*
X-097043Y053084D03*
X-096862Y056190D03*
X-096595Y005184D03*
X-096547Y020254D03*
X-096492Y053084D03*
X-084753Y026649D03*
X-084697Y059479D03*
X-084649Y074549D03*
X-084382Y023543D03*
X-084201Y026649D03*
X-084146Y059479D03*
X-084098Y074549D03*
X-083831Y023543D03*
X-081068Y059016D03*
X-080516D03*
X-075478Y059445D03*
X-074927D03*
X-074658Y070190D03*
X-074107D03*
X-067559Y009543D03*
X-067008D03*
X-066739Y020288D03*
X-066188D03*
X-061150Y020717D03*
X-060598D03*
X-057835Y056190D03*
X-057568Y005184D03*
X-057520Y020254D03*
X-057465Y053084D03*
X-057283Y056190D03*
X-057017Y005184D03*
X-056969Y020254D03*
X-056913Y053084D03*
X-045567Y026649D03*
X-045512Y059479D03*
X-045464Y074549D03*
X-045197Y023543D03*
X-045016Y026649D03*
X-044961Y059479D03*
X-044913Y074549D03*
X-044646Y023543D03*
X-041882Y059016D03*
X-041331D03*
X-036293Y059445D03*
X-035742D03*
X-035472Y070190D03*
X-034921D03*
X-028256Y009543D03*
X-027705D03*
X-027435Y020288D03*
X-026884D03*
X-021846Y020717D03*
X-021295D03*
X-018531Y056190D03*
X-018264Y005184D03*
X-018216Y020254D03*
X-018161Y053084D03*
X-017980Y056190D03*
X-017713Y005184D03*
X-017665Y020254D03*
X-017610Y053084D03*
X-006276Y026649D03*
X-006220Y059479D03*
X-006172Y074549D03*
X-005906Y023543D03*
X-005724Y026649D03*
X-005669Y059479D03*
X-005621Y074549D03*
X-005354Y023543D03*
X-002591Y059016D03*
X-002039D03*
X002999Y059445D03*
X003550D03*
X003819Y070190D03*
X004370D03*
G54D17*
X-099457Y002347D03*
X-099083Y001402D03*
X-098709Y002347D03*
X-097236Y052320D03*
X-096862Y051375D03*
X-096839Y055390D03*
X-096488Y052320D03*
X-096465Y054446D03*
X-096091Y055390D03*
X-085154Y024343D03*
X-084780Y025287D03*
X-084756Y027413D03*
X-084406Y024343D03*
X-084382Y028358D03*
X-084008Y027413D03*
X-082536Y077386D03*
X-082162Y078331D03*
X-081788Y077386D03*
X-059878Y002347D03*
X-059504Y001402D03*
X-059130Y002347D03*
X-057657Y052320D03*
X-057283Y051375D03*
X-057260Y055390D03*
X-056909Y052320D03*
X-056886Y054446D03*
X-056512Y055390D03*
X-045969Y024343D03*
X-045595Y025287D03*
X-045571Y027413D03*
X-045221Y024343D03*
X-045197Y028358D03*
X-044823Y027413D03*
X-043351Y077386D03*
X-042977Y078331D03*
X-042603Y077386D03*
X-020574Y002347D03*
X-020200Y001402D03*
X-019826Y002347D03*
X-018354Y052320D03*
X-017980Y051375D03*
X-017956Y055390D03*
X-017606Y052320D03*
X-017582Y054446D03*
X-017208Y055390D03*
X-006677Y024343D03*
X-006303Y025287D03*
X-006280Y027413D03*
X-005929Y024343D03*
X-005906Y028358D03*
X-005531Y027413D03*
X-004059Y077386D03*
X-003685Y078331D03*
X-003311Y077386D03*
G54D18*
X-107764Y017619D03*
Y018170D03*
X-107263Y013803D03*
Y014354D03*
X-107028Y007536D03*
Y008087D03*
X-106024Y005808D03*
Y006359D03*
X-105971Y008783D03*
Y009334D03*
X-105419Y005808D03*
Y006359D03*
X-100078Y002073D03*
Y002624D03*
X-097886Y055087D03*
Y055639D03*
X-083359Y024094D03*
Y024646D03*
X-081167Y077109D03*
Y077660D03*
X-075826Y073374D03*
Y073925D03*
X-075274Y070399D03*
Y070950D03*
X-075221Y073374D03*
Y073925D03*
X-074217Y071646D03*
Y072197D03*
X-073981Y065379D03*
Y065930D03*
X-073481Y061563D03*
Y062114D03*
X-068185Y017619D03*
Y018170D03*
X-067685Y013803D03*
Y014354D03*
X-067449Y007536D03*
Y008087D03*
X-066445Y005808D03*
Y006359D03*
X-066392Y008783D03*
Y009334D03*
X-065840Y005808D03*
Y006359D03*
X-060499Y002073D03*
Y002624D03*
X-058307Y055087D03*
Y055639D03*
X-044173Y024094D03*
Y024646D03*
X-041982Y077109D03*
Y077660D03*
X-036641Y073374D03*
Y073925D03*
X-036089Y070399D03*
Y070950D03*
X-036036Y073374D03*
Y073925D03*
X-035032Y071646D03*
Y072197D03*
X-034796Y065379D03*
Y065930D03*
X-034295Y061563D03*
Y062114D03*
X-028882Y017619D03*
Y018170D03*
X-028381Y013803D03*
Y014354D03*
X-028145Y007536D03*
Y008087D03*
X-027141Y005808D03*
Y006359D03*
X-027088Y008783D03*
Y009334D03*
X-026536Y005808D03*
Y006359D03*
X-021195Y002073D03*
Y002624D03*
X-019004Y055087D03*
Y055639D03*
X-004882Y024094D03*
Y024646D03*
X-002690Y077109D03*
Y077660D03*
X002651Y073374D03*
Y073925D03*
X003203Y070399D03*
Y070950D03*
X003256Y073374D03*
Y073925D03*
X004260Y071646D03*
Y072197D03*
X004496Y065379D03*
Y065930D03*
X004996Y061563D03*
Y062114D03*
G54D19*
X-096814Y001388D03*
Y001782D03*
Y002176D03*
Y002570D03*
Y002963D03*
X-084430Y076770D03*
Y077163D03*
Y077557D03*
Y077951D03*
Y078345D03*
X-057236Y001388D03*
Y001782D03*
Y002176D03*
Y002570D03*
Y002963D03*
X-045245Y076770D03*
Y077163D03*
Y077557D03*
Y077951D03*
Y078345D03*
X-017932Y001388D03*
Y001782D03*
Y002176D03*
Y002570D03*
Y002963D03*
X-005953Y076770D03*
Y077163D03*
Y077557D03*
Y077951D03*
Y078345D03*
G54D20*
X-097130Y053753D03*
X-096421D03*
X-084823Y025980D03*
X-084115D03*
X-057551Y053753D03*
X-056843D03*
X-045638Y025980D03*
X-044929D03*
X-018248Y053753D03*
X-017539D03*
X-006346Y025980D03*
X-005638D03*
G54D21*
X-106215Y007115D03*
Y008217D03*
X-105959Y007115D03*
Y008217D03*
X-105703Y007115D03*
Y008217D03*
X-105447Y007115D03*
Y008217D03*
X-075798Y071516D03*
Y072618D03*
X-075542Y071516D03*
Y072618D03*
X-075286Y071516D03*
Y072618D03*
X-075030Y071516D03*
Y072618D03*
X-066636Y007115D03*
Y008217D03*
X-066380Y007115D03*
Y008217D03*
X-066124Y007115D03*
Y008217D03*
X-065868Y007115D03*
Y008217D03*
X-036612Y071516D03*
Y072618D03*
X-036357Y071516D03*
Y072618D03*
X-036101Y071516D03*
Y072618D03*
X-035845Y071516D03*
Y072618D03*
X-027332Y007115D03*
Y008217D03*
X-027076Y007115D03*
Y008217D03*
X-026820Y007115D03*
Y008217D03*
X-026565Y007115D03*
Y008217D03*
X002679Y071516D03*
Y072618D03*
X002935Y071516D03*
Y072618D03*
X003191Y071516D03*
Y072618D03*
X003447Y071516D03*
Y072618D03*
G54D22*
X-105831Y007666D03*
X-075414Y072067D03*
X-066252Y007666D03*
X-036229Y072067D03*
X-026948Y007666D03*
X003063Y072067D03*
G54D23*
X-107263Y013724D03*
Y014433D03*
X-106345Y013724D03*
Y014433D03*
X-105236Y008861D03*
Y009569D03*
X-097570Y012561D03*
Y013270D03*
X-096473Y012561D03*
Y013270D03*
X-084772Y066463D03*
Y067172D03*
X-083675Y066463D03*
Y067172D03*
X-076009Y070164D03*
Y070872D03*
X-074900Y065300D03*
Y066009D03*
X-073981Y065300D03*
Y066009D03*
X-067685Y013724D03*
Y014433D03*
X-066766Y013724D03*
Y014433D03*
X-065657Y008861D03*
Y009569D03*
X-057991Y012561D03*
Y013270D03*
X-056894Y012561D03*
Y013270D03*
X-045587Y066463D03*
Y067172D03*
X-044489Y066463D03*
Y067172D03*
X-036824Y070164D03*
Y070872D03*
X-035715Y065300D03*
Y066009D03*
X-034796Y065300D03*
Y066009D03*
X-028381Y013724D03*
Y014433D03*
X-027462Y013724D03*
Y014433D03*
X-026353Y008861D03*
Y009569D03*
X-018688Y012561D03*
Y013270D03*
X-017591Y012561D03*
Y013270D03*
X-006295Y066463D03*
Y067172D03*
X-005198Y066463D03*
Y067172D03*
X002468Y070164D03*
Y070872D03*
X003577Y065300D03*
Y066009D03*
X004496Y065300D03*
Y066009D03*
G54D24*
X-106953Y012469D03*
X-106176Y010525D03*
X-106008Y012095D03*
Y012843D03*
X-105231Y010151D03*
Y010899D03*
X-076014Y068834D03*
Y069582D03*
X-075237Y066890D03*
Y067638D03*
X-075069Y069208D03*
X-074292Y067264D03*
X-067374Y012469D03*
X-066597Y010525D03*
X-066429Y012095D03*
Y012843D03*
X-065652Y010151D03*
Y010899D03*
X-036829Y068834D03*
Y069582D03*
X-036051Y066890D03*
Y067638D03*
X-035884Y069208D03*
X-035107Y067264D03*
X-028070Y012469D03*
X-027293Y010525D03*
X-027126Y012095D03*
Y012843D03*
X-026348Y010151D03*
Y010899D03*
X002463Y068834D03*
Y069582D03*
X003240Y066890D03*
Y067638D03*
X003408Y069208D03*
X004185Y067264D03*
G54D25*
X-105581Y013572D03*
Y014505D03*
X-075664Y065228D03*
Y066161D03*
X-066002Y013572D03*
Y014505D03*
X-036478Y065228D03*
Y066161D03*
X-026699Y013572D03*
Y014505D03*
X002813Y065228D03*
Y066161D03*
G54D26*
X-099583Y021406D03*
Y023690D03*
X-099083Y021406D03*
Y023690D03*
X-098583Y021406D03*
Y023690D03*
X-098083Y021406D03*
Y023690D03*
X-097583Y021406D03*
Y023690D03*
X-097083Y021406D03*
Y023690D03*
X-096583Y021406D03*
Y023690D03*
X-084662Y056043D03*
Y058327D03*
X-084162Y056043D03*
Y058327D03*
X-083662Y056043D03*
Y058327D03*
X-083162Y056043D03*
Y058327D03*
X-082662Y056043D03*
Y058327D03*
X-082162Y056043D03*
Y058327D03*
X-081662Y056043D03*
Y058327D03*
X-060004Y021406D03*
Y023690D03*
X-059504Y021406D03*
Y023690D03*
X-059004Y021406D03*
Y023690D03*
X-058504Y021406D03*
Y023690D03*
X-058004Y021406D03*
Y023690D03*
X-057504Y021406D03*
Y023690D03*
X-057004Y021406D03*
Y023690D03*
X-045477Y056043D03*
Y058327D03*
X-044977Y056043D03*
Y058327D03*
X-044477Y056043D03*
Y058327D03*
X-043977Y056043D03*
Y058327D03*
X-043477Y056043D03*
Y058327D03*
X-042977Y056043D03*
Y058327D03*
X-042477Y056043D03*
Y058327D03*
X-020700Y021406D03*
Y023690D03*
X-020200Y021406D03*
Y023690D03*
X-019700Y021406D03*
Y023690D03*
X-019200Y021406D03*
Y023690D03*
X-018700Y021406D03*
Y023690D03*
X-018200Y021406D03*
Y023690D03*
X-017700Y021406D03*
Y023690D03*
X-006185Y056043D03*
Y058327D03*
X-005685Y056043D03*
Y058327D03*
X-005185Y056043D03*
Y058327D03*
X-004685Y056043D03*
Y058327D03*
X-004185Y056043D03*
Y058327D03*
X-003685Y056043D03*
Y058327D03*
X-003185Y056043D03*
Y058327D03*
G54D27*
X-097570Y012140D03*
Y013754D03*
X-096468Y012140D03*
Y013754D03*
X-084777Y065979D03*
Y067593D03*
X-083675Y065979D03*
Y067593D03*
X-057991Y012140D03*
Y013754D03*
X-056889Y012140D03*
Y013754D03*
X-045592Y065979D03*
Y067593D03*
X-044489Y065979D03*
Y067593D03*
X-018688Y012140D03*
Y013754D03*
X-017585Y012140D03*
Y013754D03*
X-006300Y065979D03*
Y067593D03*
X-005198Y065979D03*
Y067593D03*
G54D28*
X-101283Y021457D03*
X-100102D03*
X-098024Y019009D03*
X-096842D03*
X-084402Y060724D03*
X-083221D03*
X-081142Y058276D03*
X-079961D03*
X-061705Y021457D03*
X-060524D03*
X-058445Y019009D03*
X-057264D03*
X-045217Y060724D03*
X-044036D03*
X-041957Y058276D03*
X-040776D03*
X-022401Y021457D03*
X-021220D03*
X-019141Y019009D03*
X-017960D03*
X-005925Y060724D03*
X-004744D03*
X-002665Y058276D03*
X-001484D03*
G54D70*
X-095820Y000877D03*
Y003475D03*
X-085424Y076258D03*
Y078856D03*
X-056242Y000877D03*
Y003475D03*
X-046239Y076258D03*
Y078856D03*
X-016938Y000877D03*
Y003475D03*
X-006947Y076258D03*
Y078856D03*
G54D71*
X-097476Y062957D03*
Y064272D03*
X-096374Y062957D03*
Y064272D03*
X-084871Y015461D03*
Y016776D03*
X-083768Y015461D03*
Y016776D03*
X-057898Y062957D03*
Y064272D03*
X-056795Y062957D03*
Y064272D03*
X-045685Y015461D03*
Y016776D03*
X-044583Y015461D03*
Y016776D03*
X-018594Y062957D03*
Y064272D03*
X-017492Y062957D03*
Y064272D03*
X-006394Y015461D03*
Y016776D03*
X-005291Y015461D03*
Y016776D03*
M02*
