*
G04 Job   : N:\Projects\COMUN\PSA\P07520_P2_Faceplate\C4_Not_Capacitive\12005658-18\panel_12005655\panel_12005655.pnl*
G04 User  : ESSECAE006:bolet001*
G04 Layer : 12005655-06-g11.gbr*
G04 Date  : Thu Mar 12 09:05:55 2020*
G04 equiv. Boardstation g11*
G04 Expedition Layer: Solder Paste - Top*
%ICAS*%
%MOIN*%
%FSDAX24Y24*%
%OFA0.0000B0.0000*%
G90*
G74*
%AMVB_RECTANGLE*
21,1,$1,$2,0,0,$3*
%
%ADD11C,0.00591*%
%ADD10C,0.03937*%
%ADD72C,0.06693*%
%ADD21VB_RECTANGLE,0.03150X0.03150X0.00000*%
%ADD12VB_RECTANGLE,0.03937X0.02756X0.00000*%
%ADD70VB_RECTANGLE,0.03937X0.02756X270.00000*%
%ADD15VB_RECTANGLE,0.04331X0.01772X180.00000*%
%ADD30VB_RECTANGLE,0.04331X0.01772X90.00000*%
%ADD19VB_RECTANGLE,0.04331X0.01969X270.00000*%
%ADD16VB_RECTANGLE,0.04331X0.03150X180.00000*%
%ADD31VB_RECTANGLE,0.04331X0.03150X90.00000*%
%ADD29VB_RECTANGLE,0.04724X0.03150X180.00000*%
%ADD17VB_RECTANGLE,0.04724X0.03150X90.00000*%
%ADD13VB_RECTANGLE,0.04724X0.03937X0.00000*%
%ADD23VB_RECTANGLE,0.05118X0.01181X180.00000*%
%ADD22VB_RECTANGLE,0.05118X0.01181X90.00000*%
%ADD28VB_RECTANGLE,0.05118X0.03150X90.00000*%
%ADD71VB_RECTANGLE,0.05906X0.03150X180.00000*%
%ADD14VB_RECTANGLE,0.05906X0.03150X270.00000*%
%ADD20VB_RECTANGLE,0.05906X0.04724X180.00000*%
%ADD73VB_RECTANGLE,0.06299X0.02362X270.00000*%
%ADD24VB_RECTANGLE,0.06299X0.09449X180.00000*%
%ADD25VB_RECTANGLE,0.07480X0.06693X0.00000*%
%ADD27VB_RECTANGLE,0.09055X0.06299X270.00000*%
%ADD18VB_RECTANGLE,0.10630X0.06299X0.00000*%
%ADD26VB_RECTANGLE,0.15157X0.06299X0.00000*%
G01*
G36*
X-110218Y079424D02*
Y079668D01*
X-110462*
G02X-110464Y079707I000283J000039*
X-110179Y079992I000285*
X-110139Y079990J000285*
G01Y079746*
X-109896*
G02X-109893Y079707I000283J000039*
X-110179Y079422I000286*
X-110218Y079424J000285*
G01Y079990D02*
Y079746D01*
X-110462*
G03X-110464Y079707I000283J000039*
X-110179Y079422I000285*
X-110139Y079424J000285*
G01Y079668*
X-109896*
G03X-109893Y079707I000283J000039*
X-110179Y079992I000286*
X-110218Y079990J000285*
G01X-110211Y-000339D02*
Y-000095D01*
X-110454*
G02X-110457Y-000056I000282J000039*
X-110172Y000229I000285*
X-110132Y000227J000285*
G01Y-000017*
X-109889*
G02X-109886Y-000056I000283J000039*
X-110172Y-000341I000286*
X-110211Y-000339J000285*
G01Y000227D02*
Y-000017D01*
X-110454*
G03X-110457Y-000056I000282J000039*
X-110172Y-000341I000285*
X-110132Y-000339J000285*
G01Y-000095*
X-109889*
G03X-109886Y-000056I000283J000039*
X-110172Y000229I000286*
X-110211Y000227J000285*
G01X-101269Y079626D02*
X-100993D01*
Y080177*
X-101269*
Y079626*
X-100442D02*
X-100167D01*
Y080177*
X-100442*
Y079626*
X-099773D02*
X-099497D01*
Y080177*
X-099773*
Y079626*
X-099182D02*
X-098907D01*
Y080177*
X-099182*
Y079626*
X-098671D02*
X-098395D01*
Y080177*
X-098671*
Y079626*
X-098198D02*
X-097923D01*
Y080177*
X-098198*
Y079626*
X-091435Y-000324D02*
X-091160D01*
Y000228*
X-091435*
Y-000324*
X-090963D02*
X-090687D01*
Y000228*
X-090963*
Y-000324*
X-090451D02*
X-090175D01*
Y000228*
X-090451*
Y-000324*
X-089861D02*
X-089585D01*
Y000228*
X-089861*
Y-000324*
X-089191D02*
X-088916D01*
Y000228*
X-089191*
Y-000324*
X-088364D02*
X-088089D01*
Y000228*
X-088364*
Y-000324*
X007331Y079353D02*
Y079596D01*
X007088*
G02X007085Y079635I000282J000039*
X007370Y079921I000285*
X007410Y079918J000286*
G01Y079675*
X007653*
G02X007656Y079635I000283J000040*
X007370Y079350I000286*
X007331Y079353J000285*
G01Y079918D02*
Y079675D01*
X007088*
G03X007085Y079635I000282J000040*
X007370Y079350I000285*
X007410Y079353J000285*
G01Y079596*
X007653*
G03X007656Y079635I000283J000039*
X007370Y079921I000286*
X007331Y079918J000286*
G37*
G54D10*
G01X009563Y-001602D02*
X008151Y-001987D01*
G02X007995Y-002008I000156J000570*
G01X-110504*
G02X-110658Y-001987J000591*
G01X-112161Y-001602*
G02X-112598Y-001032I000154J000570*
G01Y-001031*
X-112638Y080764*
G02X-112197Y081335I000591J000001*
G01X-110697Y081713*
G02X-110546Y081732I000151J000571*
X-110543J000590*
G01X007953*
G02X008102Y081713I000002J000590*
G01X009563Y081339*
G02X010000Y080768I000154J000571*
G01Y-001031*
Y-001032*
G02X009563Y-001602I000591*
G54D11*
G01X-066218Y079921D02*
Y080905D01*
X-065936*
X-065842Y080846*
X-065811Y080801*
X-065780Y080712*
Y080577*
X-065811Y080473*
X-065842Y080428*
X-065936Y080384*
X-066218*
X-065091Y080428D02*
X-065164Y080518D01*
X-065237Y080563*
X-065352*
X-065425Y080518*
X-065498Y080428*
X-065529Y080294*
Y080190*
X-065498Y080055*
X-065425Y079966*
X-065352Y079921*
X-065237*
X-065164Y079966*
X-065091Y080055*
Y080563D02*
Y079921D01*
X-064402Y080428D02*
X-064443Y080518D01*
X-064558Y080563*
X-064684*
X-064809Y080518*
X-064840Y080428*
X-064809Y080339*
X-064725Y080294*
X-064527Y080249*
X-064443Y080190*
X-064402Y080100*
Y080055*
X-064443Y079966*
X-064558Y079921*
X-064684*
X-064809Y079966*
X-064840Y080055*
X-064151Y080563D02*
X-063765D01*
X-063995Y080891D02*
Y080100D01*
X-063932Y079966*
X-063817Y079921*
X-063713*
X-063462Y080294D02*
X-063024D01*
Y080384*
X-063055Y080473*
X-063097Y080518*
X-063170Y080563*
X-063285*
X-063358Y080518*
X-063431Y080428*
X-063462Y080294*
Y080190*
X-063431Y080055*
X-063358Y079966*
X-063285Y079921*
X-063170*
X-063097Y079966*
X-063024Y080055*
X-062084Y079921D02*
Y080905D01*
X-061865Y079921*
X-061646Y080905*
Y079921*
X-060957Y080428D02*
X-061030Y080518D01*
X-061103Y080563*
X-061218*
X-061291Y080518*
X-061364Y080428*
X-061395Y080294*
Y080190*
X-061364Y080055*
X-061291Y079966*
X-061218Y079921*
X-061103*
X-061030Y079966*
X-060957Y080055*
Y080563D02*
Y079921D01*
X-060268Y080428D02*
X-060310Y080518D01*
X-060424Y080563*
X-060550*
X-060675Y080518*
X-060706Y080428*
X-060675Y080339*
X-060591Y080294*
X-060393Y080249*
X-060310Y080190*
X-060268Y080100*
Y080055*
X-060310Y079966*
X-060424Y079921*
X-060550*
X-060675Y079966*
X-060706Y080055*
X-060017Y080891D02*
Y079921D01*
X-059861Y080294D02*
X-059579Y079921D01*
X-059621Y080563D02*
X-060017Y080100D01*
X-058639Y080905D02*
X-058201D01*
X-058420D02*
Y079921D01*
X-057783Y080563D02*
X-057857Y080518D01*
X-057919Y080428*
X-057950Y080294*
Y080190*
X-057919Y080055*
X-057857Y079966*
X-057783Y079921*
X-057679*
X-057616Y079966*
X-057543Y080055*
X-057512Y080190*
Y080294*
X-057543Y080428*
X-057616Y080518*
X-057679Y080563*
X-057783*
X-057262Y080428D02*
X-057199Y080518D01*
X-057115Y080563*
X-057011*
X-056938Y080518*
X-056854Y080428*
X-056823Y080294*
Y080190*
X-056854Y080055*
X-056938Y079966*
X-057011Y079921*
X-057115*
X-057199Y079966*
X-057262Y080055*
Y080563D02*
Y079593D01*
X-034918Y080428D02*
X-034637D01*
X-034543Y080384*
X-034511Y080339*
X-034480Y080249*
Y080100*
X-034511Y080011*
X-034543Y079966*
X-034637Y079921*
X-034918*
Y080905*
X-034637*
X-034543Y080846*
X-034511Y080801*
X-034480Y080712*
Y080622*
X-034511Y080533*
X-034543Y080473*
X-034637Y080428*
X-034229Y079921D02*
Y080905D01*
X-033948*
X-033854Y080846*
X-033822Y080801*
X-033791Y080712*
Y080622*
X-033822Y080533*
X-033854Y080473*
X-033948Y080428*
X-034229*
X-034010D02*
X-033791Y079921D01*
X-033540Y080905D02*
X-033321D01*
X-033227Y080846*
X-033165Y080756*
X-033133Y080667*
X-033102Y080533*
Y080294*
X-033133Y080160*
X-033165Y080055*
X-033227Y079966*
X-033321Y079921*
X-033540*
Y080905*
X-031996Y080712D02*
X-031954Y080756D01*
X-031902Y080891*
Y079921*
X-031442Y080667D02*
Y080712D01*
X-031411Y080801*
X-031380Y080846*
X-031317Y080905*
X-031192*
X-031129Y080846*
X-031098Y080801*
X-031066Y080712*
Y080622*
X-031098Y080533*
X-031160Y080384*
X-031474Y079921*
X-031035*
X-030597Y080891D02*
X-030691Y080846D01*
X-030753Y080712*
X-030785Y080473*
Y080339*
X-030753Y080100*
X-030691Y079966*
X-030597Y079921*
X-030534*
X-030440Y079966*
X-030377Y080100*
X-030346Y080339*
Y080473*
X-030377Y080712*
X-030440Y080846*
X-030534Y080891*
X-030597*
X-029908D02*
X-030002Y080846D01*
X-030064Y080712*
X-030096Y080473*
Y080339*
X-030064Y080100*
X-030002Y079966*
X-029908Y079921*
X-029845*
X-029751Y079966*
X-029689Y080100*
X-029657Y080339*
Y080473*
X-029689Y080712*
X-029751Y080846*
X-029845Y080891*
X-029908*
X-029031D02*
X-029344D01*
X-029375Y080473*
X-029344Y080518*
X-029250Y080563*
X-029156*
X-029062Y080518*
X-029000Y080428*
X-028968Y080294*
Y080190*
X-029000Y080055*
X-029062Y079966*
X-029156Y079921*
X-029250*
X-029344Y079966*
X-029375Y080011*
X-029407Y080100*
X-028311Y080756D02*
X-028342Y080846D01*
X-028446Y080891*
X-028519*
X-028624Y080846*
X-028686Y080712*
X-028718Y080473*
Y080249*
X-028686Y080055*
X-028624Y079966*
X-028519Y079921*
X-028488*
X-028384Y079966*
X-028311Y080055*
X-028279Y080190*
Y080249*
X-028311Y080384*
X-028384Y080473*
X-028488Y080518*
X-028519*
X-028624Y080473*
X-028686Y080384*
X-028718Y080249*
X-027653Y080891D02*
X-027966D01*
X-027997Y080473*
X-027966Y080518*
X-027872Y080563*
X-027778*
X-027684Y080518*
X-027622Y080428*
X-027590Y080294*
Y080190*
X-027622Y080055*
X-027684Y079966*
X-027778Y079921*
X-027872*
X-027966Y079966*
X-027997Y080011*
X-028029Y080100*
X-027183Y080891D02*
X-027277Y080846D01*
X-027308Y080756*
Y080667*
X-027277Y080563*
X-027215Y080518*
X-027089Y080473*
X-026995Y080428*
X-026933Y080339*
X-026901Y080249*
Y080100*
X-026933Y080011*
X-026964Y079966*
X-027058Y079921*
X-027183*
X-027277Y079966*
X-027308Y080011*
X-027340Y080100*
Y080249*
X-027308Y080339*
X-027246Y080428*
X-027152Y080473*
X-027027Y080518*
X-026964Y080563*
X-026933Y080667*
Y080756*
X-026964Y080846*
X-027058Y080891*
X-027183*
X-026651Y080339D02*
X-026212D01*
X-025774Y080891D02*
X-025868Y080846D01*
X-025931Y080712*
X-025962Y080473*
Y080339*
X-025931Y080100*
X-025868Y079966*
X-025774Y079921*
X-025711*
X-025617Y079966*
X-025555Y080100*
X-025523Y080339*
Y080473*
X-025555Y080712*
X-025617Y080846*
X-025711Y080891*
X-025774*
X-024866Y080756D02*
X-024897Y080846D01*
X-025001Y080891*
X-025075*
X-025179Y080846*
X-025242Y080712*
X-025273Y080473*
Y080249*
X-025242Y080055*
X-025179Y079966*
X-025075Y079921*
X-025043*
X-024939Y079966*
X-024866Y080055*
X-024834Y080190*
Y080249*
X-024866Y080384*
X-024939Y080473*
X-025043Y080518*
X-025075*
X-025179Y080473*
X-025242Y080384*
X-025273Y080249*
X-023895Y079921D02*
Y080905D01*
X-023613*
X-023519Y080846*
X-023488Y080801*
X-023457Y080712*
Y080577*
X-023488Y080473*
X-023519Y080428*
X-023613Y080384*
X-023895*
X-023206Y079921D02*
Y080905D01*
X-022768Y079921*
Y080905*
X-022517D02*
Y079921D01*
X-022079*
X-021661Y080712D02*
X-021619Y080756D01*
X-021567Y080891*
Y079921*
X-021108Y080667D02*
Y080712D01*
X-021077Y080801*
X-021045Y080846*
X-020983Y080905*
X-020857*
X-020795Y080846*
X-020763Y080801*
X-020732Y080712*
Y080622*
X-020763Y080533*
X-020826Y080384*
X-021139Y079921*
X-020701*
X-020262Y080891D02*
X-020356Y080846D01*
X-020419Y080712*
X-020450Y080473*
Y080339*
X-020419Y080100*
X-020356Y079966*
X-020262Y079921*
X-020200*
X-020106Y079966*
X-020043Y080100*
X-020012Y080339*
Y080473*
X-020043Y080712*
X-020106Y080846*
X-020200Y080891*
X-020262*
X-019573D02*
X-019667Y080846D01*
X-019730Y080712*
X-019761Y080473*
Y080339*
X-019730Y080100*
X-019667Y079966*
X-019573Y079921*
X-019511*
X-019417Y079966*
X-019354Y080100*
X-019323Y080339*
Y080473*
X-019354Y080712*
X-019417Y080846*
X-019511Y080891*
X-019573*
X-018696D02*
X-019010D01*
X-019041Y080473*
X-019010Y080518*
X-018916Y080563*
X-018822*
X-018728Y080518*
X-018665Y080428*
X-018634Y080294*
Y080190*
X-018665Y080055*
X-018728Y079966*
X-018822Y079921*
X-018916*
X-019010Y079966*
X-019041Y080011*
X-019072Y080100*
X-017976Y080756D02*
X-018007Y080846D01*
X-018112Y080891*
X-018185*
X-018289Y080846*
X-018352Y080712*
X-018383Y080473*
Y080249*
X-018352Y080055*
X-018289Y079966*
X-018185Y079921*
X-018154*
X-018049Y079966*
X-017976Y080055*
X-017945Y080190*
Y080249*
X-017976Y080384*
X-018049Y080473*
X-018154Y080518*
X-018185*
X-018289Y080473*
X-018352Y080384*
X-018383Y080249*
X-017319Y080891D02*
X-017632D01*
X-017663Y080473*
X-017632Y080518*
X-017538Y080563*
X-017444*
X-017350Y080518*
X-017287Y080428*
X-017256Y080294*
Y080190*
X-017287Y080055*
X-017350Y079966*
X-017444Y079921*
X-017538*
X-017632Y079966*
X-017663Y080011*
X-017694Y080100*
X-016630Y080891D02*
X-016943D01*
X-016974Y080473*
X-016943Y080518*
X-016849Y080563*
X-016755*
X-016661Y080518*
X-016598Y080428*
X-016567Y080294*
Y080190*
X-016598Y080055*
X-016661Y079966*
X-016755Y079921*
X-016849*
X-016943Y079966*
X-016974Y080011*
X-017005Y080100*
X-016316Y080339D02*
X-015878D01*
X-015440Y080891D02*
X-015533Y080846D01*
X-015596Y080712*
X-015627Y080473*
Y080339*
X-015596Y080100*
X-015533Y079966*
X-015440Y079921*
X-015377*
X-015283Y079966*
X-015220Y080100*
X-015189Y080339*
Y080473*
X-015220Y080712*
X-015283Y080846*
X-015377Y080891*
X-015440*
X-014531Y080756D02*
X-014563Y080846D01*
X-014667Y080891*
X-014740*
X-014845Y080846*
X-014907Y080712*
X-014938Y080473*
Y080249*
X-014907Y080055*
X-014845Y079966*
X-014740Y079921*
X-014709*
X-014604Y079966*
X-014531Y080055*
X-014500Y080190*
Y080249*
X-014531Y080384*
X-014604Y080473*
X-014709Y080518*
X-014740*
X-014845Y080473*
X-014907Y080384*
X-014938Y080249*
G54D12*
X-107311Y006438D03*
Y006989D03*
X-105559Y005931D03*
Y006482D03*
X-104890Y005931D03*
Y006482D03*
X-104671Y015443D03*
Y015995D03*
X-104382Y025339D03*
Y025890D03*
X-104213Y034564D03*
Y035116D03*
X-104058Y031594D03*
Y032145D03*
X-104028Y014253D03*
Y014804D03*
X-103648Y036587D03*
Y037138D03*
X-101988Y036583D03*
Y037135D03*
X-101359Y019207D03*
Y019759D03*
X-100957Y028438D03*
Y028989D03*
X-100497Y024641D03*
Y025192D03*
X-100130Y028426D03*
Y028977D03*
X-099961Y069745D03*
Y070296D03*
X-099531Y006536D03*
Y007087D03*
X-098672Y031442D03*
Y031993D03*
X-096846Y020784D03*
Y021335D03*
X-096350Y004351D03*
Y004902D03*
X-084894Y074831D03*
Y075382D03*
X-084398Y058398D03*
Y058949D03*
X-082572Y047740D03*
Y048291D03*
X-081713Y072646D03*
Y073197D03*
X-081284Y009437D03*
Y009988D03*
X-081115Y050756D03*
Y051307D03*
X-080748Y054541D03*
Y055092D03*
X-080288Y050744D03*
Y051295D03*
X-079886Y059974D03*
Y060526D03*
X-079256Y042598D03*
Y043150D03*
X-077597Y042595D03*
Y043146D03*
X-077217Y064929D03*
Y065480D03*
X-077187Y047588D03*
Y048139D03*
X-077032Y044617D03*
Y045169D03*
X-076863Y053843D03*
Y054394D03*
X-076573Y063738D03*
Y064290D03*
X-076355Y073251D03*
Y073802D03*
X-075686Y073251D03*
Y073802D03*
X-073934Y072744D03*
Y073295D03*
X-067732Y006438D03*
Y006989D03*
X-065980Y005931D03*
Y006482D03*
X-065311Y005931D03*
Y006482D03*
X-065092Y015443D03*
Y015995D03*
X-064803Y025339D03*
Y025890D03*
X-064634Y034564D03*
Y035116D03*
X-064479Y031594D03*
Y032145D03*
X-064449Y014253D03*
Y014804D03*
X-064069Y036587D03*
Y037138D03*
X-062409Y036583D03*
Y037135D03*
X-061780Y019207D03*
Y019759D03*
X-061378Y028438D03*
Y028989D03*
X-060918Y024641D03*
Y025192D03*
X-060551Y028426D03*
Y028977D03*
X-060382Y069745D03*
Y070296D03*
X-059953Y006536D03*
Y007087D03*
X-059094Y031442D03*
Y031993D03*
X-057268Y020784D03*
Y021335D03*
X-056772Y004351D03*
Y004902D03*
X-045709Y074831D03*
Y075382D03*
X-045213Y058398D03*
Y058949D03*
X-043387Y047740D03*
Y048291D03*
X-042528Y072646D03*
Y073197D03*
X-042099Y009437D03*
Y009988D03*
X-041929Y050756D03*
Y051307D03*
X-041563Y054541D03*
Y055092D03*
X-041103Y050744D03*
Y051295D03*
X-040701Y059974D03*
Y060526D03*
X-040071Y042598D03*
Y043150D03*
X-038411Y042595D03*
Y043146D03*
X-038032Y064929D03*
Y065480D03*
X-038001Y047588D03*
Y048139D03*
X-037846Y044617D03*
Y045169D03*
X-037677Y053843D03*
Y054394D03*
X-037388Y063738D03*
Y064290D03*
X-037170Y073251D03*
Y073802D03*
X-036500Y073251D03*
Y073802D03*
X-034748Y072744D03*
Y073295D03*
X-028429Y006438D03*
Y006989D03*
X-026677Y005931D03*
Y006482D03*
X-026007Y005931D03*
Y006482D03*
X-025789Y015443D03*
Y015995D03*
X-025500Y025339D03*
Y025890D03*
X-025331Y034564D03*
Y035116D03*
X-025176Y031594D03*
Y032145D03*
X-025145Y014253D03*
Y014804D03*
X-024766Y036587D03*
Y037138D03*
X-023106Y036583D03*
Y037135D03*
X-022476Y019207D03*
Y019759D03*
X-022074Y028438D03*
Y028989D03*
X-021614Y024641D03*
Y025192D03*
X-021248Y028426D03*
Y028977D03*
X-021078Y069745D03*
Y070296D03*
X-020649Y006536D03*
Y007087D03*
X-019790Y031442D03*
Y031993D03*
X-017964Y020784D03*
Y021335D03*
X-017468Y004351D03*
Y004902D03*
X-006417Y074831D03*
Y075382D03*
X-005921Y058398D03*
Y058949D03*
X-004095Y047740D03*
Y048291D03*
X-003236Y072646D03*
Y073197D03*
X-002807Y009437D03*
Y009988D03*
X-002638Y050756D03*
Y051307D03*
X-002271Y054541D03*
Y055092D03*
X-001811Y050744D03*
Y051295D03*
X-001409Y059974D03*
Y060526D03*
X-000780Y042598D03*
Y043150D03*
X000880Y042595D03*
Y043146D03*
X001260Y064929D03*
Y065480D03*
X001290Y047588D03*
Y048139D03*
X001445Y044617D03*
Y045169D03*
X001614Y053843D03*
Y054394D03*
X001903Y063738D03*
Y064290D03*
X002122Y073251D03*
Y073802D03*
X002791Y073251D03*
Y073802D03*
X004543Y072744D03*
Y073295D03*
G54D13*
X-092197Y031063D03*
Y031850D03*
Y051693D03*
Y052480D03*
Y072319D03*
Y073106D03*
X-089047Y006627D03*
Y007414D03*
Y027253D03*
Y028040D03*
Y047883D03*
Y048670D03*
X-053012Y031063D03*
Y031850D03*
Y051693D03*
Y052480D03*
Y072319D03*
Y073106D03*
X-049469Y006627D03*
Y007414D03*
Y027253D03*
Y028040D03*
Y047883D03*
Y048670D03*
X-013720Y031063D03*
Y031850D03*
Y051693D03*
Y052480D03*
Y072319D03*
Y073106D03*
X-010165Y006627D03*
Y007414D03*
Y027253D03*
Y028040D03*
Y047883D03*
Y048670D03*
G54D14*
X-098653Y019166D03*
X-097472D03*
X-097126Y043103D03*
Y044032D03*
X-096287Y032414D03*
Y033343D03*
X-095945Y043103D03*
Y044032D03*
X-095106Y032414D03*
Y033343D03*
X-086139Y046390D03*
Y047319D03*
X-085300Y035701D03*
Y036630D03*
X-084957Y046390D03*
Y047319D03*
X-084119Y035701D03*
Y036630D03*
X-083772Y060567D03*
X-082591D03*
X-059075Y019166D03*
X-057894D03*
X-057547Y043103D03*
Y044032D03*
X-056709Y032414D03*
Y033343D03*
X-056366Y043103D03*
Y044032D03*
X-055527Y032414D03*
Y033343D03*
X-046953Y046390D03*
Y047319D03*
X-046114Y035701D03*
Y036630D03*
X-045772Y046390D03*
Y047319D03*
X-044933Y035701D03*
Y036630D03*
X-044587Y060567D03*
X-043406D03*
X-019771Y019166D03*
X-018590D03*
X-018244Y043103D03*
Y044032D03*
X-017405Y032414D03*
Y033343D03*
X-017063Y043103D03*
Y044032D03*
X-016224Y032414D03*
Y033343D03*
X-007662Y046390D03*
Y047319D03*
X-006823Y035701D03*
Y036630D03*
X-006480Y046390D03*
Y047319D03*
X-005642Y035701D03*
Y036630D03*
X-005295Y060567D03*
X-004114D03*
G54D15*
X-097984Y004064D03*
Y004379D03*
X-097236Y004064D03*
Y004379D03*
X-084008Y075354D03*
Y075669D03*
X-083260Y075354D03*
Y075669D03*
X-058406Y004064D03*
Y004379D03*
X-057657Y004064D03*
Y004379D03*
X-044823Y075354D03*
Y075669D03*
X-044075Y075354D03*
Y075669D03*
X-019102Y004064D03*
Y004379D03*
X-018354Y004064D03*
Y004379D03*
X-005531Y075354D03*
Y075669D03*
X-004783Y075354D03*
Y075669D03*
G54D16*
X-097984Y003680D03*
Y004763D03*
X-097236Y003680D03*
Y004763D03*
X-084008Y074970D03*
Y076053D03*
X-083260Y074970D03*
Y076053D03*
X-058406Y003680D03*
Y004763D03*
X-057657Y003680D03*
Y004763D03*
X-044823Y074970D03*
Y076053D03*
X-044075Y074970D03*
Y076053D03*
X-019102Y003680D03*
Y004763D03*
X-018354Y003680D03*
Y004763D03*
X-005531Y074970D03*
Y076053D03*
X-004783Y074970D03*
Y076053D03*
G54D17*
X-095720Y004471D03*
X-095346Y005416D03*
X-094972Y004471D03*
X-093598Y017674D03*
Y027131D03*
Y058106D03*
X-093579Y007391D03*
X-093500Y068500D03*
X-093224Y016729D03*
Y028076D03*
Y059051D03*
X-093205Y006446D03*
X-093126Y069445D03*
X-092850Y017674D03*
Y027131D03*
Y058106D03*
X-092831Y007391D03*
X-092752Y068500D03*
X-088493Y011233D03*
X-088414Y072342D03*
X-088394Y021627D03*
Y052602D03*
Y062059D03*
X-088119Y010288D03*
X-088040Y073287D03*
X-088020Y020682D03*
Y051657D03*
Y063004D03*
X-087745Y011233D03*
X-087666Y072342D03*
X-087646Y021627D03*
Y052602D03*
Y062059D03*
X-086272Y075262D03*
X-085898Y074317D03*
X-085524Y075262D03*
X-056142Y004471D03*
X-055768Y005416D03*
X-055394Y004471D03*
X-054020Y017674D03*
Y027131D03*
Y058106D03*
X-054000Y007391D03*
X-053921Y068500D03*
X-053646Y016729D03*
Y028076D03*
Y059051D03*
X-053626Y006446D03*
X-053547Y069445D03*
X-053272Y017674D03*
Y027131D03*
Y058106D03*
X-053252Y007391D03*
X-053173Y068500D03*
X-049307Y011233D03*
X-049229Y072342D03*
X-049209Y021627D03*
Y052602D03*
Y062059D03*
X-048933Y010288D03*
X-048855Y073287D03*
X-048835Y020682D03*
Y051657D03*
Y063004D03*
X-048559Y011233D03*
X-048481Y072342D03*
X-048461Y021627D03*
Y052602D03*
Y062059D03*
X-047087Y075262D03*
X-046713Y074317D03*
X-046339Y075262D03*
X-016838Y004471D03*
X-016464Y005416D03*
X-016090Y004471D03*
X-014716Y017674D03*
Y027131D03*
Y058106D03*
X-014696Y007391D03*
X-014618Y068500D03*
X-014342Y016729D03*
Y028076D03*
Y059051D03*
X-014322Y006446D03*
X-014244Y069445D03*
X-013968Y017674D03*
Y027131D03*
Y058106D03*
X-013948Y007391D03*
X-013870Y068500D03*
X-010016Y011233D03*
X-009937Y072342D03*
X-009917Y021627D03*
Y052602D03*
Y062059D03*
X-009642Y010288D03*
X-009563Y073287D03*
X-009543Y020682D03*
Y051657D03*
Y063004D03*
X-009268Y011233D03*
X-009189Y072342D03*
X-009169Y021627D03*
Y052602D03*
Y062059D03*
X-007795Y075262D03*
X-007421Y074317D03*
X-007047Y075262D03*
G54D18*
X-099842Y003910D03*
Y005013D03*
X-081402Y074720D03*
Y075823D03*
X-060264Y003910D03*
Y005013D03*
X-042217Y074720D03*
Y075823D03*
X-020960Y003910D03*
Y005013D03*
X-002925Y074720D03*
Y075823D03*
G54D19*
X-098236Y058209D03*
Y059209D03*
X-097945Y050178D03*
Y051178D03*
X-097862Y058209D03*
Y059209D03*
X-097854Y006001D03*
Y007001D03*
X-097571Y050178D03*
Y051178D03*
X-097488Y058209D03*
Y059209D03*
X-097480Y006001D03*
Y007001D03*
X-097197Y050178D03*
Y051178D03*
X-097106Y006001D03*
Y007001D03*
X-084138Y072732D03*
Y073732D03*
X-084048Y028555D03*
Y029555D03*
X-083764Y072732D03*
Y073732D03*
X-083756Y020524D03*
Y021524D03*
X-083674Y028555D03*
Y029555D03*
X-083390Y072732D03*
Y073732D03*
X-083382Y020524D03*
Y021524D03*
X-083300Y028555D03*
Y029555D03*
X-083008Y020524D03*
Y021524D03*
X-058657Y058209D03*
Y059209D03*
X-058366Y050178D03*
Y051178D03*
X-058283Y058209D03*
Y059209D03*
X-058276Y006001D03*
Y007001D03*
X-057992Y050178D03*
Y051178D03*
X-057909Y058209D03*
Y059209D03*
X-057902Y006001D03*
Y007001D03*
X-057618Y050178D03*
Y051178D03*
X-057528Y006001D03*
Y007001D03*
X-044953Y072732D03*
Y073732D03*
X-044862Y028555D03*
Y029555D03*
X-044579Y072732D03*
Y073732D03*
X-044571Y020524D03*
Y021524D03*
X-044488Y028555D03*
Y029555D03*
X-044205Y072732D03*
Y073732D03*
X-044197Y020524D03*
Y021524D03*
X-044114Y028555D03*
Y029555D03*
X-043823Y020524D03*
Y021524D03*
X-019354Y058209D03*
Y059209D03*
X-019063Y050178D03*
Y051178D03*
X-018980Y058209D03*
Y059209D03*
X-018972Y006001D03*
Y007001D03*
X-018689Y050178D03*
Y051178D03*
X-018606Y058209D03*
Y059209D03*
X-018598Y006001D03*
Y007001D03*
X-018315Y050178D03*
Y051178D03*
X-018224Y006001D03*
Y007001D03*
X-005661Y072732D03*
Y073732D03*
X-005571Y028555D03*
Y029555D03*
X-005287Y072732D03*
Y073732D03*
X-005280Y020524D03*
Y021524D03*
X-005197Y028555D03*
Y029555D03*
X-004913Y072732D03*
Y073732D03*
X-004906Y020524D03*
Y021524D03*
X-004823Y028555D03*
Y029555D03*
X-004531Y020524D03*
Y021524D03*
G54D20*
X-110758Y016763D03*
Y017963D03*
X-071179Y016763D03*
Y017963D03*
X-070487Y061770D03*
Y062970D03*
X-031876Y016763D03*
Y017963D03*
X-031301Y061770D03*
Y062970D03*
X007990Y061770D03*
Y062970D03*
G54D21*
X-092197Y010508D03*
Y011138D03*
Y020823D03*
Y021453D03*
Y062075D03*
Y062705D03*
X-089047Y017028D03*
Y017658D03*
Y058280D03*
Y058910D03*
Y068595D03*
Y069225D03*
X-053012Y010508D03*
Y011138D03*
Y020823D03*
Y021453D03*
Y062075D03*
Y062705D03*
X-049469Y017028D03*
Y017658D03*
Y058280D03*
Y058910D03*
Y068595D03*
Y069225D03*
X-013720Y010508D03*
Y011138D03*
Y020823D03*
Y021453D03*
Y062075D03*
Y062705D03*
X-010165Y017028D03*
Y017658D03*
Y058280D03*
Y058910D03*
Y068595D03*
Y069225D03*
G54D22*
X-102197Y032430D03*
Y035855D03*
X-102000Y032430D03*
Y035855D03*
X-101803Y032430D03*
Y035855D03*
X-101606Y032430D03*
Y035855D03*
X-101409Y032430D03*
Y035855D03*
X-101213Y032430D03*
Y035855D03*
X-101016Y032430D03*
Y035855D03*
X-100819Y032430D03*
Y035855D03*
X-100622Y032430D03*
Y035855D03*
X-100425Y032430D03*
Y035855D03*
X-100228Y032430D03*
Y035855D03*
X-100031Y032430D03*
Y035855D03*
X-081213Y043878D03*
Y047303D03*
X-081016Y043878D03*
Y047303D03*
X-080819Y043878D03*
Y047303D03*
X-080623Y043878D03*
Y047303D03*
X-080426Y043878D03*
Y047303D03*
X-080229Y043878D03*
Y047303D03*
X-080032Y043878D03*
Y047303D03*
X-079835Y043878D03*
Y047303D03*
X-079638Y043878D03*
Y047303D03*
X-079442Y043878D03*
Y047303D03*
X-079245Y043878D03*
Y047303D03*
X-079048Y043878D03*
Y047303D03*
X-062618Y032430D03*
Y035855D03*
X-062421Y032430D03*
Y035855D03*
X-062224Y032430D03*
Y035855D03*
X-062028Y032430D03*
Y035855D03*
X-061831Y032430D03*
Y035855D03*
X-061634Y032430D03*
Y035855D03*
X-061437Y032430D03*
Y035855D03*
X-061240Y032430D03*
Y035855D03*
X-061043Y032430D03*
Y035855D03*
X-060846Y032430D03*
Y035855D03*
X-060650Y032430D03*
Y035855D03*
X-060453Y032430D03*
Y035855D03*
X-042028Y043878D03*
Y047303D03*
X-041831Y043878D03*
Y047303D03*
X-041634Y043878D03*
Y047303D03*
X-041437Y043878D03*
Y047303D03*
X-041240Y043878D03*
Y047303D03*
X-041044Y043878D03*
Y047303D03*
X-040847Y043878D03*
Y047303D03*
X-040650Y043878D03*
Y047303D03*
X-040453Y043878D03*
Y047303D03*
X-040256Y043878D03*
Y047303D03*
X-040059Y043878D03*
Y047303D03*
X-039862Y043878D03*
Y047303D03*
X-023315Y032430D03*
Y035855D03*
X-023118Y032430D03*
Y035855D03*
X-022921Y032430D03*
Y035855D03*
X-022724Y032430D03*
Y035855D03*
X-022527Y032430D03*
Y035855D03*
X-022330Y032430D03*
Y035855D03*
X-022133Y032430D03*
Y035855D03*
X-021937Y032430D03*
Y035855D03*
X-021740Y032430D03*
Y035855D03*
X-021543Y032430D03*
Y035855D03*
X-021346Y032430D03*
Y035855D03*
X-021149Y032430D03*
Y035855D03*
X-002736Y043878D03*
Y047303D03*
X-002539Y043878D03*
Y047303D03*
X-002343Y043878D03*
Y047303D03*
X-002146Y043878D03*
Y047303D03*
X-001949Y043878D03*
Y047303D03*
X-001752Y043878D03*
Y047303D03*
X-001555Y043878D03*
Y047303D03*
X-001358Y043878D03*
Y047303D03*
X-001161Y043878D03*
Y047303D03*
X-000965Y043878D03*
Y047303D03*
X-000768Y043878D03*
Y047303D03*
X-000571Y043878D03*
Y047303D03*
G54D23*
X-102827Y033060D03*
Y033257D03*
Y033453D03*
Y033650D03*
Y033847D03*
Y034044D03*
Y034241D03*
Y034438D03*
Y034635D03*
Y034831D03*
Y035028D03*
Y035225D03*
X-099402Y033060D03*
Y033257D03*
Y033453D03*
Y033650D03*
Y033847D03*
Y034044D03*
Y034241D03*
Y034438D03*
Y034635D03*
Y034831D03*
Y035028D03*
Y035225D03*
X-081843Y044508D03*
Y044705D03*
Y044902D03*
Y045098D03*
Y045295D03*
Y045492D03*
Y045689D03*
Y045886D03*
Y046083D03*
Y046280D03*
Y046476D03*
Y046673D03*
X-078418Y044508D03*
Y044705D03*
Y044902D03*
Y045098D03*
Y045295D03*
Y045492D03*
Y045689D03*
Y045886D03*
Y046083D03*
Y046280D03*
Y046476D03*
Y046673D03*
X-063248Y033060D03*
Y033257D03*
Y033453D03*
Y033650D03*
Y033847D03*
Y034044D03*
Y034241D03*
Y034438D03*
Y034635D03*
Y034831D03*
Y035028D03*
Y035225D03*
X-059823Y033060D03*
Y033257D03*
Y033453D03*
Y033650D03*
Y033847D03*
Y034044D03*
Y034241D03*
Y034438D03*
Y034635D03*
Y034831D03*
Y035028D03*
Y035225D03*
X-042658Y044508D03*
Y044705D03*
Y044902D03*
Y045098D03*
Y045295D03*
Y045492D03*
Y045689D03*
Y045886D03*
Y046083D03*
Y046280D03*
Y046476D03*
Y046673D03*
X-039233Y044508D03*
Y044705D03*
Y044902D03*
Y045098D03*
Y045295D03*
Y045492D03*
Y045689D03*
Y045886D03*
Y046083D03*
Y046280D03*
Y046476D03*
Y046673D03*
X-023944Y033060D03*
Y033257D03*
Y033453D03*
Y033650D03*
Y033847D03*
Y034044D03*
Y034241D03*
Y034438D03*
Y034635D03*
Y034831D03*
Y035028D03*
Y035225D03*
X-020519Y033060D03*
Y033257D03*
Y033453D03*
Y033650D03*
Y033847D03*
Y034044D03*
Y034241D03*
Y034438D03*
Y034635D03*
Y034831D03*
Y035028D03*
Y035225D03*
X-003366Y044508D03*
Y044705D03*
Y044902D03*
Y045098D03*
Y045295D03*
Y045492D03*
Y045689D03*
Y045886D03*
Y046083D03*
Y046280D03*
Y046476D03*
Y046673D03*
X000059Y044508D03*
Y044705D03*
Y044902D03*
Y045098D03*
Y045295D03*
Y045492D03*
Y045689D03*
Y045886D03*
Y046083D03*
Y046280D03*
Y046476D03*
Y046673D03*
G54D24*
X-101492Y029944D03*
X-099996D03*
X-081249Y049789D03*
X-079753D03*
X-061913Y029944D03*
X-060417D03*
X-042063Y049789D03*
X-040567D03*
X-022610Y029944D03*
X-021114D03*
X-002772Y049789D03*
X-001276D03*
G54D25*
X-106441Y011036D03*
X-104945D03*
X-076300Y068697D03*
X-074804D03*
X-066862Y011036D03*
X-065366D03*
X-037114Y068697D03*
X-035618D03*
X-027559Y011036D03*
X-026063D03*
X002177Y068697D03*
X003673D03*
G54D26*
X-106081Y008115D03*
X-104014D03*
X-077231Y071618D03*
X-075164D03*
X-066502Y008115D03*
X-064435D03*
X-038046Y071618D03*
X-035979D03*
X-027198Y008115D03*
X-025131D03*
X001246Y071618D03*
X003313D03*
G54D27*
X-106514Y012568D03*
X-104801D03*
X-076443Y067165D03*
X-074731D03*
X-066935Y012568D03*
X-065222D03*
X-037258Y067165D03*
X-035546D03*
X-027631Y012568D03*
X-025919D03*
X002033Y067165D03*
X003746D03*
G54D28*
X-105319Y009969D03*
X-104610D03*
X-076634Y069764D03*
X-075926D03*
X-065740Y009969D03*
X-065031D03*
X-037449Y069764D03*
X-036740D03*
X-026437Y009969D03*
X-025728D03*
X001843Y069764D03*
X002551D03*
G54D29*
X-105866Y020306D03*
Y021055D03*
X-104921Y020681D03*
X-102413Y006465D03*
X-101468Y006091D03*
Y006839D03*
X-079776Y072894D03*
Y073642D03*
X-078831Y073268D03*
X-076323Y059052D03*
X-075379Y058678D03*
Y059427D03*
X-066287Y020306D03*
Y021055D03*
X-065343Y020681D03*
X-062835Y006465D03*
X-061890Y006091D03*
Y006839D03*
X-040591Y072894D03*
Y073642D03*
X-039646Y073268D03*
X-037138Y059052D03*
X-036193Y058678D03*
Y059427D03*
X-026984Y020306D03*
Y021055D03*
X-026039Y020681D03*
X-023531Y006465D03*
X-022586Y006091D03*
Y006839D03*
X-001299Y072894D03*
Y073642D03*
X-000354Y073268D03*
X002154Y059052D03*
X003098Y058678D03*
Y059427D03*
G54D30*
X-103209Y026477D03*
Y027225D03*
X-102894Y026477D03*
Y027225D03*
X-078351Y052508D03*
Y053256D03*
X-078036Y052508D03*
Y053256D03*
X-063630Y026477D03*
Y027225D03*
X-063315Y026477D03*
Y027225D03*
X-039166Y052508D03*
Y053256D03*
X-038851Y052508D03*
Y053256D03*
X-024326Y026477D03*
Y027225D03*
X-024011Y026477D03*
Y027225D03*
X000126Y052508D03*
Y053256D03*
X000441Y052508D03*
Y053256D03*
G54D31*
X-103592Y026477D03*
Y027225D03*
X-102510Y026477D03*
Y027225D03*
X-078735Y052508D03*
Y053256D03*
X-077652Y052508D03*
Y053256D03*
X-064014Y026477D03*
Y027225D03*
X-062931Y026477D03*
Y027225D03*
X-039549Y052508D03*
Y053256D03*
X-038467Y052508D03*
Y053256D03*
X-024710Y026477D03*
Y027225D03*
X-023628Y026477D03*
Y027225D03*
X-000258Y052508D03*
Y053256D03*
X000825Y052508D03*
Y053256D03*
G54D70*
X-105492Y013839D03*
X-104941D03*
X-104890Y036116D03*
X-104807Y033666D03*
X-104636Y032953D03*
X-104339Y036116D03*
X-104256Y033666D03*
X-104085Y032953D03*
X-104075Y019140D03*
Y019747D03*
X-103524Y019140D03*
Y019747D03*
X-103327Y030607D03*
Y031180D03*
X-102776Y030607D03*
Y031180D03*
X-101646Y031375D03*
X-101095D03*
X-100457Y058280D03*
X-100309Y031375D03*
X-099905Y058280D03*
X-099758Y031375D03*
X-099587Y024898D03*
X-099035D03*
X-098166Y060213D03*
X-098079Y008261D03*
X-097728Y052135D03*
X-097615Y060213D03*
X-097528Y008261D03*
X-097177Y052135D03*
X-084068Y027598D03*
X-083717Y071472D03*
X-083630Y019520D03*
X-083516Y027598D03*
X-083166Y071472D03*
X-083079Y019520D03*
X-082209Y054835D03*
X-081658D03*
X-081487Y048358D03*
X-081339Y021453D03*
X-080935Y048358D03*
X-080788Y021453D03*
X-080150Y048358D03*
X-079599D03*
X-078469Y048553D03*
Y049126D03*
X-077918Y048553D03*
Y049126D03*
X-077721Y059986D03*
Y060593D03*
X-077170Y059986D03*
Y060593D03*
X-077160Y046780D03*
X-076989Y046067D03*
X-076905Y043617D03*
X-076609Y046780D03*
X-076438Y046067D03*
X-076354Y043617D03*
X-076304Y065894D03*
X-075753D03*
X-065913Y013839D03*
X-065362D03*
X-065312Y036116D03*
X-065228Y033666D03*
X-065057Y032953D03*
X-064760Y036116D03*
X-064677Y033666D03*
X-064506Y032953D03*
X-064496Y019140D03*
Y019747D03*
X-063945Y019140D03*
Y019747D03*
X-063748Y030607D03*
Y031180D03*
X-063197Y030607D03*
Y031180D03*
X-062067Y031375D03*
X-061516D03*
X-060878Y058280D03*
X-060731Y031375D03*
X-060327Y058280D03*
X-060179Y031375D03*
X-060008Y024898D03*
X-059457D03*
X-058587Y060213D03*
X-058500Y008261D03*
X-058150Y052135D03*
X-058036Y060213D03*
X-057949Y008261D03*
X-057598Y052135D03*
X-044882Y027598D03*
X-044532Y071472D03*
X-044444Y019520D03*
X-044331Y027598D03*
X-043981Y071472D03*
X-043893Y019520D03*
X-043024Y054835D03*
X-042473D03*
X-042301Y048358D03*
X-042154Y021453D03*
X-041750Y048358D03*
X-041603Y021453D03*
X-040965Y048358D03*
X-040413D03*
X-039284Y048553D03*
Y049126D03*
X-038733Y048553D03*
Y049126D03*
X-038536Y059986D03*
Y060593D03*
X-037985Y059986D03*
Y060593D03*
X-037975Y046780D03*
X-037804Y046067D03*
X-037720Y043617D03*
X-037423Y046780D03*
X-037252Y046067D03*
X-037169Y043617D03*
X-037118Y065894D03*
X-036567D03*
X-026610Y013839D03*
X-026059D03*
X-026008Y036116D03*
X-025925Y033666D03*
X-025754Y032953D03*
X-025457Y036116D03*
X-025373Y033666D03*
X-025202Y032953D03*
X-025193Y019140D03*
Y019747D03*
X-024641Y019140D03*
Y019747D03*
X-024444Y030607D03*
Y031180D03*
X-023893Y030607D03*
Y031180D03*
X-022764Y031375D03*
X-022212D03*
X-021574Y058280D03*
X-021427Y031375D03*
X-021023Y058280D03*
X-020876Y031375D03*
X-020704Y024898D03*
X-020153D03*
X-019284Y060213D03*
X-019196Y008261D03*
X-018846Y052135D03*
X-018733Y060213D03*
X-018645Y008261D03*
X-018295Y052135D03*
X-005591Y027598D03*
X-005240Y071472D03*
X-005153Y019520D03*
X-005039Y027598D03*
X-004689Y071472D03*
X-004602Y019520D03*
X-003732Y054835D03*
X-003181D03*
X-003010Y048358D03*
X-002862Y021453D03*
X-002458Y048358D03*
X-002311Y021453D03*
X-001673Y048358D03*
X-001122D03*
X000008Y048553D03*
Y049126D03*
X000559Y048553D03*
Y049126D03*
X000756Y059986D03*
Y060593D03*
X001307Y059986D03*
Y060593D03*
X001317Y046780D03*
X001488Y046067D03*
X001572Y043617D03*
X001868Y046780D03*
X002039Y046067D03*
X002123Y043617D03*
X002173Y065894D03*
X002724D03*
G54D71*
X-096169Y062438D03*
Y063619D03*
Y064272D03*
Y065453D03*
X-096120Y012827D03*
Y014008D03*
X-096104Y011020D03*
Y012201D03*
X-095252Y062438D03*
Y063619D03*
Y064272D03*
Y065453D03*
X-095195Y010721D03*
Y011902D03*
X-095186Y012552D03*
Y013733D03*
X-086058Y066000D03*
Y067181D03*
X-086050Y067831D03*
Y069012D03*
X-085993Y014280D03*
Y015461D03*
Y016114D03*
Y017295D03*
X-085141Y067532D03*
Y068713D03*
X-085125Y065725D03*
Y066906D03*
X-085075Y014280D03*
Y015461D03*
Y016114D03*
Y017295D03*
X-056591Y062438D03*
Y063619D03*
Y064272D03*
Y065453D03*
X-056541Y012827D03*
Y014008D03*
X-056525Y011020D03*
Y012201D03*
X-055673Y062438D03*
Y063619D03*
Y064272D03*
Y065453D03*
X-055616Y010721D03*
Y011902D03*
X-055608Y012552D03*
Y013733D03*
X-046873Y066000D03*
Y067181D03*
X-046864Y067831D03*
Y069012D03*
X-046807Y014280D03*
Y015461D03*
Y016114D03*
Y017295D03*
X-045956Y067532D03*
Y068713D03*
X-045939Y065725D03*
Y066906D03*
X-045890Y014280D03*
Y015461D03*
Y016114D03*
Y017295D03*
X-017287Y062438D03*
Y063619D03*
Y064272D03*
Y065453D03*
X-017238Y012827D03*
Y014008D03*
X-017222Y011020D03*
Y012201D03*
X-016370Y062438D03*
Y063619D03*
Y064272D03*
Y065453D03*
X-016313Y010721D03*
Y011902D03*
X-016304Y012552D03*
Y013733D03*
X-007581Y066000D03*
Y067181D03*
X-007573Y067831D03*
Y069012D03*
X-007516Y014280D03*
Y015461D03*
Y016114D03*
Y017295D03*
X-006664Y067532D03*
Y068713D03*
X-006648Y065725D03*
Y066906D03*
X-006598Y014280D03*
Y015461D03*
Y016114D03*
Y017295D03*
G54D72*
X-106798Y015363D03*
Y016363D03*
Y017363D03*
Y018363D03*
Y019363D03*
X-105798Y015363D03*
Y016363D03*
Y017363D03*
Y018363D03*
Y019363D03*
X-075447Y060370D03*
Y061370D03*
Y062370D03*
Y063370D03*
Y064370D03*
X-074447Y060370D03*
Y061370D03*
Y062370D03*
Y063370D03*
Y064370D03*
X-067219Y015363D03*
Y016363D03*
Y017363D03*
Y018363D03*
Y019363D03*
X-066219Y015363D03*
Y016363D03*
Y017363D03*
Y018363D03*
Y019363D03*
X-036262Y060370D03*
Y061370D03*
Y062370D03*
Y063370D03*
Y064370D03*
X-035262Y060370D03*
Y061370D03*
Y062370D03*
Y063370D03*
Y064370D03*
X-027915Y015363D03*
Y016363D03*
Y017363D03*
Y018363D03*
Y019363D03*
X-026915Y015363D03*
Y016363D03*
Y017363D03*
Y018363D03*
Y019363D03*
X003030Y060370D03*
Y061370D03*
Y062370D03*
Y063370D03*
Y064370D03*
X004030Y060370D03*
Y061370D03*
Y062370D03*
Y063370D03*
Y064370D03*
G54D73*
X-100583Y021406D03*
Y023690D03*
X-100083Y021406D03*
Y023690D03*
X-099583Y021406D03*
Y023690D03*
X-099083Y021406D03*
Y023690D03*
X-098583Y021406D03*
Y023690D03*
X-098083Y021406D03*
Y023690D03*
X-097583Y021406D03*
Y023690D03*
X-083662Y056043D03*
Y058327D03*
X-083162Y056043D03*
Y058327D03*
X-082662Y056043D03*
Y058327D03*
X-082162Y056043D03*
Y058327D03*
X-081662Y056043D03*
Y058327D03*
X-081162Y056043D03*
Y058327D03*
X-080662Y056043D03*
Y058327D03*
X-061004Y021406D03*
Y023690D03*
X-060504Y021406D03*
Y023690D03*
X-060004Y021406D03*
Y023690D03*
X-059504Y021406D03*
Y023690D03*
X-059004Y021406D03*
Y023690D03*
X-058504Y021406D03*
Y023690D03*
X-058004Y021406D03*
Y023690D03*
X-044477Y056043D03*
Y058327D03*
X-043977Y056043D03*
Y058327D03*
X-043477Y056043D03*
Y058327D03*
X-042977Y056043D03*
Y058327D03*
X-042477Y056043D03*
Y058327D03*
X-041977Y056043D03*
Y058327D03*
X-041477Y056043D03*
Y058327D03*
X-021700Y021406D03*
Y023690D03*
X-021200Y021406D03*
Y023690D03*
X-020700Y021406D03*
Y023690D03*
X-020200Y021406D03*
Y023690D03*
X-019700Y021406D03*
Y023690D03*
X-019200Y021406D03*
Y023690D03*
X-018700Y021406D03*
Y023690D03*
X-005185Y056043D03*
Y058327D03*
X-004685Y056043D03*
Y058327D03*
X-004185Y056043D03*
Y058327D03*
X-003685Y056043D03*
Y058327D03*
X-003185Y056043D03*
Y058327D03*
X-002685Y056043D03*
Y058327D03*
X-002185Y056043D03*
Y058327D03*
M02*
