*
G04 Job   : N:\Projects\COMUN\PSA\P07520_P2_Faceplate\C4_Capacitive_short\12005659-03\panel_12005656\12005656.pnl*
G04 User  : ESSECAE006:bolet001*
G04 Layer : 12005656-02-g12.gbr*
G04 Date  : Mon Mar 23 11:52:01 2020*
G04 equiv. Boardstation g12*
G04 Expedition Layer: Solder Paste - Bottom*
%ICAS*%
%MOIN*%
%FSDAX24Y24*%
%OFA0.0000B0.0000*%
G90*
G74*
%AMVB_RECTANGLE*
21,1,$1,$2,0,0,$3*
%
%ADD11C,0.00591*%
%ADD10C,0.03937*%
%ADD28VB_RECTANGLE,0.01969X0.01575X180.00000*%
%ADD22VB_RECTANGLE,0.02362X0.03150X180.00000*%
%ADD19VB_RECTANGLE,0.02362X0.06102X270.00000*%
%ADD15VB_RECTANGLE,0.02756X0.01969X180.00000*%
%ADD14VB_RECTANGLE,0.02756X0.01969X270.00000*%
%ADD25VB_RECTANGLE,0.03150X0.01575X90.00000*%
%ADD12VB_RECTANGLE,0.03150X0.03937X180.00000*%
%ADD18VB_RECTANGLE,0.03937X0.02756X180.00000*%
%ADD16VB_RECTANGLE,0.03937X0.02756X270.00000*%
%ADD21VB_RECTANGLE,0.04724X0.03150X0.00000*%
%ADD17VB_RECTANGLE,0.04724X0.03150X90.00000*%
%ADD20VB_RECTANGLE,0.05118X0.03150X0.00000*%
%ADD13VB_RECTANGLE,0.05906X0.03150X180.00000*%
%ADD27VB_RECTANGLE,0.05906X0.03150X90.00000*%
%ADD23VB_RECTANGLE,0.06299X0.02362X90.00000*%
%ADD70VB_RECTANGLE,0.07087X0.04724X180.00000*%
%ADD24VB_RECTANGLE,0.07087X0.06693X270.00000*%
%ADD29VB_RECTANGLE,0.07480X0.02362X0.00000*%
%ADD26VB_RECTANGLE,0.09843X0.05118X0.00000*%
%ADD71VB_RECTANGLE,0.10630X0.06299X90.00000*%
%ADD72VB_RECTANGLE,0.11024X0.08661X0.00000*%
G01*
G36*
X-110218Y079424D02*
G03X-110179Y079422I000039J000283D01*
X-109893Y079707J000285*
X-109896Y079746I000286*
G01X-110139*
Y079990*
G03X-110179Y079992I000040J000283*
X-110464Y079707J000285*
X-110462Y079668I000285*
G01X-110218*
Y079424*
Y079990D02*
Y079746D01*
X-110462*
G03X-110464Y079707I000283J000039*
X-110179Y079422I000285*
X-110139Y079424J000285*
G01Y079668*
X-109896*
G03X-109893Y079707I000283J000039*
X-110179Y079992I000286*
X-110218Y079990J000285*
G01X-110211Y-000339D02*
G03X-110172Y-000341I000039J000283D01*
X-109886Y-000056J000285*
X-109889Y-000017I000286*
G01X-110132*
Y000227*
G03X-110172Y000229I000040J000283*
X-110457Y-000056J000285*
X-110454Y-000095I000285*
G01X-110211*
Y-000339*
Y000227D02*
Y-000017D01*
X-110454*
G03X-110457Y-000056I000282J000039*
X-110172Y-000341I000285*
X-110132Y-000339J000285*
G01Y-000095*
X-109889*
G03X-109886Y-000056I000283J000039*
X-110172Y000229I000286*
X-110211Y000227J000285*
G01X-101269Y079626D02*
X-100993D01*
Y080177*
X-101269*
Y079626*
X-100442D02*
X-100167D01*
Y080177*
X-100442*
Y079626*
X-099773D02*
X-099497D01*
Y080177*
X-099773*
Y079626*
X-099182D02*
X-098907D01*
Y080177*
X-099182*
Y079626*
X-098671D02*
X-098395D01*
Y080177*
X-098671*
Y079626*
X-098198D02*
X-097923D01*
Y080177*
X-098198*
Y079626*
X-091435Y-000324D02*
X-091160D01*
Y000228*
X-091435*
Y-000324*
X-090963D02*
X-090687D01*
Y000228*
X-090963*
Y-000324*
X-090451D02*
X-090175D01*
Y000228*
X-090451*
Y-000324*
X-089861D02*
X-089585D01*
Y000228*
X-089861*
Y-000324*
X-089191D02*
X-088916D01*
Y000228*
X-089191*
Y-000324*
X-088364D02*
X-088089D01*
Y000228*
X-088364*
Y-000324*
X007331Y079353D02*
G03X007370Y079350I000039J000282D01*
X007656Y079635J000285*
X007653Y079675I000286*
G01X007410*
Y079918*
G03X007370Y079921I000040J000283*
X007085Y079635J000286*
X007088Y079596I000285*
G01X007331*
Y079353*
Y079918D02*
Y079675D01*
X007088*
G03X007085Y079635I000282J000040*
X007370Y079350I000285*
X007410Y079353J000285*
G01Y079596*
X007653*
G03X007656Y079635I000283J000039*
X007370Y079921I000286*
X007331Y079918J000286*
G37*
G54D10*
G01X009563Y-001602D02*
X008151Y-001987D01*
G02X007995Y-002008I000156J000570*
G01X-110504*
G02X-110658Y-001987J000591*
G01X-112161Y-001602*
G02X-112598Y-001032I000154J000570*
G01Y-001031*
X-112638Y080764*
G02X-112197Y081335I000591J000001*
G01X-110697Y081713*
G02X-110546Y081732I000151J000571*
X-110543J000590*
G01X007953*
G02X008102Y081713I000002J000590*
G01X009563Y081339*
G02X010000Y080768I000154J000571*
G01Y-001031*
Y-001032*
G02X009563Y-001602I000591*
G54D11*
G01X-065924Y080891D02*
Y080100D01*
X-065986Y079966*
X-066101Y079921*
X-066206*
X-065767Y080563D02*
X-066153D01*
X-065245D02*
X-065172Y080518D01*
X-065110Y080428*
X-065078Y080294*
Y080190*
X-065110Y080055*
X-065172Y079966*
X-065245Y079921*
X-065350*
X-065412Y079966*
X-065485Y080055*
X-065517Y080190*
Y080294*
X-065485Y080428*
X-065412Y080518*
X-065350Y080563*
X-065245*
X-064389Y080428D02*
X-064671D01*
X-064765Y080384*
X-064796Y080339*
X-064828Y080249*
Y080100*
X-064796Y080011*
X-064765Y079966*
X-064671Y079921*
X-064389*
Y080905*
X-064671*
X-064765Y080846*
X-064796Y080801*
X-064828Y080712*
Y080622*
X-064796Y080533*
X-064765Y080473*
X-064671Y080428*
X-063408Y080563D02*
X-063011Y080100D01*
X-063168Y080294D02*
X-063450Y079921D01*
X-063011Y080891D02*
Y079921D01*
X-062761Y080428D02*
X-062719Y080518D01*
X-062604Y080563*
X-062479*
X-062354Y080518*
X-062322Y080428*
X-062354Y080339*
X-062437Y080294*
X-062636Y080249*
X-062719Y080190*
X-062761Y080100*
Y080055*
X-062719Y079966*
X-062604Y079921*
X-062479*
X-062354Y079966*
X-062322Y080055*
X-062072Y080428D02*
X-061999Y080518D01*
X-061926Y080563*
X-061811*
X-061738Y080518*
X-061665Y080428*
X-061633Y080294*
Y080190*
X-061665Y080055*
X-061738Y079966*
X-061811Y079921*
X-061926*
X-061999Y079966*
X-062072Y080055*
Y080563D02*
Y079921D01*
X-060944D02*
Y080905D01*
X-061164Y079921*
X-061383Y080905*
Y079921*
X-059567Y080294D02*
X-060005D01*
Y080384*
X-059974Y080473*
X-059932Y080518*
X-059859Y080563*
X-059744*
X-059671Y080518*
X-059598Y080428*
X-059567Y080294*
Y080190*
X-059598Y080055*
X-059671Y079966*
X-059744Y079921*
X-059859*
X-059932Y079966*
X-060005Y080055*
X-059034Y080891D02*
Y080100D01*
X-059097Y079966*
X-059212Y079921*
X-059316*
X-058878Y080563D02*
X-059264D01*
X-058627Y080428D02*
X-058585Y080518D01*
X-058470Y080563*
X-058345*
X-058220Y080518*
X-058189Y080428*
X-058220Y080339*
X-058303Y080294*
X-058502Y080249*
X-058585Y080190*
X-058627Y080100*
Y080055*
X-058585Y079966*
X-058470Y079921*
X-058345*
X-058220Y079966*
X-058189Y080055*
X-057938Y080428D02*
X-057865Y080518D01*
X-057792Y080563*
X-057677*
X-057604Y080518*
X-057531Y080428*
X-057500Y080294*
Y080190*
X-057531Y080055*
X-057604Y079966*
X-057677Y079921*
X-057792*
X-057865Y079966*
X-057938Y080055*
Y080563D02*
Y079921D01*
X-056811D02*
Y080905D01*
X-057093*
X-057186Y080846*
X-057218Y080801*
X-057249Y080712*
Y080577*
X-057218Y080473*
X-057186Y080428*
X-057093Y080384*
X-056811*
X-034502Y080667D02*
Y080712D01*
X-034533Y080801*
X-034564Y080846*
X-034627Y080905*
X-034752*
X-034815Y080846*
X-034846Y080801*
X-034878Y080712*
Y080622*
X-034846Y080533*
X-034784Y080384*
X-034471Y079921*
X-034909*
X-033969Y080891D02*
X-033876Y080846D01*
X-033813Y080712*
X-033782Y080473*
Y080339*
X-033813Y080100*
X-033876Y079966*
X-033969Y079921*
X-034032*
X-034126Y079966*
X-034189Y080100*
X-034220Y080339*
Y080473*
X-034189Y080712*
X-034126Y080846*
X-034032Y080891*
X-033969*
X-033093Y080339D02*
X-033531D01*
X-032811Y080756D02*
X-032779Y080846D01*
X-032675Y080891*
X-032602*
X-032498Y080846*
X-032435Y080712*
X-032404Y080473*
Y080249*
X-032435Y080055*
X-032498Y079966*
X-032602Y079921*
X-032633*
X-032738Y079966*
X-032811Y080055*
X-032842Y080190*
Y080249*
X-032811Y080384*
X-032738Y080473*
X-032633Y080518*
X-032602*
X-032498Y080473*
X-032435Y080384*
X-032404Y080249*
X-032090Y080891D02*
X-031777D01*
X-031746Y080473*
X-031777Y080518*
X-031871Y080563*
X-031965*
X-032059Y080518*
X-032122Y080428*
X-032153Y080294*
Y080190*
X-032122Y080055*
X-032059Y079966*
X-031965Y079921*
X-031871*
X-031777Y079966*
X-031746Y080011*
X-031715Y080100*
X-031433Y080756D02*
X-031402Y080846D01*
X-031297Y080891*
X-031224*
X-031120Y080846*
X-031057Y080712*
X-031026Y080473*
Y080249*
X-031057Y080055*
X-031120Y079966*
X-031224Y079921*
X-031255*
X-031360Y079966*
X-031433Y080055*
X-031464Y080190*
Y080249*
X-031433Y080384*
X-031360Y080473*
X-031255Y080518*
X-031224*
X-031120Y080473*
X-031057Y080384*
X-031026Y080249*
X-030713Y080891D02*
X-030399D01*
X-030368Y080473*
X-030399Y080518*
X-030493Y080563*
X-030587*
X-030681Y080518*
X-030744Y080428*
X-030775Y080294*
Y080190*
X-030744Y080055*
X-030681Y079966*
X-030587Y079921*
X-030493*
X-030399Y079966*
X-030368Y080011*
X-030337Y080100*
X-029836Y080891D02*
X-029742Y080846D01*
X-029679Y080712*
X-029648Y080473*
Y080339*
X-029679Y080100*
X-029742Y079966*
X-029836Y079921*
X-029898*
X-029992Y079966*
X-030055Y080100*
X-030086Y080339*
Y080473*
X-030055Y080712*
X-029992Y080846*
X-029898Y080891*
X-029836*
X-029147D02*
X-029053Y080846D01*
X-028990Y080712*
X-028959Y080473*
Y080339*
X-028990Y080100*
X-029053Y079966*
X-029147Y079921*
X-029209*
X-029303Y079966*
X-029366Y080100*
X-029397Y080339*
Y080473*
X-029366Y080712*
X-029303Y080846*
X-029209Y080891*
X-029147*
X-028301Y080667D02*
Y080712D01*
X-028333Y080801*
X-028364Y080846*
X-028426Y080905*
X-028552*
X-028614Y080846*
X-028646Y080801*
X-028677Y080712*
Y080622*
X-028646Y080533*
X-028583Y080384*
X-028270Y079921*
X-028708*
X-027748Y080712D02*
X-027790Y080756D01*
X-027842Y080891*
Y079921*
X-026892Y080905D02*
Y079921D01*
X-027330*
X-026203D02*
Y080905D01*
X-026641Y079921*
Y080905*
X-025514Y079921D02*
Y080905D01*
X-025796*
X-025890Y080846*
X-025921Y080801*
X-025952Y080712*
Y080577*
X-025921Y080473*
X-025890Y080428*
X-025796Y080384*
X-025514*
X-024303Y080712D02*
X-024345Y080756D01*
X-024397Y080891*
Y079921*
X-023635Y080891D02*
X-023541Y080846D01*
X-023478Y080712*
X-023447Y080473*
Y080339*
X-023478Y080100*
X-023541Y079966*
X-023635Y079921*
X-023698*
X-023792Y079966*
X-023854Y080100*
X-023886Y080339*
Y080473*
X-023854Y080712*
X-023792Y080846*
X-023698Y080891*
X-023635*
X-022758Y080339D02*
X-023197D01*
X-022508Y080577D02*
X-022476Y080428D01*
X-022414Y080339*
X-022299Y080294*
X-022268*
X-022163Y080339*
X-022101Y080428*
X-022069Y080577*
Y080622*
X-022101Y080756*
X-022163Y080846*
X-022268Y080891*
X-022299*
X-022414Y080846*
X-022476Y080756*
X-022508Y080577*
Y080339*
X-022476Y080100*
X-022414Y079966*
X-022299Y079921*
X-022236*
X-022132Y079966*
X-022101Y080055*
X-021756Y080891D02*
X-021443D01*
X-021412Y080473*
X-021443Y080518*
X-021537Y080563*
X-021631*
X-021725Y080518*
X-021787Y080428*
X-021819Y080294*
Y080190*
X-021787Y080055*
X-021725Y079966*
X-021631Y079921*
X-021537*
X-021443Y079966*
X-021412Y080011*
X-021380Y080100*
X-021098Y080756D02*
X-021067Y080846D01*
X-020963Y080891*
X-020890*
X-020785Y080846*
X-020723Y080712*
X-020691Y080473*
Y080249*
X-020723Y080055*
X-020785Y079966*
X-020890Y079921*
X-020921*
X-021025Y079966*
X-021098Y080055*
X-021130Y080190*
Y080249*
X-021098Y080384*
X-021025Y080473*
X-020921Y080518*
X-020890*
X-020785Y080473*
X-020723Y080384*
X-020691Y080249*
X-020378Y080891D02*
X-020065D01*
X-020034Y080473*
X-020065Y080518*
X-020159Y080563*
X-020253*
X-020347Y080518*
X-020409Y080428*
X-020441Y080294*
Y080190*
X-020409Y080055*
X-020347Y079966*
X-020253Y079921*
X-020159*
X-020065Y079966*
X-020034Y080011*
X-020002Y080100*
X-019501Y080891D02*
X-019407Y080846D01*
X-019345Y080712*
X-019313Y080473*
Y080339*
X-019345Y080100*
X-019407Y079966*
X-019501Y079921*
X-019564*
X-019658Y079966*
X-019720Y080100*
X-019752Y080339*
Y080473*
X-019720Y080712*
X-019658Y080846*
X-019564Y080891*
X-019501*
X-018812D02*
X-018718Y080846D01*
X-018656Y080712*
X-018624Y080473*
Y080339*
X-018656Y080100*
X-018718Y079966*
X-018812Y079921*
X-018875*
X-018969Y079966*
X-019032Y080100*
X-019063Y080339*
Y080473*
X-019032Y080712*
X-018969Y080846*
X-018875Y080891*
X-018812*
X-017967Y080667D02*
Y080712D01*
X-017998Y080801*
X-018029Y080846*
X-018092Y080905*
X-018217*
X-018280Y080846*
X-018311Y080801*
X-018343Y080712*
Y080622*
X-018311Y080533*
X-018249Y080384*
X-017935Y079921*
X-018374*
X-017414Y080712D02*
X-017455Y080756D01*
X-017507Y080891*
Y079921*
X-015869Y080905D02*
X-016088D01*
X-016182Y080846*
X-016244Y080756*
X-016276Y080667*
X-016307Y080533*
Y080294*
X-016276Y080160*
X-016244Y080055*
X-016182Y079966*
X-016088Y079921*
X-015869*
Y080905*
X-015399Y080428D02*
X-015618Y079921D01*
X-015180D02*
Y080905D01*
X-015461*
X-015555Y080846*
X-015587Y080801*
X-015618Y080712*
Y080622*
X-015587Y080533*
X-015555Y080473*
X-015461Y080428*
X-015180*
X-014491D02*
X-014772D01*
X-014866Y080384*
X-014898Y080339*
X-014929Y080249*
Y080100*
X-014898Y080011*
X-014866Y079966*
X-014772Y079921*
X-014491*
Y080905*
X-014772*
X-014866Y080846*
X-014898Y080801*
X-014929Y080712*
Y080622*
X-014898Y080533*
X-014866Y080473*
X-014772Y080428*
G54D12*
X-090938Y020307D03*
Y030630D03*
Y051260D03*
Y061575D03*
Y071890D03*
Y010000D03*
Y021961D03*
Y032283D03*
Y052913D03*
Y063228D03*
Y073543D03*
Y011653D03*
X-090879Y040945D03*
Y042598D03*
X-090366Y037135D03*
Y038788D03*
X-090307Y068080D03*
Y006190D03*
Y016505D03*
Y026820D03*
Y047450D03*
Y057772D03*
Y069733D03*
Y007843D03*
Y018158D03*
Y028473D03*
Y049103D03*
Y059426D03*
X-051752Y020307D03*
Y030630D03*
Y051260D03*
Y061575D03*
Y071890D03*
Y010000D03*
Y021961D03*
Y032283D03*
Y052913D03*
Y063228D03*
Y073543D03*
Y011653D03*
X-051693Y040945D03*
Y042598D03*
X-050787Y037135D03*
Y038788D03*
X-050728Y068080D03*
Y006190D03*
Y016505D03*
Y026820D03*
Y047450D03*
Y057772D03*
Y069733D03*
Y007843D03*
Y018158D03*
Y028473D03*
Y049103D03*
Y059426D03*
X-012461Y020307D03*
Y030630D03*
Y051260D03*
Y061575D03*
Y071890D03*
Y010000D03*
Y021961D03*
Y032283D03*
Y052913D03*
Y063228D03*
Y073543D03*
Y011653D03*
X-012402Y040945D03*
Y042598D03*
X-011484Y037135D03*
Y038788D03*
X-011425Y068080D03*
Y006190D03*
Y016505D03*
Y026820D03*
Y047450D03*
Y057772D03*
Y069733D03*
Y007843D03*
Y018158D03*
Y028473D03*
Y049103D03*
Y059426D03*
G54D13*
X-105169Y011764D03*
Y012946D03*
X-092598Y037418D03*
Y038599D03*
X-092307Y006387D03*
Y007568D03*
Y016662D03*
Y017843D03*
Y027103D03*
Y028284D03*
Y047646D03*
Y048827D03*
Y057957D03*
Y059139D03*
Y068205D03*
Y069387D03*
X-091480Y037418D03*
Y038599D03*
X-089764Y041134D03*
Y042315D03*
X-088938Y010346D03*
Y011528D03*
Y020594D03*
Y021776D03*
Y030906D03*
Y032087D03*
Y051449D03*
Y052630D03*
Y061890D03*
Y063071D03*
Y072165D03*
Y073346D03*
X-088646Y041134D03*
Y042315D03*
X-076075Y066787D03*
Y067969D03*
X-065591Y011764D03*
Y012946D03*
X-053020Y037418D03*
Y038599D03*
X-052728Y006387D03*
Y007568D03*
Y016662D03*
Y017843D03*
Y027103D03*
Y028284D03*
Y047646D03*
Y048827D03*
Y057957D03*
Y059139D03*
Y068205D03*
Y069387D03*
X-051902Y037418D03*
Y038599D03*
X-050579Y041134D03*
Y042315D03*
X-049752Y010346D03*
Y011528D03*
Y020594D03*
Y021776D03*
Y030906D03*
Y032087D03*
Y051449D03*
Y052630D03*
Y061890D03*
Y063071D03*
Y072165D03*
Y073346D03*
X-049461Y041134D03*
Y042315D03*
X-036890Y066787D03*
Y067969D03*
X-026287Y011764D03*
Y012946D03*
X-013716Y037418D03*
Y038599D03*
X-013425Y006387D03*
Y007568D03*
Y016662D03*
Y017843D03*
Y027103D03*
Y028284D03*
Y047646D03*
Y048827D03*
Y057957D03*
Y059139D03*
Y068205D03*
Y069387D03*
X-012598Y037418D03*
Y038599D03*
X-011287Y041134D03*
Y042315D03*
X-010461Y010346D03*
Y011528D03*
Y020594D03*
Y021776D03*
Y030906D03*
Y032087D03*
Y051449D03*
Y052630D03*
Y061890D03*
Y063071D03*
Y072165D03*
Y073346D03*
X-010169Y041134D03*
Y042315D03*
X002402Y066787D03*
Y067969D03*
G54D14*
X-098760Y002993D03*
X-098405D03*
X-082839Y076740D03*
X-082485D03*
X-059181Y002993D03*
X-058827D03*
X-043654Y076740D03*
X-043300D03*
X-019877Y002993D03*
X-019523D03*
X-004362Y076740D03*
X-004008D03*
G54D15*
X-097843Y001162D03*
Y001516D03*
X-083401Y078217D03*
Y078571D03*
X-058265Y001162D03*
Y001516D03*
X-044216Y078217D03*
Y078571D03*
X-018961Y001162D03*
Y001516D03*
X-004924Y078217D03*
Y078571D03*
G54D16*
X-107000Y010835D03*
X-106449D03*
X-106429Y009005D03*
X-105878D03*
X-104992Y019115D03*
Y019887D03*
X-104441Y019115D03*
Y019887D03*
X-100728Y020717D03*
X-100177D03*
X-097388Y004527D03*
X-097098Y020254D03*
X-097051Y053713D03*
X-097043Y053107D03*
X-096837Y004527D03*
X-096547Y020254D03*
X-096500Y053713D03*
X-096492Y053107D03*
X-084753Y026626D03*
X-084745Y026020D03*
X-084697Y059479D03*
X-084408Y075206D03*
X-084201Y026626D03*
X-084193Y026020D03*
X-084146Y059479D03*
X-083857Y075206D03*
X-081068Y059016D03*
X-080516D03*
X-076804Y059846D03*
Y060618D03*
X-076253Y059846D03*
Y060618D03*
X-075367Y070728D03*
X-074816D03*
X-074796Y068898D03*
X-074245D03*
X-067421Y010835D03*
X-066870D03*
X-066850Y009005D03*
X-066299D03*
X-065413Y019115D03*
Y019887D03*
X-064862Y019115D03*
Y019887D03*
X-061150Y020717D03*
X-060598D03*
X-057809Y004527D03*
X-057520Y020254D03*
X-057472Y053713D03*
X-057465Y053107D03*
X-057258Y004527D03*
X-056969Y020254D03*
X-056921Y053713D03*
X-056913Y053107D03*
X-045567Y026626D03*
X-045559Y026020D03*
X-045512Y059479D03*
X-045223Y075206D03*
X-045016Y026626D03*
X-045008Y026020D03*
X-044961Y059479D03*
X-044671Y075206D03*
X-041882Y059016D03*
X-041331D03*
X-037618Y059846D03*
Y060618D03*
X-037067Y059846D03*
Y060618D03*
X-036181Y070728D03*
X-035630D03*
X-035610Y068898D03*
X-035059D03*
X-028118Y010835D03*
X-027567D03*
X-027547Y009005D03*
X-026996D03*
X-026110Y019115D03*
Y019887D03*
X-025559Y019115D03*
Y019887D03*
X-021846Y020717D03*
X-021295D03*
X-018506Y004527D03*
X-018216Y020254D03*
X-018169Y053713D03*
X-018161Y053107D03*
X-017954Y004527D03*
X-017665Y020254D03*
X-017618Y053713D03*
X-017610Y053107D03*
X-006276Y026626D03*
X-006268Y026020D03*
X-006220Y059479D03*
X-005931Y075206D03*
X-005724Y026626D03*
X-005717Y026020D03*
X-005669Y059479D03*
X-005380Y075206D03*
X-002591Y059016D03*
X-002039D03*
X001673Y059846D03*
Y060618D03*
X002224Y059846D03*
Y060618D03*
X003110Y070728D03*
X003661D03*
X003681Y068898D03*
X004232D03*
G54D17*
X-099457Y002347D03*
X-099083Y001402D03*
X-098709Y002347D03*
X-097236Y052477D03*
X-096862Y051532D03*
X-096839Y055272D03*
X-096488Y052477D03*
X-096465Y054327D03*
X-096091Y055272D03*
X-085154Y024461D03*
X-084780Y025406D03*
X-084756Y027256D03*
X-084406Y024461D03*
X-084382Y028201D03*
X-084008Y027256D03*
X-082536Y077386D03*
X-082162Y078331D03*
X-081788Y077386D03*
X-059878Y002347D03*
X-059504Y001402D03*
X-059130Y002347D03*
X-057657Y052477D03*
X-057283Y051532D03*
X-057260Y055272D03*
X-056909Y052477D03*
X-056886Y054327D03*
X-056512Y055272D03*
X-045969Y024461D03*
X-045595Y025406D03*
X-045571Y027256D03*
X-045221Y024461D03*
X-045197Y028201D03*
X-044823Y027256D03*
X-043351Y077386D03*
X-042977Y078331D03*
X-042603Y077386D03*
X-020574Y002347D03*
X-020200Y001402D03*
X-019826Y002347D03*
X-018354Y052477D03*
X-017980Y051532D03*
X-017956Y055272D03*
X-017606Y052477D03*
X-017582Y054327D03*
X-017208Y055272D03*
X-006677Y024461D03*
X-006303Y025406D03*
X-006280Y027256D03*
X-005929Y024461D03*
X-005906Y028201D03*
X-005531Y027256D03*
X-004059Y077386D03*
X-003685Y078331D03*
X-003311Y077386D03*
G54D18*
X-107264Y007698D03*
Y008249D03*
X-107087Y013459D03*
Y014011D03*
X-105945Y005811D03*
Y006362D03*
X-105366Y005808D03*
Y006359D03*
X-100077Y001915D03*
Y002466D03*
X-098043Y055264D03*
Y055816D03*
X-097453Y055560D03*
Y056111D03*
X-083792Y023622D03*
Y024173D03*
X-083201Y023917D03*
Y024469D03*
X-081168Y077267D03*
Y077818D03*
X-075879Y073374D03*
Y073925D03*
X-075300Y073371D03*
Y073922D03*
X-074158Y065722D03*
Y066274D03*
X-073981Y071484D03*
Y072035D03*
X-067685Y007698D03*
Y008249D03*
X-067508Y013459D03*
Y014011D03*
X-066366Y005811D03*
Y006362D03*
X-065787Y005808D03*
Y006359D03*
X-060498Y001915D03*
Y002466D03*
X-058465Y055264D03*
Y055816D03*
X-057874Y055560D03*
Y056111D03*
X-044607Y023622D03*
Y024173D03*
X-044016Y023917D03*
Y024469D03*
X-041982Y077267D03*
Y077818D03*
X-036693Y073374D03*
Y073925D03*
X-036114Y073371D03*
Y073922D03*
X-034973Y065722D03*
Y066274D03*
X-034796Y071484D03*
Y072035D03*
X-028381Y007698D03*
Y008249D03*
X-028204Y013459D03*
Y014011D03*
X-027063Y005811D03*
Y006362D03*
X-026484Y005808D03*
Y006359D03*
X-021195Y001915D03*
Y002466D03*
X-019161Y055264D03*
Y055816D03*
X-018570Y055560D03*
Y056111D03*
X-005315Y023622D03*
Y024173D03*
X-004724Y023917D03*
Y024469D03*
X-002691Y077267D03*
Y077818D03*
X002598Y073374D03*
Y073925D03*
X003177Y073371D03*
Y073922D03*
X004319Y065722D03*
Y066274D03*
X004496Y071484D03*
Y072035D03*
G54D19*
X-096653Y001608D03*
Y002002D03*
Y002395D03*
Y002789D03*
Y003183D03*
X-084592Y076550D03*
Y076944D03*
Y077338D03*
Y077731D03*
Y078125D03*
X-057074Y001608D03*
Y002002D03*
Y002395D03*
Y002789D03*
Y003183D03*
X-045407Y076550D03*
Y076944D03*
Y077338D03*
Y077731D03*
Y078125D03*
X-017770Y001608D03*
Y002002D03*
Y002395D03*
Y002789D03*
Y003183D03*
X-006115Y076550D03*
Y076944D03*
Y077338D03*
Y077731D03*
Y078125D03*
G54D20*
X-107087Y013381D03*
Y014089D03*
X-106323Y013501D03*
Y014209D03*
X-105276Y008879D03*
Y009587D03*
X-097547Y012576D03*
Y013284D03*
X-096457Y012576D03*
Y013284D03*
X-084788Y066449D03*
Y067157D03*
X-083697Y066449D03*
Y067157D03*
X-075969Y070146D03*
Y070854D03*
X-074922Y065524D03*
Y066232D03*
X-074158Y065644D03*
Y066352D03*
X-067508Y013381D03*
Y014089D03*
X-066744Y013501D03*
Y014209D03*
X-065697Y008879D03*
Y009587D03*
X-057969Y012576D03*
Y013284D03*
X-056878Y012576D03*
Y013284D03*
X-045603Y066449D03*
Y067157D03*
X-044512Y066449D03*
Y067157D03*
X-036784Y070146D03*
Y070854D03*
X-035736Y065524D03*
Y066232D03*
X-034973Y065644D03*
Y066352D03*
X-028204Y013381D03*
Y014089D03*
X-027441Y013501D03*
Y014209D03*
X-026393Y008879D03*
Y009587D03*
X-018665Y012576D03*
Y013284D03*
X-017574Y012576D03*
Y013284D03*
X-006311Y066449D03*
Y067157D03*
X-005220Y066449D03*
Y067157D03*
X002508Y070146D03*
Y070854D03*
X003555Y065524D03*
Y066232D03*
X004319Y065644D03*
Y066352D03*
G54D21*
X-106953Y012469D03*
X-106516Y020725D03*
X-106008Y012095D03*
Y012843D03*
X-105878Y010698D03*
X-105571Y020351D03*
Y021099D03*
X-104933Y010324D03*
Y011072D03*
X-076312Y068661D03*
Y069409D03*
X-075674Y058634D03*
Y059382D03*
X-075367Y069035D03*
X-075237Y066890D03*
Y067638D03*
X-074729Y059008D03*
X-074292Y067264D03*
X-067374Y012469D03*
X-066937Y020725D03*
X-066429Y012095D03*
Y012843D03*
X-066299Y010698D03*
X-065992Y020351D03*
Y021099D03*
X-065354Y010324D03*
Y011072D03*
X-037126Y068661D03*
Y069409D03*
X-036488Y058634D03*
Y059382D03*
X-036181Y069035D03*
X-036051Y066890D03*
Y067638D03*
X-035544Y059008D03*
X-035107Y067264D03*
X-028070Y012469D03*
X-027633Y020725D03*
X-027126Y012095D03*
Y012843D03*
X-026996Y010698D03*
X-026689Y020351D03*
Y021099D03*
X-026051Y010324D03*
Y011072D03*
X002165Y068661D03*
Y069409D03*
X002803Y058634D03*
Y059382D03*
X003110Y069035D03*
X003240Y066890D03*
Y067638D03*
X003748Y059008D03*
X004185Y067264D03*
G54D22*
X-105559Y013447D03*
Y014381D03*
X-075686Y065352D03*
Y066286D03*
X-065980Y013447D03*
Y014381D03*
X-036500Y065352D03*
Y066286D03*
X-026677Y013447D03*
Y014381D03*
X002791Y065352D03*
Y066286D03*
G54D23*
X-099583Y021406D03*
Y023690D03*
X-099083Y021406D03*
Y023690D03*
X-098583Y021406D03*
Y023690D03*
X-098083Y021406D03*
Y023690D03*
X-097583Y021406D03*
Y023690D03*
X-097083Y021406D03*
Y023690D03*
X-096583Y021406D03*
Y023690D03*
X-084662Y056043D03*
Y058327D03*
X-084162Y056043D03*
Y058327D03*
X-083662Y056043D03*
Y058327D03*
X-083162Y056043D03*
Y058327D03*
X-082662Y056043D03*
Y058327D03*
X-082162Y056043D03*
Y058327D03*
X-081662Y056043D03*
Y058327D03*
X-060004Y021406D03*
Y023690D03*
X-059504Y021406D03*
Y023690D03*
X-059004Y021406D03*
Y023690D03*
X-058504Y021406D03*
Y023690D03*
X-058004Y021406D03*
Y023690D03*
X-057504Y021406D03*
Y023690D03*
X-057004Y021406D03*
Y023690D03*
X-045477Y056043D03*
Y058327D03*
X-044977Y056043D03*
Y058327D03*
X-044477Y056043D03*
Y058327D03*
X-043977Y056043D03*
Y058327D03*
X-043477Y056043D03*
Y058327D03*
X-042977Y056043D03*
Y058327D03*
X-042477Y056043D03*
Y058327D03*
X-020700Y021406D03*
Y023690D03*
X-020200Y021406D03*
Y023690D03*
X-019700Y021406D03*
Y023690D03*
X-019200Y021406D03*
Y023690D03*
X-018700Y021406D03*
Y023690D03*
X-018200Y021406D03*
Y023690D03*
X-017700Y021406D03*
Y023690D03*
X-006185Y056043D03*
Y058327D03*
X-005685Y056043D03*
Y058327D03*
X-005185Y056043D03*
Y058327D03*
X-004685Y056043D03*
Y058327D03*
X-004185Y056043D03*
Y058327D03*
X-003685Y056043D03*
Y058327D03*
X-003185Y056043D03*
Y058327D03*
G54D24*
X-097559Y012135D03*
Y013749D03*
X-096457Y012135D03*
Y013749D03*
X-084788Y065984D03*
Y067598D03*
X-083686Y065984D03*
Y067598D03*
X-057980Y012135D03*
Y013749D03*
X-056878Y012135D03*
Y013749D03*
X-045603Y065984D03*
Y067598D03*
X-044500Y065984D03*
Y067598D03*
X-018677Y012135D03*
Y013749D03*
X-017574Y012135D03*
Y013749D03*
X-006311Y065984D03*
Y067598D03*
X-005209Y065984D03*
Y067598D03*
G54D25*
X-106262Y007213D03*
Y008316D03*
X-106006Y007213D03*
Y008316D03*
X-105750Y007213D03*
Y008316D03*
X-105494Y007213D03*
Y008316D03*
X-075751Y071417D03*
Y072520D03*
X-075495Y071417D03*
Y072520D03*
X-075239Y071417D03*
Y072520D03*
X-074983Y071417D03*
Y072520D03*
X-066683Y007213D03*
Y008316D03*
X-066427Y007213D03*
Y008316D03*
X-066171Y007213D03*
Y008316D03*
X-065915Y007213D03*
Y008316D03*
X-036565Y071417D03*
Y072520D03*
X-036309Y071417D03*
Y072520D03*
X-036053Y071417D03*
Y072520D03*
X-035798Y071417D03*
Y072520D03*
X-027380Y007213D03*
Y008316D03*
X-027124Y007213D03*
Y008316D03*
X-026868Y007213D03*
Y008316D03*
X-026612Y007213D03*
Y008316D03*
X002726Y071417D03*
Y072520D03*
X002982Y071417D03*
Y072520D03*
X003238Y071417D03*
Y072520D03*
X003494Y071417D03*
Y072520D03*
G54D26*
X-105878Y007764D03*
X-075367Y071969D03*
X-066299Y007764D03*
X-036181Y071969D03*
X-026996Y007764D03*
X003110Y071969D03*
G54D27*
X-101283Y021457D03*
X-100102D03*
X-098024Y019009D03*
X-096842D03*
X-084402Y060724D03*
X-083221D03*
X-081142Y058276D03*
X-079961D03*
X-061705Y021457D03*
X-060524D03*
X-058445Y019009D03*
X-057264D03*
X-045217Y060724D03*
X-044036D03*
X-041957Y058276D03*
X-040776D03*
X-022401Y021457D03*
X-021220D03*
X-019141Y019009D03*
X-017960D03*
X-005925Y060724D03*
X-004744D03*
X-002665Y058276D03*
X-001484D03*
G54D28*
X-097640Y038644D03*
X-097049D03*
X-084196Y041089D03*
X-083605D03*
X-058061Y038644D03*
X-057470D03*
X-045010Y041089D03*
X-044420D03*
X-018757Y038644D03*
X-018167D03*
X-005719Y041089D03*
X-005128D03*
G54D29*
X-099936Y041233D03*
Y041745D03*
Y042139D03*
Y042532D03*
Y042926D03*
Y043320D03*
Y043713D03*
Y044107D03*
Y044501D03*
Y045013D03*
X-081308Y034720D03*
Y035232D03*
Y035626D03*
Y036020D03*
Y036413D03*
Y036807D03*
Y037201D03*
Y037594D03*
Y037988D03*
Y038500D03*
X-060357Y041233D03*
Y041745D03*
Y042139D03*
Y042532D03*
Y042926D03*
Y043320D03*
Y043713D03*
Y044107D03*
Y044501D03*
Y045013D03*
X-042123Y034720D03*
Y035232D03*
Y035626D03*
Y036020D03*
Y036413D03*
Y036807D03*
Y037201D03*
Y037594D03*
Y037988D03*
Y038500D03*
X-021054Y041233D03*
Y041745D03*
Y042139D03*
Y042532D03*
Y042926D03*
Y043320D03*
Y043713D03*
Y044107D03*
Y044501D03*
Y045013D03*
X-002831Y034720D03*
Y035232D03*
Y035626D03*
Y036020D03*
Y036413D03*
Y036807D03*
Y037201D03*
Y037594D03*
Y037988D03*
Y038500D03*
G54D70*
X-095658Y001096D03*
Y003695D03*
X-085586Y076038D03*
Y078637D03*
X-056080Y001096D03*
Y003695D03*
X-046401Y076038D03*
Y078637D03*
X-016776Y001096D03*
Y003695D03*
X-007109Y076038D03*
Y078637D03*
G54D71*
X-107269Y025729D03*
Y028390D03*
X-106166Y025729D03*
Y028390D03*
X-075078Y051343D03*
Y054004D03*
X-073976Y051343D03*
Y054004D03*
X-067690Y025729D03*
Y028390D03*
X-066588Y025729D03*
Y028390D03*
X-035893Y051343D03*
Y054004D03*
X-034791Y051343D03*
Y054004D03*
X-028386Y025729D03*
Y028390D03*
X-027284Y025729D03*
Y028390D03*
X003399Y051343D03*
Y054004D03*
X004501Y051343D03*
Y054004D03*
G54D72*
X-099444Y040131D03*
Y046115D03*
X-081801Y033618D03*
Y039602D03*
X-059865Y040131D03*
Y046115D03*
X-042615Y033618D03*
Y039602D03*
X-020562Y040131D03*
Y046115D03*
X-003324Y033618D03*
Y039602D03*
M02*
