*
G04 Job   : N:\Projects\taras004\P08330\C0154134_4FHM\4-way_FHM_main\Panel_12215039\12215039.pnl*
G04 User  : UA220006:taras004*
G04 Layer : SolderPasteBot.gbr*
G04 Date  : Tue Aug 20 10:27:18 2024*
G04 Expedition Layer: Solder Paste - Bottom*
%ICAS*%
%MOIN*%
%FSDAX24Y24*%
%OFA0.0000B0.0000*%
G90*
G74*
%AMVB_RCRECTANGLE*
$3=$3X2*
21,1,$1-$3,$2,0,0,0*
21,1,$1,$2-$3,0,0,0*
$1=$1/2*
$2=$2/2*
$3=$3/2*
$1=$1-$3*
$2=$2-$3*
1,1,$3X2,0-$1,0-$2*
1,1,$3X2,0-$1,$2*
1,1,$3X2,$1,$2*
1,1,$3X2,$1,0-$2*
%
%ADD11C,0.00787*%
%ADD10C,0.03937*%
%ADD21VB_RCRECTANGLE,0.02362X0.01181X0.00197*%
%ADD26VB_RCRECTANGLE,0.01181X0.02362X0.00197*%
%ADD24VB_RCRECTANGLE,0.02362X0.01575X0.00197*%
%ADD22VB_RCRECTANGLE,0.02362X0.01772X0.00197*%
%ADD27VB_RCRECTANGLE,0.01772X0.02362X0.00197*%
%ADD18VB_RCRECTANGLE,0.02756X0.01969X0.00197*%
%ADD20VB_RCRECTANGLE,0.01969X0.02756X0.00197*%
%ADD14VB_RCRECTANGLE,0.03150X0.01575X0.00197*%
%ADD73VB_RCRECTANGLE,0.03543X0.01969X0.00197*%
%ADD30VB_RCRECTANGLE,0.03543X0.03150X0.00197*%
%ADD19VB_RCRECTANGLE,0.03937X0.02756X0.00197*%
%ADD23VB_RCRECTANGLE,0.02756X0.03937X0.00197*%
%ADD29VB_RCRECTANGLE,0.03937X0.03150X0.00197*%
%ADD12VB_RCRECTANGLE,0.04724X0.03150X0.00197*%
%ADD13VB_RCRECTANGLE,0.03150X0.04724X0.00197*%
%ADD70VB_RCRECTANGLE,0.05118X0.01181X0.00197*%
%ADD71VB_RCRECTANGLE,0.01181X0.05118X0.00197*%
%ADD17VB_RCRECTANGLE,0.05118X0.03150X0.00197*%
%ADD72VB_RCRECTANGLE,0.03150X0.05118X0.00197*%
%ADD25VB_RCRECTANGLE,0.03150X0.05906X0.00197*%
%ADD16VB_RCRECTANGLE,0.05906X0.03937X0.00197*%
%ADD28VB_RCRECTANGLE,0.07283X0.04134X0.00197*%
%ADD15VB_RCRECTANGLE,0.05118X0.09843X0.00197*%
G01*
G36*
X-105000Y-000283D02*
G03X-104961Y-000285I000039J000283D01*
X-104675Y000000J000285*
X-104678Y000039I000286*
G01X-104921*
Y000283*
G03X-104961Y000285I000040J000283*
X-105246Y000000J000285*
X-105243Y-000039I000285*
G01X-105000*
Y-000283*
Y000283D02*
Y000039D01*
X-105243*
G03X-105246Y000000I000282J000039*
X-104961Y-000285I000285*
X-104921Y-000283J000285*
G01Y-000039*
X-104678*
G03X-104675Y000000I000283J000039*
X-104961Y000285I000286*
X-105000Y000283J000285*
G01Y094205D02*
G03X-104961Y094203I000039J000283D01*
X-104675Y094488J000285*
X-104678Y094528I000286*
G01X-104921*
Y094771*
G03X-104961Y094774I000040J000283*
X-105246Y094488J000286*
X-105243Y094449I000285*
G01X-105000*
Y094205*
Y094771D02*
Y094528D01*
X-105243*
G03X-105246Y094488I000282J000040*
X-104961Y094203I000285*
X-104921Y094205J000285*
G01Y094449*
X-104678*
G03X-104675Y094488I000283J000039*
X-104961Y094774I000286*
X-105000Y094771J000286*
G01X-097480Y-000512D02*
X-097205D01*
Y000039*
X-097480*
Y-000512*
X-097008D02*
X-096732D01*
Y000039*
X-097008*
Y-000512*
X-096496D02*
X-096220D01*
Y000039*
X-096496*
Y-000512*
X-095906D02*
X-095630D01*
Y000039*
X-095906*
Y-000512*
X-095236D02*
X-094961D01*
Y000039*
X-095236*
Y-000512*
X-094409D02*
X-094134D01*
Y000039*
X-094409*
Y-000512*
X007362Y083543D02*
X007913D01*
Y083819*
X007362*
Y083543*
Y084016D02*
X007913D01*
Y084291*
X007362*
Y084016*
Y084528D02*
X007913D01*
Y084803*
X007362*
Y084528*
Y085118D02*
X007913D01*
Y085394*
X007362*
Y085118*
Y085787D02*
X007913D01*
Y086063*
X007362*
Y085787*
Y086614D02*
X007913D01*
Y086890*
X007362*
Y086614*
X007992Y094127D02*
G03X008031Y094124I000039J000282D01*
X008317Y094409J000285*
X008314Y094449I000286*
G01X008071*
Y094692*
G03X008031Y094695I000040J000283*
X007746Y094409J000286*
X007749Y094370I000285*
G01X007992*
Y094127*
Y094692D02*
Y094449D01*
X007749*
G03X007746Y094409I000282J000040*
X008031Y094124I000285*
X008071Y094127J000285*
G01Y094370*
X008314*
G03X008317Y094409I000283J000039*
X008031Y094695I000286*
X007992Y094692J000286*
G37*
G54D10*
G01X-038819Y-002008D02*
X-104914D01*
G02X-105068Y-001987J000591*
G01X-106492Y-001602*
G02X-106929Y-001032I000154J000570*
G01Y-001031*
Y095449*
G02X-106488Y096020I000590*
G01X-105067Y096398*
G02X-104916Y096417I000151J000572*
X-104913J000591*
G01X007992*
G02X008142Y096398I000001J000590*
G01X009563Y096024*
G02X010000Y095453I000154J000571*
G01Y-001031*
Y-001032*
G02X009563Y-001602I000591*
G01X008151Y-001987*
G02X007995Y-002008I000156J000570*
G01X-038819*
G54D11*
X-044825Y-001575D02*
Y-000591D01*
X-045044Y-001575*
X-045264Y-000591*
Y-001575*
X-044136D02*
Y-000591D01*
X-044418*
X-044512Y-000650*
X-044543Y-000695*
X-044575Y-000784*
Y-000919*
X-044543Y-001023*
X-044512Y-001068*
X-044418Y-001113*
X-044136*
X-040812Y-000591D02*
Y-001575D01*
X-040593Y-000591D02*
X-041031D01*
X-040061D02*
X-040008Y-000650D01*
X-039956Y-000740*
X-039925Y-000829*
X-039904Y-000963*
Y-001202*
X-039925Y-001336*
X-039956Y-001441*
X-040008Y-001530*
X-040061Y-001575*
X-040175*
X-040228Y-001530*
X-040290Y-001441*
X-040311Y-001336*
X-040342Y-001202*
Y-000963*
X-040311Y-000829*
X-040290Y-000740*
X-040228Y-000650*
X-040175Y-000591*
X-040061*
X-039215Y-001068D02*
X-039497D01*
X-039591Y-001113*
X-039622Y-001157*
X-039653Y-001247*
Y-001396*
X-039622Y-001485*
X-039591Y-001530*
X-039497Y-001575*
X-039215*
Y-000591*
X-039497*
X-039591Y-000650*
X-039622Y-000695*
X-039653Y-000784*
Y-000874*
X-039622Y-000963*
X-039591Y-001023*
X-039497Y-001068*
X-037837Y-001202D02*
X-037889Y-001068D01*
X-037994Y-000978*
X-038108Y-000934*
X-038275*
X-037837D02*
Y-001575D01*
X-037148Y-001202D02*
X-037587D01*
Y-001113*
X-037555Y-001023*
X-037513Y-000978*
X-037440Y-000934*
X-037326*
X-037252Y-000978*
X-037179Y-001068*
X-037148Y-001202*
Y-001306*
X-037179Y-001441*
X-037252Y-001530*
X-037326Y-001575*
X-037440*
X-037513Y-001530*
X-037587Y-001441*
X-036898Y-000934D02*
X-036689Y-001575D01*
X-036626Y-001769*
X-036553Y-001858*
X-036490Y-001903*
X-036459*
X-036490Y-000934D02*
X-036689Y-001575D01*
X-036209Y-001068D02*
X-036136Y-000978D01*
X-036062Y-000934*
X-035948*
X-035875Y-000978*
X-035801Y-001068*
X-035770Y-001202*
Y-001306*
X-035801Y-001441*
X-035875Y-001530*
X-035948Y-001575*
X-036062*
X-036136Y-001530*
X-036209Y-001441*
Y-000934D02*
Y-001575D01*
X-035081Y-000591D02*
Y-001575D01*
X-035520*
X-031922Y-000605D02*
X-031828Y-000650D01*
X-031766Y-000784*
X-031734Y-001023*
Y-001157*
X-031766Y-001396*
X-031828Y-001530*
X-031922Y-001575*
X-031985*
X-032079Y-001530*
X-032141Y-001396*
X-032173Y-001157*
Y-001023*
X-032141Y-000784*
X-032079Y-000650*
X-031985Y-000605*
X-031922*
X-031233D02*
X-031139Y-000650D01*
X-031077Y-000784*
X-031045Y-001023*
Y-001157*
X-031077Y-001396*
X-031139Y-001530*
X-031233Y-001575*
X-031296*
X-031390Y-001530*
X-031452Y-001396*
X-031484Y-001157*
Y-001023*
X-031452Y-000784*
X-031390Y-000650*
X-031296Y-000605*
X-031233*
X-030106Y-000919D02*
X-030075Y-001068D01*
X-030012Y-001157*
X-029897Y-001202*
X-029866*
X-029761Y-001157*
X-029699Y-001068*
X-029667Y-000919*
Y-000874*
X-029699Y-000740*
X-029761Y-000650*
X-029866Y-000605*
X-029897*
X-030012Y-000650*
X-030075Y-000740*
X-030106Y-000919*
Y-001157*
X-030075Y-001396*
X-030012Y-001530*
X-029897Y-001575*
X-029834*
X-029730Y-001530*
X-029699Y-001441*
X-029041Y-000605D02*
X-029386D01*
X-029198Y-000978*
X-029292*
X-029354Y-001023*
X-029386Y-001068*
X-029417Y-001202*
Y-001306*
X-029386Y-001441*
X-029323Y-001530*
X-029229Y-001575*
X-029135*
X-029041Y-001530*
X-029010Y-001485*
X-028978Y-001396*
X-028477Y-000605D02*
X-028383Y-000650D01*
X-028321Y-000784*
X-028289Y-001023*
Y-001157*
X-028321Y-001396*
X-028383Y-001530*
X-028477Y-001575*
X-028540*
X-028634Y-001530*
X-028697Y-001396*
X-028728Y-001157*
Y-001023*
X-028697Y-000784*
X-028634Y-000650*
X-028540Y-000605*
X-028477*
X-027976D02*
X-027663D01*
X-027632Y-001023*
X-027663Y-000978*
X-027757Y-000934*
X-027851*
X-027945Y-000978*
X-028008Y-001068*
X-028039Y-001202*
Y-001306*
X-028008Y-001441*
X-027945Y-001530*
X-027851Y-001575*
X-027757*
X-027663Y-001530*
X-027632Y-001485*
X-027601Y-001396*
X-027079Y-000784D02*
X-027120Y-000740D01*
X-027173Y-000605*
Y-001575*
X-026254Y-000829D02*
Y-000784D01*
X-026285Y-000695*
X-026317Y-000650*
X-026379Y-000591*
X-026504*
X-026567Y-000650*
X-026598Y-000695*
X-026630Y-000784*
Y-000874*
X-026598Y-000963*
X-026536Y-001113*
X-026223Y-001575*
X-026661*
X-025565Y-000829D02*
Y-000784D01*
X-025596Y-000695*
X-025628Y-000650*
X-025690Y-000591*
X-025816*
X-025878Y-000650*
X-025909Y-000695*
X-025941Y-000784*
Y-000874*
X-025909Y-000963*
X-025847Y-001113*
X-025534Y-001575*
X-025972*
X-025012Y-000784D02*
X-025053Y-000740D01*
X-025106Y-000605*
Y-001575*
X-023467Y-000591D02*
Y-001575D01*
X-023905*
X-022778D02*
Y-000591D01*
X-023216Y-001575*
Y-000591*
X-022089Y-001575D02*
Y-000591D01*
X-022371*
X-022465Y-000650*
X-022496Y-000695*
X-022527Y-000784*
Y-000919*
X-022496Y-001023*
X-022465Y-001068*
X-022371Y-001113*
X-022089*
X-020899Y-000605D02*
X-020805Y-000650D01*
X-020742Y-000784*
X-020711Y-001023*
Y-001157*
X-020742Y-001396*
X-020805Y-001530*
X-020899Y-001575*
X-020961*
X-021055Y-001530*
X-021118Y-001396*
X-021149Y-001157*
Y-001023*
X-021118Y-000784*
X-021055Y-000650*
X-020961Y-000605*
X-020899*
X-020210D02*
X-020116Y-000650D01*
X-020053Y-000784*
X-020022Y-001023*
Y-001157*
X-020053Y-001396*
X-020116Y-001530*
X-020210Y-001575*
X-020272*
X-020366Y-001530*
X-020429Y-001396*
X-020460Y-001157*
Y-001023*
X-020429Y-000784*
X-020366Y-000650*
X-020272Y-000605*
X-020210*
X-018644D02*
X-019082D01*
X-018769Y-001575*
X-018018Y-000605D02*
X-018362D01*
X-018174Y-000978*
X-018268*
X-018331Y-001023*
X-018362Y-001068*
X-018394Y-001202*
Y-001306*
X-018362Y-001441*
X-018300Y-001530*
X-018206Y-001575*
X-018112*
X-018018Y-001530*
X-017986Y-001485*
X-017955Y-001396*
X-017454Y-000605D02*
X-017360Y-000650D01*
X-017297Y-000784*
X-017266Y-001023*
Y-001157*
X-017297Y-001396*
X-017360Y-001530*
X-017454Y-001575*
X-017517*
X-017611Y-001530*
X-017673Y-001396*
X-017705Y-001157*
Y-001023*
X-017673Y-000784*
X-017611Y-000650*
X-017517Y-000605*
X-017454*
X-016953D02*
X-016640D01*
X-016608Y-001023*
X-016640Y-000978*
X-016734Y-000934*
X-016828*
X-016922Y-000978*
X-016984Y-001068*
X-017016Y-001202*
Y-001306*
X-016984Y-001441*
X-016922Y-001530*
X-016828Y-001575*
X-016734*
X-016640Y-001530*
X-016608Y-001485*
X-016577Y-001396*
X-016055Y-000784D02*
X-016097Y-000740D01*
X-016149Y-000605*
Y-001575*
X-015231Y-000829D02*
Y-000784D01*
X-015262Y-000695*
X-015293Y-000650*
X-015356Y-000591*
X-015481*
X-015544Y-000650*
X-015575Y-000695*
X-015606Y-000784*
Y-000874*
X-015575Y-000963*
X-015512Y-001113*
X-015199Y-001575*
X-015638*
X-014542Y-000829D02*
Y-000784D01*
X-014573Y-000695*
X-014604Y-000650*
X-014667Y-000591*
X-014792*
X-014855Y-000650*
X-014886Y-000695*
X-014917Y-000784*
Y-000874*
X-014886Y-000963*
X-014823Y-001113*
X-014510Y-001575*
X-014949*
X-013988Y-000784D02*
X-014030Y-000740D01*
X-014082Y-000605*
Y-001575*
X-012443Y-000591D02*
X-012663D01*
X-012757Y-000650*
X-012819Y-000740*
X-012850Y-000829*
X-012882Y-000963*
Y-001202*
X-012850Y-001336*
X-012819Y-001441*
X-012757Y-001530*
X-012663Y-001575*
X-012443*
Y-000591*
X-011974Y-001068D02*
X-012193Y-001575D01*
X-011754D02*
Y-000591D01*
X-012036*
X-012130Y-000650*
X-012162Y-000695*
X-012193Y-000784*
Y-000874*
X-012162Y-000963*
X-012130Y-001023*
X-012036Y-001068*
X-011754*
X-011065D02*
X-011347D01*
X-011441Y-001113*
X-011473Y-001157*
X-011504Y-001247*
Y-001396*
X-011473Y-001485*
X-011441Y-001530*
X-011347Y-001575*
X-011065*
Y-000591*
X-011347*
X-011441Y-000650*
X-011473Y-000695*
X-011504Y-000784*
Y-000874*
X-011473Y-000963*
X-011441Y-001023*
X-011347Y-001068*
X-000591Y000000D02*
X000591D01*
X000000Y000591D02*
Y-000591D01*
G54D12*
X-099378Y010919D03*
Y011667D03*
Y026096D03*
Y026844D03*
Y041273D03*
Y042021D03*
Y056450D03*
Y057198D03*
Y071628D03*
Y072376D03*
Y086805D03*
Y087553D03*
X-098433Y011293D03*
Y026470D03*
Y041647D03*
Y056824D03*
Y072002D03*
Y087179D03*
X-098417Y007362D03*
Y022539D03*
Y037717D03*
Y052894D03*
Y068071D03*
Y083248D03*
X-097472Y006988D03*
Y007736D03*
Y022165D03*
Y022913D03*
Y037343D03*
Y038091D03*
Y052520D03*
Y053268D03*
Y067697D03*
Y068445D03*
Y082874D03*
Y083622D03*
X-096941Y009980D03*
Y025157D03*
Y040335D03*
Y055512D03*
Y070689D03*
Y085866D03*
X-095996Y009606D03*
Y010354D03*
Y024783D03*
Y025531D03*
Y039961D03*
Y040709D03*
Y055138D03*
Y055886D03*
Y070315D03*
Y071063D03*
Y085492D03*
Y086240D03*
X-093189Y011396D03*
Y012144D03*
Y026573D03*
Y027321D03*
Y041750D03*
Y042498D03*
Y056927D03*
Y057675D03*
Y072105D03*
Y072853D03*
Y087282D03*
Y088030D03*
X-092244Y011770D03*
Y026947D03*
Y042124D03*
Y057301D03*
Y072479D03*
Y087656D03*
X-066850Y004961D03*
Y005709D03*
Y020138D03*
Y020886D03*
Y035315D03*
Y036063D03*
Y050492D03*
Y051240D03*
Y065669D03*
Y066417D03*
Y080846D03*
Y081594D03*
X-065906Y005335D03*
Y020512D03*
Y035689D03*
Y050866D03*
Y066043D03*
Y081220D03*
X-058661Y013338D03*
Y014086D03*
Y028515D03*
Y029263D03*
Y043692D03*
Y044440D03*
Y058869D03*
Y059617D03*
Y074046D03*
Y074794D03*
Y089223D03*
Y089971D03*
X-058622Y005386D03*
Y006134D03*
Y020563D03*
Y021311D03*
Y035740D03*
Y036488D03*
Y050917D03*
Y051665D03*
Y066094D03*
Y066843D03*
Y081272D03*
Y082020D03*
X-057717Y013712D03*
Y028889D03*
Y044066D03*
Y059243D03*
Y074420D03*
Y089597D03*
X-057677Y005760D03*
Y020937D03*
Y036114D03*
Y051291D03*
Y066469D03*
Y081646D03*
X-044404Y010919D03*
Y011667D03*
Y026096D03*
Y026844D03*
Y041273D03*
Y042021D03*
Y056450D03*
Y057198D03*
Y071628D03*
Y072376D03*
Y086805D03*
Y087553D03*
X-043459Y011293D03*
Y026470D03*
Y041647D03*
Y056824D03*
Y072002D03*
Y087179D03*
X-043443Y007362D03*
Y022539D03*
Y037717D03*
Y052894D03*
Y068071D03*
Y083248D03*
X-042498Y006988D03*
Y007736D03*
Y022165D03*
Y022913D03*
Y037343D03*
Y038091D03*
Y052520D03*
Y053268D03*
Y067697D03*
Y068445D03*
Y082874D03*
Y083622D03*
X-041967Y009980D03*
Y025157D03*
Y040335D03*
Y055512D03*
Y070689D03*
Y085866D03*
X-041022Y009606D03*
Y010354D03*
Y024783D03*
Y025531D03*
Y039961D03*
Y040709D03*
Y055138D03*
Y055886D03*
Y070315D03*
Y071063D03*
Y085492D03*
Y086240D03*
X-038215Y011396D03*
Y012144D03*
Y026573D03*
Y027321D03*
Y041750D03*
Y042498D03*
Y056927D03*
Y057675D03*
Y072105D03*
Y072853D03*
Y087282D03*
Y088030D03*
X-037270Y011770D03*
Y026947D03*
Y042124D03*
Y057301D03*
Y072479D03*
Y087656D03*
X-011876Y004961D03*
Y005709D03*
Y020138D03*
Y020886D03*
Y035315D03*
Y036063D03*
Y050492D03*
Y051240D03*
Y065669D03*
Y066417D03*
Y080846D03*
Y081594D03*
X-010931Y005335D03*
Y020512D03*
Y035689D03*
Y050866D03*
Y066043D03*
Y081220D03*
X-003687Y013338D03*
Y014086D03*
Y028515D03*
Y029263D03*
Y043692D03*
Y044440D03*
Y058869D03*
Y059617D03*
Y074046D03*
Y074794D03*
Y089223D03*
Y089971D03*
X-003648Y005386D03*
Y006134D03*
Y020563D03*
Y021311D03*
Y035740D03*
Y036488D03*
Y050917D03*
Y051665D03*
Y066094D03*
Y066843D03*
Y081272D03*
Y082020D03*
X-002742Y013712D03*
Y028889D03*
Y044066D03*
Y059243D03*
Y074420D03*
Y089597D03*
X-002703Y005760D03*
Y020937D03*
Y036114D03*
Y051291D03*
Y066469D03*
Y081646D03*
G54D13*
X-095021Y007179D03*
Y022356D03*
Y037533D03*
Y052710D03*
Y067887D03*
Y083065D03*
X-094647Y008124D03*
Y023301D03*
Y038478D03*
Y053655D03*
Y068832D03*
Y084010D03*
X-094273Y007179D03*
Y022356D03*
Y037533D03*
Y052710D03*
Y067887D03*
Y083065D03*
X-092502Y007179D03*
Y022356D03*
Y037533D03*
Y052710D03*
Y067887D03*
Y083065D03*
X-092128Y008124D03*
Y023301D03*
Y038478D03*
Y053655D03*
Y068832D03*
Y084010D03*
X-091754Y007179D03*
Y022356D03*
Y037533D03*
Y052710D03*
Y067887D03*
Y083065D03*
X-080453Y013228D03*
Y028406D03*
Y043583D03*
Y058760D03*
Y073937D03*
Y089114D03*
X-080079Y014173D03*
Y029350D03*
Y044528D03*
Y059705D03*
Y074882D03*
Y090059D03*
X-079705Y013228D03*
Y028406D03*
Y043583D03*
Y058760D03*
Y073937D03*
Y089114D03*
X-078006Y013543D03*
Y028720D03*
Y043898D03*
Y059075D03*
Y074252D03*
Y089429D03*
X-077632Y014488D03*
Y029665D03*
Y044843D03*
Y060020D03*
Y075197D03*
Y090374D03*
X-077258Y013543D03*
Y028720D03*
Y043898D03*
Y059075D03*
Y074252D03*
Y089429D03*
X-063957Y013720D03*
Y028898D03*
Y044075D03*
Y059252D03*
Y074429D03*
Y089606D03*
X-063610Y005240D03*
Y020417D03*
Y035594D03*
Y050772D03*
Y065949D03*
Y081126D03*
X-063583Y012776D03*
Y027953D03*
Y043130D03*
Y058307D03*
Y073484D03*
Y088661D03*
X-063236Y004295D03*
Y019472D03*
Y034650D03*
Y049827D03*
Y065004D03*
Y080181D03*
X-063209Y013720D03*
Y028898D03*
Y044075D03*
Y059252D03*
Y074429D03*
Y089606D03*
X-062862Y005240D03*
Y020417D03*
Y035594D03*
Y050772D03*
Y065949D03*
Y081126D03*
X-062020Y005295D03*
Y020472D03*
Y035650D03*
Y050827D03*
Y066004D03*
Y081181D03*
X-061646Y004350D03*
Y019528D03*
Y034705D03*
Y049882D03*
Y065059D03*
Y080236D03*
X-061272Y005295D03*
Y020472D03*
Y035650D03*
Y050827D03*
Y066004D03*
Y081181D03*
X-060800Y012931D03*
Y028108D03*
Y043285D03*
Y058463D03*
Y073640D03*
Y088817D03*
X-060426Y013876D03*
Y029053D03*
Y044230D03*
Y059407D03*
Y074585D03*
Y089762D03*
X-060052Y012931D03*
Y028108D03*
Y043285D03*
Y058463D03*
Y073640D03*
Y088817D03*
X-040047Y007179D03*
Y022356D03*
Y037533D03*
Y052710D03*
Y067887D03*
Y083065D03*
X-039673Y008124D03*
Y023301D03*
Y038478D03*
Y053655D03*
Y068832D03*
Y084010D03*
X-039299Y007179D03*
Y022356D03*
Y037533D03*
Y052710D03*
Y067887D03*
Y083065D03*
X-037527Y007179D03*
Y022356D03*
Y037533D03*
Y052710D03*
Y067887D03*
Y083065D03*
X-037153Y008124D03*
Y023301D03*
Y038478D03*
Y053655D03*
Y068832D03*
Y084010D03*
X-036779Y007179D03*
Y022356D03*
Y037533D03*
Y052710D03*
Y067887D03*
Y083065D03*
X-025478Y013228D03*
Y028406D03*
Y043583D03*
Y058760D03*
Y073937D03*
Y089114D03*
X-025104Y014173D03*
Y029350D03*
Y044528D03*
Y059705D03*
Y074882D03*
Y090059D03*
X-024730Y013228D03*
Y028406D03*
Y043583D03*
Y058760D03*
Y073937D03*
Y089114D03*
X-023032Y013543D03*
Y028720D03*
Y043898D03*
Y059075D03*
Y074252D03*
Y089429D03*
X-022658Y014488D03*
Y029665D03*
Y044843D03*
Y060020D03*
Y075197D03*
Y090374D03*
X-022284Y013543D03*
Y028720D03*
Y043898D03*
Y059075D03*
Y074252D03*
Y089429D03*
X-008982Y013720D03*
Y028898D03*
Y044075D03*
Y059252D03*
Y074429D03*
Y089606D03*
X-008636Y005240D03*
Y020417D03*
Y035594D03*
Y050772D03*
Y065949D03*
Y081126D03*
X-008608Y012776D03*
Y027953D03*
Y043130D03*
Y058307D03*
Y073484D03*
Y088661D03*
X-008262Y004295D03*
Y019472D03*
Y034650D03*
Y049827D03*
Y065004D03*
Y080181D03*
X-008234Y013720D03*
Y028898D03*
Y044075D03*
Y059252D03*
Y074429D03*
Y089606D03*
X-007888Y005240D03*
Y020417D03*
Y035594D03*
Y050772D03*
Y065949D03*
Y081126D03*
X-007045Y005295D03*
Y020472D03*
Y035650D03*
Y050827D03*
Y066004D03*
Y081181D03*
X-006671Y004350D03*
Y019528D03*
Y034705D03*
Y049882D03*
Y065059D03*
Y080236D03*
X-006297Y005295D03*
Y020472D03*
Y035650D03*
Y050827D03*
Y066004D03*
Y081181D03*
X-005826Y012931D03*
Y028108D03*
Y043285D03*
Y058463D03*
Y073640D03*
Y088817D03*
X-005452Y013876D03*
Y029053D03*
Y044230D03*
Y059407D03*
Y074585D03*
Y089762D03*
X-005078Y012931D03*
Y028108D03*
Y043285D03*
Y058463D03*
Y073640D03*
Y088817D03*
G54D14*
X-088071Y005467D03*
Y005722D03*
Y005978D03*
Y006234D03*
Y020644D03*
Y020900D03*
Y021156D03*
Y021411D03*
Y035821D03*
Y036077D03*
Y036333D03*
Y036589D03*
Y050998D03*
Y051254D03*
Y051510D03*
Y051766D03*
Y066175D03*
Y066431D03*
Y066687D03*
Y066943D03*
Y081352D03*
Y081608D03*
Y081864D03*
Y082120D03*
X-086969Y005467D03*
Y005722D03*
Y005978D03*
Y006234D03*
Y020644D03*
Y020900D03*
Y021156D03*
Y021411D03*
Y035821D03*
Y036077D03*
Y036333D03*
Y036589D03*
Y050998D03*
Y051254D03*
Y051510D03*
Y051766D03*
Y066175D03*
Y066431D03*
Y066687D03*
Y066943D03*
Y081352D03*
Y081608D03*
Y081864D03*
Y082120D03*
X-033096Y005467D03*
Y005722D03*
Y005978D03*
Y006234D03*
Y020644D03*
Y020900D03*
Y021156D03*
Y021411D03*
Y035821D03*
Y036077D03*
Y036333D03*
Y036589D03*
Y050998D03*
Y051254D03*
Y051510D03*
Y051766D03*
Y066175D03*
Y066431D03*
Y066687D03*
Y066943D03*
Y081352D03*
Y081608D03*
Y081864D03*
Y082120D03*
X-031994Y005467D03*
Y005722D03*
Y005978D03*
Y006234D03*
Y020644D03*
Y020900D03*
Y021156D03*
Y021411D03*
Y035821D03*
Y036077D03*
Y036333D03*
Y036589D03*
Y050998D03*
Y051254D03*
Y051510D03*
Y051766D03*
Y066175D03*
Y066431D03*
Y066687D03*
Y066943D03*
Y081352D03*
Y081608D03*
Y081864D03*
Y082120D03*
G54D15*
X-087520Y005850D03*
Y021028D03*
Y036205D03*
Y051382D03*
Y066559D03*
Y081736D03*
X-032545Y005850D03*
Y021028D03*
Y036205D03*
Y051382D03*
Y066559D03*
Y081736D03*
G54D16*
X-088386Y007618D03*
Y008327D03*
Y022795D03*
Y023504D03*
Y037972D03*
Y038681D03*
Y053150D03*
Y053858D03*
Y068327D03*
Y069035D03*
Y083504D03*
Y084213D03*
X-033411Y007618D03*
Y008327D03*
Y022795D03*
Y023504D03*
Y037972D03*
Y038681D03*
Y053150D03*
Y053858D03*
Y068327D03*
Y069035D03*
Y083504D03*
Y084213D03*
G54D17*
X-088976Y009095D03*
Y009803D03*
Y024272D03*
Y024981D03*
Y039449D03*
Y040158D03*
Y054626D03*
Y055335D03*
Y069803D03*
Y070512D03*
Y084981D03*
Y085689D03*
X-086401Y004439D03*
Y005147D03*
Y019616D03*
Y020324D03*
Y034793D03*
Y035502D03*
Y049970D03*
Y050679D03*
Y065147D03*
Y065856D03*
Y080324D03*
Y081033D03*
X-084626Y012500D03*
Y013209D03*
Y027677D03*
Y028386D03*
Y042854D03*
Y043563D03*
Y058031D03*
Y058740D03*
Y073209D03*
Y073917D03*
Y088386D03*
Y089094D03*
X-034002Y009095D03*
Y009803D03*
Y024272D03*
Y024981D03*
Y039449D03*
Y040158D03*
Y054626D03*
Y055335D03*
Y069803D03*
Y070512D03*
Y084981D03*
Y085689D03*
X-031427Y004439D03*
Y005147D03*
Y019616D03*
Y020324D03*
Y034793D03*
Y035502D03*
Y049970D03*
Y050679D03*
Y065147D03*
Y065856D03*
Y080324D03*
Y081033D03*
X-029652Y012500D03*
Y013209D03*
Y027677D03*
Y028386D03*
Y042854D03*
Y043563D03*
Y058031D03*
Y058740D03*
Y073209D03*
Y073917D03*
Y088386D03*
Y089094D03*
G54D18*
X-091575Y005394D03*
Y005748D03*
Y020571D03*
Y020925D03*
Y035748D03*
Y036102D03*
Y050925D03*
Y051280D03*
Y066102D03*
Y066457D03*
Y081280D03*
Y081634D03*
X-085787Y004764D03*
Y005118D03*
Y005472D03*
Y005827D03*
Y019941D03*
Y020295D03*
Y020650D03*
Y021004D03*
Y035118D03*
Y035472D03*
Y035827D03*
Y036181D03*
Y050295D03*
Y050650D03*
Y051004D03*
Y051358D03*
Y065472D03*
Y065827D03*
Y066181D03*
Y066535D03*
Y080650D03*
Y081004D03*
Y081358D03*
Y081713D03*
X-076827Y009906D03*
Y010260D03*
Y025083D03*
Y025438D03*
Y040260D03*
Y040615D03*
Y055438D03*
Y055792D03*
Y070615D03*
Y070969D03*
Y085792D03*
Y086146D03*
X-068780Y005866D03*
Y006220D03*
Y021043D03*
Y021398D03*
Y036220D03*
Y036575D03*
Y051398D03*
Y051752D03*
Y066575D03*
Y066929D03*
Y081752D03*
Y082106D03*
X-059167Y004390D03*
Y004745D03*
Y019567D03*
Y019922D03*
Y034745D03*
Y035099D03*
Y049922D03*
Y050276D03*
Y065099D03*
Y065453D03*
Y080276D03*
Y080630D03*
X-036600Y005394D03*
Y005748D03*
Y020571D03*
Y020925D03*
Y035748D03*
Y036102D03*
Y050925D03*
Y051280D03*
Y066102D03*
Y066457D03*
Y081280D03*
Y081634D03*
X-030813Y004764D03*
Y005118D03*
Y005472D03*
Y005827D03*
Y019941D03*
Y020295D03*
Y020650D03*
Y021004D03*
Y035118D03*
Y035472D03*
Y035827D03*
Y036181D03*
Y050295D03*
Y050650D03*
Y051004D03*
Y051358D03*
Y065472D03*
Y065827D03*
Y066181D03*
Y066535D03*
Y080650D03*
Y081004D03*
Y081358D03*
Y081713D03*
X-021852Y009906D03*
Y010260D03*
Y025083D03*
Y025438D03*
Y040260D03*
Y040615D03*
Y055438D03*
Y055792D03*
Y070615D03*
Y070969D03*
Y085792D03*
Y086146D03*
X-013805Y005866D03*
Y006220D03*
Y021043D03*
Y021398D03*
Y036220D03*
Y036575D03*
Y051398D03*
Y051752D03*
Y066575D03*
Y066929D03*
Y081752D03*
Y082106D03*
X-004193Y004390D03*
Y004745D03*
Y019567D03*
Y019922D03*
Y034745D03*
Y035099D03*
Y049922D03*
Y050276D03*
Y065099D03*
Y065453D03*
Y080276D03*
Y080630D03*
G54D19*
X-089055Y007776D03*
Y008327D03*
Y022953D03*
Y023504D03*
Y038130D03*
Y038681D03*
Y053307D03*
Y053858D03*
Y068484D03*
Y069035D03*
Y083661D03*
Y084213D03*
X-088307Y009232D03*
Y009783D03*
Y024409D03*
Y024961D03*
Y039587D03*
Y040138D03*
Y054764D03*
Y055315D03*
Y069941D03*
Y070492D03*
Y085118D03*
Y085669D03*
X-085472Y012697D03*
Y013248D03*
Y027874D03*
Y028425D03*
Y043051D03*
Y043602D03*
Y058228D03*
Y058780D03*
Y073406D03*
Y073957D03*
Y088583D03*
Y089134D03*
X-078760Y009587D03*
Y010138D03*
Y024764D03*
Y025315D03*
Y039941D03*
Y040492D03*
Y055118D03*
Y055669D03*
Y070295D03*
Y070846D03*
Y085472D03*
Y086024D03*
X-075394Y011398D03*
Y011949D03*
Y026575D03*
Y027126D03*
Y041752D03*
Y042303D03*
Y056929D03*
Y057480D03*
Y072106D03*
Y072657D03*
Y087283D03*
Y087835D03*
X-072106Y007812D03*
Y008363D03*
Y022989D03*
Y023540D03*
Y038166D03*
Y038717D03*
Y053343D03*
Y053894D03*
Y068520D03*
Y069072D03*
Y083697D03*
Y084249D03*
X-034081Y007776D03*
Y008327D03*
Y022953D03*
Y023504D03*
Y038130D03*
Y038681D03*
Y053307D03*
Y053858D03*
Y068484D03*
Y069035D03*
Y083661D03*
Y084213D03*
X-033333Y009232D03*
Y009783D03*
Y024409D03*
Y024961D03*
Y039587D03*
Y040138D03*
Y054764D03*
Y055315D03*
Y069941D03*
Y070492D03*
Y085118D03*
Y085669D03*
X-030498Y012697D03*
Y013248D03*
Y027874D03*
Y028425D03*
Y043051D03*
Y043602D03*
Y058228D03*
Y058780D03*
Y073406D03*
Y073957D03*
Y088583D03*
Y089134D03*
X-023785Y009587D03*
Y010138D03*
Y024764D03*
Y025315D03*
Y039941D03*
Y040492D03*
Y055118D03*
Y055669D03*
Y070295D03*
Y070846D03*
Y085472D03*
Y086024D03*
X-020419Y011398D03*
Y011949D03*
Y026575D03*
Y027126D03*
Y041752D03*
Y042303D03*
Y056929D03*
Y057480D03*
Y072106D03*
Y072657D03*
Y087283D03*
Y087835D03*
X-017132Y007812D03*
Y008363D03*
Y022989D03*
Y023540D03*
Y038166D03*
Y038717D03*
Y053343D03*
Y053894D03*
Y068520D03*
Y069072D03*
Y083697D03*
Y084249D03*
G54D20*
X-090541Y007089D03*
Y022267D03*
Y037444D03*
Y052621D03*
Y067798D03*
Y082975D03*
X-090187Y007089D03*
Y022267D03*
Y037444D03*
Y052621D03*
Y067798D03*
Y082975D03*
X-087970Y012630D03*
Y027807D03*
Y042984D03*
Y058161D03*
Y073339D03*
Y088516D03*
X-087618Y013091D03*
Y028268D03*
Y043445D03*
Y058622D03*
Y073799D03*
Y088976D03*
X-087616Y012630D03*
Y027807D03*
Y042984D03*
Y058161D03*
Y073339D03*
Y088516D03*
X-087264Y013091D03*
Y028268D03*
Y043445D03*
Y058622D03*
Y073799D03*
Y088976D03*
X-083720Y007657D03*
Y022835D03*
Y038012D03*
Y053189D03*
Y068366D03*
Y083543D03*
X-083366Y007657D03*
Y022835D03*
Y038012D03*
Y053189D03*
Y068366D03*
Y083543D03*
X-076673Y013465D03*
Y028642D03*
Y043819D03*
Y058996D03*
Y074173D03*
Y089350D03*
X-076319Y013465D03*
Y028642D03*
Y043819D03*
Y058996D03*
Y074173D03*
Y089350D03*
X-072500Y006946D03*
Y022123D03*
Y037300D03*
Y052477D03*
Y067654D03*
Y082831D03*
X-072496Y007377D03*
Y022554D03*
Y037731D03*
Y052909D03*
Y068086D03*
Y083263D03*
X-072146Y006946D03*
Y022123D03*
Y037300D03*
Y052477D03*
Y067654D03*
Y082831D03*
X-072142Y007377D03*
Y022554D03*
Y037731D03*
Y052909D03*
Y068086D03*
Y083263D03*
X-064508Y006240D03*
Y021417D03*
Y036594D03*
Y051772D03*
Y066949D03*
Y082126D03*
X-064154Y006240D03*
Y021417D03*
Y036594D03*
Y051772D03*
Y066949D03*
Y082126D03*
X-059441Y010659D03*
Y025837D03*
Y041014D03*
Y056191D03*
Y071368D03*
Y086545D03*
X-059087Y010659D03*
Y025837D03*
Y041014D03*
Y056191D03*
Y071368D03*
Y086545D03*
X-059084Y011122D03*
Y026299D03*
Y041476D03*
Y056654D03*
Y071831D03*
Y087008D03*
X-059075Y011546D03*
Y026723D03*
Y041901D03*
Y057078D03*
Y072255D03*
Y087432D03*
X-058729Y011122D03*
Y026299D03*
Y041476D03*
Y056654D03*
Y071831D03*
Y087008D03*
X-058720Y011546D03*
Y026723D03*
Y041901D03*
Y057078D03*
Y072255D03*
Y087432D03*
X-035567Y007089D03*
Y022267D03*
Y037444D03*
Y052621D03*
Y067798D03*
Y082975D03*
X-035213Y007089D03*
Y022267D03*
Y037444D03*
Y052621D03*
Y067798D03*
Y082975D03*
X-032996Y012630D03*
Y027807D03*
Y042984D03*
Y058161D03*
Y073339D03*
Y088516D03*
X-032644Y013091D03*
Y028268D03*
Y043445D03*
Y058622D03*
Y073799D03*
Y088976D03*
X-032642Y012630D03*
Y027807D03*
Y042984D03*
Y058161D03*
Y073339D03*
Y088516D03*
X-032289Y013091D03*
Y028268D03*
Y043445D03*
Y058622D03*
Y073799D03*
Y088976D03*
X-028746Y007657D03*
Y022835D03*
Y038012D03*
Y053189D03*
Y068366D03*
Y083543D03*
X-028392Y007657D03*
Y022835D03*
Y038012D03*
Y053189D03*
Y068366D03*
Y083543D03*
X-021699Y013465D03*
Y028642D03*
Y043819D03*
Y058996D03*
Y074173D03*
Y089350D03*
X-021344Y013465D03*
Y028642D03*
Y043819D03*
Y058996D03*
Y074173D03*
Y089350D03*
X-017526Y006946D03*
Y022123D03*
Y037300D03*
Y052477D03*
Y067654D03*
Y082831D03*
X-017522Y007377D03*
Y022554D03*
Y037731D03*
Y052909D03*
Y068086D03*
Y083263D03*
X-017171Y006946D03*
Y022123D03*
Y037300D03*
Y052477D03*
Y067654D03*
Y082831D03*
X-017168Y007377D03*
Y022554D03*
Y037731D03*
Y052909D03*
Y068086D03*
Y083263D03*
X-009533Y006240D03*
Y021417D03*
Y036594D03*
Y051772D03*
Y066949D03*
Y082126D03*
X-009179Y006240D03*
Y021417D03*
Y036594D03*
Y051772D03*
Y066949D03*
Y082126D03*
X-004467Y010659D03*
Y025837D03*
Y041014D03*
Y056191D03*
Y071368D03*
Y086545D03*
X-004112Y010659D03*
Y025837D03*
Y041014D03*
Y056191D03*
Y071368D03*
Y086545D03*
X-004109Y011122D03*
Y026299D03*
Y041476D03*
Y056654D03*
Y071831D03*
Y087008D03*
X-004100Y011546D03*
Y026723D03*
Y041901D03*
Y057078D03*
Y072255D03*
Y087432D03*
X-003755Y011122D03*
Y026299D03*
Y041476D03*
Y056654D03*
Y071831D03*
Y087008D03*
X-003746Y011546D03*
Y026723D03*
Y041901D03*
Y057078D03*
Y072255D03*
Y087432D03*
G54D21*
X-080858Y006648D03*
Y006848D03*
Y021825D03*
Y022026D03*
Y037002D03*
Y037203D03*
Y052179D03*
Y052380D03*
Y067356D03*
Y067557D03*
Y082533D03*
Y082734D03*
X-080425Y006648D03*
Y006848D03*
Y021825D03*
Y022026D03*
Y037002D03*
Y037203D03*
Y052179D03*
Y052380D03*
Y067356D03*
Y067557D03*
Y082533D03*
Y082734D03*
X-074929Y004821D03*
Y005022D03*
Y019998D03*
Y020199D03*
Y035175D03*
Y035376D03*
Y050352D03*
Y050553D03*
Y065530D03*
Y065730D03*
Y080707D03*
Y080907D03*
X-074496Y004821D03*
Y005022D03*
Y019998D03*
Y020199D03*
Y035175D03*
Y035376D03*
Y050352D03*
Y050553D03*
Y065530D03*
Y065730D03*
Y080707D03*
Y080907D03*
X-062815Y010785D03*
Y010986D03*
Y025963D03*
Y026163D03*
Y041140D03*
Y041341D03*
Y056317D03*
Y056518D03*
Y071494D03*
Y071695D03*
Y086671D03*
Y086872D03*
X-062382Y010785D03*
Y010986D03*
Y025963D03*
Y026163D03*
Y041140D03*
Y041341D03*
Y056317D03*
Y056518D03*
Y071494D03*
Y071695D03*
Y086671D03*
Y086872D03*
X-059031Y007965D03*
Y008165D03*
Y023142D03*
Y023343D03*
Y038319D03*
Y038520D03*
Y053496D03*
Y053697D03*
Y068673D03*
Y068874D03*
Y083850D03*
Y084051D03*
X-058598Y007965D03*
Y008165D03*
Y023142D03*
Y023343D03*
Y038319D03*
Y038520D03*
Y053496D03*
Y053697D03*
Y068673D03*
Y068874D03*
Y083850D03*
Y084051D03*
X-025884Y006648D03*
Y006848D03*
Y021825D03*
Y022026D03*
Y037002D03*
Y037203D03*
Y052179D03*
Y052380D03*
Y067356D03*
Y067557D03*
Y082533D03*
Y082734D03*
X-025451Y006648D03*
Y006848D03*
Y021825D03*
Y022026D03*
Y037002D03*
Y037203D03*
Y052179D03*
Y052380D03*
Y067356D03*
Y067557D03*
Y082533D03*
Y082734D03*
X-019955Y004821D03*
Y005022D03*
Y019998D03*
Y020199D03*
Y035175D03*
Y035376D03*
Y050352D03*
Y050553D03*
Y065530D03*
Y065730D03*
Y080707D03*
Y080907D03*
X-019522Y004821D03*
Y005022D03*
Y019998D03*
Y020199D03*
Y035175D03*
Y035376D03*
Y050352D03*
Y050553D03*
Y065530D03*
Y065730D03*
Y080707D03*
Y080907D03*
X-007841Y010785D03*
Y010986D03*
Y025963D03*
Y026163D03*
Y041140D03*
Y041341D03*
Y056317D03*
Y056518D03*
Y071494D03*
Y071695D03*
Y086671D03*
Y086872D03*
X-007407Y010785D03*
Y010986D03*
Y025963D03*
Y026163D03*
Y041140D03*
Y041341D03*
Y056317D03*
Y056518D03*
Y071494D03*
Y071695D03*
Y086671D03*
Y086872D03*
X-004057Y007965D03*
Y008165D03*
Y023142D03*
Y023343D03*
Y038319D03*
Y038520D03*
Y053496D03*
Y053697D03*
Y068673D03*
Y068874D03*
Y083850D03*
Y084051D03*
X-003624Y007965D03*
Y008165D03*
Y023142D03*
Y023343D03*
Y038319D03*
Y038520D03*
Y053496D03*
Y053697D03*
Y068673D03*
Y068874D03*
Y083850D03*
Y084051D03*
G54D22*
X-080858Y006407D03*
Y007089D03*
Y021585D03*
Y022266D03*
Y036762D03*
Y037443D03*
Y051939D03*
Y052620D03*
Y067116D03*
Y067797D03*
Y082293D03*
Y082974D03*
X-080425Y006407D03*
Y007089D03*
Y021585D03*
Y022266D03*
Y036762D03*
Y037443D03*
Y051939D03*
Y052620D03*
Y067116D03*
Y067797D03*
Y082293D03*
Y082974D03*
X-074929Y004581D03*
Y005262D03*
Y019758D03*
Y020439D03*
Y034935D03*
Y035616D03*
Y050112D03*
Y050793D03*
Y065289D03*
Y065970D03*
Y080467D03*
Y081148D03*
X-074496Y004581D03*
Y005262D03*
Y019758D03*
Y020439D03*
Y034935D03*
Y035616D03*
Y050112D03*
Y050793D03*
Y065289D03*
Y065970D03*
Y080467D03*
Y081148D03*
X-062815Y010545D03*
Y011226D03*
Y025722D03*
Y026404D03*
Y040900D03*
Y041581D03*
Y056077D03*
Y056758D03*
Y071254D03*
Y071935D03*
Y086431D03*
Y087112D03*
X-062382Y010545D03*
Y011226D03*
Y025722D03*
Y026404D03*
Y040900D03*
Y041581D03*
Y056077D03*
Y056758D03*
Y071254D03*
Y071935D03*
Y086431D03*
Y087112D03*
X-059031Y007724D03*
Y008406D03*
Y022902D03*
Y023583D03*
Y038079D03*
Y038760D03*
Y053256D03*
Y053937D03*
Y068433D03*
Y069114D03*
Y083610D03*
Y084291D03*
X-058598Y007724D03*
Y008406D03*
Y022902D03*
Y023583D03*
Y038079D03*
Y038760D03*
Y053256D03*
Y053937D03*
Y068433D03*
Y069114D03*
Y083610D03*
Y084291D03*
X-025884Y006407D03*
Y007089D03*
Y021585D03*
Y022266D03*
Y036762D03*
Y037443D03*
Y051939D03*
Y052620D03*
Y067116D03*
Y067797D03*
Y082293D03*
Y082974D03*
X-025451Y006407D03*
Y007089D03*
Y021585D03*
Y022266D03*
Y036762D03*
Y037443D03*
Y051939D03*
Y052620D03*
Y067116D03*
Y067797D03*
Y082293D03*
Y082974D03*
X-019955Y004581D03*
Y005262D03*
Y019758D03*
Y020439D03*
Y034935D03*
Y035616D03*
Y050112D03*
Y050793D03*
Y065289D03*
Y065970D03*
Y080467D03*
Y081148D03*
X-019522Y004581D03*
Y005262D03*
Y019758D03*
Y020439D03*
Y034935D03*
Y035616D03*
Y050112D03*
Y050793D03*
Y065289D03*
Y065970D03*
Y080467D03*
Y081148D03*
X-007841Y010545D03*
Y011226D03*
Y025722D03*
Y026404D03*
Y040900D03*
Y041581D03*
Y056077D03*
Y056758D03*
Y071254D03*
Y071935D03*
Y086431D03*
Y087112D03*
X-007407Y010545D03*
Y011226D03*
Y025722D03*
Y026404D03*
Y040900D03*
Y041581D03*
Y056077D03*
Y056758D03*
Y071254D03*
Y071935D03*
Y086431D03*
Y087112D03*
X-004057Y007724D03*
Y008406D03*
Y022902D03*
Y023583D03*
Y038079D03*
Y038760D03*
Y053256D03*
Y053937D03*
Y068433D03*
Y069114D03*
Y083610D03*
Y084291D03*
X-003624Y007724D03*
Y008406D03*
Y022902D03*
Y023583D03*
Y038079D03*
Y038760D03*
Y053256D03*
Y053937D03*
Y068433D03*
Y069114D03*
Y083610D03*
Y084291D03*
G54D23*
X-087441Y013760D03*
Y028937D03*
Y044114D03*
Y059291D03*
Y074469D03*
Y089646D03*
X-086890Y013760D03*
Y028937D03*
Y044114D03*
Y059291D03*
Y074469D03*
Y089646D03*
X-082953Y007618D03*
Y022795D03*
Y037972D03*
Y053150D03*
Y068327D03*
Y083504D03*
X-082402Y007618D03*
Y022795D03*
Y037972D03*
Y053150D03*
Y068327D03*
Y083504D03*
X-076693Y012933D03*
Y028110D03*
Y043287D03*
Y058465D03*
Y073642D03*
Y088819D03*
X-076142Y012933D03*
Y028110D03*
Y043287D03*
Y058465D03*
Y073642D03*
Y088819D03*
X-032467Y013760D03*
Y028937D03*
Y044114D03*
Y059291D03*
Y074469D03*
Y089646D03*
X-031915Y013760D03*
Y028937D03*
Y044114D03*
Y059291D03*
Y074469D03*
Y089646D03*
X-027978Y007618D03*
Y022795D03*
Y037972D03*
Y053150D03*
Y068327D03*
Y083504D03*
X-027427Y007618D03*
Y022795D03*
Y037972D03*
Y053150D03*
Y068327D03*
Y083504D03*
X-021719Y012933D03*
Y028110D03*
Y043287D03*
Y058465D03*
Y073642D03*
Y088819D03*
X-021167Y012933D03*
Y028110D03*
Y043287D03*
Y058465D03*
Y073642D03*
Y088819D03*
G54D24*
X-086732Y012795D03*
Y013051D03*
Y013307D03*
Y027972D03*
Y028228D03*
Y028484D03*
Y043150D03*
Y043406D03*
Y043661D03*
Y058327D03*
Y058583D03*
Y058839D03*
Y073504D03*
Y073760D03*
Y074016D03*
Y088681D03*
Y088937D03*
Y089193D03*
X-085945Y012795D03*
Y013051D03*
Y013307D03*
Y027972D03*
Y028228D03*
Y028484D03*
Y043150D03*
Y043406D03*
Y043661D03*
Y058327D03*
Y058583D03*
Y058839D03*
Y073504D03*
Y073760D03*
Y074016D03*
Y088681D03*
Y088937D03*
Y089193D03*
X-031758Y012795D03*
Y013051D03*
Y013307D03*
Y027972D03*
Y028228D03*
Y028484D03*
Y043150D03*
Y043406D03*
Y043661D03*
Y058327D03*
Y058583D03*
Y058839D03*
Y073504D03*
Y073760D03*
Y074016D03*
Y088681D03*
Y088937D03*
Y089193D03*
X-030970Y012795D03*
Y013051D03*
Y013307D03*
Y027972D03*
Y028228D03*
Y028484D03*
Y043150D03*
Y043406D03*
Y043661D03*
Y058327D03*
Y058583D03*
Y058839D03*
Y073504D03*
Y073760D03*
Y074016D03*
Y088681D03*
Y088937D03*
Y089193D03*
G54D25*
X-088898Y004744D03*
Y019921D03*
Y035098D03*
Y050276D03*
Y065453D03*
Y080630D03*
X-088150Y004744D03*
Y019921D03*
Y035098D03*
Y050276D03*
Y065453D03*
Y080630D03*
X-083996Y012618D03*
Y027795D03*
Y042972D03*
Y058150D03*
Y073327D03*
Y088504D03*
X-083248Y012618D03*
Y027795D03*
Y042972D03*
Y058150D03*
Y073327D03*
Y088504D03*
X-033923Y004744D03*
Y019921D03*
Y035098D03*
Y050276D03*
Y065453D03*
Y080630D03*
X-033175Y004744D03*
Y019921D03*
Y035098D03*
Y050276D03*
Y065453D03*
Y080630D03*
X-029022Y012618D03*
Y027795D03*
Y042972D03*
Y058150D03*
Y073327D03*
Y088504D03*
X-028274Y012618D03*
Y027795D03*
Y042972D03*
Y058150D03*
Y073327D03*
Y088504D03*
G54D26*
X-074096Y013141D03*
Y013574D03*
Y028318D03*
Y028751D03*
Y043495D03*
Y043928D03*
Y058673D03*
Y059106D03*
Y073850D03*
Y074283D03*
Y089027D03*
Y089460D03*
X-073896Y013141D03*
Y013574D03*
Y028318D03*
Y028751D03*
Y043495D03*
Y043928D03*
Y058673D03*
Y059106D03*
Y073850D03*
Y074283D03*
Y089027D03*
Y089460D03*
X-062699Y009291D03*
Y009724D03*
Y024469D03*
Y024902D03*
Y039646D03*
Y040079D03*
Y054823D03*
Y055256D03*
Y070000D03*
Y070433D03*
Y085177D03*
Y085610D03*
X-062498Y009291D03*
Y009724D03*
Y024469D03*
Y024902D03*
Y039646D03*
Y040079D03*
Y054823D03*
Y055256D03*
Y070000D03*
Y070433D03*
Y085177D03*
Y085610D03*
X-019122Y013141D03*
Y013574D03*
Y028318D03*
Y028751D03*
Y043495D03*
Y043928D03*
Y058673D03*
Y059106D03*
Y073850D03*
Y074283D03*
Y089027D03*
Y089460D03*
X-018921Y013141D03*
Y013574D03*
Y028318D03*
Y028751D03*
Y043495D03*
Y043928D03*
Y058673D03*
Y059106D03*
Y073850D03*
Y074283D03*
Y089027D03*
Y089460D03*
X-007724Y009291D03*
Y009724D03*
Y024469D03*
Y024902D03*
Y039646D03*
Y040079D03*
Y054823D03*
Y055256D03*
Y070000D03*
Y070433D03*
Y085177D03*
Y085610D03*
X-007524Y009291D03*
Y009724D03*
Y024469D03*
Y024902D03*
Y039646D03*
Y040079D03*
Y054823D03*
Y055256D03*
Y070000D03*
Y070433D03*
Y085177D03*
Y085610D03*
G54D27*
X-074337Y013141D03*
Y013574D03*
Y028318D03*
Y028751D03*
Y043495D03*
Y043928D03*
Y058673D03*
Y059106D03*
Y073850D03*
Y074283D03*
Y089027D03*
Y089460D03*
X-073656Y013141D03*
Y013574D03*
Y028318D03*
Y028751D03*
Y043495D03*
Y043928D03*
Y058673D03*
Y059106D03*
Y073850D03*
Y074283D03*
Y089027D03*
Y089460D03*
X-062939Y009291D03*
Y009724D03*
Y024469D03*
Y024902D03*
Y039646D03*
Y040079D03*
Y054823D03*
Y055256D03*
Y070000D03*
Y070433D03*
Y085177D03*
Y085610D03*
X-062258Y009291D03*
Y009724D03*
Y024469D03*
Y024902D03*
Y039646D03*
Y040079D03*
Y054823D03*
Y055256D03*
Y070000D03*
Y070433D03*
Y085177D03*
Y085610D03*
X-019362Y013141D03*
Y013574D03*
Y028318D03*
Y028751D03*
Y043495D03*
Y043928D03*
Y058673D03*
Y059106D03*
Y073850D03*
Y074283D03*
Y089027D03*
Y089460D03*
X-018681Y013141D03*
Y013574D03*
Y028318D03*
Y028751D03*
Y043495D03*
Y043928D03*
Y058673D03*
Y059106D03*
Y073850D03*
Y074283D03*
Y089027D03*
Y089460D03*
X-007965Y009291D03*
Y009724D03*
Y024469D03*
Y024902D03*
Y039646D03*
Y040079D03*
Y054823D03*
Y055256D03*
Y070000D03*
Y070433D03*
Y085177D03*
Y085610D03*
X-007283Y009291D03*
Y009724D03*
Y024469D03*
Y024902D03*
Y039646D03*
Y040079D03*
Y054823D03*
Y055256D03*
Y070000D03*
Y070433D03*
Y085177D03*
Y085610D03*
G54D28*
X-082283Y012717D03*
Y013858D03*
Y027894D03*
Y029035D03*
Y043071D03*
Y044213D03*
Y058248D03*
Y059390D03*
Y073425D03*
Y074567D03*
Y088602D03*
Y089744D03*
X-081220Y012717D03*
Y013858D03*
Y027894D03*
Y029035D03*
Y043071D03*
Y044213D03*
Y058248D03*
Y059390D03*
Y073425D03*
Y074567D03*
Y088602D03*
Y089744D03*
X-027309Y012717D03*
Y013858D03*
Y027894D03*
Y029035D03*
Y043071D03*
Y044213D03*
Y058248D03*
Y059390D03*
Y073425D03*
Y074567D03*
Y088602D03*
Y089744D03*
X-026246Y012717D03*
Y013858D03*
Y027894D03*
Y029035D03*
Y043071D03*
Y044213D03*
Y058248D03*
Y059390D03*
Y073425D03*
Y074567D03*
Y088602D03*
Y089744D03*
G54D29*
X-084291Y013720D03*
Y028898D03*
Y044075D03*
Y059252D03*
Y074429D03*
Y089606D03*
X-083425Y013346D03*
Y014094D03*
Y028524D03*
Y029272D03*
Y043701D03*
Y044449D03*
Y058878D03*
Y059626D03*
Y074055D03*
Y074803D03*
Y089232D03*
Y089980D03*
X-029317Y013720D03*
Y028898D03*
Y044075D03*
Y059252D03*
Y074429D03*
Y089606D03*
X-028451Y013346D03*
Y014094D03*
Y028524D03*
Y029272D03*
Y043701D03*
Y044449D03*
Y058878D03*
Y059626D03*
Y074055D03*
Y074803D03*
Y089232D03*
Y089980D03*
G54D30*
X-079429Y010581D03*
Y011663D03*
Y025758D03*
Y026841D03*
Y040935D03*
Y042018D03*
Y056112D03*
Y057195D03*
Y071289D03*
Y072372D03*
Y086467D03*
Y087549D03*
X-078760Y010581D03*
Y011663D03*
Y025758D03*
Y026841D03*
Y040935D03*
Y042018D03*
Y056112D03*
Y057195D03*
Y071289D03*
Y072372D03*
Y086467D03*
Y087549D03*
X-024455Y010581D03*
Y011663D03*
Y025758D03*
Y026841D03*
Y040935D03*
Y042018D03*
Y056112D03*
Y057195D03*
Y071289D03*
Y072372D03*
Y086467D03*
Y087549D03*
X-023785Y010581D03*
Y011663D03*
Y025758D03*
Y026841D03*
Y040935D03*
Y042018D03*
Y056112D03*
Y057195D03*
Y071289D03*
Y072372D03*
Y086467D03*
Y087549D03*
G54D70*
X-076223Y007949D03*
Y008146D03*
Y008343D03*
Y008540D03*
Y008737D03*
Y008934D03*
Y009131D03*
Y009327D03*
Y009524D03*
Y009721D03*
Y009918D03*
Y010115D03*
Y023127D03*
Y023323D03*
Y023520D03*
Y023717D03*
Y023914D03*
Y024111D03*
Y024308D03*
Y024505D03*
Y024701D03*
Y024898D03*
Y025095D03*
Y025292D03*
Y038304D03*
Y038501D03*
Y038697D03*
Y038894D03*
Y039091D03*
Y039288D03*
Y039485D03*
Y039682D03*
Y039879D03*
Y040075D03*
Y040272D03*
Y040469D03*
Y053481D03*
Y053678D03*
Y053875D03*
Y054072D03*
Y054268D03*
Y054465D03*
Y054662D03*
Y054859D03*
Y055056D03*
Y055253D03*
Y055449D03*
Y055646D03*
Y068658D03*
Y068855D03*
Y069052D03*
Y069249D03*
Y069446D03*
Y069642D03*
Y069839D03*
Y070036D03*
Y070233D03*
Y070430D03*
Y070627D03*
Y070823D03*
Y083835D03*
Y084032D03*
Y084229D03*
Y084426D03*
Y084623D03*
Y084820D03*
Y085016D03*
Y085213D03*
Y085410D03*
Y085607D03*
Y085804D03*
Y086001D03*
X-072798Y007949D03*
Y008146D03*
Y008343D03*
Y008540D03*
Y008737D03*
Y008934D03*
Y009131D03*
Y009327D03*
Y009524D03*
Y009721D03*
Y009918D03*
Y010115D03*
Y023127D03*
Y023323D03*
Y023520D03*
Y023717D03*
Y023914D03*
Y024111D03*
Y024308D03*
Y024505D03*
Y024701D03*
Y024898D03*
Y025095D03*
Y025292D03*
Y038304D03*
Y038501D03*
Y038697D03*
Y038894D03*
Y039091D03*
Y039288D03*
Y039485D03*
Y039682D03*
Y039879D03*
Y040075D03*
Y040272D03*
Y040469D03*
Y053481D03*
Y053678D03*
Y053875D03*
Y054072D03*
Y054268D03*
Y054465D03*
Y054662D03*
Y054859D03*
Y055056D03*
Y055253D03*
Y055449D03*
Y055646D03*
Y068658D03*
Y068855D03*
Y069052D03*
Y069249D03*
Y069446D03*
Y069642D03*
Y069839D03*
Y070036D03*
Y070233D03*
Y070430D03*
Y070627D03*
Y070823D03*
Y083835D03*
Y084032D03*
Y084229D03*
Y084426D03*
Y084623D03*
Y084820D03*
Y085016D03*
Y085213D03*
Y085410D03*
Y085607D03*
Y085804D03*
Y086001D03*
X-021248Y007949D03*
Y008146D03*
Y008343D03*
Y008540D03*
Y008737D03*
Y008934D03*
Y009131D03*
Y009327D03*
Y009524D03*
Y009721D03*
Y009918D03*
Y010115D03*
Y023127D03*
Y023323D03*
Y023520D03*
Y023717D03*
Y023914D03*
Y024111D03*
Y024308D03*
Y024505D03*
Y024701D03*
Y024898D03*
Y025095D03*
Y025292D03*
Y038304D03*
Y038501D03*
Y038697D03*
Y038894D03*
Y039091D03*
Y039288D03*
Y039485D03*
Y039682D03*
Y039879D03*
Y040075D03*
Y040272D03*
Y040469D03*
Y053481D03*
Y053678D03*
Y053875D03*
Y054072D03*
Y054268D03*
Y054465D03*
Y054662D03*
Y054859D03*
Y055056D03*
Y055253D03*
Y055449D03*
Y055646D03*
Y068658D03*
Y068855D03*
Y069052D03*
Y069249D03*
Y069446D03*
Y069642D03*
Y069839D03*
Y070036D03*
Y070233D03*
Y070430D03*
Y070627D03*
Y070823D03*
Y083835D03*
Y084032D03*
Y084229D03*
Y084426D03*
Y084623D03*
Y084820D03*
Y085016D03*
Y085213D03*
Y085410D03*
Y085607D03*
Y085804D03*
Y086001D03*
X-017823Y007949D03*
Y008146D03*
Y008343D03*
Y008540D03*
Y008737D03*
Y008934D03*
Y009131D03*
Y009327D03*
Y009524D03*
Y009721D03*
Y009918D03*
Y010115D03*
Y023127D03*
Y023323D03*
Y023520D03*
Y023717D03*
Y023914D03*
Y024111D03*
Y024308D03*
Y024505D03*
Y024701D03*
Y024898D03*
Y025095D03*
Y025292D03*
Y038304D03*
Y038501D03*
Y038697D03*
Y038894D03*
Y039091D03*
Y039288D03*
Y039485D03*
Y039682D03*
Y039879D03*
Y040075D03*
Y040272D03*
Y040469D03*
Y053481D03*
Y053678D03*
Y053875D03*
Y054072D03*
Y054268D03*
Y054465D03*
Y054662D03*
Y054859D03*
Y055056D03*
Y055253D03*
Y055449D03*
Y055646D03*
Y068658D03*
Y068855D03*
Y069052D03*
Y069249D03*
Y069446D03*
Y069642D03*
Y069839D03*
Y070036D03*
Y070233D03*
Y070430D03*
Y070627D03*
Y070823D03*
Y083835D03*
Y084032D03*
Y084229D03*
Y084426D03*
Y084623D03*
Y084820D03*
Y085016D03*
Y085213D03*
Y085410D03*
Y085607D03*
Y085804D03*
Y086001D03*
G54D71*
X-075593Y007320D03*
Y010745D03*
Y022497D03*
Y025922D03*
Y037674D03*
Y041099D03*
Y052851D03*
Y056276D03*
Y068028D03*
Y071453D03*
Y083205D03*
Y086631D03*
X-075396Y007320D03*
Y010745D03*
Y022497D03*
Y025922D03*
Y037674D03*
Y041099D03*
Y052851D03*
Y056276D03*
Y068028D03*
Y071453D03*
Y083205D03*
Y086631D03*
X-075199Y007320D03*
Y010745D03*
Y022497D03*
Y025922D03*
Y037674D03*
Y041099D03*
Y052851D03*
Y056276D03*
Y068028D03*
Y071453D03*
Y083205D03*
Y086631D03*
X-075002Y007320D03*
Y010745D03*
Y022497D03*
Y025922D03*
Y037674D03*
Y041099D03*
Y052851D03*
Y056276D03*
Y068028D03*
Y071453D03*
Y083205D03*
Y086631D03*
X-074805Y007320D03*
Y010745D03*
Y022497D03*
Y025922D03*
Y037674D03*
Y041099D03*
Y052851D03*
Y056276D03*
Y068028D03*
Y071453D03*
Y083205D03*
Y086631D03*
X-074609Y007320D03*
Y010745D03*
Y022497D03*
Y025922D03*
Y037674D03*
Y041099D03*
Y052851D03*
Y056276D03*
Y068028D03*
Y071453D03*
Y083205D03*
Y086631D03*
X-074412Y007320D03*
Y010745D03*
Y022497D03*
Y025922D03*
Y037674D03*
Y041099D03*
Y052851D03*
Y056276D03*
Y068028D03*
Y071453D03*
Y083205D03*
Y086631D03*
X-074215Y007320D03*
Y010745D03*
Y022497D03*
Y025922D03*
Y037674D03*
Y041099D03*
Y052851D03*
Y056276D03*
Y068028D03*
Y071453D03*
Y083205D03*
Y086631D03*
X-074018Y007320D03*
Y010745D03*
Y022497D03*
Y025922D03*
Y037674D03*
Y041099D03*
Y052851D03*
Y056276D03*
Y068028D03*
Y071453D03*
Y083205D03*
Y086631D03*
X-073821Y007320D03*
Y010745D03*
Y022497D03*
Y025922D03*
Y037674D03*
Y041099D03*
Y052851D03*
Y056276D03*
Y068028D03*
Y071453D03*
Y083205D03*
Y086631D03*
X-073624Y007320D03*
Y010745D03*
Y022497D03*
Y025922D03*
Y037674D03*
Y041099D03*
Y052851D03*
Y056276D03*
Y068028D03*
Y071453D03*
Y083205D03*
Y086631D03*
X-073428Y007320D03*
Y010745D03*
Y022497D03*
Y025922D03*
Y037674D03*
Y041099D03*
Y052851D03*
Y056276D03*
Y068028D03*
Y071453D03*
Y083205D03*
Y086631D03*
X-020618Y007320D03*
Y010745D03*
Y022497D03*
Y025922D03*
Y037674D03*
Y041099D03*
Y052851D03*
Y056276D03*
Y068028D03*
Y071453D03*
Y083205D03*
Y086631D03*
X-020422Y007320D03*
Y010745D03*
Y022497D03*
Y025922D03*
Y037674D03*
Y041099D03*
Y052851D03*
Y056276D03*
Y068028D03*
Y071453D03*
Y083205D03*
Y086631D03*
X-020225Y007320D03*
Y010745D03*
Y022497D03*
Y025922D03*
Y037674D03*
Y041099D03*
Y052851D03*
Y056276D03*
Y068028D03*
Y071453D03*
Y083205D03*
Y086631D03*
X-020028Y007320D03*
Y010745D03*
Y022497D03*
Y025922D03*
Y037674D03*
Y041099D03*
Y052851D03*
Y056276D03*
Y068028D03*
Y071453D03*
Y083205D03*
Y086631D03*
X-019831Y007320D03*
Y010745D03*
Y022497D03*
Y025922D03*
Y037674D03*
Y041099D03*
Y052851D03*
Y056276D03*
Y068028D03*
Y071453D03*
Y083205D03*
Y086631D03*
X-019634Y007320D03*
Y010745D03*
Y022497D03*
Y025922D03*
Y037674D03*
Y041099D03*
Y052851D03*
Y056276D03*
Y068028D03*
Y071453D03*
Y083205D03*
Y086631D03*
X-019437Y007320D03*
Y010745D03*
Y022497D03*
Y025922D03*
Y037674D03*
Y041099D03*
Y052851D03*
Y056276D03*
Y068028D03*
Y071453D03*
Y083205D03*
Y086631D03*
X-019241Y007320D03*
Y010745D03*
Y022497D03*
Y025922D03*
Y037674D03*
Y041099D03*
Y052851D03*
Y056276D03*
Y068028D03*
Y071453D03*
Y083205D03*
Y086631D03*
X-019044Y007320D03*
Y010745D03*
Y022497D03*
Y025922D03*
Y037674D03*
Y041099D03*
Y052851D03*
Y056276D03*
Y068028D03*
Y071453D03*
Y083205D03*
Y086631D03*
X-018847Y007320D03*
Y010745D03*
Y022497D03*
Y025922D03*
Y037674D03*
Y041099D03*
Y052851D03*
Y056276D03*
Y068028D03*
Y071453D03*
Y083205D03*
Y086631D03*
X-018650Y007320D03*
Y010745D03*
Y022497D03*
Y025922D03*
Y037674D03*
Y041099D03*
Y052851D03*
Y056276D03*
Y068028D03*
Y071453D03*
Y083205D03*
Y086631D03*
X-018453Y007320D03*
Y010745D03*
Y022497D03*
Y025922D03*
Y037674D03*
Y041099D03*
Y052851D03*
Y056276D03*
Y068028D03*
Y071453D03*
Y083205D03*
Y086631D03*
G54D72*
X-089074Y006870D03*
Y022047D03*
Y037224D03*
Y052402D03*
Y067579D03*
Y082756D03*
X-088366Y006870D03*
Y022047D03*
Y037224D03*
Y052402D03*
Y067579D03*
Y082756D03*
X-034100Y006870D03*
Y022047D03*
Y037224D03*
Y052402D03*
Y067579D03*
Y082756D03*
X-033391Y006870D03*
Y022047D03*
Y037224D03*
Y052402D03*
Y067579D03*
Y082756D03*
G54D73*
X-079429Y010965D03*
Y011280D03*
Y026142D03*
Y026457D03*
Y041319D03*
Y041634D03*
Y056496D03*
Y056811D03*
Y071673D03*
Y071988D03*
Y086850D03*
Y087165D03*
X-078760Y010965D03*
Y011280D03*
Y026142D03*
Y026457D03*
Y041319D03*
Y041634D03*
Y056496D03*
Y056811D03*
Y071673D03*
Y071988D03*
Y086850D03*
Y087165D03*
X-024455Y010965D03*
Y011280D03*
Y026142D03*
Y026457D03*
Y041319D03*
Y041634D03*
Y056496D03*
Y056811D03*
Y071673D03*
Y071988D03*
Y086850D03*
Y087165D03*
X-023785Y010965D03*
Y011280D03*
Y026142D03*
Y026457D03*
Y041319D03*
Y041634D03*
Y056496D03*
Y056811D03*
Y071673D03*
Y071988D03*
Y086850D03*
Y087165D03*
M02*
