*
G04 Job   : N:\Projects\taras004\P08330\C0154134_4FHM\4-way_FHM_main\Panel_12215039\12215039.pnl*
G04 User  : UA220006:taras004*
G04 Layer : SolderPasteTop.gbr*
G04 Date  : Tue Aug 20 10:27:17 2024*
G04 Expedition Layer: Solder Paste - Top*
%ICAS*%
%MOIN*%
%FSDAX24Y24*%
%OFA0.0000B0.0000*%
G90*
G74*
%AMVB_RCRECTANGLE*
$3=$3X2*
21,1,$1-$3,$2,0,0,0*
21,1,$1,$2-$3,0,0,0*
$1=$1/2*
$2=$2/2*
$3=$3/2*
$1=$1-$3*
$2=$2-$3*
1,1,$3X2,0-$1,0-$2*
1,1,$3X2,0-$1,$2*
1,1,$3X2,$1,$2*
1,1,$3X2,$1,0-$2*
%
%ADD11C,0.00787*%
%ADD10C,0.03937*%
%ADD70C,0.09449*%
%ADD24VB_RCRECTANGLE,0.02362X0.01181X0.00197*%
%ADD20VB_RCRECTANGLE,0.01181X0.02362X0.00197*%
%ADD25VB_RCRECTANGLE,0.02362X0.01772X0.00197*%
%ADD71VB_RCRECTANGLE,0.01772X0.02362X0.00197*%
%ADD13VB_RCRECTANGLE,0.02953X0.02362X0.00197*%
%ADD14VB_RCRECTANGLE,0.02362X0.02953X0.00197*%
%ADD16VB_RCRECTANGLE,0.03937X0.02756X0.00197*%
%ADD19VB_RCRECTANGLE,0.02756X0.03937X0.00197*%
%ADD12VB_RCRECTANGLE,0.04331X0.02362X0.00197*%
%ADD15VB_RCRECTANGLE,0.02362X0.04331X0.00197*%
%ADD21VB_RCRECTANGLE,0.03150X0.04724X0.00197*%
%ADD17VB_RCRECTANGLE,0.03150X0.05906X0.00197*%
%ADD18VB_RCRECTANGLE,0.07480X0.06693X0.00197*%
%ADD23VB_RCRECTANGLE,0.09055X0.06299X0.00197*%
%ADD22VB_RCRECTANGLE,0.15157X0.06299X0.00197*%
G01*
G36*
X-105000Y-000283D02*
Y-000039D01*
X-105243*
G02X-105246Y000000I000282J000039*
X-104961Y000285I000285*
X-104921Y000283J000285*
G01Y000039*
X-104678*
G02X-104675Y000000I000283J000039*
X-104961Y-000285I000286*
X-105000Y-000283J000285*
G01Y000283D02*
Y000039D01*
X-105243*
G03X-105246Y000000I000282J000039*
X-104961Y-000285I000285*
X-104921Y-000283J000285*
G01Y-000039*
X-104678*
G03X-104675Y000000I000283J000039*
X-104961Y000285I000286*
X-105000Y000283J000285*
G01Y094205D02*
Y094449D01*
X-105243*
G02X-105246Y094488I000282J000039*
X-104961Y094774I000285*
X-104921Y094771J000286*
G01Y094528*
X-104678*
G02X-104675Y094488I000283J000040*
X-104961Y094203I000286*
X-105000Y094205J000285*
G01Y094771D02*
Y094528D01*
X-105243*
G03X-105246Y094488I000282J000040*
X-104961Y094203I000285*
X-104921Y094205J000285*
G01Y094449*
X-104678*
G03X-104675Y094488I000283J000039*
X-104961Y094774I000286*
X-105000Y094771J000286*
G01X-097480Y-000512D02*
X-097205D01*
Y000039*
X-097480*
Y-000512*
X-097008D02*
X-096732D01*
Y000039*
X-097008*
Y-000512*
X-096496D02*
X-096220D01*
Y000039*
X-096496*
Y-000512*
X-095906D02*
X-095630D01*
Y000039*
X-095906*
Y-000512*
X-095236D02*
X-094961D01*
Y000039*
X-095236*
Y-000512*
X-094409D02*
X-094134D01*
Y000039*
X-094409*
Y-000512*
X007362Y083543D02*
X007913D01*
Y083819*
X007362*
Y083543*
Y084016D02*
X007913D01*
Y084291*
X007362*
Y084016*
Y084528D02*
X007913D01*
Y084803*
X007362*
Y084528*
Y085118D02*
X007913D01*
Y085394*
X007362*
Y085118*
Y085787D02*
X007913D01*
Y086063*
X007362*
Y085787*
Y086614D02*
X007913D01*
Y086890*
X007362*
Y086614*
X007992Y094127D02*
Y094370D01*
X007749*
G02X007746Y094409I000282J000039*
X008031Y094695I000285*
X008071Y094692J000286*
G01Y094449*
X008314*
G02X008317Y094409I000283J000040*
X008031Y094124I000286*
X007992Y094127J000285*
G01Y094692D02*
Y094449D01*
X007749*
G03X007746Y094409I000282J000040*
X008031Y094124I000285*
X008071Y094127J000285*
G01Y094370*
X008314*
G03X008317Y094409I000283J000039*
X008031Y094695I000286*
X007992Y094692J000286*
G37*
G54D10*
G01X-038819Y-002008D02*
X-104914D01*
G02X-105068Y-001987J000591*
G01X-106492Y-001602*
G02X-106929Y-001032I000154J000570*
G01Y-001031*
Y095449*
G02X-106488Y096020I000590*
G01X-105067Y096398*
G02X-104916Y096417I000151J000572*
X-104913J000591*
G01X007992*
G02X008142Y096398I000001J000590*
G01X009563Y096024*
G02X010000Y095453I000154J000571*
G01Y-001031*
Y-001032*
G02X009563Y-001602I000591*
G01X008151Y-001987*
G02X007995Y-002008I000156J000570*
G01X-038819*
G54D11*
X-048620Y-000591D02*
Y-001575D01*
X-048181*
X-047492Y-001068D02*
X-047565Y-000978D01*
X-047638Y-000934*
X-047753*
X-047826Y-000978*
X-047899Y-001068*
X-047931Y-001202*
Y-001306*
X-047899Y-001441*
X-047826Y-001530*
X-047753Y-001575*
X-047638*
X-047565Y-001530*
X-047492Y-001441*
Y-000934D02*
Y-001575D01*
X-047210Y-000934D02*
X-047012Y-001575D01*
X-046803Y-000934D02*
X-047012Y-001575D01*
X-047075Y-001769*
X-047148Y-001858*
X-047210Y-001903*
X-047242*
X-046553Y-001202D02*
X-046114D01*
Y-001113*
X-046146Y-001023*
X-046187Y-000978*
X-046260Y-000934*
X-046375*
X-046448Y-000978*
X-046521Y-001068*
X-046553Y-001202*
Y-001306*
X-046521Y-001441*
X-046448Y-001530*
X-046375Y-001575*
X-046260*
X-046187Y-001530*
X-046114Y-001441*
X-045864Y-001202D02*
X-045812Y-001068D01*
X-045707Y-000978*
X-045592Y-000934*
X-045425*
X-045864D02*
Y-001575D01*
X-044486Y-000591D02*
X-044047D01*
X-044267D02*
Y-001575D01*
X-043640Y-000591D02*
X-043692Y-000650D01*
X-043745Y-000740*
X-043776Y-000829*
X-043797Y-000963*
Y-001202*
X-043776Y-001336*
X-043745Y-001441*
X-043692Y-001530*
X-043640Y-001575*
X-043525*
X-043473Y-001530*
X-043411Y-001441*
X-043390Y-001336*
X-043358Y-001202*
Y-000963*
X-043390Y-000829*
X-043411Y-000740*
X-043473Y-000650*
X-043525Y-000591*
X-043640*
X-043108Y-001575D02*
Y-000591D01*
X-042826*
X-042732Y-000650*
X-042701Y-000695*
X-042669Y-000784*
Y-000919*
X-042701Y-001023*
X-042732Y-001068*
X-042826Y-001113*
X-043108*
X-039958Y-001575D02*
Y-000591D01*
X-039676*
X-039582Y-000650*
X-039551Y-000695*
X-039520Y-000784*
Y-000919*
X-039551Y-001023*
X-039582Y-001068*
X-039676Y-001113*
X-039958*
X-039269Y-001575D02*
Y-000591D01*
X-039050Y-001575*
X-038831Y-000591*
Y-001575*
X-032179Y-001068D02*
X-031897D01*
X-031803Y-001113*
X-031772Y-001157*
X-031741Y-001247*
Y-001396*
X-031772Y-001485*
X-031803Y-001530*
X-031897Y-001575*
X-032179*
Y-000591*
X-031897*
X-031803Y-000650*
X-031772Y-000695*
X-031741Y-000784*
Y-000874*
X-031772Y-000963*
X-031803Y-001023*
X-031897Y-001068*
X-031490Y-001575D02*
Y-000591D01*
X-031208*
X-031114Y-000650*
X-031083Y-000695*
X-031052Y-000784*
Y-000874*
X-031083Y-000963*
X-031114Y-001023*
X-031208Y-001068*
X-031490*
X-031271D02*
X-031052Y-001575D01*
X-030801Y-000591D02*
X-030582D01*
X-030488Y-000650*
X-030425Y-000740*
X-030394Y-000829*
X-030363Y-000963*
Y-001202*
X-030394Y-001336*
X-030425Y-001441*
X-030488Y-001530*
X-030582Y-001575*
X-030801*
Y-000591*
X-029256Y-000784D02*
X-029215Y-000740D01*
X-029162Y-000605*
Y-001575*
X-028703Y-000829D02*
Y-000784D01*
X-028672Y-000695*
X-028640Y-000650*
X-028578Y-000591*
X-028452*
X-028390Y-000650*
X-028359Y-000695*
X-028327Y-000784*
Y-000874*
X-028359Y-000963*
X-028421Y-001113*
X-028734Y-001575*
X-028296*
X-028014Y-000829D02*
Y-000784D01*
X-027983Y-000695*
X-027951Y-000650*
X-027889Y-000591*
X-027764*
X-027701Y-000650*
X-027670Y-000695*
X-027638Y-000784*
Y-000874*
X-027670Y-000963*
X-027732Y-001113*
X-028045Y-001575*
X-027607*
X-027189Y-000784D02*
X-027148Y-000740D01*
X-027095Y-000605*
Y-001575*
X-026292Y-000605D02*
X-026605D01*
X-026636Y-001023*
X-026605Y-000978*
X-026511Y-000934*
X-026417*
X-026323Y-000978*
X-026260Y-001068*
X-026229Y-001202*
Y-001306*
X-026260Y-001441*
X-026323Y-001530*
X-026417Y-001575*
X-026511*
X-026605Y-001530*
X-026636Y-001485*
X-026667Y-001396*
X-025791Y-000605D02*
X-025885Y-000650D01*
X-025947Y-000784*
X-025979Y-001023*
Y-001157*
X-025947Y-001396*
X-025885Y-001530*
X-025791Y-001575*
X-025728*
X-025634Y-001530*
X-025571Y-001396*
X-025540Y-001157*
Y-001023*
X-025571Y-000784*
X-025634Y-000650*
X-025728Y-000605*
X-025791*
X-025227D02*
X-024882D01*
X-025070Y-000978*
X-024976*
X-024914Y-001023*
X-024882Y-001068*
X-024851Y-001202*
Y-001306*
X-024882Y-001441*
X-024945Y-001530*
X-025039Y-001575*
X-025133*
X-025227Y-001530*
X-025258Y-001485*
X-025290Y-001396*
X-024601Y-000605D02*
X-024162D01*
X-024475Y-001575*
X-023035Y-000605D02*
X-023129Y-000650D01*
X-023191Y-000784*
X-023223Y-001023*
Y-001157*
X-023191Y-001396*
X-023129Y-001530*
X-023035Y-001575*
X-022972*
X-022878Y-001530*
X-022816Y-001396*
X-022784Y-001157*
Y-001023*
X-022816Y-000784*
X-022878Y-000650*
X-022972Y-000605*
X-023035*
X-022346D02*
X-022440Y-000650D01*
X-022502Y-000784*
X-022534Y-001023*
Y-001157*
X-022502Y-001396*
X-022440Y-001530*
X-022346Y-001575*
X-022283*
X-022189Y-001530*
X-022127Y-001396*
X-022095Y-001157*
Y-001023*
X-022127Y-000784*
X-022189Y-000650*
X-022283Y-000605*
X-022346*
X-021156Y-001575D02*
Y-000591D01*
X-020874*
X-020780Y-000650*
X-020749Y-000695*
X-020717Y-000784*
Y-000919*
X-020749Y-001023*
X-020780Y-001068*
X-020874Y-001113*
X-021156*
X-020467Y-001575D02*
Y-000591D01*
X-020028Y-001575*
Y-000591*
X-019778D02*
Y-001575D01*
X-019339*
X-018233Y-000784D02*
X-018191Y-000740D01*
X-018139Y-000605*
Y-001575*
X-017680Y-000829D02*
Y-000784D01*
X-017648Y-000695*
X-017617Y-000650*
X-017554Y-000591*
X-017429*
X-017366Y-000650*
X-017335Y-000695*
X-017304Y-000784*
Y-000874*
X-017335Y-000963*
X-017398Y-001113*
X-017711Y-001575*
X-017273*
X-016991Y-000829D02*
Y-000784D01*
X-016959Y-000695*
X-016928Y-000650*
X-016865Y-000591*
X-016740*
X-016678Y-000650*
X-016646Y-000695*
X-016615Y-000784*
Y-000874*
X-016646Y-000963*
X-016709Y-001113*
X-017022Y-001575*
X-016584*
X-016166Y-000784D02*
X-016124Y-000740D01*
X-016072Y-000605*
Y-001575*
X-015268Y-000605D02*
X-015581D01*
X-015613Y-001023*
X-015581Y-000978*
X-015487Y-000934*
X-015394*
X-015300Y-000978*
X-015237Y-001068*
X-015206Y-001202*
Y-001306*
X-015237Y-001441*
X-015300Y-001530*
X-015394Y-001575*
X-015487*
X-015581Y-001530*
X-015613Y-001485*
X-015644Y-001396*
X-014767Y-000605D02*
X-014861Y-000650D01*
X-014924Y-000784*
X-014955Y-001023*
Y-001157*
X-014924Y-001396*
X-014861Y-001530*
X-014767Y-001575*
X-014705*
X-014611Y-001530*
X-014548Y-001396*
X-014517Y-001157*
Y-001023*
X-014548Y-000784*
X-014611Y-000650*
X-014705Y-000605*
X-014767*
X-014204D02*
X-013859D01*
X-014047Y-000978*
X-013953*
X-013890Y-001023*
X-013859Y-001068*
X-013828Y-001202*
Y-001306*
X-013859Y-001441*
X-013922Y-001530*
X-014016Y-001575*
X-014110*
X-014204Y-001530*
X-014235Y-001485*
X-014266Y-001396*
X-013139Y-000919D02*
X-013170Y-001068D01*
X-013233Y-001157*
X-013348Y-001202*
X-013379*
X-013483Y-001157*
X-013546Y-001068*
X-013577Y-000919*
Y-000874*
X-013546Y-000740*
X-013483Y-000650*
X-013379Y-000605*
X-013348*
X-013233Y-000650*
X-013170Y-000740*
X-013139Y-000919*
Y-001157*
X-013170Y-001396*
X-013233Y-001530*
X-013348Y-001575*
X-013410*
X-013515Y-001530*
X-013546Y-001441*
X-012011Y-000605D02*
X-012105Y-000650D01*
X-012168Y-000784*
X-012199Y-001023*
Y-001157*
X-012168Y-001396*
X-012105Y-001530*
X-012011Y-001575*
X-011949*
X-011855Y-001530*
X-011792Y-001396*
X-011761Y-001157*
Y-001023*
X-011792Y-000784*
X-011855Y-000650*
X-011949Y-000605*
X-012011*
X-011322D02*
X-011416Y-000650D01*
X-011479Y-000784*
X-011510Y-001023*
Y-001157*
X-011479Y-001396*
X-011416Y-001530*
X-011322Y-001575*
X-011260*
X-011166Y-001530*
X-011103Y-001396*
X-011072Y-001157*
Y-001023*
X-011103Y-000784*
X-011166Y-000650*
X-011260Y-000605*
X-011322*
X-000591Y000000D02*
X000591D01*
X000000Y000591D02*
Y-000591D01*
G54D12*
X-080374Y005549D03*
Y012915D03*
Y020726D03*
Y028093D03*
Y035904D03*
Y043270D03*
Y051081D03*
Y058447D03*
Y066258D03*
Y073624D03*
Y081435D03*
Y088801D03*
X-065522Y005550D03*
Y020727D03*
Y035905D03*
Y051082D03*
Y066259D03*
Y081436D03*
X-065521Y012915D03*
Y028093D03*
Y043270D03*
Y058447D03*
Y073624D03*
Y088801D03*
X-025400Y005549D03*
Y012915D03*
Y020726D03*
Y028093D03*
Y035904D03*
Y043270D03*
Y051081D03*
Y058447D03*
Y066258D03*
Y073624D03*
Y081435D03*
Y088801D03*
X-010548Y005550D03*
Y020727D03*
Y035905D03*
Y051082D03*
Y066259D03*
Y081436D03*
X-010546Y012915D03*
Y028093D03*
Y043270D03*
Y058447D03*
Y073624D03*
Y088801D03*
G54D13*
X-079911Y005549D03*
Y012915D03*
Y020726D03*
Y028093D03*
Y035904D03*
Y043270D03*
Y051081D03*
Y058447D03*
Y066258D03*
Y073624D03*
Y081435D03*
Y088801D03*
X-065060Y005550D03*
Y020727D03*
Y035905D03*
Y051082D03*
Y066259D03*
Y081436D03*
X-065058Y012915D03*
Y028093D03*
Y043270D03*
Y058447D03*
Y073624D03*
Y088801D03*
X-024937Y005549D03*
Y012915D03*
Y020726D03*
Y028093D03*
Y035904D03*
Y043270D03*
Y051081D03*
Y058447D03*
Y066258D03*
Y073624D03*
Y081435D03*
Y088801D03*
X-010085Y005550D03*
Y020727D03*
Y035905D03*
Y051082D03*
Y066259D03*
Y081436D03*
X-010084Y012915D03*
Y028093D03*
Y043270D03*
Y058447D03*
Y073624D03*
Y088801D03*
G54D14*
X-101457Y005719D03*
Y020896D03*
Y036073D03*
Y051250D03*
Y066427D03*
Y081604D03*
Y012746D03*
Y027923D03*
Y043100D03*
Y058278D03*
Y073455D03*
Y088632D03*
X-100748Y009498D03*
Y024675D03*
Y039852D03*
Y055030D03*
Y070207D03*
Y085384D03*
X-098858Y005167D03*
Y013297D03*
Y020344D03*
Y028474D03*
Y035522D03*
Y043652D03*
Y050699D03*
Y058829D03*
Y065876D03*
Y074006D03*
Y081053D03*
Y089183D03*
X-092685Y009498D03*
Y024675D03*
Y039852D03*
Y055030D03*
Y070207D03*
Y085384D03*
X-052047Y005620D03*
Y020797D03*
Y035974D03*
Y051152D03*
Y066329D03*
Y081506D03*
X-052036Y009501D03*
Y024678D03*
Y039856D03*
Y055033D03*
Y070210D03*
Y085387D03*
X-046482Y005719D03*
Y020896D03*
Y036073D03*
Y051250D03*
Y066427D03*
Y081604D03*
Y012746D03*
Y027923D03*
Y043100D03*
Y058278D03*
Y073455D03*
Y088632D03*
X-045774Y009498D03*
Y024675D03*
Y039852D03*
Y055030D03*
Y070207D03*
Y085384D03*
X-043884Y005167D03*
Y013297D03*
Y020344D03*
Y028474D03*
Y035522D03*
Y043652D03*
Y050699D03*
Y058829D03*
Y065876D03*
Y074006D03*
Y081053D03*
Y089183D03*
X-037711Y009498D03*
Y024675D03*
Y039852D03*
Y055030D03*
Y070207D03*
Y085384D03*
X002927Y005620D03*
Y020797D03*
Y035974D03*
Y051152D03*
Y066329D03*
Y081506D03*
X002938Y009501D03*
Y024678D03*
Y039856D03*
Y055033D03*
Y070210D03*
Y085387D03*
G54D15*
X-101457Y005256D03*
Y020433D03*
Y035610D03*
Y050787D03*
Y065965D03*
Y081142D03*
Y013209D03*
Y028386D03*
Y043563D03*
Y058740D03*
Y073917D03*
Y089094D03*
X-100748Y009035D03*
Y024213D03*
Y039390D03*
Y054567D03*
Y069744D03*
Y084921D03*
X-098858Y004705D03*
Y013760D03*
Y019882D03*
Y028937D03*
Y035059D03*
Y044114D03*
Y050236D03*
Y059291D03*
Y065413D03*
Y074469D03*
Y080591D03*
Y089646D03*
X-092685Y009035D03*
Y024213D03*
Y039390D03*
Y054567D03*
Y069744D03*
Y084921D03*
X-052047Y006083D03*
Y021260D03*
Y036437D03*
Y051614D03*
Y066791D03*
Y081969D03*
X-052036Y009039D03*
Y024216D03*
Y039393D03*
Y054570D03*
Y069747D03*
Y084924D03*
X-046482Y005256D03*
Y020433D03*
Y035610D03*
Y050787D03*
Y065965D03*
Y081142D03*
Y013209D03*
Y028386D03*
Y043563D03*
Y058740D03*
Y073917D03*
Y089094D03*
X-045774Y009035D03*
Y024213D03*
Y039390D03*
Y054567D03*
Y069744D03*
Y084921D03*
X-043884Y004705D03*
Y013760D03*
Y019882D03*
Y028937D03*
Y035059D03*
Y044114D03*
Y050236D03*
Y059291D03*
Y065413D03*
Y074469D03*
Y080591D03*
Y089646D03*
X-037711Y009035D03*
Y024213D03*
Y039390D03*
Y054567D03*
Y069744D03*
Y084921D03*
X002927Y006083D03*
Y021260D03*
Y036437D03*
Y051614D03*
Y066791D03*
Y081969D03*
X002938Y009039D03*
Y024216D03*
Y039393D03*
Y054570D03*
Y069747D03*
Y084924D03*
G54D16*
X-094882Y006516D03*
Y007067D03*
Y021693D03*
Y022244D03*
Y036870D03*
Y037421D03*
Y052047D03*
Y052598D03*
Y067224D03*
Y067776D03*
Y082402D03*
Y082953D03*
X-070118Y006083D03*
Y006634D03*
Y021260D03*
Y021811D03*
Y036437D03*
Y036988D03*
Y051614D03*
Y052165D03*
Y066791D03*
Y067343D03*
Y081969D03*
Y082520D03*
X-068022Y005679D03*
Y006230D03*
Y020856D03*
Y021407D03*
Y036033D03*
Y036584D03*
Y051210D03*
Y051762D03*
Y066388D03*
Y066939D03*
Y081565D03*
Y082116D03*
X-039907Y006516D03*
Y007067D03*
Y021693D03*
Y022244D03*
Y036870D03*
Y037421D03*
Y052047D03*
Y052598D03*
Y067224D03*
Y067776D03*
Y082402D03*
Y082953D03*
X-015144Y006083D03*
Y006634D03*
Y021260D03*
Y021811D03*
Y036437D03*
Y036988D03*
Y051614D03*
Y052165D03*
Y066791D03*
Y067343D03*
Y081969D03*
Y082520D03*
X-013047Y005679D03*
Y006230D03*
Y020856D03*
Y021407D03*
Y036033D03*
Y036584D03*
Y051210D03*
Y051762D03*
Y066388D03*
Y066939D03*
Y081565D03*
Y082116D03*
G54D17*
X-082736Y009862D03*
Y025039D03*
Y040217D03*
Y055394D03*
Y070571D03*
Y085748D03*
X-081988Y009862D03*
Y025039D03*
Y040217D03*
Y055394D03*
Y070571D03*
Y085748D03*
X-027762Y009862D03*
Y025039D03*
Y040217D03*
Y055394D03*
Y070571D03*
Y085748D03*
X-027014Y009862D03*
Y025039D03*
Y040217D03*
Y055394D03*
Y070571D03*
Y085748D03*
G54D18*
X-083346Y010965D03*
Y026142D03*
Y041319D03*
Y056496D03*
Y071673D03*
Y086850D03*
X-081850Y010965D03*
Y026142D03*
Y041319D03*
Y056496D03*
Y071673D03*
Y086850D03*
X-028372Y010965D03*
Y026142D03*
Y041319D03*
Y056496D03*
Y071673D03*
Y086850D03*
X-026876Y010965D03*
Y026142D03*
Y041319D03*
Y056496D03*
Y071673D03*
Y086850D03*
G54D19*
X-099094Y011634D03*
Y026811D03*
Y041988D03*
Y057165D03*
Y072343D03*
Y087520D03*
X-098622Y007106D03*
Y022283D03*
Y037461D03*
Y052638D03*
Y067815D03*
Y082992D03*
X-098543Y011634D03*
Y026811D03*
Y041988D03*
Y057165D03*
Y072343D03*
Y087520D03*
X-098071Y007106D03*
Y022283D03*
Y037461D03*
Y052638D03*
Y067815D03*
Y082992D03*
X-097677Y006280D03*
Y021457D03*
Y036634D03*
Y051811D03*
Y066988D03*
Y082165D03*
X-097638Y012185D03*
Y027362D03*
Y042539D03*
Y057717D03*
Y072894D03*
Y088071D03*
X-097126Y006280D03*
Y021457D03*
Y036634D03*
Y051811D03*
Y066988D03*
Y082165D03*
X-097087Y012185D03*
Y027362D03*
Y042539D03*
Y057717D03*
Y072894D03*
Y088071D03*
X-095945Y006319D03*
Y021496D03*
Y036673D03*
Y051850D03*
Y067028D03*
Y082205D03*
X-095394Y006319D03*
Y021496D03*
Y036673D03*
Y051850D03*
Y067028D03*
Y082205D03*
X-069921Y012618D03*
Y027795D03*
Y042972D03*
Y058150D03*
Y073327D03*
Y088504D03*
X-069370Y012618D03*
Y027795D03*
Y042972D03*
Y058150D03*
Y073327D03*
Y088504D03*
X-062874Y004213D03*
Y014272D03*
Y019390D03*
Y029449D03*
Y034567D03*
Y044626D03*
Y049744D03*
Y059803D03*
Y064921D03*
Y074980D03*
Y080098D03*
Y090157D03*
X-062323Y004213D03*
Y014272D03*
Y019390D03*
Y029449D03*
Y034567D03*
Y044626D03*
Y049744D03*
Y059803D03*
Y064921D03*
Y074980D03*
Y080098D03*
Y090157D03*
X-061897Y014254D03*
Y029431D03*
Y044608D03*
Y059785D03*
Y074962D03*
Y090140D03*
X-061850Y004193D03*
Y019370D03*
Y034547D03*
Y049724D03*
Y064902D03*
Y080079D03*
X-061346Y014254D03*
Y029431D03*
Y044608D03*
Y059785D03*
Y074962D03*
Y090140D03*
X-061299Y004193D03*
Y019370D03*
Y034547D03*
Y049724D03*
Y064902D03*
Y080079D03*
X-060898Y014257D03*
Y029435D03*
Y044612D03*
Y059789D03*
Y074966D03*
Y090143D03*
X-060880Y004189D03*
Y019366D03*
Y034543D03*
Y049720D03*
Y064897D03*
Y080074D03*
X-060346Y014257D03*
Y029435D03*
Y044612D03*
Y059789D03*
Y074966D03*
Y090143D03*
X-060329Y004189D03*
Y019366D03*
Y034543D03*
Y049720D03*
Y064897D03*
Y080074D03*
X-044120Y011634D03*
Y026811D03*
Y041988D03*
Y057165D03*
Y072343D03*
Y087520D03*
X-043648Y007106D03*
Y022283D03*
Y037461D03*
Y052638D03*
Y067815D03*
Y082992D03*
X-043569Y011634D03*
Y026811D03*
Y041988D03*
Y057165D03*
Y072343D03*
Y087520D03*
X-043096Y007106D03*
Y022283D03*
Y037461D03*
Y052638D03*
Y067815D03*
Y082992D03*
X-042703Y006280D03*
Y021457D03*
Y036634D03*
Y051811D03*
Y066988D03*
Y082165D03*
X-042663Y012185D03*
Y027362D03*
Y042539D03*
Y057717D03*
Y072894D03*
Y088071D03*
X-042152Y006280D03*
Y021457D03*
Y036634D03*
Y051811D03*
Y066988D03*
Y082165D03*
X-042112Y012185D03*
Y027362D03*
Y042539D03*
Y057717D03*
Y072894D03*
Y088071D03*
X-040970Y006319D03*
Y021496D03*
Y036673D03*
Y051850D03*
Y067028D03*
Y082205D03*
X-040419Y006319D03*
Y021496D03*
Y036673D03*
Y051850D03*
Y067028D03*
Y082205D03*
X-014947Y012618D03*
Y027795D03*
Y042972D03*
Y058150D03*
Y073327D03*
Y088504D03*
X-014396Y012618D03*
Y027795D03*
Y042972D03*
Y058150D03*
Y073327D03*
Y088504D03*
X-007900Y004213D03*
Y014272D03*
Y019390D03*
Y029449D03*
Y034567D03*
Y044626D03*
Y049744D03*
Y059803D03*
Y064921D03*
Y074980D03*
Y080098D03*
Y090157D03*
X-007348Y004213D03*
Y014272D03*
Y019390D03*
Y029449D03*
Y034567D03*
Y044626D03*
Y049744D03*
Y059803D03*
Y064921D03*
Y074980D03*
Y080098D03*
Y090157D03*
X-006922Y014254D03*
Y029431D03*
Y044608D03*
Y059785D03*
Y074962D03*
Y090140D03*
X-006876Y004193D03*
Y019370D03*
Y034547D03*
Y049724D03*
Y064902D03*
Y080079D03*
X-006371Y014254D03*
Y029431D03*
Y044608D03*
Y059785D03*
Y074962D03*
Y090140D03*
X-006325Y004193D03*
Y019370D03*
Y034547D03*
Y049724D03*
Y064902D03*
Y080079D03*
X-005923Y014257D03*
Y029435D03*
Y044612D03*
Y059789D03*
Y074966D03*
Y090143D03*
X-005906Y004189D03*
Y019366D03*
Y034543D03*
Y049720D03*
Y064897D03*
Y080074D03*
X-005372Y014257D03*
Y029435D03*
Y044612D03*
Y059789D03*
Y074966D03*
Y090143D03*
X-005355Y004189D03*
Y019366D03*
Y034543D03*
Y049720D03*
Y064897D03*
Y080074D03*
G54D20*
X-086478Y005618D03*
Y006051D03*
Y020795D03*
Y021228D03*
Y035972D03*
Y036405D03*
Y051149D03*
Y051582D03*
Y066326D03*
Y066759D03*
Y081504D03*
Y081937D03*
X-086278Y005618D03*
Y006051D03*
Y020795D03*
Y021228D03*
Y035972D03*
Y036405D03*
Y051149D03*
Y051582D03*
Y066326D03*
Y066759D03*
Y081504D03*
Y081937D03*
X-031504Y005618D03*
Y006051D03*
Y020795D03*
Y021228D03*
Y035972D03*
Y036405D03*
Y051149D03*
Y051582D03*
Y066326D03*
Y066759D03*
Y081504D03*
Y081937D03*
X-031303Y005618D03*
Y006051D03*
Y020795D03*
Y021228D03*
Y035972D03*
Y036405D03*
Y051149D03*
Y051582D03*
Y066326D03*
Y066759D03*
Y081504D03*
Y081937D03*
G54D21*
X-069429Y006398D03*
Y021575D03*
Y036752D03*
Y051929D03*
Y067106D03*
Y082283D03*
X-069055Y005453D03*
Y020630D03*
Y035807D03*
Y050984D03*
Y066161D03*
Y081339D03*
X-068799Y012678D03*
Y027855D03*
Y043032D03*
Y058209D03*
Y073387D03*
Y088564D03*
X-068681Y006398D03*
Y021575D03*
Y036752D03*
Y051929D03*
Y067106D03*
Y082283D03*
X-068425Y011733D03*
Y026910D03*
Y042087D03*
Y057265D03*
Y072442D03*
Y087619D03*
X-068051Y012678D03*
Y027855D03*
Y043032D03*
Y058209D03*
Y073387D03*
Y088564D03*
X-014455Y006398D03*
Y021575D03*
Y036752D03*
Y051929D03*
Y067106D03*
Y082283D03*
X-014081Y005453D03*
Y020630D03*
Y035807D03*
Y050984D03*
Y066161D03*
Y081339D03*
X-013825Y012678D03*
Y027855D03*
Y043032D03*
Y058209D03*
Y073387D03*
Y088564D03*
X-013707Y006398D03*
Y021575D03*
Y036752D03*
Y051929D03*
Y067106D03*
Y082283D03*
X-013451Y011733D03*
Y026910D03*
Y042087D03*
Y057265D03*
Y072442D03*
Y087619D03*
X-013077Y012678D03*
Y027855D03*
Y043032D03*
Y058209D03*
Y073387D03*
Y088564D03*
G54D22*
X-085290Y013091D03*
Y028269D03*
Y043446D03*
Y058623D03*
Y073800D03*
Y088977D03*
X-083223Y013091D03*
Y028269D03*
Y043446D03*
Y058623D03*
Y073800D03*
Y088977D03*
X-030315Y013091D03*
Y028269D03*
Y043446D03*
Y058623D03*
Y073800D03*
Y088977D03*
X-028248Y013091D03*
Y028269D03*
Y043446D03*
Y058623D03*
Y073800D03*
Y088977D03*
G54D23*
X-082874Y007234D03*
Y008947D03*
Y022411D03*
Y024124D03*
Y037589D03*
Y039301D03*
Y052766D03*
Y054478D03*
Y067943D03*
Y069656D03*
Y083120D03*
Y084833D03*
X-027900Y007234D03*
Y008947D03*
Y022411D03*
Y024124D03*
Y037589D03*
Y039301D03*
Y052766D03*
Y054478D03*
Y067943D03*
Y069656D03*
Y083120D03*
Y084833D03*
G54D24*
X-088957Y012951D03*
Y013152D03*
Y028128D03*
Y028329D03*
Y043305D03*
Y043506D03*
Y058482D03*
Y058683D03*
Y073659D03*
Y073860D03*
Y088837D03*
Y089037D03*
X-088524Y012951D03*
Y013152D03*
Y028128D03*
Y028329D03*
Y043305D03*
Y043506D03*
Y058482D03*
Y058683D03*
Y073659D03*
Y073860D03*
Y088837D03*
Y089037D03*
X-033982Y012951D03*
Y013152D03*
Y028128D03*
Y028329D03*
Y043305D03*
Y043506D03*
Y058482D03*
Y058683D03*
Y073659D03*
Y073860D03*
Y088837D03*
Y089037D03*
X-033549Y012951D03*
Y013152D03*
Y028128D03*
Y028329D03*
Y043305D03*
Y043506D03*
Y058482D03*
Y058683D03*
Y073659D03*
Y073860D03*
Y088837D03*
Y089037D03*
G54D25*
X-088957Y012711D03*
Y013392D03*
Y027888D03*
Y028569D03*
Y043065D03*
Y043746D03*
Y058242D03*
Y058923D03*
Y073419D03*
Y074100D03*
Y088596D03*
Y089278D03*
X-088524Y012711D03*
Y013392D03*
Y027888D03*
Y028569D03*
Y043065D03*
Y043746D03*
Y058242D03*
Y058923D03*
Y073419D03*
Y074100D03*
Y088596D03*
Y089278D03*
X-033982Y012711D03*
Y013392D03*
Y027888D03*
Y028569D03*
Y043065D03*
Y043746D03*
Y058242D03*
Y058923D03*
Y073419D03*
Y074100D03*
Y088596D03*
Y089278D03*
X-033549Y012711D03*
Y013392D03*
Y027888D03*
Y028569D03*
Y043065D03*
Y043746D03*
Y058242D03*
Y058923D03*
Y073419D03*
Y074100D03*
Y088596D03*
Y089278D03*
G54D70*
X-103110Y008051D03*
Y010413D03*
Y023228D03*
Y025591D03*
Y038406D03*
Y040768D03*
Y053583D03*
Y055945D03*
Y068760D03*
Y071122D03*
Y083937D03*
Y086299D03*
X-102210Y002921D03*
Y018099D03*
Y033276D03*
Y048453D03*
Y063630D03*
Y078807D03*
Y015543D03*
Y030720D03*
Y045898D03*
Y061075D03*
Y076252D03*
Y091429D03*
X-099883Y003332D03*
Y018509D03*
Y033686D03*
Y048863D03*
Y064040D03*
Y079217D03*
Y015133D03*
Y030310D03*
Y045487D03*
Y060665D03*
Y075842D03*
Y091019D03*
X-093740Y008051D03*
Y010413D03*
Y023228D03*
Y025591D03*
Y038406D03*
Y040768D03*
Y053583D03*
Y055945D03*
Y068760D03*
Y071122D03*
Y083937D03*
Y086299D03*
X-091662Y008051D03*
Y010413D03*
Y023228D03*
Y025591D03*
Y038406D03*
Y040768D03*
Y053583D03*
Y055945D03*
Y068760D03*
Y071122D03*
Y083937D03*
Y086299D03*
X-090323Y004547D03*
Y006909D03*
Y011555D03*
Y013917D03*
Y019724D03*
Y022087D03*
Y026732D03*
Y029094D03*
Y034902D03*
Y037264D03*
Y041909D03*
Y044272D03*
Y050079D03*
Y052441D03*
Y057087D03*
Y059449D03*
Y065256D03*
Y067618D03*
Y072264D03*
Y074626D03*
Y080433D03*
Y082795D03*
Y087441D03*
Y089803D03*
X-053217Y011598D03*
Y026775D03*
Y041952D03*
Y057129D03*
Y072306D03*
Y087484D03*
X-050855Y011598D03*
Y026775D03*
Y041952D03*
Y057129D03*
Y072306D03*
Y087484D03*
X-048136Y008051D03*
Y010413D03*
Y023228D03*
Y025591D03*
Y038406D03*
Y040768D03*
Y053583D03*
Y055945D03*
Y068760D03*
Y071122D03*
Y083937D03*
Y086299D03*
X-047235Y002921D03*
Y018099D03*
Y033276D03*
Y048453D03*
Y063630D03*
Y078807D03*
Y015543D03*
Y030720D03*
Y045898D03*
Y061075D03*
Y076252D03*
Y091429D03*
X-044909Y003332D03*
Y018509D03*
Y033686D03*
Y048863D03*
Y064040D03*
Y079217D03*
Y015133D03*
Y030310D03*
Y045487D03*
Y060665D03*
Y075842D03*
Y091019D03*
X-038766Y008051D03*
Y010413D03*
Y023228D03*
Y025591D03*
Y038406D03*
Y040768D03*
Y053583D03*
Y055945D03*
Y068760D03*
Y071122D03*
Y083937D03*
Y086299D03*
X-036687Y008051D03*
Y010413D03*
Y023228D03*
Y025591D03*
Y038406D03*
Y040768D03*
Y053583D03*
Y055945D03*
Y068760D03*
Y071122D03*
Y083937D03*
Y086299D03*
X-035349Y004547D03*
Y006909D03*
Y011555D03*
Y013917D03*
Y019724D03*
Y022087D03*
Y026732D03*
Y029094D03*
Y034902D03*
Y037264D03*
Y041909D03*
Y044272D03*
Y050079D03*
Y052441D03*
Y057087D03*
Y059449D03*
Y065256D03*
Y067618D03*
Y072264D03*
Y074626D03*
Y080433D03*
Y082795D03*
Y087441D03*
Y089803D03*
X001757Y011598D03*
Y026775D03*
Y041952D03*
Y057129D03*
Y072306D03*
Y087484D03*
X004119Y011598D03*
Y026775D03*
Y041952D03*
Y057129D03*
Y072306D03*
Y087484D03*
G54D71*
X-086719Y005618D03*
Y006051D03*
Y020795D03*
Y021228D03*
Y035972D03*
Y036405D03*
Y051149D03*
Y051582D03*
Y066326D03*
Y066759D03*
Y081504D03*
Y081937D03*
X-086037Y005618D03*
Y006051D03*
Y020795D03*
Y021228D03*
Y035972D03*
Y036405D03*
Y051149D03*
Y051582D03*
Y066326D03*
Y066759D03*
Y081504D03*
Y081937D03*
X-031744Y005618D03*
Y006051D03*
Y020795D03*
Y021228D03*
Y035972D03*
Y036405D03*
Y051149D03*
Y051582D03*
Y066326D03*
Y066759D03*
Y081504D03*
Y081937D03*
X-031063Y005618D03*
Y006051D03*
Y020795D03*
Y021228D03*
Y035972D03*
Y036405D03*
Y051149D03*
Y051582D03*
Y066326D03*
Y066759D03*
Y081504D03*
Y081937D03*
M02*
