*
G04 Job   : N:\Projects\taras004\P08330\C0161457\12195005_DAI_FH_2x_coding\Panel_12195004\12195004.pnl*
G04 User  : UA220006:taras004*
G04 Layer : SolderPasteTop.gbr*
G04 Date  : Wed Dec 04 12:12:33 2024*
G04 Expedition Layer: Solder Paste - Top*
%ICAS*%
%MOIN*%
%FSDAX24Y24*%
%OFA0.0000B0.0000*%
G90*
G74*
%AMVB_RCRECTANGLE*
$3=$3X2*
21,1,$1-$3,$2,0,0,0*
21,1,$1,$2-$3,0,0,0*
$1=$1/2*
$2=$2/2*
$3=$3/2*
$1=$1-$3*
$2=$2-$3*
1,1,$3X2,0-$1,0-$2*
1,1,$3X2,0-$1,$2*
1,1,$3X2,$1,$2*
1,1,$3X2,$1,0-$2*
%
%ADD11C,0.00787*%
%ADD10C,0.03937*%
%ADD16VB_RCRECTANGLE,0.02756X0.01969X0.00197*%
%ADD18VB_RCRECTANGLE,0.01969X0.02756X0.00197*%
%ADD12VB_RCRECTANGLE,0.02362X0.02953X0.00197*%
%ADD15VB_RCRECTANGLE,0.04134X0.01969X0.00197*%
%ADD17VB_RCRECTANGLE,0.01969X0.04134X0.00197*%
%ADD13VB_RCRECTANGLE,0.02362X0.04331X0.00197*%
%ADD14VB_RCRECTANGLE,0.05118X0.03150X0.00197*%
%ADD19VB_RCRECTANGLE,0.05906X0.03150X0.00197*%
G01*
G36*
X-104213Y-000283D02*
Y-000039D01*
X-104456*
G02X-104459Y000000I000283J000039*
X-104173Y000285I000286*
X-104134Y000283J000285*
G01Y000039*
X-103891*
G02X-103888Y000000I000282J000039*
X-104173Y-000285I000285*
X-104213Y-000283J000285*
G01Y000283D02*
Y000039D01*
X-104456*
G03X-104459Y000000I000283J000039*
X-104173Y-000285I000286*
X-104134Y-000283J000285*
G01Y-000039*
X-103891*
G03X-103888Y000000I000282J000039*
X-104173Y000285I000285*
X-104213Y000283J000285*
G01Y091371D02*
Y091614D01*
X-104456*
G02X-104459Y091654I000283J000040*
X-104173Y091939I000286*
X-104134Y091936J000285*
G01Y091693*
X-103891*
G02X-103888Y091654I000282J000039*
X-104173Y091368I000285*
X-104213Y091371J000286*
G01Y091936D02*
Y091693D01*
X-104456*
G03X-104459Y091654I000283J000039*
X-104173Y091368I000286*
X-104134Y091371J000286*
G01Y091614*
X-103891*
G03X-103888Y091654I000282J000040*
X-104173Y091939I000285*
X-104213Y091936J000285*
G01X-094497Y004628D02*
G02X-094479Y004641I000018J000007D01*
X-094472Y004640J000020*
G01X-094028Y004478*
G02X-094015Y004460I000007J000018*
X-094016Y004453I000020*
G01X-094111Y004194*
G02X-094129Y004181I000018J000007*
X-094136Y004182J000020*
G01X-094580Y004344*
G02X-094593Y004362I000007J000018*
X-094592Y004369I000020*
G01X-094497Y004628*
Y011951D02*
G02X-094479Y011964I000018J000007D01*
X-094472Y011963J000020*
G01X-094028Y011801*
G02X-094015Y011783I000007J000018*
X-094016Y011776I000020*
G01X-094111Y011517*
G02X-094129Y011504I000018J000007*
X-094136Y011505J000020*
G01X-094580Y011667*
G02X-094593Y011685I000007J000018*
X-094592Y011692I000020*
G01X-094497Y011951*
Y019274D02*
G02X-094479Y019287I000018J000007D01*
X-094472Y019286J000020*
G01X-094028Y019124*
G02X-094015Y019105I000007J000019*
X-094016Y019099I000020*
G01X-094111Y018840*
G02X-094129Y018827I000018J000007*
X-094136Y018828J000020*
G01X-094580Y018990*
G02X-094593Y019008I000007J000018*
X-094592Y019015I000020*
G01X-094497Y019274*
Y026597D02*
G02X-094479Y026610I000018J000007D01*
X-094472Y026608J000020*
G01X-094028Y026447*
G02X-094015Y026428I000007J000019*
X-094016Y026422I000020*
G01X-094111Y026163*
G02X-094129Y026150I000018J000006*
X-094136Y026151J000019*
G01X-094580Y026312*
G02X-094593Y026331I000007J000019*
X-094592Y026338I000020*
G01X-094497Y026597*
Y033919D02*
G02X-094479Y033932I000018J000006D01*
X-094472Y033931J000019*
G01X-094028Y033770*
G02X-094015Y033751I000007J000019*
X-094016Y033744I000020*
G01X-094111Y033485*
G02X-094129Y033473I000018J000007*
X-094136Y033474J000019*
G01X-094580Y033635*
G02X-094593Y033654I000007J000019*
X-094592Y033661I000020*
G01X-094497Y033919*
Y041242D02*
G02X-094479Y041255I000018J000006D01*
X-094472Y041254J000019*
G01X-094028Y041092*
G02X-094015Y041074I000007J000018*
X-094016Y041067I000020*
G01X-094111Y040808*
G02X-094129Y040795I000018J000007*
X-094136Y040797J000020*
G01X-094580Y040958*
G02X-094593Y040977I000007J000019*
X-094592Y040983I000020*
G01X-094497Y041242*
Y048565D02*
G02X-094479Y048578I000018J000007D01*
X-094472Y048577J000020*
G01X-094028Y048415*
G02X-094015Y048397I000007J000018*
X-094016Y048390I000020*
G01X-094111Y048131*
G02X-094129Y048118I000018J000007*
X-094136Y048119J000020*
G01X-094580Y048281*
G02X-094593Y048299I000007J000018*
X-094592Y048306I000020*
G01X-094497Y048565*
Y055888D02*
G02X-094479Y055901I000018J000007D01*
X-094472Y055900J000020*
G01X-094028Y055738*
G02X-094015Y055720I000007J000018*
X-094016Y055713I000020*
G01X-094111Y055454*
G02X-094129Y055441I000018J000007*
X-094136Y055442J000020*
G01X-094580Y055604*
G02X-094593Y055622I000007J000018*
X-094592Y055629I000020*
G01X-094497Y055888*
Y063211D02*
G02X-094479Y063224I000018J000007D01*
X-094472Y063223J000020*
G01X-094028Y063061*
G02X-094015Y063043I000007J000018*
X-094016Y063036I000020*
G01X-094111Y062777*
G02X-094129Y062764I000018J000007*
X-094136Y062765J000020*
G01X-094580Y062927*
G02X-094593Y062945I000007J000018*
X-094592Y062952I000020*
G01X-094497Y063211*
Y070534D02*
G02X-094479Y070547I000018J000007D01*
X-094472Y070545J000020*
G01X-094028Y070384*
G02X-094015Y070365I000007J000019*
X-094016Y070359I000020*
G01X-094111Y070100*
G02X-094129Y070087I000018J000006*
X-094136Y070088J000019*
G01X-094580Y070249*
G02X-094593Y070268I000007J000019*
X-094592Y070275I000020*
G01X-094497Y070534*
Y077856D02*
G02X-094479Y077869I000018J000006D01*
X-094472Y077868J000019*
G01X-094028Y077707*
G02X-094015Y077688I000007J000019*
X-094016Y077681I000020*
G01X-094111Y077422*
G02X-094129Y077410I000018J000007*
X-094136Y077411J000019*
G01X-094580Y077572*
G02X-094593Y077591I000007J000019*
X-094592Y077598I000020*
G01X-094497Y077856*
Y085179D02*
G02X-094479Y085192I000018J000006D01*
X-094472Y085191J000019*
G01X-094028Y085030*
G02X-094015Y085011I000007J000019*
X-094016Y085004I000020*
G01X-094111Y084745*
G02X-094129Y084732I000018J000007*
X-094136Y084734J000020*
G01X-094580Y084895*
G02X-094593Y084914I000007J000019*
X-094592Y084920I000020*
G01X-094497Y085179*
X-094255Y005294D02*
G02X-094237Y005307I000018J000007D01*
X-094230Y005306J000020*
G01X-093786Y005144*
G02X-093773Y005126I000007J000018*
X-093774Y005119I000020*
G01X-093868Y004860*
G02X-093887Y004847I000019J000007*
X-093894Y004848J000020*
G01X-094338Y005010*
G02X-094351Y005028I000007J000018*
X-094349Y005035I000020*
G01X-094255Y005294*
Y012617D02*
G02X-094237Y012630I000018J000007D01*
X-094230Y012629J000020*
G01X-093786Y012467*
G02X-093773Y012449I000007J000018*
X-093774Y012442I000020*
G01X-093868Y012183*
G02X-093887Y012170I000019J000007*
X-093894Y012171J000020*
G01X-094338Y012333*
G02X-094351Y012351I000007J000018*
X-094349Y012358I000020*
G01X-094255Y012617*
Y019940D02*
G02X-094237Y019953I000018J000007D01*
X-094230Y019952J000020*
G01X-093786Y019790*
G02X-093773Y019771I000007J000019*
X-093774Y019765I000020*
G01X-093868Y019506*
G02X-093887Y019493I000019J000006*
X-093894Y019494J000019*
G01X-094338Y019656*
G02X-094351Y019674I000007J000018*
X-094349Y019681I000020*
G01X-094255Y019940*
Y027263D02*
G02X-094237Y027276I000018J000007D01*
X-094230Y027274J000020*
G01X-093786Y027113*
G02X-093773Y027094I000007J000019*
X-093774Y027088I000020*
G01X-093868Y026829*
G02X-093887Y026816I000019J000006*
X-093894Y026817J000019*
G01X-094338Y026978*
G02X-094351Y026997I000007J000019*
X-094349Y027004I000020*
G01X-094255Y027263*
Y034585D02*
G02X-094237Y034598I000018J000006D01*
X-094230Y034597J000019*
G01X-093786Y034436*
G02X-093773Y034417I000007J000019*
X-093774Y034410I000020*
G01X-093868Y034151*
G02X-093887Y034138I000019J000007*
X-093894Y034140J000020*
G01X-094338Y034301*
G02X-094351Y034320I000007J000019*
X-094349Y034326I000020*
G01X-094255Y034585*
Y041908D02*
G02X-094237Y041921I000018J000006D01*
X-094230Y041920J000019*
G01X-093786Y041758*
G02X-093773Y041740I000007J000018*
X-093774Y041733I000020*
G01X-093868Y041474*
G02X-093887Y041461I000019J000007*
X-093894Y041462J000020*
G01X-094338Y041624*
G02X-094351Y041643I000007J000019*
X-094349Y041649I000020*
G01X-094255Y041908*
Y049231D02*
G02X-094237Y049244I000018J000007D01*
X-094230Y049243J000020*
G01X-093786Y049081*
G02X-093773Y049063I000007J000018*
X-093774Y049056I000020*
G01X-093868Y048797*
G02X-093887Y048784I000019J000007*
X-093894Y048785J000020*
G01X-094338Y048947*
G02X-094351Y048965I000007J000018*
X-094349Y048972I000020*
G01X-094255Y049231*
Y056554D02*
G02X-094237Y056567I000018J000007D01*
X-094230Y056566J000020*
G01X-093786Y056404*
G02X-093773Y056386I000007J000018*
X-093774Y056379I000020*
G01X-093868Y056120*
G02X-093887Y056107I000019J000007*
X-093894Y056108J000020*
G01X-094338Y056270*
G02X-094351Y056288I000007J000018*
X-094349Y056295I000020*
G01X-094255Y056554*
Y063877D02*
G02X-094237Y063890I000018J000007D01*
X-094230Y063889J000020*
G01X-093786Y063727*
G02X-093773Y063708I000007J000019*
X-093774Y063702I000020*
G01X-093868Y063443*
G02X-093887Y063430I000019J000006*
X-093894Y063431J000019*
G01X-094338Y063593*
G02X-094351Y063611I000007J000018*
X-094349Y063618I000020*
G01X-094255Y063877*
Y071200D02*
G02X-094237Y071213I000018J000007D01*
X-094230Y071211J000020*
G01X-093786Y071050*
G02X-093773Y071031I000007J000019*
X-093774Y071025I000020*
G01X-093868Y070766*
G02X-093887Y070753I000019J000006*
X-093894Y070754J000019*
G01X-094338Y070915*
G02X-094351Y070934I000007J000019*
X-094349Y070941I000020*
G01X-094255Y071200*
Y078522D02*
G02X-094237Y078535I000018J000006D01*
X-094230Y078534J000019*
G01X-093786Y078373*
G02X-093773Y078354I000007J000019*
X-093774Y078347I000020*
G01X-093868Y078088*
G02X-093887Y078075I000019J000007*
X-093894Y078077J000020*
G01X-094338Y078238*
G02X-094351Y078257I000007J000019*
X-094349Y078263I000020*
G01X-094255Y078522*
Y085845D02*
G02X-094237Y085858I000018J000006D01*
X-094230Y085857J000019*
G01X-093786Y085695*
G02X-093773Y085677I000007J000018*
X-093774Y085670I000020*
G01X-093868Y085411*
G02X-093887Y085398I000019J000007*
X-093894Y085399J000020*
G01X-094338Y085561*
G02X-094351Y085580I000007J000019*
X-094349Y085586I000020*
G01X-094255Y085845*
X-093820Y006242D02*
G02X-093818Y006235I000018J000007D01*
X-093831Y006217I000020*
G01X-094275Y006055*
G02X-094282Y006054I000007J000018*
X-094301Y006067J000019*
G01X-094395Y006326*
G02X-094396Y006332I000019J000006*
X-094383Y006351I000020*
G01X-093939Y006513*
G02X-093932Y006514I000007J000019*
X-093914Y006501J000020*
G01X-093820Y006242*
Y013565D02*
G02X-093818Y013558I000018J000007D01*
X-093831Y013539I000020*
G01X-094275Y013378*
G02X-094282Y013377I000007J000018*
X-094301Y013390J000019*
G01X-094395Y013649*
G02X-094396Y013655I000019J000006*
X-094383Y013674I000020*
G01X-093939Y013835*
G02X-093932Y013837I000007J000018*
X-093914Y013824J000020*
G01X-093820Y013565*
Y020887D02*
G02X-093818Y020881I000018J000006D01*
X-093831Y020862I000020*
G01X-094275Y020701*
G02X-094282Y020699I000007J000018*
X-094301Y020712J000020*
G01X-094395Y020971*
G02X-094396Y020978I000019J000007*
X-094383Y020997I000020*
G01X-093939Y021158*
G02X-093932Y021159I000007J000018*
X-093914Y021146J000019*
G01X-093820Y020887*
Y028210D02*
G02X-093818Y028204I000018J000006D01*
X-093831Y028185I000020*
G01X-094275Y028023*
G02X-094282Y028022I000007J000019*
X-094301Y028035J000020*
G01X-094395Y028294*
G02X-094396Y028301I000019J000007*
X-094383Y028319I000020*
G01X-093939Y028481*
G02X-093932Y028482I000007J000018*
X-093914Y028469J000019*
G01X-093820Y028210*
Y035533D02*
G02X-093818Y035526I000018J000007D01*
X-093831Y035508I000020*
G01X-094275Y035346*
G02X-094282Y035345I000007J000019*
X-094301Y035358J000020*
G01X-094395Y035617*
G02X-094396Y035624I000019J000007*
X-094383Y035642I000020*
G01X-093939Y035804*
G02X-093932Y035805I000007J000019*
X-093914Y035792J000020*
G01X-093820Y035533*
Y042856D02*
G02X-093818Y042849I000018J000007D01*
X-093831Y042831I000020*
G01X-094275Y042669*
G02X-094282Y042668I000007J000019*
X-094301Y042681J000020*
G01X-094395Y042940*
G02X-094396Y042947I000019J000007*
X-094383Y042965I000020*
G01X-093939Y043127*
G02X-093932Y043128I000007J000019*
X-093914Y043115J000020*
G01X-093820Y042856*
Y050179D02*
G02X-093818Y050172I000018J000007D01*
X-093831Y050154I000020*
G01X-094275Y049992*
G02X-094282Y049991I000007J000018*
X-094301Y050004J000019*
G01X-094395Y050263*
G02X-094396Y050269I000019J000006*
X-094383Y050288I000020*
G01X-093939Y050450*
G02X-093932Y050451I000007J000019*
X-093914Y050438J000020*
G01X-093820Y050179*
Y057502D02*
G02X-093818Y057495I000018J000007D01*
X-093831Y057476I000020*
G01X-094275Y057315*
G02X-094282Y057314I000007J000018*
X-094301Y057327J000019*
G01X-094395Y057586*
G02X-094396Y057592I000019J000006*
X-094383Y057611I000020*
G01X-093939Y057772*
G02X-093932Y057774I000007J000018*
X-093914Y057761J000020*
G01X-093820Y057502*
Y064824D02*
G02X-093818Y064818I000018J000006D01*
X-093831Y064799I000020*
G01X-094275Y064638*
G02X-094282Y064636I000007J000018*
X-094301Y064649J000020*
G01X-094395Y064908*
G02X-094396Y064915I000019J000007*
X-094383Y064934I000020*
G01X-093939Y065095*
G02X-093932Y065096I000007J000018*
X-093914Y065083J000019*
G01X-093820Y064824*
Y072147D02*
G02X-093818Y072141I000018J000006D01*
X-093831Y072122I000020*
G01X-094275Y071960*
G02X-094282Y071959I000007J000019*
X-094301Y071972J000020*
G01X-094395Y072231*
G02X-094396Y072238I000019J000007*
X-094383Y072256I000020*
G01X-093939Y072418*
G02X-093932Y072419I000007J000018*
X-093914Y072406J000019*
G01X-093820Y072147*
Y079470D02*
G02X-093818Y079463I000018J000007D01*
X-093831Y079445I000020*
G01X-094275Y079283*
G02X-094282Y079282I000007J000019*
X-094301Y079295J000020*
G01X-094395Y079554*
G02X-094396Y079561I000019J000007*
X-094383Y079579I000020*
G01X-093939Y079741*
G02X-093932Y079742I000007J000019*
X-093914Y079729J000020*
G01X-093820Y079470*
Y086793D02*
G02X-093818Y086786I000018J000007D01*
X-093831Y086768I000020*
G01X-094275Y086606*
G02X-094282Y086605I000007J000019*
X-094301Y086618J000020*
G01X-094395Y086877*
G02X-094396Y086884I000019J000007*
X-094383Y086902I000020*
G01X-093939Y087064*
G02X-093932Y087065I000007J000019*
X-093914Y087052J000020*
G01X-093820Y086793*
X-093577Y005576D02*
G02X-093576Y005569I000019J000007D01*
X-093589Y005551I000020*
G01X-094033Y005389*
G02X-094040Y005388I000007J000019*
X-094058Y005401J000020*
G01X-094152Y005660*
G02X-094154Y005667I000018J000007*
X-094141Y005685I000020*
G01X-093697Y005847*
G02X-093690Y005848I000007J000019*
X-093672Y005835J000020*
G01X-093577Y005576*
Y012899D02*
G02X-093576Y012892I000019J000007D01*
X-093589Y012873I000020*
G01X-094033Y012712*
G02X-094040Y012711I000007J000018*
X-094058Y012724J000019*
G01X-094152Y012983*
G02X-094154Y012989I000018J000006*
X-094141Y013008I000020*
G01X-093697Y013169*
G02X-093690Y013171I000007J000018*
X-093672Y013158J000020*
G01X-093577Y012899*
Y020222D02*
G02X-093576Y020215I000019J000007D01*
X-093589Y020196I000020*
G01X-094033Y020035*
G02X-094040Y020034I000007J000018*
X-094058Y020046J000019*
G01X-094152Y020305*
G02X-094154Y020312I000018J000007*
X-094141Y020331I000020*
G01X-093697Y020492*
G02X-093690Y020493I000007J000018*
X-093672Y020481J000019*
G01X-093577Y020222*
Y027544D02*
G02X-093576Y027538I000019J000006D01*
X-093589Y027519I000020*
G01X-094033Y027358*
G02X-094040Y027356I000007J000018*
X-094058Y027369J000020*
G01X-094152Y027628*
G02X-094154Y027635I000018J000007*
X-094141Y027654I000020*
G01X-093697Y027815*
G02X-093690Y027816I000007J000018*
X-093672Y027803J000019*
G01X-093577Y027544*
Y034867D02*
G02X-093576Y034860I000019J000007D01*
X-093589Y034842I000020*
G01X-094033Y034680*
G02X-094040Y034679I000007J000019*
X-094058Y034692J000020*
G01X-094152Y034951*
G02X-094154Y034958I000018J000007*
X-094141Y034976I000020*
G01X-093697Y035138*
G02X-093690Y035139I000007J000019*
X-093672Y035126J000020*
G01X-093577Y034867*
Y042190D02*
G02X-093576Y042183I000019J000007D01*
X-093589Y042165I000020*
G01X-094033Y042003*
G02X-094040Y042002I000007J000019*
X-094058Y042015J000020*
G01X-094152Y042274*
G02X-094154Y042281I000018J000007*
X-094141Y042299I000020*
G01X-093697Y042461*
G02X-093690Y042462I000007J000019*
X-093672Y042449J000020*
G01X-093577Y042190*
Y049513D02*
G02X-093576Y049506I000019J000007D01*
X-093589Y049488I000020*
G01X-094033Y049326*
G02X-094040Y049325I000007J000019*
X-094058Y049338J000020*
G01X-094152Y049597*
G02X-094154Y049604I000018J000007*
X-094141Y049622I000020*
G01X-093697Y049784*
G02X-093690Y049785I000007J000019*
X-093672Y049772J000020*
G01X-093577Y049513*
Y056836D02*
G02X-093576Y056829I000019J000007D01*
X-093589Y056810I000020*
G01X-094033Y056649*
G02X-094040Y056648I000007J000018*
X-094058Y056661J000019*
G01X-094152Y056920*
G02X-094154Y056926I000018J000006*
X-094141Y056945I000020*
G01X-093697Y057106*
G02X-093690Y057108I000007J000018*
X-093672Y057095J000020*
G01X-093577Y056836*
Y064159D02*
G02X-093576Y064152I000019J000007D01*
X-093589Y064133I000020*
G01X-094033Y063972*
G02X-094040Y063971I000007J000018*
X-094058Y063983J000019*
G01X-094152Y064242*
G02X-094154Y064249I000018J000007*
X-094141Y064268I000020*
G01X-093697Y064429*
G02X-093690Y064430I000007J000018*
X-093672Y064418J000019*
G01X-093577Y064159*
Y071481D02*
G02X-093576Y071475I000019J000006D01*
X-093589Y071456I000020*
G01X-094033Y071295*
G02X-094040Y071293I000007J000018*
X-094058Y071306J000020*
G01X-094152Y071565*
G02X-094154Y071572I000018J000007*
X-094141Y071591I000020*
G01X-093697Y071752*
G02X-093690Y071753I000007J000018*
X-093672Y071740J000019*
G01X-093577Y071481*
Y078804D02*
G02X-093576Y078797I000019J000007D01*
X-093589Y078779I000020*
G01X-094033Y078617*
G02X-094040Y078616I000007J000019*
X-094058Y078629J000020*
G01X-094152Y078888*
G02X-094154Y078895I000018J000007*
X-094141Y078913I000020*
G01X-093697Y079075*
G02X-093690Y079076I000007J000019*
X-093672Y079063J000020*
G01X-093577Y078804*
Y086127D02*
G02X-093576Y086120I000019J000007D01*
X-093589Y086102I000020*
G01X-094033Y085940*
G02X-094040Y085939I000007J000019*
X-094058Y085952J000020*
G01X-094152Y086211*
G02X-094154Y086218I000018J000007*
X-094141Y086236I000020*
G01X-093697Y086398*
G02X-093690Y086399I000007J000019*
X-093672Y086386J000020*
G01X-093577Y086127*
X-091772Y091535D02*
X-091496D01*
Y092087*
X-091772*
Y091535*
X-090945D02*
X-090669D01*
Y092087*
X-090945*
Y091535*
X-090276D02*
X-090000D01*
Y092087*
X-090276*
Y091535*
X-089685D02*
X-089409D01*
Y092087*
X-089685*
Y091535*
X-089173D02*
X-088898D01*
Y092087*
X-089173*
Y091535*
X-088701D02*
X-088425D01*
Y092087*
X-088701*
Y091535*
X-078159Y004628D02*
G02X-078140Y004641I000019J000007D01*
X-078134Y004640J000020*
G01X-077690Y004478*
G02X-077677Y004460I000006J000018*
X-077678Y004453I000019*
G01X-077772Y004194*
G02X-077791Y004181I000019J000007*
X-077797Y004182J000020*
G01X-078241Y004344*
G02X-078254Y004362I000006J000018*
X-078253Y004369I000019*
G01X-078159Y004628*
Y011951D02*
G02X-078140Y011964I000019J000007D01*
X-078134Y011963J000020*
G01X-077690Y011801*
G02X-077677Y011783I000006J000018*
X-077678Y011776I000019*
G01X-077772Y011517*
G02X-077791Y011504I000019J000007*
X-077797Y011505J000020*
G01X-078241Y011667*
G02X-078254Y011685I000006J000018*
X-078253Y011692I000019*
G01X-078159Y011951*
Y019274D02*
G02X-078140Y019287I000019J000007D01*
X-078134Y019286J000020*
G01X-077690Y019124*
G02X-077677Y019105I000006J000019*
X-077678Y019099I000019*
G01X-077772Y018840*
G02X-077791Y018827I000019J000007*
X-077797Y018828J000020*
G01X-078241Y018990*
G02X-078254Y019008I000006J000018*
X-078253Y019015I000019*
G01X-078159Y019274*
Y026597D02*
G02X-078140Y026610I000019J000007D01*
X-078134Y026608J000020*
G01X-077690Y026447*
G02X-077677Y026428I000006J000019*
X-077678Y026422I000019*
G01X-077772Y026163*
G02X-077791Y026150I000019J000006*
X-077797Y026151J000019*
G01X-078241Y026312*
G02X-078254Y026331I000006J000019*
X-078253Y026338I000019*
G01X-078159Y026597*
Y033919D02*
G02X-078140Y033932I000019J000006D01*
X-078134Y033931J000019*
G01X-077690Y033770*
G02X-077677Y033751I000006J000019*
X-077678Y033744I000019*
G01X-077772Y033485*
G02X-077791Y033473I000019J000007*
X-077797Y033474J000019*
G01X-078241Y033635*
G02X-078254Y033654I000006J000019*
X-078253Y033661I000019*
G01X-078159Y033919*
Y041242D02*
G02X-078140Y041255I000019J000006D01*
X-078134Y041254J000019*
G01X-077690Y041092*
G02X-077677Y041074I000006J000018*
X-077678Y041067I000019*
G01X-077772Y040808*
G02X-077791Y040795I000019J000007*
X-077797Y040797J000020*
G01X-078241Y040958*
G02X-078254Y040977I000006J000019*
X-078253Y040983I000019*
G01X-078159Y041242*
Y048565D02*
G02X-078140Y048578I000019J000007D01*
X-078134Y048577J000020*
G01X-077690Y048415*
G02X-077677Y048397I000006J000018*
X-077678Y048390I000019*
G01X-077772Y048131*
G02X-077791Y048118I000019J000007*
X-077797Y048119J000020*
G01X-078241Y048281*
G02X-078254Y048299I000006J000018*
X-078253Y048306I000019*
G01X-078159Y048565*
Y055888D02*
G02X-078140Y055901I000019J000007D01*
X-078134Y055900J000020*
G01X-077690Y055738*
G02X-077677Y055720I000006J000018*
X-077678Y055713I000019*
G01X-077772Y055454*
G02X-077791Y055441I000019J000007*
X-077797Y055442J000020*
G01X-078241Y055604*
G02X-078254Y055622I000006J000018*
X-078253Y055629I000019*
G01X-078159Y055888*
Y063211D02*
G02X-078140Y063224I000019J000007D01*
X-078134Y063223J000020*
G01X-077690Y063061*
G02X-077677Y063043I000006J000018*
X-077678Y063036I000019*
G01X-077772Y062777*
G02X-077791Y062764I000019J000007*
X-077797Y062765J000020*
G01X-078241Y062927*
G02X-078254Y062945I000006J000018*
X-078253Y062952I000019*
G01X-078159Y063211*
Y070534D02*
G02X-078140Y070547I000019J000007D01*
X-078134Y070545J000020*
G01X-077690Y070384*
G02X-077677Y070365I000006J000019*
X-077678Y070359I000019*
G01X-077772Y070100*
G02X-077791Y070087I000019J000006*
X-077797Y070088J000019*
G01X-078241Y070249*
G02X-078254Y070268I000006J000019*
X-078253Y070275I000019*
G01X-078159Y070534*
Y077856D02*
G02X-078140Y077869I000019J000006D01*
X-078134Y077868J000019*
G01X-077690Y077707*
G02X-077677Y077688I000006J000019*
X-077678Y077681I000019*
G01X-077772Y077422*
G02X-077791Y077410I000019J000007*
X-077797Y077411J000019*
G01X-078241Y077572*
G02X-078254Y077591I000006J000019*
X-078253Y077598I000019*
G01X-078159Y077856*
Y085179D02*
G02X-078140Y085192I000019J000006D01*
X-078134Y085191J000019*
G01X-077690Y085030*
G02X-077677Y085011I000006J000019*
X-077678Y085004I000019*
G01X-077772Y084745*
G02X-077791Y084732I000019J000007*
X-077797Y084734J000020*
G01X-078241Y084895*
G02X-078254Y084914I000006J000019*
X-078253Y084920I000019*
G01X-078159Y085179*
X-077916Y005294D02*
G02X-077898Y005307I000018J000007D01*
X-077891Y005306J000020*
G01X-077447Y005144*
G02X-077434Y005126I000007J000018*
X-077436Y005119I000020*
G01X-077530Y004860*
G02X-077548Y004847I000018J000007*
X-077555Y004848J000020*
G01X-077999Y005010*
G02X-078012Y005028I000007J000018*
X-078011Y005035I000020*
G01X-077916Y005294*
Y012617D02*
G02X-077898Y012630I000018J000007D01*
X-077891Y012629J000020*
G01X-077447Y012467*
G02X-077434Y012449I000007J000018*
X-077436Y012442I000020*
G01X-077530Y012183*
G02X-077548Y012170I000018J000007*
X-077555Y012171J000020*
G01X-077999Y012333*
G02X-078012Y012351I000007J000018*
X-078011Y012358I000020*
G01X-077916Y012617*
Y019940D02*
G02X-077898Y019953I000018J000007D01*
X-077891Y019952J000020*
G01X-077447Y019790*
G02X-077434Y019771I000007J000019*
X-077436Y019765I000020*
G01X-077530Y019506*
G02X-077548Y019493I000018J000006*
X-077555Y019494J000019*
G01X-077999Y019656*
G02X-078012Y019674I000007J000018*
X-078011Y019681I000020*
G01X-077916Y019940*
Y027263D02*
G02X-077898Y027276I000018J000007D01*
X-077891Y027274J000020*
G01X-077447Y027113*
G02X-077434Y027094I000007J000019*
X-077436Y027088I000020*
G01X-077530Y026829*
G02X-077548Y026816I000018J000006*
X-077555Y026817J000019*
G01X-077999Y026978*
G02X-078012Y026997I000007J000019*
X-078011Y027004I000020*
G01X-077916Y027263*
Y034585D02*
G02X-077898Y034598I000018J000006D01*
X-077891Y034597J000019*
G01X-077447Y034436*
G02X-077434Y034417I000007J000019*
X-077436Y034410I000020*
G01X-077530Y034151*
G02X-077548Y034138I000018J000007*
X-077555Y034140J000020*
G01X-077999Y034301*
G02X-078012Y034320I000007J000019*
X-078011Y034326I000020*
G01X-077916Y034585*
Y041908D02*
G02X-077898Y041921I000018J000006D01*
X-077891Y041920J000019*
G01X-077447Y041758*
G02X-077434Y041740I000007J000018*
X-077436Y041733I000020*
G01X-077530Y041474*
G02X-077548Y041461I000018J000007*
X-077555Y041462J000020*
G01X-077999Y041624*
G02X-078012Y041643I000007J000019*
X-078011Y041649I000020*
G01X-077916Y041908*
Y049231D02*
G02X-077898Y049244I000018J000007D01*
X-077891Y049243J000020*
G01X-077447Y049081*
G02X-077434Y049063I000007J000018*
X-077436Y049056I000020*
G01X-077530Y048797*
G02X-077548Y048784I000018J000007*
X-077555Y048785J000020*
G01X-077999Y048947*
G02X-078012Y048965I000007J000018*
X-078011Y048972I000020*
G01X-077916Y049231*
Y056554D02*
G02X-077898Y056567I000018J000007D01*
X-077891Y056566J000020*
G01X-077447Y056404*
G02X-077434Y056386I000007J000018*
X-077436Y056379I000020*
G01X-077530Y056120*
G02X-077548Y056107I000018J000007*
X-077555Y056108J000020*
G01X-077999Y056270*
G02X-078012Y056288I000007J000018*
X-078011Y056295I000020*
G01X-077916Y056554*
Y063877D02*
G02X-077898Y063890I000018J000007D01*
X-077891Y063889J000020*
G01X-077447Y063727*
G02X-077434Y063708I000007J000019*
X-077436Y063702I000020*
G01X-077530Y063443*
G02X-077548Y063430I000018J000006*
X-077555Y063431J000019*
G01X-077999Y063593*
G02X-078012Y063611I000007J000018*
X-078011Y063618I000020*
G01X-077916Y063877*
Y071200D02*
G02X-077898Y071213I000018J000007D01*
X-077891Y071211J000020*
G01X-077447Y071050*
G02X-077434Y071031I000007J000019*
X-077436Y071025I000020*
G01X-077530Y070766*
G02X-077548Y070753I000018J000006*
X-077555Y070754J000019*
G01X-077999Y070915*
G02X-078012Y070934I000007J000019*
X-078011Y070941I000020*
G01X-077916Y071200*
Y078522D02*
G02X-077898Y078535I000018J000006D01*
X-077891Y078534J000019*
G01X-077447Y078373*
G02X-077434Y078354I000007J000019*
X-077436Y078347I000020*
G01X-077530Y078088*
G02X-077548Y078075I000018J000007*
X-077555Y078077J000020*
G01X-077999Y078238*
G02X-078012Y078257I000007J000019*
X-078011Y078263I000020*
G01X-077916Y078522*
Y085845D02*
G02X-077898Y085858I000018J000006D01*
X-077891Y085857J000019*
G01X-077447Y085695*
G02X-077434Y085677I000007J000018*
X-077436Y085670I000020*
G01X-077530Y085411*
G02X-077548Y085398I000018J000007*
X-077555Y085399J000020*
G01X-077999Y085561*
G02X-078012Y085580I000007J000019*
X-078011Y085586I000020*
G01X-077916Y085845*
X-077481Y006242D02*
G02X-077480Y006235I000019J000007D01*
X-077493Y006217I000020*
G01X-077937Y006055*
G02X-077944Y006054I000007J000018*
X-077962Y006067J000019*
G01X-078056Y006326*
G02X-078057Y006332I000018J000006*
X-078044Y006351I000019*
G01X-077601Y006513*
G02X-077594Y006514I000007J000019*
X-077575Y006501J000020*
G01X-077481Y006242*
Y013565D02*
G02X-077480Y013558I000019J000007D01*
X-077493Y013539I000020*
G01X-077937Y013378*
G02X-077944Y013377I000007J000018*
X-077962Y013390J000019*
G01X-078056Y013649*
G02X-078057Y013655I000018J000006*
X-078044Y013674I000019*
G01X-077601Y013835*
G02X-077594Y013837I000007J000018*
X-077575Y013824J000020*
G01X-077481Y013565*
Y020887D02*
G02X-077480Y020881I000019J000006D01*
X-077493Y020862I000020*
G01X-077937Y020701*
G02X-077944Y020699I000007J000018*
X-077962Y020712J000020*
G01X-078056Y020971*
G02X-078057Y020978I000018J000007*
X-078044Y020997I000019*
G01X-077601Y021158*
G02X-077594Y021159I000007J000018*
X-077575Y021146J000019*
G01X-077481Y020887*
Y028210D02*
G02X-077480Y028204I000019J000006D01*
X-077493Y028185I000020*
G01X-077937Y028023*
G02X-077944Y028022I000007J000019*
X-077962Y028035J000020*
G01X-078056Y028294*
G02X-078057Y028301I000018J000007*
X-078044Y028319I000019*
G01X-077601Y028481*
G02X-077594Y028482I000007J000018*
X-077575Y028469J000019*
G01X-077481Y028210*
Y035533D02*
G02X-077480Y035526I000019J000007D01*
X-077493Y035508I000020*
G01X-077937Y035346*
G02X-077944Y035345I000007J000019*
X-077962Y035358J000020*
G01X-078056Y035617*
G02X-078057Y035624I000018J000007*
X-078044Y035642I000019*
G01X-077601Y035804*
G02X-077594Y035805I000007J000019*
X-077575Y035792J000020*
G01X-077481Y035533*
Y042856D02*
G02X-077480Y042849I000019J000007D01*
X-077493Y042831I000020*
G01X-077937Y042669*
G02X-077944Y042668I000007J000019*
X-077962Y042681J000020*
G01X-078056Y042940*
G02X-078057Y042947I000018J000007*
X-078044Y042965I000019*
G01X-077601Y043127*
G02X-077594Y043128I000007J000019*
X-077575Y043115J000020*
G01X-077481Y042856*
Y050179D02*
G02X-077480Y050172I000019J000007D01*
X-077493Y050154I000020*
G01X-077937Y049992*
G02X-077944Y049991I000007J000018*
X-077962Y050004J000019*
G01X-078056Y050263*
G02X-078057Y050269I000018J000006*
X-078044Y050288I000019*
G01X-077601Y050450*
G02X-077594Y050451I000007J000019*
X-077575Y050438J000020*
G01X-077481Y050179*
Y057502D02*
G02X-077480Y057495I000019J000007D01*
X-077493Y057476I000020*
G01X-077937Y057315*
G02X-077944Y057314I000007J000018*
X-077962Y057327J000019*
G01X-078056Y057586*
G02X-078057Y057592I000018J000006*
X-078044Y057611I000019*
G01X-077601Y057772*
G02X-077594Y057774I000007J000018*
X-077575Y057761J000020*
G01X-077481Y057502*
Y064824D02*
G02X-077480Y064818I000019J000006D01*
X-077493Y064799I000020*
G01X-077937Y064638*
G02X-077944Y064636I000007J000018*
X-077962Y064649J000020*
G01X-078056Y064908*
G02X-078057Y064915I000018J000007*
X-078044Y064934I000019*
G01X-077601Y065095*
G02X-077594Y065096I000007J000018*
X-077575Y065083J000019*
G01X-077481Y064824*
Y072147D02*
G02X-077480Y072141I000019J000006D01*
X-077493Y072122I000020*
G01X-077937Y071960*
G02X-077944Y071959I000007J000019*
X-077962Y071972J000020*
G01X-078056Y072231*
G02X-078057Y072238I000018J000007*
X-078044Y072256I000019*
G01X-077601Y072418*
G02X-077594Y072419I000007J000018*
X-077575Y072406J000019*
G01X-077481Y072147*
Y079470D02*
G02X-077480Y079463I000019J000007D01*
X-077493Y079445I000020*
G01X-077937Y079283*
G02X-077944Y079282I000007J000019*
X-077962Y079295J000020*
G01X-078056Y079554*
G02X-078057Y079561I000018J000007*
X-078044Y079579I000019*
G01X-077601Y079741*
G02X-077594Y079742I000007J000019*
X-077575Y079729J000020*
G01X-077481Y079470*
Y086793D02*
G02X-077480Y086786I000019J000007D01*
X-077493Y086768I000020*
G01X-077937Y086606*
G02X-077944Y086605I000007J000019*
X-077962Y086618J000020*
G01X-078056Y086877*
G02X-078057Y086884I000018J000007*
X-078044Y086902I000019*
G01X-077601Y087064*
G02X-077594Y087065I000007J000019*
X-077575Y087052J000020*
G01X-077481Y086793*
X-077239Y005576D02*
G02X-077237Y005569I000018J000007D01*
X-077250Y005551I000020*
G01X-077694Y005389*
G02X-077701Y005388I000007J000019*
X-077720Y005401J000020*
G01X-077814Y005660*
G02X-077815Y005667I000019J000007*
X-077802Y005685I000020*
G01X-077358Y005847*
G02X-077351Y005848I000007J000019*
X-077333Y005835J000020*
G01X-077239Y005576*
Y012899D02*
G02X-077237Y012892I000018J000007D01*
X-077250Y012873I000020*
G01X-077694Y012712*
G02X-077701Y012711I000007J000018*
X-077720Y012724J000019*
G01X-077814Y012983*
G02X-077815Y012989I000019J000006*
X-077802Y013008I000020*
G01X-077358Y013169*
G02X-077351Y013171I000007J000018*
X-077333Y013158J000020*
G01X-077239Y012899*
Y020222D02*
G02X-077237Y020215I000018J000007D01*
X-077250Y020196I000020*
G01X-077694Y020035*
G02X-077701Y020034I000007J000018*
X-077720Y020046J000019*
G01X-077814Y020305*
G02X-077815Y020312I000019J000007*
X-077802Y020331I000020*
G01X-077358Y020492*
G02X-077351Y020493I000007J000018*
X-077333Y020481J000019*
G01X-077239Y020222*
Y027544D02*
G02X-077237Y027538I000018J000006D01*
X-077250Y027519I000020*
G01X-077694Y027358*
G02X-077701Y027356I000007J000018*
X-077720Y027369J000020*
G01X-077814Y027628*
G02X-077815Y027635I000019J000007*
X-077802Y027654I000020*
G01X-077358Y027815*
G02X-077351Y027816I000007J000018*
X-077333Y027803J000019*
G01X-077239Y027544*
Y034867D02*
G02X-077237Y034860I000018J000007D01*
X-077250Y034842I000020*
G01X-077694Y034680*
G02X-077701Y034679I000007J000019*
X-077720Y034692J000020*
G01X-077814Y034951*
G02X-077815Y034958I000019J000007*
X-077802Y034976I000020*
G01X-077358Y035138*
G02X-077351Y035139I000007J000019*
X-077333Y035126J000020*
G01X-077239Y034867*
Y042190D02*
G02X-077237Y042183I000018J000007D01*
X-077250Y042165I000020*
G01X-077694Y042003*
G02X-077701Y042002I000007J000019*
X-077720Y042015J000020*
G01X-077814Y042274*
G02X-077815Y042281I000019J000007*
X-077802Y042299I000020*
G01X-077358Y042461*
G02X-077351Y042462I000007J000019*
X-077333Y042449J000020*
G01X-077239Y042190*
Y049513D02*
G02X-077237Y049506I000018J000007D01*
X-077250Y049488I000020*
G01X-077694Y049326*
G02X-077701Y049325I000007J000019*
X-077720Y049338J000020*
G01X-077814Y049597*
G02X-077815Y049604I000019J000007*
X-077802Y049622I000020*
G01X-077358Y049784*
G02X-077351Y049785I000007J000019*
X-077333Y049772J000020*
G01X-077239Y049513*
Y056836D02*
G02X-077237Y056829I000018J000007D01*
X-077250Y056810I000020*
G01X-077694Y056649*
G02X-077701Y056648I000007J000018*
X-077720Y056661J000019*
G01X-077814Y056920*
G02X-077815Y056926I000019J000006*
X-077802Y056945I000020*
G01X-077358Y057106*
G02X-077351Y057108I000007J000018*
X-077333Y057095J000020*
G01X-077239Y056836*
Y064159D02*
G02X-077237Y064152I000018J000007D01*
X-077250Y064133I000020*
G01X-077694Y063972*
G02X-077701Y063971I000007J000018*
X-077720Y063983J000019*
G01X-077814Y064242*
G02X-077815Y064249I000019J000007*
X-077802Y064268I000020*
G01X-077358Y064429*
G02X-077351Y064430I000007J000018*
X-077333Y064418J000019*
G01X-077239Y064159*
Y071481D02*
G02X-077237Y071475I000018J000006D01*
X-077250Y071456I000020*
G01X-077694Y071295*
G02X-077701Y071293I000007J000018*
X-077720Y071306J000020*
G01X-077814Y071565*
G02X-077815Y071572I000019J000007*
X-077802Y071591I000020*
G01X-077358Y071752*
G02X-077351Y071753I000007J000018*
X-077333Y071740J000019*
G01X-077239Y071481*
Y078804D02*
G02X-077237Y078797I000018J000007D01*
X-077250Y078779I000020*
G01X-077694Y078617*
G02X-077701Y078616I000007J000019*
X-077720Y078629J000020*
G01X-077814Y078888*
G02X-077815Y078895I000019J000007*
X-077802Y078913I000020*
G01X-077358Y079075*
G02X-077351Y079076I000007J000019*
X-077333Y079063J000020*
G01X-077239Y078804*
Y086127D02*
G02X-077237Y086120I000018J000007D01*
X-077250Y086102I000020*
G01X-077694Y085940*
G02X-077701Y085939I000007J000019*
X-077720Y085952J000020*
G01X-077814Y086211*
G02X-077815Y086218I000019J000007*
X-077802Y086236I000020*
G01X-077358Y086398*
G02X-077351Y086399I000007J000019*
X-077333Y086386J000020*
G01X-077239Y086127*
X-061820Y004628D02*
G02X-061802Y004641I000018J000007D01*
X-061795Y004640J000020*
G01X-061351Y004478*
G02X-061338Y004460I000007J000018*
X-061339Y004453I000020*
G01X-061434Y004194*
G02X-061452Y004181I000018J000007*
X-061459Y004182J000020*
G01X-061903Y004344*
G02X-061916Y004362I000007J000018*
X-061915Y004369I000020*
G01X-061820Y004628*
Y011951D02*
G02X-061802Y011964I000018J000007D01*
X-061795Y011963J000020*
G01X-061351Y011801*
G02X-061338Y011783I000007J000018*
X-061339Y011776I000020*
G01X-061434Y011517*
G02X-061452Y011504I000018J000007*
X-061459Y011505J000020*
G01X-061903Y011667*
G02X-061916Y011685I000007J000018*
X-061915Y011692I000020*
G01X-061820Y011951*
Y019274D02*
G02X-061802Y019287I000018J000007D01*
X-061795Y019286J000020*
G01X-061351Y019124*
G02X-061338Y019105I000007J000019*
X-061339Y019099I000020*
G01X-061434Y018840*
G02X-061452Y018827I000018J000007*
X-061459Y018828J000020*
G01X-061903Y018990*
G02X-061916Y019008I000007J000018*
X-061915Y019015I000020*
G01X-061820Y019274*
Y026597D02*
G02X-061802Y026610I000018J000007D01*
X-061795Y026608J000020*
G01X-061351Y026447*
G02X-061338Y026428I000007J000019*
X-061339Y026422I000020*
G01X-061434Y026163*
G02X-061452Y026150I000018J000006*
X-061459Y026151J000019*
G01X-061903Y026312*
G02X-061916Y026331I000007J000019*
X-061915Y026338I000020*
G01X-061820Y026597*
Y033919D02*
G02X-061802Y033932I000018J000006D01*
X-061795Y033931J000019*
G01X-061351Y033770*
G02X-061338Y033751I000007J000019*
X-061339Y033744I000020*
G01X-061434Y033485*
G02X-061452Y033473I000018J000007*
X-061459Y033474J000019*
G01X-061903Y033635*
G02X-061916Y033654I000007J000019*
X-061915Y033661I000020*
G01X-061820Y033919*
Y041242D02*
G02X-061802Y041255I000018J000006D01*
X-061795Y041254J000019*
G01X-061351Y041092*
G02X-061338Y041074I000007J000018*
X-061339Y041067I000020*
G01X-061434Y040808*
G02X-061452Y040795I000018J000007*
X-061459Y040797J000020*
G01X-061903Y040958*
G02X-061916Y040977I000007J000019*
X-061915Y040983I000020*
G01X-061820Y041242*
Y048565D02*
G02X-061802Y048578I000018J000007D01*
X-061795Y048577J000020*
G01X-061351Y048415*
G02X-061338Y048397I000007J000018*
X-061339Y048390I000020*
G01X-061434Y048131*
G02X-061452Y048118I000018J000007*
X-061459Y048119J000020*
G01X-061903Y048281*
G02X-061916Y048299I000007J000018*
X-061915Y048306I000020*
G01X-061820Y048565*
Y055888D02*
G02X-061802Y055901I000018J000007D01*
X-061795Y055900J000020*
G01X-061351Y055738*
G02X-061338Y055720I000007J000018*
X-061339Y055713I000020*
G01X-061434Y055454*
G02X-061452Y055441I000018J000007*
X-061459Y055442J000020*
G01X-061903Y055604*
G02X-061916Y055622I000007J000018*
X-061915Y055629I000020*
G01X-061820Y055888*
Y063211D02*
G02X-061802Y063224I000018J000007D01*
X-061795Y063223J000020*
G01X-061351Y063061*
G02X-061338Y063043I000007J000018*
X-061339Y063036I000020*
G01X-061434Y062777*
G02X-061452Y062764I000018J000007*
X-061459Y062765J000020*
G01X-061903Y062927*
G02X-061916Y062945I000007J000018*
X-061915Y062952I000020*
G01X-061820Y063211*
Y070534D02*
G02X-061802Y070547I000018J000007D01*
X-061795Y070545J000020*
G01X-061351Y070384*
G02X-061338Y070365I000007J000019*
X-061339Y070359I000020*
G01X-061434Y070100*
G02X-061452Y070087I000018J000006*
X-061459Y070088J000019*
G01X-061903Y070249*
G02X-061916Y070268I000007J000019*
X-061915Y070275I000020*
G01X-061820Y070534*
Y077856D02*
G02X-061802Y077869I000018J000006D01*
X-061795Y077868J000019*
G01X-061351Y077707*
G02X-061338Y077688I000007J000019*
X-061339Y077681I000020*
G01X-061434Y077422*
G02X-061452Y077410I000018J000007*
X-061459Y077411J000019*
G01X-061903Y077572*
G02X-061916Y077591I000007J000019*
X-061915Y077598I000020*
G01X-061820Y077856*
Y085179D02*
G02X-061802Y085192I000018J000006D01*
X-061795Y085191J000019*
G01X-061351Y085030*
G02X-061338Y085011I000007J000019*
X-061339Y085004I000020*
G01X-061434Y084745*
G02X-061452Y084732I000018J000007*
X-061459Y084734J000020*
G01X-061903Y084895*
G02X-061916Y084914I000007J000019*
X-061915Y084920I000020*
G01X-061820Y085179*
X-061578Y005294D02*
G02X-061559Y005307I000019J000007D01*
X-061553Y005306J000020*
G01X-061109Y005144*
G02X-061096Y005126I000006J000018*
X-061097Y005119I000019*
G01X-061191Y004860*
G02X-061210Y004847I000019J000007*
X-061216Y004848J000020*
G01X-061660Y005010*
G02X-061673Y005028I000006J000018*
X-061672Y005035I000019*
G01X-061578Y005294*
Y012617D02*
G02X-061559Y012630I000019J000007D01*
X-061553Y012629J000020*
G01X-061109Y012467*
G02X-061096Y012449I000006J000018*
X-061097Y012442I000019*
G01X-061191Y012183*
G02X-061210Y012170I000019J000007*
X-061216Y012171J000020*
G01X-061660Y012333*
G02X-061673Y012351I000006J000018*
X-061672Y012358I000019*
G01X-061578Y012617*
Y019940D02*
G02X-061559Y019953I000019J000007D01*
X-061553Y019952J000020*
G01X-061109Y019790*
G02X-061096Y019771I000006J000019*
X-061097Y019765I000019*
G01X-061191Y019506*
G02X-061210Y019493I000019J000006*
X-061216Y019494J000019*
G01X-061660Y019656*
G02X-061673Y019674I000006J000018*
X-061672Y019681I000019*
G01X-061578Y019940*
Y027263D02*
G02X-061559Y027276I000019J000007D01*
X-061553Y027274J000020*
G01X-061109Y027113*
G02X-061096Y027094I000006J000019*
X-061097Y027088I000019*
G01X-061191Y026829*
G02X-061210Y026816I000019J000006*
X-061216Y026817J000019*
G01X-061660Y026978*
G02X-061673Y026997I000006J000019*
X-061672Y027004I000019*
G01X-061578Y027263*
Y034585D02*
G02X-061559Y034598I000019J000006D01*
X-061553Y034597J000019*
G01X-061109Y034436*
G02X-061096Y034417I000006J000019*
X-061097Y034410I000019*
G01X-061191Y034151*
G02X-061210Y034138I000019J000007*
X-061216Y034140J000020*
G01X-061660Y034301*
G02X-061673Y034320I000006J000019*
X-061672Y034326I000019*
G01X-061578Y034585*
Y041908D02*
G02X-061559Y041921I000019J000006D01*
X-061553Y041920J000019*
G01X-061109Y041758*
G02X-061096Y041740I000006J000018*
X-061097Y041733I000019*
G01X-061191Y041474*
G02X-061210Y041461I000019J000007*
X-061216Y041462J000020*
G01X-061660Y041624*
G02X-061673Y041643I000006J000019*
X-061672Y041649I000019*
G01X-061578Y041908*
Y049231D02*
G02X-061559Y049244I000019J000007D01*
X-061553Y049243J000020*
G01X-061109Y049081*
G02X-061096Y049063I000006J000018*
X-061097Y049056I000019*
G01X-061191Y048797*
G02X-061210Y048784I000019J000007*
X-061216Y048785J000020*
G01X-061660Y048947*
G02X-061673Y048965I000006J000018*
X-061672Y048972I000019*
G01X-061578Y049231*
Y056554D02*
G02X-061559Y056567I000019J000007D01*
X-061553Y056566J000020*
G01X-061109Y056404*
G02X-061096Y056386I000006J000018*
X-061097Y056379I000019*
G01X-061191Y056120*
G02X-061210Y056107I000019J000007*
X-061216Y056108J000020*
G01X-061660Y056270*
G02X-061673Y056288I000006J000018*
X-061672Y056295I000019*
G01X-061578Y056554*
Y063877D02*
G02X-061559Y063890I000019J000007D01*
X-061553Y063889J000020*
G01X-061109Y063727*
G02X-061096Y063708I000006J000019*
X-061097Y063702I000019*
G01X-061191Y063443*
G02X-061210Y063430I000019J000006*
X-061216Y063431J000019*
G01X-061660Y063593*
G02X-061673Y063611I000006J000018*
X-061672Y063618I000019*
G01X-061578Y063877*
Y071200D02*
G02X-061559Y071213I000019J000007D01*
X-061553Y071211J000020*
G01X-061109Y071050*
G02X-061096Y071031I000006J000019*
X-061097Y071025I000019*
G01X-061191Y070766*
G02X-061210Y070753I000019J000006*
X-061216Y070754J000019*
G01X-061660Y070915*
G02X-061673Y070934I000006J000019*
X-061672Y070941I000019*
G01X-061578Y071200*
Y078522D02*
G02X-061559Y078535I000019J000006D01*
X-061553Y078534J000019*
G01X-061109Y078373*
G02X-061096Y078354I000006J000019*
X-061097Y078347I000019*
G01X-061191Y078088*
G02X-061210Y078075I000019J000007*
X-061216Y078077J000020*
G01X-061660Y078238*
G02X-061673Y078257I000006J000019*
X-061672Y078263I000019*
G01X-061578Y078522*
Y085845D02*
G02X-061559Y085858I000019J000006D01*
X-061553Y085857J000019*
G01X-061109Y085695*
G02X-061096Y085677I000006J000018*
X-061097Y085670I000019*
G01X-061191Y085411*
G02X-061210Y085398I000019J000007*
X-061216Y085399J000020*
G01X-061660Y085561*
G02X-061673Y085580I000006J000019*
X-061672Y085586I000019*
G01X-061578Y085845*
X-061142Y006242D02*
G02X-061141Y006235I000019J000007D01*
X-061154Y006217I000020*
G01X-061598Y006055*
G02X-061605Y006054I000007J000018*
X-061623Y006067J000019*
G01X-061718Y006326*
G02X-061719Y006332I000019J000006*
X-061706Y006351I000020*
G01X-061262Y006513*
G02X-061255Y006514I000007J000019*
X-061237Y006501J000020*
G01X-061142Y006242*
Y013565D02*
G02X-061141Y013558I000019J000007D01*
X-061154Y013539I000020*
G01X-061598Y013378*
G02X-061605Y013377I000007J000018*
X-061623Y013390J000019*
G01X-061718Y013649*
G02X-061719Y013655I000019J000006*
X-061706Y013674I000020*
G01X-061262Y013835*
G02X-061255Y013837I000007J000018*
X-061237Y013824J000020*
G01X-061142Y013565*
Y020887D02*
G02X-061141Y020881I000019J000006D01*
X-061154Y020862I000020*
G01X-061598Y020701*
G02X-061605Y020699I000007J000018*
X-061623Y020712J000020*
G01X-061718Y020971*
G02X-061719Y020978I000019J000007*
X-061706Y020997I000020*
G01X-061262Y021158*
G02X-061255Y021159I000007J000018*
X-061237Y021146J000019*
G01X-061142Y020887*
Y028210D02*
G02X-061141Y028204I000019J000006D01*
X-061154Y028185I000020*
G01X-061598Y028023*
G02X-061605Y028022I000007J000019*
X-061623Y028035J000020*
G01X-061718Y028294*
G02X-061719Y028301I000019J000007*
X-061706Y028319I000020*
G01X-061262Y028481*
G02X-061255Y028482I000007J000018*
X-061237Y028469J000019*
G01X-061142Y028210*
Y035533D02*
G02X-061141Y035526I000019J000007D01*
X-061154Y035508I000020*
G01X-061598Y035346*
G02X-061605Y035345I000007J000019*
X-061623Y035358J000020*
G01X-061718Y035617*
G02X-061719Y035624I000019J000007*
X-061706Y035642I000020*
G01X-061262Y035804*
G02X-061255Y035805I000007J000019*
X-061237Y035792J000020*
G01X-061142Y035533*
Y042856D02*
G02X-061141Y042849I000019J000007D01*
X-061154Y042831I000020*
G01X-061598Y042669*
G02X-061605Y042668I000007J000019*
X-061623Y042681J000020*
G01X-061718Y042940*
G02X-061719Y042947I000019J000007*
X-061706Y042965I000020*
G01X-061262Y043127*
G02X-061255Y043128I000007J000019*
X-061237Y043115J000020*
G01X-061142Y042856*
Y050179D02*
G02X-061141Y050172I000019J000007D01*
X-061154Y050154I000020*
G01X-061598Y049992*
G02X-061605Y049991I000007J000018*
X-061623Y050004J000019*
G01X-061718Y050263*
G02X-061719Y050269I000019J000006*
X-061706Y050288I000020*
G01X-061262Y050450*
G02X-061255Y050451I000007J000019*
X-061237Y050438J000020*
G01X-061142Y050179*
Y057502D02*
G02X-061141Y057495I000019J000007D01*
X-061154Y057476I000020*
G01X-061598Y057315*
G02X-061605Y057314I000007J000018*
X-061623Y057327J000019*
G01X-061718Y057586*
G02X-061719Y057592I000019J000006*
X-061706Y057611I000020*
G01X-061262Y057772*
G02X-061255Y057774I000007J000018*
X-061237Y057761J000020*
G01X-061142Y057502*
Y064824D02*
G02X-061141Y064818I000019J000006D01*
X-061154Y064799I000020*
G01X-061598Y064638*
G02X-061605Y064636I000007J000018*
X-061623Y064649J000020*
G01X-061718Y064908*
G02X-061719Y064915I000019J000007*
X-061706Y064934I000020*
G01X-061262Y065095*
G02X-061255Y065096I000007J000018*
X-061237Y065083J000019*
G01X-061142Y064824*
Y072147D02*
G02X-061141Y072141I000019J000006D01*
X-061154Y072122I000020*
G01X-061598Y071960*
G02X-061605Y071959I000007J000019*
X-061623Y071972J000020*
G01X-061718Y072231*
G02X-061719Y072238I000019J000007*
X-061706Y072256I000020*
G01X-061262Y072418*
G02X-061255Y072419I000007J000018*
X-061237Y072406J000019*
G01X-061142Y072147*
Y079470D02*
G02X-061141Y079463I000019J000007D01*
X-061154Y079445I000020*
G01X-061598Y079283*
G02X-061605Y079282I000007J000019*
X-061623Y079295J000020*
G01X-061718Y079554*
G02X-061719Y079561I000019J000007*
X-061706Y079579I000020*
G01X-061262Y079741*
G02X-061255Y079742I000007J000019*
X-061237Y079729J000020*
G01X-061142Y079470*
Y086793D02*
G02X-061141Y086786I000019J000007D01*
X-061154Y086768I000020*
G01X-061598Y086606*
G02X-061605Y086605I000007J000019*
X-061623Y086618J000020*
G01X-061718Y086877*
G02X-061719Y086884I000019J000007*
X-061706Y086902I000020*
G01X-061262Y087064*
G02X-061255Y087065I000007J000019*
X-061237Y087052J000020*
G01X-061142Y086793*
X-060900Y005576D02*
G02X-060899Y005569I000019J000007D01*
X-060912Y005551I000020*
G01X-061356Y005389*
G02X-061363Y005388I000007J000019*
X-061381Y005401J000020*
G01X-061475Y005660*
G02X-061476Y005667I000018J000007*
X-061464Y005685I000019*
G01X-061020Y005847*
G02X-061013Y005848I000007J000019*
X-060994Y005835J000020*
G01X-060900Y005576*
Y012899D02*
G02X-060899Y012892I000019J000007D01*
X-060912Y012873I000020*
G01X-061356Y012712*
G02X-061363Y012711I000007J000018*
X-061381Y012724J000019*
G01X-061475Y012983*
G02X-061476Y012989I000018J000006*
X-061464Y013008I000019*
G01X-061020Y013169*
G02X-061013Y013171I000007J000018*
X-060994Y013158J000020*
G01X-060900Y012899*
Y020222D02*
G02X-060899Y020215I000019J000007D01*
X-060912Y020196I000020*
G01X-061356Y020035*
G02X-061363Y020034I000007J000018*
X-061381Y020046J000019*
G01X-061475Y020305*
G02X-061476Y020312I000018J000007*
X-061464Y020331I000019*
G01X-061020Y020492*
G02X-061013Y020493I000007J000018*
X-060994Y020481J000019*
G01X-060900Y020222*
Y027544D02*
G02X-060899Y027538I000019J000006D01*
X-060912Y027519I000020*
G01X-061356Y027358*
G02X-061363Y027356I000007J000018*
X-061381Y027369J000020*
G01X-061475Y027628*
G02X-061476Y027635I000018J000007*
X-061464Y027654I000019*
G01X-061020Y027815*
G02X-061013Y027816I000007J000018*
X-060994Y027803J000019*
G01X-060900Y027544*
Y034867D02*
G02X-060899Y034860I000019J000007D01*
X-060912Y034842I000020*
G01X-061356Y034680*
G02X-061363Y034679I000007J000019*
X-061381Y034692J000020*
G01X-061475Y034951*
G02X-061476Y034958I000018J000007*
X-061464Y034976I000019*
G01X-061020Y035138*
G02X-061013Y035139I000007J000019*
X-060994Y035126J000020*
G01X-060900Y034867*
Y042190D02*
G02X-060899Y042183I000019J000007D01*
X-060912Y042165I000020*
G01X-061356Y042003*
G02X-061363Y042002I000007J000019*
X-061381Y042015J000020*
G01X-061475Y042274*
G02X-061476Y042281I000018J000007*
X-061464Y042299I000019*
G01X-061020Y042461*
G02X-061013Y042462I000007J000019*
X-060994Y042449J000020*
G01X-060900Y042190*
Y049513D02*
G02X-060899Y049506I000019J000007D01*
X-060912Y049488I000020*
G01X-061356Y049326*
G02X-061363Y049325I000007J000019*
X-061381Y049338J000020*
G01X-061475Y049597*
G02X-061476Y049604I000018J000007*
X-061464Y049622I000019*
G01X-061020Y049784*
G02X-061013Y049785I000007J000019*
X-060994Y049772J000020*
G01X-060900Y049513*
Y056836D02*
G02X-060899Y056829I000019J000007D01*
X-060912Y056810I000020*
G01X-061356Y056649*
G02X-061363Y056648I000007J000018*
X-061381Y056661J000019*
G01X-061475Y056920*
G02X-061476Y056926I000018J000006*
X-061464Y056945I000019*
G01X-061020Y057106*
G02X-061013Y057108I000007J000018*
X-060994Y057095J000020*
G01X-060900Y056836*
Y064159D02*
G02X-060899Y064152I000019J000007D01*
X-060912Y064133I000020*
G01X-061356Y063972*
G02X-061363Y063971I000007J000018*
X-061381Y063983J000019*
G01X-061475Y064242*
G02X-061476Y064249I000018J000007*
X-061464Y064268I000019*
G01X-061020Y064429*
G02X-061013Y064430I000007J000018*
X-060994Y064418J000019*
G01X-060900Y064159*
Y071481D02*
G02X-060899Y071475I000019J000006D01*
X-060912Y071456I000020*
G01X-061356Y071295*
G02X-061363Y071293I000007J000018*
X-061381Y071306J000020*
G01X-061475Y071565*
G02X-061476Y071572I000018J000007*
X-061464Y071591I000019*
G01X-061020Y071752*
G02X-061013Y071753I000007J000018*
X-060994Y071740J000019*
G01X-060900Y071481*
Y078804D02*
G02X-060899Y078797I000019J000007D01*
X-060912Y078779I000020*
G01X-061356Y078617*
G02X-061363Y078616I000007J000019*
X-061381Y078629J000020*
G01X-061475Y078888*
G02X-061476Y078895I000018J000007*
X-061464Y078913I000019*
G01X-061020Y079075*
G02X-061013Y079076I000007J000019*
X-060994Y079063J000020*
G01X-060900Y078804*
Y086127D02*
G02X-060899Y086120I000019J000007D01*
X-060912Y086102I000020*
G01X-061356Y085940*
G02X-061363Y085939I000007J000019*
X-061381Y085952J000020*
G01X-061475Y086211*
G02X-061476Y086218I000018J000007*
X-061464Y086236I000019*
G01X-061020Y086398*
G02X-061013Y086399I000007J000019*
X-060994Y086386J000020*
G01X-060900Y086127*
X-045482Y004628D02*
G02X-045463Y004641I000019J000007D01*
X-045456Y004640J000020*
G01X-045013Y004478*
G02X-045000Y004460I000006J000018*
X-045001Y004453I000019*
G01X-045095Y004194*
G02X-045113Y004181I000018J000007*
X-045120Y004182J000020*
G01X-045564Y004344*
G02X-045577Y004362I000007J000018*
X-045576Y004369I000020*
G01X-045482Y004628*
Y011951D02*
G02X-045463Y011964I000019J000007D01*
X-045456Y011963J000020*
G01X-045013Y011801*
G02X-045000Y011783I000006J000018*
X-045001Y011776I000019*
G01X-045095Y011517*
G02X-045113Y011504I000018J000007*
X-045120Y011505J000020*
G01X-045564Y011667*
G02X-045577Y011685I000007J000018*
X-045576Y011692I000020*
G01X-045482Y011951*
Y019274D02*
G02X-045463Y019287I000019J000007D01*
X-045456Y019286J000020*
G01X-045013Y019124*
G02X-045000Y019105I000006J000019*
X-045001Y019099I000019*
G01X-045095Y018840*
G02X-045113Y018827I000018J000007*
X-045120Y018828J000020*
G01X-045564Y018990*
G02X-045577Y019008I000007J000018*
X-045576Y019015I000020*
G01X-045482Y019274*
Y026597D02*
G02X-045463Y026610I000019J000007D01*
X-045456Y026608J000020*
G01X-045013Y026447*
G02X-045000Y026428I000006J000019*
X-045001Y026422I000019*
G01X-045095Y026163*
G02X-045113Y026150I000018J000006*
X-045120Y026151J000019*
G01X-045564Y026312*
G02X-045577Y026331I000007J000019*
X-045576Y026338I000020*
G01X-045482Y026597*
Y033919D02*
G02X-045463Y033932I000019J000006D01*
X-045456Y033931J000019*
G01X-045013Y033770*
G02X-045000Y033751I000006J000019*
X-045001Y033744I000019*
G01X-045095Y033485*
G02X-045113Y033473I000018J000007*
X-045120Y033474J000019*
G01X-045564Y033635*
G02X-045577Y033654I000007J000019*
X-045576Y033661I000020*
G01X-045482Y033919*
Y041242D02*
G02X-045463Y041255I000019J000006D01*
X-045456Y041254J000019*
G01X-045013Y041092*
G02X-045000Y041074I000006J000018*
X-045001Y041067I000019*
G01X-045095Y040808*
G02X-045113Y040795I000018J000007*
X-045120Y040797J000020*
G01X-045564Y040958*
G02X-045577Y040977I000007J000019*
X-045576Y040983I000020*
G01X-045482Y041242*
Y048565D02*
G02X-045463Y048578I000019J000007D01*
X-045456Y048577J000020*
G01X-045013Y048415*
G02X-045000Y048397I000006J000018*
X-045001Y048390I000019*
G01X-045095Y048131*
G02X-045113Y048118I000018J000007*
X-045120Y048119J000020*
G01X-045564Y048281*
G02X-045577Y048299I000007J000018*
X-045576Y048306I000020*
G01X-045482Y048565*
Y055888D02*
G02X-045463Y055901I000019J000007D01*
X-045456Y055900J000020*
G01X-045013Y055738*
G02X-045000Y055720I000006J000018*
X-045001Y055713I000019*
G01X-045095Y055454*
G02X-045113Y055441I000018J000007*
X-045120Y055442J000020*
G01X-045564Y055604*
G02X-045577Y055622I000007J000018*
X-045576Y055629I000020*
G01X-045482Y055888*
Y063211D02*
G02X-045463Y063224I000019J000007D01*
X-045456Y063223J000020*
G01X-045013Y063061*
G02X-045000Y063043I000006J000018*
X-045001Y063036I000019*
G01X-045095Y062777*
G02X-045113Y062764I000018J000007*
X-045120Y062765J000020*
G01X-045564Y062927*
G02X-045577Y062945I000007J000018*
X-045576Y062952I000020*
G01X-045482Y063211*
Y070534D02*
G02X-045463Y070547I000019J000007D01*
X-045456Y070545J000020*
G01X-045013Y070384*
G02X-045000Y070365I000006J000019*
X-045001Y070359I000019*
G01X-045095Y070100*
G02X-045113Y070087I000018J000006*
X-045120Y070088J000019*
G01X-045564Y070249*
G02X-045577Y070268I000007J000019*
X-045576Y070275I000020*
G01X-045482Y070534*
Y077856D02*
G02X-045463Y077869I000019J000006D01*
X-045456Y077868J000019*
G01X-045013Y077707*
G02X-045000Y077688I000006J000019*
X-045001Y077681I000019*
G01X-045095Y077422*
G02X-045113Y077410I000018J000007*
X-045120Y077411J000019*
G01X-045564Y077572*
G02X-045577Y077591I000007J000019*
X-045576Y077598I000020*
G01X-045482Y077856*
Y085179D02*
G02X-045463Y085192I000019J000006D01*
X-045456Y085191J000019*
G01X-045013Y085030*
G02X-045000Y085011I000006J000019*
X-045001Y085004I000019*
G01X-045095Y084745*
G02X-045113Y084732I000018J000007*
X-045120Y084734J000020*
G01X-045564Y084895*
G02X-045577Y084914I000007J000019*
X-045576Y084920I000020*
G01X-045482Y085179*
X-045239Y005294D02*
G02X-045221Y005307I000018J000007D01*
X-045214Y005306J000020*
G01X-044770Y005144*
G02X-044757Y005126I000007J000018*
X-044758Y005119I000020*
G01X-044853Y004860*
G02X-044871Y004847I000018J000007*
X-044878Y004848J000020*
G01X-045322Y005010*
G02X-045335Y005028I000007J000018*
X-045334Y005035I000020*
G01X-045239Y005294*
Y012617D02*
G02X-045221Y012630I000018J000007D01*
X-045214Y012629J000020*
G01X-044770Y012467*
G02X-044757Y012449I000007J000018*
X-044758Y012442I000020*
G01X-044853Y012183*
G02X-044871Y012170I000018J000007*
X-044878Y012171J000020*
G01X-045322Y012333*
G02X-045335Y012351I000007J000018*
X-045334Y012358I000020*
G01X-045239Y012617*
Y019940D02*
G02X-045221Y019953I000018J000007D01*
X-045214Y019952J000020*
G01X-044770Y019790*
G02X-044757Y019771I000007J000019*
X-044758Y019765I000020*
G01X-044853Y019506*
G02X-044871Y019493I000018J000006*
X-044878Y019494J000019*
G01X-045322Y019656*
G02X-045335Y019674I000007J000018*
X-045334Y019681I000020*
G01X-045239Y019940*
Y027263D02*
G02X-045221Y027276I000018J000007D01*
X-045214Y027274J000020*
G01X-044770Y027113*
G02X-044757Y027094I000007J000019*
X-044758Y027088I000020*
G01X-044853Y026829*
G02X-044871Y026816I000018J000006*
X-044878Y026817J000019*
G01X-045322Y026978*
G02X-045335Y026997I000007J000019*
X-045334Y027004I000020*
G01X-045239Y027263*
Y034585D02*
G02X-045221Y034598I000018J000006D01*
X-045214Y034597J000019*
G01X-044770Y034436*
G02X-044757Y034417I000007J000019*
X-044758Y034410I000020*
G01X-044853Y034151*
G02X-044871Y034138I000018J000007*
X-044878Y034140J000020*
G01X-045322Y034301*
G02X-045335Y034320I000007J000019*
X-045334Y034326I000020*
G01X-045239Y034585*
Y041908D02*
G02X-045221Y041921I000018J000006D01*
X-045214Y041920J000019*
G01X-044770Y041758*
G02X-044757Y041740I000007J000018*
X-044758Y041733I000020*
G01X-044853Y041474*
G02X-044871Y041461I000018J000007*
X-044878Y041462J000020*
G01X-045322Y041624*
G02X-045335Y041643I000007J000019*
X-045334Y041649I000020*
G01X-045239Y041908*
Y049231D02*
G02X-045221Y049244I000018J000007D01*
X-045214Y049243J000020*
G01X-044770Y049081*
G02X-044757Y049063I000007J000018*
X-044758Y049056I000020*
G01X-044853Y048797*
G02X-044871Y048784I000018J000007*
X-044878Y048785J000020*
G01X-045322Y048947*
G02X-045335Y048965I000007J000018*
X-045334Y048972I000020*
G01X-045239Y049231*
Y056554D02*
G02X-045221Y056567I000018J000007D01*
X-045214Y056566J000020*
G01X-044770Y056404*
G02X-044757Y056386I000007J000018*
X-044758Y056379I000020*
G01X-044853Y056120*
G02X-044871Y056107I000018J000007*
X-044878Y056108J000020*
G01X-045322Y056270*
G02X-045335Y056288I000007J000018*
X-045334Y056295I000020*
G01X-045239Y056554*
Y063877D02*
G02X-045221Y063890I000018J000007D01*
X-045214Y063889J000020*
G01X-044770Y063727*
G02X-044757Y063708I000007J000019*
X-044758Y063702I000020*
G01X-044853Y063443*
G02X-044871Y063430I000018J000006*
X-044878Y063431J000019*
G01X-045322Y063593*
G02X-045335Y063611I000007J000018*
X-045334Y063618I000020*
G01X-045239Y063877*
Y071200D02*
G02X-045221Y071213I000018J000007D01*
X-045214Y071211J000020*
G01X-044770Y071050*
G02X-044757Y071031I000007J000019*
X-044758Y071025I000020*
G01X-044853Y070766*
G02X-044871Y070753I000018J000006*
X-044878Y070754J000019*
G01X-045322Y070915*
G02X-045335Y070934I000007J000019*
X-045334Y070941I000020*
G01X-045239Y071200*
Y078522D02*
G02X-045221Y078535I000018J000006D01*
X-045214Y078534J000019*
G01X-044770Y078373*
G02X-044757Y078354I000007J000019*
X-044758Y078347I000020*
G01X-044853Y078088*
G02X-044871Y078075I000018J000007*
X-044878Y078077J000020*
G01X-045322Y078238*
G02X-045335Y078257I000007J000019*
X-045334Y078263I000020*
G01X-045239Y078522*
Y085845D02*
G02X-045221Y085858I000018J000006D01*
X-045214Y085857J000019*
G01X-044770Y085695*
G02X-044757Y085677I000007J000018*
X-044758Y085670I000020*
G01X-044853Y085411*
G02X-044871Y085398I000018J000007*
X-044878Y085399J000020*
G01X-045322Y085561*
G02X-045335Y085580I000007J000019*
X-045334Y085586I000020*
G01X-045239Y085845*
X-044804Y006242D02*
G02X-044803Y006235I000018J000007D01*
X-044816Y006217I000019*
G01X-045260Y006055*
G02X-045266Y006054I000006J000018*
X-045285Y006067J000019*
G01X-045379Y006326*
G02X-045380Y006332I000018J000006*
X-045367Y006351I000019*
G01X-044923Y006513*
G02X-044917Y006514I000006J000019*
X-044898Y006501J000020*
G01X-044804Y006242*
Y013565D02*
G02X-044803Y013558I000018J000007D01*
X-044816Y013539I000019*
G01X-045260Y013378*
G02X-045266Y013377I000006J000018*
X-045285Y013390J000019*
G01X-045379Y013649*
G02X-045380Y013655I000018J000006*
X-045367Y013674I000019*
G01X-044923Y013835*
G02X-044917Y013837I000006J000018*
X-044898Y013824J000020*
G01X-044804Y013565*
Y020887D02*
G02X-044803Y020881I000018J000006D01*
X-044816Y020862I000019*
G01X-045260Y020701*
G02X-045266Y020699I000006J000018*
X-045285Y020712J000020*
G01X-045379Y020971*
G02X-045380Y020978I000018J000007*
X-045367Y020997I000019*
G01X-044923Y021158*
G02X-044917Y021159I000006J000018*
X-044898Y021146J000019*
G01X-044804Y020887*
Y028210D02*
G02X-044803Y028204I000018J000006D01*
X-044816Y028185I000019*
G01X-045260Y028023*
G02X-045266Y028022I000006J000019*
X-045285Y028035J000020*
G01X-045379Y028294*
G02X-045380Y028301I000018J000007*
X-045367Y028319I000019*
G01X-044923Y028481*
G02X-044917Y028482I000006J000018*
X-044898Y028469J000019*
G01X-044804Y028210*
Y035533D02*
G02X-044803Y035526I000018J000007D01*
X-044816Y035508I000019*
G01X-045260Y035346*
G02X-045266Y035345I000006J000019*
X-045285Y035358J000020*
G01X-045379Y035617*
G02X-045380Y035624I000018J000007*
X-045367Y035642I000019*
G01X-044923Y035804*
G02X-044917Y035805I000006J000019*
X-044898Y035792J000020*
G01X-044804Y035533*
Y042856D02*
G02X-044803Y042849I000018J000007D01*
X-044816Y042831I000019*
G01X-045260Y042669*
G02X-045266Y042668I000006J000019*
X-045285Y042681J000020*
G01X-045379Y042940*
G02X-045380Y042947I000018J000007*
X-045367Y042965I000019*
G01X-044923Y043127*
G02X-044917Y043128I000006J000019*
X-044898Y043115J000020*
G01X-044804Y042856*
Y050179D02*
G02X-044803Y050172I000018J000007D01*
X-044816Y050154I000019*
G01X-045260Y049992*
G02X-045266Y049991I000006J000018*
X-045285Y050004J000019*
G01X-045379Y050263*
G02X-045380Y050269I000018J000006*
X-045367Y050288I000019*
G01X-044923Y050450*
G02X-044917Y050451I000006J000019*
X-044898Y050438J000020*
G01X-044804Y050179*
Y057502D02*
G02X-044803Y057495I000018J000007D01*
X-044816Y057476I000019*
G01X-045260Y057315*
G02X-045266Y057314I000006J000018*
X-045285Y057327J000019*
G01X-045379Y057586*
G02X-045380Y057592I000018J000006*
X-045367Y057611I000019*
G01X-044923Y057772*
G02X-044917Y057774I000006J000018*
X-044898Y057761J000020*
G01X-044804Y057502*
Y064824D02*
G02X-044803Y064818I000018J000006D01*
X-044816Y064799I000019*
G01X-045260Y064638*
G02X-045266Y064636I000006J000018*
X-045285Y064649J000020*
G01X-045379Y064908*
G02X-045380Y064915I000018J000007*
X-045367Y064934I000019*
G01X-044923Y065095*
G02X-044917Y065096I000006J000018*
X-044898Y065083J000019*
G01X-044804Y064824*
Y072147D02*
G02X-044803Y072141I000018J000006D01*
X-044816Y072122I000019*
G01X-045260Y071960*
G02X-045266Y071959I000006J000019*
X-045285Y071972J000020*
G01X-045379Y072231*
G02X-045380Y072238I000018J000007*
X-045367Y072256I000019*
G01X-044923Y072418*
G02X-044917Y072419I000006J000018*
X-044898Y072406J000019*
G01X-044804Y072147*
Y079470D02*
G02X-044803Y079463I000018J000007D01*
X-044816Y079445I000019*
G01X-045260Y079283*
G02X-045266Y079282I000006J000019*
X-045285Y079295J000020*
G01X-045379Y079554*
G02X-045380Y079561I000018J000007*
X-045367Y079579I000019*
G01X-044923Y079741*
G02X-044917Y079742I000006J000019*
X-044898Y079729J000020*
G01X-044804Y079470*
Y086793D02*
G02X-044803Y086786I000018J000007D01*
X-044816Y086768I000019*
G01X-045260Y086606*
G02X-045266Y086605I000006J000019*
X-045285Y086618J000020*
G01X-045379Y086877*
G02X-045380Y086884I000018J000007*
X-045367Y086902I000019*
G01X-044923Y087064*
G02X-044917Y087065I000006J000019*
X-044898Y087052J000020*
G01X-044804Y086793*
X-044562Y005576D02*
G02X-044560Y005569I000018J000007D01*
X-044573Y005551I000020*
G01X-045017Y005389*
G02X-045024Y005388I000007J000019*
X-045042Y005401J000020*
G01X-045137Y005660*
G02X-045138Y005667I000019J000007*
X-045125Y005685I000020*
G01X-044681Y005847*
G02X-044674Y005848I000007J000019*
X-044656Y005835J000020*
G01X-044562Y005576*
Y012899D02*
G02X-044560Y012892I000018J000007D01*
X-044573Y012873I000020*
G01X-045017Y012712*
G02X-045024Y012711I000007J000018*
X-045042Y012724J000019*
G01X-045137Y012983*
G02X-045138Y012989I000019J000006*
X-045125Y013008I000020*
G01X-044681Y013169*
G02X-044674Y013171I000007J000018*
X-044656Y013158J000020*
G01X-044562Y012899*
Y020222D02*
G02X-044560Y020215I000018J000007D01*
X-044573Y020196I000020*
G01X-045017Y020035*
G02X-045024Y020034I000007J000018*
X-045042Y020046J000019*
G01X-045137Y020305*
G02X-045138Y020312I000019J000007*
X-045125Y020331I000020*
G01X-044681Y020492*
G02X-044674Y020493I000007J000018*
X-044656Y020481J000019*
G01X-044562Y020222*
Y027544D02*
G02X-044560Y027538I000018J000006D01*
X-044573Y027519I000020*
G01X-045017Y027358*
G02X-045024Y027356I000007J000018*
X-045042Y027369J000020*
G01X-045137Y027628*
G02X-045138Y027635I000019J000007*
X-045125Y027654I000020*
G01X-044681Y027815*
G02X-044674Y027816I000007J000018*
X-044656Y027803J000019*
G01X-044562Y027544*
Y034867D02*
G02X-044560Y034860I000018J000007D01*
X-044573Y034842I000020*
G01X-045017Y034680*
G02X-045024Y034679I000007J000019*
X-045042Y034692J000020*
G01X-045137Y034951*
G02X-045138Y034958I000019J000007*
X-045125Y034976I000020*
G01X-044681Y035138*
G02X-044674Y035139I000007J000019*
X-044656Y035126J000020*
G01X-044562Y034867*
Y042190D02*
G02X-044560Y042183I000018J000007D01*
X-044573Y042165I000020*
G01X-045017Y042003*
G02X-045024Y042002I000007J000019*
X-045042Y042015J000020*
G01X-045137Y042274*
G02X-045138Y042281I000019J000007*
X-045125Y042299I000020*
G01X-044681Y042461*
G02X-044674Y042462I000007J000019*
X-044656Y042449J000020*
G01X-044562Y042190*
Y049513D02*
G02X-044560Y049506I000018J000007D01*
X-044573Y049488I000020*
G01X-045017Y049326*
G02X-045024Y049325I000007J000019*
X-045042Y049338J000020*
G01X-045137Y049597*
G02X-045138Y049604I000019J000007*
X-045125Y049622I000020*
G01X-044681Y049784*
G02X-044674Y049785I000007J000019*
X-044656Y049772J000020*
G01X-044562Y049513*
Y056836D02*
G02X-044560Y056829I000018J000007D01*
X-044573Y056810I000020*
G01X-045017Y056649*
G02X-045024Y056648I000007J000018*
X-045042Y056661J000019*
G01X-045137Y056920*
G02X-045138Y056926I000019J000006*
X-045125Y056945I000020*
G01X-044681Y057106*
G02X-044674Y057108I000007J000018*
X-044656Y057095J000020*
G01X-044562Y056836*
Y064159D02*
G02X-044560Y064152I000018J000007D01*
X-044573Y064133I000020*
G01X-045017Y063972*
G02X-045024Y063971I000007J000018*
X-045042Y063983J000019*
G01X-045137Y064242*
G02X-045138Y064249I000019J000007*
X-045125Y064268I000020*
G01X-044681Y064429*
G02X-044674Y064430I000007J000018*
X-044656Y064418J000019*
G01X-044562Y064159*
Y071481D02*
G02X-044560Y071475I000018J000006D01*
X-044573Y071456I000020*
G01X-045017Y071295*
G02X-045024Y071293I000007J000018*
X-045042Y071306J000020*
G01X-045137Y071565*
G02X-045138Y071572I000019J000007*
X-045125Y071591I000020*
G01X-044681Y071752*
G02X-044674Y071753I000007J000018*
X-044656Y071740J000019*
G01X-044562Y071481*
Y078804D02*
G02X-044560Y078797I000018J000007D01*
X-044573Y078779I000020*
G01X-045017Y078617*
G02X-045024Y078616I000007J000019*
X-045042Y078629J000020*
G01X-045137Y078888*
G02X-045138Y078895I000019J000007*
X-045125Y078913I000020*
G01X-044681Y079075*
G02X-044674Y079076I000007J000019*
X-044656Y079063J000020*
G01X-044562Y078804*
Y086127D02*
G02X-044560Y086120I000018J000007D01*
X-044573Y086102I000020*
G01X-045017Y085940*
G02X-045024Y085939I000007J000019*
X-045042Y085952J000020*
G01X-045137Y086211*
G02X-045138Y086218I000019J000007*
X-045125Y086236I000020*
G01X-044681Y086398*
G02X-044674Y086399I000007J000019*
X-044656Y086386J000020*
G01X-044562Y086127*
X-029143Y004628D02*
G02X-029125Y004641I000018J000007D01*
X-029118Y004640J000020*
G01X-028674Y004478*
G02X-028661Y004460I000007J000018*
X-028662Y004453I000020*
G01X-028756Y004194*
G02X-028775Y004181I000019J000007*
X-028782Y004182J000020*
G01X-029226Y004344*
G02X-029239Y004362I000007J000018*
X-029237Y004369I000020*
G01X-029143Y004628*
Y011951D02*
G02X-029125Y011964I000018J000007D01*
X-029118Y011963J000020*
G01X-028674Y011801*
G02X-028661Y011783I000007J000018*
X-028662Y011776I000020*
G01X-028756Y011517*
G02X-028775Y011504I000019J000007*
X-028782Y011505J000020*
G01X-029226Y011667*
G02X-029239Y011685I000007J000018*
X-029237Y011692I000020*
G01X-029143Y011951*
Y019274D02*
G02X-029125Y019287I000018J000007D01*
X-029118Y019286J000020*
G01X-028674Y019124*
G02X-028661Y019105I000007J000019*
X-028662Y019099I000020*
G01X-028756Y018840*
G02X-028775Y018827I000019J000007*
X-028782Y018828J000020*
G01X-029226Y018990*
G02X-029239Y019008I000007J000018*
X-029237Y019015I000020*
G01X-029143Y019274*
Y026597D02*
G02X-029125Y026610I000018J000007D01*
X-029118Y026608J000020*
G01X-028674Y026447*
G02X-028661Y026428I000007J000019*
X-028662Y026422I000020*
G01X-028756Y026163*
G02X-028775Y026150I000019J000006*
X-028782Y026151J000019*
G01X-029226Y026312*
G02X-029239Y026331I000007J000019*
X-029237Y026338I000020*
G01X-029143Y026597*
Y033919D02*
G02X-029125Y033932I000018J000006D01*
X-029118Y033931J000019*
G01X-028674Y033770*
G02X-028661Y033751I000007J000019*
X-028662Y033744I000020*
G01X-028756Y033485*
G02X-028775Y033473I000019J000007*
X-028782Y033474J000019*
G01X-029226Y033635*
G02X-029239Y033654I000007J000019*
X-029237Y033661I000020*
G01X-029143Y033919*
Y041242D02*
G02X-029125Y041255I000018J000006D01*
X-029118Y041254J000019*
G01X-028674Y041092*
G02X-028661Y041074I000007J000018*
X-028662Y041067I000020*
G01X-028756Y040808*
G02X-028775Y040795I000019J000007*
X-028782Y040797J000020*
G01X-029226Y040958*
G02X-029239Y040977I000007J000019*
X-029237Y040983I000020*
G01X-029143Y041242*
Y048565D02*
G02X-029125Y048578I000018J000007D01*
X-029118Y048577J000020*
G01X-028674Y048415*
G02X-028661Y048397I000007J000018*
X-028662Y048390I000020*
G01X-028756Y048131*
G02X-028775Y048118I000019J000007*
X-028782Y048119J000020*
G01X-029226Y048281*
G02X-029239Y048299I000007J000018*
X-029237Y048306I000020*
G01X-029143Y048565*
Y055888D02*
G02X-029125Y055901I000018J000007D01*
X-029118Y055900J000020*
G01X-028674Y055738*
G02X-028661Y055720I000007J000018*
X-028662Y055713I000020*
G01X-028756Y055454*
G02X-028775Y055441I000019J000007*
X-028782Y055442J000020*
G01X-029226Y055604*
G02X-029239Y055622I000007J000018*
X-029237Y055629I000020*
G01X-029143Y055888*
Y063211D02*
G02X-029125Y063224I000018J000007D01*
X-029118Y063223J000020*
G01X-028674Y063061*
G02X-028661Y063043I000007J000018*
X-028662Y063036I000020*
G01X-028756Y062777*
G02X-028775Y062764I000019J000007*
X-028782Y062765J000020*
G01X-029226Y062927*
G02X-029239Y062945I000007J000018*
X-029237Y062952I000020*
G01X-029143Y063211*
Y070534D02*
G02X-029125Y070547I000018J000007D01*
X-029118Y070545J000020*
G01X-028674Y070384*
G02X-028661Y070365I000007J000019*
X-028662Y070359I000020*
G01X-028756Y070100*
G02X-028775Y070087I000019J000006*
X-028782Y070088J000019*
G01X-029226Y070249*
G02X-029239Y070268I000007J000019*
X-029237Y070275I000020*
G01X-029143Y070534*
Y077856D02*
G02X-029125Y077869I000018J000006D01*
X-029118Y077868J000019*
G01X-028674Y077707*
G02X-028661Y077688I000007J000019*
X-028662Y077681I000020*
G01X-028756Y077422*
G02X-028775Y077410I000019J000007*
X-028782Y077411J000019*
G01X-029226Y077572*
G02X-029239Y077591I000007J000019*
X-029237Y077598I000020*
G01X-029143Y077856*
Y085179D02*
G02X-029125Y085192I000018J000006D01*
X-029118Y085191J000019*
G01X-028674Y085030*
G02X-028661Y085011I000007J000019*
X-028662Y085004I000020*
G01X-028756Y084745*
G02X-028775Y084732I000019J000007*
X-028782Y084734J000020*
G01X-029226Y084895*
G02X-029239Y084914I000007J000019*
X-029237Y084920I000020*
G01X-029143Y085179*
X-028901Y005294D02*
G02X-028882Y005307I000019J000007D01*
X-028875Y005306J000020*
G01X-028432Y005144*
G02X-028419Y005126I000006J000018*
X-028420Y005119I000019*
G01X-028514Y004860*
G02X-028533Y004847I000019J000007*
X-028539Y004848J000020*
G01X-028983Y005010*
G02X-028996Y005028I000007J000018*
X-028995Y005035I000020*
G01X-028901Y005294*
Y012617D02*
G02X-028882Y012630I000019J000007D01*
X-028875Y012629J000020*
G01X-028432Y012467*
G02X-028419Y012449I000006J000018*
X-028420Y012442I000019*
G01X-028514Y012183*
G02X-028533Y012170I000019J000007*
X-028539Y012171J000020*
G01X-028983Y012333*
G02X-028996Y012351I000007J000018*
X-028995Y012358I000020*
G01X-028901Y012617*
Y019940D02*
G02X-028882Y019953I000019J000007D01*
X-028875Y019952J000020*
G01X-028432Y019790*
G02X-028419Y019771I000006J000019*
X-028420Y019765I000019*
G01X-028514Y019506*
G02X-028533Y019493I000019J000006*
X-028539Y019494J000019*
G01X-028983Y019656*
G02X-028996Y019674I000007J000018*
X-028995Y019681I000020*
G01X-028901Y019940*
Y027263D02*
G02X-028882Y027276I000019J000007D01*
X-028875Y027274J000020*
G01X-028432Y027113*
G02X-028419Y027094I000006J000019*
X-028420Y027088I000019*
G01X-028514Y026829*
G02X-028533Y026816I000019J000006*
X-028539Y026817J000019*
G01X-028983Y026978*
G02X-028996Y026997I000007J000019*
X-028995Y027004I000020*
G01X-028901Y027263*
Y034585D02*
G02X-028882Y034598I000019J000006D01*
X-028875Y034597J000019*
G01X-028432Y034436*
G02X-028419Y034417I000006J000019*
X-028420Y034410I000019*
G01X-028514Y034151*
G02X-028533Y034138I000019J000007*
X-028539Y034140J000020*
G01X-028983Y034301*
G02X-028996Y034320I000007J000019*
X-028995Y034326I000020*
G01X-028901Y034585*
Y041908D02*
G02X-028882Y041921I000019J000006D01*
X-028875Y041920J000019*
G01X-028432Y041758*
G02X-028419Y041740I000006J000018*
X-028420Y041733I000019*
G01X-028514Y041474*
G02X-028533Y041461I000019J000007*
X-028539Y041462J000020*
G01X-028983Y041624*
G02X-028996Y041643I000007J000019*
X-028995Y041649I000020*
G01X-028901Y041908*
Y049231D02*
G02X-028882Y049244I000019J000007D01*
X-028875Y049243J000020*
G01X-028432Y049081*
G02X-028419Y049063I000006J000018*
X-028420Y049056I000019*
G01X-028514Y048797*
G02X-028533Y048784I000019J000007*
X-028539Y048785J000020*
G01X-028983Y048947*
G02X-028996Y048965I000007J000018*
X-028995Y048972I000020*
G01X-028901Y049231*
Y056554D02*
G02X-028882Y056567I000019J000007D01*
X-028875Y056566J000020*
G01X-028432Y056404*
G02X-028419Y056386I000006J000018*
X-028420Y056379I000019*
G01X-028514Y056120*
G02X-028533Y056107I000019J000007*
X-028539Y056108J000020*
G01X-028983Y056270*
G02X-028996Y056288I000007J000018*
X-028995Y056295I000020*
G01X-028901Y056554*
Y063877D02*
G02X-028882Y063890I000019J000007D01*
X-028875Y063889J000020*
G01X-028432Y063727*
G02X-028419Y063708I000006J000019*
X-028420Y063702I000019*
G01X-028514Y063443*
G02X-028533Y063430I000019J000006*
X-028539Y063431J000019*
G01X-028983Y063593*
G02X-028996Y063611I000007J000018*
X-028995Y063618I000020*
G01X-028901Y063877*
Y071200D02*
G02X-028882Y071213I000019J000007D01*
X-028875Y071211J000020*
G01X-028432Y071050*
G02X-028419Y071031I000006J000019*
X-028420Y071025I000019*
G01X-028514Y070766*
G02X-028533Y070753I000019J000006*
X-028539Y070754J000019*
G01X-028983Y070915*
G02X-028996Y070934I000007J000019*
X-028995Y070941I000020*
G01X-028901Y071200*
Y078522D02*
G02X-028882Y078535I000019J000006D01*
X-028875Y078534J000019*
G01X-028432Y078373*
G02X-028419Y078354I000006J000019*
X-028420Y078347I000019*
G01X-028514Y078088*
G02X-028533Y078075I000019J000007*
X-028539Y078077J000020*
G01X-028983Y078238*
G02X-028996Y078257I000007J000019*
X-028995Y078263I000020*
G01X-028901Y078522*
Y085845D02*
G02X-028882Y085858I000019J000006D01*
X-028875Y085857J000019*
G01X-028432Y085695*
G02X-028419Y085677I000006J000018*
X-028420Y085670I000019*
G01X-028514Y085411*
G02X-028533Y085398I000019J000007*
X-028539Y085399J000020*
G01X-028983Y085561*
G02X-028996Y085580I000007J000019*
X-028995Y085586I000020*
G01X-028901Y085845*
X-028465Y006242D02*
G02X-028464Y006235I000019J000007D01*
X-028477Y006217I000020*
G01X-028921Y006055*
G02X-028928Y006054I000007J000018*
X-028946Y006067J000019*
G01X-029041Y006326*
G02X-029042Y006332I000019J000006*
X-029029Y006351I000020*
G01X-028585Y006513*
G02X-028578Y006514I000007J000019*
X-028560Y006501J000020*
G01X-028465Y006242*
Y013565D02*
G02X-028464Y013558I000019J000007D01*
X-028477Y013539I000020*
G01X-028921Y013378*
G02X-028928Y013377I000007J000018*
X-028946Y013390J000019*
G01X-029041Y013649*
G02X-029042Y013655I000019J000006*
X-029029Y013674I000020*
G01X-028585Y013835*
G02X-028578Y013837I000007J000018*
X-028560Y013824J000020*
G01X-028465Y013565*
Y020887D02*
G02X-028464Y020881I000019J000006D01*
X-028477Y020862I000020*
G01X-028921Y020701*
G02X-028928Y020699I000007J000018*
X-028946Y020712J000020*
G01X-029041Y020971*
G02X-029042Y020978I000019J000007*
X-029029Y020997I000020*
G01X-028585Y021158*
G02X-028578Y021159I000007J000018*
X-028560Y021146J000019*
G01X-028465Y020887*
Y028210D02*
G02X-028464Y028204I000019J000006D01*
X-028477Y028185I000020*
G01X-028921Y028023*
G02X-028928Y028022I000007J000019*
X-028946Y028035J000020*
G01X-029041Y028294*
G02X-029042Y028301I000019J000007*
X-029029Y028319I000020*
G01X-028585Y028481*
G02X-028578Y028482I000007J000018*
X-028560Y028469J000019*
G01X-028465Y028210*
Y035533D02*
G02X-028464Y035526I000019J000007D01*
X-028477Y035508I000020*
G01X-028921Y035346*
G02X-028928Y035345I000007J000019*
X-028946Y035358J000020*
G01X-029041Y035617*
G02X-029042Y035624I000019J000007*
X-029029Y035642I000020*
G01X-028585Y035804*
G02X-028578Y035805I000007J000019*
X-028560Y035792J000020*
G01X-028465Y035533*
Y042856D02*
G02X-028464Y042849I000019J000007D01*
X-028477Y042831I000020*
G01X-028921Y042669*
G02X-028928Y042668I000007J000019*
X-028946Y042681J000020*
G01X-029041Y042940*
G02X-029042Y042947I000019J000007*
X-029029Y042965I000020*
G01X-028585Y043127*
G02X-028578Y043128I000007J000019*
X-028560Y043115J000020*
G01X-028465Y042856*
Y050179D02*
G02X-028464Y050172I000019J000007D01*
X-028477Y050154I000020*
G01X-028921Y049992*
G02X-028928Y049991I000007J000018*
X-028946Y050004J000019*
G01X-029041Y050263*
G02X-029042Y050269I000019J000006*
X-029029Y050288I000020*
G01X-028585Y050450*
G02X-028578Y050451I000007J000019*
X-028560Y050438J000020*
G01X-028465Y050179*
Y057502D02*
G02X-028464Y057495I000019J000007D01*
X-028477Y057476I000020*
G01X-028921Y057315*
G02X-028928Y057314I000007J000018*
X-028946Y057327J000019*
G01X-029041Y057586*
G02X-029042Y057592I000019J000006*
X-029029Y057611I000020*
G01X-028585Y057772*
G02X-028578Y057774I000007J000018*
X-028560Y057761J000020*
G01X-028465Y057502*
Y064824D02*
G02X-028464Y064818I000019J000006D01*
X-028477Y064799I000020*
G01X-028921Y064638*
G02X-028928Y064636I000007J000018*
X-028946Y064649J000020*
G01X-029041Y064908*
G02X-029042Y064915I000019J000007*
X-029029Y064934I000020*
G01X-028585Y065095*
G02X-028578Y065096I000007J000018*
X-028560Y065083J000019*
G01X-028465Y064824*
Y072147D02*
G02X-028464Y072141I000019J000006D01*
X-028477Y072122I000020*
G01X-028921Y071960*
G02X-028928Y071959I000007J000019*
X-028946Y071972J000020*
G01X-029041Y072231*
G02X-029042Y072238I000019J000007*
X-029029Y072256I000020*
G01X-028585Y072418*
G02X-028578Y072419I000007J000018*
X-028560Y072406J000019*
G01X-028465Y072147*
Y079470D02*
G02X-028464Y079463I000019J000007D01*
X-028477Y079445I000020*
G01X-028921Y079283*
G02X-028928Y079282I000007J000019*
X-028946Y079295J000020*
G01X-029041Y079554*
G02X-029042Y079561I000019J000007*
X-029029Y079579I000020*
G01X-028585Y079741*
G02X-028578Y079742I000007J000019*
X-028560Y079729J000020*
G01X-028465Y079470*
Y086793D02*
G02X-028464Y086786I000019J000007D01*
X-028477Y086768I000020*
G01X-028921Y086606*
G02X-028928Y086605I000007J000019*
X-028946Y086618J000020*
G01X-029041Y086877*
G02X-029042Y086884I000019J000007*
X-029029Y086902I000020*
G01X-028585Y087064*
G02X-028578Y087065I000007J000019*
X-028560Y087052J000020*
G01X-028465Y086793*
X-028223Y005576D02*
G02X-028222Y005569I000018J000007D01*
X-028235Y005551I000019*
G01X-028679Y005389*
G02X-028685Y005388I000006J000019*
X-028704Y005401J000020*
G01X-028798Y005660*
G02X-028799Y005667I000018J000007*
X-028786Y005685I000019*
G01X-028342Y005847*
G02X-028336Y005848I000006J000019*
X-028317Y005835J000020*
G01X-028223Y005576*
Y012899D02*
G02X-028222Y012892I000018J000007D01*
X-028235Y012873I000019*
G01X-028679Y012712*
G02X-028685Y012711I000006J000018*
X-028704Y012724J000019*
G01X-028798Y012983*
G02X-028799Y012989I000018J000006*
X-028786Y013008I000019*
G01X-028342Y013169*
G02X-028336Y013171I000006J000018*
X-028317Y013158J000020*
G01X-028223Y012899*
Y020222D02*
G02X-028222Y020215I000018J000007D01*
X-028235Y020196I000019*
G01X-028679Y020035*
G02X-028685Y020034I000006J000018*
X-028704Y020046J000019*
G01X-028798Y020305*
G02X-028799Y020312I000018J000007*
X-028786Y020331I000019*
G01X-028342Y020492*
G02X-028336Y020493I000006J000018*
X-028317Y020481J000019*
G01X-028223Y020222*
Y027544D02*
G02X-028222Y027538I000018J000006D01*
X-028235Y027519I000019*
G01X-028679Y027358*
G02X-028685Y027356I000006J000018*
X-028704Y027369J000020*
G01X-028798Y027628*
G02X-028799Y027635I000018J000007*
X-028786Y027654I000019*
G01X-028342Y027815*
G02X-028336Y027816I000006J000018*
X-028317Y027803J000019*
G01X-028223Y027544*
Y034867D02*
G02X-028222Y034860I000018J000007D01*
X-028235Y034842I000019*
G01X-028679Y034680*
G02X-028685Y034679I000006J000019*
X-028704Y034692J000020*
G01X-028798Y034951*
G02X-028799Y034958I000018J000007*
X-028786Y034976I000019*
G01X-028342Y035138*
G02X-028336Y035139I000006J000019*
X-028317Y035126J000020*
G01X-028223Y034867*
Y042190D02*
G02X-028222Y042183I000018J000007D01*
X-028235Y042165I000019*
G01X-028679Y042003*
G02X-028685Y042002I000006J000019*
X-028704Y042015J000020*
G01X-028798Y042274*
G02X-028799Y042281I000018J000007*
X-028786Y042299I000019*
G01X-028342Y042461*
G02X-028336Y042462I000006J000019*
X-028317Y042449J000020*
G01X-028223Y042190*
Y049513D02*
G02X-028222Y049506I000018J000007D01*
X-028235Y049488I000019*
G01X-028679Y049326*
G02X-028685Y049325I000006J000019*
X-028704Y049338J000020*
G01X-028798Y049597*
G02X-028799Y049604I000018J000007*
X-028786Y049622I000019*
G01X-028342Y049784*
G02X-028336Y049785I000006J000019*
X-028317Y049772J000020*
G01X-028223Y049513*
Y056836D02*
G02X-028222Y056829I000018J000007D01*
X-028235Y056810I000019*
G01X-028679Y056649*
G02X-028685Y056648I000006J000018*
X-028704Y056661J000019*
G01X-028798Y056920*
G02X-028799Y056926I000018J000006*
X-028786Y056945I000019*
G01X-028342Y057106*
G02X-028336Y057108I000006J000018*
X-028317Y057095J000020*
G01X-028223Y056836*
Y064159D02*
G02X-028222Y064152I000018J000007D01*
X-028235Y064133I000019*
G01X-028679Y063972*
G02X-028685Y063971I000006J000018*
X-028704Y063983J000019*
G01X-028798Y064242*
G02X-028799Y064249I000018J000007*
X-028786Y064268I000019*
G01X-028342Y064429*
G02X-028336Y064430I000006J000018*
X-028317Y064418J000019*
G01X-028223Y064159*
Y071481D02*
G02X-028222Y071475I000018J000006D01*
X-028235Y071456I000019*
G01X-028679Y071295*
G02X-028685Y071293I000006J000018*
X-028704Y071306J000020*
G01X-028798Y071565*
G02X-028799Y071572I000018J000007*
X-028786Y071591I000019*
G01X-028342Y071752*
G02X-028336Y071753I000006J000018*
X-028317Y071740J000019*
G01X-028223Y071481*
Y078804D02*
G02X-028222Y078797I000018J000007D01*
X-028235Y078779I000019*
G01X-028679Y078617*
G02X-028685Y078616I000006J000019*
X-028704Y078629J000020*
G01X-028798Y078888*
G02X-028799Y078895I000018J000007*
X-028786Y078913I000019*
G01X-028342Y079075*
G02X-028336Y079076I000006J000019*
X-028317Y079063J000020*
G01X-028223Y078804*
Y086127D02*
G02X-028222Y086120I000018J000007D01*
X-028235Y086102I000019*
G01X-028679Y085940*
G02X-028685Y085939I000006J000019*
X-028704Y085952J000020*
G01X-028798Y086211*
G02X-028799Y086218I000018J000007*
X-028786Y086236I000019*
G01X-028342Y086398*
G02X-028336Y086399I000006J000019*
X-028317Y086386J000020*
G01X-028223Y086127*
X-012805Y004628D02*
G02X-012786Y004641I000019J000007D01*
X-012779Y004640J000020*
G01X-012335Y004478*
G02X-012322Y004460I000007J000018*
X-012324Y004453I000020*
G01X-012418Y004194*
G02X-012436Y004181I000018J000007*
X-012443Y004182J000020*
G01X-012887Y004344*
G02X-012900Y004362I000007J000018*
X-012899Y004369I000020*
G01X-012805Y004628*
Y011951D02*
G02X-012786Y011964I000019J000007D01*
X-012779Y011963J000020*
G01X-012335Y011801*
G02X-012322Y011783I000007J000018*
X-012324Y011776I000020*
G01X-012418Y011517*
G02X-012436Y011504I000018J000007*
X-012443Y011505J000020*
G01X-012887Y011667*
G02X-012900Y011685I000007J000018*
X-012899Y011692I000020*
G01X-012805Y011951*
Y019274D02*
G02X-012786Y019287I000019J000007D01*
X-012779Y019286J000020*
G01X-012335Y019124*
G02X-012322Y019105I000007J000019*
X-012324Y019099I000020*
G01X-012418Y018840*
G02X-012436Y018827I000018J000007*
X-012443Y018828J000020*
G01X-012887Y018990*
G02X-012900Y019008I000007J000018*
X-012899Y019015I000020*
G01X-012805Y019274*
Y026597D02*
G02X-012786Y026610I000019J000007D01*
X-012779Y026608J000020*
G01X-012335Y026447*
G02X-012322Y026428I000007J000019*
X-012324Y026422I000020*
G01X-012418Y026163*
G02X-012436Y026150I000018J000006*
X-012443Y026151J000019*
G01X-012887Y026312*
G02X-012900Y026331I000007J000019*
X-012899Y026338I000020*
G01X-012805Y026597*
Y033919D02*
G02X-012786Y033932I000019J000006D01*
X-012779Y033931J000019*
G01X-012335Y033770*
G02X-012322Y033751I000007J000019*
X-012324Y033744I000020*
G01X-012418Y033485*
G02X-012436Y033473I000018J000007*
X-012443Y033474J000019*
G01X-012887Y033635*
G02X-012900Y033654I000007J000019*
X-012899Y033661I000020*
G01X-012805Y033919*
Y041242D02*
G02X-012786Y041255I000019J000006D01*
X-012779Y041254J000019*
G01X-012335Y041092*
G02X-012322Y041074I000007J000018*
X-012324Y041067I000020*
G01X-012418Y040808*
G02X-012436Y040795I000018J000007*
X-012443Y040797J000020*
G01X-012887Y040958*
G02X-012900Y040977I000007J000019*
X-012899Y040983I000020*
G01X-012805Y041242*
Y048565D02*
G02X-012786Y048578I000019J000007D01*
X-012779Y048577J000020*
G01X-012335Y048415*
G02X-012322Y048397I000007J000018*
X-012324Y048390I000020*
G01X-012418Y048131*
G02X-012436Y048118I000018J000007*
X-012443Y048119J000020*
G01X-012887Y048281*
G02X-012900Y048299I000007J000018*
X-012899Y048306I000020*
G01X-012805Y048565*
Y055888D02*
G02X-012786Y055901I000019J000007D01*
X-012779Y055900J000020*
G01X-012335Y055738*
G02X-012322Y055720I000007J000018*
X-012324Y055713I000020*
G01X-012418Y055454*
G02X-012436Y055441I000018J000007*
X-012443Y055442J000020*
G01X-012887Y055604*
G02X-012900Y055622I000007J000018*
X-012899Y055629I000020*
G01X-012805Y055888*
Y063211D02*
G02X-012786Y063224I000019J000007D01*
X-012779Y063223J000020*
G01X-012335Y063061*
G02X-012322Y063043I000007J000018*
X-012324Y063036I000020*
G01X-012418Y062777*
G02X-012436Y062764I000018J000007*
X-012443Y062765J000020*
G01X-012887Y062927*
G02X-012900Y062945I000007J000018*
X-012899Y062952I000020*
G01X-012805Y063211*
Y070534D02*
G02X-012786Y070547I000019J000007D01*
X-012779Y070545J000020*
G01X-012335Y070384*
G02X-012322Y070365I000007J000019*
X-012324Y070359I000020*
G01X-012418Y070100*
G02X-012436Y070087I000018J000006*
X-012443Y070088J000019*
G01X-012887Y070249*
G02X-012900Y070268I000007J000019*
X-012899Y070275I000020*
G01X-012805Y070534*
Y077856D02*
G02X-012786Y077869I000019J000006D01*
X-012779Y077868J000019*
G01X-012335Y077707*
G02X-012322Y077688I000007J000019*
X-012324Y077681I000020*
G01X-012418Y077422*
G02X-012436Y077410I000018J000007*
X-012443Y077411J000019*
G01X-012887Y077572*
G02X-012900Y077591I000007J000019*
X-012899Y077598I000020*
G01X-012805Y077856*
Y085179D02*
G02X-012786Y085192I000019J000006D01*
X-012779Y085191J000019*
G01X-012335Y085030*
G02X-012322Y085011I000007J000019*
X-012324Y085004I000020*
G01X-012418Y084745*
G02X-012436Y084732I000018J000007*
X-012443Y084734J000020*
G01X-012887Y084895*
G02X-012900Y084914I000007J000019*
X-012899Y084920I000020*
G01X-012805Y085179*
X-012562Y005294D02*
G02X-012544Y005307I000018J000007D01*
X-012537Y005306J000020*
G01X-012093Y005144*
G02X-012080Y005126I000007J000018*
X-012081Y005119I000020*
G01X-012175Y004860*
G02X-012194Y004847I000019J000007*
X-012201Y004848J000020*
G01X-012645Y005010*
G02X-012658Y005028I000007J000018*
X-012656Y005035I000020*
G01X-012562Y005294*
Y012617D02*
G02X-012544Y012630I000018J000007D01*
X-012537Y012629J000020*
G01X-012093Y012467*
G02X-012080Y012449I000007J000018*
X-012081Y012442I000020*
G01X-012175Y012183*
G02X-012194Y012170I000019J000007*
X-012201Y012171J000020*
G01X-012645Y012333*
G02X-012658Y012351I000007J000018*
X-012656Y012358I000020*
G01X-012562Y012617*
Y019940D02*
G02X-012544Y019953I000018J000007D01*
X-012537Y019952J000020*
G01X-012093Y019790*
G02X-012080Y019771I000007J000019*
X-012081Y019765I000020*
G01X-012175Y019506*
G02X-012194Y019493I000019J000006*
X-012201Y019494J000019*
G01X-012645Y019656*
G02X-012658Y019674I000007J000018*
X-012656Y019681I000020*
G01X-012562Y019940*
Y027263D02*
G02X-012544Y027276I000018J000007D01*
X-012537Y027274J000020*
G01X-012093Y027113*
G02X-012080Y027094I000007J000019*
X-012081Y027088I000020*
G01X-012175Y026829*
G02X-012194Y026816I000019J000006*
X-012201Y026817J000019*
G01X-012645Y026978*
G02X-012658Y026997I000007J000019*
X-012656Y027004I000020*
G01X-012562Y027263*
Y034585D02*
G02X-012544Y034598I000018J000006D01*
X-012537Y034597J000019*
G01X-012093Y034436*
G02X-012080Y034417I000007J000019*
X-012081Y034410I000020*
G01X-012175Y034151*
G02X-012194Y034138I000019J000007*
X-012201Y034140J000020*
G01X-012645Y034301*
G02X-012658Y034320I000007J000019*
X-012656Y034326I000020*
G01X-012562Y034585*
Y041908D02*
G02X-012544Y041921I000018J000006D01*
X-012537Y041920J000019*
G01X-012093Y041758*
G02X-012080Y041740I000007J000018*
X-012081Y041733I000020*
G01X-012175Y041474*
G02X-012194Y041461I000019J000007*
X-012201Y041462J000020*
G01X-012645Y041624*
G02X-012658Y041643I000007J000019*
X-012656Y041649I000020*
G01X-012562Y041908*
Y049231D02*
G02X-012544Y049244I000018J000007D01*
X-012537Y049243J000020*
G01X-012093Y049081*
G02X-012080Y049063I000007J000018*
X-012081Y049056I000020*
G01X-012175Y048797*
G02X-012194Y048784I000019J000007*
X-012201Y048785J000020*
G01X-012645Y048947*
G02X-012658Y048965I000007J000018*
X-012656Y048972I000020*
G01X-012562Y049231*
Y056554D02*
G02X-012544Y056567I000018J000007D01*
X-012537Y056566J000020*
G01X-012093Y056404*
G02X-012080Y056386I000007J000018*
X-012081Y056379I000020*
G01X-012175Y056120*
G02X-012194Y056107I000019J000007*
X-012201Y056108J000020*
G01X-012645Y056270*
G02X-012658Y056288I000007J000018*
X-012656Y056295I000020*
G01X-012562Y056554*
Y063877D02*
G02X-012544Y063890I000018J000007D01*
X-012537Y063889J000020*
G01X-012093Y063727*
G02X-012080Y063708I000007J000019*
X-012081Y063702I000020*
G01X-012175Y063443*
G02X-012194Y063430I000019J000006*
X-012201Y063431J000019*
G01X-012645Y063593*
G02X-012658Y063611I000007J000018*
X-012656Y063618I000020*
G01X-012562Y063877*
Y071200D02*
G02X-012544Y071213I000018J000007D01*
X-012537Y071211J000020*
G01X-012093Y071050*
G02X-012080Y071031I000007J000019*
X-012081Y071025I000020*
G01X-012175Y070766*
G02X-012194Y070753I000019J000006*
X-012201Y070754J000019*
G01X-012645Y070915*
G02X-012658Y070934I000007J000019*
X-012656Y070941I000020*
G01X-012562Y071200*
Y078522D02*
G02X-012544Y078535I000018J000006D01*
X-012537Y078534J000019*
G01X-012093Y078373*
G02X-012080Y078354I000007J000019*
X-012081Y078347I000020*
G01X-012175Y078088*
G02X-012194Y078075I000019J000007*
X-012201Y078077J000020*
G01X-012645Y078238*
G02X-012658Y078257I000007J000019*
X-012656Y078263I000020*
G01X-012562Y078522*
Y085845D02*
G02X-012544Y085858I000018J000006D01*
X-012537Y085857J000019*
G01X-012093Y085695*
G02X-012080Y085677I000007J000018*
X-012081Y085670I000020*
G01X-012175Y085411*
G02X-012194Y085398I000019J000007*
X-012201Y085399J000020*
G01X-012645Y085561*
G02X-012658Y085580I000007J000019*
X-012656Y085586I000020*
G01X-012562Y085845*
X-012127Y006242D02*
G02X-012126Y006235I000018J000007D01*
X-012138Y006217I000019*
G01X-012582Y006055*
G02X-012589Y006054I000007J000018*
X-012608Y006067J000019*
G01X-012702Y006326*
G02X-012703Y006332I000019J000006*
X-012690Y006351I000020*
G01X-012246Y006513*
G02X-012239Y006514I000007J000019*
X-012221Y006501J000020*
G01X-012127Y006242*
Y013565D02*
G02X-012126Y013558I000018J000007D01*
X-012138Y013539I000019*
G01X-012582Y013378*
G02X-012589Y013377I000007J000018*
X-012608Y013390J000019*
G01X-012702Y013649*
G02X-012703Y013655I000019J000006*
X-012690Y013674I000020*
G01X-012246Y013835*
G02X-012239Y013837I000007J000018*
X-012221Y013824J000020*
G01X-012127Y013565*
Y020887D02*
G02X-012126Y020881I000018J000006D01*
X-012138Y020862I000019*
G01X-012582Y020701*
G02X-012589Y020699I000007J000018*
X-012608Y020712J000020*
G01X-012702Y020971*
G02X-012703Y020978I000019J000007*
X-012690Y020997I000020*
G01X-012246Y021158*
G02X-012239Y021159I000007J000018*
X-012221Y021146J000019*
G01X-012127Y020887*
Y028210D02*
G02X-012126Y028204I000018J000006D01*
X-012138Y028185I000019*
G01X-012582Y028023*
G02X-012589Y028022I000007J000019*
X-012608Y028035J000020*
G01X-012702Y028294*
G02X-012703Y028301I000019J000007*
X-012690Y028319I000020*
G01X-012246Y028481*
G02X-012239Y028482I000007J000018*
X-012221Y028469J000019*
G01X-012127Y028210*
Y035533D02*
G02X-012126Y035526I000018J000007D01*
X-012138Y035508I000019*
G01X-012582Y035346*
G02X-012589Y035345I000007J000019*
X-012608Y035358J000020*
G01X-012702Y035617*
G02X-012703Y035624I000019J000007*
X-012690Y035642I000020*
G01X-012246Y035804*
G02X-012239Y035805I000007J000019*
X-012221Y035792J000020*
G01X-012127Y035533*
Y042856D02*
G02X-012126Y042849I000018J000007D01*
X-012138Y042831I000019*
G01X-012582Y042669*
G02X-012589Y042668I000007J000019*
X-012608Y042681J000020*
G01X-012702Y042940*
G02X-012703Y042947I000019J000007*
X-012690Y042965I000020*
G01X-012246Y043127*
G02X-012239Y043128I000007J000019*
X-012221Y043115J000020*
G01X-012127Y042856*
Y050179D02*
G02X-012126Y050172I000018J000007D01*
X-012138Y050154I000019*
G01X-012582Y049992*
G02X-012589Y049991I000007J000018*
X-012608Y050004J000019*
G01X-012702Y050263*
G02X-012703Y050269I000019J000006*
X-012690Y050288I000020*
G01X-012246Y050450*
G02X-012239Y050451I000007J000019*
X-012221Y050438J000020*
G01X-012127Y050179*
Y057502D02*
G02X-012126Y057495I000018J000007D01*
X-012138Y057476I000019*
G01X-012582Y057315*
G02X-012589Y057314I000007J000018*
X-012608Y057327J000019*
G01X-012702Y057586*
G02X-012703Y057592I000019J000006*
X-012690Y057611I000020*
G01X-012246Y057772*
G02X-012239Y057774I000007J000018*
X-012221Y057761J000020*
G01X-012127Y057502*
Y064824D02*
G02X-012126Y064818I000018J000006D01*
X-012138Y064799I000019*
G01X-012582Y064638*
G02X-012589Y064636I000007J000018*
X-012608Y064649J000020*
G01X-012702Y064908*
G02X-012703Y064915I000019J000007*
X-012690Y064934I000020*
G01X-012246Y065095*
G02X-012239Y065096I000007J000018*
X-012221Y065083J000019*
G01X-012127Y064824*
Y072147D02*
G02X-012126Y072141I000018J000006D01*
X-012138Y072122I000019*
G01X-012582Y071960*
G02X-012589Y071959I000007J000019*
X-012608Y071972J000020*
G01X-012702Y072231*
G02X-012703Y072238I000019J000007*
X-012690Y072256I000020*
G01X-012246Y072418*
G02X-012239Y072419I000007J000018*
X-012221Y072406J000019*
G01X-012127Y072147*
Y079470D02*
G02X-012126Y079463I000018J000007D01*
X-012138Y079445I000019*
G01X-012582Y079283*
G02X-012589Y079282I000007J000019*
X-012608Y079295J000020*
G01X-012702Y079554*
G02X-012703Y079561I000019J000007*
X-012690Y079579I000020*
G01X-012246Y079741*
G02X-012239Y079742I000007J000019*
X-012221Y079729J000020*
G01X-012127Y079470*
Y086793D02*
G02X-012126Y086786I000018J000007D01*
X-012138Y086768I000019*
G01X-012582Y086606*
G02X-012589Y086605I000007J000019*
X-012608Y086618J000020*
G01X-012702Y086877*
G02X-012703Y086884I000019J000007*
X-012690Y086902I000020*
G01X-012246Y087064*
G02X-012239Y087065I000007J000019*
X-012221Y087052J000020*
G01X-012127Y086793*
X-011884Y005576D02*
G02X-011883Y005569I000019J000007D01*
X-011896Y005551I000020*
G01X-012340Y005389*
G02X-012347Y005388I000007J000019*
X-012365Y005401J000020*
G01X-012460Y005660*
G02X-012461Y005667I000019J000007*
X-012448Y005685I000020*
G01X-012004Y005847*
G02X-011997Y005848I000007J000019*
X-011979Y005835J000020*
G01X-011884Y005576*
Y012899D02*
G02X-011883Y012892I000019J000007D01*
X-011896Y012873I000020*
G01X-012340Y012712*
G02X-012347Y012711I000007J000018*
X-012365Y012724J000019*
G01X-012460Y012983*
G02X-012461Y012989I000019J000006*
X-012448Y013008I000020*
G01X-012004Y013169*
G02X-011997Y013171I000007J000018*
X-011979Y013158J000020*
G01X-011884Y012899*
Y020222D02*
G02X-011883Y020215I000019J000007D01*
X-011896Y020196I000020*
G01X-012340Y020035*
G02X-012347Y020034I000007J000018*
X-012365Y020046J000019*
G01X-012460Y020305*
G02X-012461Y020312I000019J000007*
X-012448Y020331I000020*
G01X-012004Y020492*
G02X-011997Y020493I000007J000018*
X-011979Y020481J000019*
G01X-011884Y020222*
Y027544D02*
G02X-011883Y027538I000019J000006D01*
X-011896Y027519I000020*
G01X-012340Y027358*
G02X-012347Y027356I000007J000018*
X-012365Y027369J000020*
G01X-012460Y027628*
G02X-012461Y027635I000019J000007*
X-012448Y027654I000020*
G01X-012004Y027815*
G02X-011997Y027816I000007J000018*
X-011979Y027803J000019*
G01X-011884Y027544*
Y034867D02*
G02X-011883Y034860I000019J000007D01*
X-011896Y034842I000020*
G01X-012340Y034680*
G02X-012347Y034679I000007J000019*
X-012365Y034692J000020*
G01X-012460Y034951*
G02X-012461Y034958I000019J000007*
X-012448Y034976I000020*
G01X-012004Y035138*
G02X-011997Y035139I000007J000019*
X-011979Y035126J000020*
G01X-011884Y034867*
Y042190D02*
G02X-011883Y042183I000019J000007D01*
X-011896Y042165I000020*
G01X-012340Y042003*
G02X-012347Y042002I000007J000019*
X-012365Y042015J000020*
G01X-012460Y042274*
G02X-012461Y042281I000019J000007*
X-012448Y042299I000020*
G01X-012004Y042461*
G02X-011997Y042462I000007J000019*
X-011979Y042449J000020*
G01X-011884Y042190*
Y049513D02*
G02X-011883Y049506I000019J000007D01*
X-011896Y049488I000020*
G01X-012340Y049326*
G02X-012347Y049325I000007J000019*
X-012365Y049338J000020*
G01X-012460Y049597*
G02X-012461Y049604I000019J000007*
X-012448Y049622I000020*
G01X-012004Y049784*
G02X-011997Y049785I000007J000019*
X-011979Y049772J000020*
G01X-011884Y049513*
Y056836D02*
G02X-011883Y056829I000019J000007D01*
X-011896Y056810I000020*
G01X-012340Y056649*
G02X-012347Y056648I000007J000018*
X-012365Y056661J000019*
G01X-012460Y056920*
G02X-012461Y056926I000019J000006*
X-012448Y056945I000020*
G01X-012004Y057106*
G02X-011997Y057108I000007J000018*
X-011979Y057095J000020*
G01X-011884Y056836*
Y064159D02*
G02X-011883Y064152I000019J000007D01*
X-011896Y064133I000020*
G01X-012340Y063972*
G02X-012347Y063971I000007J000018*
X-012365Y063983J000019*
G01X-012460Y064242*
G02X-012461Y064249I000019J000007*
X-012448Y064268I000020*
G01X-012004Y064429*
G02X-011997Y064430I000007J000018*
X-011979Y064418J000019*
G01X-011884Y064159*
Y071481D02*
G02X-011883Y071475I000019J000006D01*
X-011896Y071456I000020*
G01X-012340Y071295*
G02X-012347Y071293I000007J000018*
X-012365Y071306J000020*
G01X-012460Y071565*
G02X-012461Y071572I000019J000007*
X-012448Y071591I000020*
G01X-012004Y071752*
G02X-011997Y071753I000007J000018*
X-011979Y071740J000019*
G01X-011884Y071481*
Y078804D02*
G02X-011883Y078797I000019J000007D01*
X-011896Y078779I000020*
G01X-012340Y078617*
G02X-012347Y078616I000007J000019*
X-012365Y078629J000020*
G01X-012460Y078888*
G02X-012461Y078895I000019J000007*
X-012448Y078913I000020*
G01X-012004Y079075*
G02X-011997Y079076I000007J000019*
X-011979Y079063J000020*
G01X-011884Y078804*
Y086127D02*
G02X-011883Y086120I000019J000007D01*
X-011896Y086102I000020*
G01X-012340Y085940*
G02X-012347Y085939I000007J000019*
X-012365Y085952J000020*
G01X-012460Y086211*
G02X-012461Y086218I000019J000007*
X-012448Y086236I000020*
G01X-012004Y086398*
G02X-011997Y086399I000007J000019*
X-011979Y086386J000020*
G01X-011884Y086127*
X-006929Y-000433D02*
X-006654D01*
Y000118*
X-006929*
Y-000433*
X-006457D02*
X-006181D01*
Y000118*
X-006457*
Y-000433*
X-005945D02*
X-005669D01*
Y000118*
X-005945*
Y-000433*
X-005354D02*
X-005079D01*
Y000118*
X-005354*
Y-000433*
X-004685D02*
X-004409D01*
Y000118*
X-004685*
Y-000433*
X-003858D02*
X-003583D01*
Y000118*
X-003858*
Y-000433*
X003534Y011951D02*
G02X003553Y011964I000019J000007D01*
X003559Y011963J000020*
G01X004003Y011801*
G02X004016Y011783I000006J000018*
X004015Y011776I000019*
G01X003921Y011517*
G02X003902Y011504I000019J000007*
X003896Y011505J000020*
G01X003452Y011667*
G02X003439Y011685I000006J000018*
X003440Y011692I000019*
G01X003534Y011951*
Y019274D02*
G02X003553Y019287I000019J000007D01*
X003559Y019286J000020*
G01X004003Y019124*
G02X004016Y019105I000006J000019*
X004015Y019099I000019*
G01X003921Y018840*
G02X003902Y018827I000019J000007*
X003896Y018828J000020*
G01X003452Y018990*
G02X003439Y019008I000006J000018*
X003440Y019015I000019*
G01X003534Y019274*
Y026597D02*
G02X003553Y026610I000019J000007D01*
X003559Y026608J000020*
G01X004003Y026447*
G02X004016Y026428I000006J000019*
X004015Y026422I000019*
G01X003921Y026163*
G02X003902Y026150I000019J000006*
X003896Y026151J000019*
G01X003452Y026312*
G02X003439Y026331I000006J000019*
X003440Y026338I000019*
G01X003534Y026597*
Y033919D02*
G02X003553Y033932I000019J000006D01*
X003559Y033931J000019*
G01X004003Y033770*
G02X004016Y033751I000006J000019*
X004015Y033744I000019*
G01X003921Y033485*
G02X003902Y033473I000019J000007*
X003896Y033474J000019*
G01X003452Y033635*
G02X003439Y033654I000006J000019*
X003440Y033661I000019*
G01X003534Y033919*
Y041242D02*
G02X003553Y041255I000019J000006D01*
X003559Y041254J000019*
G01X004003Y041092*
G02X004016Y041074I000006J000018*
X004015Y041067I000019*
G01X003921Y040808*
G02X003902Y040795I000019J000007*
X003896Y040797J000020*
G01X003452Y040958*
G02X003439Y040977I000006J000019*
X003440Y040983I000019*
G01X003534Y041242*
Y048565D02*
G02X003553Y048578I000019J000007D01*
X003559Y048577J000020*
G01X004003Y048415*
G02X004016Y048397I000006J000018*
X004015Y048390I000019*
G01X003921Y048131*
G02X003902Y048118I000019J000007*
X003896Y048119J000020*
G01X003452Y048281*
G02X003439Y048299I000006J000018*
X003440Y048306I000019*
G01X003534Y048565*
Y055888D02*
G02X003553Y055901I000019J000007D01*
X003559Y055900J000020*
G01X004003Y055738*
G02X004016Y055720I000006J000018*
X004015Y055713I000019*
G01X003921Y055454*
G02X003902Y055441I000019J000007*
X003896Y055442J000020*
G01X003452Y055604*
G02X003439Y055622I000006J000018*
X003440Y055629I000019*
G01X003534Y055888*
Y063211D02*
G02X003553Y063224I000019J000007D01*
X003559Y063223J000020*
G01X004003Y063061*
G02X004016Y063043I000006J000018*
X004015Y063036I000019*
G01X003921Y062777*
G02X003902Y062764I000019J000007*
X003896Y062765J000020*
G01X003452Y062927*
G02X003439Y062945I000006J000018*
X003440Y062952I000019*
G01X003534Y063211*
Y070534D02*
G02X003553Y070547I000019J000007D01*
X003559Y070545J000020*
G01X004003Y070384*
G02X004016Y070365I000006J000019*
X004015Y070359I000019*
G01X003921Y070100*
G02X003902Y070087I000019J000006*
X003896Y070088J000019*
G01X003452Y070249*
G02X003439Y070268I000006J000019*
X003440Y070275I000019*
G01X003534Y070534*
Y077856D02*
G02X003553Y077869I000019J000006D01*
X003559Y077868J000019*
G01X004003Y077707*
G02X004016Y077688I000006J000019*
X004015Y077681I000019*
G01X003921Y077422*
G02X003902Y077410I000019J000007*
X003896Y077411J000019*
G01X003452Y077572*
G02X003439Y077591I000006J000019*
X003440Y077598I000019*
G01X003534Y077856*
Y085179D02*
G02X003553Y085192I000019J000006D01*
X003559Y085191J000019*
G01X004003Y085030*
G02X004016Y085011I000006J000019*
X004015Y085004I000019*
G01X003921Y084745*
G02X003902Y084732I000019J000007*
X003896Y084734J000020*
G01X003452Y084895*
G02X003439Y084914I000006J000019*
X003440Y084920I000019*
G01X003534Y085179*
X003776Y012617D02*
G02X003795Y012630I000019J000007D01*
X003802Y012629J000020*
G01X004246Y012467*
G02X004259Y012449I000007J000018*
X004257Y012442I000020*
G01X004163Y012183*
G02X004145Y012170I000018J000007*
X004138Y012171J000020*
G01X003694Y012333*
G02X003681Y012351I000007J000018*
X003682Y012358I000020*
G01X003776Y012617*
Y019940D02*
G02X003795Y019953I000019J000007D01*
X003802Y019952J000020*
G01X004246Y019790*
G02X004259Y019771I000007J000019*
X004257Y019765I000020*
G01X004163Y019506*
G02X004145Y019493I000018J000006*
X004138Y019494J000019*
G01X003694Y019656*
G02X003681Y019674I000007J000018*
X003682Y019681I000020*
G01X003776Y019940*
Y027263D02*
G02X003795Y027276I000019J000007D01*
X003802Y027274J000020*
G01X004246Y027113*
G02X004259Y027094I000007J000019*
X004257Y027088I000020*
G01X004163Y026829*
G02X004145Y026816I000018J000006*
X004138Y026817J000019*
G01X003694Y026978*
G02X003681Y026997I000007J000019*
X003682Y027004I000020*
G01X003776Y027263*
Y034585D02*
G02X003795Y034598I000019J000006D01*
X003802Y034597J000019*
G01X004246Y034436*
G02X004259Y034417I000007J000019*
X004257Y034410I000020*
G01X004163Y034151*
G02X004145Y034138I000018J000007*
X004138Y034140J000020*
G01X003694Y034301*
G02X003681Y034320I000007J000019*
X003682Y034326I000020*
G01X003776Y034585*
Y041908D02*
G02X003795Y041921I000019J000006D01*
X003802Y041920J000019*
G01X004246Y041758*
G02X004259Y041740I000007J000018*
X004257Y041733I000020*
G01X004163Y041474*
G02X004145Y041461I000018J000007*
X004138Y041462J000020*
G01X003694Y041624*
G02X003681Y041643I000007J000019*
X003682Y041649I000020*
G01X003776Y041908*
Y049231D02*
G02X003795Y049244I000019J000007D01*
X003802Y049243J000020*
G01X004246Y049081*
G02X004259Y049063I000007J000018*
X004257Y049056I000020*
G01X004163Y048797*
G02X004145Y048784I000018J000007*
X004138Y048785J000020*
G01X003694Y048947*
G02X003681Y048965I000007J000018*
X003682Y048972I000020*
G01X003776Y049231*
Y056554D02*
G02X003795Y056567I000019J000007D01*
X003802Y056566J000020*
G01X004246Y056404*
G02X004259Y056386I000007J000018*
X004257Y056379I000020*
G01X004163Y056120*
G02X004145Y056107I000018J000007*
X004138Y056108J000020*
G01X003694Y056270*
G02X003681Y056288I000007J000018*
X003682Y056295I000020*
G01X003776Y056554*
Y063877D02*
G02X003795Y063890I000019J000007D01*
X003802Y063889J000020*
G01X004246Y063727*
G02X004259Y063708I000007J000019*
X004257Y063702I000020*
G01X004163Y063443*
G02X004145Y063430I000018J000006*
X004138Y063431J000019*
G01X003694Y063593*
G02X003681Y063611I000007J000018*
X003682Y063618I000020*
G01X003776Y063877*
Y071200D02*
G02X003795Y071213I000019J000007D01*
X003802Y071211J000020*
G01X004246Y071050*
G02X004259Y071031I000007J000019*
X004257Y071025I000020*
G01X004163Y070766*
G02X004145Y070753I000018J000006*
X004138Y070754J000019*
G01X003694Y070915*
G02X003681Y070934I000007J000019*
X003682Y070941I000020*
G01X003776Y071200*
Y078522D02*
G02X003795Y078535I000019J000006D01*
X003802Y078534J000019*
G01X004246Y078373*
G02X004259Y078354I000007J000019*
X004257Y078347I000020*
G01X004163Y078088*
G02X004145Y078075I000018J000007*
X004138Y078077J000020*
G01X003694Y078238*
G02X003681Y078257I000007J000019*
X003682Y078263I000020*
G01X003776Y078522*
Y085845D02*
G02X003795Y085858I000019J000006D01*
X003802Y085857J000019*
G01X004246Y085695*
G02X004259Y085677I000007J000018*
X004257Y085670I000020*
G01X004163Y085411*
G02X004145Y085398I000018J000007*
X004138Y085399J000020*
G01X003694Y085561*
G02X003681Y085580I000007J000019*
X003682Y085586I000020*
G01X003776Y085845*
X004212Y013565D02*
G02X004213Y013558I000019J000007D01*
X004200Y013539I000020*
G01X003756Y013378*
G02X003749Y013377I000007J000018*
X003731Y013390J000019*
G01X003637Y013649*
G02X003635Y013655I000018J000006*
X003648Y013674I000020*
G01X004092Y013835*
G02X004099Y013837I000007J000018*
X004118Y013824J000020*
G01X004212Y013565*
Y020887D02*
G02X004213Y020881I000019J000006D01*
X004200Y020862I000020*
G01X003756Y020701*
G02X003749Y020699I000007J000018*
X003731Y020712J000020*
G01X003637Y020971*
G02X003635Y020978I000018J000007*
X003648Y020997I000020*
G01X004092Y021158*
G02X004099Y021159I000007J000018*
X004118Y021146J000019*
G01X004212Y020887*
Y028210D02*
G02X004213Y028204I000019J000006D01*
X004200Y028185I000020*
G01X003756Y028023*
G02X003749Y028022I000007J000019*
X003731Y028035J000020*
G01X003637Y028294*
G02X003635Y028301I000018J000007*
X003648Y028319I000020*
G01X004092Y028481*
G02X004099Y028482I000007J000018*
X004118Y028469J000019*
G01X004212Y028210*
Y035533D02*
G02X004213Y035526I000019J000007D01*
X004200Y035508I000020*
G01X003756Y035346*
G02X003749Y035345I000007J000019*
X003731Y035358J000020*
G01X003637Y035617*
G02X003635Y035624I000018J000007*
X003648Y035642I000020*
G01X004092Y035804*
G02X004099Y035805I000007J000019*
X004118Y035792J000020*
G01X004212Y035533*
Y042856D02*
G02X004213Y042849I000019J000007D01*
X004200Y042831I000020*
G01X003756Y042669*
G02X003749Y042668I000007J000019*
X003731Y042681J000020*
G01X003637Y042940*
G02X003635Y042947I000018J000007*
X003648Y042965I000020*
G01X004092Y043127*
G02X004099Y043128I000007J000019*
X004118Y043115J000020*
G01X004212Y042856*
Y050179D02*
G02X004213Y050172I000019J000007D01*
X004200Y050154I000020*
G01X003756Y049992*
G02X003749Y049991I000007J000018*
X003731Y050004J000019*
G01X003637Y050263*
G02X003635Y050269I000018J000006*
X003648Y050288I000020*
G01X004092Y050450*
G02X004099Y050451I000007J000019*
X004118Y050438J000020*
G01X004212Y050179*
Y057502D02*
G02X004213Y057495I000019J000007D01*
X004200Y057476I000020*
G01X003756Y057315*
G02X003749Y057314I000007J000018*
X003731Y057327J000019*
G01X003637Y057586*
G02X003635Y057592I000018J000006*
X003648Y057611I000020*
G01X004092Y057772*
G02X004099Y057774I000007J000018*
X004118Y057761J000020*
G01X004212Y057502*
Y064824D02*
G02X004213Y064818I000019J000006D01*
X004200Y064799I000020*
G01X003756Y064638*
G02X003749Y064636I000007J000018*
X003731Y064649J000020*
G01X003637Y064908*
G02X003635Y064915I000018J000007*
X003648Y064934I000020*
G01X004092Y065095*
G02X004099Y065096I000007J000018*
X004118Y065083J000019*
G01X004212Y064824*
Y072147D02*
G02X004213Y072141I000019J000006D01*
X004200Y072122I000020*
G01X003756Y071960*
G02X003749Y071959I000007J000019*
X003731Y071972J000020*
G01X003637Y072231*
G02X003635Y072238I000018J000007*
X003648Y072256I000020*
G01X004092Y072418*
G02X004099Y072419I000007J000018*
X004118Y072406J000019*
G01X004212Y072147*
Y079470D02*
G02X004213Y079463I000019J000007D01*
X004200Y079445I000020*
G01X003756Y079283*
G02X003749Y079282I000007J000019*
X003731Y079295J000020*
G01X003637Y079554*
G02X003635Y079561I000018J000007*
X003648Y079579I000020*
G01X004092Y079741*
G02X004099Y079742I000007J000019*
X004118Y079729J000020*
G01X004212Y079470*
Y086793D02*
G02X004213Y086786I000019J000007D01*
X004200Y086768I000020*
G01X003756Y086606*
G02X003749Y086605I000007J000019*
X003731Y086618J000020*
G01X003637Y086877*
G02X003635Y086884I000018J000007*
X003648Y086902I000020*
G01X004092Y087064*
G02X004099Y087065I000007J000019*
X004118Y087052J000020*
G01X004212Y086793*
X004454Y012899D02*
G02X004455Y012892I000018J000007D01*
X004442Y012873I000019*
G01X003999Y012712*
G02X003992Y012711I000007J000018*
X003973Y012724J000019*
G01X003879Y012983*
G02X003878Y012989I000019J000006*
X003891Y013008I000020*
G01X004335Y013169*
G02X004341Y013171I000006J000018*
X004360Y013158J000020*
G01X004454Y012899*
Y020222D02*
G02X004455Y020215I000018J000007D01*
X004442Y020196I000019*
G01X003999Y020035*
G02X003992Y020034I000007J000018*
X003973Y020046J000019*
G01X003879Y020305*
G02X003878Y020312I000019J000007*
X003891Y020331I000020*
G01X004335Y020492*
G02X004341Y020493I000006J000018*
X004360Y020481J000019*
G01X004454Y020222*
Y027544D02*
G02X004455Y027538I000018J000006D01*
X004442Y027519I000019*
G01X003999Y027358*
G02X003992Y027356I000007J000018*
X003973Y027369J000020*
G01X003879Y027628*
G02X003878Y027635I000019J000007*
X003891Y027654I000020*
G01X004335Y027815*
G02X004341Y027816I000006J000018*
X004360Y027803J000019*
G01X004454Y027544*
Y034867D02*
G02X004455Y034860I000018J000007D01*
X004442Y034842I000019*
G01X003999Y034680*
G02X003992Y034679I000007J000019*
X003973Y034692J000020*
G01X003879Y034951*
G02X003878Y034958I000019J000007*
X003891Y034976I000020*
G01X004335Y035138*
G02X004341Y035139I000006J000019*
X004360Y035126J000020*
G01X004454Y034867*
Y042190D02*
G02X004455Y042183I000018J000007D01*
X004442Y042165I000019*
G01X003999Y042003*
G02X003992Y042002I000007J000019*
X003973Y042015J000020*
G01X003879Y042274*
G02X003878Y042281I000019J000007*
X003891Y042299I000020*
G01X004335Y042461*
G02X004341Y042462I000006J000019*
X004360Y042449J000020*
G01X004454Y042190*
Y049513D02*
G02X004455Y049506I000018J000007D01*
X004442Y049488I000019*
G01X003999Y049326*
G02X003992Y049325I000007J000019*
X003973Y049338J000020*
G01X003879Y049597*
G02X003878Y049604I000019J000007*
X003891Y049622I000020*
G01X004335Y049784*
G02X004341Y049785I000006J000019*
X004360Y049772J000020*
G01X004454Y049513*
Y056836D02*
G02X004455Y056829I000018J000007D01*
X004442Y056810I000019*
G01X003999Y056649*
G02X003992Y056648I000007J000018*
X003973Y056661J000019*
G01X003879Y056920*
G02X003878Y056926I000019J000006*
X003891Y056945I000020*
G01X004335Y057106*
G02X004341Y057108I000006J000018*
X004360Y057095J000020*
G01X004454Y056836*
Y064159D02*
G02X004455Y064152I000018J000007D01*
X004442Y064133I000019*
G01X003999Y063972*
G02X003992Y063971I000007J000018*
X003973Y063983J000019*
G01X003879Y064242*
G02X003878Y064249I000019J000007*
X003891Y064268I000020*
G01X004335Y064429*
G02X004341Y064430I000006J000018*
X004360Y064418J000019*
G01X004454Y064159*
Y071481D02*
G02X004455Y071475I000018J000006D01*
X004442Y071456I000019*
G01X003999Y071295*
G02X003992Y071293I000007J000018*
X003973Y071306J000020*
G01X003879Y071565*
G02X003878Y071572I000019J000007*
X003891Y071591I000020*
G01X004335Y071752*
G02X004341Y071753I000006J000018*
X004360Y071740J000019*
G01X004454Y071481*
Y078804D02*
G02X004455Y078797I000018J000007D01*
X004442Y078779I000019*
G01X003999Y078617*
G02X003992Y078616I000007J000019*
X003973Y078629J000020*
G01X003879Y078888*
G02X003878Y078895I000019J000007*
X003891Y078913I000020*
G01X004335Y079075*
G02X004341Y079076I000006J000019*
X004360Y079063J000020*
G01X004454Y078804*
Y086127D02*
G02X004455Y086120I000018J000007D01*
X004442Y086102I000019*
G01X003999Y085940*
G02X003992Y085939I000007J000019*
X003973Y085952J000020*
G01X003879Y086211*
G02X003878Y086218I000019J000007*
X003891Y086236I000020*
G01X004335Y086398*
G02X004341Y086399I000006J000019*
X004360Y086386J000020*
G01X004454Y086127*
X006024Y091371D02*
Y091614D01*
X005780*
G02X005778Y091654I000283J000040*
X006063Y091939I000285*
X006102Y091936J000285*
G01Y091693*
X006346*
G02X006348Y091654I000283J000039*
X006063Y091368I000285*
X006024Y091371J000286*
G01Y091936D02*
Y091693D01*
X005780*
G03X005778Y091654I000283J000039*
X006063Y091368I000285*
X006102Y091371J000286*
G01Y091614*
X006346*
G03X006348Y091654I000283J000040*
X006063Y091939I000285*
X006024Y091936J000285*
G37*
G54D10*
G01X-106142Y092244D02*
Y-000591D01*
G03X-105354Y-001704I001181*
G01X-104280Y-001987*
G03X-104126Y-002008I000154J000570*
G01X007995*
G03X008151Y-001987J000591*
G01X009213Y-001704*
G03X010000Y-000591I000394J001113*
G01Y092244*
G03X009213Y093358I001181*
G01X008142Y093642*
G03X007992Y093661I000151J000571*
G01X-104126*
G03X-104128I000002J000590*
X-104280Y093642J000590*
G01X-105354Y093358*
G03X-106142Y092244I000393J001114*
G54D11*
G01X-051061Y000000D02*
Y-000984D01*
X-050622*
X-049933Y-000477D02*
X-050006Y-000388D01*
X-050079Y-000343*
X-050194*
X-050267Y-000388*
X-050340Y-000477*
X-050372Y-000611*
Y-000716*
X-050340Y-000850*
X-050267Y-000940*
X-050194Y-000984*
X-050079*
X-050006Y-000940*
X-049933Y-000850*
Y-000343D02*
Y-000984D01*
X-049651Y-000343D02*
X-049453Y-000984D01*
X-049244Y-000343D02*
X-049453Y-000984D01*
X-049516Y-001178*
X-049589Y-001268*
X-049651Y-001312*
X-049683*
X-048994Y-000611D02*
X-048555D01*
Y-000522*
X-048587Y-000432*
X-048628Y-000388*
X-048701Y-000343*
X-048816*
X-048889Y-000388*
X-048962Y-000477*
X-048994Y-000611*
Y-000716*
X-048962Y-000850*
X-048889Y-000940*
X-048816Y-000984*
X-048701*
X-048628Y-000940*
X-048555Y-000850*
X-048305Y-000611D02*
X-048252Y-000477D01*
X-048148Y-000388*
X-048033Y-000343*
X-047866*
X-048305D02*
Y-000984D01*
X-046927Y000000D02*
X-046488D01*
X-046708D02*
Y-000984D01*
X-046081Y000000D02*
X-046133Y-000060D01*
X-046186Y-000149*
X-046217Y-000239*
X-046238Y-000373*
Y-000611*
X-046217Y-000746*
X-046186Y-000850*
X-046133Y-000940*
X-046081Y-000984*
X-045966*
X-045914Y-000940*
X-045852Y-000850*
X-045831Y-000746*
X-045799Y-000611*
Y-000373*
X-045831Y-000239*
X-045852Y-000149*
X-045914Y-000060*
X-045966Y000000*
X-046081*
X-045549Y-000984D02*
Y000000D01*
X-045267*
X-045173Y-000060*
X-045142Y-000104*
X-045110Y-000194*
Y-000328*
X-045142Y-000432*
X-045173Y-000477*
X-045267Y-000522*
X-045549*
X-042399Y-000984D02*
Y000000D01*
X-042117*
X-042023Y-000060*
X-041992Y-000104*
X-041961Y-000194*
Y-000328*
X-041992Y-000432*
X-042023Y-000477*
X-042117Y-000522*
X-042399*
X-041710Y-000984D02*
Y000000D01*
X-041491Y-000984*
X-041272Y000000*
Y-000984*
X-034620Y-000477D02*
X-034338D01*
X-034244Y-000522*
X-034213Y-000567*
X-034182Y-000656*
Y-000805*
X-034213Y-000895*
X-034244Y-000940*
X-034338Y-000984*
X-034620*
Y000000*
X-034338*
X-034244Y-000060*
X-034213Y-000104*
X-034182Y-000194*
Y-000283*
X-034213Y-000373*
X-034244Y-000432*
X-034338Y-000477*
X-033931Y-000984D02*
Y000000D01*
X-033649*
X-033555Y-000060*
X-033524Y-000104*
X-033493Y-000194*
Y-000283*
X-033524Y-000373*
X-033555Y-000432*
X-033649Y-000477*
X-033931*
X-033712D02*
X-033493Y-000984D01*
X-033242Y000000D02*
X-033023D01*
X-032929Y-000060*
X-032866Y-000149*
X-032835Y-000239*
X-032804Y-000373*
Y-000611*
X-032835Y-000746*
X-032866Y-000850*
X-032929Y-000940*
X-033023Y-000984*
X-033242*
Y000000*
X-031697Y-000194D02*
X-031655Y-000149D01*
X-031603Y-000015*
Y-000984*
X-031144Y-000239D02*
Y-000194D01*
X-031113Y-000104*
X-031081Y-000060*
X-031019Y000000*
X-030893*
X-030831Y-000060*
X-030799Y-000104*
X-030768Y-000194*
Y-000283*
X-030799Y-000373*
X-030862Y-000522*
X-031175Y-000984*
X-030737*
X-030319Y-000194D02*
X-030278Y-000149D01*
X-030225Y-000015*
Y-000984*
X-029359Y-000328D02*
X-029390Y-000477D01*
X-029453Y-000567*
X-029568Y-000611*
X-029599*
X-029703Y-000567*
X-029766Y-000477*
X-029797Y-000328*
Y-000283*
X-029766Y-000149*
X-029703Y-000060*
X-029599Y-000015*
X-029568*
X-029453Y-000060*
X-029390Y-000149*
X-029359Y-000328*
Y-000567*
X-029390Y-000805*
X-029453Y-000940*
X-029568Y-000984*
X-029630*
X-029735Y-000940*
X-029766Y-000850*
X-028733Y-000015D02*
X-029046D01*
X-029077Y-000432*
X-029046Y-000388*
X-028952Y-000343*
X-028858*
X-028764Y-000388*
X-028701Y-000477*
X-028670Y-000611*
Y-000716*
X-028701Y-000850*
X-028764Y-000940*
X-028858Y-000984*
X-028952*
X-029046Y-000940*
X-029077Y-000895*
X-029108Y-000805*
X-028232Y-000015D02*
X-028325Y-000060D01*
X-028388Y-000194*
X-028419Y-000432*
Y-000567*
X-028388Y-000805*
X-028325Y-000940*
X-028232Y-000984*
X-028169*
X-028075Y-000940*
X-028012Y-000805*
X-027981Y-000567*
Y-000432*
X-028012Y-000194*
X-028075Y-000060*
X-028169Y-000015*
X-028232*
X-027543D02*
X-027637Y-000060D01*
X-027699Y-000194*
X-027730Y-000432*
Y-000567*
X-027699Y-000805*
X-027637Y-000940*
X-027543Y-000984*
X-027480*
X-027386Y-000940*
X-027323Y-000805*
X-027292Y-000567*
Y-000432*
X-027323Y-000194*
X-027386Y-000060*
X-027480Y-000015*
X-027543*
X-026666D02*
X-026979D01*
X-027010Y-000432*
X-026979Y-000388*
X-026885Y-000343*
X-026791*
X-026697Y-000388*
X-026634Y-000477*
X-026603Y-000611*
Y-000716*
X-026634Y-000850*
X-026697Y-000940*
X-026791Y-000984*
X-026885*
X-026979Y-000940*
X-027010Y-000895*
X-027042Y-000805*
X-025476Y-000015D02*
X-025570Y-000060D01*
X-025632Y-000194*
X-025664Y-000432*
Y-000567*
X-025632Y-000805*
X-025570Y-000940*
X-025476Y-000984*
X-025413*
X-025319Y-000940*
X-025256Y-000805*
X-025225Y-000567*
Y-000432*
X-025256Y-000194*
X-025319Y-000060*
X-025413Y-000015*
X-025476*
X-024808Y-000194D02*
X-024766Y-000149D01*
X-024714Y-000015*
Y-000984*
X-023597D02*
Y000000D01*
X-023315*
X-023221Y-000060*
X-023190Y-000104*
X-023158Y-000194*
Y-000328*
X-023190Y-000432*
X-023221Y-000477*
X-023315Y-000522*
X-023597*
X-022908Y-000984D02*
Y000000D01*
X-022469Y-000984*
Y000000*
X-022219D02*
Y-000984D01*
X-021780*
X-020674Y-000194D02*
X-020632Y-000149D01*
X-020580Y-000015*
Y-000984*
X-020121Y-000239D02*
Y-000194D01*
X-020089Y-000104*
X-020058Y-000060*
X-019995Y000000*
X-019870*
X-019807Y-000060*
X-019776Y-000104*
X-019745Y-000194*
Y-000283*
X-019776Y-000373*
X-019839Y-000522*
X-020152Y-000984*
X-019713*
X-019296Y-000194D02*
X-019254Y-000149D01*
X-019202Y-000015*
Y-000984*
X-018336Y-000328D02*
X-018367Y-000477D01*
X-018429Y-000567*
X-018544Y-000611*
X-018576*
X-018680Y-000567*
X-018743Y-000477*
X-018774Y-000328*
Y-000283*
X-018743Y-000149*
X-018680Y-000060*
X-018576Y-000015*
X-018544*
X-018429Y-000060*
X-018367Y-000149*
X-018336Y-000328*
Y-000567*
X-018367Y-000805*
X-018429Y-000940*
X-018544Y-000984*
X-018607*
X-018711Y-000940*
X-018743Y-000850*
X-017709Y-000015D02*
X-018022D01*
X-018054Y-000432*
X-018022Y-000388*
X-017928Y-000343*
X-017834*
X-017741Y-000388*
X-017678Y-000477*
X-017647Y-000611*
Y-000716*
X-017678Y-000850*
X-017741Y-000940*
X-017834Y-000984*
X-017928*
X-018022Y-000940*
X-018054Y-000895*
X-018085Y-000805*
X-017208Y-000015D02*
X-017302Y-000060D01*
X-017365Y-000194*
X-017396Y-000432*
Y-000567*
X-017365Y-000805*
X-017302Y-000940*
X-017208Y-000984*
X-017146*
X-017052Y-000940*
X-016989Y-000805*
X-016958Y-000567*
Y-000432*
X-016989Y-000194*
X-017052Y-000060*
X-017146Y-000015*
X-017208*
X-016519D02*
X-016613Y-000060D01*
X-016676Y-000194*
X-016707Y-000432*
Y-000567*
X-016676Y-000805*
X-016613Y-000940*
X-016519Y-000984*
X-016457*
X-016363Y-000940*
X-016300Y-000805*
X-016269Y-000567*
Y-000432*
X-016300Y-000194*
X-016363Y-000060*
X-016457Y-000015*
X-016519*
X-015726D02*
Y-000984D01*
Y-000015D02*
X-016018Y-000656D01*
X-015580*
X-014452Y-000015D02*
X-014546Y-000060D01*
X-014609Y-000194*
X-014640Y-000432*
Y-000567*
X-014609Y-000805*
X-014546Y-000940*
X-014452Y-000984*
X-014390*
X-014296Y-000940*
X-014233Y-000805*
X-014202Y-000567*
Y-000432*
X-014233Y-000194*
X-014296Y-000060*
X-014390Y-000015*
X-014452*
X-013784Y-000194D02*
X-013742Y-000149D01*
X-013690Y-000015*
Y-000984*
X-000591Y000000D02*
X000591D01*
X000000Y000591D02*
Y-000591D01*
G54D12*
X-100198Y005817D03*
Y013140D03*
Y020463D03*
Y027785D03*
Y035108D03*
Y042431D03*
Y049754D03*
Y057077D03*
Y064400D03*
Y071722D03*
Y079045D03*
Y086368D03*
X-083860Y005817D03*
Y013140D03*
Y020463D03*
Y027785D03*
Y035108D03*
Y042431D03*
Y049754D03*
Y057077D03*
Y064400D03*
Y071722D03*
Y079045D03*
Y086368D03*
X-067521Y005817D03*
Y013140D03*
Y020463D03*
Y027785D03*
Y035108D03*
Y042431D03*
Y049754D03*
Y057077D03*
Y064400D03*
Y071722D03*
Y079045D03*
Y086368D03*
X-051183Y005817D03*
Y013140D03*
Y020463D03*
Y027785D03*
Y035108D03*
Y042431D03*
Y049754D03*
Y057077D03*
Y064400D03*
Y071722D03*
Y079045D03*
Y086368D03*
X-034844Y005817D03*
Y013140D03*
Y020463D03*
Y027785D03*
Y035108D03*
Y042431D03*
Y049754D03*
Y057077D03*
Y064400D03*
Y071722D03*
Y079045D03*
Y086368D03*
X-018505Y005817D03*
Y013140D03*
Y020463D03*
Y027785D03*
Y035108D03*
Y042431D03*
Y049754D03*
Y057077D03*
Y064400D03*
Y071722D03*
Y079045D03*
Y086368D03*
X-002167Y013140D03*
Y020463D03*
Y027785D03*
Y035108D03*
Y042431D03*
Y049754D03*
Y057077D03*
Y064400D03*
Y071722D03*
Y079045D03*
Y086368D03*
G54D13*
X-100198Y005354D03*
Y012677D03*
Y020000D03*
Y027323D03*
Y034646D03*
Y041969D03*
Y049291D03*
Y056614D03*
Y063937D03*
Y071260D03*
Y078583D03*
Y085906D03*
X-083860Y005354D03*
Y012677D03*
Y020000D03*
Y027323D03*
Y034646D03*
Y041969D03*
Y049291D03*
Y056614D03*
Y063937D03*
Y071260D03*
Y078583D03*
Y085906D03*
X-067521Y005354D03*
Y012677D03*
Y020000D03*
Y027323D03*
Y034646D03*
Y041969D03*
Y049291D03*
Y056614D03*
Y063937D03*
Y071260D03*
Y078583D03*
Y085906D03*
X-051183Y005354D03*
Y012677D03*
Y020000D03*
Y027323D03*
Y034646D03*
Y041969D03*
Y049291D03*
Y056614D03*
Y063937D03*
Y071260D03*
Y078583D03*
Y085906D03*
X-034844Y005354D03*
Y012677D03*
Y020000D03*
Y027323D03*
Y034646D03*
Y041969D03*
Y049291D03*
Y056614D03*
Y063937D03*
Y071260D03*
Y078583D03*
Y085906D03*
X-018505Y005354D03*
Y012677D03*
Y020000D03*
Y027323D03*
Y034646D03*
Y041969D03*
Y049291D03*
Y056614D03*
Y063937D03*
Y071260D03*
Y078583D03*
Y085906D03*
X-002167Y012677D03*
Y020000D03*
Y027323D03*
Y034646D03*
Y041969D03*
Y049291D03*
Y056614D03*
Y063937D03*
Y071260D03*
Y078583D03*
Y085906D03*
G54D14*
X-102026Y002982D03*
Y003691D03*
Y007333D03*
Y008041D03*
Y010305D03*
Y011014D03*
Y014656D03*
Y015364D03*
Y017628D03*
Y018337D03*
Y021978D03*
Y022687D03*
Y024951D03*
Y025659D03*
Y029301D03*
Y030010D03*
Y032274D03*
Y032982D03*
Y036624D03*
Y037333D03*
Y039596D03*
Y040305D03*
Y043947D03*
Y044656D03*
Y046919D03*
Y047628D03*
Y051270D03*
Y051978D03*
Y054242D03*
Y054951D03*
Y058593D03*
Y059301D03*
Y061565D03*
Y062274D03*
Y065915D03*
Y066624D03*
Y068888D03*
Y069596D03*
Y073238D03*
Y073947D03*
Y076211D03*
Y076919D03*
Y080561D03*
Y081270D03*
Y083533D03*
Y084242D03*
Y087884D03*
Y088593D03*
X-096043Y003268D03*
Y003976D03*
Y007126D03*
Y007835D03*
Y010591D03*
Y011299D03*
Y014449D03*
Y015157D03*
Y017913D03*
Y018622D03*
Y021772D03*
Y022480D03*
Y025236D03*
Y025945D03*
Y029094D03*
Y029803D03*
Y032559D03*
Y033268D03*
Y036417D03*
Y037126D03*
Y039882D03*
Y040591D03*
Y043740D03*
Y044449D03*
Y047205D03*
Y047913D03*
Y051063D03*
Y051772D03*
Y054528D03*
Y055236D03*
Y058386D03*
Y059094D03*
Y061850D03*
Y062559D03*
Y065709D03*
Y066417D03*
Y069173D03*
Y069882D03*
Y073031D03*
Y073740D03*
Y076496D03*
Y077205D03*
Y080354D03*
Y081063D03*
Y083819D03*
Y084528D03*
Y087677D03*
Y088386D03*
X-095285Y003268D03*
Y003976D03*
Y010591D03*
Y011299D03*
Y017913D03*
Y018622D03*
Y025236D03*
Y025945D03*
Y032559D03*
Y033268D03*
Y039882D03*
Y040591D03*
Y047205D03*
Y047913D03*
Y054528D03*
Y055236D03*
Y061850D03*
Y062559D03*
Y069173D03*
Y069882D03*
Y076496D03*
Y077205D03*
Y083819D03*
Y084528D03*
X-095275Y007126D03*
Y007835D03*
Y014449D03*
Y015157D03*
Y021772D03*
Y022480D03*
Y029094D03*
Y029803D03*
Y036417D03*
Y037126D03*
Y043740D03*
Y044449D03*
Y051063D03*
Y051772D03*
Y058386D03*
Y059094D03*
Y065709D03*
Y066417D03*
Y073031D03*
Y073740D03*
Y080354D03*
Y081063D03*
Y087677D03*
Y088386D03*
X-094518Y003219D03*
Y003927D03*
Y010541D03*
Y011250D03*
Y017864D03*
Y018573D03*
Y025187D03*
Y025896D03*
Y032510D03*
Y033219D03*
Y039833D03*
Y040541D03*
Y047156D03*
Y047864D03*
Y054478D03*
Y055187D03*
Y061801D03*
Y062510D03*
Y069124D03*
Y069833D03*
Y076447D03*
Y077156D03*
Y083770D03*
Y084478D03*
X-085687Y002982D03*
Y003691D03*
Y007333D03*
Y008041D03*
Y010305D03*
Y011014D03*
Y014656D03*
Y015364D03*
Y017628D03*
Y018337D03*
Y021978D03*
Y022687D03*
Y024951D03*
Y025659D03*
Y029301D03*
Y030010D03*
Y032274D03*
Y032982D03*
Y036624D03*
Y037333D03*
Y039596D03*
Y040305D03*
Y043947D03*
Y044656D03*
Y046919D03*
Y047628D03*
Y051270D03*
Y051978D03*
Y054242D03*
Y054951D03*
Y058593D03*
Y059301D03*
Y061565D03*
Y062274D03*
Y065915D03*
Y066624D03*
Y068888D03*
Y069596D03*
Y073238D03*
Y073947D03*
Y076211D03*
Y076919D03*
Y080561D03*
Y081270D03*
Y083533D03*
Y084242D03*
Y087884D03*
Y088593D03*
X-079705Y003268D03*
Y003976D03*
Y007126D03*
Y007835D03*
Y010591D03*
Y011299D03*
Y014449D03*
Y015157D03*
Y017913D03*
Y018622D03*
Y021772D03*
Y022480D03*
Y025236D03*
Y025945D03*
Y029094D03*
Y029803D03*
Y032559D03*
Y033268D03*
Y036417D03*
Y037126D03*
Y039882D03*
Y040591D03*
Y043740D03*
Y044449D03*
Y047205D03*
Y047913D03*
Y051063D03*
Y051772D03*
Y054528D03*
Y055236D03*
Y058386D03*
Y059094D03*
Y061850D03*
Y062559D03*
Y065709D03*
Y066417D03*
Y069173D03*
Y069882D03*
Y073031D03*
Y073740D03*
Y076496D03*
Y077205D03*
Y080354D03*
Y081063D03*
Y083819D03*
Y084528D03*
Y087677D03*
Y088386D03*
X-078947Y003268D03*
Y003976D03*
Y010591D03*
Y011299D03*
Y017913D03*
Y018622D03*
Y025236D03*
Y025945D03*
Y032559D03*
Y033268D03*
Y039882D03*
Y040591D03*
Y047205D03*
Y047913D03*
Y054528D03*
Y055236D03*
Y061850D03*
Y062559D03*
Y069173D03*
Y069882D03*
Y076496D03*
Y077205D03*
Y083819D03*
Y084528D03*
X-078937Y007126D03*
Y007835D03*
Y014449D03*
Y015157D03*
Y021772D03*
Y022480D03*
Y029094D03*
Y029803D03*
Y036417D03*
Y037126D03*
Y043740D03*
Y044449D03*
Y051063D03*
Y051772D03*
Y058386D03*
Y059094D03*
Y065709D03*
Y066417D03*
Y073031D03*
Y073740D03*
Y080354D03*
Y081063D03*
Y087677D03*
Y088386D03*
X-078179Y003219D03*
Y003927D03*
Y010541D03*
Y011250D03*
Y017864D03*
Y018573D03*
Y025187D03*
Y025896D03*
Y032510D03*
Y033219D03*
Y039833D03*
Y040541D03*
Y047156D03*
Y047864D03*
Y054478D03*
Y055187D03*
Y061801D03*
Y062510D03*
Y069124D03*
Y069833D03*
Y076447D03*
Y077156D03*
Y083770D03*
Y084478D03*
X-069349Y002982D03*
Y003691D03*
Y007333D03*
Y008041D03*
Y010305D03*
Y011014D03*
Y014656D03*
Y015364D03*
Y017628D03*
Y018337D03*
Y021978D03*
Y022687D03*
Y024951D03*
Y025659D03*
Y029301D03*
Y030010D03*
Y032274D03*
Y032982D03*
Y036624D03*
Y037333D03*
Y039596D03*
Y040305D03*
Y043947D03*
Y044656D03*
Y046919D03*
Y047628D03*
Y051270D03*
Y051978D03*
Y054242D03*
Y054951D03*
Y058593D03*
Y059301D03*
Y061565D03*
Y062274D03*
Y065915D03*
Y066624D03*
Y068888D03*
Y069596D03*
Y073238D03*
Y073947D03*
Y076211D03*
Y076919D03*
Y080561D03*
Y081270D03*
Y083533D03*
Y084242D03*
Y087884D03*
Y088593D03*
X-063366Y003268D03*
Y003976D03*
Y007126D03*
Y007835D03*
Y010591D03*
Y011299D03*
Y014449D03*
Y015157D03*
Y017913D03*
Y018622D03*
Y021772D03*
Y022480D03*
Y025236D03*
Y025945D03*
Y029094D03*
Y029803D03*
Y032559D03*
Y033268D03*
Y036417D03*
Y037126D03*
Y039882D03*
Y040591D03*
Y043740D03*
Y044449D03*
Y047205D03*
Y047913D03*
Y051063D03*
Y051772D03*
Y054528D03*
Y055236D03*
Y058386D03*
Y059094D03*
Y061850D03*
Y062559D03*
Y065709D03*
Y066417D03*
Y069173D03*
Y069882D03*
Y073031D03*
Y073740D03*
Y076496D03*
Y077205D03*
Y080354D03*
Y081063D03*
Y083819D03*
Y084528D03*
Y087677D03*
Y088386D03*
X-062608Y003268D03*
Y003976D03*
Y010591D03*
Y011299D03*
Y017913D03*
Y018622D03*
Y025236D03*
Y025945D03*
Y032559D03*
Y033268D03*
Y039882D03*
Y040591D03*
Y047205D03*
Y047913D03*
Y054528D03*
Y055236D03*
Y061850D03*
Y062559D03*
Y069173D03*
Y069882D03*
Y076496D03*
Y077205D03*
Y083819D03*
Y084528D03*
X-062598Y007126D03*
Y007835D03*
Y014449D03*
Y015157D03*
Y021772D03*
Y022480D03*
Y029094D03*
Y029803D03*
Y036417D03*
Y037126D03*
Y043740D03*
Y044449D03*
Y051063D03*
Y051772D03*
Y058386D03*
Y059094D03*
Y065709D03*
Y066417D03*
Y073031D03*
Y073740D03*
Y080354D03*
Y081063D03*
Y087677D03*
Y088386D03*
X-061840Y003219D03*
Y003927D03*
Y010541D03*
Y011250D03*
Y017864D03*
Y018573D03*
Y025187D03*
Y025896D03*
Y032510D03*
Y033219D03*
Y039833D03*
Y040541D03*
Y047156D03*
Y047864D03*
Y054478D03*
Y055187D03*
Y061801D03*
Y062510D03*
Y069124D03*
Y069833D03*
Y076447D03*
Y077156D03*
Y083770D03*
Y084478D03*
X-053010Y002982D03*
Y003691D03*
Y007333D03*
Y008041D03*
Y010305D03*
Y011014D03*
Y014656D03*
Y015364D03*
Y017628D03*
Y018337D03*
Y021978D03*
Y022687D03*
Y024951D03*
Y025659D03*
Y029301D03*
Y030010D03*
Y032274D03*
Y032982D03*
Y036624D03*
Y037333D03*
Y039596D03*
Y040305D03*
Y043947D03*
Y044656D03*
Y046919D03*
Y047628D03*
Y051270D03*
Y051978D03*
Y054242D03*
Y054951D03*
Y058593D03*
Y059301D03*
Y061565D03*
Y062274D03*
Y065915D03*
Y066624D03*
Y068888D03*
Y069596D03*
Y073238D03*
Y073947D03*
Y076211D03*
Y076919D03*
Y080561D03*
Y081270D03*
Y083533D03*
Y084242D03*
Y087884D03*
Y088593D03*
X-047027Y003268D03*
Y003976D03*
Y007126D03*
Y007835D03*
Y010591D03*
Y011299D03*
Y014449D03*
Y015157D03*
Y017913D03*
Y018622D03*
Y021772D03*
Y022480D03*
Y025236D03*
Y025945D03*
Y029094D03*
Y029803D03*
Y032559D03*
Y033268D03*
Y036417D03*
Y037126D03*
Y039882D03*
Y040591D03*
Y043740D03*
Y044449D03*
Y047205D03*
Y047913D03*
Y051063D03*
Y051772D03*
Y054528D03*
Y055236D03*
Y058386D03*
Y059094D03*
Y061850D03*
Y062559D03*
Y065709D03*
Y066417D03*
Y069173D03*
Y069882D03*
Y073031D03*
Y073740D03*
Y076496D03*
Y077205D03*
Y080354D03*
Y081063D03*
Y083819D03*
Y084528D03*
Y087677D03*
Y088386D03*
X-046270Y003268D03*
Y003976D03*
Y010591D03*
Y011299D03*
Y017913D03*
Y018622D03*
Y025236D03*
Y025945D03*
Y032559D03*
Y033268D03*
Y039882D03*
Y040591D03*
Y047205D03*
Y047913D03*
Y054528D03*
Y055236D03*
Y061850D03*
Y062559D03*
Y069173D03*
Y069882D03*
Y076496D03*
Y077205D03*
Y083819D03*
Y084528D03*
X-046260Y007126D03*
Y007835D03*
Y014449D03*
Y015157D03*
Y021772D03*
Y022480D03*
Y029094D03*
Y029803D03*
Y036417D03*
Y037126D03*
Y043740D03*
Y044449D03*
Y051063D03*
Y051772D03*
Y058386D03*
Y059094D03*
Y065709D03*
Y066417D03*
Y073031D03*
Y073740D03*
Y080354D03*
Y081063D03*
Y087677D03*
Y088386D03*
X-045502Y003219D03*
Y003927D03*
Y010541D03*
Y011250D03*
Y017864D03*
Y018573D03*
Y025187D03*
Y025896D03*
Y032510D03*
Y033219D03*
Y039833D03*
Y040541D03*
Y047156D03*
Y047864D03*
Y054478D03*
Y055187D03*
Y061801D03*
Y062510D03*
Y069124D03*
Y069833D03*
Y076447D03*
Y077156D03*
Y083770D03*
Y084478D03*
X-036671Y002982D03*
Y003691D03*
Y007333D03*
Y008041D03*
Y010305D03*
Y011014D03*
Y014656D03*
Y015364D03*
Y017628D03*
Y018337D03*
Y021978D03*
Y022687D03*
Y024951D03*
Y025659D03*
Y029301D03*
Y030010D03*
Y032274D03*
Y032982D03*
Y036624D03*
Y037333D03*
Y039596D03*
Y040305D03*
Y043947D03*
Y044656D03*
Y046919D03*
Y047628D03*
Y051270D03*
Y051978D03*
Y054242D03*
Y054951D03*
Y058593D03*
Y059301D03*
Y061565D03*
Y062274D03*
Y065915D03*
Y066624D03*
Y068888D03*
Y069596D03*
Y073238D03*
Y073947D03*
Y076211D03*
Y076919D03*
Y080561D03*
Y081270D03*
Y083533D03*
Y084242D03*
Y087884D03*
Y088593D03*
X-030689Y003268D03*
Y003976D03*
Y007126D03*
Y007835D03*
Y010591D03*
Y011299D03*
Y014449D03*
Y015157D03*
Y017913D03*
Y018622D03*
Y021772D03*
Y022480D03*
Y025236D03*
Y025945D03*
Y029094D03*
Y029803D03*
Y032559D03*
Y033268D03*
Y036417D03*
Y037126D03*
Y039882D03*
Y040591D03*
Y043740D03*
Y044449D03*
Y047205D03*
Y047913D03*
Y051063D03*
Y051772D03*
Y054528D03*
Y055236D03*
Y058386D03*
Y059094D03*
Y061850D03*
Y062559D03*
Y065709D03*
Y066417D03*
Y069173D03*
Y069882D03*
Y073031D03*
Y073740D03*
Y076496D03*
Y077205D03*
Y080354D03*
Y081063D03*
Y083819D03*
Y084528D03*
Y087677D03*
Y088386D03*
X-029931Y003268D03*
Y003976D03*
Y010591D03*
Y011299D03*
Y017913D03*
Y018622D03*
Y025236D03*
Y025945D03*
Y032559D03*
Y033268D03*
Y039882D03*
Y040591D03*
Y047205D03*
Y047913D03*
Y054528D03*
Y055236D03*
Y061850D03*
Y062559D03*
Y069173D03*
Y069882D03*
Y076496D03*
Y077205D03*
Y083819D03*
Y084528D03*
X-029921Y007126D03*
Y007835D03*
Y014449D03*
Y015157D03*
Y021772D03*
Y022480D03*
Y029094D03*
Y029803D03*
Y036417D03*
Y037126D03*
Y043740D03*
Y044449D03*
Y051063D03*
Y051772D03*
Y058386D03*
Y059094D03*
Y065709D03*
Y066417D03*
Y073031D03*
Y073740D03*
Y080354D03*
Y081063D03*
Y087677D03*
Y088386D03*
X-029163Y003219D03*
Y003927D03*
Y010541D03*
Y011250D03*
Y017864D03*
Y018573D03*
Y025187D03*
Y025896D03*
Y032510D03*
Y033219D03*
Y039833D03*
Y040541D03*
Y047156D03*
Y047864D03*
Y054478D03*
Y055187D03*
Y061801D03*
Y062510D03*
Y069124D03*
Y069833D03*
Y076447D03*
Y077156D03*
Y083770D03*
Y084478D03*
X-020333Y002982D03*
Y003691D03*
Y007333D03*
Y008041D03*
Y010305D03*
Y011014D03*
Y014656D03*
Y015364D03*
Y017628D03*
Y018337D03*
Y021978D03*
Y022687D03*
Y024951D03*
Y025659D03*
Y029301D03*
Y030010D03*
Y032274D03*
Y032982D03*
Y036624D03*
Y037333D03*
Y039596D03*
Y040305D03*
Y043947D03*
Y044656D03*
Y046919D03*
Y047628D03*
Y051270D03*
Y051978D03*
Y054242D03*
Y054951D03*
Y058593D03*
Y059301D03*
Y061565D03*
Y062274D03*
Y065915D03*
Y066624D03*
Y068888D03*
Y069596D03*
Y073238D03*
Y073947D03*
Y076211D03*
Y076919D03*
Y080561D03*
Y081270D03*
Y083533D03*
Y084242D03*
Y087884D03*
Y088593D03*
X-014350Y003268D03*
Y003976D03*
Y007126D03*
Y007835D03*
Y010591D03*
Y011299D03*
Y014449D03*
Y015157D03*
Y017913D03*
Y018622D03*
Y021772D03*
Y022480D03*
Y025236D03*
Y025945D03*
Y029094D03*
Y029803D03*
Y032559D03*
Y033268D03*
Y036417D03*
Y037126D03*
Y039882D03*
Y040591D03*
Y043740D03*
Y044449D03*
Y047205D03*
Y047913D03*
Y051063D03*
Y051772D03*
Y054528D03*
Y055236D03*
Y058386D03*
Y059094D03*
Y061850D03*
Y062559D03*
Y065709D03*
Y066417D03*
Y069173D03*
Y069882D03*
Y073031D03*
Y073740D03*
Y076496D03*
Y077205D03*
Y080354D03*
Y081063D03*
Y083819D03*
Y084528D03*
Y087677D03*
Y088386D03*
X-013592Y003268D03*
Y003976D03*
Y010591D03*
Y011299D03*
Y017913D03*
Y018622D03*
Y025236D03*
Y025945D03*
Y032559D03*
Y033268D03*
Y039882D03*
Y040591D03*
Y047205D03*
Y047913D03*
Y054528D03*
Y055236D03*
Y061850D03*
Y062559D03*
Y069173D03*
Y069882D03*
Y076496D03*
Y077205D03*
Y083819D03*
Y084528D03*
X-013583Y007126D03*
Y007835D03*
Y014449D03*
Y015157D03*
Y021772D03*
Y022480D03*
Y029094D03*
Y029803D03*
Y036417D03*
Y037126D03*
Y043740D03*
Y044449D03*
Y051063D03*
Y051772D03*
Y058386D03*
Y059094D03*
Y065709D03*
Y066417D03*
Y073031D03*
Y073740D03*
Y080354D03*
Y081063D03*
Y087677D03*
Y088386D03*
X-012825Y003219D03*
Y003927D03*
Y010541D03*
Y011250D03*
Y017864D03*
Y018573D03*
Y025187D03*
Y025896D03*
Y032510D03*
Y033219D03*
Y039833D03*
Y040541D03*
Y047156D03*
Y047864D03*
Y054478D03*
Y055187D03*
Y061801D03*
Y062510D03*
Y069124D03*
Y069833D03*
Y076447D03*
Y077156D03*
Y083770D03*
Y084478D03*
X-003994Y010305D03*
Y011014D03*
Y014656D03*
Y015364D03*
Y017628D03*
Y018337D03*
Y021978D03*
Y022687D03*
Y024951D03*
Y025659D03*
Y029301D03*
Y030010D03*
Y032274D03*
Y032982D03*
Y036624D03*
Y037333D03*
Y039596D03*
Y040305D03*
Y043947D03*
Y044656D03*
Y046919D03*
Y047628D03*
Y051270D03*
Y051978D03*
Y054242D03*
Y054951D03*
Y058593D03*
Y059301D03*
Y061565D03*
Y062274D03*
Y065915D03*
Y066624D03*
Y068888D03*
Y069596D03*
Y073238D03*
Y073947D03*
Y076211D03*
Y076919D03*
Y080561D03*
Y081270D03*
Y083533D03*
Y084242D03*
Y087884D03*
Y088593D03*
X001988Y010591D03*
Y011299D03*
Y014449D03*
Y015157D03*
Y017913D03*
Y018622D03*
Y021772D03*
Y022480D03*
Y025236D03*
Y025945D03*
Y029094D03*
Y029803D03*
Y032559D03*
Y033268D03*
Y036417D03*
Y037126D03*
Y039882D03*
Y040591D03*
Y043740D03*
Y044449D03*
Y047205D03*
Y047913D03*
Y051063D03*
Y051772D03*
Y054528D03*
Y055236D03*
Y058386D03*
Y059094D03*
Y061850D03*
Y062559D03*
Y065709D03*
Y066417D03*
Y069173D03*
Y069882D03*
Y073031D03*
Y073740D03*
Y076496D03*
Y077205D03*
Y080354D03*
Y081063D03*
Y083819D03*
Y084528D03*
Y087677D03*
Y088386D03*
X002746Y010591D03*
Y011299D03*
Y017913D03*
Y018622D03*
Y025236D03*
Y025945D03*
Y032559D03*
Y033268D03*
Y039882D03*
Y040591D03*
Y047205D03*
Y047913D03*
Y054528D03*
Y055236D03*
Y061850D03*
Y062559D03*
Y069173D03*
Y069882D03*
Y076496D03*
Y077205D03*
Y083819D03*
Y084528D03*
X002756Y014449D03*
Y015157D03*
Y021772D03*
Y022480D03*
Y029094D03*
Y029803D03*
Y036417D03*
Y037126D03*
Y043740D03*
Y044449D03*
Y051063D03*
Y051772D03*
Y058386D03*
Y059094D03*
Y065709D03*
Y066417D03*
Y073031D03*
Y073740D03*
Y080354D03*
Y081063D03*
Y087677D03*
Y088386D03*
X003514Y010541D03*
Y011250D03*
Y017864D03*
Y018573D03*
Y025187D03*
Y025896D03*
Y032510D03*
Y033219D03*
Y039833D03*
Y040541D03*
Y047156D03*
Y047864D03*
Y054478D03*
Y055187D03*
Y061801D03*
Y062510D03*
Y069124D03*
Y069833D03*
Y076447D03*
Y077156D03*
Y083770D03*
Y084478D03*
G54D15*
X-098732Y005551D03*
Y012874D03*
Y020197D03*
Y027520D03*
Y034843D03*
Y042165D03*
Y049488D03*
Y056811D03*
Y064134D03*
Y071457D03*
Y078780D03*
Y086102D03*
X-082393Y005551D03*
Y012874D03*
Y020197D03*
Y027520D03*
Y034843D03*
Y042165D03*
Y049488D03*
Y056811D03*
Y064134D03*
Y071457D03*
Y078780D03*
Y086102D03*
X-066055Y005551D03*
Y012874D03*
Y020197D03*
Y027520D03*
Y034843D03*
Y042165D03*
Y049488D03*
Y056811D03*
Y064134D03*
Y071457D03*
Y078780D03*
Y086102D03*
X-049716Y005551D03*
Y012874D03*
Y020197D03*
Y027520D03*
Y034843D03*
Y042165D03*
Y049488D03*
Y056811D03*
Y064134D03*
Y071457D03*
Y078780D03*
Y086102D03*
X-033377Y005551D03*
Y012874D03*
Y020197D03*
Y027520D03*
Y034843D03*
Y042165D03*
Y049488D03*
Y056811D03*
Y064134D03*
Y071457D03*
Y078780D03*
Y086102D03*
X-017039Y005551D03*
Y012874D03*
Y020197D03*
Y027520D03*
Y034843D03*
Y042165D03*
Y049488D03*
Y056811D03*
Y064134D03*
Y071457D03*
Y078780D03*
Y086102D03*
X-000700Y012874D03*
Y020197D03*
Y027520D03*
Y034843D03*
Y042165D03*
Y049488D03*
Y056811D03*
Y064134D03*
Y071457D03*
Y078780D03*
Y086102D03*
G54D16*
X-099175Y005551D03*
Y012874D03*
Y020197D03*
Y027520D03*
Y034843D03*
Y042165D03*
Y049488D03*
Y056811D03*
Y064134D03*
Y071457D03*
Y078780D03*
Y086102D03*
X-082836Y005551D03*
Y012874D03*
Y020197D03*
Y027520D03*
Y034843D03*
Y042165D03*
Y049488D03*
Y056811D03*
Y064134D03*
Y071457D03*
Y078780D03*
Y086102D03*
X-066497Y005551D03*
Y012874D03*
Y020197D03*
Y027520D03*
Y034843D03*
Y042165D03*
Y049488D03*
Y056811D03*
Y064134D03*
Y071457D03*
Y078780D03*
Y086102D03*
X-050159Y005551D03*
Y012874D03*
Y020197D03*
Y027520D03*
Y034843D03*
Y042165D03*
Y049488D03*
Y056811D03*
Y064134D03*
Y071457D03*
Y078780D03*
Y086102D03*
X-033820Y005551D03*
Y012874D03*
Y020197D03*
Y027520D03*
Y034843D03*
Y042165D03*
Y049488D03*
Y056811D03*
Y064134D03*
Y071457D03*
Y078780D03*
Y086102D03*
X-017482Y005551D03*
Y012874D03*
Y020197D03*
Y027520D03*
Y034843D03*
Y042165D03*
Y049488D03*
Y056811D03*
Y064134D03*
Y071457D03*
Y078780D03*
Y086102D03*
X-001143Y012874D03*
Y020197D03*
Y027520D03*
Y034843D03*
Y042165D03*
Y049488D03*
Y056811D03*
Y064134D03*
Y071457D03*
Y078780D03*
Y086102D03*
G54D17*
X-102147Y005738D03*
Y013061D03*
Y020384D03*
Y027707D03*
Y035030D03*
Y042352D03*
Y049675D03*
Y056998D03*
Y064321D03*
Y071644D03*
Y078967D03*
Y086289D03*
X-085808Y005738D03*
Y013061D03*
Y020384D03*
Y027707D03*
Y035030D03*
Y042352D03*
Y049675D03*
Y056998D03*
Y064321D03*
Y071644D03*
Y078967D03*
Y086289D03*
X-069470Y005738D03*
Y013061D03*
Y020384D03*
Y027707D03*
Y035030D03*
Y042352D03*
Y049675D03*
Y056998D03*
Y064321D03*
Y071644D03*
Y078967D03*
Y086289D03*
X-053131Y005738D03*
Y013061D03*
Y020384D03*
Y027707D03*
Y035030D03*
Y042352D03*
Y049675D03*
Y056998D03*
Y064321D03*
Y071644D03*
Y078967D03*
Y086289D03*
X-036793Y005738D03*
Y013061D03*
Y020384D03*
Y027707D03*
Y035030D03*
Y042352D03*
Y049675D03*
Y056998D03*
Y064321D03*
Y071644D03*
Y078967D03*
Y086289D03*
X-020454Y005738D03*
Y013061D03*
Y020384D03*
Y027707D03*
Y035030D03*
Y042352D03*
Y049675D03*
Y056998D03*
Y064321D03*
Y071644D03*
Y078967D03*
Y086289D03*
X-004116Y013061D03*
Y020384D03*
Y027707D03*
Y035030D03*
Y042352D03*
Y049675D03*
Y056998D03*
Y064321D03*
Y071644D03*
Y078967D03*
Y086289D03*
G54D18*
X-102147Y005295D03*
Y012618D03*
Y019941D03*
Y027264D03*
Y034587D03*
Y041909D03*
Y049232D03*
Y056555D03*
Y063878D03*
Y071201D03*
Y078524D03*
Y085846D03*
X-085808Y005295D03*
Y012618D03*
Y019941D03*
Y027264D03*
Y034587D03*
Y041909D03*
Y049232D03*
Y056555D03*
Y063878D03*
Y071201D03*
Y078524D03*
Y085846D03*
X-069470Y005295D03*
Y012618D03*
Y019941D03*
Y027264D03*
Y034587D03*
Y041909D03*
Y049232D03*
Y056555D03*
Y063878D03*
Y071201D03*
Y078524D03*
Y085846D03*
X-053131Y005295D03*
Y012618D03*
Y019941D03*
Y027264D03*
Y034587D03*
Y041909D03*
Y049232D03*
Y056555D03*
Y063878D03*
Y071201D03*
Y078524D03*
Y085846D03*
X-036793Y005295D03*
Y012618D03*
Y019941D03*
Y027264D03*
Y034587D03*
Y041909D03*
Y049232D03*
Y056555D03*
Y063878D03*
Y071201D03*
Y078524D03*
Y085846D03*
X-020454Y005295D03*
Y012618D03*
Y019941D03*
Y027264D03*
Y034587D03*
Y041909D03*
Y049232D03*
Y056555D03*
Y063878D03*
Y071201D03*
Y078524D03*
Y085846D03*
X-004116Y012618D03*
Y019941D03*
Y027264D03*
Y034587D03*
Y041909D03*
Y049232D03*
Y056555D03*
Y063878D03*
Y071201D03*
Y078524D03*
Y085846D03*
G54D19*
X-094409Y006772D03*
Y007953D03*
Y014094D03*
Y015276D03*
Y021417D03*
Y022598D03*
Y028740D03*
Y029921D03*
Y036063D03*
Y037244D03*
Y043386D03*
Y044567D03*
Y050709D03*
Y051890D03*
Y058031D03*
Y059213D03*
Y065354D03*
Y066535D03*
Y072677D03*
Y073858D03*
Y080000D03*
Y081181D03*
Y087323D03*
Y088504D03*
X-078071Y006772D03*
Y007953D03*
Y014094D03*
Y015276D03*
Y021417D03*
Y022598D03*
Y028740D03*
Y029921D03*
Y036063D03*
Y037244D03*
Y043386D03*
Y044567D03*
Y050709D03*
Y051890D03*
Y058031D03*
Y059213D03*
Y065354D03*
Y066535D03*
Y072677D03*
Y073858D03*
Y080000D03*
Y081181D03*
Y087323D03*
Y088504D03*
X-061732Y006772D03*
Y007953D03*
Y014094D03*
Y015276D03*
Y021417D03*
Y022598D03*
Y028740D03*
Y029921D03*
Y036063D03*
Y037244D03*
Y043386D03*
Y044567D03*
Y050709D03*
Y051890D03*
Y058031D03*
Y059213D03*
Y065354D03*
Y066535D03*
Y072677D03*
Y073858D03*
Y080000D03*
Y081181D03*
Y087323D03*
Y088504D03*
X-045394Y006772D03*
Y007953D03*
Y014094D03*
Y015276D03*
Y021417D03*
Y022598D03*
Y028740D03*
Y029921D03*
Y036063D03*
Y037244D03*
Y043386D03*
Y044567D03*
Y050709D03*
Y051890D03*
Y058031D03*
Y059213D03*
Y065354D03*
Y066535D03*
Y072677D03*
Y073858D03*
Y080000D03*
Y081181D03*
Y087323D03*
Y088504D03*
X-029055Y006772D03*
Y007953D03*
Y014094D03*
Y015276D03*
Y021417D03*
Y022598D03*
Y028740D03*
Y029921D03*
Y036063D03*
Y037244D03*
Y043386D03*
Y044567D03*
Y050709D03*
Y051890D03*
Y058031D03*
Y059213D03*
Y065354D03*
Y066535D03*
Y072677D03*
Y073858D03*
Y080000D03*
Y081181D03*
Y087323D03*
Y088504D03*
X-012716Y006772D03*
Y007953D03*
Y014094D03*
Y015276D03*
Y021417D03*
Y022598D03*
Y028740D03*
Y029921D03*
Y036063D03*
Y037244D03*
Y043386D03*
Y044567D03*
Y050709D03*
Y051890D03*
Y058031D03*
Y059213D03*
Y065354D03*
Y066535D03*
Y072677D03*
Y073858D03*
Y080000D03*
Y081181D03*
Y087323D03*
Y088504D03*
X003622Y014094D03*
Y015276D03*
Y021417D03*
Y022598D03*
Y028740D03*
Y029921D03*
Y036063D03*
Y037244D03*
Y043386D03*
Y044567D03*
Y050709D03*
Y051890D03*
Y058031D03*
Y059213D03*
Y065354D03*
Y066535D03*
Y072677D03*
Y073858D03*
Y080000D03*
Y081181D03*
Y087323D03*
Y088504D03*
M02*
