*
G04 Job   : N:\Projects\taras004\P08330\12162805_FHM_2layers\Panel_12162806\12162806.pnl*
G04 User  : UA220006:taras004*
G04 Layer : SolderPasteBot.gbr*
G04 Date  : Fri Jun 09 15:39:14 2023*
G04 Expedition Layer: Solder Paste - Bottom*
%ICAS*%
%MOIN*%
%FSDAX24Y24*%
%OFA0.0000B0.0000*%
G90*
G74*
%AMVB_RECTANGLE*
21,1,$1,$2,0,0,$3*
%
%AMVB_RCRECTANGLE*
$3=$3X2*
21,1,$1-$3,$2,0,0,0*
21,1,$1,$2-$3,0,0,0*
$1=$1/2*
$2=$2/2*
$3=$3/2*
$1=$1-$3*
$2=$2-$3*
1,1,$3X2,0-$1,0-$2*
1,1,$3X2,0-$1,$2*
1,1,$3X2,$1,$2*
1,1,$3X2,$1,0-$2*
%
%ADD11C,0.00787*%
%ADD10C,0.03937*%
%ADD15VB_RECTANGLE,0.05906X0.03937X90.00000*%
%ADD25VB_RCRECTANGLE,0.02362X0.01181X0.00197*%
%ADD20VB_RCRECTANGLE,0.01181X0.02362X0.00197*%
%ADD23VB_RCRECTANGLE,0.01575X0.02362X0.00197*%
%ADD24VB_RCRECTANGLE,0.02362X0.01772X0.00197*%
%ADD71VB_RCRECTANGLE,0.01772X0.02362X0.00197*%
%ADD17VB_RCRECTANGLE,0.02756X0.01969X0.00197*%
%ADD19VB_RCRECTANGLE,0.01969X0.02756X0.00197*%
%ADD13VB_RCRECTANGLE,0.01575X0.03150X0.00197*%
%ADD22VB_RCRECTANGLE,0.03937X0.02756X0.00197*%
%ADD26VB_RCRECTANGLE,0.02756X0.03937X0.00197*%
%ADD18VB_RCRECTANGLE,0.04331X0.01969X0.00197*%
%ADD70VB_RCRECTANGLE,0.04724X0.03150X0.00197*%
%ADD12VB_RCRECTANGLE,0.03150X0.04724X0.00197*%
%ADD27VB_RCRECTANGLE,0.05118X0.03150X0.00197*%
%ADD16VB_RCRECTANGLE,0.03150X0.05118X0.00197*%
%ADD21VB_RCRECTANGLE,0.03150X0.05906X0.00197*%
%ADD14VB_RCRECTANGLE,0.09843X0.05118X0.00197*%
G01*
G36*
X-103819Y005197D02*
X-103268D01*
Y005472*
X-103819*
Y005197*
Y006024D02*
X-103268D01*
Y006299*
X-103819*
Y006024*
Y006693D02*
X-103268D01*
Y006969*
X-103819*
Y006693*
Y007283D02*
X-103268D01*
Y007559*
X-103819*
Y007283*
Y007795D02*
X-103268D01*
Y008071*
X-103819*
Y007795*
Y008268D02*
X-103268D01*
Y008543*
X-103819*
Y008268*
X-103425Y-000283D02*
G03X-103386Y-000285I000039J000283D01*
X-103100Y000000J000285*
X-103103Y000039I000286*
G01X-103346*
Y000283*
G03X-103386Y000285I000040J000283*
X-103671Y000000J000285*
X-103669Y-000039I000285*
G01X-103425*
Y-000283*
Y000283D02*
Y000039D01*
X-103669*
G03X-103671Y000000I000283J000039*
X-103386Y-000285I000285*
X-103346Y-000283J000285*
G01Y-000039*
X-103103*
G03X-103100Y000000I000283J000039*
X-103386Y000285I000286*
X-103425Y000283J000285*
G01Y086253D02*
G03X-103386Y086250I000039J000282D01*
X-103100Y086535J000285*
X-103103Y086575I000286*
G01X-103346*
Y086818*
G03X-103386Y086821I000040J000283*
X-103671Y086535J000286*
X-103669Y086496I000285*
G01X-103425*
Y086253*
Y086818D02*
Y086575D01*
X-103669*
G03X-103671Y086535I000283J000040*
X-103386Y086250I000285*
X-103346Y086253J000285*
G01Y086496*
X-103103*
G03X-103100Y086535I000283J000039*
X-103386Y086821I000286*
X-103425Y086818J000286*
G01X007913Y078228D02*
X008465D01*
Y078504*
X007913*
Y078228*
Y078701D02*
X008465D01*
Y078976*
X007913*
Y078701*
Y079213D02*
X008465D01*
Y079488*
X007913*
Y079213*
Y079803D02*
X008465D01*
Y080079*
X007913*
Y079803*
Y080472D02*
X008465D01*
Y080748*
X007913*
Y080472*
Y081299D02*
X008465D01*
Y081575*
X007913*
Y081299*
X007992Y086253D02*
G03X008031Y086250I000039J000282D01*
X008317Y086535J000285*
X008314Y086575I000286*
G01X008071*
Y086818*
G03X008031Y086821I000040J000283*
X007746Y086535J000286*
X007749Y086496I000285*
G01X007992*
Y086253*
Y086818D02*
Y086575D01*
X007749*
G03X007746Y086535I000282J000040*
X008031Y086250I000285*
X008071Y086253J000285*
G01Y086496*
X008314*
G03X008317Y086535I000283J000039*
X008031Y086821I000286*
X007992Y086818J000286*
G37*
G54D10*
G01X-038819Y-002008D02*
X-103339D01*
G02X-103493Y-001987J000591*
G01X-104917Y-001602*
G02X-105354Y-001032I000154J000570*
G01Y-001031*
Y087575*
G02X-104913Y088146I000590*
G01X-103492Y088524*
G02X-103341Y088543I000151J000572*
X-103339J000591*
G01X007992*
G02X008142Y088524I000001J000590*
G01X009563Y088150*
G02X010000Y087579I000154J000571*
G01Y-001031*
Y-001032*
G02X009563Y-001602I000591*
G01X008151Y-001987*
G02X007995Y-002008I000156J000570*
G01X-038819*
G54D11*
X-044825Y-001575D02*
Y-000591D01*
X-045044Y-001575*
X-045264Y-000591*
Y-001575*
X-044136D02*
Y-000591D01*
X-044418*
X-044512Y-000650*
X-044543Y-000695*
X-044575Y-000784*
Y-000919*
X-044543Y-001023*
X-044512Y-001068*
X-044418Y-001113*
X-044136*
X-040812Y-000591D02*
Y-001575D01*
X-040593Y-000591D02*
X-041031D01*
X-040061D02*
X-040008Y-000650D01*
X-039956Y-000740*
X-039925Y-000829*
X-039904Y-000963*
Y-001202*
X-039925Y-001336*
X-039956Y-001441*
X-040008Y-001530*
X-040061Y-001575*
X-040175*
X-040228Y-001530*
X-040290Y-001441*
X-040311Y-001336*
X-040342Y-001202*
Y-000963*
X-040311Y-000829*
X-040290Y-000740*
X-040228Y-000650*
X-040175Y-000591*
X-040061*
X-039215Y-001068D02*
X-039497D01*
X-039591Y-001113*
X-039622Y-001157*
X-039653Y-001247*
Y-001396*
X-039622Y-001485*
X-039591Y-001530*
X-039497Y-001575*
X-039215*
Y-000591*
X-039497*
X-039591Y-000650*
X-039622Y-000695*
X-039653Y-000784*
Y-000874*
X-039622Y-000963*
X-039591Y-001023*
X-039497Y-001068*
X-037837Y-001202D02*
X-037889Y-001068D01*
X-037994Y-000978*
X-038108Y-000934*
X-038275*
X-037837D02*
Y-001575D01*
X-037148Y-001202D02*
X-037587D01*
Y-001113*
X-037555Y-001023*
X-037513Y-000978*
X-037440Y-000934*
X-037326*
X-037252Y-000978*
X-037179Y-001068*
X-037148Y-001202*
Y-001306*
X-037179Y-001441*
X-037252Y-001530*
X-037326Y-001575*
X-037440*
X-037513Y-001530*
X-037587Y-001441*
X-036898Y-000934D02*
X-036689Y-001575D01*
X-036626Y-001769*
X-036553Y-001858*
X-036490Y-001903*
X-036459*
X-036490Y-000934D02*
X-036689Y-001575D01*
X-036209Y-001068D02*
X-036136Y-000978D01*
X-036062Y-000934*
X-035948*
X-035875Y-000978*
X-035801Y-001068*
X-035770Y-001202*
Y-001306*
X-035801Y-001441*
X-035875Y-001530*
X-035948Y-001575*
X-036062*
X-036136Y-001530*
X-036209Y-001441*
Y-000934D02*
Y-001575D01*
X-035081Y-000591D02*
Y-001575D01*
X-035520*
X-031922Y-000605D02*
X-031828Y-000650D01*
X-031766Y-000784*
X-031734Y-001023*
Y-001157*
X-031766Y-001396*
X-031828Y-001530*
X-031922Y-001575*
X-031985*
X-032079Y-001530*
X-032141Y-001396*
X-032173Y-001157*
Y-001023*
X-032141Y-000784*
X-032079Y-000650*
X-031985Y-000605*
X-031922*
X-031233D02*
X-031139Y-000650D01*
X-031077Y-000784*
X-031045Y-001023*
Y-001157*
X-031077Y-001396*
X-031139Y-001530*
X-031233Y-001575*
X-031296*
X-031390Y-001530*
X-031452Y-001396*
X-031484Y-001157*
Y-001023*
X-031452Y-000784*
X-031390Y-000650*
X-031296Y-000605*
X-031233*
X-030075Y-000740D02*
X-030043Y-000650D01*
X-029939Y-000605*
X-029866*
X-029761Y-000650*
X-029699Y-000784*
X-029667Y-001023*
Y-001247*
X-029699Y-001441*
X-029761Y-001530*
X-029866Y-001575*
X-029897*
X-030001Y-001530*
X-030075Y-001441*
X-030106Y-001306*
Y-001247*
X-030075Y-001113*
X-030001Y-001023*
X-029897Y-000978*
X-029866*
X-029761Y-001023*
X-029699Y-001113*
X-029667Y-001247*
X-029166Y-000605D02*
X-029072Y-000650D01*
X-029010Y-000784*
X-028978Y-001023*
Y-001157*
X-029010Y-001396*
X-029072Y-001530*
X-029166Y-001575*
X-029229*
X-029323Y-001530*
X-029386Y-001396*
X-029417Y-001157*
Y-001023*
X-029386Y-000784*
X-029323Y-000650*
X-029229Y-000605*
X-029166*
X-028446D02*
X-028352Y-000650D01*
X-028321Y-000740*
Y-000829*
X-028352Y-000934*
X-028415Y-000978*
X-028540Y-001023*
X-028634Y-001068*
X-028697Y-001157*
X-028728Y-001247*
Y-001396*
X-028697Y-001485*
X-028665Y-001530*
X-028571Y-001575*
X-028446*
X-028352Y-001530*
X-028321Y-001485*
X-028289Y-001396*
Y-001247*
X-028321Y-001157*
X-028383Y-001068*
X-028477Y-001023*
X-028603Y-000978*
X-028665Y-000934*
X-028697Y-000829*
Y-000740*
X-028665Y-000650*
X-028571Y-000605*
X-028446*
X-027632Y-000829D02*
Y-000784D01*
X-027663Y-000695*
X-027694Y-000650*
X-027757Y-000591*
X-027882*
X-027945Y-000650*
X-027976Y-000695*
X-028008Y-000784*
Y-000874*
X-027976Y-000963*
X-027914Y-001113*
X-027601Y-001575*
X-028039*
X-027319Y-000740D02*
X-027287Y-000650D01*
X-027183Y-000605*
X-027110*
X-027006Y-000650*
X-026943Y-000784*
X-026912Y-001023*
Y-001247*
X-026943Y-001441*
X-027006Y-001530*
X-027110Y-001575*
X-027141*
X-027246Y-001530*
X-027319Y-001441*
X-027350Y-001306*
Y-001247*
X-027319Y-001113*
X-027246Y-001023*
X-027141Y-000978*
X-027110*
X-027006Y-001023*
X-026943Y-001113*
X-026912Y-001247*
X-026390Y-000784D02*
X-026431Y-000740D01*
X-026484Y-000605*
Y-001575*
X-025565Y-000829D02*
Y-000784D01*
X-025596Y-000695*
X-025628Y-000650*
X-025690Y-000591*
X-025816*
X-025878Y-000650*
X-025909Y-000695*
X-025941Y-000784*
Y-000874*
X-025909Y-000963*
X-025847Y-001113*
X-025534Y-001575*
X-025972*
X-025012Y-000784D02*
X-025053Y-000740D01*
X-025106Y-000605*
Y-001575*
X-023467Y-000591D02*
Y-001575D01*
X-023905*
X-022778D02*
Y-000591D01*
X-023216Y-001575*
Y-000591*
X-022089Y-001575D02*
Y-000591D01*
X-022371*
X-022465Y-000650*
X-022496Y-000695*
X-022527Y-000784*
Y-000919*
X-022496Y-001023*
X-022465Y-001068*
X-022371Y-001113*
X-022089*
X-020899Y-000605D02*
X-020805Y-000650D01*
X-020742Y-000784*
X-020711Y-001023*
Y-001157*
X-020742Y-001396*
X-020805Y-001530*
X-020899Y-001575*
X-020961*
X-021055Y-001530*
X-021118Y-001396*
X-021149Y-001157*
Y-001023*
X-021118Y-000784*
X-021055Y-000650*
X-020961Y-000605*
X-020899*
X-020210D02*
X-020116Y-000650D01*
X-020053Y-000784*
X-020022Y-001023*
Y-001157*
X-020053Y-001396*
X-020116Y-001530*
X-020210Y-001575*
X-020272*
X-020366Y-001530*
X-020429Y-001396*
X-020460Y-001157*
Y-001023*
X-020429Y-000784*
X-020366Y-000650*
X-020272Y-000605*
X-020210*
X-019020D02*
X-018707D01*
X-018675Y-001023*
X-018707Y-000978*
X-018801Y-000934*
X-018895*
X-018989Y-000978*
X-019051Y-001068*
X-019082Y-001202*
Y-001306*
X-019051Y-001441*
X-018989Y-001530*
X-018895Y-001575*
X-018801*
X-018707Y-001530*
X-018675Y-001485*
X-018644Y-001396*
X-018143Y-000605D02*
X-018049Y-000650D01*
X-017986Y-000784*
X-017955Y-001023*
Y-001157*
X-017986Y-001396*
X-018049Y-001530*
X-018143Y-001575*
X-018206*
X-018300Y-001530*
X-018362Y-001396*
X-018394Y-001157*
Y-001023*
X-018362Y-000784*
X-018300Y-000650*
X-018206Y-000605*
X-018143*
X-017423D02*
X-017329Y-000650D01*
X-017297Y-000740*
Y-000829*
X-017329Y-000934*
X-017391Y-000978*
X-017517Y-001023*
X-017611Y-001068*
X-017673Y-001157*
X-017705Y-001247*
Y-001396*
X-017673Y-001485*
X-017642Y-001530*
X-017548Y-001575*
X-017423*
X-017329Y-001530*
X-017297Y-001485*
X-017266Y-001396*
Y-001247*
X-017297Y-001157*
X-017360Y-001068*
X-017454Y-001023*
X-017579Y-000978*
X-017642Y-000934*
X-017673Y-000829*
Y-000740*
X-017642Y-000650*
X-017548Y-000605*
X-017423*
X-016608Y-000829D02*
Y-000784D01*
X-016640Y-000695*
X-016671Y-000650*
X-016734Y-000591*
X-016859*
X-016922Y-000650*
X-016953Y-000695*
X-016984Y-000784*
Y-000874*
X-016953Y-000963*
X-016890Y-001113*
X-016577Y-001575*
X-017016*
X-016295Y-000740D02*
X-016264Y-000650D01*
X-016160Y-000605*
X-016087*
X-015982Y-000650*
X-015920Y-000784*
X-015888Y-001023*
Y-001247*
X-015920Y-001441*
X-015982Y-001530*
X-016087Y-001575*
X-016118*
X-016222Y-001530*
X-016295Y-001441*
X-016327Y-001306*
Y-001247*
X-016295Y-001113*
X-016222Y-001023*
X-016118Y-000978*
X-016087*
X-015982Y-001023*
X-015920Y-001113*
X-015888Y-001247*
X-015366Y-000784D02*
X-015408Y-000740D01*
X-015460Y-000605*
Y-001575*
X-014542Y-000829D02*
Y-000784D01*
X-014573Y-000695*
X-014604Y-000650*
X-014667Y-000591*
X-014792*
X-014855Y-000650*
X-014886Y-000695*
X-014917Y-000784*
Y-000874*
X-014886Y-000963*
X-014823Y-001113*
X-014510Y-001575*
X-014949*
X-013988Y-000784D02*
X-014030Y-000740D01*
X-014082Y-000605*
Y-001575*
X-012443Y-000591D02*
X-012663D01*
X-012757Y-000650*
X-012819Y-000740*
X-012850Y-000829*
X-012882Y-000963*
Y-001202*
X-012850Y-001336*
X-012819Y-001441*
X-012757Y-001530*
X-012663Y-001575*
X-012443*
Y-000591*
X-011974Y-001068D02*
X-012193Y-001575D01*
X-011754D02*
Y-000591D01*
X-012036*
X-012130Y-000650*
X-012162Y-000695*
X-012193Y-000784*
Y-000874*
X-012162Y-000963*
X-012130Y-001023*
X-012036Y-001068*
X-011754*
X-011065D02*
X-011347D01*
X-011441Y-001113*
X-011473Y-001157*
X-011504Y-001247*
Y-001396*
X-011473Y-001485*
X-011441Y-001530*
X-011347Y-001575*
X-011065*
Y-000591*
X-011347*
X-011441Y-000650*
X-011473Y-000695*
X-011504Y-000784*
Y-000874*
X-011473Y-000963*
X-011441Y-001023*
X-011347Y-001068*
X-000591Y000000D02*
X000591D01*
X000000Y000591D02*
Y-000591D01*
G54D12*
X-098098Y012661D03*
Y016220D03*
X-098087Y010276D03*
X-097894Y073798D03*
Y076024D03*
X-097724Y013606D03*
Y015276D03*
X-097713Y011220D03*
X-097520Y074743D03*
Y076969D03*
X-097350Y012661D03*
Y016220D03*
X-097339Y010276D03*
X-097146Y073798D03*
Y076024D03*
X-096376Y054724D03*
X-096002Y055669D03*
X-095899Y048535D03*
X-095709Y036646D03*
X-095628Y054724D03*
X-095525Y049480D03*
X-095335Y037591D03*
X-095151Y048535D03*
X-094961Y036646D03*
X-094587Y051917D03*
X-094213Y050972D03*
X-093839Y051917D03*
X-093091Y035170D03*
X-092717Y036114D03*
X-092343Y035170D03*
X-091969Y050441D03*
X-091778Y038551D03*
X-091594Y049496D03*
X-091404Y037606D03*
X-091301Y032362D03*
X-091220Y050441D03*
X-091030Y038551D03*
X-090927Y031417D03*
X-090553Y032362D03*
X-089783Y011063D03*
Y013288D03*
X-089591Y076811D03*
X-089579Y070866D03*
Y074425D03*
X-089409Y010118D03*
Y012343D03*
X-089217Y075866D03*
X-089205Y071811D03*
Y073480D03*
X-089035Y011063D03*
Y013288D03*
X-088843Y076811D03*
X-088831Y070866D03*
Y074425D03*
X-082921Y012661D03*
Y016220D03*
X-082909Y010276D03*
X-082717Y073798D03*
Y076024D03*
X-082547Y013606D03*
Y015276D03*
X-082535Y011220D03*
X-082343Y074743D03*
Y076969D03*
X-082173Y012661D03*
Y016220D03*
X-082161Y010276D03*
X-081969Y073798D03*
Y076024D03*
X-081199Y054724D03*
X-080825Y055669D03*
X-080722Y048535D03*
X-080531Y036646D03*
X-080451Y054724D03*
X-080348Y049480D03*
X-080157Y037591D03*
X-079974Y048535D03*
X-079783Y036646D03*
X-079409Y051917D03*
X-079035Y050972D03*
X-078661Y051917D03*
X-077913Y035170D03*
X-077539Y036114D03*
X-077165Y035170D03*
X-076791Y050441D03*
X-076601Y038551D03*
X-076417Y049496D03*
X-076227Y037606D03*
X-076124Y032362D03*
X-076043Y050441D03*
X-075853Y038551D03*
X-075750Y031417D03*
X-075376Y032362D03*
X-074606Y011063D03*
Y013288D03*
X-074413Y076811D03*
X-074402Y070866D03*
Y074425D03*
X-074232Y010118D03*
Y012343D03*
X-074039Y075866D03*
X-074028Y071811D03*
Y073480D03*
X-073858Y011063D03*
Y013288D03*
X-073665Y076811D03*
X-073654Y070866D03*
Y074425D03*
X-067744Y012661D03*
Y016220D03*
X-067732Y010276D03*
X-067539Y073798D03*
Y076024D03*
X-067370Y013606D03*
Y015276D03*
X-067358Y011220D03*
X-067165Y074743D03*
Y076969D03*
X-066996Y012661D03*
Y016220D03*
X-066984Y010276D03*
X-066791Y073798D03*
Y076024D03*
X-066022Y054724D03*
X-065648Y055669D03*
X-065545Y048535D03*
X-065354Y036646D03*
X-065274Y054724D03*
X-065171Y049480D03*
X-064980Y037591D03*
X-064797Y048535D03*
X-064606Y036646D03*
X-064232Y051917D03*
X-063858Y050972D03*
X-063484Y051917D03*
X-062736Y035170D03*
X-062362Y036114D03*
X-061988Y035170D03*
X-061614Y050441D03*
X-061424Y038551D03*
X-061240Y049496D03*
X-061050Y037606D03*
X-060947Y032362D03*
X-060866Y050441D03*
X-060676Y038551D03*
X-060573Y031417D03*
X-060199Y032362D03*
X-059429Y011063D03*
Y013288D03*
X-059236Y076811D03*
X-059224Y070866D03*
Y074425D03*
X-059055Y010118D03*
Y012343D03*
X-058862Y075866D03*
X-058850Y071811D03*
Y073480D03*
X-058681Y011063D03*
Y013288D03*
X-058488Y076811D03*
X-058476Y070866D03*
Y074425D03*
X-052567Y012661D03*
Y016220D03*
X-052555Y010276D03*
X-052362Y073798D03*
Y076024D03*
X-052193Y013606D03*
Y015276D03*
X-052181Y011220D03*
X-051988Y074743D03*
Y076969D03*
X-051819Y012661D03*
Y016220D03*
X-051807Y010276D03*
X-051614Y073798D03*
Y076024D03*
X-050845Y054724D03*
X-050471Y055669D03*
X-050368Y048535D03*
X-050177Y036646D03*
X-050097Y054724D03*
X-049994Y049480D03*
X-049803Y037591D03*
X-049620Y048535D03*
X-049429Y036646D03*
X-049055Y051917D03*
X-048681Y050972D03*
X-048307Y051917D03*
X-047559Y035170D03*
X-047185Y036114D03*
X-046811Y035170D03*
X-046437Y050441D03*
X-046246Y038551D03*
X-046063Y049496D03*
X-045872Y037606D03*
X-045770Y032362D03*
X-045689Y050441D03*
X-045498Y038551D03*
X-045395Y031417D03*
X-045021Y032362D03*
X-044252Y011063D03*
Y013288D03*
X-044059Y076811D03*
X-044047Y070866D03*
Y074425D03*
X-043878Y010118D03*
Y012343D03*
X-043685Y075866D03*
X-043673Y071811D03*
Y073480D03*
X-043504Y011063D03*
Y013288D03*
X-043311Y076811D03*
X-043299Y070866D03*
Y074425D03*
X-037390Y012661D03*
Y016220D03*
X-037378Y010276D03*
X-037185Y073798D03*
Y076024D03*
X-037016Y013606D03*
Y015276D03*
X-037004Y011220D03*
X-036811Y074743D03*
Y076969D03*
X-036642Y012661D03*
Y016220D03*
X-036630Y010276D03*
X-036437Y073798D03*
Y076024D03*
X-035667Y054724D03*
X-035293Y055669D03*
X-035191Y048535D03*
X-035000Y036646D03*
X-034919Y054724D03*
X-034817Y049480D03*
X-034626Y037591D03*
X-034443Y048535D03*
X-034252Y036646D03*
X-033878Y051917D03*
X-033504Y050972D03*
X-033130Y051917D03*
X-032382Y035170D03*
X-032008Y036114D03*
X-031634Y035170D03*
X-031260Y050441D03*
X-031069Y038551D03*
X-030886Y049496D03*
X-030695Y037606D03*
X-030592Y032362D03*
X-030512Y050441D03*
X-030321Y038551D03*
X-030218Y031417D03*
X-029844Y032362D03*
X-029075Y011063D03*
Y013288D03*
X-028882Y076811D03*
X-028870Y070866D03*
Y074425D03*
X-028701Y010118D03*
Y012343D03*
X-028508Y075866D03*
X-028496Y071811D03*
Y073480D03*
X-028327Y011063D03*
Y013288D03*
X-028134Y076811D03*
X-028122Y070866D03*
Y074425D03*
X-022213Y012661D03*
Y016220D03*
X-022201Y010276D03*
X-022008Y073798D03*
Y076024D03*
X-021839Y013606D03*
Y015276D03*
X-021827Y011220D03*
X-021634Y074743D03*
Y076969D03*
X-021465Y012661D03*
Y016220D03*
X-021453Y010276D03*
X-021260Y073798D03*
Y076024D03*
X-020490Y054724D03*
X-020116Y055669D03*
X-020013Y048535D03*
X-019823Y036646D03*
X-019742Y054724D03*
X-019639Y049480D03*
X-019449Y037591D03*
X-019265Y048535D03*
X-019075Y036646D03*
X-018701Y051917D03*
X-018327Y050972D03*
X-017953Y051917D03*
X-017205Y035170D03*
X-016831Y036114D03*
X-016457Y035170D03*
X-016083Y050441D03*
X-015892Y038551D03*
X-015709Y049496D03*
X-015518Y037606D03*
X-015415Y032362D03*
X-015335Y050441D03*
X-015144Y038551D03*
X-015041Y031417D03*
X-014667Y032362D03*
X-013898Y011063D03*
Y013288D03*
X-013705Y076811D03*
X-013693Y070866D03*
Y074425D03*
X-013524Y010118D03*
Y012343D03*
X-013331Y075866D03*
X-013319Y071811D03*
Y073480D03*
X-013150Y011063D03*
Y013288D03*
X-012957Y076811D03*
X-012945Y070866D03*
Y074425D03*
X-007035Y012661D03*
Y016220D03*
X-007024Y010276D03*
X-006831Y073798D03*
Y076024D03*
X-006661Y013606D03*
Y015276D03*
X-006650Y011220D03*
X-006457Y074743D03*
Y076969D03*
X-006287Y012661D03*
Y016220D03*
X-006276Y010276D03*
X-006083Y073798D03*
Y076024D03*
X-005313Y054724D03*
X-004939Y055669D03*
X-004836Y048535D03*
X-004646Y036646D03*
X-004565Y054724D03*
X-004462Y049480D03*
X-004272Y037591D03*
X-004088Y048535D03*
X-003898Y036646D03*
X-003524Y051917D03*
X-003150Y050972D03*
X-002776Y051917D03*
X-002028Y035170D03*
X-001654Y036114D03*
X-001280Y035170D03*
X-000906Y050441D03*
X-000715Y038551D03*
X-000531Y049496D03*
X-000341Y037606D03*
X-000238Y032362D03*
X-000157Y050441D03*
X000033Y038551D03*
X000136Y031417D03*
X000510Y032362D03*
X001280Y011063D03*
Y013288D03*
X001472Y076811D03*
X001484Y070866D03*
Y074425D03*
X001654Y010118D03*
Y012343D03*
X001846Y075866D03*
X001858Y071811D03*
Y073480D03*
X002028Y011063D03*
Y013288D03*
X002220Y076811D03*
X002232Y070866D03*
Y074425D03*
G54D13*
X-097230Y025315D03*
Y026417D03*
X-096974Y025315D03*
Y026417D03*
X-096719Y025315D03*
Y026417D03*
X-096463Y025315D03*
Y026417D03*
X-090467Y060669D03*
Y061772D03*
X-090211Y060669D03*
Y061772D03*
X-089955Y060669D03*
Y061772D03*
X-089699Y060669D03*
Y061772D03*
X-082053Y025315D03*
Y026417D03*
X-081797Y025315D03*
Y026417D03*
X-081541Y025315D03*
Y026417D03*
X-081285Y025315D03*
Y026417D03*
X-075289Y060669D03*
Y061772D03*
X-075033Y060669D03*
Y061772D03*
X-074778Y060669D03*
Y061772D03*
X-074522Y060669D03*
Y061772D03*
X-066876Y025315D03*
Y026417D03*
X-066620Y025315D03*
Y026417D03*
X-066364Y025315D03*
Y026417D03*
X-066108Y025315D03*
Y026417D03*
X-060112Y060669D03*
Y061772D03*
X-059856Y060669D03*
Y061772D03*
X-059600Y060669D03*
Y061772D03*
X-059344Y060669D03*
Y061772D03*
X-051699Y025315D03*
Y026417D03*
X-051443Y025315D03*
Y026417D03*
X-051187Y025315D03*
Y026417D03*
X-050931Y025315D03*
Y026417D03*
X-044935Y060669D03*
Y061772D03*
X-044679Y060669D03*
Y061772D03*
X-044423Y060669D03*
Y061772D03*
X-044167Y060669D03*
Y061772D03*
X-036522Y025315D03*
Y026417D03*
X-036266Y025315D03*
Y026417D03*
X-036010Y025315D03*
Y026417D03*
X-035754Y025315D03*
Y026417D03*
X-029758Y060669D03*
Y061772D03*
X-029502Y060669D03*
Y061772D03*
X-029246Y060669D03*
Y061772D03*
X-028990Y060669D03*
Y061772D03*
X-021344Y025315D03*
Y026417D03*
X-021089Y025315D03*
Y026417D03*
X-020833Y025315D03*
Y026417D03*
X-020577Y025315D03*
Y026417D03*
X-014581Y060669D03*
Y061772D03*
X-014325Y060669D03*
Y061772D03*
X-014069Y060669D03*
Y061772D03*
X-013813Y060669D03*
Y061772D03*
X-006167Y025315D03*
Y026417D03*
X-005911Y025315D03*
Y026417D03*
X-005656Y025315D03*
Y026417D03*
X-005400Y025315D03*
Y026417D03*
X000596Y060669D03*
Y061772D03*
X000852Y060669D03*
Y061772D03*
X001108Y060669D03*
Y061772D03*
X001364Y060669D03*
Y061772D03*
G54D14*
X-096846Y025866D03*
X-090083Y061220D03*
X-081669Y025866D03*
X-074906Y061220D03*
X-066492Y025866D03*
X-059728Y061220D03*
X-051315Y025866D03*
X-044551Y061220D03*
X-036138Y025866D03*
X-029374Y061220D03*
X-020961Y025866D03*
X-014197Y061220D03*
X-005783Y025866D03*
X000980Y061220D03*
G54D15*
X-095236Y027441D03*
X-094528D03*
X-092402Y059646D03*
X-091693D03*
X-080059Y027441D03*
X-079350D03*
X-077224Y059646D03*
X-076516D03*
X-064882Y027441D03*
X-064173D03*
X-062047Y059646D03*
X-061339D03*
X-049705Y027441D03*
X-048996D03*
X-046870Y059646D03*
X-046161D03*
X-034528Y027441D03*
X-033819D03*
X-031693Y059646D03*
X-030984D03*
X-019350Y027441D03*
X-018642D03*
X-016516Y059646D03*
X-015807D03*
X-004173Y027441D03*
X-003465D03*
X-001339Y059646D03*
X-000630D03*
G54D16*
X-098386Y064026D03*
X-098031Y023898D03*
X-097677Y064026D03*
X-097323Y023898D03*
X-096515Y027441D03*
X-095806D03*
X-093838Y027913D03*
X-093799Y059173D03*
X-093130Y027913D03*
X-093091Y059173D03*
X-091123Y059646D03*
X-090414D03*
X-089606Y063189D03*
X-089252Y023061D03*
X-088898Y063189D03*
X-088543Y023061D03*
X-083209Y064026D03*
X-082854Y023898D03*
X-082500Y064026D03*
X-082146Y023898D03*
X-081338Y027441D03*
X-080629D03*
X-078661Y027913D03*
X-078622Y059173D03*
X-077953Y027913D03*
X-077914Y059173D03*
X-075946Y059646D03*
X-075237D03*
X-074429Y063189D03*
X-074075Y023061D03*
X-073720Y063189D03*
X-073366Y023061D03*
X-068031Y064026D03*
X-067677Y023898D03*
X-067323Y064026D03*
X-066969Y023898D03*
X-066161Y027441D03*
X-065452D03*
X-063484Y027913D03*
X-063445Y059173D03*
X-062775Y027913D03*
X-062736Y059173D03*
X-060768Y059646D03*
X-060060D03*
X-059252Y063189D03*
X-058898Y023061D03*
X-058543Y063189D03*
X-058189Y023061D03*
X-052854Y064026D03*
X-052500Y023898D03*
X-052146Y064026D03*
X-051791Y023898D03*
X-050984Y027441D03*
X-050275D03*
X-048307Y027913D03*
X-048268Y059173D03*
X-047598Y027913D03*
X-047559Y059173D03*
X-045591Y059646D03*
X-044883D03*
X-044075Y063189D03*
X-043720Y023061D03*
X-043366Y063189D03*
X-043012Y023061D03*
X-037677Y064026D03*
X-037323Y023898D03*
X-036969Y064026D03*
X-036614Y023898D03*
X-035806Y027441D03*
X-035098D03*
X-033130Y027913D03*
X-033091Y059173D03*
X-032421Y027913D03*
X-032382Y059173D03*
X-030414Y059646D03*
X-029705D03*
X-028898Y063189D03*
X-028543Y023061D03*
X-028189Y063189D03*
X-027835Y023061D03*
X-022500Y064026D03*
X-022146Y023898D03*
X-021791Y064026D03*
X-021437Y023898D03*
X-020629Y027441D03*
X-019921D03*
X-017953Y027913D03*
X-017914Y059173D03*
X-017244Y027913D03*
X-017205Y059173D03*
X-015237Y059646D03*
X-014528D03*
X-013720Y063189D03*
X-013366Y023061D03*
X-013012Y063189D03*
X-012657Y023061D03*
X-007323Y064026D03*
X-006969Y023898D03*
X-006614Y064026D03*
X-006260Y023898D03*
X-005452Y027441D03*
X-004743D03*
X-002775Y027913D03*
X-002736Y059173D03*
X-002067Y027913D03*
X-002028Y059173D03*
X-000060Y059646D03*
X000649D03*
X001457Y063189D03*
X001811Y023061D03*
X002165Y063189D03*
X002520Y023061D03*
G54D17*
X-098504Y068760D03*
Y069114D03*
X-098246Y028211D03*
Y028565D03*
X-097618Y072146D03*
Y072500D03*
X-097480Y077657D03*
Y078012D03*
X-096496Y029350D03*
Y029705D03*
X-095276Y021988D03*
Y022343D03*
X-095118Y012500D03*
Y012854D03*
X-093639Y029675D03*
Y030030D03*
X-093290Y057057D03*
Y057411D03*
X-091811Y074232D03*
Y074587D03*
X-091654Y064744D03*
Y065098D03*
X-090433Y057382D03*
Y057736D03*
X-089449Y009075D03*
Y009429D03*
X-089311Y014587D03*
Y014941D03*
X-088683Y058522D03*
Y058876D03*
X-088425Y017972D03*
Y018327D03*
X-083327Y068760D03*
Y069114D03*
X-083069Y028211D03*
Y028565D03*
X-082441Y072146D03*
Y072500D03*
X-082303Y077657D03*
Y078012D03*
X-081319Y029350D03*
Y029705D03*
X-080098Y021988D03*
Y022343D03*
X-079941Y012500D03*
Y012854D03*
X-078462Y029675D03*
Y030030D03*
X-078113Y057057D03*
Y057411D03*
X-076634Y074232D03*
Y074587D03*
X-076476Y064744D03*
Y065098D03*
X-075256Y057382D03*
Y057736D03*
X-074272Y009075D03*
Y009429D03*
X-074134Y014587D03*
Y014941D03*
X-073506Y058522D03*
Y058876D03*
X-073248Y017972D03*
Y018327D03*
X-068150Y068760D03*
Y069114D03*
X-067892Y028211D03*
Y028565D03*
X-067264Y072146D03*
Y072500D03*
X-067126Y077657D03*
Y078012D03*
X-066142Y029350D03*
Y029705D03*
X-064921Y021988D03*
Y022343D03*
X-064764Y012500D03*
Y012854D03*
X-063285Y029675D03*
Y030030D03*
X-062936Y057057D03*
Y057411D03*
X-061457Y074232D03*
Y074587D03*
X-061299Y064744D03*
Y065098D03*
X-060079Y057382D03*
Y057736D03*
X-059094Y009075D03*
Y009429D03*
X-058957Y014587D03*
Y014941D03*
X-058329Y058522D03*
Y058876D03*
X-058071Y017972D03*
Y018327D03*
X-052972Y068760D03*
Y069114D03*
X-052715Y028211D03*
Y028565D03*
X-052087Y072146D03*
Y072500D03*
X-051949Y077657D03*
Y078012D03*
X-050965Y029350D03*
Y029705D03*
X-049744Y021988D03*
Y022343D03*
X-049587Y012500D03*
Y012854D03*
X-048107Y029675D03*
Y030030D03*
X-047759Y057057D03*
Y057411D03*
X-046280Y074232D03*
Y074587D03*
X-046122Y064744D03*
Y065098D03*
X-044902Y057382D03*
Y057736D03*
X-043917Y009075D03*
Y009429D03*
X-043780Y014587D03*
Y014941D03*
X-043152Y058522D03*
Y058876D03*
X-042894Y017972D03*
Y018327D03*
X-037795Y068760D03*
Y069114D03*
X-037537Y028211D03*
Y028565D03*
X-036909Y072146D03*
Y072500D03*
X-036772Y077657D03*
Y078012D03*
X-035787Y029350D03*
Y029705D03*
X-034567Y021988D03*
Y022343D03*
X-034409Y012500D03*
Y012854D03*
X-032930Y029675D03*
Y030030D03*
X-032581Y057057D03*
Y057411D03*
X-031102Y074232D03*
Y074587D03*
X-030945Y064744D03*
Y065098D03*
X-029724Y057382D03*
Y057736D03*
X-028740Y009075D03*
Y009429D03*
X-028602Y014587D03*
Y014941D03*
X-027974Y058522D03*
Y058876D03*
X-027717Y017972D03*
Y018327D03*
X-022618Y068760D03*
Y069114D03*
X-022360Y028211D03*
Y028565D03*
X-021732Y072146D03*
Y072500D03*
X-021594Y077657D03*
Y078012D03*
X-020610Y029350D03*
Y029705D03*
X-019390Y021988D03*
Y022343D03*
X-019232Y012500D03*
Y012854D03*
X-017753Y029675D03*
Y030030D03*
X-017404Y057057D03*
Y057411D03*
X-015925Y074232D03*
Y074587D03*
X-015768Y064744D03*
Y065098D03*
X-014547Y057382D03*
Y057736D03*
X-013563Y009075D03*
Y009429D03*
X-013425Y014587D03*
Y014941D03*
X-012797Y058522D03*
Y058876D03*
X-012539Y017972D03*
Y018327D03*
X-007441Y068760D03*
Y069114D03*
X-007183Y028211D03*
Y028565D03*
X-006555Y072146D03*
Y072500D03*
X-006417Y077657D03*
Y078012D03*
X-005433Y029350D03*
Y029705D03*
X-004213Y021988D03*
Y022343D03*
X-004055Y012500D03*
Y012854D03*
X-002576Y029675D03*
Y030030D03*
X-002227Y057057D03*
Y057411D03*
X-000748Y074232D03*
Y074587D03*
X-000591Y064744D03*
Y065098D03*
X000630Y057382D03*
Y057736D03*
X001614Y009075D03*
Y009429D03*
X001752Y014587D03*
Y014941D03*
X002380Y058522D03*
Y058876D03*
X002638Y017972D03*
Y018327D03*
G54D18*
X-098150Y064823D03*
Y065197D03*
Y065571D03*
X-097205Y064823D03*
Y065197D03*
Y065571D03*
X-089724Y021516D03*
Y021890D03*
Y022264D03*
X-088780Y021516D03*
Y021890D03*
Y022264D03*
X-082972Y064823D03*
Y065197D03*
Y065571D03*
X-082028Y064823D03*
Y065197D03*
Y065571D03*
X-074547Y021516D03*
Y021890D03*
Y022264D03*
X-073602Y021516D03*
Y021890D03*
Y022264D03*
X-067795Y064823D03*
Y065197D03*
Y065571D03*
X-066850Y064823D03*
Y065197D03*
Y065571D03*
X-059370Y021516D03*
Y021890D03*
Y022264D03*
X-058425Y021516D03*
Y021890D03*
Y022264D03*
X-052618Y064823D03*
Y065197D03*
Y065571D03*
X-051673Y064823D03*
Y065197D03*
Y065571D03*
X-044193Y021516D03*
Y021890D03*
Y022264D03*
X-043248Y021516D03*
Y021890D03*
Y022264D03*
X-037441Y064823D03*
Y065197D03*
Y065571D03*
X-036496Y064823D03*
Y065197D03*
Y065571D03*
X-029016Y021516D03*
Y021890D03*
Y022264D03*
X-028071Y021516D03*
Y021890D03*
Y022264D03*
X-022264Y064823D03*
Y065197D03*
Y065571D03*
X-021319Y064823D03*
Y065197D03*
Y065571D03*
X-013839Y021516D03*
Y021890D03*
Y022264D03*
X-012894Y021516D03*
Y021890D03*
Y022264D03*
X-007087Y064823D03*
Y065197D03*
Y065571D03*
X-006142Y064823D03*
Y065197D03*
Y065571D03*
X001339Y021516D03*
Y021890D03*
Y022264D03*
X002283Y021516D03*
Y021890D03*
Y022264D03*
G54D19*
X-098622Y018222D03*
X-098267D03*
X-097776Y024567D03*
X-097421D03*
X-097303Y030748D03*
X-097028Y019125D03*
X-097025Y018673D03*
X-096949Y030748D03*
X-096673Y019125D03*
X-096671Y018673D03*
X-094862Y073858D03*
X-094508D03*
X-092421Y013228D03*
X-092067D03*
X-090258Y068413D03*
X-090256Y067961D03*
X-089980Y056339D03*
X-089904Y068413D03*
X-089902Y067961D03*
X-089626Y056339D03*
X-089508Y062520D03*
X-089154D03*
X-088662Y068864D03*
X-088308D03*
X-083444Y018222D03*
X-083090D03*
X-082598Y024567D03*
X-082244D03*
X-082126Y030748D03*
X-081850Y019125D03*
X-081848Y018673D03*
X-081772Y030748D03*
X-081496Y019125D03*
X-081494Y018673D03*
X-079685Y073858D03*
X-079331D03*
X-077244Y013228D03*
X-076890D03*
X-075081Y068413D03*
X-075079Y067961D03*
X-074803Y056339D03*
X-074726Y068413D03*
X-074724Y067961D03*
X-074449Y056339D03*
X-074331Y062520D03*
X-073976D03*
X-073485Y068864D03*
X-073130D03*
X-068267Y018222D03*
X-067913D03*
X-067421Y024567D03*
X-067067D03*
X-066949Y030748D03*
X-066673Y019125D03*
X-066671Y018673D03*
X-066594Y030748D03*
X-066319Y019125D03*
X-066317Y018673D03*
X-064508Y073858D03*
X-064154D03*
X-062067Y013228D03*
X-061713D03*
X-059904Y068413D03*
X-059902Y067961D03*
X-059626Y056339D03*
X-059549Y068413D03*
X-059547Y067961D03*
X-059272Y056339D03*
X-059154Y062520D03*
X-058799D03*
X-058308Y068864D03*
X-057953D03*
X-053090Y018222D03*
X-052736D03*
X-052244Y024567D03*
X-051890D03*
X-051772Y030748D03*
X-051496Y019125D03*
X-051494Y018673D03*
X-051417Y030748D03*
X-051142Y019125D03*
X-051140Y018673D03*
X-049331Y073858D03*
X-048976D03*
X-046890Y013228D03*
X-046535D03*
X-044726Y068413D03*
X-044724Y067961D03*
X-044449Y056339D03*
X-044372Y068413D03*
X-044370Y067961D03*
X-044094Y056339D03*
X-043976Y062520D03*
X-043622D03*
X-043130Y068864D03*
X-042776D03*
X-037913Y018222D03*
X-037559D03*
X-037067Y024567D03*
X-036713D03*
X-036594Y030748D03*
X-036319Y019125D03*
X-036317Y018673D03*
X-036240Y030748D03*
X-035965Y019125D03*
X-035962Y018673D03*
X-034154Y073858D03*
X-033799D03*
X-031713Y013228D03*
X-031358D03*
X-029549Y068413D03*
X-029547Y067961D03*
X-029272Y056339D03*
X-029195Y068413D03*
X-029193Y067961D03*
X-028917Y056339D03*
X-028799Y062520D03*
X-028445D03*
X-027953Y068864D03*
X-027599D03*
X-022736Y018222D03*
X-022381D03*
X-021890Y024567D03*
X-021535D03*
X-021417Y030748D03*
X-021142Y019125D03*
X-021140Y018673D03*
X-021063Y030748D03*
X-020787Y019125D03*
X-020785Y018673D03*
X-018976Y073858D03*
X-018622D03*
X-016535Y013228D03*
X-016181D03*
X-014372Y068413D03*
X-014370Y067961D03*
X-014094Y056339D03*
X-014018Y068413D03*
X-014016Y067961D03*
X-013740Y056339D03*
X-013622Y062520D03*
X-013268D03*
X-012776Y068864D03*
X-012422D03*
X-007559Y018222D03*
X-007204D03*
X-006713Y024567D03*
X-006358D03*
X-006240Y030748D03*
X-005965Y019125D03*
X-005962Y018673D03*
X-005886Y030748D03*
X-005610Y019125D03*
X-005608Y018673D03*
X-003799Y073858D03*
X-003445D03*
X-001358Y013228D03*
X-001004D03*
X000805Y068413D03*
X000807Y067961D03*
X001083Y056339D03*
X001159Y068413D03*
X001161Y067961D03*
X001437Y056339D03*
X001555Y062520D03*
X001909D03*
X002401Y068864D03*
X002755D03*
G54D20*
X-098325Y018748D03*
Y019181D03*
X-098124Y018748D03*
Y019181D03*
X-094884Y070602D03*
Y071035D03*
X-094683Y070602D03*
Y071035D03*
X-094277Y057018D03*
Y057451D03*
X-094254Y016252D03*
Y016685D03*
X-094076Y057018D03*
Y057451D03*
X-094053Y016252D03*
Y016685D03*
X-092876Y070402D03*
Y070835D03*
X-092853Y029636D03*
Y030069D03*
X-092675Y070402D03*
Y070835D03*
X-092652Y029636D03*
Y030069D03*
X-092246Y016052D03*
Y016485D03*
X-092045Y016052D03*
Y016485D03*
X-088805Y067906D03*
Y068339D03*
X-088604Y067906D03*
Y068339D03*
X-083148Y018748D03*
Y019181D03*
X-082947Y018748D03*
Y019181D03*
X-079707Y070602D03*
Y071035D03*
X-079506Y070602D03*
Y071035D03*
X-079100Y057018D03*
Y057451D03*
X-079077Y016252D03*
Y016685D03*
X-078899Y057018D03*
Y057451D03*
X-078876Y016252D03*
Y016685D03*
X-077699Y070402D03*
Y070835D03*
X-077676Y029636D03*
Y030069D03*
X-077498Y070402D03*
Y070835D03*
X-077475Y029636D03*
Y030069D03*
X-077069Y016052D03*
Y016485D03*
X-076868Y016052D03*
Y016485D03*
X-073628Y067906D03*
Y068339D03*
X-073427Y067906D03*
Y068339D03*
X-067970Y018748D03*
Y019181D03*
X-067770Y018748D03*
Y019181D03*
X-064530Y070602D03*
Y071035D03*
X-064329Y070602D03*
Y071035D03*
X-063922Y057018D03*
Y057451D03*
X-063900Y016252D03*
Y016685D03*
X-063722Y057018D03*
Y057451D03*
X-063699Y016252D03*
Y016685D03*
X-062522Y070402D03*
Y070835D03*
X-062499Y029636D03*
Y030069D03*
X-062321Y070402D03*
Y070835D03*
X-062298Y029636D03*
Y030069D03*
X-061892Y016052D03*
Y016485D03*
X-061691Y016052D03*
Y016485D03*
X-058451Y067906D03*
Y068339D03*
X-058250Y067906D03*
Y068339D03*
X-052793Y018748D03*
Y019181D03*
X-052593Y018748D03*
Y019181D03*
X-049352Y070602D03*
Y071035D03*
X-049152Y070602D03*
Y071035D03*
X-048745Y057018D03*
Y057451D03*
X-048722Y016252D03*
Y016685D03*
X-048545Y057018D03*
Y057451D03*
X-048522Y016252D03*
Y016685D03*
X-047344Y070402D03*
Y070835D03*
X-047322Y029636D03*
Y030069D03*
X-047144Y070402D03*
Y070835D03*
X-047121Y029636D03*
Y030069D03*
X-046715Y016052D03*
Y016485D03*
X-046514Y016052D03*
Y016485D03*
X-043274Y067906D03*
Y068339D03*
X-043073Y067906D03*
Y068339D03*
X-037616Y018748D03*
Y019181D03*
X-037415Y018748D03*
Y019181D03*
X-034175Y070602D03*
Y071035D03*
X-033974Y070602D03*
Y071035D03*
X-033568Y057018D03*
Y057451D03*
X-033545Y016252D03*
Y016685D03*
X-033367Y057018D03*
Y057451D03*
X-033344Y016252D03*
Y016685D03*
X-032167Y070402D03*
Y070835D03*
X-032144Y029636D03*
Y030069D03*
X-031967Y070402D03*
Y070835D03*
X-031944Y029636D03*
Y030069D03*
X-031537Y016052D03*
Y016485D03*
X-031337Y016052D03*
Y016485D03*
X-028096Y067906D03*
Y068339D03*
X-027896Y067906D03*
Y068339D03*
X-022439Y018748D03*
Y019181D03*
X-022238Y018748D03*
Y019181D03*
X-018998Y070602D03*
Y071035D03*
X-018797Y070602D03*
Y071035D03*
X-018391Y057018D03*
Y057451D03*
X-018368Y016252D03*
Y016685D03*
X-018190Y057018D03*
Y057451D03*
X-018167Y016252D03*
Y016685D03*
X-016990Y070402D03*
Y070835D03*
X-016967Y029636D03*
Y030069D03*
X-016789Y070402D03*
Y070835D03*
X-016766Y029636D03*
Y030069D03*
X-016360Y016052D03*
Y016485D03*
X-016159Y016052D03*
Y016485D03*
X-012919Y067906D03*
Y068339D03*
X-012719Y067906D03*
Y068339D03*
X-007262Y018748D03*
Y019181D03*
X-007061Y018748D03*
Y019181D03*
X-003821Y070602D03*
Y071035D03*
X-003620Y070602D03*
Y071035D03*
X-003214Y057018D03*
Y057451D03*
X-003191Y016252D03*
Y016685D03*
X-003013Y057018D03*
Y057451D03*
X-002990Y016252D03*
Y016685D03*
X-001813Y070402D03*
Y070835D03*
X-001790Y029636D03*
Y030069D03*
X-001612Y070402D03*
Y070835D03*
X-001589Y029636D03*
Y030069D03*
X-001183Y016052D03*
Y016485D03*
X-000982Y016052D03*
Y016485D03*
X002258Y067906D03*
Y068339D03*
X002459Y067906D03*
Y068339D03*
G54D21*
X-097953Y067638D03*
Y068543D03*
X-097874Y027598D03*
X-097854Y063179D03*
X-097126Y027598D03*
X-097106Y063179D03*
X-096772Y067638D03*
Y068543D03*
X-090157Y018543D03*
Y019449D03*
X-089823Y023907D03*
X-089803Y059488D03*
X-089075Y023907D03*
X-089055Y059488D03*
X-088976Y018543D03*
Y019449D03*
X-082776Y067638D03*
Y068543D03*
X-082697Y027598D03*
X-082677Y063179D03*
X-081949Y027598D03*
X-081929Y063179D03*
X-081594Y067638D03*
Y068543D03*
X-074980Y018543D03*
Y019449D03*
X-074646Y023907D03*
X-074626Y059488D03*
X-073898Y023907D03*
X-073878Y059488D03*
X-073799Y018543D03*
Y019449D03*
X-067598Y067638D03*
Y068543D03*
X-067520Y027598D03*
X-067500Y063179D03*
X-066772Y027598D03*
X-066752Y063179D03*
X-066417Y067638D03*
Y068543D03*
X-059803Y018543D03*
Y019449D03*
X-059469Y023907D03*
X-059449Y059488D03*
X-058720Y023907D03*
X-058701Y059488D03*
X-058622Y018543D03*
Y019449D03*
X-052421Y067638D03*
Y068543D03*
X-052343Y027598D03*
X-052323Y063179D03*
X-051594Y027598D03*
X-051575Y063179D03*
X-051240Y067638D03*
Y068543D03*
X-044626Y018543D03*
Y019449D03*
X-044291Y023907D03*
X-044272Y059488D03*
X-043543Y023907D03*
X-043524Y059488D03*
X-043445Y018543D03*
Y019449D03*
X-037244Y067638D03*
Y068543D03*
X-037165Y027598D03*
X-037146Y063179D03*
X-036417Y027598D03*
X-036398Y063179D03*
X-036063Y067638D03*
Y068543D03*
X-029449Y018543D03*
Y019449D03*
X-029114Y023907D03*
X-029094Y059488D03*
X-028366Y023907D03*
X-028346Y059488D03*
X-028268Y018543D03*
Y019449D03*
X-022067Y067638D03*
Y068543D03*
X-021988Y027598D03*
X-021969Y063179D03*
X-021240Y027598D03*
X-021220Y063179D03*
X-020886Y067638D03*
Y068543D03*
X-014272Y018543D03*
Y019449D03*
X-013937Y023907D03*
X-013917Y059488D03*
X-013189Y023907D03*
X-013169Y059488D03*
X-013091Y018543D03*
Y019449D03*
X-006890Y067638D03*
Y068543D03*
X-006811Y027598D03*
X-006791Y063179D03*
X-006063Y027598D03*
X-006043Y063179D03*
X-005709Y067638D03*
Y068543D03*
X000906Y018543D03*
Y019449D03*
X001240Y023907D03*
X001260Y059488D03*
X001988Y023907D03*
X002008Y059488D03*
X002087Y018543D03*
Y019449D03*
G54D22*
X-096417Y063071D03*
Y063622D03*
X-095472Y018110D03*
Y018661D03*
X-095276Y020906D03*
Y021457D03*
X-091654Y065630D03*
Y066181D03*
X-091457Y068425D03*
Y068976D03*
X-090512Y023465D03*
Y024016D03*
X-081240Y063071D03*
Y063622D03*
X-080295Y018110D03*
Y018661D03*
X-080098Y020906D03*
Y021457D03*
X-076476Y065630D03*
Y066181D03*
X-076280Y068425D03*
Y068976D03*
X-075335Y023465D03*
Y024016D03*
X-066063Y063071D03*
Y063622D03*
X-065118Y018110D03*
Y018661D03*
X-064921Y020906D03*
Y021457D03*
X-061299Y065630D03*
Y066181D03*
X-061102Y068425D03*
Y068976D03*
X-060157Y023465D03*
Y024016D03*
X-050886Y063071D03*
Y063622D03*
X-049941Y018110D03*
Y018661D03*
X-049744Y020906D03*
Y021457D03*
X-046122Y065630D03*
Y066181D03*
X-045925Y068425D03*
Y068976D03*
X-044980Y023465D03*
Y024016D03*
X-035709Y063071D03*
Y063622D03*
X-034764Y018110D03*
Y018661D03*
X-034567Y020906D03*
Y021457D03*
X-030945Y065630D03*
Y066181D03*
X-030748Y068425D03*
Y068976D03*
X-029803Y023465D03*
Y024016D03*
X-020531Y063071D03*
Y063622D03*
X-019587Y018110D03*
Y018661D03*
X-019390Y020906D03*
Y021457D03*
X-015768Y065630D03*
Y066181D03*
X-015571Y068425D03*
Y068976D03*
X-014626Y023465D03*
Y024016D03*
X-005354Y063071D03*
Y063622D03*
X-004409Y018110D03*
Y018661D03*
X-004213Y020906D03*
Y021457D03*
X-000591Y065630D03*
Y066181D03*
X-000394Y068425D03*
Y068976D03*
X000551Y023465D03*
Y024016D03*
G54D23*
X-097618Y059449D03*
Y060236D03*
X-097362Y059449D03*
Y060236D03*
X-097106Y059449D03*
Y060236D03*
X-089823Y026850D03*
Y027638D03*
X-089567Y026850D03*
Y027638D03*
X-089311Y026850D03*
Y027638D03*
X-082441Y059449D03*
Y060236D03*
X-082185Y059449D03*
Y060236D03*
X-081929Y059449D03*
Y060236D03*
X-074646Y026850D03*
Y027638D03*
X-074390Y026850D03*
Y027638D03*
X-074134Y026850D03*
Y027638D03*
X-067264Y059449D03*
Y060236D03*
X-067008Y059449D03*
Y060236D03*
X-066752Y059449D03*
Y060236D03*
X-059469Y026850D03*
Y027638D03*
X-059213Y026850D03*
Y027638D03*
X-058957Y026850D03*
Y027638D03*
X-052087Y059449D03*
Y060236D03*
X-051831Y059449D03*
Y060236D03*
X-051575Y059449D03*
Y060236D03*
X-044291Y026850D03*
Y027638D03*
X-044035Y026850D03*
Y027638D03*
X-043780Y026850D03*
Y027638D03*
X-036909Y059449D03*
Y060236D03*
X-036654Y059449D03*
Y060236D03*
X-036398Y059449D03*
Y060236D03*
X-029114Y026850D03*
Y027638D03*
X-028858Y026850D03*
Y027638D03*
X-028602Y026850D03*
Y027638D03*
X-021732Y059449D03*
Y060236D03*
X-021476Y059449D03*
Y060236D03*
X-021220Y059449D03*
Y060236D03*
X-013937Y026850D03*
Y027638D03*
X-013681Y026850D03*
Y027638D03*
X-013425Y026850D03*
Y027638D03*
X-006555Y059449D03*
Y060236D03*
X-006299Y059449D03*
Y060236D03*
X-006043Y059449D03*
Y060236D03*
X001240Y026850D03*
Y027638D03*
X001496Y026850D03*
Y027638D03*
X001752Y026850D03*
Y027638D03*
G54D24*
X-095299Y072756D03*
Y073437D03*
X-094866Y072756D03*
Y073437D03*
X-092063Y013650D03*
Y014331D03*
X-091630Y013650D03*
Y014331D03*
X-080122Y072756D03*
Y073437D03*
X-079689Y072756D03*
Y073437D03*
X-076886Y013650D03*
Y014331D03*
X-076453Y013650D03*
Y014331D03*
X-064945Y072756D03*
Y073437D03*
X-064512Y072756D03*
Y073437D03*
X-061709Y013650D03*
Y014331D03*
X-061276Y013650D03*
Y014331D03*
X-049768Y072756D03*
Y073437D03*
X-049335Y072756D03*
Y073437D03*
X-046531Y013650D03*
Y014331D03*
X-046098Y013650D03*
Y014331D03*
X-034591Y072756D03*
Y073437D03*
X-034157Y072756D03*
Y073437D03*
X-031354Y013650D03*
Y014331D03*
X-030921Y013650D03*
Y014331D03*
X-019413Y072756D03*
Y073437D03*
X-018980Y072756D03*
Y073437D03*
X-016177Y013650D03*
Y014331D03*
X-015744Y013650D03*
Y014331D03*
X-004236Y072756D03*
Y073437D03*
X-003803Y072756D03*
Y073437D03*
X-001000Y013650D03*
Y014331D03*
X-000567Y013650D03*
Y014331D03*
G54D25*
X-095299Y072996D03*
Y073197D03*
X-094866Y072996D03*
Y073197D03*
X-092063Y013890D03*
Y014091D03*
X-091630Y013890D03*
Y014091D03*
X-080122Y072996D03*
Y073197D03*
X-079689Y072996D03*
Y073197D03*
X-076886Y013890D03*
Y014091D03*
X-076453Y013890D03*
Y014091D03*
X-064945Y072996D03*
Y073197D03*
X-064512Y072996D03*
Y073197D03*
X-061709Y013890D03*
Y014091D03*
X-061276Y013890D03*
Y014091D03*
X-049768Y072996D03*
Y073197D03*
X-049335Y072996D03*
Y073197D03*
X-046531Y013890D03*
Y014091D03*
X-046098Y013890D03*
Y014091D03*
X-034591Y072996D03*
Y073197D03*
X-034157Y072996D03*
Y073197D03*
X-031354Y013890D03*
Y014091D03*
X-030921Y013890D03*
Y014091D03*
X-019413Y072996D03*
Y073197D03*
X-018980Y072996D03*
Y073197D03*
X-016177Y013890D03*
Y014091D03*
X-015744Y013890D03*
Y014091D03*
X-004236Y072996D03*
Y073197D03*
X-003803Y072996D03*
Y073197D03*
X-001000Y013890D03*
Y014091D03*
X-000567Y013890D03*
Y014091D03*
G54D26*
X-097638Y060827D03*
X-097087D03*
Y071969D03*
X-096535D03*
X-095039Y028110D03*
X-094488D03*
X-093819Y027244D03*
X-093661Y059843D03*
X-093268Y027244D03*
X-093110Y059843D03*
X-092441Y058976D03*
X-091890D03*
X-090394Y015118D03*
X-089843D03*
Y026260D03*
X-089291D03*
X-082461Y060827D03*
X-081909D03*
Y071969D03*
X-081358D03*
X-079862Y028110D03*
X-079311D03*
X-078642Y027244D03*
X-078484Y059843D03*
X-078091Y027244D03*
X-077933Y059843D03*
X-077264Y058976D03*
X-076713D03*
X-075217Y015118D03*
X-074665D03*
Y026260D03*
X-074114D03*
X-067283Y060827D03*
X-066732D03*
Y071969D03*
X-066181D03*
X-064685Y028110D03*
X-064134D03*
X-063465Y027244D03*
X-063307Y059843D03*
X-062913Y027244D03*
X-062756Y059843D03*
X-062087Y058976D03*
X-061535D03*
X-060039Y015118D03*
X-059488D03*
Y026260D03*
X-058937D03*
X-052106Y060827D03*
X-051555D03*
Y071969D03*
X-051004D03*
X-049508Y028110D03*
X-048957D03*
X-048287Y027244D03*
X-048130Y059843D03*
X-047736Y027244D03*
X-047579Y059843D03*
X-046909Y058976D03*
X-046358D03*
X-044862Y015118D03*
X-044311D03*
Y026260D03*
X-043760D03*
X-036929Y060827D03*
X-036378D03*
Y071969D03*
X-035827D03*
X-034331Y028110D03*
X-033780D03*
X-033110Y027244D03*
X-032953Y059843D03*
X-032559Y027244D03*
X-032402Y059843D03*
X-031732Y058976D03*
X-031181D03*
X-029685Y015118D03*
X-029134D03*
Y026260D03*
X-028583D03*
X-021752Y060827D03*
X-021201D03*
Y071969D03*
X-020650D03*
X-019154Y028110D03*
X-018602D03*
X-017933Y027244D03*
X-017776Y059843D03*
X-017382Y027244D03*
X-017224Y059843D03*
X-016555Y058976D03*
X-016004D03*
X-014508Y015118D03*
X-013957D03*
Y026260D03*
X-013406D03*
X-006575Y060827D03*
X-006024D03*
Y071969D03*
X-005472D03*
X-003976Y028110D03*
X-003425D03*
X-002756Y027244D03*
X-002598Y059843D03*
X-002205Y027244D03*
X-002047Y059843D03*
X-001378Y058976D03*
X-000827D03*
X000669Y015118D03*
X001220D03*
Y026260D03*
X001772D03*
G54D27*
X-095866Y064646D03*
Y065354D03*
X-091063Y021732D03*
Y022441D03*
X-080689Y064646D03*
Y065354D03*
X-075886Y021732D03*
Y022441D03*
X-065512Y064646D03*
Y065354D03*
X-060709Y021732D03*
Y022441D03*
X-050335Y064646D03*
Y065354D03*
X-045531Y021732D03*
Y022441D03*
X-035157Y064646D03*
Y065354D03*
X-030354Y021732D03*
Y022441D03*
X-019980Y064646D03*
Y065354D03*
X-015177Y021732D03*
Y022441D03*
X-004803Y064646D03*
Y065354D03*
X000000Y021732D03*
Y022441D03*
G54D70*
X-098563Y071018D03*
X-098061Y062008D03*
X-097618Y070644D03*
Y071392D03*
X-097274Y061634D03*
Y062382D03*
X-096713Y066260D03*
X-095768Y065886D03*
Y066634D03*
X-095518Y030927D03*
Y031675D03*
Y033447D03*
Y034195D03*
X-094573Y031301D03*
Y033821D03*
X-092356Y053266D03*
Y055786D03*
X-091411Y052892D03*
Y053640D03*
Y055412D03*
Y056160D03*
X-091161Y020453D03*
Y021201D03*
X-090217Y020827D03*
X-089656Y024705D03*
Y025453D03*
X-089311Y015694D03*
Y016442D03*
X-088868Y025079D03*
X-088366Y016068D03*
X-083386Y071018D03*
X-082884Y062008D03*
X-082441Y070644D03*
Y071392D03*
X-082096Y061634D03*
Y062382D03*
X-081535Y066260D03*
X-080591Y065886D03*
Y066634D03*
X-080341Y030927D03*
Y031675D03*
Y033447D03*
Y034195D03*
X-079396Y031301D03*
Y033821D03*
X-077179Y053266D03*
Y055786D03*
X-076234Y052892D03*
Y053640D03*
Y055412D03*
Y056160D03*
X-075984Y020453D03*
Y021201D03*
X-075039Y020827D03*
X-074478Y024705D03*
Y025453D03*
X-074134Y015694D03*
Y016442D03*
X-073691Y025079D03*
X-073189Y016068D03*
X-068209Y071018D03*
X-067707Y062008D03*
X-067264Y070644D03*
Y071392D03*
X-066919Y061634D03*
Y062382D03*
X-066358Y066260D03*
X-065413Y065886D03*
Y066634D03*
X-065164Y030927D03*
Y031675D03*
Y033447D03*
Y034195D03*
X-064219Y031301D03*
Y033821D03*
X-062002Y053266D03*
Y055786D03*
X-061057Y052892D03*
Y053640D03*
Y055412D03*
Y056160D03*
X-060807Y020453D03*
Y021201D03*
X-059862Y020827D03*
X-059301Y024705D03*
Y025453D03*
X-058957Y015694D03*
Y016442D03*
X-058514Y025079D03*
X-058012Y016068D03*
X-053031Y071018D03*
X-052530Y062008D03*
X-052087Y070644D03*
Y071392D03*
X-051742Y061634D03*
Y062382D03*
X-051181Y066260D03*
X-050236Y065886D03*
Y066634D03*
X-049987Y030927D03*
Y031675D03*
Y033447D03*
Y034195D03*
X-049042Y031301D03*
Y033821D03*
X-046824Y053266D03*
Y055786D03*
X-045880Y052892D03*
Y053640D03*
Y055412D03*
Y056160D03*
X-045630Y020453D03*
Y021201D03*
X-044685Y020827D03*
X-044124Y024705D03*
Y025453D03*
X-043780Y015694D03*
Y016442D03*
X-043337Y025079D03*
X-042835Y016068D03*
X-037854Y071018D03*
X-037352Y062008D03*
X-036909Y070644D03*
Y071392D03*
X-036565Y061634D03*
Y062382D03*
X-036004Y066260D03*
X-035059Y065886D03*
Y066634D03*
X-034809Y030927D03*
Y031675D03*
Y033447D03*
Y034195D03*
X-033864Y031301D03*
Y033821D03*
X-031647Y053266D03*
Y055786D03*
X-030702Y052892D03*
Y053640D03*
Y055412D03*
Y056160D03*
X-030453Y020453D03*
Y021201D03*
X-029508Y020827D03*
X-028947Y024705D03*
Y025453D03*
X-028602Y015694D03*
Y016442D03*
X-028159Y025079D03*
X-027657Y016068D03*
X-022677Y071018D03*
X-022175Y062008D03*
X-021732Y070644D03*
Y071392D03*
X-021388Y061634D03*
Y062382D03*
X-020827Y066260D03*
X-019882Y065886D03*
Y066634D03*
X-019632Y030927D03*
Y031675D03*
Y033447D03*
Y034195D03*
X-018687Y031301D03*
Y033821D03*
X-016470Y053266D03*
Y055786D03*
X-015525Y052892D03*
Y053640D03*
Y055412D03*
Y056160D03*
X-015276Y020453D03*
Y021201D03*
X-014331Y020827D03*
X-013770Y024705D03*
Y025453D03*
X-013425Y015694D03*
Y016442D03*
X-012982Y025079D03*
X-012480Y016068D03*
X-007500Y071018D03*
X-006998Y062008D03*
X-006555Y070644D03*
Y071392D03*
X-006211Y061634D03*
Y062382D03*
X-005650Y066260D03*
X-004705Y065886D03*
Y066634D03*
X-004455Y030927D03*
Y031675D03*
Y033447D03*
Y034195D03*
X-003510Y031301D03*
Y033821D03*
X-001293Y053266D03*
Y055786D03*
X-000348Y052892D03*
Y053640D03*
Y055412D03*
Y056160D03*
X-000098Y020453D03*
Y021201D03*
X000846Y020827D03*
X001407Y024705D03*
Y025453D03*
X001752Y015694D03*
Y016442D03*
X002195Y025079D03*
X002697Y016068D03*
G54D71*
X-098565Y018748D03*
Y019181D03*
X-097884Y018748D03*
Y019181D03*
X-095124Y070602D03*
Y071035D03*
X-094517Y057018D03*
Y057451D03*
X-094494Y016252D03*
Y016685D03*
X-094443Y070602D03*
Y071035D03*
X-093836Y057018D03*
Y057451D03*
X-093813Y016252D03*
Y016685D03*
X-093116Y070402D03*
Y070835D03*
X-093093Y029636D03*
Y030069D03*
X-092486Y016052D03*
Y016485D03*
X-092435Y070402D03*
Y070835D03*
X-092412Y029636D03*
Y030069D03*
X-091805Y016052D03*
Y016485D03*
X-089045Y067906D03*
Y068339D03*
X-088364Y067906D03*
Y068339D03*
X-083388Y018748D03*
Y019181D03*
X-082707Y018748D03*
Y019181D03*
X-079947Y070602D03*
Y071035D03*
X-079340Y057018D03*
Y057451D03*
X-079317Y016252D03*
Y016685D03*
X-079266Y070602D03*
Y071035D03*
X-078659Y057018D03*
Y057451D03*
X-078636Y016252D03*
Y016685D03*
X-077939Y070402D03*
Y070835D03*
X-077916Y029636D03*
Y030069D03*
X-077309Y016052D03*
Y016485D03*
X-077258Y070402D03*
Y070835D03*
X-077235Y029636D03*
Y030069D03*
X-076628Y016052D03*
Y016485D03*
X-073868Y067906D03*
Y068339D03*
X-073187Y067906D03*
Y068339D03*
X-068211Y018748D03*
Y019181D03*
X-067530Y018748D03*
Y019181D03*
X-064770Y070602D03*
Y071035D03*
X-064163Y057018D03*
Y057451D03*
X-064140Y016252D03*
Y016685D03*
X-064089Y070602D03*
Y071035D03*
X-063482Y057018D03*
Y057451D03*
X-063459Y016252D03*
Y016685D03*
X-062762Y070402D03*
Y070835D03*
X-062739Y029636D03*
Y030069D03*
X-062132Y016052D03*
Y016485D03*
X-062081Y070402D03*
Y070835D03*
X-062058Y029636D03*
Y030069D03*
X-061451Y016052D03*
Y016485D03*
X-058691Y067906D03*
Y068339D03*
X-058010Y067906D03*
Y068339D03*
X-053033Y018748D03*
Y019181D03*
X-052352Y018748D03*
Y019181D03*
X-049593Y070602D03*
Y071035D03*
X-048985Y057018D03*
Y057451D03*
X-048963Y016252D03*
Y016685D03*
X-048911Y070602D03*
Y071035D03*
X-048304Y057018D03*
Y057451D03*
X-048281Y016252D03*
Y016685D03*
X-047585Y070402D03*
Y070835D03*
X-047562Y029636D03*
Y030069D03*
X-046955Y016052D03*
Y016485D03*
X-046904Y070402D03*
Y070835D03*
X-046881Y029636D03*
Y030069D03*
X-046274Y016052D03*
Y016485D03*
X-043514Y067906D03*
Y068339D03*
X-042833Y067906D03*
Y068339D03*
X-037856Y018748D03*
Y019181D03*
X-037175Y018748D03*
Y019181D03*
X-034415Y070602D03*
Y071035D03*
X-033808Y057018D03*
Y057451D03*
X-033785Y016252D03*
Y016685D03*
X-033734Y070602D03*
Y071035D03*
X-033127Y057018D03*
Y057451D03*
X-033104Y016252D03*
Y016685D03*
X-032407Y070402D03*
Y070835D03*
X-032385Y029636D03*
Y030069D03*
X-031778Y016052D03*
Y016485D03*
X-031726Y070402D03*
Y070835D03*
X-031703Y029636D03*
Y030069D03*
X-031096Y016052D03*
Y016485D03*
X-028337Y067906D03*
Y068339D03*
X-027656Y067906D03*
Y068339D03*
X-022679Y018748D03*
Y019181D03*
X-021998Y018748D03*
Y019181D03*
X-019238Y070602D03*
Y071035D03*
X-018631Y057018D03*
Y057451D03*
X-018608Y016252D03*
Y016685D03*
X-018557Y070602D03*
Y071035D03*
X-017950Y057018D03*
Y057451D03*
X-017927Y016252D03*
Y016685D03*
X-017230Y070402D03*
Y070835D03*
X-017207Y029636D03*
Y030069D03*
X-016600Y016052D03*
Y016485D03*
X-016549Y070402D03*
Y070835D03*
X-016526Y029636D03*
Y030069D03*
X-015919Y016052D03*
Y016485D03*
X-013159Y067906D03*
Y068339D03*
X-012478Y067906D03*
Y068339D03*
X-007502Y018748D03*
Y019181D03*
X-006821Y018748D03*
Y019181D03*
X-004061Y070602D03*
Y071035D03*
X-003454Y057018D03*
Y057451D03*
X-003431Y016252D03*
Y016685D03*
X-003380Y070602D03*
Y071035D03*
X-002773Y057018D03*
Y057451D03*
X-002750Y016252D03*
Y016685D03*
X-002053Y070402D03*
Y070835D03*
X-002030Y029636D03*
Y030069D03*
X-001423Y016052D03*
Y016485D03*
X-001372Y070402D03*
Y070835D03*
X-001349Y029636D03*
Y030069D03*
X-000742Y016052D03*
Y016485D03*
X002018Y067906D03*
Y068339D03*
X002699Y067906D03*
Y068339D03*
M02*
