*
G04 Job   : N:\Projects\kaufma01\BR167\12011229\PANEL_12011230\12011230.pnl*
G04 User  : DEDOCAE038:kaufma01*
G04 Layer : SolderPasteTop.gbr*
G04 Date  : Tue Feb 28 13:54:34 2017*
G04 Expedition Layer: Solder Paste - Top*
%ICAS*%
%MOIN*%
%FSDAX24Y24*%
%OFA0.0000B0.0000*%
G90*
G74*
%AMVB_RECTANGLE*
21,1,$1,$2,0,0,$3*
%
%ADD11C,0.00787*%
%ADD10C,0.03937*%
%ADD72VB_RECTANGLE,0.03150X0.03150X90.00000*%
%ADD19VB_RECTANGLE,0.03150X0.01575X270.00000*%
%ADD24VB_RECTANGLE,0.03150X0.01969X0.00000*%
%ADD73VB_RECTANGLE,0.03543X0.01575X270.00000*%
%ADD12VB_RECTANGLE,0.03937X0.02756X180.00000*%
%ADD20VB_RECTANGLE,0.03937X0.02756X90.00000*%
%ADD26VB_RECTANGLE,0.04331X0.01772X90.00000*%
%ADD27VB_RECTANGLE,0.04331X0.03150X90.00000*%
%ADD28VB_RECTANGLE,0.04724X0.03150X180.00000*%
%ADD23VB_RECTANGLE,0.04724X0.03150X270.00000*%
%ADD30VB_RECTANGLE,0.04724X0.03937X0.00000*%
%ADD16VB_RECTANGLE,0.05118X0.01181X0.00000*%
%ADD15VB_RECTANGLE,0.05118X0.01181X90.00000*%
%ADD18VB_RECTANGLE,0.05118X0.03150X180.00000*%
%ADD17VB_RECTANGLE,0.05118X0.03150X90.00000*%
%ADD13VB_RECTANGLE,0.05906X0.03150X270.00000*%
%ADD31VB_RECTANGLE,0.05906X0.15748X270.00000*%
%ADD25VB_RECTANGLE,0.06299X0.02362X90.00000*%
%ADD14VB_RECTANGLE,0.09055X0.06299X90.00000*%
%ADD70VB_RECTANGLE,0.09843X0.05118X0.00000*%
%ADD32VB_RECTANGLE,0.10630X0.06299X180.00000*%
%ADD33VB_RECTANGLE,0.10630X0.06299X90.00000*%
%ADD34VB_RECTANGLE,0.11417X0.06299X90.00000*%
%ADD21VB_RECTANGLE,0.11811X0.06299X270.00000*%
%ADD29VB_RECTANGLE,0.13386X0.06890X270.00000*%
%ADD22VB_RECTANGLE,0.21654X0.03937X270.00000*%
%ADD71VB_RECTANGLE,0.31102X0.07087X270.00000*%
G01*
G36*
X-096772Y-000283D02*
Y-000039D01*
X-097015*
G02X-097018Y000000I000283J000039*
X-096732Y000285I000286*
X-096693Y000283J000285*
G01Y000039*
X-096450*
G02X-096447Y000000I000282J000039*
X-096732Y-000285I000285*
X-096772Y-000283J000285*
G01Y000283D02*
Y000039D01*
X-097015*
G03X-097018Y000000I000283J000039*
X-096732Y-000285I000286*
X-096693Y-000283J000285*
G01Y-000039*
X-096450*
G03X-096447Y000000I000282J000039*
X-096732Y000285I000285*
X-096772Y000283J000285*
G01D02*
Y000039D01*
X-097015*
G03X-097018Y000000I000283J000039*
X-096732Y-000285I000286*
X-096693Y-000283J000285*
G01Y-000039*
X-096450*
G03X-096447Y000000I000282J000039*
X-096732Y000285I000285*
X-096772Y000283J000285*
G01Y078379D02*
Y078622D01*
X-097015*
G02X-097018Y078661I000283J000039*
X-096732Y078947I000286*
X-096693Y078944J000286*
G01Y078701*
X-096450*
G02X-096447Y078661I000282J000040*
X-096732Y078376I000285*
X-096772Y078379J000285*
G01Y078944D02*
Y078701D01*
X-097015*
G03X-097018Y078661I000283J000040*
X-096732Y078376I000286*
X-096693Y078379J000285*
G01Y078622*
X-096450*
G03X-096447Y078661I000282J000039*
X-096732Y078947I000285*
X-096772Y078944J000286*
G01X-086713Y078583D02*
X-086437D01*
Y079134*
X-086713*
Y078583*
X-085886D02*
X-085610D01*
Y079134*
X-085886*
Y078583*
X-085217D02*
X-084941D01*
Y079134*
X-085217*
Y078583*
X-084626D02*
X-084350D01*
Y079134*
X-084626*
Y078583*
X-084114D02*
X-083839D01*
Y079134*
X-084114*
Y078583*
X-083642D02*
X-083366D01*
Y079134*
X-083642*
Y078583*
X-006929Y-000433D02*
X-006654D01*
Y000118*
X-006929*
Y-000433*
X-006457D02*
X-006181D01*
Y000118*
X-006457*
Y-000433*
X-005945D02*
X-005669D01*
Y000118*
X-005945*
Y-000433*
X-005354D02*
X-005079D01*
Y000118*
X-005354*
Y-000433*
X-004685D02*
X-004409D01*
Y000118*
X-004685*
Y-000433*
X-003858D02*
X-003583D01*
Y000118*
X-003858*
Y-000433*
X007244Y078379D02*
Y078622D01*
X007001*
G02X006998Y078661I000282J000039*
X007283Y078947I000285*
X007323Y078944J000286*
G01Y078701*
X007566*
G02X007569Y078661I000283J000040*
X007283Y078376I000286*
X007244Y078379J000285*
G01Y078944D02*
Y078701D01*
X007001*
G03X006998Y078661I000282J000040*
X007283Y078376I000285*
X007323Y078379J000285*
G01Y078622*
X007566*
G03X007569Y078661I000283J000039*
X007283Y078947I000286*
X007244Y078944J000286*
G37*
G54D10*
G01X-038819Y-002008D02*
X-097433D01*
G02X-097588Y-001987J000591*
G01X-099012Y-001602*
G02X-099449Y-001031I000154J000571*
G01Y079701*
G02X-099008Y080272I000591*
G01X-097587Y080650*
G02X-097433Y080669I000154J000571*
G01X007992*
G02X008142Y080650J000590*
G01X009563Y080276*
G02X010000Y079705I000154J000571*
G01Y-001031*
G02X009563Y-001602I000591*
G01X008151Y-001987*
G02X007995Y-002008I000156J000570*
G01X-038819*
G54D11*
X-048226Y-001575D02*
Y-000591D01*
X-047944*
X-047850Y-000650*
X-047819Y-000695*
X-047787Y-000784*
Y-000919*
X-047819Y-001023*
X-047850Y-001068*
X-047944Y-001113*
X-048226*
X-047098Y-001068D02*
X-047172Y-000978D01*
X-047245Y-000934*
X-047359*
X-047433Y-000978*
X-047506Y-001068*
X-047537Y-001202*
Y-001306*
X-047506Y-001441*
X-047433Y-001530*
X-047359Y-001575*
X-047245*
X-047172Y-001530*
X-047098Y-001441*
Y-000934D02*
Y-001575D01*
X-046410Y-001068D02*
X-046451Y-000978D01*
X-046566Y-000934*
X-046691*
X-046817Y-000978*
X-046848Y-001068*
X-046817Y-001157*
X-046733Y-001202*
X-046535Y-001247*
X-046451Y-001306*
X-046410Y-001396*
Y-001441*
X-046451Y-001530*
X-046566Y-001575*
X-046691*
X-046817Y-001530*
X-046848Y-001441*
X-046159Y-000934D02*
X-045773D01*
X-046002Y-000605D02*
Y-001396D01*
X-045940Y-001530*
X-045825Y-001575*
X-045721*
X-045470Y-001202D02*
X-045032D01*
Y-001113*
X-045063Y-001023*
X-045105Y-000978*
X-045178Y-000934*
X-045293*
X-045366Y-000978*
X-045439Y-001068*
X-045470Y-001202*
Y-001306*
X-045439Y-001441*
X-045366Y-001530*
X-045293Y-001575*
X-045178*
X-045105Y-001530*
X-045032Y-001441*
X-044092Y-001575D02*
Y-000591D01*
X-043873Y-001575*
X-043654Y-000591*
Y-001575*
X-042965Y-001068D02*
X-043038Y-000978D01*
X-043111Y-000934*
X-043226*
X-043299Y-000978*
X-043372Y-001068*
X-043403Y-001202*
Y-001306*
X-043372Y-001441*
X-043299Y-001530*
X-043226Y-001575*
X-043111*
X-043038Y-001530*
X-042965Y-001441*
Y-000934D02*
Y-001575D01*
X-042276Y-001068D02*
X-042318Y-000978D01*
X-042432Y-000934*
X-042558*
X-042683Y-000978*
X-042714Y-001068*
X-042683Y-001157*
X-042599Y-001202*
X-042401Y-001247*
X-042318Y-001306*
X-042276Y-001396*
Y-001441*
X-042318Y-001530*
X-042432Y-001575*
X-042558*
X-042683Y-001530*
X-042714Y-001441*
X-042025Y-000605D02*
Y-001575D01*
X-041869Y-001202D02*
X-041587Y-001575D01*
X-041629Y-000934D02*
X-042025Y-001396D01*
X-040647Y-000591D02*
X-040209D01*
X-040428D02*
Y-001575D01*
X-039791Y-000934D02*
X-039864Y-000978D01*
X-039927Y-001068*
X-039958Y-001202*
Y-001306*
X-039927Y-001441*
X-039864Y-001530*
X-039791Y-001575*
X-039687*
X-039624Y-001530*
X-039551Y-001441*
X-039520Y-001306*
Y-001202*
X-039551Y-001068*
X-039624Y-000978*
X-039687Y-000934*
X-039791*
X-039269Y-001068D02*
X-039207Y-000978D01*
X-039123Y-000934*
X-039019*
X-038946Y-000978*
X-038862Y-001068*
X-038831Y-001202*
Y-001306*
X-038862Y-001441*
X-038946Y-001530*
X-039019Y-001575*
X-039123*
X-039207Y-001530*
X-039269Y-001441*
Y-000934D02*
Y-001903D01*
X-032179Y-001068D02*
X-031897D01*
X-031803Y-001113*
X-031772Y-001157*
X-031741Y-001247*
Y-001396*
X-031772Y-001485*
X-031803Y-001530*
X-031897Y-001575*
X-032179*
Y-000591*
X-031897*
X-031803Y-000650*
X-031772Y-000695*
X-031741Y-000784*
Y-000874*
X-031772Y-000963*
X-031803Y-001023*
X-031897Y-001068*
X-031490Y-001575D02*
Y-000591D01*
X-031208*
X-031114Y-000650*
X-031083Y-000695*
X-031052Y-000784*
Y-000874*
X-031083Y-000963*
X-031114Y-001023*
X-031208Y-001068*
X-031490*
X-031271D02*
X-031052Y-001575D01*
X-030801Y-000591D02*
X-030582D01*
X-030488Y-000650*
X-030425Y-000740*
X-030394Y-000829*
X-030363Y-000963*
Y-001202*
X-030394Y-001336*
X-030425Y-001441*
X-030488Y-001530*
X-030582Y-001575*
X-030801*
Y-000591*
X-029256Y-000784D02*
X-029215Y-000740D01*
X-029162Y-000605*
Y-001575*
X-028703Y-000829D02*
Y-000784D01*
X-028672Y-000695*
X-028640Y-000650*
X-028578Y-000591*
X-028453*
X-028390Y-000650*
X-028359Y-000695*
X-028327Y-000784*
Y-000874*
X-028359Y-000963*
X-028421Y-001113*
X-028734Y-001575*
X-028296*
X-027857Y-000605D02*
X-027951Y-000650D01*
X-028014Y-000784*
X-028045Y-001023*
Y-001157*
X-028014Y-001396*
X-027951Y-001530*
X-027857Y-001575*
X-027795*
X-027701Y-001530*
X-027638Y-001396*
X-027607Y-001157*
Y-001023*
X-027638Y-000784*
X-027701Y-000650*
X-027795Y-000605*
X-027857*
X-027189Y-000784D02*
X-027148Y-000740D01*
X-027095Y-000605*
Y-001575*
X-026500Y-000784D02*
X-026459Y-000740D01*
X-026406Y-000605*
Y-001575*
X-025947Y-000829D02*
Y-000784D01*
X-025916Y-000695*
X-025885Y-000650*
X-025822Y-000591*
X-025697*
X-025634Y-000650*
X-025603Y-000695*
X-025571Y-000784*
Y-000874*
X-025603Y-000963*
X-025665Y-001113*
X-025979Y-001575*
X-025540*
X-025258Y-000829D02*
Y-000784D01*
X-025227Y-000695*
X-025196Y-000650*
X-025133Y-000591*
X-025008*
X-024945Y-000650*
X-024914Y-000695*
X-024882Y-000784*
Y-000874*
X-024914Y-000963*
X-024976Y-001113*
X-025290Y-001575*
X-024851*
X-024162Y-000919D02*
X-024193Y-001068D01*
X-024256Y-001157*
X-024371Y-001202*
X-024402*
X-024507Y-001157*
X-024569Y-001068*
X-024601Y-000919*
Y-000874*
X-024569Y-000740*
X-024507Y-000650*
X-024402Y-000605*
X-024371*
X-024256Y-000650*
X-024193Y-000740*
X-024162Y-000919*
Y-001157*
X-024193Y-001396*
X-024256Y-001530*
X-024371Y-001575*
X-024434*
X-024538Y-001530*
X-024569Y-001441*
X-023035Y-000605D02*
X-023129Y-000650D01*
X-023191Y-000784*
X-023223Y-001023*
Y-001157*
X-023191Y-001396*
X-023129Y-001530*
X-023035Y-001575*
X-022972*
X-022878Y-001530*
X-022816Y-001396*
X-022784Y-001157*
Y-001023*
X-022816Y-000784*
X-022878Y-000650*
X-022972Y-000605*
X-023035*
X-022346D02*
X-022440Y-000650D01*
X-022502Y-000784*
X-022534Y-001023*
Y-001157*
X-022502Y-001396*
X-022440Y-001530*
X-022346Y-001575*
X-022283*
X-022189Y-001530*
X-022127Y-001396*
X-022095Y-001157*
Y-001023*
X-022127Y-000784*
X-022189Y-000650*
X-022283Y-000605*
X-022346*
X-021156Y-001575D02*
Y-000591D01*
X-020874*
X-020780Y-000650*
X-020749Y-000695*
X-020717Y-000784*
Y-000919*
X-020749Y-001023*
X-020780Y-001068*
X-020874Y-001113*
X-021156*
X-020467Y-001575D02*
Y-000591D01*
X-020028Y-001575*
Y-000591*
X-019778D02*
Y-001575D01*
X-019339*
X-018233Y-000784D02*
X-018191Y-000740D01*
X-018139Y-000605*
Y-001575*
X-017680Y-000829D02*
Y-000784D01*
X-017648Y-000695*
X-017617Y-000650*
X-017554Y-000591*
X-017429*
X-017366Y-000650*
X-017335Y-000695*
X-017304Y-000784*
Y-000874*
X-017335Y-000963*
X-017398Y-001113*
X-017711Y-001575*
X-017273*
X-016834Y-000605D02*
X-016928Y-000650D01*
X-016991Y-000784*
X-017022Y-001023*
Y-001157*
X-016991Y-001396*
X-016928Y-001530*
X-016834Y-001575*
X-016771*
X-016678Y-001530*
X-016615Y-001396*
X-016584Y-001157*
Y-001023*
X-016615Y-000784*
X-016678Y-000650*
X-016771Y-000605*
X-016834*
X-016166Y-000784D02*
X-016124Y-000740D01*
X-016072Y-000605*
Y-001575*
X-015477Y-000784D02*
X-015435Y-000740D01*
X-015383Y-000605*
Y-001575*
X-014924Y-000829D02*
Y-000784D01*
X-014892Y-000695*
X-014861Y-000650*
X-014799Y-000591*
X-014673*
X-014611Y-000650*
X-014579Y-000695*
X-014548Y-000784*
Y-000874*
X-014579Y-000963*
X-014642Y-001113*
X-014955Y-001575*
X-014517*
X-014204Y-000605D02*
X-013859D01*
X-014047Y-000978*
X-013953*
X-013890Y-001023*
X-013859Y-001068*
X-013828Y-001202*
Y-001306*
X-013859Y-001441*
X-013922Y-001530*
X-014016Y-001575*
X-014110*
X-014204Y-001530*
X-014235Y-001485*
X-014266Y-001396*
X-013389Y-000605D02*
X-013483Y-000650D01*
X-013546Y-000784*
X-013577Y-001023*
Y-001157*
X-013546Y-001396*
X-013483Y-001530*
X-013389Y-001575*
X-013327*
X-013233Y-001530*
X-013170Y-001396*
X-013139Y-001157*
Y-001023*
X-013170Y-000784*
X-013233Y-000650*
X-013327Y-000605*
X-013389*
X-012011D02*
X-012105Y-000650D01*
X-012168Y-000784*
X-012199Y-001023*
Y-001157*
X-012168Y-001396*
X-012105Y-001530*
X-012011Y-001575*
X-011949*
X-011855Y-001530*
X-011792Y-001396*
X-011761Y-001157*
Y-001023*
X-011792Y-000784*
X-011855Y-000650*
X-011949Y-000605*
X-012011*
X-011322D02*
X-011416Y-000650D01*
X-011479Y-000784*
X-011510Y-001023*
Y-001157*
X-011479Y-001396*
X-011416Y-001530*
X-011322Y-001575*
X-011260*
X-011166Y-001530*
X-011103Y-001396*
X-011072Y-001157*
Y-001023*
X-011103Y-000784*
X-011166Y-000650*
X-011260Y-000605*
X-011322*
X-000591Y000000D02*
X000591D01*
X000000Y000591D02*
Y-000591D01*
G54D12*
X-090551Y011772D03*
Y012323D03*
Y051142D03*
Y051693D03*
X-088031Y031142D03*
Y031693D03*
Y070512D03*
Y071063D03*
X-086260Y032913D03*
Y033465D03*
Y072283D03*
Y072835D03*
X-085000Y033465D03*
Y034016D03*
Y072835D03*
Y073386D03*
X-083701Y022520D03*
Y023071D03*
Y061890D03*
Y062441D03*
X-083110Y022520D03*
Y023071D03*
Y061890D03*
Y062441D03*
X-082244Y026378D03*
Y026929D03*
Y065748D03*
Y066299D03*
X-081575Y028858D03*
Y029409D03*
Y068228D03*
Y068780D03*
X-081496Y033701D03*
Y034252D03*
Y073071D03*
Y073622D03*
X-081457Y026378D03*
Y026929D03*
Y065748D03*
Y066299D03*
X-080906Y033701D03*
Y034252D03*
Y073071D03*
Y073622D03*
X-080709Y028189D03*
Y028740D03*
Y067559D03*
Y068110D03*
X-079961Y031142D03*
Y031693D03*
Y070512D03*
Y071063D03*
X-079409Y026575D03*
Y027126D03*
Y065945D03*
Y066496D03*
X-079173Y031142D03*
Y031693D03*
Y070512D03*
Y071063D03*
X-078386Y031142D03*
Y031693D03*
Y070512D03*
Y071063D03*
X-077323Y021535D03*
Y022087D03*
Y060906D03*
Y061457D03*
X-076732Y021535D03*
Y022087D03*
Y060906D03*
Y061457D03*
X-071063Y011772D03*
Y012323D03*
Y051142D03*
Y051693D03*
X-068543Y031142D03*
Y031693D03*
Y070512D03*
Y071063D03*
X-066772Y032913D03*
Y033465D03*
Y072283D03*
Y072835D03*
X-065512Y033465D03*
Y034016D03*
Y072835D03*
Y073386D03*
X-064213Y022520D03*
Y023071D03*
Y061890D03*
Y062441D03*
X-063622Y022520D03*
Y023071D03*
Y061890D03*
Y062441D03*
X-062756Y026378D03*
Y026929D03*
Y065748D03*
Y066299D03*
X-062087Y028858D03*
Y029409D03*
Y068228D03*
Y068780D03*
X-062008Y033701D03*
Y034252D03*
Y073071D03*
Y073622D03*
X-061969Y026378D03*
Y026929D03*
Y065748D03*
Y066299D03*
X-061417Y033701D03*
Y034252D03*
Y073071D03*
Y073622D03*
X-061220Y028189D03*
Y028740D03*
Y067559D03*
Y068110D03*
X-060472Y031142D03*
Y031693D03*
Y070512D03*
Y071063D03*
X-059921Y026575D03*
Y027126D03*
Y065945D03*
Y066496D03*
X-059685Y031142D03*
Y031693D03*
Y070512D03*
Y071063D03*
X-058898Y031142D03*
Y031693D03*
Y070512D03*
Y071063D03*
X-057835Y021535D03*
Y022087D03*
Y060906D03*
Y061457D03*
X-057244Y021535D03*
Y022087D03*
Y060906D03*
Y061457D03*
X-051575Y011772D03*
Y012323D03*
Y051142D03*
Y051693D03*
X-049055Y031142D03*
Y031693D03*
Y070512D03*
Y071063D03*
X-047283Y032913D03*
Y033465D03*
Y072283D03*
Y072835D03*
X-046024Y033465D03*
Y034016D03*
Y072835D03*
Y073386D03*
X-044724Y022520D03*
Y023071D03*
Y061890D03*
Y062441D03*
X-044134Y022520D03*
Y023071D03*
Y061890D03*
Y062441D03*
X-043268Y026378D03*
Y026929D03*
Y065748D03*
Y066299D03*
X-042598Y028858D03*
Y029409D03*
Y068228D03*
Y068780D03*
X-042520Y033701D03*
Y034252D03*
Y073071D03*
Y073622D03*
X-042480Y026378D03*
Y026929D03*
Y065748D03*
Y066299D03*
X-041929Y033701D03*
Y034252D03*
Y073071D03*
Y073622D03*
X-041732Y028189D03*
Y028740D03*
Y067559D03*
Y068110D03*
X-040984Y031142D03*
Y031693D03*
Y070512D03*
Y071063D03*
X-040433Y026575D03*
Y027126D03*
Y065945D03*
Y066496D03*
X-040197Y031142D03*
Y031693D03*
Y070512D03*
Y071063D03*
X-039409Y031142D03*
Y031693D03*
Y070512D03*
Y071063D03*
X-038346Y021535D03*
Y022087D03*
Y060906D03*
Y061457D03*
X-037756Y021535D03*
Y022087D03*
Y060906D03*
Y061457D03*
X-032087Y011772D03*
Y012323D03*
Y051142D03*
Y051693D03*
X-029567Y031142D03*
Y031693D03*
Y070512D03*
Y071063D03*
X-027795Y032913D03*
Y033465D03*
Y072283D03*
Y072835D03*
X-026535Y033465D03*
Y034016D03*
Y072835D03*
Y073386D03*
X-025236Y022520D03*
Y023071D03*
Y061890D03*
Y062441D03*
X-024646Y022520D03*
Y023071D03*
Y061890D03*
Y062441D03*
X-023780Y026378D03*
Y026929D03*
Y065748D03*
Y066299D03*
X-023110Y028858D03*
Y029409D03*
Y068228D03*
Y068780D03*
X-023031Y033701D03*
Y034252D03*
Y073071D03*
Y073622D03*
X-022992Y026378D03*
Y026929D03*
Y065748D03*
Y066299D03*
X-022441Y033701D03*
Y034252D03*
Y073071D03*
Y073622D03*
X-022244Y028189D03*
Y028740D03*
Y067559D03*
Y068110D03*
X-021496Y031142D03*
Y031693D03*
Y070512D03*
Y071063D03*
X-020945Y026575D03*
Y027126D03*
Y065945D03*
Y066496D03*
X-020709Y031142D03*
Y031693D03*
Y070512D03*
Y071063D03*
X-019921Y031142D03*
Y031693D03*
Y070512D03*
Y071063D03*
X-018858Y021535D03*
Y022087D03*
Y060906D03*
Y061457D03*
X-018268Y021535D03*
Y022087D03*
Y060906D03*
Y061457D03*
X-012598Y011772D03*
Y012323D03*
Y051142D03*
Y051693D03*
X-010079Y031142D03*
Y031693D03*
Y070512D03*
Y071063D03*
X-008307Y032913D03*
Y033465D03*
Y072283D03*
Y072835D03*
X-007047Y033465D03*
Y034016D03*
Y072835D03*
Y073386D03*
X-005748Y022520D03*
Y023071D03*
Y061890D03*
Y062441D03*
X-005157Y022520D03*
Y023071D03*
Y061890D03*
Y062441D03*
X-004291Y026378D03*
Y026929D03*
Y065748D03*
Y066299D03*
X-003622Y028858D03*
Y029409D03*
Y068228D03*
Y068780D03*
X-003543Y033701D03*
Y034252D03*
Y073071D03*
Y073622D03*
X-003504Y026378D03*
Y026929D03*
Y065748D03*
Y066299D03*
X-002953Y033701D03*
Y034252D03*
Y073071D03*
Y073622D03*
X-002756Y028189D03*
Y028740D03*
Y067559D03*
Y068110D03*
X-002008Y031142D03*
Y031693D03*
Y070512D03*
Y071063D03*
X-001457Y026575D03*
Y027126D03*
Y065945D03*
Y066496D03*
X-001220Y031142D03*
Y031693D03*
Y070512D03*
Y071063D03*
X-000433Y031142D03*
Y031693D03*
Y070512D03*
Y071063D03*
X000630Y021535D03*
Y022087D03*
Y060906D03*
Y061457D03*
X001220Y021535D03*
Y022087D03*
Y060906D03*
Y061457D03*
G54D13*
X-075906Y021575D03*
Y060945D03*
X-074724Y021575D03*
Y060945D03*
X-056417Y021575D03*
Y060945D03*
X-055236Y021575D03*
Y060945D03*
X-036929Y021575D03*
Y060945D03*
X-035748Y021575D03*
Y060945D03*
X-017441Y021575D03*
Y060945D03*
X-016260Y021575D03*
Y060945D03*
X002047Y021575D03*
Y060945D03*
X003228Y021575D03*
Y060945D03*
G54D14*
X-081841Y015197D03*
Y054567D03*
X-080128Y015197D03*
Y054567D03*
X-062352Y015197D03*
Y054567D03*
X-060640Y015197D03*
Y054567D03*
X-042864Y015197D03*
Y054567D03*
X-041152Y015197D03*
Y054567D03*
X-023376Y015197D03*
Y054567D03*
X-021663Y015197D03*
Y054567D03*
X-003888Y015197D03*
Y054567D03*
X-002175Y015197D03*
Y054567D03*
G54D15*
X-084311Y029783D03*
Y033209D03*
Y069154D03*
Y072579D03*
X-084114Y029783D03*
Y033209D03*
Y069154D03*
Y072579D03*
X-083917Y029783D03*
Y033209D03*
Y069154D03*
Y072579D03*
X-083720Y029783D03*
Y033209D03*
Y069154D03*
Y072579D03*
X-083524Y029783D03*
Y033209D03*
Y069154D03*
Y072579D03*
X-083327Y029783D03*
Y033209D03*
Y069154D03*
Y072579D03*
X-083130Y029783D03*
Y033209D03*
Y069154D03*
Y072579D03*
X-082933Y029783D03*
Y033209D03*
Y069154D03*
Y072579D03*
X-082736Y029783D03*
Y033209D03*
Y069154D03*
Y072579D03*
X-082539Y029783D03*
Y033209D03*
Y069154D03*
Y072579D03*
X-082343Y029783D03*
Y033209D03*
Y069154D03*
Y072579D03*
X-082146Y029783D03*
Y033209D03*
Y069154D03*
Y072579D03*
X-064823Y029783D03*
Y033209D03*
Y069154D03*
Y072579D03*
X-064626Y029783D03*
Y033209D03*
Y069154D03*
Y072579D03*
X-064429Y029783D03*
Y033209D03*
Y069154D03*
Y072579D03*
X-064232Y029783D03*
Y033209D03*
Y069154D03*
Y072579D03*
X-064035Y029783D03*
Y033209D03*
Y069154D03*
Y072579D03*
X-063839Y029783D03*
Y033209D03*
Y069154D03*
Y072579D03*
X-063642Y029783D03*
Y033209D03*
Y069154D03*
Y072579D03*
X-063445Y029783D03*
Y033209D03*
Y069154D03*
Y072579D03*
X-063248Y029783D03*
Y033209D03*
Y069154D03*
Y072579D03*
X-063051Y029783D03*
Y033209D03*
Y069154D03*
Y072579D03*
X-062854Y029783D03*
Y033209D03*
Y069154D03*
Y072579D03*
X-062657Y029783D03*
Y033209D03*
Y069154D03*
Y072579D03*
X-045335Y029783D03*
Y033209D03*
Y069154D03*
Y072579D03*
X-045138Y029783D03*
Y033209D03*
Y069154D03*
Y072579D03*
X-044941Y029783D03*
Y033209D03*
Y069154D03*
Y072579D03*
X-044744Y029783D03*
Y033209D03*
Y069154D03*
Y072579D03*
X-044547Y029783D03*
Y033209D03*
Y069154D03*
Y072579D03*
X-044350Y029783D03*
Y033209D03*
Y069154D03*
Y072579D03*
X-044154Y029783D03*
Y033209D03*
Y069154D03*
Y072579D03*
X-043957Y029783D03*
Y033209D03*
Y069154D03*
Y072579D03*
X-043760Y029783D03*
Y033209D03*
Y069154D03*
Y072579D03*
X-043563Y029783D03*
Y033209D03*
Y069154D03*
Y072579D03*
X-043366Y029783D03*
Y033209D03*
Y069154D03*
Y072579D03*
X-043169Y029783D03*
Y033209D03*
Y069154D03*
Y072579D03*
X-025846Y029783D03*
Y033209D03*
Y069154D03*
Y072579D03*
X-025650Y029783D03*
Y033209D03*
Y069154D03*
Y072579D03*
X-025453Y029783D03*
Y033209D03*
Y069154D03*
Y072579D03*
X-025256Y029783D03*
Y033209D03*
Y069154D03*
Y072579D03*
X-025059Y029783D03*
Y033209D03*
Y069154D03*
Y072579D03*
X-024862Y029783D03*
Y033209D03*
Y069154D03*
Y072579D03*
X-024665Y029783D03*
Y033209D03*
Y069154D03*
Y072579D03*
X-024469Y029783D03*
Y033209D03*
Y069154D03*
Y072579D03*
X-024272Y029783D03*
Y033209D03*
Y069154D03*
Y072579D03*
X-024075Y029783D03*
Y033209D03*
Y069154D03*
Y072579D03*
X-023878Y029783D03*
Y033209D03*
Y069154D03*
Y072579D03*
X-023681Y029783D03*
Y033209D03*
Y069154D03*
Y072579D03*
X-006358Y029783D03*
Y033209D03*
Y069154D03*
Y072579D03*
X-006161Y029783D03*
Y033209D03*
Y069154D03*
Y072579D03*
X-005965Y029783D03*
Y033209D03*
Y069154D03*
Y072579D03*
X-005768Y029783D03*
Y033209D03*
Y069154D03*
Y072579D03*
X-005571Y029783D03*
Y033209D03*
Y069154D03*
Y072579D03*
X-005374Y029783D03*
Y033209D03*
Y069154D03*
Y072579D03*
X-005177Y029783D03*
Y033209D03*
Y069154D03*
Y072579D03*
X-004980Y029783D03*
Y033209D03*
Y069154D03*
Y072579D03*
X-004783Y029783D03*
Y033209D03*
Y069154D03*
Y072579D03*
X-004587Y029783D03*
Y033209D03*
Y069154D03*
Y072579D03*
X-004390Y029783D03*
Y033209D03*
Y069154D03*
Y072579D03*
X-004193Y029783D03*
Y033209D03*
Y069154D03*
Y072579D03*
G54D16*
X-084941Y030413D03*
Y030610D03*
Y030807D03*
Y031004D03*
Y031201D03*
Y031398D03*
Y031594D03*
Y031791D03*
Y031988D03*
Y032185D03*
Y032382D03*
Y032579D03*
Y069783D03*
Y069980D03*
Y070177D03*
Y070374D03*
Y070571D03*
Y070768D03*
Y070965D03*
Y071161D03*
Y071358D03*
Y071555D03*
Y071752D03*
Y071949D03*
X-081516Y030413D03*
Y030610D03*
Y030807D03*
Y031004D03*
Y031201D03*
Y031398D03*
Y031594D03*
Y031791D03*
Y031988D03*
Y032185D03*
Y032382D03*
Y032579D03*
Y069783D03*
Y069980D03*
Y070177D03*
Y070374D03*
Y070571D03*
Y070768D03*
Y070965D03*
Y071161D03*
Y071358D03*
Y071555D03*
Y071752D03*
Y071949D03*
X-065453Y030413D03*
Y030610D03*
Y030807D03*
Y031004D03*
Y031201D03*
Y031398D03*
Y031594D03*
Y031791D03*
Y031988D03*
Y032185D03*
Y032382D03*
Y032579D03*
Y069783D03*
Y069980D03*
Y070177D03*
Y070374D03*
Y070571D03*
Y070768D03*
Y070965D03*
Y071161D03*
Y071358D03*
Y071555D03*
Y071752D03*
Y071949D03*
X-062028Y030413D03*
Y030610D03*
Y030807D03*
Y031004D03*
Y031201D03*
Y031398D03*
Y031594D03*
Y031791D03*
Y031988D03*
Y032185D03*
Y032382D03*
Y032579D03*
Y069783D03*
Y069980D03*
Y070177D03*
Y070374D03*
Y070571D03*
Y070768D03*
Y070965D03*
Y071161D03*
Y071358D03*
Y071555D03*
Y071752D03*
Y071949D03*
X-045965Y030413D03*
Y030610D03*
Y030807D03*
Y031004D03*
Y031201D03*
Y031398D03*
Y031594D03*
Y031791D03*
Y031988D03*
Y032185D03*
Y032382D03*
Y032579D03*
Y069783D03*
Y069980D03*
Y070177D03*
Y070374D03*
Y070571D03*
Y070768D03*
Y070965D03*
Y071161D03*
Y071358D03*
Y071555D03*
Y071752D03*
Y071949D03*
X-042539Y030413D03*
Y030610D03*
Y030807D03*
Y031004D03*
Y031201D03*
Y031398D03*
Y031594D03*
Y031791D03*
Y031988D03*
Y032185D03*
Y032382D03*
Y032579D03*
Y069783D03*
Y069980D03*
Y070177D03*
Y070374D03*
Y070571D03*
Y070768D03*
Y070965D03*
Y071161D03*
Y071358D03*
Y071555D03*
Y071752D03*
Y071949D03*
X-026476Y030413D03*
Y030610D03*
Y030807D03*
Y031004D03*
Y031201D03*
Y031398D03*
Y031594D03*
Y031791D03*
Y031988D03*
Y032185D03*
Y032382D03*
Y032579D03*
Y069783D03*
Y069980D03*
Y070177D03*
Y070374D03*
Y070571D03*
Y070768D03*
Y070965D03*
Y071161D03*
Y071358D03*
Y071555D03*
Y071752D03*
Y071949D03*
X-023051Y030413D03*
Y030610D03*
Y030807D03*
Y031004D03*
Y031201D03*
Y031398D03*
Y031594D03*
Y031791D03*
Y031988D03*
Y032185D03*
Y032382D03*
Y032579D03*
Y069783D03*
Y069980D03*
Y070177D03*
Y070374D03*
Y070571D03*
Y070768D03*
Y070965D03*
Y071161D03*
Y071358D03*
Y071555D03*
Y071752D03*
Y071949D03*
X-006988Y030413D03*
Y030610D03*
Y030807D03*
Y031004D03*
Y031201D03*
Y031398D03*
Y031594D03*
Y031791D03*
Y031988D03*
Y032185D03*
Y032382D03*
Y032579D03*
Y069783D03*
Y069980D03*
Y070177D03*
Y070374D03*
Y070571D03*
Y070768D03*
Y070965D03*
Y071161D03*
Y071358D03*
Y071555D03*
Y071752D03*
Y071949D03*
X-003563Y030413D03*
Y030610D03*
Y030807D03*
Y031004D03*
Y031201D03*
Y031398D03*
Y031594D03*
Y031791D03*
Y031988D03*
Y032185D03*
Y032382D03*
Y032579D03*
Y069783D03*
Y069980D03*
Y070177D03*
Y070374D03*
Y070571D03*
Y070768D03*
Y070965D03*
Y071161D03*
Y071358D03*
Y071555D03*
Y071752D03*
Y071949D03*
G54D17*
X-082362Y023189D03*
Y062559D03*
X-081654Y023189D03*
Y062559D03*
X-078976Y020984D03*
Y021890D03*
Y060354D03*
Y061260D03*
X-078268Y020984D03*
Y021890D03*
Y060354D03*
Y061260D03*
X-062874Y023189D03*
Y062559D03*
X-062165Y023189D03*
Y062559D03*
X-059488Y020984D03*
Y021890D03*
Y060354D03*
Y061260D03*
X-058780Y020984D03*
Y021890D03*
Y060354D03*
Y061260D03*
X-043386Y023189D03*
Y062559D03*
X-042677Y023189D03*
Y062559D03*
X-040000Y020984D03*
Y021890D03*
Y060354D03*
Y061260D03*
X-039291Y020984D03*
Y021890D03*
Y060354D03*
Y061260D03*
X-023898Y023189D03*
Y062559D03*
X-023189Y023189D03*
Y062559D03*
X-020512Y020984D03*
Y021890D03*
Y060354D03*
Y061260D03*
X-019803Y020984D03*
Y021890D03*
Y060354D03*
Y061260D03*
X-004409Y023189D03*
Y062559D03*
X-003701Y023189D03*
Y062559D03*
X-001024Y020984D03*
Y021890D03*
Y060354D03*
Y061260D03*
X-000315Y020984D03*
Y021890D03*
Y060354D03*
Y061260D03*
G54D18*
X-086063Y030354D03*
Y031063D03*
Y069724D03*
Y070433D03*
X-080827Y022520D03*
Y023228D03*
Y061890D03*
Y062598D03*
X-080157Y032402D03*
Y033110D03*
Y071772D03*
Y072480D03*
X-066575Y030354D03*
Y031063D03*
Y069724D03*
Y070433D03*
X-061339Y022520D03*
Y023228D03*
Y061890D03*
Y062598D03*
X-060669Y032402D03*
Y033110D03*
Y071772D03*
Y072480D03*
X-047087Y030354D03*
Y031063D03*
Y069724D03*
Y070433D03*
X-041850Y022520D03*
Y023228D03*
Y061890D03*
Y062598D03*
X-041181Y032402D03*
Y033110D03*
Y071772D03*
Y072480D03*
X-027598Y030354D03*
Y031063D03*
Y069724D03*
Y070433D03*
X-022362Y022520D03*
Y023228D03*
Y061890D03*
Y062598D03*
X-021693Y032402D03*
Y033110D03*
Y071772D03*
Y072480D03*
X-008110Y030354D03*
Y031063D03*
Y069724D03*
Y070433D03*
X-002874Y022520D03*
Y023228D03*
Y061890D03*
Y062598D03*
X-002205Y032402D03*
Y033110D03*
Y071772D03*
Y072480D03*
G54D19*
X-079911Y022874D03*
Y023976D03*
Y062244D03*
Y063346D03*
X-079656Y022874D03*
Y023976D03*
Y062244D03*
Y063346D03*
X-079400Y022874D03*
Y023976D03*
Y062244D03*
Y063346D03*
X-079144Y022874D03*
Y023976D03*
Y062244D03*
Y063346D03*
X-060423Y022874D03*
Y023976D03*
Y062244D03*
Y063346D03*
X-060167Y022874D03*
Y023976D03*
Y062244D03*
Y063346D03*
X-059911Y022874D03*
Y023976D03*
Y062244D03*
Y063346D03*
X-059656Y022874D03*
Y023976D03*
Y062244D03*
Y063346D03*
X-040935Y022874D03*
Y023976D03*
Y062244D03*
Y063346D03*
X-040679Y022874D03*
Y023976D03*
Y062244D03*
Y063346D03*
X-040423Y022874D03*
Y023976D03*
Y062244D03*
Y063346D03*
X-040167Y022874D03*
Y023976D03*
Y062244D03*
Y063346D03*
X-021447Y022874D03*
Y023976D03*
Y062244D03*
Y063346D03*
X-021191Y022874D03*
Y023976D03*
Y062244D03*
Y063346D03*
X-020935Y022874D03*
Y023976D03*
Y062244D03*
Y063346D03*
X-020679Y022874D03*
Y023976D03*
Y062244D03*
Y063346D03*
X-001959Y022874D03*
Y023976D03*
Y062244D03*
Y063346D03*
X-001703Y022874D03*
Y023976D03*
Y062244D03*
Y063346D03*
X-001447Y022874D03*
Y023976D03*
Y062244D03*
Y063346D03*
X-001191Y022874D03*
Y023976D03*
Y062244D03*
Y063346D03*
G54D20*
X-095197Y008386D03*
Y047756D03*
X-094764Y009252D03*
Y048622D03*
X-094646Y008386D03*
Y047756D03*
X-094213Y009252D03*
Y048622D03*
X-093465Y009252D03*
Y048622D03*
X-093031Y008386D03*
Y047756D03*
X-092913Y009252D03*
Y048622D03*
X-092480Y008386D03*
Y047756D03*
X-091654Y008110D03*
Y047480D03*
X-091102Y008110D03*
Y047480D03*
X-087795Y033465D03*
Y072835D03*
X-087244Y033465D03*
Y072835D03*
X-085630Y029567D03*
Y068937D03*
X-085079Y029567D03*
Y068937D03*
X-084016Y015000D03*
Y054370D03*
X-083465Y015000D03*
Y054370D03*
X-083228Y017480D03*
Y056850D03*
X-082953Y034055D03*
Y034646D03*
Y035433D03*
Y073425D03*
Y074016D03*
Y074803D03*
X-082677Y017480D03*
Y056850D03*
X-082402Y034055D03*
Y034646D03*
Y035433D03*
Y073425D03*
Y074016D03*
Y074803D03*
X-082283Y022520D03*
Y061890D03*
X-081732Y022520D03*
Y061890D03*
X-080394Y021890D03*
Y061260D03*
X-079843Y021890D03*
Y061260D03*
X-076457Y031850D03*
Y071220D03*
X-075906Y031850D03*
Y071220D03*
X-075709Y008386D03*
Y047756D03*
X-075394Y030709D03*
Y070079D03*
X-075276Y009252D03*
Y048622D03*
X-075157Y008386D03*
Y047756D03*
X-075118Y024409D03*
Y063780D03*
X-074843Y030709D03*
Y070079D03*
X-074724Y009252D03*
Y048622D03*
X-074567Y024409D03*
Y063780D03*
X-073976Y009252D03*
Y048622D03*
X-073543Y008386D03*
Y047756D03*
X-073425Y009252D03*
Y048622D03*
X-072992Y008386D03*
Y047756D03*
X-072165Y008110D03*
Y047480D03*
X-071614Y008110D03*
Y047480D03*
X-068307Y033465D03*
Y072835D03*
X-067756Y033465D03*
Y072835D03*
X-066142Y029567D03*
Y068937D03*
X-065591Y029567D03*
Y068937D03*
X-064528Y015000D03*
Y054370D03*
X-063976Y015000D03*
Y054370D03*
X-063740Y017480D03*
Y056850D03*
X-063465Y034055D03*
Y034646D03*
Y035433D03*
Y073425D03*
Y074016D03*
Y074803D03*
X-063189Y017480D03*
Y056850D03*
X-062913Y034055D03*
Y034646D03*
Y035433D03*
Y073425D03*
Y074016D03*
Y074803D03*
X-062795Y022520D03*
Y061890D03*
X-062244Y022520D03*
Y061890D03*
X-060906Y021890D03*
Y061260D03*
X-060354Y021890D03*
Y061260D03*
X-056969Y031850D03*
Y071220D03*
X-056417Y031850D03*
Y071220D03*
X-056220Y008386D03*
Y047756D03*
X-055906Y030709D03*
Y070079D03*
X-055787Y009252D03*
Y048622D03*
X-055669Y008386D03*
Y047756D03*
X-055630Y024409D03*
Y063780D03*
X-055354Y030709D03*
Y070079D03*
X-055236Y009252D03*
Y048622D03*
X-055079Y024409D03*
Y063780D03*
X-054488Y009252D03*
Y048622D03*
X-054055Y008386D03*
Y047756D03*
X-053937Y009252D03*
Y048622D03*
X-053504Y008386D03*
Y047756D03*
X-052677Y008110D03*
Y047480D03*
X-052126Y008110D03*
Y047480D03*
X-048819Y033465D03*
Y072835D03*
X-048268Y033465D03*
Y072835D03*
X-046654Y029567D03*
Y068937D03*
X-046102Y029567D03*
Y068937D03*
X-045039Y015000D03*
Y054370D03*
X-044488Y015000D03*
Y054370D03*
X-044252Y017480D03*
Y056850D03*
X-043976Y034055D03*
Y034646D03*
Y035433D03*
Y073425D03*
Y074016D03*
Y074803D03*
X-043701Y017480D03*
Y056850D03*
X-043425Y034055D03*
Y034646D03*
Y035433D03*
Y073425D03*
Y074016D03*
Y074803D03*
X-043307Y022520D03*
Y061890D03*
X-042756Y022520D03*
Y061890D03*
X-041417Y021890D03*
Y061260D03*
X-040866Y021890D03*
Y061260D03*
X-037480Y031850D03*
Y071220D03*
X-036929Y031850D03*
Y071220D03*
X-036732Y008386D03*
Y047756D03*
X-036417Y030709D03*
Y070079D03*
X-036299Y009252D03*
Y048622D03*
X-036181Y008386D03*
Y047756D03*
X-036142Y024409D03*
Y063780D03*
X-035866Y030709D03*
Y070079D03*
X-035748Y009252D03*
Y048622D03*
X-035591Y024409D03*
Y063780D03*
X-035000Y009252D03*
Y048622D03*
X-034567Y008386D03*
Y047756D03*
X-034449Y009252D03*
Y048622D03*
X-034016Y008386D03*
Y047756D03*
X-033189Y008110D03*
Y047480D03*
X-032638Y008110D03*
Y047480D03*
X-029331Y033465D03*
Y072835D03*
X-028780Y033465D03*
Y072835D03*
X-027165Y029567D03*
Y068937D03*
X-026614Y029567D03*
Y068937D03*
X-025551Y015000D03*
Y054370D03*
X-025000Y015000D03*
Y054370D03*
X-024764Y017480D03*
Y056850D03*
X-024488Y034055D03*
Y034646D03*
Y035433D03*
Y073425D03*
Y074016D03*
Y074803D03*
X-024213Y017480D03*
Y056850D03*
X-023937Y034055D03*
Y034646D03*
Y035433D03*
Y073425D03*
Y074016D03*
Y074803D03*
X-023819Y022520D03*
Y061890D03*
X-023268Y022520D03*
Y061890D03*
X-021929Y021890D03*
Y061260D03*
X-021378Y021890D03*
Y061260D03*
X-017992Y031850D03*
Y071220D03*
X-017441Y031850D03*
Y071220D03*
X-017244Y008386D03*
Y047756D03*
X-016929Y030709D03*
Y070079D03*
X-016811Y009252D03*
Y048622D03*
X-016693Y008386D03*
Y047756D03*
X-016654Y024409D03*
Y063780D03*
X-016378Y030709D03*
Y070079D03*
X-016260Y009252D03*
Y048622D03*
X-016102Y024409D03*
Y063780D03*
X-015512Y009252D03*
Y048622D03*
X-015079Y008386D03*
Y047756D03*
X-014961Y009252D03*
Y048622D03*
X-014528Y008386D03*
Y047756D03*
X-013701Y008110D03*
Y047480D03*
X-013150Y008110D03*
Y047480D03*
X-009843Y033465D03*
Y072835D03*
X-009291Y033465D03*
Y072835D03*
X-007677Y029567D03*
Y068937D03*
X-007126Y029567D03*
Y068937D03*
X-006063Y015000D03*
Y054370D03*
X-005512Y015000D03*
Y054370D03*
X-005276Y017480D03*
Y056850D03*
X-005000Y034055D03*
Y034646D03*
Y035433D03*
Y073425D03*
Y074016D03*
Y074803D03*
X-004724Y017480D03*
Y056850D03*
X-004449Y034055D03*
Y034646D03*
Y035433D03*
Y073425D03*
Y074016D03*
Y074803D03*
X-004331Y022520D03*
Y061890D03*
X-003780Y022520D03*
Y061890D03*
X-002441Y021890D03*
Y061260D03*
X-001890Y021890D03*
Y061260D03*
X001496Y031850D03*
Y071220D03*
X002047Y031850D03*
Y071220D03*
X002559Y030709D03*
Y070079D03*
X002835Y024409D03*
Y063780D03*
X003110Y030709D03*
Y070079D03*
X003386Y024409D03*
Y063780D03*
G54D21*
X-095531Y005945D03*
Y045315D03*
X-090610Y005945D03*
Y045315D03*
X-078642Y034134D03*
Y073504D03*
X-076043Y005945D03*
Y045315D03*
X-074508Y034134D03*
Y073504D03*
X-071122Y005945D03*
Y045315D03*
X-059154Y034134D03*
Y073504D03*
X-056555Y005945D03*
Y045315D03*
X-055020Y034134D03*
Y073504D03*
X-051634Y005945D03*
Y045315D03*
X-039665Y034134D03*
Y073504D03*
X-037067Y005945D03*
Y045315D03*
X-035531Y034134D03*
Y073504D03*
X-032146Y005945D03*
Y045315D03*
X-020177Y034134D03*
Y073504D03*
X-017579Y005945D03*
Y045315D03*
X-016043Y034134D03*
Y073504D03*
X-012657Y005945D03*
Y045315D03*
X-000689Y034134D03*
Y073504D03*
X003445Y034134D03*
Y073504D03*
G54D22*
X-094646Y005059D03*
Y044429D03*
X-093858Y005059D03*
Y044429D03*
X-093071Y005059D03*
Y044429D03*
X-092283Y005059D03*
Y044429D03*
X-091496Y005059D03*
Y044429D03*
X-077756Y035020D03*
Y074390D03*
X-076969Y035020D03*
Y074390D03*
X-076181Y035020D03*
Y074390D03*
X-075394Y035020D03*
Y074390D03*
X-075157Y005059D03*
Y044429D03*
X-074370Y005059D03*
Y044429D03*
X-073583Y005059D03*
Y044429D03*
X-072795Y005059D03*
Y044429D03*
X-072008Y005059D03*
Y044429D03*
X-058268Y035020D03*
Y074390D03*
X-057480Y035020D03*
Y074390D03*
X-056693Y035020D03*
Y074390D03*
X-055906Y035020D03*
Y074390D03*
X-055669Y005059D03*
Y044429D03*
X-054882Y005059D03*
Y044429D03*
X-054094Y005059D03*
Y044429D03*
X-053307Y005059D03*
Y044429D03*
X-052520Y005059D03*
Y044429D03*
X-038780Y035020D03*
Y074390D03*
X-037992Y035020D03*
Y074390D03*
X-037205Y035020D03*
Y074390D03*
X-036417Y035020D03*
Y074390D03*
X-036181Y005059D03*
Y044429D03*
X-035394Y005059D03*
Y044429D03*
X-034606Y005059D03*
Y044429D03*
X-033819Y005059D03*
Y044429D03*
X-033031Y005059D03*
Y044429D03*
X-019291Y035020D03*
Y074390D03*
X-018504Y035020D03*
Y074390D03*
X-017717Y035020D03*
Y074390D03*
X-016929Y035020D03*
Y074390D03*
X-016693Y005059D03*
Y044429D03*
X-015906Y005059D03*
Y044429D03*
X-015118Y005059D03*
Y044429D03*
X-014331Y005059D03*
Y044429D03*
X-013543Y005059D03*
Y044429D03*
X000197Y035020D03*
Y074390D03*
X000984Y035020D03*
Y074390D03*
X001772Y035020D03*
Y074390D03*
X002559Y035020D03*
Y074390D03*
G54D23*
X-080807Y027126D03*
Y066496D03*
X-080433Y026181D03*
Y065551D03*
X-080059Y027126D03*
Y066496D03*
X-061319Y027126D03*
Y066496D03*
X-060945Y026181D03*
Y065551D03*
X-060571Y027126D03*
Y066496D03*
X-041831Y027126D03*
Y066496D03*
X-041457Y026181D03*
Y065551D03*
X-041083Y027126D03*
Y066496D03*
X-022343Y027126D03*
Y066496D03*
X-021969Y026181D03*
Y065551D03*
X-021594Y027126D03*
Y066496D03*
X-002854Y027126D03*
Y066496D03*
X-002480Y026181D03*
Y065551D03*
X-002106Y027126D03*
Y066496D03*
G54D24*
X-075591Y025374D03*
Y025748D03*
Y026122D03*
Y064744D03*
Y065118D03*
Y065492D03*
X-074488Y025374D03*
Y025748D03*
Y026122D03*
Y064744D03*
Y065118D03*
Y065492D03*
X-056102Y025374D03*
Y025748D03*
Y026122D03*
Y064744D03*
Y065118D03*
Y065492D03*
X-055000Y025374D03*
Y025748D03*
Y026122D03*
Y064744D03*
Y065118D03*
Y065492D03*
X-036614Y025374D03*
Y025748D03*
Y026122D03*
Y064744D03*
Y065118D03*
Y065492D03*
X-035512Y025374D03*
Y025748D03*
Y026122D03*
Y064744D03*
Y065118D03*
Y065492D03*
X-017126Y025374D03*
Y025748D03*
Y026122D03*
Y064744D03*
Y065118D03*
Y065492D03*
X-016024Y025374D03*
Y025748D03*
Y026122D03*
Y064744D03*
Y065118D03*
Y065492D03*
X002362Y025374D03*
Y025748D03*
Y026122D03*
Y064744D03*
Y065118D03*
Y065492D03*
X003465Y025374D03*
Y025748D03*
Y026122D03*
Y064744D03*
Y065118D03*
Y065492D03*
G54D25*
X-095569Y010709D03*
Y012992D03*
Y050079D03*
Y052362D03*
X-095069Y010709D03*
Y012992D03*
Y050079D03*
Y052362D03*
X-094569Y010709D03*
Y012992D03*
Y050079D03*
Y052362D03*
X-094069Y010709D03*
Y012992D03*
Y050079D03*
Y052362D03*
X-093569Y010709D03*
Y012992D03*
Y050079D03*
Y052362D03*
X-093069Y010709D03*
Y012992D03*
Y050079D03*
Y052362D03*
X-092569Y010709D03*
Y012992D03*
Y050079D03*
Y052362D03*
X-092069Y010709D03*
Y012992D03*
Y050079D03*
Y052362D03*
X-076081Y010709D03*
Y012992D03*
Y050079D03*
Y052362D03*
X-075581Y010709D03*
Y012992D03*
Y050079D03*
Y052362D03*
X-075081Y010709D03*
Y012992D03*
Y050079D03*
Y052362D03*
X-074581Y010709D03*
Y012992D03*
Y050079D03*
Y052362D03*
X-074081Y010709D03*
Y012992D03*
Y050079D03*
Y052362D03*
X-073581Y010709D03*
Y012992D03*
Y050079D03*
Y052362D03*
X-073081Y010709D03*
Y012992D03*
Y050079D03*
Y052362D03*
X-072581Y010709D03*
Y012992D03*
Y050079D03*
Y052362D03*
X-056593Y010709D03*
Y012992D03*
Y050079D03*
Y052362D03*
X-056093Y010709D03*
Y012992D03*
Y050079D03*
Y052362D03*
X-055593Y010709D03*
Y012992D03*
Y050079D03*
Y052362D03*
X-055093Y010709D03*
Y012992D03*
Y050079D03*
Y052362D03*
X-054593Y010709D03*
Y012992D03*
Y050079D03*
Y052362D03*
X-054093Y010709D03*
Y012992D03*
Y050079D03*
Y052362D03*
X-053593Y010709D03*
Y012992D03*
Y050079D03*
Y052362D03*
X-053093Y010709D03*
Y012992D03*
Y050079D03*
Y052362D03*
X-037104Y010709D03*
Y012992D03*
Y050079D03*
Y052362D03*
X-036604Y010709D03*
Y012992D03*
Y050079D03*
Y052362D03*
X-036104Y010709D03*
Y012992D03*
Y050079D03*
Y052362D03*
X-035604Y010709D03*
Y012992D03*
Y050079D03*
Y052362D03*
X-035104Y010709D03*
Y012992D03*
Y050079D03*
Y052362D03*
X-034604Y010709D03*
Y012992D03*
Y050079D03*
Y052362D03*
X-034104Y010709D03*
Y012992D03*
Y050079D03*
Y052362D03*
X-033604Y010709D03*
Y012992D03*
Y050079D03*
Y052362D03*
X-017616Y010709D03*
Y012992D03*
Y050079D03*
Y052362D03*
X-017116Y010709D03*
Y012992D03*
Y050079D03*
Y052362D03*
X-016616Y010709D03*
Y012992D03*
Y050079D03*
Y052362D03*
X-016116Y010709D03*
Y012992D03*
Y050079D03*
Y052362D03*
X-015616Y010709D03*
Y012992D03*
Y050079D03*
Y052362D03*
X-015116Y010709D03*
Y012992D03*
Y050079D03*
Y052362D03*
X-014616Y010709D03*
Y012992D03*
Y050079D03*
Y052362D03*
X-014116Y010709D03*
Y012992D03*
Y050079D03*
Y052362D03*
G54D26*
X-087323Y026280D03*
Y027028D03*
Y065650D03*
Y066398D03*
X-087008Y026280D03*
Y027028D03*
Y065650D03*
Y066398D03*
X-085512Y026280D03*
Y027028D03*
Y065650D03*
Y066398D03*
X-085197Y026280D03*
Y027028D03*
Y065650D03*
Y066398D03*
X-083701Y026280D03*
Y027028D03*
Y065650D03*
Y066398D03*
X-083386Y026280D03*
Y027028D03*
Y065650D03*
Y066398D03*
X-067835Y026280D03*
Y027028D03*
Y065650D03*
Y066398D03*
X-067520Y026280D03*
Y027028D03*
Y065650D03*
Y066398D03*
X-066024Y026280D03*
Y027028D03*
Y065650D03*
Y066398D03*
X-065709Y026280D03*
Y027028D03*
Y065650D03*
Y066398D03*
X-064213Y026280D03*
Y027028D03*
Y065650D03*
Y066398D03*
X-063898Y026280D03*
Y027028D03*
Y065650D03*
Y066398D03*
X-048346Y026280D03*
Y027028D03*
Y065650D03*
Y066398D03*
X-048031Y026280D03*
Y027028D03*
Y065650D03*
Y066398D03*
X-046535Y026280D03*
Y027028D03*
Y065650D03*
Y066398D03*
X-046220Y026280D03*
Y027028D03*
Y065650D03*
Y066398D03*
X-044724Y026280D03*
Y027028D03*
Y065650D03*
Y066398D03*
X-044409Y026280D03*
Y027028D03*
Y065650D03*
Y066398D03*
X-028858Y026280D03*
Y027028D03*
Y065650D03*
Y066398D03*
X-028543Y026280D03*
Y027028D03*
Y065650D03*
Y066398D03*
X-027047Y026280D03*
Y027028D03*
Y065650D03*
Y066398D03*
X-026732Y026280D03*
Y027028D03*
Y065650D03*
Y066398D03*
X-025236Y026280D03*
Y027028D03*
Y065650D03*
Y066398D03*
X-024921Y026280D03*
Y027028D03*
Y065650D03*
Y066398D03*
X-009370Y026280D03*
Y027028D03*
Y065650D03*
Y066398D03*
X-009055Y026280D03*
Y027028D03*
Y065650D03*
Y066398D03*
X-007559Y026280D03*
Y027028D03*
Y065650D03*
Y066398D03*
X-007244Y026280D03*
Y027028D03*
Y065650D03*
Y066398D03*
X-005748Y026280D03*
Y027028D03*
Y065650D03*
Y066398D03*
X-005433Y026280D03*
Y027028D03*
Y065650D03*
Y066398D03*
G54D27*
X-087707Y026280D03*
Y027028D03*
Y065650D03*
Y066398D03*
X-086624Y026280D03*
Y027028D03*
Y065650D03*
Y066398D03*
X-085896Y026280D03*
Y027028D03*
Y065650D03*
Y066398D03*
X-084813Y026280D03*
Y027028D03*
Y065650D03*
Y066398D03*
X-084085Y026280D03*
Y027028D03*
Y065650D03*
Y066398D03*
X-083002Y026280D03*
Y027028D03*
Y065650D03*
Y066398D03*
X-068219Y026280D03*
Y027028D03*
Y065650D03*
Y066398D03*
X-067136Y026280D03*
Y027028D03*
Y065650D03*
Y066398D03*
X-066407Y026280D03*
Y027028D03*
Y065650D03*
Y066398D03*
X-065325Y026280D03*
Y027028D03*
Y065650D03*
Y066398D03*
X-064596Y026280D03*
Y027028D03*
Y065650D03*
Y066398D03*
X-063514Y026280D03*
Y027028D03*
Y065650D03*
Y066398D03*
X-048730Y026280D03*
Y027028D03*
Y065650D03*
Y066398D03*
X-047648Y026280D03*
Y027028D03*
Y065650D03*
Y066398D03*
X-046919Y026280D03*
Y027028D03*
Y065650D03*
Y066398D03*
X-045837Y026280D03*
Y027028D03*
Y065650D03*
Y066398D03*
X-045108Y026280D03*
Y027028D03*
Y065650D03*
Y066398D03*
X-044026Y026280D03*
Y027028D03*
Y065650D03*
Y066398D03*
X-029242Y026280D03*
Y027028D03*
Y065650D03*
Y066398D03*
X-028159Y026280D03*
Y027028D03*
Y065650D03*
Y066398D03*
X-027431Y026280D03*
Y027028D03*
Y065650D03*
Y066398D03*
X-026348Y026280D03*
Y027028D03*
Y065650D03*
Y066398D03*
X-025620Y026280D03*
Y027028D03*
Y065650D03*
Y066398D03*
X-024537Y026280D03*
Y027028D03*
Y065650D03*
Y066398D03*
X-009754Y026280D03*
Y027028D03*
Y065650D03*
Y066398D03*
X-008671Y026280D03*
Y027028D03*
Y065650D03*
Y066398D03*
X-007943Y026280D03*
Y027028D03*
Y065650D03*
Y066398D03*
X-006860Y026280D03*
Y027028D03*
Y065650D03*
Y066398D03*
X-006132Y026280D03*
Y027028D03*
Y065650D03*
Y066398D03*
X-005049Y026280D03*
Y027028D03*
Y065650D03*
Y066398D03*
G54D28*
X-077323Y023287D03*
Y024035D03*
Y024705D03*
Y025453D03*
Y062657D03*
Y063406D03*
Y064075D03*
Y064823D03*
X-076378Y023661D03*
Y025079D03*
Y063031D03*
Y064449D03*
X-075551Y023031D03*
Y062402D03*
X-074606Y022657D03*
Y023406D03*
Y062028D03*
Y062776D03*
X-057835Y023287D03*
Y024035D03*
Y024705D03*
Y025453D03*
Y062657D03*
Y063406D03*
Y064075D03*
Y064823D03*
X-056890Y023661D03*
Y025079D03*
Y063031D03*
Y064449D03*
X-056063Y023031D03*
Y062402D03*
X-055118Y022657D03*
Y023406D03*
Y062028D03*
Y062776D03*
X-038346Y023287D03*
Y024035D03*
Y024705D03*
Y025453D03*
Y062657D03*
Y063406D03*
Y064075D03*
Y064823D03*
X-037402Y023661D03*
Y025079D03*
Y063031D03*
Y064449D03*
X-036575Y023031D03*
Y062402D03*
X-035630Y022657D03*
Y023406D03*
Y062028D03*
Y062776D03*
X-018858Y023287D03*
Y024035D03*
Y024705D03*
Y025453D03*
Y062657D03*
Y063406D03*
Y064075D03*
Y064823D03*
X-017913Y023661D03*
Y025079D03*
Y063031D03*
Y064449D03*
X-017087Y023031D03*
Y062402D03*
X-016142Y022657D03*
Y023406D03*
Y062028D03*
Y062776D03*
X000630Y023287D03*
Y024035D03*
Y024705D03*
Y025453D03*
Y062657D03*
Y063406D03*
Y064075D03*
Y064823D03*
X001575Y023661D03*
Y025079D03*
Y063031D03*
Y064449D03*
X002402Y023031D03*
Y062402D03*
X003346Y022657D03*
Y023406D03*
Y062028D03*
Y062776D03*
G54D29*
X-082886Y012992D03*
Y052362D03*
X-080106Y012992D03*
Y052362D03*
X-063398Y012992D03*
Y052362D03*
X-060618Y012992D03*
Y052362D03*
X-043910Y012992D03*
Y052362D03*
X-041129Y012992D03*
Y052362D03*
X-024422Y012992D03*
Y052362D03*
X-021641Y012992D03*
Y052362D03*
X-004934Y012992D03*
Y052362D03*
X-002153Y012992D03*
Y052362D03*
G54D30*
X-083110Y019646D03*
Y020433D03*
Y059016D03*
Y059803D03*
X-063622Y019646D03*
Y020433D03*
Y059016D03*
Y059803D03*
X-044134Y019646D03*
Y020433D03*
Y059016D03*
Y059803D03*
X-024646Y019646D03*
Y020433D03*
Y059016D03*
Y059803D03*
X-005157Y019646D03*
Y020433D03*
Y059016D03*
Y059803D03*
G54D31*
X-089075Y010984D03*
Y050354D03*
X-086358Y010984D03*
Y050354D03*
X-084350Y009803D03*
Y049173D03*
X-081634Y009803D03*
Y049173D03*
X-069587Y010984D03*
Y050354D03*
X-066870Y010984D03*
Y050354D03*
X-064862Y009803D03*
Y049173D03*
X-062146Y009803D03*
Y049173D03*
X-050098Y010984D03*
Y050354D03*
X-047382Y010984D03*
Y050354D03*
X-045374Y009803D03*
Y049173D03*
X-042657Y009803D03*
Y049173D03*
X-030610Y010984D03*
Y050354D03*
X-027894Y010984D03*
Y050354D03*
X-025886Y009803D03*
Y049173D03*
X-023169Y009803D03*
Y049173D03*
X-011122Y010984D03*
Y050354D03*
X-008406Y010984D03*
Y050354D03*
X-006398Y009803D03*
Y049173D03*
X-003681Y009803D03*
Y049173D03*
G54D32*
X-087441Y005906D03*
Y007008D03*
Y045276D03*
Y046378D03*
X-067953Y005906D03*
Y007008D03*
Y045276D03*
Y046378D03*
X-048465Y005906D03*
Y007008D03*
Y045276D03*
Y046378D03*
X-028976Y005906D03*
Y007008D03*
Y045276D03*
Y046378D03*
X-009488Y005906D03*
Y007008D03*
Y045276D03*
Y046378D03*
G54D33*
X-089409Y008465D03*
Y047835D03*
X-088307Y008465D03*
Y047835D03*
X-069921Y008465D03*
Y047835D03*
X-068819Y008465D03*
Y047835D03*
X-050433Y008465D03*
Y047835D03*
X-049331Y008465D03*
Y047835D03*
X-030945Y008465D03*
Y047835D03*
X-029843Y008465D03*
Y047835D03*
X-011457Y008465D03*
Y047835D03*
X-010354Y008465D03*
Y047835D03*
G54D34*
X-081535Y019055D03*
Y058425D03*
X-079724Y019055D03*
Y058425D03*
X-062047Y019055D03*
Y058425D03*
X-060236Y019055D03*
Y058425D03*
X-042559Y019055D03*
Y058425D03*
X-040748Y019055D03*
Y058425D03*
X-023071Y019055D03*
Y058425D03*
X-021260Y019055D03*
Y058425D03*
X-003583Y019055D03*
Y058425D03*
X-001772Y019055D03*
Y058425D03*
G54D70*
X-079528Y023425D03*
Y062795D03*
X-060039Y023425D03*
Y062795D03*
X-040551Y023425D03*
Y062795D03*
X-021063Y023425D03*
Y062795D03*
X-001575Y023425D03*
Y062795D03*
G54D71*
X-085906Y006220D03*
Y045591D03*
X-083701Y006220D03*
Y045591D03*
X-066417Y006220D03*
Y045591D03*
X-064213Y006220D03*
Y045591D03*
X-046929Y006220D03*
Y045591D03*
X-044724Y006220D03*
Y045591D03*
X-027441Y006220D03*
Y045591D03*
X-025236Y006220D03*
Y045591D03*
X-007953Y006220D03*
Y045591D03*
X-005748Y006220D03*
Y045591D03*
G54D72*
X-079980Y028917D03*
Y029665D03*
Y068287D03*
Y069035D03*
X-079311Y028917D03*
Y029665D03*
Y068287D03*
Y069035D03*
X-060492Y028917D03*
Y029665D03*
Y068287D03*
Y069035D03*
X-059823Y028917D03*
Y029665D03*
Y068287D03*
Y069035D03*
X-041004Y028917D03*
Y029665D03*
Y068287D03*
Y069035D03*
X-040335Y028917D03*
Y029665D03*
Y068287D03*
Y069035D03*
X-021516Y028917D03*
Y029665D03*
Y068287D03*
Y069035D03*
X-020846Y028917D03*
Y029665D03*
Y068287D03*
Y069035D03*
X-002028Y028917D03*
Y029665D03*
Y068287D03*
Y069035D03*
X-001358Y028917D03*
Y029665D03*
Y068287D03*
Y069035D03*
G54D73*
X-079646Y028898D03*
Y029685D03*
Y068268D03*
Y069055D03*
X-060157Y028898D03*
Y029685D03*
Y068268D03*
Y069055D03*
X-040669Y028898D03*
Y029685D03*
Y068268D03*
Y069055D03*
X-021181Y028898D03*
Y029685D03*
Y068268D03*
Y069055D03*
X-001693Y028898D03*
Y029685D03*
Y068268D03*
Y069055D03*
M02*
