*
G04 Job   : N:\Projects\COMUN\Opel\ICP_OV64-OV85\1-Main_PCB\12149683-12\Panel_12154178\12154178.pnl*
G04 User  : ESSECAE005:montel01*
G04 Layer : SolderPasteTop.gbr*
G04 Date  : Fri Nov 22 08:51:19 2024*
G04 Expedition Layer: Solder Paste - Top*
%ICAS*%
%MOIN*%
%FSDAX24Y24*%
%OFA0.0000B0.0000*%
G90*
G74*
%AMVB_RECTANGLE*
21,1,$1,$2,0,0,$3*
%
%AMVB_RCRECTANGLE*
$3=$3X2*
21,1,$1-$3,$2,0,0,0*
21,1,$1,$2-$3,0,0,0*
$1=$1/2*
$2=$2/2*
$3=$3/2*
$1=$1-$3*
$2=$2-$3*
1,1,$3X2,0-$1,0-$2*
1,1,$3X2,0-$1,$2*
1,1,$3X2,$1,$2*
1,1,$3X2,$1,0-$2*
%
%ADD11C,0.00787*%
%ADD10C,0.03937*%
%ADD17VB_RECTANGLE,0.07480X0.03543X228.00000*%
%ADD18VB_RECTANGLE,0.07480X0.04724X228.00000*%
%ADD13VB_RCRECTANGLE,0.02756X0.01969X0.00197*%
%ADD12VB_RCRECTANGLE,0.01969X0.02756X0.00197*%
%ADD71VB_RCRECTANGLE,0.02953X0.02362X0.00197*%
%ADD22VB_RCRECTANGLE,0.02362X0.02953X0.00197*%
%ADD25VB_RCRECTANGLE,0.01575X0.03150X0.00197*%
%ADD14VB_RCRECTANGLE,0.03937X0.02756X0.00197*%
%ADD16VB_RCRECTANGLE,0.02756X0.03937X0.00197*%
%ADD20VB_RCRECTANGLE,0.04331X0.02362X0.00197*%
%ADD21VB_RCRECTANGLE,0.02362X0.04331X0.00197*%
%ADD15VB_RCRECTANGLE,0.04724X0.03150X0.00197*%
%ADD19VB_RCRECTANGLE,0.03150X0.04724X0.00197*%
%ADD23VB_RCRECTANGLE,0.03937X0.04724X0.00197*%
%ADD24VB_RCRECTANGLE,0.05118X0.03150X0.00197*%
%ADD70VB_RCRECTANGLE,0.05512X0.09449X0.00197*%
%ADD26VB_RCRECTANGLE,0.09843X0.05118X0.00197*%
G01*
G36*
X-092854Y-000283D02*
Y-000039D01*
X-093098*
G02X-093100Y000000I000283J000039*
X-092815Y000285I000285*
X-092776Y000283J000285*
G01Y000039*
X-092532*
G02X-092530Y000000I000283J000039*
X-092815Y-000285I000285*
X-092854Y-000283J000285*
G01Y000283D02*
Y000039D01*
X-093098*
G03X-093100Y000000I000283J000039*
X-092815Y-000285I000285*
X-092776Y-000283J000285*
G01Y-000039*
X-092532*
G03X-092530Y000000I000283J000039*
X-092815Y000285I000285*
X-092854Y000283J000285*
G01Y085387D02*
Y085630D01*
X-093098*
G02X-093100Y085669I000283J000039*
X-092815Y085955I000285*
X-092776Y085952J000286*
G01Y085709*
X-092532*
G02X-092530Y085669I000283J000040*
X-092815Y085384I000285*
X-092854Y085387J000285*
G01Y085952D02*
Y085709D01*
X-093098*
G03X-093100Y085669I000283J000040*
X-092815Y085384I000285*
X-092776Y085387J000285*
G01Y085630*
X-092532*
G03X-092530Y085669I000283J000039*
X-092815Y085955I000285*
X-092854Y085952J000286*
G01X-079685Y084732D02*
X-079409D01*
Y085283*
X-079685*
Y084732*
X-078858D02*
X-078583D01*
Y085283*
X-078858*
Y084732*
X-078189D02*
X-077913D01*
Y085283*
X-078189*
Y084732*
X-077598D02*
X-077323D01*
Y085283*
X-077598*
Y084732*
X-077087D02*
X-076811D01*
Y085283*
X-077087*
Y084732*
X-076614D02*
X-076339D01*
Y085283*
X-076614*
Y084732*
X-006929Y-000433D02*
X-006654D01*
Y000118*
X-006929*
Y-000433*
X-006457D02*
X-006181D01*
Y000118*
X-006457*
Y-000433*
X-005945D02*
X-005669D01*
Y000118*
X-005945*
Y-000433*
X-005354D02*
X-005079D01*
Y000118*
X-005354*
Y-000433*
X-004685D02*
X-004409D01*
Y000118*
X-004685*
Y-000433*
X-003858D02*
X-003583D01*
Y000118*
X-003858*
Y-000433*
X007992Y085387D02*
Y085630D01*
X007749*
G02X007746Y085669I000282J000039*
X008031Y085955I000285*
X008071Y085952J000286*
G01Y085709*
X008314*
G02X008317Y085669I000283J000040*
X008031Y085384I000286*
X007992Y085387J000285*
G01Y085952D02*
Y085709D01*
X007749*
G03X007746Y085669I000282J000040*
X008031Y085384I000285*
X008071Y085387J000285*
G01Y085630*
X008314*
G03X008317Y085669I000283J000039*
X008031Y085955I000286*
X007992Y085952J000286*
G37*
G54D10*
G01X-097480Y086339D02*
Y-000591D01*
G03X-096693Y-001704I001181*
G01X-095619Y-001987*
G03X-095465Y-002008I000154J000570*
G01X007995*
G03X008151Y-001987J000591*
G01X009213Y-001704*
G03X010000Y-000591I000394J001113*
G01Y086339*
G03X009213Y087452I001181*
G01X008142Y087736*
G03X007992Y087756I000151J000570*
G01X-095465*
G03X-095467I000002J000591*
X-095618Y087736J000591*
G01X-096693Y087452*
G03X-097480Y086339I000394J001113*
G54D11*
G01X-056494Y086634D02*
Y085650D01*
X-056055*
X-055366Y086157D02*
X-055439Y086246D01*
X-055512Y086291*
X-055627*
X-055700Y086246*
X-055773Y086157*
X-055805Y086022*
Y085918*
X-055773Y085784*
X-055700Y085694*
X-055627Y085650*
X-055512*
X-055439Y085694*
X-055366Y085784*
Y086291D02*
Y085650D01*
X-055084Y086291D02*
X-054886Y085650D01*
X-054677Y086291D02*
X-054886Y085650D01*
X-054949Y085456*
X-055022Y085366*
X-055084Y085322*
X-055116*
X-054427Y086022D02*
X-053988D01*
Y086112*
X-054020Y086201*
X-054061Y086246*
X-054134Y086291*
X-054249*
X-054322Y086246*
X-054395Y086157*
X-054427Y086022*
Y085918*
X-054395Y085784*
X-054322Y085694*
X-054249Y085650*
X-054134*
X-054061Y085694*
X-053988Y085784*
X-053738Y086022D02*
X-053686Y086157D01*
X-053581Y086246*
X-053466Y086291*
X-053299*
X-053738D02*
Y085650D01*
X-052360Y086634D02*
X-051921D01*
X-052141D02*
Y085650D01*
X-051514Y086634D02*
X-051566Y086574D01*
X-051619Y086485*
X-051650Y086395*
X-051671Y086261*
Y086022*
X-051650Y085888*
X-051619Y085784*
X-051566Y085694*
X-051514Y085650*
X-051399*
X-051347Y085694*
X-051285Y085784*
X-051264Y085888*
X-051232Y086022*
Y086261*
X-051264Y086395*
X-051285Y086485*
X-051347Y086574*
X-051399Y086634*
X-051514*
X-050982Y085650D02*
Y086634D01*
X-050700*
X-050606Y086574*
X-050575Y086529*
X-050543Y086440*
Y086306*
X-050575Y086201*
X-050606Y086157*
X-050700Y086112*
X-050982*
X-047832Y085650D02*
Y086634D01*
X-047550*
X-047456Y086574*
X-047425Y086529*
X-047394Y086440*
Y086306*
X-047425Y086201*
X-047456Y086157*
X-047550Y086112*
X-047832*
X-047143Y085650D02*
Y086634D01*
X-046924Y085650*
X-046705Y086634*
Y085650*
X-039367Y086157D02*
X-039085D01*
X-038991Y086112*
X-038960Y086067*
X-038929Y085978*
Y085829*
X-038960Y085739*
X-038991Y085694*
X-039085Y085650*
X-039367*
Y086634*
X-039085*
X-038991Y086574*
X-038960Y086529*
X-038929Y086440*
Y086350*
X-038960Y086261*
X-038991Y086201*
X-039085Y086157*
X-038678Y085650D02*
Y086634D01*
X-038396*
X-038302Y086574*
X-038271Y086529*
X-038240Y086440*
Y086350*
X-038271Y086261*
X-038302Y086201*
X-038396Y086157*
X-038678*
X-038459D02*
X-038240Y085650D01*
X-037989Y086634D02*
X-037770D01*
X-037676Y086574*
X-037613Y086485*
X-037582Y086395*
X-037551Y086261*
Y086022*
X-037582Y085888*
X-037613Y085784*
X-037676Y085694*
X-037770Y085650*
X-037989*
Y086634*
X-037133Y086440D02*
X-037092Y086485D01*
X-037039Y086619*
Y085650*
X-036580Y086395D02*
Y086440D01*
X-036549Y086529*
X-036517Y086574*
X-036455Y086634*
X-036329*
X-036267Y086574*
X-036236Y086529*
X-036204Y086440*
Y086350*
X-036236Y086261*
X-036298Y086112*
X-036611Y085650*
X-036173*
X-035755Y086440D02*
X-035714Y086485D01*
X-035661Y086619*
Y085650*
X-034941Y086619D02*
Y085650D01*
Y086619D02*
X-035233Y085978D01*
X-034795*
X-034106Y086306D02*
X-034137Y086157D01*
X-034200Y086067*
X-034315Y086022*
X-034346*
X-034451Y086067*
X-034513Y086157*
X-034544Y086306*
Y086350*
X-034513Y086485*
X-034451Y086574*
X-034346Y086619*
X-034315*
X-034200Y086574*
X-034137Y086485*
X-034106Y086306*
Y086067*
X-034137Y085829*
X-034200Y085694*
X-034315Y085650*
X-034377*
X-034482Y085694*
X-034513Y085784*
X-033448Y086485D02*
X-033480Y086574D01*
X-033584Y086619*
X-033657*
X-033762Y086574*
X-033824Y086440*
X-033855Y086201*
Y085978*
X-033824Y085784*
X-033762Y085694*
X-033657Y085650*
X-033626*
X-033521Y085694*
X-033448Y085784*
X-033417Y085918*
Y085978*
X-033448Y086112*
X-033521Y086201*
X-033626Y086246*
X-033657*
X-033762Y086201*
X-033824Y086112*
X-033855Y085978*
X-033010Y086619D02*
X-033104Y086574D01*
X-033135Y086485*
Y086395*
X-033104Y086291*
X-033041Y086246*
X-032916Y086201*
X-032822Y086157*
X-032759Y086067*
X-032728Y085978*
Y085829*
X-032759Y085739*
X-032791Y085694*
X-032885Y085650*
X-033010*
X-033104Y085694*
X-033135Y085739*
X-033167Y085829*
Y085978*
X-033135Y086067*
X-033073Y086157*
X-032979Y086201*
X-032853Y086246*
X-032791Y086291*
X-032759Y086395*
Y086485*
X-032791Y086574*
X-032885Y086619*
X-033010*
X-032415D02*
X-032070D01*
X-032258Y086246*
X-032164*
X-032102Y086201*
X-032070Y086157*
X-032039Y086022*
Y085918*
X-032070Y085784*
X-032133Y085694*
X-032227Y085650*
X-032321*
X-032415Y085694*
X-032446Y085739*
X-032478Y085829*
X-030912Y086619D02*
X-031006Y086574D01*
X-031068Y086440*
X-031100Y086201*
Y086067*
X-031068Y085829*
X-031006Y085694*
X-030912Y085650*
X-030849*
X-030755Y085694*
X-030693Y085829*
X-030661Y086067*
Y086201*
X-030693Y086440*
X-030755Y086574*
X-030849Y086619*
X-030912*
X-030118D02*
X-030411Y085978D01*
X-029972*
X-030118Y086619D02*
Y085650D01*
X-029033D02*
Y086634D01*
X-028751*
X-028657Y086574*
X-028626Y086529*
X-028594Y086440*
Y086306*
X-028626Y086201*
X-028657Y086157*
X-028751Y086112*
X-029033*
X-028344Y085650D02*
Y086634D01*
X-027905Y085650*
Y086634*
X-027655D02*
Y085650D01*
X-027216*
X-026110Y086440D02*
X-026068Y086485D01*
X-026016Y086619*
Y085650*
X-025557Y086395D02*
Y086440D01*
X-025525Y086529*
X-025494Y086574*
X-025431Y086634*
X-025306*
X-025243Y086574*
X-025212Y086529*
X-025181Y086440*
Y086350*
X-025212Y086261*
X-025275Y086112*
X-025588Y085650*
X-025150*
X-024732Y086440D02*
X-024690Y086485D01*
X-024638Y086619*
Y085650*
X-023834Y086619D02*
X-024147D01*
X-024179Y086201*
X-024147Y086246*
X-024053Y086291*
X-023959*
X-023866Y086246*
X-023803Y086157*
X-023772Y086022*
Y085918*
X-023803Y085784*
X-023866Y085694*
X-023959Y085650*
X-024053*
X-024147Y085694*
X-024179Y085739*
X-024210Y085829*
X-023229Y086619D02*
X-023521Y085978D01*
X-023083*
X-023229Y086619D02*
Y085650D01*
X-022665Y086440D02*
X-022623Y086485D01*
X-022571Y086619*
Y085650*
X-022143Y086619D02*
X-021705D01*
X-022018Y085650*
X-021298Y086619D02*
X-021392Y086574D01*
X-021423Y086485*
Y086395*
X-021392Y086291*
X-021329Y086246*
X-021204Y086201*
X-021110Y086157*
X-021047Y086067*
X-021016Y085978*
Y085829*
X-021047Y085739*
X-021078Y085694*
X-021172Y085650*
X-021298*
X-021392Y085694*
X-021423Y085739*
X-021454Y085829*
Y085978*
X-021423Y086067*
X-021360Y086157*
X-021266Y086201*
X-021141Y086246*
X-021078Y086291*
X-021047Y086395*
Y086485*
X-021078Y086574*
X-021172Y086619*
X-021298*
X-019888D02*
X-019982Y086574D01*
X-020045Y086440*
X-020076Y086201*
Y086067*
X-020045Y085829*
X-019982Y085694*
X-019888Y085650*
X-019826*
X-019732Y085694*
X-019669Y085829*
X-019638Y086067*
Y086201*
X-019669Y086440*
X-019732Y086574*
X-019826Y086619*
X-019888*
X-019095D02*
X-019387Y085978D01*
X-018949*
X-019095Y086619D02*
Y085650D01*
X-000591Y000000D02*
X000591D01*
X000000Y000591D02*
Y-000591D01*
G54D12*
X-088563Y025874D03*
Y068988D03*
X-088209Y025874D03*
Y068988D03*
X-079331Y030008D03*
Y073122D03*
X-078976Y030008D03*
Y073122D03*
X-065925Y023630D03*
Y066744D03*
X-065571Y023630D03*
Y066744D03*
X-059547Y036740D03*
Y079854D03*
X-059193Y036740D03*
Y079854D03*
X-058760Y036740D03*
Y079854D03*
X-058406Y036740D03*
Y079854D03*
X-052224Y005768D03*
Y048882D03*
X-051870Y005768D03*
Y048882D03*
X-051516Y005768D03*
Y048882D03*
X-051161Y005768D03*
Y048882D03*
X-047461Y035874D03*
Y078988D03*
X-047303Y029654D03*
Y030205D03*
Y072768D03*
Y073319D03*
X-047106Y035874D03*
Y078988D03*
X-046949Y029654D03*
Y030205D03*
Y072768D03*
Y073319D03*
X-046516Y035874D03*
Y078988D03*
X-046161Y035874D03*
Y078988D03*
X-042028Y005795D03*
Y048909D03*
X-041673Y005795D03*
Y048909D03*
X-041240Y011465D03*
Y012016D03*
Y054579D03*
Y055130D03*
X-041083Y005795D03*
Y048909D03*
X-040886Y011465D03*
Y012016D03*
Y054579D03*
Y055130D03*
X-040728Y005795D03*
Y048909D03*
X-037028Y035902D03*
Y079016D03*
X-036673Y035902D03*
Y079016D03*
X-036319Y035902D03*
Y079016D03*
X-035965Y035902D03*
Y079016D03*
X-029783Y004929D03*
Y048043D03*
X-029429Y004929D03*
Y048043D03*
X-028996Y004929D03*
Y048043D03*
X-028642Y004929D03*
Y048043D03*
X-022618Y018039D03*
Y061154D03*
X-022264Y018039D03*
Y061154D03*
X-009213Y011661D03*
Y054776D03*
X-008858Y011661D03*
Y054776D03*
X000020Y015795D03*
Y058909D03*
X000374Y015795D03*
Y058909D03*
G54D13*
X-077244Y024330D03*
Y024684D03*
Y067444D03*
Y067798D03*
X-076654Y033610D03*
Y033965D03*
Y076724D03*
Y077079D03*
X-076220Y033610D03*
Y033965D03*
Y076724D03*
Y077079D03*
X-066772Y010933D03*
Y011287D03*
Y011720D03*
Y012075D03*
Y054047D03*
Y054402D03*
Y054835D03*
Y055189D03*
X-064961Y023531D03*
Y023886D03*
Y066646D03*
Y067000D03*
X-064449Y023531D03*
Y023886D03*
Y066646D03*
Y067000D03*
X-056063Y019004D03*
Y019358D03*
Y062118D03*
Y062472D03*
X-055630Y018994D03*
Y019348D03*
Y062108D03*
Y062463D03*
X-051929Y027016D03*
Y027370D03*
Y070130D03*
Y070484D03*
X-046063Y023807D03*
Y024161D03*
Y066921D03*
Y067276D03*
X-045630Y023807D03*
Y024161D03*
Y066921D03*
Y067276D03*
X-042559Y017508D03*
Y017862D03*
Y060622D03*
Y060976D03*
X-042126Y017508D03*
Y017862D03*
Y060622D03*
Y060976D03*
X-036260Y014299D03*
Y014654D03*
Y057413D03*
Y057768D03*
X-032559Y022321D03*
Y022675D03*
Y065435D03*
Y065789D03*
X-032126Y022311D03*
Y022665D03*
Y065425D03*
Y065780D03*
X-023740Y017783D03*
Y018138D03*
Y060898D03*
Y061252D03*
X-023228Y017783D03*
Y018138D03*
Y060898D03*
Y061252D03*
X-021417Y029594D03*
Y029949D03*
Y030382D03*
Y030736D03*
Y072709D03*
Y073063D03*
Y073496D03*
Y073850D03*
X-011969Y007705D03*
Y008059D03*
Y050819D03*
Y051173D03*
X-011535Y007705D03*
Y008059D03*
Y050819D03*
Y051173D03*
X-010945Y016985D03*
Y017340D03*
Y060100D03*
Y060454D03*
G54D14*
X-087520Y026976D03*
Y027528D03*
Y070091D03*
Y070642D03*
X-079154Y030598D03*
Y031150D03*
Y073713D03*
Y074264D03*
X-077323Y026622D03*
Y027173D03*
Y069736D03*
Y070287D03*
X-063228Y007370D03*
Y007921D03*
Y008354D03*
Y008906D03*
Y050484D03*
Y051035D03*
Y051469D03*
Y052020D03*
X-062795Y026583D03*
Y027134D03*
Y069697D03*
Y070248D03*
X-062205Y026583D03*
Y027134D03*
Y069697D03*
Y070248D03*
X-059567Y027291D03*
Y027843D03*
Y070406D03*
Y070957D03*
X-058976Y027291D03*
Y027843D03*
Y070406D03*
Y070957D03*
X-057181Y025717D03*
Y026268D03*
Y068831D03*
Y069382D03*
X-054764Y026937D03*
Y027488D03*
Y070051D03*
Y070602D03*
X-050512Y014457D03*
Y015008D03*
Y057571D03*
Y058122D03*
X-050315Y009299D03*
Y009850D03*
Y052413D03*
Y052965D03*
X-037874Y031819D03*
Y032370D03*
Y074933D03*
Y075484D03*
X-037677Y026661D03*
Y027213D03*
Y069776D03*
Y070327D03*
X-033425Y014181D03*
Y014732D03*
Y057295D03*
Y057846D03*
X-031008Y015402D03*
Y015953D03*
Y058516D03*
Y059067D03*
X-029213Y013827D03*
Y014378D03*
Y056941D03*
Y057492D03*
X-028622Y013827D03*
Y014378D03*
Y056941D03*
Y057492D03*
X-025984Y014535D03*
Y015087D03*
Y057650D03*
Y058201D03*
X-025394Y014535D03*
Y015087D03*
Y057650D03*
Y058201D03*
X-024961Y032764D03*
Y033315D03*
Y033748D03*
Y034299D03*
Y075878D03*
Y076429D03*
Y076862D03*
Y077413D03*
X-010866Y014496D03*
Y015047D03*
Y057610D03*
Y058161D03*
X-009035Y010520D03*
Y011071D03*
Y053634D03*
Y054185D03*
X-000669Y014142D03*
Y014693D03*
Y057256D03*
Y057807D03*
G54D15*
X-090433Y023531D03*
Y024280D03*
Y066646D03*
Y067394D03*
X-089488Y023906D03*
Y067020D03*
X-081535Y026780D03*
Y069894D03*
X-080591Y026406D03*
Y027154D03*
Y069520D03*
Y070268D03*
X-076575Y017055D03*
Y060169D03*
X-075630Y016681D03*
Y017429D03*
Y059795D03*
Y060543D03*
X-073031Y026780D03*
Y069894D03*
X-072087Y026406D03*
Y027154D03*
Y069520D03*
Y070268D03*
X-068701Y017055D03*
Y060169D03*
X-067756Y016681D03*
Y017429D03*
Y059795D03*
Y060543D03*
X-062598Y006484D03*
Y007232D03*
Y049598D03*
Y050346D03*
X-062126Y008138D03*
Y008886D03*
Y051252D03*
Y052000D03*
X-061654Y006858D03*
Y049972D03*
X-061181Y008512D03*
Y051626D03*
X-060118Y008413D03*
Y009161D03*
Y051528D03*
Y052276D03*
X-059173Y008787D03*
Y051902D03*
X-029016Y032882D03*
Y075996D03*
X-028071Y032508D03*
Y033256D03*
Y075622D03*
Y076370D03*
X-027008Y033157D03*
Y076272D03*
X-026535Y034811D03*
Y077925D03*
X-026063Y032783D03*
Y033531D03*
Y075898D03*
Y076646D03*
X-025591Y034437D03*
Y035185D03*
Y077551D03*
Y078299D03*
X-020433Y024240D03*
Y024988D03*
Y067354D03*
Y068102D03*
X-019488Y024614D03*
Y067728D03*
X-016102Y014516D03*
Y015264D03*
Y057630D03*
Y058378D03*
X-015157Y014890D03*
Y058004D03*
X-012559Y024240D03*
Y024988D03*
Y067354D03*
Y068102D03*
X-011614Y024614D03*
Y067728D03*
X-007598Y014516D03*
Y015264D03*
Y057630D03*
Y058378D03*
X-006654Y014890D03*
Y058004D03*
X001299Y017764D03*
Y060878D03*
X002244Y017390D03*
Y018138D03*
Y060504D03*
Y061252D03*
G54D16*
X-091102Y027528D03*
Y070642D03*
X-090551Y027528D03*
Y070642D03*
X-088583Y024732D03*
Y025323D03*
Y067846D03*
Y068437D03*
X-088189Y029811D03*
Y072925D03*
X-088031Y024732D03*
Y025323D03*
Y067846D03*
Y068437D03*
X-087638Y029811D03*
Y072925D03*
X-077244Y029772D03*
Y030362D03*
Y030953D03*
Y072886D03*
Y073476D03*
Y074067D03*
X-077165Y014890D03*
Y058004D03*
X-076693Y029772D03*
Y030362D03*
Y030953D03*
Y072886D03*
Y073476D03*
Y074067D03*
X-076614Y014890D03*
Y058004D03*
X-076417Y010559D03*
Y053673D03*
X-075866Y010559D03*
Y053673D03*
X-073661Y011819D03*
Y054933D03*
X-073110Y011819D03*
Y054933D03*
X-070236Y014890D03*
Y058004D03*
X-069685Y014890D03*
Y058004D03*
X-064449Y012843D03*
Y055957D03*
X-063898Y012843D03*
Y055957D03*
X-062835Y009535D03*
Y052650D03*
X-062283Y009535D03*
Y052650D03*
X-061772Y009535D03*
Y052650D03*
X-061220Y009535D03*
Y052650D03*
X-061063Y007882D03*
Y050996D03*
X-060827Y035953D03*
Y079067D03*
X-060787Y014890D03*
Y058004D03*
X-060591Y007016D03*
Y050130D03*
X-060512Y007882D03*
Y050996D03*
X-060276Y035953D03*
Y079067D03*
X-060236Y014890D03*
Y058004D03*
X-060039Y007016D03*
Y050130D03*
X-057551Y026898D03*
Y070012D03*
X-057000Y026898D03*
Y070012D03*
X-053622Y010520D03*
Y011228D03*
Y053634D03*
Y054343D03*
X-053268Y025047D03*
Y068161D03*
X-053110Y027437D03*
Y070551D03*
X-053071Y010520D03*
Y011228D03*
Y053634D03*
Y054343D03*
X-052717Y025047D03*
Y031976D03*
Y068161D03*
Y075091D03*
X-052559Y027437D03*
Y070551D03*
X-052165Y031976D03*
Y075091D03*
X-052087Y014457D03*
Y057571D03*
X-051535Y014457D03*
Y057571D03*
X-051220Y031976D03*
Y075091D03*
X-051181Y035953D03*
Y079067D03*
X-050669Y031976D03*
Y075091D03*
X-050630Y035953D03*
Y079067D03*
X-049114Y031976D03*
Y075091D03*
X-048563Y031976D03*
Y075091D03*
X-046181Y007724D03*
Y050839D03*
X-045866Y009102D03*
Y052217D03*
X-045630Y007724D03*
Y050839D03*
X-045315Y009102D03*
Y052217D03*
X-042874Y032567D03*
Y075681D03*
X-042559Y033945D03*
Y077059D03*
X-042323Y032567D03*
Y075681D03*
X-042008Y033945D03*
Y077059D03*
X-039626Y009693D03*
Y052807D03*
X-039075Y009693D03*
Y052807D03*
X-037559Y005717D03*
Y048831D03*
X-037520Y009693D03*
Y052807D03*
X-037008Y005717D03*
Y048831D03*
X-036969Y009693D03*
Y052807D03*
X-036654Y027213D03*
Y070327D03*
X-036102Y027213D03*
Y070327D03*
X-036024Y009693D03*
Y052807D03*
X-035630Y014232D03*
Y057346D03*
X-035472Y009693D03*
Y016622D03*
Y052807D03*
Y059736D03*
X-035118Y030441D03*
Y031150D03*
Y073555D03*
Y074264D03*
X-035079Y014232D03*
Y057346D03*
X-034921Y016622D03*
Y059736D03*
X-034567Y030441D03*
Y031150D03*
Y073555D03*
Y074264D03*
X-031189Y014772D03*
Y057886D03*
X-030638Y014772D03*
Y057886D03*
X-028150Y034654D03*
Y077768D03*
X-027953Y026780D03*
Y069894D03*
X-027913Y005717D03*
Y048831D03*
X-027677Y033787D03*
Y076902D03*
X-027598Y034654D03*
Y077768D03*
X-027402Y026780D03*
Y069894D03*
X-027362Y005717D03*
Y048831D03*
X-027126Y033787D03*
Y076902D03*
X-026969Y032134D03*
Y075248D03*
X-026417Y032134D03*
Y075248D03*
X-025906Y032134D03*
Y075248D03*
X-025354Y032134D03*
Y075248D03*
X-024291Y028827D03*
Y071941D03*
X-023740Y028827D03*
Y071941D03*
X-018504Y026780D03*
Y069894D03*
X-017953Y026780D03*
Y069894D03*
X-015079Y029850D03*
Y072965D03*
X-014528Y029850D03*
Y072965D03*
X-012323Y031110D03*
Y074224D03*
X-011772Y031110D03*
Y074224D03*
X-011575Y026780D03*
Y069894D03*
X-011496Y010717D03*
Y011307D03*
Y011898D03*
Y053831D03*
Y054421D03*
Y055012D03*
X-011024Y026780D03*
Y069894D03*
X-010945Y010717D03*
Y011307D03*
Y011898D03*
Y053831D03*
Y054421D03*
Y055012D03*
X-000551Y011858D03*
Y054972D03*
X-000157Y016346D03*
Y016937D03*
Y059461D03*
Y060051D03*
X000000Y011858D03*
Y054972D03*
X000394Y016346D03*
Y016937D03*
Y059461D03*
Y060051D03*
X002362Y014142D03*
Y057256D03*
X002913Y014142D03*
Y057256D03*
G54D17*
X-088498Y014318D03*
Y057432D03*
X-087679Y013580D03*
Y056694D03*
X-087207Y015751D03*
Y058866D03*
X-086798Y015383D03*
Y058497D03*
X-086388Y015014D03*
Y058128D03*
X-001801Y026656D03*
Y069770D03*
X-001391Y026287D03*
Y069401D03*
X-000981Y025918D03*
Y069032D03*
X-000510Y028089D03*
Y071203D03*
X000309Y027352D03*
Y070466D03*
G54D18*
X-088089Y013949D03*
Y057063D03*
X-000100Y027720D03*
Y070835D03*
G54D19*
X-091043Y025047D03*
Y068161D03*
X-090669Y025992D03*
Y069106D03*
X-090295Y025047D03*
Y068161D03*
X-088996Y027528D03*
Y070642D03*
X-088622Y026583D03*
Y069697D03*
X-088248Y027528D03*
Y070642D03*
X-068839Y014772D03*
Y057886D03*
X-068465Y015717D03*
Y058831D03*
X-068091Y014772D03*
Y057886D03*
X-067106Y014575D03*
Y017252D03*
Y057689D03*
Y060366D03*
X-066831Y024811D03*
Y067925D03*
X-066732Y015520D03*
Y016307D03*
Y058634D03*
Y059421D03*
X-066457Y025756D03*
Y068870D03*
X-066358Y014575D03*
Y017252D03*
Y057689D03*
Y060366D03*
X-066083Y024811D03*
Y067925D03*
X-053445Y036701D03*
Y079815D03*
X-053071Y035756D03*
Y078870D03*
X-052697Y036701D03*
Y079815D03*
X-049705Y015165D03*
Y058280D03*
X-049331Y014220D03*
Y057335D03*
X-048957Y015165D03*
Y058280D03*
X-046657Y034378D03*
Y077492D03*
X-046283Y033433D03*
Y076547D03*
X-045909Y034378D03*
Y077492D03*
X-042280Y007291D03*
Y050406D03*
X-041906Y008236D03*
Y051350D03*
X-041531Y007291D03*
Y050406D03*
X-039232Y026504D03*
Y069618D03*
X-038858Y027449D03*
Y070563D03*
X-038484Y026504D03*
Y069618D03*
X-035492Y004969D03*
Y048083D03*
X-035118Y005913D03*
Y049028D03*
X-034744Y004969D03*
Y048083D03*
X-022106Y016858D03*
Y059972D03*
X-021831Y024417D03*
Y027094D03*
Y067531D03*
Y070209D03*
X-021732Y015913D03*
Y059028D03*
X-021457Y025362D03*
Y026150D03*
Y068476D03*
Y069264D03*
X-021358Y016858D03*
Y059972D03*
X-021083Y024417D03*
Y027094D03*
Y067531D03*
Y070209D03*
X-020098Y026898D03*
Y070012D03*
X-019724Y025953D03*
Y069067D03*
X-019350Y026898D03*
Y070012D03*
X000059Y014142D03*
Y057256D03*
X000433Y015087D03*
Y058201D03*
X000807Y014142D03*
Y057256D03*
X002106Y016622D03*
Y059736D03*
X002480Y015677D03*
Y058791D03*
X002854Y016622D03*
Y059736D03*
G54D20*
X-093504Y026780D03*
Y069894D03*
X-084449Y026780D03*
Y069894D03*
X-081299Y014890D03*
Y058004D03*
X-075394Y026780D03*
Y069894D03*
X-072244Y014890D03*
Y058004D03*
X-063189Y014890D03*
Y058004D03*
X-025000Y026780D03*
Y069894D03*
X-015945Y026780D03*
Y069894D03*
X-012795Y014890D03*
Y058004D03*
X-006890Y026780D03*
Y069894D03*
X-003740Y014890D03*
Y058004D03*
X005315Y014890D03*
Y058004D03*
G54D21*
X-062581Y029580D03*
Y072694D03*
X-062030Y029580D03*
Y072694D03*
X-059674Y029580D03*
Y072694D03*
X-059123Y029580D03*
Y072694D03*
X-050793Y012090D03*
Y055204D03*
X-050228Y012090D03*
Y055204D03*
X-047869Y012090D03*
Y055204D03*
X-047294Y012090D03*
Y055204D03*
X-040895Y029580D03*
Y072694D03*
X-040320Y029580D03*
Y072694D03*
X-037961Y029580D03*
Y072694D03*
X-037396Y029580D03*
Y072694D03*
X-029066Y012089D03*
Y055203D03*
X-028515Y012089D03*
Y055203D03*
X-026159Y012089D03*
Y055203D03*
X-025608Y012089D03*
Y055203D03*
G54D22*
X-062581Y030043D03*
Y073157D03*
X-062030Y030043D03*
Y073157D03*
X-059674Y030043D03*
Y073157D03*
X-059123Y030043D03*
Y073157D03*
X-050793Y011627D03*
Y054741D03*
X-050228Y011627D03*
Y054741D03*
X-047869Y011627D03*
Y054741D03*
X-047294Y011627D03*
Y054741D03*
X-040895Y030042D03*
Y073156D03*
X-040320Y030042D03*
Y073156D03*
X-037961Y030042D03*
Y073156D03*
X-037396Y030042D03*
Y073156D03*
X-029066Y011626D03*
Y054741D03*
X-028515Y011626D03*
Y054741D03*
X-026159Y011626D03*
Y054741D03*
X-025608Y011626D03*
Y054741D03*
G54D23*
X-061009Y033985D03*
Y077099D03*
X-060222Y033985D03*
Y077099D03*
X-050391Y033985D03*
Y077099D03*
X-049603Y033985D03*
Y077099D03*
X-049198Y007684D03*
Y050798D03*
X-048411Y007684D03*
Y050798D03*
X-039778Y033985D03*
Y077099D03*
X-038991Y033985D03*
Y077099D03*
X-038586Y007684D03*
Y050798D03*
X-037798Y007684D03*
Y050798D03*
X-027967Y007684D03*
Y050798D03*
X-027180Y007684D03*
Y050798D03*
G54D24*
X-092628Y024063D03*
Y024772D03*
Y067177D03*
Y067886D03*
X-088740Y023394D03*
Y024102D03*
Y066508D03*
Y067217D03*
X000551Y017567D03*
Y018276D03*
Y060681D03*
Y061390D03*
X004439Y016898D03*
Y017606D03*
Y060012D03*
Y060720D03*
G54D25*
X-053612Y025677D03*
Y026780D03*
Y068791D03*
Y069894D03*
X-053356Y025677D03*
Y026780D03*
Y068791D03*
Y069894D03*
X-053100Y025677D03*
Y026780D03*
Y068791D03*
Y069894D03*
X-052844Y025677D03*
Y026780D03*
Y068791D03*
Y069894D03*
X-035344Y014890D03*
Y015992D03*
Y058004D03*
Y059106D03*
X-035089Y014890D03*
Y015992D03*
Y058004D03*
Y059106D03*
X-034833Y014890D03*
Y015992D03*
Y058004D03*
Y059106D03*
X-034577Y014890D03*
Y015992D03*
Y058004D03*
Y059106D03*
G54D26*
X-053228Y026228D03*
Y069343D03*
X-034961Y015441D03*
Y058555D03*
G54D70*
X-091577Y029792D03*
Y072906D03*
X-091273Y011247D03*
Y054361D03*
X-090317Y029792D03*
Y072906D03*
X-090013Y011247D03*
Y054361D03*
X-082548Y029931D03*
Y073046D03*
X-081289Y029931D03*
Y073046D03*
X-079842Y011766D03*
Y054880D03*
X-078582Y011766D03*
Y054880D03*
X-073500Y029883D03*
Y072998D03*
X-072240Y029883D03*
Y072998D03*
X-070846Y011776D03*
Y054890D03*
X-069587Y011776D03*
Y054890D03*
X-061654Y011820D03*
Y054934D03*
X-060394Y011820D03*
Y054934D03*
X-051941Y029845D03*
Y072959D03*
X-050681Y029845D03*
Y072959D03*
X-049342Y029845D03*
Y072959D03*
X-048082Y029845D03*
Y072959D03*
X-040107Y011824D03*
Y054938D03*
X-038847Y011824D03*
Y054938D03*
X-037508Y011824D03*
Y054938D03*
X-036248Y011824D03*
Y054938D03*
X-027795Y029850D03*
Y072964D03*
X-026535Y029850D03*
Y072964D03*
X-018602Y029893D03*
Y073007D03*
X-017343Y029893D03*
Y073007D03*
X-015949Y011786D03*
Y054900D03*
X-014689Y011786D03*
Y054900D03*
X-009607Y029904D03*
Y073018D03*
X-008347Y029904D03*
Y073018D03*
X-006900Y011738D03*
Y054852D03*
X-005641Y011738D03*
Y054852D03*
X001824Y030422D03*
Y073536D03*
X002128Y011877D03*
Y054991D03*
X003084Y030422D03*
Y073536D03*
X003388Y011877D03*
Y054991D03*
G54D71*
X-093041Y026780D03*
Y069894D03*
X-083986Y026780D03*
Y069894D03*
X-081762Y014890D03*
Y058004D03*
X-074931Y026780D03*
Y069894D03*
X-072707Y014890D03*
Y058004D03*
X-063652Y014890D03*
Y058004D03*
X-024537Y026780D03*
Y069894D03*
X-015482Y026780D03*
Y069894D03*
X-013258Y014890D03*
Y058004D03*
X-006427Y026780D03*
Y069894D03*
X-004203Y014890D03*
Y058004D03*
X004852Y014890D03*
Y058004D03*
M02*
