*
G04 Job   : N:\Projects\COMUN\Opel\ICP_OV64-OV85\1-Main_PCB\12149683-12\Panel_12154178\12154178.pnl*
G04 User  : ESSECAE005:montel01*
G04 Layer : SolderPasteBot.gbr*
G04 Date  : Fri Nov 22 08:51:19 2024*
G04 Expedition Layer: Solder Paste - Bottom*
%ICAS*%
%MOIN*%
%FSDAX24Y24*%
%OFA0.0000B0.0000*%
G90*
G74*
%AMVB_RECTANGLE*
21,1,$1,$2,0,0,$3*
%
%AMVB_RCRECTANGLE*
$3=$3X2*
21,1,$1-$3,$2,0,0,0*
21,1,$1,$2-$3,0,0,0*
$1=$1/2*
$2=$2/2*
$3=$3/2*
$1=$1-$3*
$2=$2-$3*
1,1,$3X2,0-$1,0-$2*
1,1,$3X2,0-$1,$2*
1,1,$3X2,$1,$2*
1,1,$3X2,$1,0-$2*
%
%ADD11C,0.00787*%
%ADD10C,0.03937*%
%ADD39VB_RECTANGLE,0.06693X0.15748X180.00000*%
%ADD27VB_RECTANGLE,0.10630X0.04528X0.00000*%
%ADD45VB_RCRECTANGLE,0.01575X0.01969X0.00197*%
%ADD19VB_RCRECTANGLE,0.02756X0.01969X0.00197*%
%ADD71VB_RCRECTANGLE,0.01969X0.02756X0.00197*%
%ADD33VB_RCRECTANGLE,0.03150X0.01575X0.00197*%
%ADD41VB_RCRECTANGLE,0.02362X0.03150X0.00197*%
%ADD38VB_RCRECTANGLE,0.03937X0.00984X0.00197*%
%ADD37VB_RCRECTANGLE,0.00984X0.03937X0.00197*%
%ADD17VB_RCRECTANGLE,0.03937X0.01575X0.00197*%
%ADD15VB_RCRECTANGLE,0.01575X0.03937X0.00197*%
%ADD13VB_RCRECTANGLE,0.03937X0.02756X0.00197*%
%ADD12VB_RCRECTANGLE,0.02756X0.03937X0.00197*%
%ADD43VB_RCRECTANGLE,0.03150X0.03937X0.00197*%
%ADD14VB_RCRECTANGLE,0.04724X0.03150X0.00197*%
%ADD70VB_RCRECTANGLE,0.03150X0.04724X0.00197*%
%ADD40VB_RCRECTANGLE,0.05118X0.03150X0.00197*%
%ADD23VB_RCRECTANGLE,0.03150X0.05118X0.00197*%
%ADD44VB_RCRECTANGLE,0.03543X0.05512X0.00197*%
%ADD30VB_RCRECTANGLE,0.05512X0.04724X0.00197*%
%ADD73VB_RCRECTANGLE,0.05906X0.01181X0.00197*%
%ADD72VB_RCRECTANGLE,0.01181X0.05906X0.00197*%
%ADD22VB_RCRECTANGLE,0.05906X0.03150X0.00197*%
%ADD20VB_RCRECTANGLE,0.03150X0.05906X0.00197*%
%ADD28VB_RCRECTANGLE,0.02362X0.06102X0.00197*%
%ADD36VB_RCRECTANGLE,0.06299X0.00984X0.00197*%
%ADD25VB_RCRECTANGLE,0.05118X0.06693X0.00197*%
%ADD29VB_RCRECTANGLE,0.04724X0.07087X0.00197*%
%ADD16VB_RCRECTANGLE,0.07874X0.05118X0.00197*%
%ADD18VB_RCRECTANGLE,0.05118X0.07874X0.00197*%
%ADD31VB_RCRECTANGLE,0.09055X0.06299X0.00197*%
%ADD32VB_RCRECTANGLE,0.06299X0.09055X0.00197*%
%ADD34VB_RCRECTANGLE,0.05118X0.09843X0.00197*%
%ADD24VB_RCRECTANGLE,0.10630X0.06299X0.00197*%
%ADD46VB_RCRECTANGLE,0.06299X0.10630X0.00197*%
%ADD35VB_RCRECTANGLE,0.04724X0.11024X0.00197*%
%ADD42VB_RCRECTANGLE,0.15157X0.06299X0.00197*%
%ADD21VB_RCRECTANGLE,0.06299X0.15157X0.00197*%
%ADD26VB_RCRECTANGLE,0.06299X0.19685X0.00197*%
G01*
G36*
X-092854Y-000283D02*
G03X-092815Y-000285I000039J000283D01*
X-092530Y000000J000285*
X-092532Y000039I000285*
G01X-092776*
Y000283*
G03X-092815Y000285I000039J000283*
X-093100Y000000J000285*
X-093098Y-000039I000285*
G01X-092854*
Y-000283*
Y000283D02*
Y000039D01*
X-093098*
G03X-093100Y000000I000283J000039*
X-092815Y-000285I000285*
X-092776Y-000283J000285*
G01Y-000039*
X-092532*
G03X-092530Y000000I000283J000039*
X-092815Y000285I000285*
X-092854Y000283J000285*
G01Y085387D02*
G03X-092815Y085384I000039J000282D01*
X-092530Y085669J000285*
X-092532Y085709I000285*
G01X-092776*
Y085952*
G03X-092815Y085955I000039J000283*
X-093100Y085669J000286*
X-093098Y085630I000285*
G01X-092854*
Y085387*
Y085952D02*
Y085709D01*
X-093098*
G03X-093100Y085669I000283J000040*
X-092815Y085384I000285*
X-092776Y085387J000285*
G01Y085630*
X-092532*
G03X-092530Y085669I000283J000039*
X-092815Y085955I000285*
X-092854Y085952J000286*
G01X-079685Y084732D02*
X-079409D01*
Y085283*
X-079685*
Y084732*
X-078858D02*
X-078583D01*
Y085283*
X-078858*
Y084732*
X-078189D02*
X-077913D01*
Y085283*
X-078189*
Y084732*
X-077598D02*
X-077323D01*
Y085283*
X-077598*
Y084732*
X-077087D02*
X-076811D01*
Y085283*
X-077087*
Y084732*
X-076614D02*
X-076339D01*
Y085283*
X-076614*
Y084732*
X-006929Y-000433D02*
X-006654D01*
Y000118*
X-006929*
Y-000433*
X-006457D02*
X-006181D01*
Y000118*
X-006457*
Y-000433*
X-005945D02*
X-005669D01*
Y000118*
X-005945*
Y-000433*
X-005354D02*
X-005079D01*
Y000118*
X-005354*
Y-000433*
X-004685D02*
X-004409D01*
Y000118*
X-004685*
Y-000433*
X-003858D02*
X-003583D01*
Y000118*
X-003858*
Y-000433*
X007992Y085387D02*
G03X008031Y085384I000039J000282D01*
X008317Y085669J000285*
X008314Y085709I000286*
G01X008071*
Y085952*
G03X008031Y085955I000040J000283*
X007746Y085669J000286*
X007749Y085630I000285*
G01X007992*
Y085387*
Y085952D02*
Y085709D01*
X007749*
G03X007746Y085669I000282J000040*
X008031Y085384I000285*
X008071Y085387J000285*
G01Y085630*
X008314*
G03X008317Y085669I000283J000039*
X008031Y085955I000286*
X007992Y085952J000286*
G37*
G54D10*
G01X-097480Y086339D02*
Y-000591D01*
G03X-096693Y-001704I001181*
G01X-095619Y-001987*
G03X-095465Y-002008I000154J000570*
G01X007995*
G03X008151Y-001987J000591*
G01X009213Y-001704*
G03X010000Y-000591I000394J001113*
G01Y086339*
G03X009213Y087452I001181*
G01X008142Y087736*
G03X007992Y087756I000151J000570*
G01X-095465*
G03X-095467I000002J000591*
X-095618Y087736J000591*
G01X-096693Y087452*
G03X-097480Y086339I000394J001113*
G54D11*
G01X-052699Y085650D02*
Y086634D01*
X-052919Y085650*
X-053138Y086634*
Y085650*
X-052010D02*
Y086634D01*
X-052292*
X-052386Y086574*
X-052417Y086529*
X-052449Y086440*
Y086306*
X-052417Y086201*
X-052386Y086157*
X-052292Y086112*
X-052010*
X-048686Y086634D02*
Y085650D01*
X-048467Y086634D02*
X-048905D01*
X-047935D02*
X-047882Y086574D01*
X-047830Y086485*
X-047799Y086395*
X-047778Y086261*
Y086022*
X-047799Y085888*
X-047830Y085784*
X-047882Y085694*
X-047935Y085650*
X-048049*
X-048102Y085694*
X-048164Y085784*
X-048185Y085888*
X-048216Y086022*
Y086261*
X-048185Y086395*
X-048164Y086485*
X-048102Y086574*
X-048049Y086634*
X-047935*
X-047089Y086157D02*
X-047371D01*
X-047465Y086112*
X-047496Y086067*
X-047527Y085978*
Y085829*
X-047496Y085739*
X-047465Y085694*
X-047371Y085650*
X-047089*
Y086634*
X-047371*
X-047465Y086574*
X-047496Y086529*
X-047527Y086440*
Y086350*
X-047496Y086261*
X-047465Y086201*
X-047371Y086157*
X-045711Y086022D02*
X-045763Y086157D01*
X-045868Y086246*
X-045982Y086291*
X-046149*
X-045711D02*
Y085650D01*
X-045022Y086022D02*
X-045461D01*
Y086112*
X-045429Y086201*
X-045387Y086246*
X-045314Y086291*
X-045200*
X-045126Y086246*
X-045053Y086157*
X-045022Y086022*
Y085918*
X-045053Y085784*
X-045126Y085694*
X-045200Y085650*
X-045314*
X-045387Y085694*
X-045461Y085784*
X-044772Y086291D02*
X-044563Y085650D01*
X-044500Y085456*
X-044427Y085366*
X-044364Y085322*
X-044333*
X-044364Y086291D02*
X-044563Y085650D01*
X-044083Y086157D02*
X-044010Y086246D01*
X-043936Y086291*
X-043822*
X-043749Y086246*
X-043675Y086157*
X-043644Y086022*
Y085918*
X-043675Y085784*
X-043749Y085694*
X-043822Y085650*
X-043936*
X-044010Y085694*
X-044083Y085784*
Y086291D02*
Y085650D01*
X-042955Y086634D02*
Y085650D01*
X-043394*
X-039212Y086619D02*
Y085650D01*
Y086619D02*
X-038919Y085978D01*
X-039358*
X-038418Y086619D02*
X-038324Y086574D01*
X-038262Y086440*
X-038230Y086201*
Y086067*
X-038262Y085829*
X-038324Y085694*
X-038418Y085650*
X-038481*
X-038575Y085694*
X-038638Y085829*
X-038669Y086067*
Y086201*
X-038638Y086440*
X-038575Y086574*
X-038481Y086619*
X-038418*
X-037009D02*
X-036915Y086574D01*
X-036884Y086485*
Y086395*
X-036915Y086291*
X-036978Y086246*
X-037103Y086201*
X-037197Y086157*
X-037260Y086067*
X-037291Y085978*
Y085829*
X-037260Y085739*
X-037228Y085694*
X-037134Y085650*
X-037009*
X-036915Y085694*
X-036884Y085739*
X-036852Y085829*
Y085978*
X-036884Y086067*
X-036946Y086157*
X-037040Y086201*
X-037166Y086246*
X-037228Y086291*
X-037260Y086395*
Y086485*
X-037228Y086574*
X-037134Y086619*
X-037009*
X-036164D02*
X-036602D01*
X-036289Y085650*
X-035642Y086440D02*
X-035683Y086485D01*
X-035736Y086619*
Y085650*
X-035078Y086619D02*
Y085650D01*
Y086619D02*
X-034786Y085978D01*
X-035224*
X-034472Y086619D02*
X-034159D01*
X-034128Y086201*
X-034159Y086246*
X-034253Y086291*
X-034347*
X-034441Y086246*
X-034504Y086157*
X-034535Y086022*
Y085918*
X-034504Y085784*
X-034441Y085694*
X-034347Y085650*
X-034253*
X-034159Y085694*
X-034128Y085739*
X-034097Y085829*
X-033575Y086440D02*
X-033616Y086485D01*
X-033669Y086619*
Y085650*
X-032750Y086395D02*
Y086440D01*
X-032781Y086529*
X-032813Y086574*
X-032875Y086634*
X-033001*
X-033063Y086574*
X-033095Y086529*
X-033126Y086440*
Y086350*
X-033095Y086261*
X-033032Y086112*
X-032719Y085650*
X-033157*
X-032197Y086440D02*
X-032239Y086485D01*
X-032291Y086619*
Y085650*
X-030652Y086634D02*
Y085650D01*
X-031090*
X-029963D02*
Y086634D01*
X-030401Y085650*
Y086634*
X-029274Y085650D02*
Y086634D01*
X-029556*
X-029650Y086574*
X-029681Y086529*
X-029712Y086440*
Y086306*
X-029681Y086201*
X-029650Y086157*
X-029556Y086112*
X-029274*
X-028188Y086619D02*
Y085650D01*
Y086619D02*
X-027896Y085978D01*
X-028334*
X-027395Y086619D02*
X-027301Y086574D01*
X-027238Y086440*
X-027207Y086201*
Y086067*
X-027238Y085829*
X-027301Y085694*
X-027395Y085650*
X-027458*
X-027551Y085694*
X-027614Y085829*
X-027645Y086067*
Y086201*
X-027614Y086440*
X-027551Y086574*
X-027458Y086619*
X-027395*
X-025892D02*
X-026236D01*
X-026048Y086246*
X-026142*
X-026205Y086201*
X-026236Y086157*
X-026268Y086022*
Y085918*
X-026236Y085784*
X-026174Y085694*
X-026080Y085650*
X-025986*
X-025892Y085694*
X-025860Y085739*
X-025829Y085829*
X-025297Y086619D02*
X-025203Y086574D01*
X-025171Y086485*
Y086395*
X-025203Y086291*
X-025265Y086246*
X-025391Y086201*
X-025485Y086157*
X-025547Y086067*
X-025579Y085978*
Y085829*
X-025547Y085739*
X-025516Y085694*
X-025422Y085650*
X-025297*
X-025203Y085694*
X-025171Y085739*
X-025140Y085829*
Y085978*
X-025171Y086067*
X-025234Y086157*
X-025328Y086201*
X-025453Y086246*
X-025516Y086291*
X-025547Y086395*
Y086485*
X-025516Y086574*
X-025422Y086619*
X-025297*
X-024858Y086485D02*
X-024827Y086574D01*
X-024723Y086619*
X-024649*
X-024545Y086574*
X-024482Y086440*
X-024451Y086201*
Y085978*
X-024482Y085784*
X-024545Y085694*
X-024649Y085650*
X-024681*
X-024785Y085694*
X-024858Y085784*
X-024890Y085918*
Y085978*
X-024858Y086112*
X-024785Y086201*
X-024681Y086246*
X-024649*
X-024545Y086201*
X-024482Y086112*
X-024451Y085978*
X-024201Y086306D02*
X-024169Y086157D01*
X-024107Y086067*
X-023992Y086022*
X-023961*
X-023856Y086067*
X-023794Y086157*
X-023762Y086306*
Y086350*
X-023794Y086485*
X-023856Y086574*
X-023961Y086619*
X-023992*
X-024107Y086574*
X-024169Y086485*
X-024201Y086306*
Y086067*
X-024169Y085829*
X-024107Y085694*
X-023992Y085650*
X-023929*
X-023825Y085694*
X-023794Y085784*
X-023366Y086619D02*
Y085650D01*
Y086619D02*
X-023073Y085978D01*
X-023512*
X-022551Y086440D02*
X-022593Y086485D01*
X-022645Y086619*
Y085650*
X-021727Y086395D02*
Y086440D01*
X-021758Y086529*
X-021789Y086574*
X-021852Y086634*
X-021977*
X-022040Y086574*
X-022071Y086529*
X-022102Y086440*
Y086350*
X-022071Y086261*
X-022008Y086112*
X-021695Y085650*
X-022134*
X-021173Y086440D02*
X-021215Y086485D01*
X-021267Y086619*
Y085650*
X-020317Y086634D02*
X-020537D01*
X-020631Y086574*
X-020693Y086485*
X-020725Y086395*
X-020756Y086261*
Y086022*
X-020725Y085888*
X-020693Y085784*
X-020631Y085694*
X-020537Y085650*
X-020317*
Y086634*
X-019848Y086157D02*
X-020067Y085650D01*
X-019628D02*
Y086634D01*
X-019910*
X-020004Y086574*
X-020036Y086529*
X-020067Y086440*
Y086350*
X-020036Y086261*
X-020004Y086201*
X-019910Y086157*
X-019628*
X-018939D02*
X-019221D01*
X-019315Y086112*
X-019347Y086067*
X-019378Y085978*
Y085829*
X-019347Y085739*
X-019315Y085694*
X-019221Y085650*
X-018939*
Y086634*
X-019221*
X-019315Y086574*
X-019347Y086529*
X-019378Y086440*
Y086350*
X-019347Y086261*
X-019315Y086201*
X-019221Y086157*
X-000591Y000000D02*
X000591D01*
X000000Y000591D02*
Y-000591D01*
G54D12*
X-090472Y011661D03*
Y054776D03*
X-089921Y011661D03*
Y054776D03*
X-086299Y026150D03*
Y069264D03*
X-085748Y026150D03*
Y069264D03*
X-085000Y026976D03*
Y070091D03*
X-084843Y025087D03*
Y068201D03*
X-084449Y026976D03*
Y070091D03*
X-084291Y025087D03*
Y068201D03*
X-075236Y025362D03*
Y068476D03*
X-074685Y025362D03*
Y068476D03*
X-071535Y031740D03*
Y074854D03*
X-070984Y031740D03*
Y074854D03*
X-064409Y026455D03*
Y069569D03*
X-063858Y026455D03*
Y069569D03*
X-060669Y007921D03*
Y008514D03*
Y009104D03*
Y051035D03*
Y051628D03*
Y052219D03*
X-060157Y009732D03*
Y052846D03*
X-060118Y007921D03*
Y008514D03*
Y009104D03*
Y051035D03*
Y051628D03*
Y052219D03*
X-059606Y009732D03*
Y052846D03*
X-058780Y008433D03*
Y051547D03*
X-058740Y009732D03*
Y052846D03*
X-058228Y008433D03*
Y051547D03*
X-058189Y009732D03*
Y052846D03*
X-057441Y008945D03*
Y052059D03*
X-056890Y008945D03*
Y052059D03*
X-056181Y016110D03*
Y059224D03*
X-055630Y016110D03*
Y059224D03*
X-055197Y016110D03*
Y059224D03*
X-054646Y016110D03*
Y059224D03*
X-053799Y008276D03*
Y051390D03*
X-053248Y008276D03*
Y051390D03*
X-051142Y015520D03*
Y058634D03*
X-050591Y015520D03*
Y058634D03*
X-050236Y008394D03*
Y009181D03*
Y010283D03*
Y010992D03*
Y051508D03*
Y052295D03*
Y053398D03*
Y054106D03*
X-050197Y007606D03*
Y012134D03*
Y050720D03*
Y055248D03*
X-049685Y008394D03*
Y009181D03*
Y010283D03*
Y010992D03*
Y051508D03*
Y052295D03*
Y053398D03*
Y054106D03*
X-049646Y007606D03*
Y012134D03*
Y050720D03*
Y055248D03*
X-048780Y007608D03*
Y008396D03*
Y009142D03*
Y050722D03*
Y051510D03*
Y052256D03*
X-048740Y011071D03*
Y011780D03*
Y054185D03*
Y054894D03*
X-048701Y010402D03*
Y053516D03*
X-048228Y007608D03*
Y008396D03*
Y009142D03*
Y050722D03*
Y051510D03*
Y052256D03*
X-048189Y011071D03*
Y011780D03*
Y054185D03*
Y054894D03*
X-048150Y010402D03*
Y053516D03*
X-040039Y031268D03*
Y074382D03*
X-040000Y029890D03*
Y030598D03*
Y073004D03*
Y073713D03*
X-039961Y032528D03*
Y033274D03*
Y034061D03*
Y075642D03*
Y076388D03*
Y077175D03*
X-039488Y031268D03*
Y074382D03*
X-039449Y029890D03*
Y030598D03*
Y073004D03*
Y073713D03*
X-039409Y032528D03*
Y033274D03*
Y034061D03*
Y075642D03*
Y076388D03*
Y077175D03*
X-038543Y029535D03*
Y034063D03*
Y072650D03*
Y077177D03*
X-038504Y030677D03*
Y031386D03*
Y032488D03*
Y033276D03*
Y073791D03*
Y074500D03*
Y075602D03*
Y076390D03*
X-037992Y029535D03*
Y034063D03*
Y072650D03*
Y077177D03*
X-037953Y030677D03*
Y031386D03*
Y032488D03*
Y033276D03*
Y073791D03*
Y074500D03*
Y075602D03*
Y076390D03*
X-037598Y026150D03*
Y069264D03*
X-037047Y026150D03*
Y069264D03*
X-034941Y033394D03*
Y076508D03*
X-034390Y033394D03*
Y076508D03*
X-033543Y025559D03*
Y068673D03*
X-032992Y025559D03*
Y068673D03*
X-032559Y025559D03*
Y068673D03*
X-032008Y025559D03*
Y068673D03*
X-031299Y032724D03*
Y075839D03*
X-030748Y032724D03*
Y075839D03*
X-030000Y031937D03*
Y075051D03*
X-029961Y033236D03*
Y076350D03*
X-029449Y031937D03*
Y075051D03*
X-029409Y033236D03*
Y076350D03*
X-028583Y031937D03*
Y075051D03*
X-028071Y032565D03*
Y033156D03*
Y033748D03*
Y075679D03*
Y076270D03*
Y076862D03*
X-028031Y031937D03*
Y075051D03*
X-027520Y032565D03*
Y033156D03*
Y033748D03*
Y075679D03*
Y076270D03*
Y076862D03*
X-024331Y015215D03*
Y058329D03*
X-023780Y015215D03*
Y058329D03*
X-017205Y009929D03*
Y053043D03*
X-016654Y009929D03*
Y053043D03*
X-013504Y016307D03*
Y059421D03*
X-012953Y016307D03*
Y059421D03*
X-003898Y016583D03*
Y059697D03*
X-003740Y014693D03*
Y057807D03*
X-003346Y016583D03*
Y059697D03*
X-003189Y014693D03*
Y057807D03*
X-002441Y015520D03*
Y058634D03*
X-001890Y015520D03*
Y058634D03*
X001732Y030008D03*
Y073122D03*
X002283Y030008D03*
Y073122D03*
G54D13*
X-092205Y009772D03*
Y010323D03*
Y052886D03*
Y053437D03*
X-092165Y013472D03*
Y014024D03*
Y056587D03*
Y057138D03*
X-078622Y025953D03*
Y026504D03*
Y027055D03*
Y027606D03*
Y069067D03*
Y069618D03*
Y070169D03*
Y070720D03*
X-065000Y022882D03*
Y023433D03*
Y065996D03*
Y066547D03*
X-064370Y022882D03*
Y023433D03*
Y065996D03*
Y066547D03*
X-059331Y023197D03*
Y023748D03*
Y066311D03*
Y066862D03*
X-051378Y016425D03*
Y016976D03*
Y059539D03*
Y060091D03*
X-050039Y015874D03*
Y016425D03*
Y017134D03*
Y017685D03*
Y058988D03*
Y059539D03*
Y060248D03*
Y060799D03*
X-038150Y023984D03*
Y024535D03*
Y025244D03*
Y025795D03*
Y067098D03*
Y067650D03*
Y068358D03*
Y068909D03*
X-036811Y024693D03*
Y025244D03*
Y067807D03*
Y068358D03*
X-028858Y017921D03*
Y018472D03*
Y061035D03*
Y061587D03*
X-023819Y018236D03*
Y018787D03*
Y061350D03*
Y061902D03*
X-023189Y018236D03*
Y018787D03*
Y061350D03*
Y061902D03*
X-009567Y014063D03*
Y014614D03*
Y015165D03*
Y015717D03*
Y057177D03*
Y057728D03*
Y058280D03*
Y058831D03*
X003976Y027646D03*
Y028197D03*
Y070760D03*
Y071311D03*
X004016Y031346D03*
Y031898D03*
Y074461D03*
Y075012D03*
G54D14*
X-091299Y014024D03*
Y024853D03*
Y057138D03*
Y067967D03*
X-090354Y013650D03*
Y014398D03*
Y024479D03*
Y025227D03*
Y056764D03*
Y057512D03*
Y067593D03*
Y068341D03*
X-088228Y011110D03*
Y054224D03*
X-087283Y010736D03*
Y011484D03*
Y053850D03*
Y054598D03*
X-049331Y016996D03*
Y017744D03*
Y060110D03*
Y060858D03*
X-049291Y015579D03*
Y016327D03*
Y058693D03*
Y059441D03*
X-048386Y017370D03*
Y060484D03*
X-048346Y015953D03*
Y059067D03*
X-039843Y025717D03*
Y068831D03*
X-039803Y024299D03*
Y067413D03*
X-038898Y025343D03*
Y026091D03*
Y068457D03*
Y069205D03*
X-038858Y023925D03*
Y024673D03*
Y067039D03*
Y067787D03*
X-000906Y030185D03*
Y030933D03*
Y073299D03*
Y074047D03*
X000039Y030559D03*
Y073673D03*
X002165Y016442D03*
Y017190D03*
Y027272D03*
Y028020D03*
Y059556D03*
Y060304D03*
Y070386D03*
Y071134D03*
X003110Y016816D03*
Y027646D03*
Y059930D03*
Y070760D03*
G54D15*
X-056378Y030864D03*
Y073978D03*
X-055984Y030864D03*
Y073978D03*
X-055591Y030864D03*
Y073978D03*
X-055197Y030864D03*
Y073978D03*
X-032992Y010805D03*
Y053919D03*
X-032598Y010805D03*
Y053919D03*
X-032205Y010805D03*
Y053919D03*
X-031811Y010805D03*
Y053919D03*
G54D16*
X-057480Y029801D03*
Y072915D03*
X-054094Y029801D03*
Y072915D03*
X-034094Y011868D03*
Y054982D03*
X-030709Y011868D03*
Y054982D03*
G54D17*
X-089616Y027370D03*
Y027764D03*
Y028157D03*
Y028551D03*
Y070484D03*
Y070878D03*
Y071272D03*
Y071665D03*
X-077805Y013118D03*
Y013512D03*
Y013906D03*
Y014299D03*
Y056232D03*
Y056626D03*
Y057020D03*
Y057413D03*
X-010384Y027370D03*
Y027764D03*
Y028157D03*
Y028551D03*
Y070484D03*
Y070878D03*
Y071272D03*
Y071665D03*
X001427Y013118D03*
Y013512D03*
Y013906D03*
Y014299D03*
Y056232D03*
Y056626D03*
Y057020D03*
Y057413D03*
G54D18*
X-090679Y026268D03*
Y029654D03*
Y069382D03*
Y072768D03*
X-078868Y012016D03*
Y015402D03*
Y055130D03*
Y058516D03*
X-009321Y026268D03*
Y029654D03*
Y069382D03*
Y072768D03*
X002490Y012016D03*
Y015402D03*
Y055130D03*
Y058516D03*
G54D19*
X-089134Y011169D03*
Y011524D03*
Y054283D03*
Y054638D03*
X-086299Y025146D03*
Y025500D03*
Y068260D03*
Y068614D03*
X-081142Y026720D03*
Y027075D03*
Y069835D03*
Y070189D03*
X-080866Y027705D03*
Y028059D03*
Y070819D03*
Y071173D03*
X-078937Y029870D03*
Y030224D03*
Y072984D03*
Y073339D03*
X-063701Y022823D03*
Y023177D03*
Y065937D03*
Y066291D03*
X-060000Y023217D03*
Y023571D03*
Y066331D03*
Y066685D03*
X-059764Y028020D03*
Y028374D03*
Y071134D03*
Y071488D03*
X-058780Y014004D03*
Y014358D03*
Y057118D03*
Y057472D03*
X-058307Y013610D03*
Y013965D03*
Y014358D03*
Y014713D03*
Y056724D03*
Y057079D03*
Y057472D03*
Y057827D03*
X-057835Y014004D03*
Y014358D03*
Y057118D03*
Y057472D03*
X-030354Y027311D03*
Y027665D03*
Y070425D03*
Y070780D03*
X-029882Y026957D03*
Y027311D03*
Y027705D03*
Y028059D03*
Y070071D03*
Y070425D03*
Y070819D03*
Y071173D03*
X-029409Y027311D03*
Y027665D03*
Y070425D03*
Y070780D03*
X-028425Y013295D03*
Y013650D03*
Y056409D03*
Y056764D03*
X-028189Y018098D03*
Y018453D03*
Y061213D03*
Y061567D03*
X-024488Y018492D03*
Y018846D03*
Y061606D03*
Y061961D03*
X-009252Y011445D03*
Y011799D03*
Y054559D03*
Y054913D03*
X-007323Y013610D03*
Y013965D03*
Y056724D03*
Y057079D03*
X-007047Y014594D03*
Y014949D03*
Y057709D03*
Y058063D03*
X-001890Y016169D03*
Y016524D03*
Y059283D03*
Y059638D03*
X000945Y030146D03*
Y030500D03*
Y073260D03*
Y073614D03*
G54D20*
X-087402Y012606D03*
Y055720D03*
X-086220Y012606D03*
Y055720D03*
X-001969Y029063D03*
Y072177D03*
X-000787Y029063D03*
Y072177D03*
G54D21*
X-076197Y028413D03*
Y030480D03*
Y071527D03*
Y073594D03*
X-011992Y011189D03*
Y013256D03*
Y054304D03*
Y056370D03*
G54D22*
X-092520Y022443D03*
Y023624D03*
Y065557D03*
Y066739D03*
X-092126Y024496D03*
Y025677D03*
Y067610D03*
Y068791D03*
X-090687Y022528D03*
Y023709D03*
Y065642D03*
Y066823D03*
X-089506Y022528D03*
Y023709D03*
Y065642D03*
Y066823D03*
X-062244Y024260D03*
Y025441D03*
Y067374D03*
Y068555D03*
X-061457Y027626D03*
Y028807D03*
Y070740D03*
Y071921D03*
X-060512Y027902D03*
Y029083D03*
Y071016D03*
Y072197D03*
X-027677Y012587D03*
Y013768D03*
Y055701D03*
Y056882D03*
X-026732Y012862D03*
Y014043D03*
Y055976D03*
Y057157D03*
X-025945Y016228D03*
Y017409D03*
Y059343D03*
Y060524D03*
X001317Y017961D03*
Y019142D03*
Y061075D03*
Y062256D03*
X002498Y017961D03*
Y019142D03*
Y061075D03*
Y062256D03*
X003937Y015992D03*
Y017173D03*
Y059106D03*
Y060287D03*
X004331Y018045D03*
Y019226D03*
Y061159D03*
Y062340D03*
G54D23*
X-073386Y026858D03*
Y028118D03*
Y069972D03*
Y071232D03*
X-072677Y026858D03*
Y028118D03*
Y069972D03*
Y071232D03*
X-064449Y026455D03*
Y069569D03*
X-063740Y026455D03*
Y069569D03*
X-024449Y015215D03*
Y058329D03*
X-023740Y015215D03*
Y058329D03*
X-015512Y013551D03*
Y014811D03*
Y056665D03*
Y057925D03*
X-014803Y013551D03*
Y014811D03*
Y056665D03*
Y057925D03*
G54D24*
X-077598Y024535D03*
Y025638D03*
Y026543D03*
Y027646D03*
Y067650D03*
Y068752D03*
Y069657D03*
Y070760D03*
X-010591Y014024D03*
Y015126D03*
Y016031D03*
Y017134D03*
Y057138D03*
Y058240D03*
Y059146D03*
Y060248D03*
G54D25*
X-083513Y024772D03*
Y027921D03*
Y067886D03*
Y071035D03*
X-082313Y024772D03*
Y027921D03*
Y067886D03*
Y071035D03*
X-005876Y013748D03*
Y016898D03*
Y056862D03*
Y060012D03*
X-004676Y013748D03*
Y016898D03*
Y056862D03*
Y060012D03*
G54D26*
X-071258Y026793D03*
Y030257D03*
Y069907D03*
Y073371D03*
X-069880Y026793D03*
Y030257D03*
Y069907D03*
Y073371D03*
X-068502Y026793D03*
Y030257D03*
Y069907D03*
Y073371D03*
X-067124Y026793D03*
Y030257D03*
Y069907D03*
Y073371D03*
X-021065Y011412D03*
Y014877D03*
Y054526D03*
Y057991D03*
X-019687Y011412D03*
Y014877D03*
Y054526D03*
Y057991D03*
X-018309Y011412D03*
Y014877D03*
Y054526D03*
Y057991D03*
X-016931Y011412D03*
Y014877D03*
Y054526D03*
Y057991D03*
G54D27*
X-088701Y025559D03*
Y068673D03*
X-087126Y025559D03*
Y068673D03*
X-001063Y016110D03*
Y059224D03*
X000512Y016110D03*
Y059224D03*
G54D28*
X-048583Y034447D03*
Y077561D03*
X-048189Y034447D03*
Y077561D03*
X-047795Y034447D03*
Y077561D03*
X-047402Y034447D03*
Y077561D03*
X-047008Y034447D03*
Y077561D03*
X-041181Y007222D03*
Y050337D03*
X-040787Y007222D03*
Y050337D03*
X-040394Y007222D03*
Y050337D03*
X-040000Y007222D03*
Y050337D03*
X-039606Y007222D03*
Y050337D03*
G54D29*
X-049094Y032921D03*
Y076035D03*
X-046496Y032921D03*
Y076035D03*
X-041693Y008748D03*
Y051862D03*
X-039094Y008748D03*
Y051862D03*
G54D30*
X-053937Y017232D03*
Y017902D03*
Y060346D03*
Y061016D03*
X-053071Y017232D03*
Y017902D03*
Y060346D03*
Y061016D03*
X-035118Y023768D03*
Y024437D03*
Y066882D03*
Y067551D03*
X-034252Y023768D03*
Y024437D03*
Y066882D03*
Y067551D03*
G54D31*
X-073189Y029427D03*
Y031140D03*
Y072541D03*
Y074254D03*
X-015000Y010530D03*
Y012242D03*
Y053644D03*
Y055356D03*
G54D32*
X-064045Y031114D03*
Y074228D03*
X-062333Y031114D03*
Y074228D03*
X-025856Y010556D03*
Y053670D03*
X-024144Y010556D03*
Y053670D03*
G54D33*
X-060512Y024270D03*
Y024526D03*
Y024781D03*
Y025037D03*
Y067384D03*
Y067640D03*
Y067896D03*
Y068152D03*
X-059409Y024270D03*
Y024526D03*
Y024781D03*
Y025037D03*
Y067384D03*
Y067640D03*
Y067896D03*
Y068152D03*
X-028780Y016632D03*
Y016888D03*
Y017144D03*
Y017400D03*
Y059746D03*
Y060002D03*
Y060258D03*
Y060514D03*
X-027677Y016632D03*
Y016888D03*
Y017144D03*
Y017400D03*
Y059746D03*
Y060002D03*
Y060258D03*
Y060514D03*
G54D34*
X-059961Y024654D03*
Y067768D03*
X-028228Y017016D03*
Y060130D03*
G54D35*
X-075472Y026386D03*
Y069500D03*
X-074449Y026386D03*
Y069500D03*
X-013740Y015283D03*
Y058398D03*
X-012717Y015283D03*
Y058398D03*
G54D36*
X-079606Y026583D03*
Y026819D03*
Y069697D03*
Y069933D03*
X-008583Y014850D03*
Y015087D03*
Y057965D03*
Y058201D03*
G54D37*
X-080354Y025992D03*
Y027409D03*
Y069106D03*
Y070524D03*
X-080118Y025992D03*
Y027409D03*
Y069106D03*
Y070524D03*
X-079882Y025992D03*
Y027409D03*
Y069106D03*
Y070524D03*
X-079646Y025992D03*
Y027409D03*
Y069106D03*
Y070524D03*
X-008543Y014260D03*
Y015677D03*
Y057374D03*
Y058791D03*
X-008307Y014260D03*
Y015677D03*
Y057374D03*
Y058791D03*
X-008071Y014260D03*
Y015677D03*
Y057374D03*
Y058791D03*
X-007835Y014260D03*
Y015677D03*
Y057374D03*
Y058791D03*
G54D38*
X-080512Y026346D03*
Y026583D03*
Y026819D03*
Y027055D03*
Y069461D03*
Y069697D03*
Y069933D03*
Y070169D03*
X-079488Y026346D03*
Y027055D03*
Y069461D03*
Y070169D03*
X-008701Y014614D03*
Y015323D03*
Y057728D03*
Y058437D03*
X-007677Y014614D03*
Y014850D03*
Y015087D03*
Y015323D03*
Y057728D03*
Y057965D03*
Y058201D03*
Y058437D03*
G54D39*
X-083661Y026346D03*
Y069461D03*
X-082244Y026346D03*
Y069461D03*
X-005945Y015323D03*
Y058437D03*
X-004528Y015323D03*
Y058437D03*
G54D40*
X-065591Y025756D03*
Y026465D03*
Y068870D03*
Y069579D03*
X-065039Y030638D03*
Y031346D03*
Y073752D03*
Y074461D03*
X-061378Y024260D03*
Y024969D03*
Y067374D03*
Y068083D03*
X-060354Y025835D03*
Y026543D03*
Y068949D03*
Y069657D03*
X-027835Y015126D03*
Y015835D03*
Y058240D03*
Y058949D03*
X-026811Y016701D03*
Y017409D03*
Y059815D03*
Y060524D03*
X-023150Y010323D03*
Y011031D03*
Y053437D03*
Y054146D03*
X-022598Y015205D03*
Y015913D03*
Y058319D03*
Y059028D03*
G54D41*
X-066378Y025565D03*
Y026498D03*
Y068679D03*
Y069613D03*
X-021811Y015171D03*
Y016105D03*
Y058285D03*
Y059219D03*
G54D42*
X-068907Y023551D03*
Y066665D03*
X-066841Y023551D03*
Y066665D03*
X-021348Y018118D03*
Y061232D03*
X-019281Y018118D03*
Y061232D03*
G54D43*
X-061831Y026504D03*
Y069618D03*
X-061457Y025638D03*
Y068752D03*
X-061083Y026504D03*
Y069618D03*
X-027106Y015165D03*
Y058280D03*
X-026732Y016031D03*
Y059146D03*
X-026358Y015165D03*
Y058280D03*
G54D44*
X-053642Y026602D03*
Y028374D03*
Y069717D03*
Y071488D03*
X-052657Y026602D03*
Y028374D03*
Y069717D03*
Y071488D03*
X-035531Y013295D03*
Y015067D03*
Y056409D03*
Y058181D03*
X-034547Y013295D03*
Y015067D03*
Y056409D03*
Y058181D03*
G54D45*
X-059606Y031524D03*
Y032114D03*
Y074638D03*
Y075228D03*
X-028583Y009555D03*
Y010146D03*
Y052669D03*
Y053260D03*
G54D46*
X-073504Y025717D03*
Y068831D03*
X-072402Y025717D03*
Y068831D03*
X-015787Y015953D03*
Y059067D03*
X-014685Y015953D03*
Y059067D03*
G54D70*
X-089626Y008787D03*
Y051902D03*
X-089252Y009732D03*
Y052846D03*
X-088878Y008787D03*
Y051902D03*
X-064311Y028512D03*
Y071626D03*
X-063937Y027567D03*
Y070681D03*
X-063563Y028512D03*
Y071626D03*
X-063012Y023433D03*
Y066547D03*
X-062638Y022488D03*
Y065602D03*
X-062264Y023433D03*
Y066547D03*
X-025925Y018236D03*
Y061350D03*
X-025551Y019181D03*
Y062295D03*
X-025177Y018236D03*
Y061350D03*
X-024626Y013157D03*
Y056272D03*
X-024252Y014102D03*
Y057217D03*
X-023878Y013157D03*
Y056272D03*
X000689Y032882D03*
Y075996D03*
X001063Y031937D03*
Y075051D03*
X001437Y032882D03*
Y075996D03*
G54D71*
X-092539Y014575D03*
Y057689D03*
X-092185Y014575D03*
Y057689D03*
X-081713Y027567D03*
Y070681D03*
X-081358Y027567D03*
Y070681D03*
X-079665Y030283D03*
Y073398D03*
X-079311Y030283D03*
Y073398D03*
X-078524Y029890D03*
Y073004D03*
X-078169Y029890D03*
Y073004D03*
X-067500Y025244D03*
Y068358D03*
X-067146Y025244D03*
Y068358D03*
X-063760Y024535D03*
Y067650D03*
X-063406Y024535D03*
Y067650D03*
X-061870Y007921D03*
Y008512D03*
Y009102D03*
Y051035D03*
Y051626D03*
Y052217D03*
X-061594Y009732D03*
Y052846D03*
X-061516Y007921D03*
Y008512D03*
Y009102D03*
Y051035D03*
Y051626D03*
Y052217D03*
X-061240Y009732D03*
Y052846D03*
X-059823Y013709D03*
Y056823D03*
X-059469Y013709D03*
Y056823D03*
X-055846Y015283D03*
Y058398D03*
X-055492Y015283D03*
Y058398D03*
X-054941Y015598D03*
Y058713D03*
X-054902Y009299D03*
Y052413D03*
X-054587Y015598D03*
Y058713D03*
X-054547Y009299D03*
Y052413D03*
X-054154Y016504D03*
Y059618D03*
X-053957Y015520D03*
Y058634D03*
X-053799Y016504D03*
Y059618D03*
X-053602Y015520D03*
Y058634D03*
X-053406Y016031D03*
Y059146D03*
X-053209Y016543D03*
Y059657D03*
X-053051Y016031D03*
Y059146D03*
X-052854Y016543D03*
Y059657D03*
X-047598Y010402D03*
Y011071D03*
Y011780D03*
Y053516D03*
Y054185D03*
Y054894D03*
X-047461Y007606D03*
Y008394D03*
Y009142D03*
Y050720D03*
Y051508D03*
Y052256D03*
X-047244Y010402D03*
Y011071D03*
Y011780D03*
Y053516D03*
Y054185D03*
Y054894D03*
X-047106Y007606D03*
Y008394D03*
Y009142D03*
Y050720D03*
Y051508D03*
Y052256D03*
X-041083Y032528D03*
Y033276D03*
Y034063D03*
Y075642D03*
Y076390D03*
Y077177D03*
X-040945Y029890D03*
Y030598D03*
Y031268D03*
Y073004D03*
Y073713D03*
Y074382D03*
X-040728Y032528D03*
Y033276D03*
Y034063D03*
Y075642D03*
Y076390D03*
Y077177D03*
X-040591Y029890D03*
Y030598D03*
Y031268D03*
Y073004D03*
Y073713D03*
Y074382D03*
X-035335Y025126D03*
Y068240D03*
X-035138Y025638D03*
Y068752D03*
X-034980Y025126D03*
Y068240D03*
X-034783Y025638D03*
Y068752D03*
X-034587Y026150D03*
Y069264D03*
X-034390Y025165D03*
Y068280D03*
X-034232Y026150D03*
Y069264D03*
X-034035Y025165D03*
Y068280D03*
X-033642Y032370D03*
Y075484D03*
X-033602Y026071D03*
Y069185D03*
X-033287Y032370D03*
Y075484D03*
X-033248Y026071D03*
Y069185D03*
X-032697Y026386D03*
Y069500D03*
X-032343Y026386D03*
Y069500D03*
X-028720Y027961D03*
Y071075D03*
X-028366Y027961D03*
Y071075D03*
X-026949Y031937D03*
Y075051D03*
X-026673Y032567D03*
Y033157D03*
Y033748D03*
Y075681D03*
Y076272D03*
Y076862D03*
X-026594Y031937D03*
Y075051D03*
X-026319Y032567D03*
Y033157D03*
Y033748D03*
Y075681D03*
Y076272D03*
Y076862D03*
X-024783Y017134D03*
Y060248D03*
X-024429Y017134D03*
Y060248D03*
X-021043Y016425D03*
Y059539D03*
X-020689Y016425D03*
Y059539D03*
X-010020Y011780D03*
Y054894D03*
X-009665Y011780D03*
Y054894D03*
X-008878Y011386D03*
Y054500D03*
X-008524Y011386D03*
Y054500D03*
X-006831Y014102D03*
Y057217D03*
X-006476Y014102D03*
Y057217D03*
X003996Y027094D03*
Y070209D03*
X004350Y027094D03*
Y070209D03*
G54D72*
X-056201Y010067D03*
Y014594D03*
Y053181D03*
Y057709D03*
X-056004Y010067D03*
Y014594D03*
Y053181D03*
Y057709D03*
X-055807Y010067D03*
Y014594D03*
Y053181D03*
Y057709D03*
X-055610Y010067D03*
Y014594D03*
Y053181D03*
Y057709D03*
X-055413Y010067D03*
Y014594D03*
Y053181D03*
Y057709D03*
X-055217Y010067D03*
Y014594D03*
Y053181D03*
Y057709D03*
X-055020Y010067D03*
Y014594D03*
Y053181D03*
Y057709D03*
X-054823Y010067D03*
Y014594D03*
Y053181D03*
Y057709D03*
X-054626Y010067D03*
Y014594D03*
Y053181D03*
Y057709D03*
X-054429Y010067D03*
Y014594D03*
Y053181D03*
Y057709D03*
X-054232Y010067D03*
Y014594D03*
Y053181D03*
Y057709D03*
X-054035Y010067D03*
Y014594D03*
Y053181D03*
Y057709D03*
X-053839Y010067D03*
Y014594D03*
Y053181D03*
Y057709D03*
X-053642Y010067D03*
Y014594D03*
Y053181D03*
Y057709D03*
X-053445Y010067D03*
Y014594D03*
Y053181D03*
Y057709D03*
X-053248Y010067D03*
Y014594D03*
Y053181D03*
Y057709D03*
X-034941Y027075D03*
Y031602D03*
Y070189D03*
Y074717D03*
X-034744Y027075D03*
Y031602D03*
Y070189D03*
Y074717D03*
X-034547Y027075D03*
Y031602D03*
Y070189D03*
Y074717D03*
X-034350Y027075D03*
Y031602D03*
Y070189D03*
Y074717D03*
X-034154Y027075D03*
Y031602D03*
Y070189D03*
Y074717D03*
X-033957Y027075D03*
Y031602D03*
Y070189D03*
Y074717D03*
X-033760Y027075D03*
Y031602D03*
Y070189D03*
Y074717D03*
X-033563Y027075D03*
Y031602D03*
Y070189D03*
Y074717D03*
X-033366Y027075D03*
Y031602D03*
Y070189D03*
Y074717D03*
X-033169Y027075D03*
Y031602D03*
Y070189D03*
Y074717D03*
X-032972Y027075D03*
Y031602D03*
Y070189D03*
Y074717D03*
X-032776Y027075D03*
Y031602D03*
Y070189D03*
Y074717D03*
X-032579Y027075D03*
Y031602D03*
Y070189D03*
Y074717D03*
X-032382Y027075D03*
Y031602D03*
Y070189D03*
Y074717D03*
X-032185Y027075D03*
Y031602D03*
Y070189D03*
Y074717D03*
X-031988Y027075D03*
Y031602D03*
Y070189D03*
Y074717D03*
G54D73*
X-056988Y010854D03*
Y011051D03*
Y011248D03*
Y011445D03*
Y011642D03*
Y011839D03*
Y012035D03*
Y012232D03*
Y012429D03*
Y012626D03*
Y012823D03*
Y013020D03*
Y013217D03*
Y013413D03*
Y013610D03*
Y013807D03*
Y053969D03*
Y054165D03*
Y054362D03*
Y054559D03*
Y054756D03*
Y054953D03*
Y055150D03*
Y055346D03*
Y055543D03*
Y055740D03*
Y055937D03*
Y056134D03*
Y056331D03*
Y056528D03*
Y056724D03*
Y056921D03*
X-052461Y010854D03*
Y011051D03*
Y011248D03*
Y011445D03*
Y011642D03*
Y011839D03*
Y012035D03*
Y012232D03*
Y012429D03*
Y012626D03*
Y012823D03*
Y013020D03*
Y013217D03*
Y013413D03*
Y013610D03*
Y013807D03*
Y053969D03*
Y054165D03*
Y054362D03*
Y054559D03*
Y054756D03*
Y054953D03*
Y055150D03*
Y055346D03*
Y055543D03*
Y055740D03*
Y055937D03*
Y056134D03*
Y056331D03*
Y056528D03*
Y056724D03*
Y056921D03*
X-035728Y027862D03*
Y028059D03*
Y028256D03*
Y028453D03*
Y028650D03*
Y028846D03*
Y029043D03*
Y029240D03*
Y029437D03*
Y029634D03*
Y029831D03*
Y030028D03*
Y030224D03*
Y030421D03*
Y030618D03*
Y030815D03*
Y070976D03*
Y071173D03*
Y071370D03*
Y071567D03*
Y071764D03*
Y071961D03*
Y072157D03*
Y072354D03*
Y072551D03*
Y072748D03*
Y072945D03*
Y073142D03*
Y073339D03*
Y073535D03*
Y073732D03*
Y073929D03*
X-031201Y027862D03*
Y028059D03*
Y028256D03*
Y028453D03*
Y028650D03*
Y028846D03*
Y029043D03*
Y029240D03*
Y029437D03*
Y029634D03*
Y029831D03*
Y030028D03*
Y030224D03*
Y030421D03*
Y030618D03*
Y030815D03*
Y070976D03*
Y071173D03*
Y071370D03*
Y071567D03*
Y071764D03*
Y071961D03*
Y072157D03*
Y072354D03*
Y072551D03*
Y072748D03*
Y072945D03*
Y073142D03*
Y073339D03*
Y073535D03*
Y073732D03*
Y073929D03*
M02*
