*
G04 Job   : C:\Users\kuehne01\Desktop\Mentor_kuehne01\_JLR\12158607\Panel_12158609\12158609.pnl*
G04 User  : DE230259:kuehne01*
G04 Layer : SolderPasteTop.gbr*
G04 Date  : Tue Jul 23 11:50:02 2024*
G04 Expedition Layer: Solder Paste - Top*
%ICAS*%
%MOIN*%
%FSDAX24Y24*%
%OFA0.0000B0.0000*%
G90*
G74*
%AMVB_RCRECTANGLE*
$3=$3X2*
21,1,$1-$3,$2,0,0,0*
21,1,$1,$2-$3,0,0,0*
$1=$1/2*
$2=$2/2*
$3=$3/2*
$1=$1-$3*
$2=$2-$3*
1,1,$3X2,0-$1,0-$2*
1,1,$3X2,0-$1,$2*
1,1,$3X2,$1,$2*
1,1,$3X2,$1,0-$2*
%
%ADD11C,0.00787*%
%ADD10C,0.03937*%
%ADD20VB_RCRECTANGLE,0.02362X0.01575X0.00197*%
%ADD26VB_RCRECTANGLE,0.01575X0.02362X0.00197*%
%ADD19VB_RCRECTANGLE,0.02756X0.01969X0.00197*%
%ADD16VB_RCRECTANGLE,0.01969X0.02756X0.00197*%
%ADD25VB_RCRECTANGLE,0.02362X0.02953X0.00197*%
%ADD31VB_RCRECTANGLE,0.01575X0.03150X0.00197*%
%ADD73VB_RCRECTANGLE,0.03937X0.01083X0.00197*%
%ADD14VB_RCRECTANGLE,0.03937X0.02756X0.00197*%
%ADD70VB_RCRECTANGLE,0.02756X0.03937X0.00197*%
%ADD28VB_RCRECTANGLE,0.04724X0.03150X0.00197*%
%ADD17VB_RCRECTANGLE,0.03150X0.04724X0.00197*%
%ADD21VB_RCRECTANGLE,0.02362X0.05118X0.00197*%
%ADD22VB_RCRECTANGLE,0.05118X0.03150X0.00197*%
%ADD71VB_RCRECTANGLE,0.03150X0.05118X0.00197*%
%ADD13VB_RCRECTANGLE,0.05512X0.01181X0.00197*%
%ADD12VB_RCRECTANGLE,0.01181X0.05512X0.00197*%
%ADD33VB_RCRECTANGLE,0.03543X0.05512X0.00197*%
%ADD15VB_RCRECTANGLE,0.05512X0.04724X0.00197*%
%ADD72VB_RCRECTANGLE,0.01378X0.05906X0.00197*%
%ADD24VB_RCRECTANGLE,0.03150X0.05906X0.00197*%
%ADD18VB_RCRECTANGLE,0.06693X0.05118X0.00197*%
%ADD27VB_RCRECTANGLE,0.09449X0.06299X0.00197*%
%ADD32VB_RCRECTANGLE,0.09843X0.05118X0.00197*%
%ADD30VB_RCRECTANGLE,0.11024X0.04724X0.00197*%
%ADD29VB_RCRECTANGLE,0.15157X0.06299X0.00197*%
%ADD23VB_RCRECTANGLE,0.17323X0.07480X0.00197*%
G01*
G36*
X-103425Y-000283D02*
Y-000039D01*
X-103669*
G02X-103671Y000000I000283J000039*
X-103386Y000285I000285*
X-103346Y000283J000285*
G01Y000039*
X-103103*
G02X-103100Y000000I000283J000039*
X-103386Y-000285I000286*
X-103425Y-000283J000285*
G01Y000283D02*
Y000039D01*
X-103669*
G03X-103671Y000000I000283J000039*
X-103386Y-000285I000285*
X-103346Y-000283J000285*
G01Y-000039*
X-103103*
G03X-103100Y000000I000283J000039*
X-103386Y000285I000286*
X-103425Y000283J000285*
G01Y080347D02*
Y080591D01*
X-103669*
G02X-103671Y080630I000283J000039*
X-103386Y080915I000285*
X-103346Y080913J000285*
G01Y080669*
X-103103*
G02X-103100Y080630I000283J000039*
X-103386Y080344I000286*
X-103425Y080347J000286*
G01Y080913D02*
Y080669D01*
X-103669*
G03X-103671Y080630I000283J000039*
X-103386Y080344I000285*
X-103346Y080347J000286*
G01Y080591*
X-103103*
G03X-103100Y080630I000283J000039*
X-103386Y080915I000286*
X-103425Y080913J000285*
G01X-092406Y014972D02*
X-092760D01*
G03X-092780Y014953J000019*
G01Y014874*
G03X-092760Y014854I000020*
G01X-092563*
Y014697*
G03X-092543Y014677I000020*
G01X-092406*
G03X-092386Y014697J000020*
G01Y014953*
G03X-092406Y014972I000020*
G01Y015445D02*
X-092760D01*
G02X-092780Y015465J000020*
G01Y015543*
G02X-092760Y015563I000020*
G01X-092563*
Y015720*
G02X-092543Y015740I000020*
G01X-092406*
G02X-092386Y015720J000020*
G01Y015465*
G02X-092406Y015445I000020*
G01X-092091Y014972D02*
X-091736D01*
G02X-091717Y014953J000019*
G01Y014874*
G02X-091736Y014854I000019*
G01X-091933*
Y014697*
G02X-091953Y014677I000020*
G01X-092091*
G02X-092110Y014697J000020*
G01Y014953*
G02X-092091Y014972I000019*
G01Y015445D02*
X-091736D01*
G03X-091717Y015465J000020*
G01Y015543*
G03X-091736Y015563I000019*
G01X-091933*
Y015720*
G03X-091953Y015740I000020*
G01X-092091*
G03X-092110Y015720J000020*
G01Y015465*
G03X-092091Y015445I000019*
G01X-091772Y080512D02*
X-091496D01*
Y081063*
X-091772*
Y080512*
X-090945D02*
X-090669D01*
Y081063*
X-090945*
Y080512*
X-090276D02*
X-090000D01*
Y081063*
X-090276*
Y080512*
X-089685D02*
X-089409D01*
Y081063*
X-089685*
Y080512*
X-089173D02*
X-088898D01*
Y081063*
X-089173*
Y080512*
X-088701D02*
X-088425D01*
Y081063*
X-088701*
Y080512*
X-084327Y064634D02*
X-084681D01*
G03X-084701Y064614J000020*
G01Y064535*
G03X-084681Y064516I000020*
G01X-084484*
Y064358*
G03X-084465Y064339I000019*
G01X-084327*
G03X-084307Y064358J000019*
G01Y064614*
G03X-084327Y064634I000020*
G01Y065106D02*
X-084681D01*
G02X-084701Y065126J000020*
G01Y065205*
G02X-084681Y065224I000020*
G01X-084484*
Y065382*
G02X-084465Y065402I000019*
G01X-084327*
G02X-084307Y065382J000020*
G01Y065126*
G02X-084327Y065106I000020*
G01X-084012Y064634D02*
X-083657D01*
G02X-083638Y064614J000020*
G01Y064535*
G02X-083657Y064516I000019*
G01X-083854*
Y064358*
G02X-083874Y064339I000020*
G01X-084012*
G02X-084031Y064358J000019*
G01Y064614*
G02X-084012Y064634I000019*
G01Y065106D02*
X-083657D01*
G03X-083638Y065126J000020*
G01Y065205*
G03X-083657Y065224I000019*
G01X-083854*
Y065382*
G03X-083874Y065402I000020*
G01X-084012*
G03X-084031Y065382J000020*
G01Y065126*
G03X-084012Y065106I000019*
G01X-065398Y014972D02*
X-065752D01*
G03X-065772Y014953J000019*
G01Y014874*
G03X-065752Y014854I000020*
G01X-065555*
Y014697*
G03X-065535Y014677I000020*
G01X-065398*
G03X-065378Y014697J000020*
G01Y014953*
G03X-065398Y014972I000020*
G01Y015445D02*
X-065752D01*
G02X-065772Y015465J000020*
G01Y015543*
G02X-065752Y015563I000020*
G01X-065555*
Y015720*
G02X-065535Y015740I000020*
G01X-065398*
G02X-065378Y015720J000020*
G01Y015465*
G02X-065398Y015445I000020*
G01X-065083Y014972D02*
X-064728D01*
G02X-064709Y014953J000019*
G01Y014874*
G02X-064728Y014854I000019*
G01X-064925*
Y014697*
G02X-064945Y014677I000020*
G01X-065083*
G02X-065102Y014697J000020*
G01Y014953*
G02X-065083Y014972I000019*
G01Y015445D02*
X-064728D01*
G03X-064709Y015465J000020*
G01Y015543*
G03X-064728Y015563I000019*
G01X-064925*
Y015720*
G03X-064945Y015740I000020*
G01X-065083*
G03X-065102Y015720J000020*
G01Y015465*
G03X-065083Y015445I000019*
G01X-057319Y064634D02*
X-057673D01*
G03X-057693Y064614J000020*
G01Y064535*
G03X-057673Y064516I000020*
G01X-057476*
Y064358*
G03X-057457Y064339I000019*
G01X-057319*
G03X-057299Y064358J000019*
G01Y064614*
G03X-057319Y064634I000020*
G01Y065106D02*
X-057673D01*
G02X-057693Y065126J000020*
G01Y065205*
G02X-057673Y065224I000020*
G01X-057476*
Y065382*
G02X-057457Y065402I000019*
G01X-057319*
G02X-057299Y065382J000020*
G01Y065126*
G02X-057319Y065106I000020*
G01X-057004Y064634D02*
X-056650D01*
G02X-056630Y064614J000020*
G01Y064535*
G02X-056650Y064516I000020*
G01X-056846*
Y064358*
G02X-056866Y064339I000020*
G01X-057004*
G02X-057024Y064358J000019*
G01Y064614*
G02X-057004Y064634I000020*
G01Y065106D02*
X-056650D01*
G03X-056630Y065126J000020*
G01Y065205*
G03X-056650Y065224I000020*
G01X-056846*
Y065382*
G03X-056866Y065402I000020*
G01X-057004*
G03X-057024Y065382J000020*
G01Y065126*
G03X-057004Y065106I000020*
G01X-038390Y014972D02*
X-038744D01*
G03X-038764Y014953J000019*
G01Y014874*
G03X-038744Y014854I000020*
G01X-038547*
Y014697*
G03X-038528Y014677I000019*
G01X-038390*
G03X-038370Y014697J000020*
G01Y014953*
G03X-038390Y014972I000020*
G01Y015445D02*
X-038744D01*
G02X-038764Y015465J000020*
G01Y015543*
G02X-038744Y015563I000020*
G01X-038547*
Y015720*
G02X-038528Y015740I000019*
G01X-038390*
G02X-038370Y015720J000020*
G01Y015465*
G02X-038390Y015445I000020*
G01X-038075Y014972D02*
X-037720D01*
G02X-037701Y014953J000019*
G01Y014874*
G02X-037720Y014854I000019*
G01X-037917*
Y014697*
G02X-037937Y014677I000020*
G01X-038075*
G02X-038094Y014697J000020*
G01Y014953*
G02X-038075Y014972I000019*
G01Y015445D02*
X-037720D01*
G03X-037701Y015465J000020*
G01Y015543*
G03X-037720Y015563I000019*
G01X-037917*
Y015720*
G03X-037937Y015740I000020*
G01X-038075*
G03X-038094Y015720J000020*
G01Y015465*
G03X-038075Y015445I000019*
G01X-030311Y064634D02*
X-030665D01*
G03X-030685Y064614J000020*
G01Y064535*
G03X-030665Y064516I000020*
G01X-030469*
Y064358*
G03X-030449Y064339I000020*
G01X-030311*
G03X-030291Y064358J000019*
G01Y064614*
G03X-030311Y064634I000020*
G01Y065106D02*
X-030665D01*
G02X-030685Y065126J000020*
G01Y065205*
G02X-030665Y065224I000020*
G01X-030469*
Y065382*
G02X-030449Y065402I000020*
G01X-030311*
G02X-030291Y065382J000020*
G01Y065126*
G02X-030311Y065106I000020*
G01X-029996Y064634D02*
X-029642D01*
G02X-029622Y064614J000020*
G01Y064535*
G02X-029642Y064516I000020*
G01X-029839*
Y064358*
G02X-029858Y064339I000019*
G01X-029996*
G02X-030016Y064358J000019*
G01Y064614*
G02X-029996Y064634I000020*
G01Y065106D02*
X-029642D01*
G03X-029622Y065126J000020*
G01Y065205*
G03X-029642Y065224I000020*
G01X-029839*
Y065382*
G03X-029858Y065402I000019*
G01X-029996*
G03X-030016Y065382J000020*
G01Y065126*
G03X-029996Y065106I000020*
G01X-011382Y014972D02*
X-011736D01*
G03X-011756Y014953J000019*
G01Y014874*
G03X-011736Y014854I000020*
G01X-011539*
Y014697*
G03X-011520Y014677I000019*
G01X-011382*
G03X-011362Y014697J000020*
G01Y014953*
G03X-011382Y014972I000020*
G01Y015445D02*
X-011736D01*
G02X-011756Y015465J000020*
G01Y015543*
G02X-011736Y015563I000020*
G01X-011539*
Y015720*
G02X-011520Y015740I000019*
G01X-011382*
G02X-011362Y015720J000020*
G01Y015465*
G02X-011382Y015445I000020*
G01X-011067Y014972D02*
X-010713D01*
G02X-010693Y014953J000019*
G01Y014874*
G02X-010713Y014854I000020*
G01X-010909*
Y014697*
G02X-010929Y014677I000020*
G01X-011067*
G02X-011087Y014697J000020*
G01Y014953*
G02X-011067Y014972I000020*
G01Y015445D02*
X-010713D01*
G03X-010693Y015465J000020*
G01Y015543*
G03X-010713Y015563I000020*
G01X-010909*
Y015720*
G03X-010929Y015740I000020*
G01X-011067*
G03X-011087Y015720J000020*
G01Y015465*
G03X-011067Y015445I000020*
G01X-006929Y-000433D02*
X-006654D01*
Y000118*
X-006929*
Y-000433*
X-006457D02*
X-006181D01*
Y000118*
X-006457*
Y-000433*
X-005945D02*
X-005669D01*
Y000118*
X-005945*
Y-000433*
X-005354D02*
X-005079D01*
Y000118*
X-005354*
Y-000433*
X-004685D02*
X-004409D01*
Y000118*
X-004685*
Y-000433*
X-003858D02*
X-003583D01*
Y000118*
X-003858*
Y-000433*
X-003303Y064634D02*
X-003657D01*
G03X-003677Y064614J000020*
G01Y064535*
G03X-003657Y064516I000020*
G01X-003461*
Y064358*
G03X-003441Y064339I000020*
G01X-003303*
G03X-003283Y064358J000019*
G01Y064614*
G03X-003303Y064634I000020*
G01Y065106D02*
X-003657D01*
G02X-003677Y065126J000020*
G01Y065205*
G02X-003657Y065224I000020*
G01X-003461*
Y065382*
G02X-003441Y065402I000020*
G01X-003303*
G02X-003283Y065382J000020*
G01Y065126*
G02X-003303Y065106I000020*
G01X-002988Y064634D02*
X-002634D01*
G02X-002614Y064614J000020*
G01Y064535*
G02X-002634Y064516I000020*
G01X-002831*
Y064358*
G02X-002850Y064339I000019*
G01X-002988*
G02X-003008Y064358J000019*
G01Y064614*
G02X-002988Y064634I000020*
G01Y065106D02*
X-002634D01*
G03X-002614Y065126J000020*
G01Y065205*
G03X-002634Y065224I000020*
G01X-002831*
Y065382*
G03X-002850Y065402I000019*
G01X-002988*
G03X-003008Y065382J000020*
G01Y065126*
G03X-002988Y065106I000020*
G01X006024Y080347D02*
Y080591D01*
X005780*
G02X005778Y080630I000283J000039*
X006063Y080915I000285*
X006102Y080913J000285*
G01Y080669*
X006346*
G02X006348Y080630I000283J000039*
X006063Y080344I000285*
X006024Y080347J000286*
G01Y080913D02*
Y080669D01*
X005780*
G03X005778Y080630I000283J000039*
X006063Y080344I000285*
X006102Y080347J000286*
G01Y080591*
X006346*
G03X006348Y080630I000283J000039*
X006063Y080915I000285*
X006024Y080913J000285*
G37*
G54D10*
G01X-105354Y081220D02*
Y-000591D01*
G03X-104567Y-001704I001181*
G01X-103493Y-001987*
G03X-103339Y-002008I000154J000570*
G01X007995*
G03X008151Y-001987J000591*
G01X009213Y-001704*
G03X010000Y-000591I000394J001113*
G01Y081220*
G03X009213Y082334I001181*
G01X008142Y082618*
G03X007992Y082638I000151J000571*
G01X-103339*
G03X-103341I000002J000591*
X-103492Y082618J000591*
G01X-104567Y082334*
G03X-105354Y081220I000394J001114*
G54D11*
G01X-056494Y082009D02*
Y081025D01*
X-056055*
X-055366Y081532D02*
X-055439Y081621D01*
X-055512Y081666*
X-055627*
X-055700Y081621*
X-055773Y081532*
X-055805Y081397*
Y081293*
X-055773Y081159*
X-055700Y081069*
X-055627Y081025*
X-055512*
X-055439Y081069*
X-055366Y081159*
Y081666D02*
Y081025D01*
X-055084Y081666D02*
X-054886Y081025D01*
X-054677Y081666D02*
X-054886Y081025D01*
X-054949Y080831*
X-055022Y080741*
X-055084Y080697*
X-055116*
X-054427Y081397D02*
X-053988D01*
Y081487*
X-054020Y081576*
X-054061Y081621*
X-054134Y081666*
X-054249*
X-054322Y081621*
X-054395Y081532*
X-054427Y081397*
Y081293*
X-054395Y081159*
X-054322Y081069*
X-054249Y081025*
X-054134*
X-054061Y081069*
X-053988Y081159*
X-053738Y081397D02*
X-053686Y081532D01*
X-053581Y081621*
X-053466Y081666*
X-053299*
X-053738D02*
Y081025D01*
X-052360Y082009D02*
X-051921D01*
X-052141D02*
Y081025D01*
X-051514Y082009D02*
X-051566Y081949D01*
X-051619Y081860*
X-051650Y081770*
X-051671Y081636*
Y081397*
X-051650Y081263*
X-051619Y081159*
X-051566Y081069*
X-051514Y081025*
X-051399*
X-051347Y081069*
X-051285Y081159*
X-051264Y081263*
X-051232Y081397*
Y081636*
X-051264Y081770*
X-051285Y081860*
X-051347Y081949*
X-051399Y082009*
X-051514*
X-050982Y081025D02*
Y082009D01*
X-050700*
X-050606Y081949*
X-050575Y081904*
X-050543Y081815*
Y081681*
X-050575Y081576*
X-050606Y081532*
X-050700Y081487*
X-050982*
X-047832Y081025D02*
Y082009D01*
X-047550*
X-047456Y081949*
X-047425Y081904*
X-047394Y081815*
Y081681*
X-047425Y081576*
X-047456Y081532*
X-047550Y081487*
X-047832*
X-047143Y081025D02*
Y082009D01*
X-046924Y081025*
X-046705Y082009*
Y081025*
X-040053Y081532D02*
X-039771D01*
X-039677Y081487*
X-039646Y081442*
X-039615Y081353*
Y081204*
X-039646Y081114*
X-039677Y081070*
X-039771Y081025*
X-040053*
Y082009*
X-039771*
X-039677Y081949*
X-039646Y081905*
X-039615Y081815*
Y081726*
X-039646Y081636*
X-039677Y081577*
X-039771Y081532*
X-039364Y081025D02*
Y082009D01*
X-039082*
X-038988Y081949*
X-038957Y081905*
X-038926Y081815*
Y081726*
X-038957Y081636*
X-038988Y081577*
X-039082Y081532*
X-039364*
X-039145D02*
X-038926Y081025D01*
X-038675Y082009D02*
X-038456D01*
X-038362Y081949*
X-038299Y081860*
X-038268Y081770*
X-038237Y081636*
Y081398*
X-038268Y081263*
X-038299Y081159*
X-038362Y081070*
X-038456Y081025*
X-038675*
Y082009*
X-037130Y081815D02*
X-037089Y081860D01*
X-037036Y081994*
Y081025*
X-036577Y081770D02*
Y081815D01*
X-036546Y081905*
X-036514Y081949*
X-036452Y082009*
X-036327*
X-036264Y081949*
X-036233Y081905*
X-036201Y081815*
Y081726*
X-036233Y081636*
X-036295Y081487*
X-036608Y081025*
X-036170*
X-035752Y081815D02*
X-035711Y081860D01*
X-035658Y081994*
Y081025*
X-034855Y081994D02*
X-035168D01*
X-035199Y081577*
X-035168Y081621*
X-035074Y081666*
X-034980*
X-034886Y081621*
X-034823Y081532*
X-034792Y081398*
Y081293*
X-034823Y081159*
X-034886Y081070*
X-034980Y081025*
X-035074*
X-035168Y081070*
X-035199Y081114*
X-035230Y081204*
X-034385Y081994D02*
X-034479Y081949D01*
X-034510Y081860*
Y081770*
X-034479Y081666*
X-034416Y081621*
X-034291Y081577*
X-034197Y081532*
X-034134Y081442*
X-034103Y081353*
Y081204*
X-034134Y081114*
X-034166Y081070*
X-034260Y081025*
X-034385*
X-034479Y081070*
X-034510Y081114*
X-034541Y081204*
Y081353*
X-034510Y081442*
X-034448Y081532*
X-034354Y081577*
X-034228Y081621*
X-034166Y081666*
X-034134Y081770*
Y081860*
X-034166Y081949*
X-034260Y081994*
X-034385*
X-033445Y081860D02*
X-033477Y081949D01*
X-033581Y081994*
X-033654*
X-033759Y081949*
X-033821Y081815*
X-033853Y081577*
Y081353*
X-033821Y081159*
X-033759Y081070*
X-033654Y081025*
X-033623*
X-033518Y081070*
X-033445Y081159*
X-033414Y081293*
Y081353*
X-033445Y081487*
X-033518Y081577*
X-033623Y081621*
X-033654*
X-033759Y081577*
X-033821Y081487*
X-033853Y081353*
X-032976Y081994D02*
X-033070Y081949D01*
X-033132Y081815*
X-033164Y081577*
Y081442*
X-033132Y081204*
X-033070Y081070*
X-032976Y081025*
X-032913*
X-032819Y081070*
X-032756Y081204*
X-032725Y081442*
Y081577*
X-032756Y081815*
X-032819Y081949*
X-032913Y081994*
X-032976*
X-032475D02*
X-032036D01*
X-032349Y081025*
X-030909Y081994D02*
X-031003Y081949D01*
X-031065Y081815*
X-031097Y081577*
Y081442*
X-031065Y081204*
X-031003Y081070*
X-030909Y081025*
X-030846*
X-030752Y081070*
X-030690Y081204*
X-030658Y081442*
Y081577*
X-030690Y081815*
X-030752Y081949*
X-030846Y081994*
X-030909*
X-030115D02*
Y081025D01*
Y081994D02*
X-030408Y081353D01*
X-029969*
X-029030Y081025D02*
Y082009D01*
X-028748*
X-028654Y081949*
X-028623Y081905*
X-028591Y081815*
Y081681*
X-028623Y081577*
X-028654Y081532*
X-028748Y081487*
X-029030*
X-028341Y081025D02*
Y082009D01*
X-027902Y081025*
Y082009*
X-027652D02*
Y081025D01*
X-027213*
X-026107Y081815D02*
X-026065Y081860D01*
X-026013Y081994*
Y081025*
X-025554Y081770D02*
Y081815D01*
X-025522Y081905*
X-025491Y081949*
X-025428Y082009*
X-025303*
X-025240Y081949*
X-025209Y081905*
X-025178Y081815*
Y081726*
X-025209Y081636*
X-025272Y081487*
X-025585Y081025*
X-025147*
X-024729Y081815D02*
X-024687Y081860D01*
X-024635Y081994*
Y081025*
X-023831Y081994D02*
X-024144D01*
X-024176Y081577*
X-024144Y081621*
X-024050Y081666*
X-023957*
X-023863Y081621*
X-023800Y081532*
X-023769Y081398*
Y081293*
X-023800Y081159*
X-023863Y081070*
X-023957Y081025*
X-024050*
X-024144Y081070*
X-024176Y081114*
X-024207Y081204*
X-023362Y081994D02*
X-023455Y081949D01*
X-023487Y081860*
Y081770*
X-023455Y081666*
X-023393Y081621*
X-023268Y081577*
X-023174Y081532*
X-023111Y081442*
X-023080Y081353*
Y081204*
X-023111Y081114*
X-023142Y081070*
X-023236Y081025*
X-023362*
X-023455Y081070*
X-023487Y081114*
X-023518Y081204*
Y081353*
X-023487Y081442*
X-023424Y081532*
X-023330Y081577*
X-023205Y081621*
X-023142Y081666*
X-023111Y081770*
Y081860*
X-023142Y081949*
X-023236Y081994*
X-023362*
X-022422Y081860D02*
X-022453Y081949D01*
X-022558Y081994*
X-022631*
X-022735Y081949*
X-022798Y081815*
X-022829Y081577*
Y081353*
X-022798Y081159*
X-022735Y081070*
X-022631Y081025*
X-022599*
X-022495Y081070*
X-022422Y081159*
X-022391Y081293*
Y081353*
X-022422Y081487*
X-022495Y081577*
X-022599Y081621*
X-022631*
X-022735Y081577*
X-022798Y081487*
X-022829Y081353*
X-021952Y081994D02*
X-022046Y081949D01*
X-022109Y081815*
X-022140Y081577*
Y081442*
X-022109Y081204*
X-022046Y081070*
X-021952Y081025*
X-021890*
X-021796Y081070*
X-021733Y081204*
X-021702Y081442*
Y081577*
X-021733Y081815*
X-021796Y081949*
X-021890Y081994*
X-021952*
X-021013Y081681D02*
X-021044Y081532D01*
X-021107Y081442*
X-021222Y081398*
X-021253*
X-021357Y081442*
X-021420Y081532*
X-021451Y081681*
Y081726*
X-021420Y081860*
X-021357Y081949*
X-021253Y081994*
X-021222*
X-021107Y081949*
X-021044Y081860*
X-021013Y081681*
Y081442*
X-021044Y081204*
X-021107Y081070*
X-021222Y081025*
X-021284*
X-021389Y081070*
X-021420Y081159*
X-019885Y081994D02*
X-019979Y081949D01*
X-020042Y081815*
X-020073Y081577*
Y081442*
X-020042Y081204*
X-019979Y081070*
X-019885Y081025*
X-019823*
X-019729Y081070*
X-019666Y081204*
X-019635Y081442*
Y081577*
X-019666Y081815*
X-019729Y081949*
X-019823Y081994*
X-019885*
X-019092D02*
Y081025D01*
Y081994D02*
X-019384Y081353D01*
X-018946*
X-000591Y000000D02*
X000591D01*
X000000Y000591D02*
Y-000591D01*
G54D12*
X-094701Y065051D03*
Y071114D03*
X-094504Y065051D03*
Y071114D03*
X-094307Y065051D03*
Y071114D03*
X-094110Y065051D03*
Y071114D03*
X-093913Y065051D03*
Y071114D03*
X-093717Y065051D03*
Y071114D03*
X-093520Y065051D03*
Y071114D03*
X-093323Y065051D03*
Y071114D03*
X-093126Y065051D03*
Y071114D03*
X-092929Y065051D03*
Y071114D03*
X-092732Y065051D03*
Y071114D03*
X-092535Y065051D03*
Y071114D03*
X-092339Y065051D03*
Y071114D03*
X-092142Y065051D03*
Y071114D03*
X-091945Y065051D03*
Y071114D03*
X-091748Y065051D03*
Y071114D03*
X-091551Y065051D03*
Y071114D03*
X-091354Y065051D03*
Y071114D03*
X-091157Y065051D03*
Y071114D03*
X-090961Y065051D03*
Y071114D03*
X-090764Y065051D03*
Y071114D03*
X-090567Y065051D03*
Y071114D03*
X-090370Y065051D03*
Y071114D03*
X-090173Y065051D03*
Y071114D03*
X-089976Y065051D03*
Y071114D03*
X-086441Y008965D03*
Y015028D03*
X-086244Y008965D03*
Y015028D03*
X-086047Y008965D03*
Y015028D03*
X-085850Y008965D03*
Y015028D03*
X-085654Y008965D03*
Y015028D03*
X-085457Y008965D03*
Y015028D03*
X-085260Y008965D03*
Y015028D03*
X-085063Y008965D03*
Y015028D03*
X-084866Y008965D03*
Y015028D03*
X-084669Y008965D03*
Y015028D03*
X-084472Y008965D03*
Y015028D03*
X-084276Y008965D03*
Y015028D03*
X-084079Y008965D03*
Y015028D03*
X-083882Y008965D03*
Y015028D03*
X-083685Y008965D03*
Y015028D03*
X-083488Y008965D03*
Y015028D03*
X-083291Y008965D03*
Y015028D03*
X-083094Y008965D03*
Y015028D03*
X-082898Y008965D03*
Y015028D03*
X-082701Y008965D03*
Y015028D03*
X-082504Y008965D03*
Y015028D03*
X-082307Y008965D03*
Y015028D03*
X-082110Y008965D03*
Y015028D03*
X-081913Y008965D03*
Y015028D03*
X-081717Y008965D03*
Y015028D03*
X-067693Y065051D03*
Y071114D03*
X-067496Y065051D03*
Y071114D03*
X-067299Y065051D03*
Y071114D03*
X-067102Y065051D03*
Y071114D03*
X-066906Y065051D03*
Y071114D03*
X-066709Y065051D03*
Y071114D03*
X-066512Y065051D03*
Y071114D03*
X-066315Y065051D03*
Y071114D03*
X-066118Y065051D03*
Y071114D03*
X-065921Y065051D03*
Y071114D03*
X-065724Y065051D03*
Y071114D03*
X-065528Y065051D03*
Y071114D03*
X-065331Y065051D03*
Y071114D03*
X-065134Y065051D03*
Y071114D03*
X-064937Y065051D03*
Y071114D03*
X-064740Y065051D03*
Y071114D03*
X-064543Y065051D03*
Y071114D03*
X-064346Y065051D03*
Y071114D03*
X-064150Y065051D03*
Y071114D03*
X-063953Y065051D03*
Y071114D03*
X-063756Y065051D03*
Y071114D03*
X-063559Y065051D03*
Y071114D03*
X-063362Y065051D03*
Y071114D03*
X-063165Y065051D03*
Y071114D03*
X-062969Y065051D03*
Y071114D03*
X-059433Y008965D03*
Y015028D03*
X-059236Y008965D03*
Y015028D03*
X-059039Y008965D03*
Y015028D03*
X-058843Y008965D03*
Y015028D03*
X-058646Y008965D03*
Y015028D03*
X-058449Y008965D03*
Y015028D03*
X-058252Y008965D03*
Y015028D03*
X-058055Y008965D03*
Y015028D03*
X-057858Y008965D03*
Y015028D03*
X-057661Y008965D03*
Y015028D03*
X-057465Y008965D03*
Y015028D03*
X-057268Y008965D03*
Y015028D03*
X-057071Y008965D03*
Y015028D03*
X-056874Y008965D03*
Y015028D03*
X-056677Y008965D03*
Y015028D03*
X-056480Y008965D03*
Y015028D03*
X-056283Y008965D03*
Y015028D03*
X-056087Y008965D03*
Y015028D03*
X-055890Y008965D03*
Y015028D03*
X-055693Y008965D03*
Y015028D03*
X-055496Y008965D03*
Y015028D03*
X-055299Y008965D03*
Y015028D03*
X-055102Y008965D03*
Y015028D03*
X-054906Y008965D03*
Y015028D03*
X-054709Y008965D03*
Y015028D03*
X-040685Y065051D03*
Y071114D03*
X-040488Y065051D03*
Y071114D03*
X-040291Y065051D03*
Y071114D03*
X-040094Y065051D03*
Y071114D03*
X-039898Y065051D03*
Y071114D03*
X-039701Y065051D03*
Y071114D03*
X-039504Y065051D03*
Y071114D03*
X-039307Y065051D03*
Y071114D03*
X-039110Y065051D03*
Y071114D03*
X-038913Y065051D03*
Y071114D03*
X-038717Y065051D03*
Y071114D03*
X-038520Y065051D03*
Y071114D03*
X-038323Y065051D03*
Y071114D03*
X-038126Y065051D03*
Y071114D03*
X-037929Y065051D03*
Y071114D03*
X-037732Y065051D03*
Y071114D03*
X-037535Y065051D03*
Y071114D03*
X-037339Y065051D03*
Y071114D03*
X-037142Y065051D03*
Y071114D03*
X-036945Y065051D03*
Y071114D03*
X-036748Y065051D03*
Y071114D03*
X-036551Y065051D03*
Y071114D03*
X-036354Y065051D03*
Y071114D03*
X-036157Y065051D03*
Y071114D03*
X-035961Y065051D03*
Y071114D03*
X-032425Y008965D03*
Y015028D03*
X-032228Y008965D03*
Y015028D03*
X-032031Y008965D03*
Y015028D03*
X-031835Y008965D03*
Y015028D03*
X-031638Y008965D03*
Y015028D03*
X-031441Y008965D03*
Y015028D03*
X-031244Y008965D03*
Y015028D03*
X-031047Y008965D03*
Y015028D03*
X-030850Y008965D03*
Y015028D03*
X-030654Y008965D03*
Y015028D03*
X-030457Y008965D03*
Y015028D03*
X-030260Y008965D03*
Y015028D03*
X-030063Y008965D03*
Y015028D03*
X-029866Y008965D03*
Y015028D03*
X-029669Y008965D03*
Y015028D03*
X-029472Y008965D03*
Y015028D03*
X-029276Y008965D03*
Y015028D03*
X-029079Y008965D03*
Y015028D03*
X-028882Y008965D03*
Y015028D03*
X-028685Y008965D03*
Y015028D03*
X-028488Y008965D03*
Y015028D03*
X-028291Y008965D03*
Y015028D03*
X-028094Y008965D03*
Y015028D03*
X-027898Y008965D03*
Y015028D03*
X-027701Y008965D03*
Y015028D03*
X-013677Y065051D03*
Y071114D03*
X-013480Y065051D03*
Y071114D03*
X-013283Y065051D03*
Y071114D03*
X-013087Y065051D03*
Y071114D03*
X-012890Y065051D03*
Y071114D03*
X-012693Y065051D03*
Y071114D03*
X-012496Y065051D03*
Y071114D03*
X-012299Y065051D03*
Y071114D03*
X-012102Y065051D03*
Y071114D03*
X-011906Y065051D03*
Y071114D03*
X-011709Y065051D03*
Y071114D03*
X-011512Y065051D03*
Y071114D03*
X-011315Y065051D03*
Y071114D03*
X-011118Y065051D03*
Y071114D03*
X-010921Y065051D03*
Y071114D03*
X-010724Y065051D03*
Y071114D03*
X-010528Y065051D03*
Y071114D03*
X-010331Y065051D03*
Y071114D03*
X-010134Y065051D03*
Y071114D03*
X-009937Y065051D03*
Y071114D03*
X-009740Y065051D03*
Y071114D03*
X-009543Y065051D03*
Y071114D03*
X-009346Y065051D03*
Y071114D03*
X-009150Y065051D03*
Y071114D03*
X-008953Y065051D03*
Y071114D03*
X-005417Y008965D03*
Y015028D03*
X-005220Y008965D03*
Y015028D03*
X-005024Y008965D03*
Y015028D03*
X-004827Y008965D03*
Y015028D03*
X-004630Y008965D03*
Y015028D03*
X-004433Y008965D03*
Y015028D03*
X-004236Y008965D03*
Y015028D03*
X-004039Y008965D03*
Y015028D03*
X-003843Y008965D03*
Y015028D03*
X-003646Y008965D03*
Y015028D03*
X-003449Y008965D03*
Y015028D03*
X-003252Y008965D03*
Y015028D03*
X-003055Y008965D03*
Y015028D03*
X-002858Y008965D03*
Y015028D03*
X-002661Y008965D03*
Y015028D03*
X-002465Y008965D03*
Y015028D03*
X-002268Y008965D03*
Y015028D03*
X-002071Y008965D03*
Y015028D03*
X-001874Y008965D03*
Y015028D03*
X-001677Y008965D03*
Y015028D03*
X-001480Y008965D03*
Y015028D03*
X-001283Y008965D03*
Y015028D03*
X-001087Y008965D03*
Y015028D03*
X-000890Y008965D03*
Y015028D03*
X-000693Y008965D03*
Y015028D03*
G54D13*
X-095370Y065720D03*
Y065917D03*
Y066114D03*
Y066311D03*
Y066508D03*
Y066705D03*
Y066902D03*
Y067098D03*
Y067295D03*
Y067492D03*
Y067689D03*
Y067886D03*
Y068083D03*
Y068280D03*
Y068476D03*
Y068673D03*
Y068870D03*
Y069067D03*
Y069264D03*
Y069461D03*
Y069657D03*
Y069854D03*
Y070051D03*
Y070248D03*
Y070445D03*
X-089307Y065720D03*
Y065917D03*
Y066114D03*
Y066311D03*
Y066508D03*
Y066705D03*
Y066902D03*
Y067098D03*
Y067295D03*
Y067492D03*
Y067689D03*
Y067886D03*
Y068083D03*
Y068280D03*
Y068476D03*
Y068673D03*
Y068870D03*
Y069067D03*
Y069264D03*
Y069461D03*
Y069657D03*
Y069854D03*
Y070051D03*
Y070248D03*
Y070445D03*
X-087110Y009634D03*
Y009831D03*
Y010028D03*
Y010224D03*
Y010421D03*
Y010618D03*
Y010815D03*
Y011012D03*
Y011209D03*
Y011406D03*
Y011602D03*
Y011799D03*
Y011996D03*
Y012193D03*
Y012390D03*
Y012587D03*
Y012783D03*
Y012980D03*
Y013177D03*
Y013374D03*
Y013571D03*
Y013768D03*
Y013965D03*
Y014161D03*
Y014358D03*
X-081047Y009634D03*
Y009831D03*
Y010028D03*
Y010224D03*
Y010421D03*
Y010618D03*
Y010815D03*
Y011012D03*
Y011209D03*
Y011406D03*
Y011602D03*
Y011799D03*
Y011996D03*
Y012193D03*
Y012390D03*
Y012587D03*
Y012783D03*
Y012980D03*
Y013177D03*
Y013374D03*
Y013571D03*
Y013768D03*
Y013965D03*
Y014161D03*
Y014358D03*
X-068362Y065720D03*
Y065917D03*
Y066114D03*
Y066311D03*
Y066508D03*
Y066705D03*
Y066902D03*
Y067098D03*
Y067295D03*
Y067492D03*
Y067689D03*
Y067886D03*
Y068083D03*
Y068280D03*
Y068476D03*
Y068673D03*
Y068870D03*
Y069067D03*
Y069264D03*
Y069461D03*
Y069657D03*
Y069854D03*
Y070051D03*
Y070248D03*
Y070445D03*
X-062299Y065720D03*
Y065917D03*
Y066114D03*
Y066311D03*
Y066508D03*
Y066705D03*
Y066902D03*
Y067098D03*
Y067295D03*
Y067492D03*
Y067689D03*
Y067886D03*
Y068083D03*
Y068280D03*
Y068476D03*
Y068673D03*
Y068870D03*
Y069067D03*
Y069264D03*
Y069461D03*
Y069657D03*
Y069854D03*
Y070051D03*
Y070248D03*
Y070445D03*
X-060102Y009634D03*
Y009831D03*
Y010028D03*
Y010224D03*
Y010421D03*
Y010618D03*
Y010815D03*
Y011012D03*
Y011209D03*
Y011406D03*
Y011602D03*
Y011799D03*
Y011996D03*
Y012193D03*
Y012390D03*
Y012587D03*
Y012783D03*
Y012980D03*
Y013177D03*
Y013374D03*
Y013571D03*
Y013768D03*
Y013965D03*
Y014161D03*
Y014358D03*
X-054039Y009634D03*
Y009831D03*
Y010028D03*
Y010224D03*
Y010421D03*
Y010618D03*
Y010815D03*
Y011012D03*
Y011209D03*
Y011406D03*
Y011602D03*
Y011799D03*
Y011996D03*
Y012193D03*
Y012390D03*
Y012587D03*
Y012783D03*
Y012980D03*
Y013177D03*
Y013374D03*
Y013571D03*
Y013768D03*
Y013965D03*
Y014161D03*
Y014358D03*
X-041354Y065720D03*
Y065917D03*
Y066114D03*
Y066311D03*
Y066508D03*
Y066705D03*
Y066902D03*
Y067098D03*
Y067295D03*
Y067492D03*
Y067689D03*
Y067886D03*
Y068083D03*
Y068280D03*
Y068476D03*
Y068673D03*
Y068870D03*
Y069067D03*
Y069264D03*
Y069461D03*
Y069657D03*
Y069854D03*
Y070051D03*
Y070248D03*
Y070445D03*
X-035291Y065720D03*
Y065917D03*
Y066114D03*
Y066311D03*
Y066508D03*
Y066705D03*
Y066902D03*
Y067098D03*
Y067295D03*
Y067492D03*
Y067689D03*
Y067886D03*
Y068083D03*
Y068280D03*
Y068476D03*
Y068673D03*
Y068870D03*
Y069067D03*
Y069264D03*
Y069461D03*
Y069657D03*
Y069854D03*
Y070051D03*
Y070248D03*
Y070445D03*
X-033094Y009634D03*
Y009831D03*
Y010028D03*
Y010224D03*
Y010421D03*
Y010618D03*
Y010815D03*
Y011012D03*
Y011209D03*
Y011406D03*
Y011602D03*
Y011799D03*
Y011996D03*
Y012193D03*
Y012390D03*
Y012587D03*
Y012783D03*
Y012980D03*
Y013177D03*
Y013374D03*
Y013571D03*
Y013768D03*
Y013965D03*
Y014161D03*
Y014358D03*
X-027031Y009634D03*
Y009831D03*
Y010028D03*
Y010224D03*
Y010421D03*
Y010618D03*
Y010815D03*
Y011012D03*
Y011209D03*
Y011406D03*
Y011602D03*
Y011799D03*
Y011996D03*
Y012193D03*
Y012390D03*
Y012587D03*
Y012783D03*
Y012980D03*
Y013177D03*
Y013374D03*
Y013571D03*
Y013768D03*
Y013965D03*
Y014161D03*
Y014358D03*
X-014346Y065720D03*
Y065917D03*
Y066114D03*
Y066311D03*
Y066508D03*
Y066705D03*
Y066902D03*
Y067098D03*
Y067295D03*
Y067492D03*
Y067689D03*
Y067886D03*
Y068083D03*
Y068280D03*
Y068476D03*
Y068673D03*
Y068870D03*
Y069067D03*
Y069264D03*
Y069461D03*
Y069657D03*
Y069854D03*
Y070051D03*
Y070248D03*
Y070445D03*
X-008283Y065720D03*
Y065917D03*
Y066114D03*
Y066311D03*
Y066508D03*
Y066705D03*
Y066902D03*
Y067098D03*
Y067295D03*
Y067492D03*
Y067689D03*
Y067886D03*
Y068083D03*
Y068280D03*
Y068476D03*
Y068673D03*
Y068870D03*
Y069067D03*
Y069264D03*
Y069461D03*
Y069657D03*
Y069854D03*
Y070051D03*
Y070248D03*
Y070445D03*
X-006087Y009634D03*
Y009831D03*
Y010028D03*
Y010224D03*
Y010421D03*
Y010618D03*
Y010815D03*
Y011012D03*
Y011209D03*
Y011406D03*
Y011602D03*
Y011799D03*
Y011996D03*
Y012193D03*
Y012390D03*
Y012587D03*
Y012783D03*
Y012980D03*
Y013177D03*
Y013374D03*
Y013571D03*
Y013768D03*
Y013965D03*
Y014161D03*
Y014358D03*
X-000024Y009634D03*
Y009831D03*
Y010028D03*
Y010224D03*
Y010421D03*
Y010618D03*
Y010815D03*
Y011012D03*
Y011209D03*
Y011406D03*
Y011602D03*
Y011799D03*
Y011996D03*
Y012193D03*
Y012390D03*
Y012587D03*
Y012783D03*
Y012980D03*
Y013177D03*
Y013374D03*
Y013571D03*
Y013768D03*
Y013965D03*
Y014161D03*
Y014358D03*
G54D14*
X-097028Y068587D03*
Y069138D03*
X-096016Y068587D03*
Y069138D03*
X-093689Y062315D03*
Y062866D03*
X-093154Y022472D03*
Y023024D03*
X-093067Y062315D03*
Y062866D03*
X-092657Y038150D03*
Y038701D03*
X-091345Y015729D03*
Y016281D03*
X-091201Y014736D03*
Y015287D03*
X-090114Y032012D03*
Y032563D03*
X-086303Y047516D03*
Y048067D03*
X-085216Y064791D03*
Y065343D03*
X-085072Y063798D03*
Y064349D03*
X-083760Y041378D03*
Y041929D03*
X-083350Y017213D03*
Y017764D03*
X-083264Y057055D03*
Y057606D03*
X-082728Y017213D03*
Y017764D03*
X-080402Y010941D03*
Y011492D03*
X-079390Y010941D03*
Y011492D03*
X-070020Y068587D03*
Y069138D03*
X-069008Y068587D03*
Y069138D03*
X-066681Y062315D03*
Y062866D03*
X-066146Y022472D03*
Y023024D03*
X-066059Y062315D03*
Y062866D03*
X-065650Y038150D03*
Y038701D03*
X-064338Y015729D03*
Y016281D03*
X-064194Y014736D03*
Y015287D03*
X-063106Y032012D03*
Y032563D03*
X-059295Y047516D03*
Y048067D03*
X-058208Y064791D03*
Y065343D03*
X-058064Y063798D03*
Y064349D03*
X-056752Y041378D03*
Y041929D03*
X-056343Y017213D03*
Y017764D03*
X-056256Y057055D03*
Y057606D03*
X-055720Y017213D03*
Y017764D03*
X-053394Y010941D03*
Y011492D03*
X-052382Y010941D03*
Y011492D03*
X-043012Y068587D03*
Y069138D03*
X-042000Y068587D03*
Y069138D03*
X-039673Y062315D03*
Y062866D03*
X-039138Y022472D03*
Y023024D03*
X-039051Y062315D03*
Y062866D03*
X-038642Y038150D03*
Y038701D03*
X-037330Y015729D03*
Y016281D03*
X-037186Y014736D03*
Y015287D03*
X-036098Y032012D03*
Y032563D03*
X-032287Y047516D03*
Y048067D03*
X-031200Y064791D03*
Y065343D03*
X-031056Y063798D03*
Y064349D03*
X-029744Y041378D03*
Y041929D03*
X-029335Y017213D03*
Y017764D03*
X-029248Y057055D03*
Y057606D03*
X-028713Y017213D03*
Y017764D03*
X-026386Y010941D03*
Y011492D03*
X-025374Y010941D03*
Y011492D03*
X-016004Y068587D03*
Y069138D03*
X-014992Y068587D03*
Y069138D03*
X-012665Y062315D03*
Y062866D03*
X-012130Y022472D03*
Y023024D03*
X-012043Y062315D03*
Y062866D03*
X-011634Y038150D03*
Y038701D03*
X-010322Y015729D03*
Y016281D03*
X-010178Y014736D03*
Y015287D03*
X-009091Y032012D03*
Y032563D03*
X-005280Y047516D03*
Y048067D03*
X-004192Y064791D03*
Y065343D03*
X-004048Y063798D03*
Y064349D03*
X-002736Y041378D03*
Y041929D03*
X-002327Y017213D03*
Y017764D03*
X-002240Y057055D03*
Y057606D03*
X-001705Y017213D03*
Y017764D03*
X000622Y010941D03*
Y011492D03*
X001634Y010941D03*
Y011492D03*
G54D15*
X-097189Y069732D03*
Y070402D03*
X-096323Y069732D03*
Y070402D03*
X-080094Y009677D03*
Y010346D03*
X-079228Y009677D03*
Y010346D03*
X-070181Y069732D03*
Y070402D03*
X-069315Y069732D03*
Y070402D03*
X-053087Y009677D03*
Y010346D03*
X-052220Y009677D03*
Y010346D03*
X-043173Y069732D03*
Y070402D03*
X-042307Y069732D03*
Y070402D03*
X-026079Y009677D03*
Y010346D03*
X-025213Y009677D03*
Y010346D03*
X-016165Y069732D03*
Y070402D03*
X-015299Y069732D03*
Y070402D03*
X000929Y009677D03*
Y010346D03*
X001795Y009677D03*
Y010346D03*
G54D16*
X-098098Y033957D03*
X-097744D03*
X-096941Y030984D03*
X-096587D03*
X-095484Y071461D03*
X-095378Y024642D03*
X-095130Y071461D03*
X-095126Y044776D03*
Y045409D03*
X-095024Y024642D03*
X-094870Y040673D03*
X-094772Y044776D03*
Y045409D03*
X-094689Y024650D03*
X-094663Y064299D03*
X-094516Y040673D03*
X-094425Y047181D03*
X-094413Y045402D03*
X-094335Y024650D03*
X-094309Y064299D03*
X-094154Y040673D03*
X-094071Y047181D03*
X-094059Y045402D03*
X-093799Y040673D03*
X-092689Y064311D03*
X-092622Y016106D03*
X-092335Y064311D03*
X-092268Y016106D03*
X-092238Y049006D03*
Y049429D03*
X-091884Y049006D03*
Y049429D03*
X-091850Y046478D03*
X-091496D03*
X-090516Y052795D03*
X-090161D03*
X-089514Y064402D03*
Y064839D03*
X-089159Y064402D03*
Y064839D03*
X-088465Y068937D03*
Y069598D03*
X-088425Y009685D03*
Y013303D03*
Y013839D03*
Y014331D03*
Y014945D03*
X-088394Y030441D03*
Y031000D03*
X-088378Y049079D03*
Y049638D03*
X-088346Y065134D03*
Y065748D03*
Y066240D03*
Y066776D03*
Y070394D03*
X-088307Y010480D03*
Y011142D03*
X-088110Y068937D03*
Y069598D03*
X-088071Y009685D03*
Y013303D03*
Y013839D03*
Y014331D03*
Y014945D03*
X-088039Y030441D03*
Y031000D03*
X-088024Y049079D03*
Y049638D03*
X-087992Y065134D03*
Y065748D03*
Y066240D03*
Y066776D03*
Y070394D03*
X-087953Y010480D03*
Y011142D03*
X-087258Y015240D03*
Y015677D03*
X-086904Y015240D03*
Y015677D03*
X-086256Y027283D03*
X-085902D03*
X-084921Y033600D03*
X-084567D03*
X-084533Y030650D03*
Y031073D03*
X-084179Y030650D03*
Y031073D03*
X-084150Y063972D03*
X-084083Y015768D03*
X-083795Y063972D03*
X-083728Y015768D03*
X-082618Y039406D03*
X-082358Y034677D03*
X-082346Y032898D03*
X-082264Y039406D03*
X-082108Y015780D03*
X-082083Y055429D03*
X-082004Y034677D03*
X-081992Y032898D03*
X-081902Y039406D03*
X-081754Y015780D03*
X-081728Y055429D03*
X-081646Y034669D03*
Y035303D03*
X-081547Y039406D03*
X-081394Y055437D03*
X-081291Y034669D03*
Y035303D03*
X-081287Y008618D03*
X-081039Y055437D03*
X-080933Y008618D03*
X-079831Y049094D03*
X-079476D03*
X-078673Y046122D03*
X-078319D03*
X-071091Y033957D03*
X-070736D03*
X-069933Y030984D03*
X-069579D03*
X-068476Y071461D03*
X-068370Y024642D03*
X-068122Y071461D03*
X-068118Y044776D03*
Y045409D03*
X-068016Y024642D03*
X-067862Y040673D03*
X-067764Y044776D03*
Y045409D03*
X-067681Y024650D03*
X-067656Y064299D03*
X-067508Y040673D03*
X-067417Y047181D03*
X-067406Y045402D03*
X-067327Y024650D03*
X-067301Y064299D03*
X-067146Y040673D03*
X-067063Y047181D03*
X-067051Y045402D03*
X-066791Y040673D03*
X-065681Y064311D03*
X-065614Y016106D03*
X-065327Y064311D03*
X-065260Y016106D03*
X-065230Y049006D03*
Y049429D03*
X-064876Y049006D03*
Y049429D03*
X-064843Y046478D03*
X-064488D03*
X-063508Y052795D03*
X-063154D03*
X-062506Y064402D03*
Y064839D03*
X-062152Y064402D03*
Y064839D03*
X-061457Y068937D03*
Y069598D03*
X-061417Y009685D03*
Y013303D03*
Y013839D03*
Y014331D03*
Y014945D03*
X-061386Y030441D03*
Y031000D03*
X-061370Y049079D03*
Y049638D03*
X-061339Y065134D03*
Y065748D03*
Y066240D03*
Y066776D03*
Y070394D03*
X-061299Y010480D03*
Y011142D03*
X-061102Y068937D03*
Y069598D03*
X-061063Y009685D03*
Y013303D03*
Y013839D03*
Y014331D03*
Y014945D03*
X-061031Y030441D03*
Y031000D03*
X-061016Y049079D03*
Y049638D03*
X-060984Y065134D03*
Y065748D03*
Y066240D03*
Y066776D03*
Y070394D03*
X-060945Y010480D03*
Y011142D03*
X-060250Y015240D03*
Y015677D03*
X-059896Y015240D03*
Y015677D03*
X-059248Y027283D03*
X-058894D03*
X-057913Y033600D03*
X-057559D03*
X-057526Y030650D03*
Y031073D03*
X-057171Y030650D03*
Y031073D03*
X-057142Y063972D03*
X-057075Y015768D03*
X-056787Y063972D03*
X-056720Y015768D03*
X-055610Y039406D03*
X-055350Y034677D03*
X-055339Y032898D03*
X-055256Y039406D03*
X-055100Y015780D03*
X-055075Y055429D03*
X-054996Y034677D03*
X-054984Y032898D03*
X-054894Y039406D03*
X-054746Y015780D03*
X-054720Y055429D03*
X-054638Y034669D03*
Y035303D03*
X-054539Y039406D03*
X-054386Y055437D03*
X-054283Y034669D03*
Y035303D03*
X-054280Y008618D03*
X-054031Y055437D03*
X-053925Y008618D03*
X-052823Y049094D03*
X-052469D03*
X-051665Y046122D03*
X-051311D03*
X-044083Y033957D03*
X-043728D03*
X-042925Y030984D03*
X-042571D03*
X-041469Y071461D03*
X-041362Y024642D03*
X-041114Y071461D03*
X-041110Y044776D03*
Y045409D03*
X-041008Y024642D03*
X-040854Y040673D03*
X-040756Y044776D03*
Y045409D03*
X-040673Y024650D03*
X-040648Y064299D03*
X-040500Y040673D03*
X-040409Y047181D03*
X-040398Y045402D03*
X-040319Y024650D03*
X-040293Y064299D03*
X-040138Y040673D03*
X-040055Y047181D03*
X-040043Y045402D03*
X-039783Y040673D03*
X-038673Y064311D03*
X-038606Y016106D03*
X-038319Y064311D03*
X-038252Y016106D03*
X-038222Y049006D03*
Y049429D03*
X-037868Y049006D03*
Y049429D03*
X-037835Y046478D03*
X-037480D03*
X-036500Y052795D03*
X-036146D03*
X-035498Y064402D03*
Y064839D03*
X-035144Y064402D03*
Y064839D03*
X-034449Y068937D03*
Y069598D03*
X-034409Y009685D03*
Y013303D03*
Y013839D03*
Y014331D03*
Y014945D03*
X-034378Y030441D03*
Y031000D03*
X-034362Y049079D03*
Y049638D03*
X-034331Y065134D03*
Y065748D03*
Y066240D03*
Y066776D03*
Y070394D03*
X-034291Y010480D03*
Y011142D03*
X-034094Y068937D03*
Y069598D03*
X-034055Y009685D03*
Y013303D03*
Y013839D03*
Y014331D03*
Y014945D03*
X-034024Y030441D03*
Y031000D03*
X-034008Y049079D03*
Y049638D03*
X-033976Y065134D03*
Y065748D03*
Y066240D03*
Y066776D03*
Y070394D03*
X-033937Y010480D03*
Y011142D03*
X-033242Y015240D03*
Y015677D03*
X-032888Y015240D03*
Y015677D03*
X-032240Y027283D03*
X-031886D03*
X-030906Y033600D03*
X-030551D03*
X-030518Y030650D03*
Y031073D03*
X-030163Y030650D03*
Y031073D03*
X-030134Y063972D03*
X-030067Y015768D03*
X-029780Y063972D03*
X-029713Y015768D03*
X-028602Y039406D03*
X-028343Y034677D03*
X-028331Y032898D03*
X-028248Y039406D03*
X-028093Y015780D03*
X-028067Y055429D03*
X-027988Y034677D03*
X-027976Y032898D03*
X-027886Y039406D03*
X-027738Y015780D03*
X-027713Y055429D03*
X-027630Y034669D03*
Y035303D03*
X-027531Y039406D03*
X-027378Y055437D03*
X-027276Y034669D03*
Y035303D03*
X-027272Y008618D03*
X-027024Y055437D03*
X-026917Y008618D03*
X-025815Y049094D03*
X-025461D03*
X-024657Y046122D03*
X-024303D03*
X-017075Y033957D03*
X-016720D03*
X-015917Y030984D03*
X-015563D03*
X-014461Y071461D03*
X-014354Y024642D03*
X-014106Y071461D03*
X-014102Y044776D03*
Y045409D03*
X-014000Y024642D03*
X-013846Y040673D03*
X-013748Y044776D03*
Y045409D03*
X-013665Y024650D03*
X-013640Y064299D03*
X-013492Y040673D03*
X-013402Y047181D03*
X-013390Y045402D03*
X-013311Y024650D03*
X-013285Y064299D03*
X-013130Y040673D03*
X-013047Y047181D03*
X-013035Y045402D03*
X-012776Y040673D03*
X-011665Y064311D03*
X-011598Y016106D03*
X-011311Y064311D03*
X-011244Y016106D03*
X-011215Y049006D03*
Y049429D03*
X-010860Y049006D03*
Y049429D03*
X-010827Y046478D03*
X-010472D03*
X-009492Y052795D03*
X-009138D03*
X-008490Y064402D03*
Y064839D03*
X-008136Y064402D03*
Y064839D03*
X-007441Y068937D03*
Y069598D03*
X-007402Y009685D03*
Y013303D03*
Y013839D03*
Y014331D03*
Y014945D03*
X-007370Y030441D03*
Y031000D03*
X-007354Y049079D03*
Y049638D03*
X-007323Y065134D03*
Y065748D03*
Y066240D03*
Y066776D03*
Y070394D03*
X-007283Y010480D03*
Y011142D03*
X-007087Y068937D03*
Y069598D03*
X-007047Y009685D03*
Y013303D03*
Y013839D03*
Y014331D03*
Y014945D03*
X-007016Y030441D03*
Y031000D03*
X-007000Y049079D03*
Y049638D03*
X-006969Y065134D03*
Y065748D03*
Y066240D03*
Y066776D03*
Y070394D03*
X-006929Y010480D03*
Y011142D03*
X-006234Y015240D03*
Y015677D03*
X-005880Y015240D03*
Y015677D03*
X-005232Y027283D03*
X-004878D03*
X-003898Y033600D03*
X-003543D03*
X-003510Y030650D03*
Y031073D03*
X-003156Y030650D03*
Y031073D03*
X-003126Y063972D03*
X-003059Y015768D03*
X-002772Y063972D03*
X-002705Y015768D03*
X-001594Y039406D03*
X-001335Y034677D03*
X-001323Y032898D03*
X-001240Y039406D03*
X-001085Y015780D03*
X-001059Y055429D03*
X-000980Y034677D03*
X-000969Y032898D03*
X-000878Y039406D03*
X-000730Y015780D03*
X-000705Y055429D03*
X-000622Y034669D03*
Y035303D03*
X-000524Y039406D03*
X-000370Y055437D03*
X-000268Y034669D03*
Y035303D03*
X-000264Y008618D03*
X-000016Y055437D03*
X000091Y008618D03*
X001193Y049094D03*
X001547D03*
X002350Y046122D03*
X002705D03*
G54D17*
X-093110Y047012D03*
X-092736Y046224D03*
X-092362Y047012D03*
X-084055Y033067D03*
X-083681Y033854D03*
X-083307Y033067D03*
X-066102Y047012D03*
X-065728Y046224D03*
X-065354Y047012D03*
X-057047Y033067D03*
X-056673Y033854D03*
X-056299Y033067D03*
X-039094Y047012D03*
X-038720Y046224D03*
X-038346Y047012D03*
X-030039Y033067D03*
X-029665Y033854D03*
X-029291Y033067D03*
X-012087Y047012D03*
X-011713Y046224D03*
X-011339Y047012D03*
X-003031Y033067D03*
X-002657Y033854D03*
X-002283Y033067D03*
G54D18*
X-095331Y012526D03*
Y013726D03*
X-094425Y012526D03*
Y013726D03*
X-094252Y014795D03*
Y015937D03*
X-093520Y012526D03*
Y013726D03*
X-092614Y012526D03*
Y013726D03*
X-083803Y066353D03*
Y067553D03*
X-082898Y066353D03*
Y067553D03*
X-082165Y064142D03*
Y065283D03*
X-081992Y066353D03*
Y067553D03*
X-081087Y066353D03*
Y067553D03*
X-068323Y012526D03*
Y013726D03*
X-067417Y012526D03*
Y013726D03*
X-067244Y014795D03*
Y015937D03*
X-066512Y012526D03*
Y013726D03*
X-065606Y012526D03*
Y013726D03*
X-056795Y066353D03*
Y067553D03*
X-055890Y066353D03*
Y067553D03*
X-055157Y064142D03*
Y065283D03*
X-054984Y066353D03*
Y067553D03*
X-054079Y066353D03*
Y067553D03*
X-041315Y012526D03*
Y013726D03*
X-040409Y012526D03*
Y013726D03*
X-040236Y014795D03*
Y015937D03*
X-039504Y012526D03*
Y013726D03*
X-038598Y012526D03*
Y013726D03*
X-029787Y066353D03*
Y067553D03*
X-028882Y066353D03*
Y067553D03*
X-028150Y064142D03*
Y065283D03*
X-027976Y066353D03*
Y067553D03*
X-027071Y066353D03*
Y067553D03*
X-014307Y012526D03*
Y013726D03*
X-013402Y012526D03*
Y013726D03*
X-013228Y014795D03*
Y015937D03*
X-012496Y012526D03*
Y013726D03*
X-011591Y012526D03*
Y013726D03*
X-002780Y066353D03*
Y067553D03*
X-001874Y066353D03*
Y067553D03*
X-001142Y064142D03*
Y065283D03*
X-000969Y066353D03*
Y067553D03*
X-000063Y066353D03*
Y067553D03*
G54D19*
X-099098Y029075D03*
Y029429D03*
X-097106Y029075D03*
Y029429D03*
X-096524Y068665D03*
Y069020D03*
X-096069Y067528D03*
Y067882D03*
X-095941Y022008D03*
Y022362D03*
X-095443Y064819D03*
Y065173D03*
X-095390Y037945D03*
Y038299D03*
X-095106Y046122D03*
Y046476D03*
X-093197Y023709D03*
Y024063D03*
X-092724Y039728D03*
Y040083D03*
X-091781Y049882D03*
Y050236D03*
X-091543Y072134D03*
Y072488D03*
X-091469Y050555D03*
Y050909D03*
X-090642Y072134D03*
Y072488D03*
X-090295Y063461D03*
Y063815D03*
X-089579Y032016D03*
Y032370D03*
X-089051Y031657D03*
Y032012D03*
X-087366Y048067D03*
Y048421D03*
X-086839Y047709D03*
Y048063D03*
X-086122Y016264D03*
Y016618D03*
X-085776Y007591D03*
Y007945D03*
X-084949Y029169D03*
Y029524D03*
X-084874Y007591D03*
Y007945D03*
X-084636Y029843D03*
Y030197D03*
X-083693Y039996D03*
Y040350D03*
X-083220Y056016D03*
Y056370D03*
X-081311Y033602D03*
Y033957D03*
X-081028Y041780D03*
Y042134D03*
X-080974Y014906D03*
Y015260D03*
X-080476Y057717D03*
Y058071D03*
X-080348Y012197D03*
Y012551D03*
X-079894Y011059D03*
Y011413D03*
X-079311Y050650D03*
Y051004D03*
X-077319Y050650D03*
Y051004D03*
X-072091Y029075D03*
Y029429D03*
X-070098Y029075D03*
Y029429D03*
X-069516Y068665D03*
Y069020D03*
X-069061Y067528D03*
Y067882D03*
X-068933Y022008D03*
Y022362D03*
X-068435Y064819D03*
Y065173D03*
X-068382Y037945D03*
Y038299D03*
X-068098Y046122D03*
Y046476D03*
X-066189Y023709D03*
Y024063D03*
X-065717Y039728D03*
Y040083D03*
X-064774Y049882D03*
Y050236D03*
X-064535Y072134D03*
Y072488D03*
X-064461Y050555D03*
Y050909D03*
X-063634Y072134D03*
Y072488D03*
X-063287Y063461D03*
Y063815D03*
X-062571Y032016D03*
Y032370D03*
X-062043Y031657D03*
Y032012D03*
X-060358Y048067D03*
Y048421D03*
X-059831Y047709D03*
Y048063D03*
X-059114Y016264D03*
Y016618D03*
X-058768Y007591D03*
Y007945D03*
X-057941Y029169D03*
Y029524D03*
X-057866Y007591D03*
Y007945D03*
X-057628Y029843D03*
Y030197D03*
X-056685Y039996D03*
Y040350D03*
X-056213Y056016D03*
Y056370D03*
X-054303Y033602D03*
Y033957D03*
X-054020Y041780D03*
Y042134D03*
X-053967Y014906D03*
Y015260D03*
X-053469Y057717D03*
Y058071D03*
X-053341Y012197D03*
Y012551D03*
X-052886Y011059D03*
Y011413D03*
X-052303Y050650D03*
Y051004D03*
X-050311Y050650D03*
Y051004D03*
X-045083Y029075D03*
Y029429D03*
X-043091Y029075D03*
Y029429D03*
X-042508Y068665D03*
Y069020D03*
X-042053Y067528D03*
Y067882D03*
X-041925Y022008D03*
Y022362D03*
X-041427Y064819D03*
Y065173D03*
X-041374Y037945D03*
Y038299D03*
X-041091Y046122D03*
Y046476D03*
X-039181Y023709D03*
Y024063D03*
X-038709Y039728D03*
Y040083D03*
X-037766Y049882D03*
Y050236D03*
X-037528Y072134D03*
Y072488D03*
X-037453Y050555D03*
Y050909D03*
X-036626Y072134D03*
Y072488D03*
X-036280Y063461D03*
Y063815D03*
X-035563Y032016D03*
Y032370D03*
X-035035Y031657D03*
Y032012D03*
X-033350Y048067D03*
Y048421D03*
X-032823Y047709D03*
Y048063D03*
X-032106Y016264D03*
Y016618D03*
X-031760Y007591D03*
Y007945D03*
X-030933Y029169D03*
Y029524D03*
X-030858Y007591D03*
Y007945D03*
X-030620Y029843D03*
Y030197D03*
X-029677Y039996D03*
Y040350D03*
X-029205Y056016D03*
Y056370D03*
X-027295Y033602D03*
Y033957D03*
X-027012Y041780D03*
Y042134D03*
X-026959Y014906D03*
Y015260D03*
X-026461Y057717D03*
Y058071D03*
X-026333Y012197D03*
Y012551D03*
X-025878Y011059D03*
Y011413D03*
X-025295Y050650D03*
Y051004D03*
X-023303Y050650D03*
Y051004D03*
X-018075Y029075D03*
Y029429D03*
X-016083Y029075D03*
Y029429D03*
X-015500Y068665D03*
Y069020D03*
X-015045Y067528D03*
Y067882D03*
X-014917Y022008D03*
Y022362D03*
X-014419Y064819D03*
Y065173D03*
X-014366Y037945D03*
Y038299D03*
X-014083Y046122D03*
Y046476D03*
X-012173Y023709D03*
Y024063D03*
X-011701Y039728D03*
Y040083D03*
X-010758Y049882D03*
Y050236D03*
X-010520Y072134D03*
Y072488D03*
X-010445Y050555D03*
Y050909D03*
X-009618Y072134D03*
Y072488D03*
X-009272Y063461D03*
Y063815D03*
X-008555Y032016D03*
Y032370D03*
X-008028Y031657D03*
Y032012D03*
X-006343Y048067D03*
Y048421D03*
X-005815Y047709D03*
Y048063D03*
X-005098Y016264D03*
Y016618D03*
X-004752Y007591D03*
Y007945D03*
X-003925Y029169D03*
Y029524D03*
X-003850Y007591D03*
Y007945D03*
X-003612Y029843D03*
Y030197D03*
X-002669Y039996D03*
Y040350D03*
X-002197Y056016D03*
Y056370D03*
X-000287Y033602D03*
Y033957D03*
X-000004Y041780D03*
Y042134D03*
X000049Y014906D03*
Y015260D03*
X000547Y057717D03*
Y058071D03*
X000675Y012197D03*
Y012551D03*
X001130Y011059D03*
Y011413D03*
X001713Y050650D03*
Y051004D03*
X003705Y050650D03*
Y051004D03*
G54D20*
X-092476Y048012D03*
Y048268D03*
Y048524D03*
X-091689Y048012D03*
Y048268D03*
Y048524D03*
X-084728Y031555D03*
Y031811D03*
Y032067D03*
X-083941Y031555D03*
Y031811D03*
Y032067D03*
X-065469Y048012D03*
Y048268D03*
Y048524D03*
X-064681Y048012D03*
Y048268D03*
Y048524D03*
X-057720Y031555D03*
Y031811D03*
Y032067D03*
X-056933Y031555D03*
Y031811D03*
Y032067D03*
X-038461Y048012D03*
Y048268D03*
Y048524D03*
X-037673Y048012D03*
Y048268D03*
Y048524D03*
X-030713Y031555D03*
Y031811D03*
Y032067D03*
X-029925Y031555D03*
Y031811D03*
Y032067D03*
X-011453Y048012D03*
Y048268D03*
Y048524D03*
X-010665Y048012D03*
Y048268D03*
Y048524D03*
X-003705Y031555D03*
Y031811D03*
Y032067D03*
X-002917Y031555D03*
Y031811D03*
Y032067D03*
G54D21*
X-095373Y021896D03*
Y024061D03*
X-094873Y021896D03*
Y024061D03*
X-094798Y037944D03*
Y040109D03*
X-094373Y021896D03*
Y024061D03*
X-094298Y037944D03*
Y040109D03*
X-093873Y021896D03*
Y024061D03*
X-093798Y037944D03*
Y040109D03*
X-093298Y037944D03*
Y040109D03*
X-083119Y039969D03*
Y042135D03*
X-082619Y039969D03*
Y042135D03*
X-082544Y056018D03*
Y058183D03*
X-082119Y039969D03*
Y042135D03*
X-082044Y056018D03*
Y058183D03*
X-081619Y039969D03*
Y042135D03*
X-081544Y056018D03*
Y058183D03*
X-081044Y056018D03*
Y058183D03*
X-068366Y021896D03*
Y024061D03*
X-067866Y021896D03*
Y024061D03*
X-067791Y037944D03*
Y040109D03*
X-067366Y021896D03*
Y024061D03*
X-067291Y037944D03*
Y040109D03*
X-066866Y021896D03*
Y024061D03*
X-066791Y037944D03*
Y040109D03*
X-066291Y037944D03*
Y040109D03*
X-056111Y039969D03*
Y042135D03*
X-055611Y039969D03*
Y042135D03*
X-055536Y056018D03*
Y058183D03*
X-055111Y039969D03*
Y042135D03*
X-055036Y056018D03*
Y058183D03*
X-054611Y039969D03*
Y042135D03*
X-054536Y056018D03*
Y058183D03*
X-054036Y056018D03*
Y058183D03*
X-041358Y021896D03*
Y024061D03*
X-040858Y021896D03*
Y024061D03*
X-040783Y037944D03*
Y040109D03*
X-040358Y021896D03*
Y024061D03*
X-040283Y037944D03*
Y040109D03*
X-039858Y021896D03*
Y024061D03*
X-039783Y037944D03*
Y040109D03*
X-039283Y037944D03*
Y040109D03*
X-029103Y039969D03*
Y042135D03*
X-028603Y039969D03*
Y042135D03*
X-028528Y056018D03*
Y058183D03*
X-028103Y039969D03*
Y042135D03*
X-028028Y056018D03*
Y058183D03*
X-027603Y039969D03*
Y042135D03*
X-027528Y056018D03*
Y058183D03*
X-027028Y056018D03*
Y058183D03*
X-014350Y021896D03*
Y024061D03*
X-013850Y021896D03*
Y024061D03*
X-013775Y037944D03*
Y040109D03*
X-013350Y021896D03*
Y024061D03*
X-013275Y037944D03*
Y040109D03*
X-012850Y021896D03*
Y024061D03*
X-012775Y037944D03*
Y040109D03*
X-012275Y037944D03*
Y040109D03*
X-002095Y039969D03*
Y042135D03*
X-001595Y039969D03*
Y042135D03*
X-001520Y056018D03*
Y058183D03*
X-001095Y039969D03*
Y042135D03*
X-001020Y056018D03*
Y058183D03*
X-000595Y039969D03*
Y042135D03*
X-000520Y056018D03*
Y058183D03*
X-000020Y056018D03*
Y058183D03*
G54D22*
X-096217Y012232D03*
Y012941D03*
X-093396Y014697D03*
Y015406D03*
X-083022Y064673D03*
Y065382D03*
X-080201Y067138D03*
Y067846D03*
X-069209Y012232D03*
Y012941D03*
X-066388Y014697D03*
Y015406D03*
X-056014Y064673D03*
Y065382D03*
X-053193Y067138D03*
Y067846D03*
X-042201Y012232D03*
Y012941D03*
X-039380Y014697D03*
Y015406D03*
X-029006Y064673D03*
Y065382D03*
X-026185Y067138D03*
Y067846D03*
X-015193Y012232D03*
Y012941D03*
X-012372Y014697D03*
Y015406D03*
X-001998Y064673D03*
Y065382D03*
X000823Y067138D03*
Y067846D03*
G54D23*
X-091047Y012587D03*
Y014083D03*
X-085370Y065996D03*
Y067492D03*
X-064039Y012587D03*
Y014083D03*
X-058362Y065996D03*
Y067492D03*
X-037031Y012587D03*
Y014083D03*
X-031354Y065996D03*
Y067492D03*
X-010024Y012587D03*
Y014083D03*
X-004346Y065996D03*
Y067492D03*
G54D24*
X-093205Y053386D03*
X-092024D03*
X-084394Y026693D03*
X-083213D03*
X-066197Y053386D03*
X-065016D03*
X-057386Y026693D03*
X-056205D03*
X-039189Y053386D03*
X-038008D03*
X-030378Y026693D03*
X-029197D03*
X-012181Y053386D03*
X-011000D03*
X-003370Y026693D03*
X-002189D03*
G54D25*
X-093272Y049632D03*
X-093016Y048825D03*
X-092760Y049632D03*
X-083657Y030447D03*
X-083402Y031254D03*
X-083146Y030447D03*
X-066264Y049632D03*
X-066008Y048825D03*
X-065752Y049632D03*
X-056650Y030447D03*
X-056394Y031254D03*
X-056138Y030447D03*
X-039256Y049632D03*
X-039000Y048825D03*
X-038744Y049632D03*
X-029642Y030447D03*
X-029386Y031254D03*
X-029130Y030447D03*
X-012248Y049632D03*
X-011992Y048825D03*
X-011736Y049632D03*
X-002634Y030447D03*
X-002378Y031254D03*
X-002122Y030447D03*
G54D26*
X-094323Y045933D03*
Y046720D03*
X-094067Y045933D03*
Y046720D03*
X-093811Y045933D03*
Y046720D03*
X-082606Y033358D03*
Y034146D03*
X-082350Y033358D03*
Y034146D03*
X-082094Y033358D03*
Y034146D03*
X-067315Y045933D03*
Y046720D03*
X-067059Y045933D03*
Y046720D03*
X-066803Y045933D03*
Y046720D03*
X-055598Y033358D03*
Y034146D03*
X-055343Y033358D03*
Y034146D03*
X-055087Y033358D03*
Y034146D03*
X-040307Y045933D03*
Y046720D03*
X-040051Y045933D03*
Y046720D03*
X-039795Y045933D03*
Y046720D03*
X-028591Y033358D03*
Y034146D03*
X-028335Y033358D03*
Y034146D03*
X-028079Y033358D03*
Y034146D03*
X-013299Y045933D03*
Y046720D03*
X-013043Y045933D03*
Y046720D03*
X-012787Y045933D03*
Y046720D03*
X-001583Y033358D03*
Y034146D03*
X-001327Y033358D03*
Y034146D03*
X-001071Y033358D03*
Y034146D03*
G54D27*
X-096297Y031776D03*
Y032957D03*
X-080120Y047122D03*
Y048303D03*
X-069289Y031776D03*
Y032957D03*
X-053112Y047122D03*
Y048303D03*
X-042281Y031776D03*
Y032957D03*
X-026104Y047122D03*
Y048303D03*
X-015274Y031776D03*
Y032957D03*
X000904Y047122D03*
Y048303D03*
G54D28*
X-092835Y052224D03*
X-091890Y051850D03*
Y052598D03*
X-090953Y049945D03*
Y050693D03*
Y051504D03*
Y052252D03*
X-090165Y050319D03*
Y051878D03*
X-086252Y028201D03*
Y029760D03*
X-085465Y027827D03*
Y028575D03*
Y029386D03*
Y030134D03*
X-084528Y027480D03*
Y028228D03*
X-083583Y027854D03*
X-065827Y052224D03*
X-064882Y051850D03*
Y052598D03*
X-063945Y049945D03*
Y050693D03*
Y051504D03*
Y052252D03*
X-063157Y050319D03*
Y051878D03*
X-059244Y028201D03*
Y029760D03*
X-058457Y027827D03*
Y028575D03*
Y029386D03*
Y030134D03*
X-057520Y027480D03*
Y028228D03*
X-056575Y027854D03*
X-038819Y052224D03*
X-037874Y051850D03*
Y052598D03*
X-036937Y049945D03*
Y050693D03*
Y051504D03*
Y052252D03*
X-036150Y050319D03*
Y051878D03*
X-032236Y028201D03*
Y029760D03*
X-031449Y027827D03*
Y028575D03*
Y029386D03*
Y030134D03*
X-030512Y027480D03*
Y028228D03*
X-029567Y027854D03*
X-011811Y052224D03*
X-010866Y051850D03*
Y052598D03*
X-009929Y049945D03*
Y050693D03*
Y051504D03*
Y052252D03*
X-009142Y050319D03*
Y051878D03*
X-005228Y028201D03*
Y029760D03*
X-004441Y027827D03*
Y028575D03*
Y029386D03*
Y030134D03*
X-003504Y027480D03*
Y028228D03*
X-002559Y027854D03*
G54D29*
X-100026Y016283D03*
X-099518Y013409D03*
X-097959Y016283D03*
X-097451Y013409D03*
X-078967Y066669D03*
X-078459Y063795D03*
X-076900Y066669D03*
X-076392Y063795D03*
X-073018Y016283D03*
X-072510Y013409D03*
X-070951Y016283D03*
X-070443Y013409D03*
X-051959Y066669D03*
X-051451Y063795D03*
X-049892Y066669D03*
X-049384Y063795D03*
X-046010Y016283D03*
X-045502Y013409D03*
X-043943Y016283D03*
X-043435Y013409D03*
X-024951Y066669D03*
X-024443Y063795D03*
X-022884Y066669D03*
X-022376Y063795D03*
X-019002Y016283D03*
X-018494Y013409D03*
X-016935Y016283D03*
X-016427Y013409D03*
X002057Y066669D03*
X002565Y063795D03*
X004124Y066669D03*
X004632Y063795D03*
G54D30*
X-096386Y015331D03*
Y016354D03*
X-080031Y063724D03*
Y064748D03*
X-069378Y015331D03*
Y016354D03*
X-053024Y063724D03*
Y064748D03*
X-042370Y015331D03*
Y016354D03*
X-026016Y063724D03*
Y064748D03*
X-015362Y015331D03*
Y016354D03*
X000992Y063724D03*
Y064748D03*
G54D31*
X-098140Y032256D03*
Y033358D03*
X-097884Y032256D03*
Y033358D03*
X-097628Y032256D03*
Y033358D03*
X-097372Y032256D03*
Y033358D03*
X-079045Y046720D03*
Y047823D03*
X-078789Y046720D03*
Y047823D03*
X-078533Y046720D03*
Y047823D03*
X-078278Y046720D03*
Y047823D03*
X-071132Y032256D03*
Y033358D03*
X-070876Y032256D03*
Y033358D03*
X-070620Y032256D03*
Y033358D03*
X-070364Y032256D03*
Y033358D03*
X-052037Y046720D03*
Y047823D03*
X-051781Y046720D03*
Y047823D03*
X-051526Y046720D03*
Y047823D03*
X-051270Y046720D03*
Y047823D03*
X-044124Y032256D03*
Y033358D03*
X-043868Y032256D03*
Y033358D03*
X-043612Y032256D03*
Y033358D03*
X-043356Y032256D03*
Y033358D03*
X-025030Y046720D03*
Y047823D03*
X-024774Y046720D03*
Y047823D03*
X-024518Y046720D03*
Y047823D03*
X-024262Y046720D03*
Y047823D03*
X-017116Y032256D03*
Y033358D03*
X-016860Y032256D03*
Y033358D03*
X-016604Y032256D03*
Y033358D03*
X-016348Y032256D03*
Y033358D03*
X001978Y046720D03*
Y047823D03*
X002234Y046720D03*
Y047823D03*
X002490Y046720D03*
Y047823D03*
X002746Y046720D03*
Y047823D03*
G54D32*
X-097756Y032807D03*
X-078661Y047272D03*
X-070748Y032807D03*
X-051654Y047272D03*
X-043740Y032807D03*
X-024646Y047272D03*
X-016732Y032807D03*
X002362Y047272D03*
G54D33*
X-098606Y029106D03*
Y030878D03*
X-097622Y029106D03*
Y030878D03*
X-078795Y049201D03*
Y050972D03*
X-077811Y049201D03*
Y050972D03*
X-071598Y029106D03*
Y030878D03*
X-070614Y029106D03*
Y030878D03*
X-051787Y049201D03*
Y050972D03*
X-050803Y049201D03*
Y050972D03*
X-044591Y029106D03*
Y030878D03*
X-043606Y029106D03*
Y030878D03*
X-024780Y049201D03*
Y050972D03*
X-023795Y049201D03*
Y050972D03*
X-017583Y029106D03*
Y030878D03*
X-016598Y029106D03*
Y030878D03*
X002228Y049201D03*
Y050972D03*
X003213Y049201D03*
Y050972D03*
G54D70*
X-095823Y062874D03*
Y063465D03*
X-095272Y062874D03*
Y063465D03*
X-091181Y031480D03*
Y032079D03*
X-090630Y031480D03*
Y032079D03*
X-089776Y053409D03*
X-089472Y049429D03*
Y050002D03*
X-089224Y053409D03*
X-088921Y049429D03*
Y050002D03*
X-088587Y029939D03*
X-088543Y070976D03*
X-088425Y009102D03*
X-088382Y050140D03*
X-088035Y029939D03*
X-087992Y070976D03*
X-087874Y009102D03*
X-087831Y050140D03*
X-087496Y030077D03*
Y030650D03*
X-087193Y026669D03*
X-086945Y030077D03*
Y030650D03*
X-086642Y026669D03*
X-085787Y048000D03*
Y048598D03*
X-085236Y048000D03*
Y048598D03*
X-081146Y016614D03*
Y017205D03*
X-080594Y016614D03*
Y017205D03*
X-068815Y062874D03*
Y063465D03*
X-068264Y062874D03*
Y063465D03*
X-064173Y031480D03*
Y032079D03*
X-063622Y031480D03*
Y032079D03*
X-062768Y053409D03*
X-062465Y049429D03*
Y050002D03*
X-062217Y053409D03*
X-061913Y049429D03*
Y050002D03*
X-061579Y029939D03*
X-061535Y070976D03*
X-061417Y009102D03*
X-061374Y050140D03*
X-061028Y029939D03*
X-060984Y070976D03*
X-060866Y009102D03*
X-060823Y050140D03*
X-060488Y030077D03*
Y030650D03*
X-060185Y026669D03*
X-059937Y030077D03*
Y030650D03*
X-059634Y026669D03*
X-058780Y048000D03*
Y048598D03*
X-058228Y048000D03*
Y048598D03*
X-054138Y016614D03*
Y017205D03*
X-053587Y016614D03*
Y017205D03*
X-041807Y062874D03*
Y063465D03*
X-041256Y062874D03*
Y063465D03*
X-037165Y031480D03*
Y032079D03*
X-036614Y031480D03*
Y032079D03*
X-035760Y053409D03*
X-035457Y049429D03*
Y050002D03*
X-035209Y053409D03*
X-034906Y049429D03*
Y050002D03*
X-034571Y029939D03*
X-034528Y070976D03*
X-034409Y009102D03*
X-034366Y050140D03*
X-034020Y029939D03*
X-033976Y070976D03*
X-033858Y009102D03*
X-033815Y050140D03*
X-033480Y030077D03*
Y030650D03*
X-033177Y026669D03*
X-032929Y030077D03*
Y030650D03*
X-032626Y026669D03*
X-031772Y048000D03*
Y048598D03*
X-031220Y048000D03*
Y048598D03*
X-027130Y016614D03*
Y017205D03*
X-026579Y016614D03*
Y017205D03*
X-014799Y062874D03*
Y063465D03*
X-014248Y062874D03*
Y063465D03*
X-010157Y031480D03*
Y032079D03*
X-009606Y031480D03*
Y032079D03*
X-008752Y053409D03*
X-008449Y049429D03*
Y050002D03*
X-008201Y053409D03*
X-007898Y049429D03*
Y050002D03*
X-007563Y029939D03*
X-007520Y070976D03*
X-007402Y009102D03*
X-007358Y050140D03*
X-007012Y029939D03*
X-006969Y070976D03*
X-006850Y009102D03*
X-006807Y050140D03*
X-006472Y030077D03*
Y030650D03*
X-006169Y026669D03*
X-005921Y030077D03*
Y030650D03*
X-005618Y026669D03*
X-004764Y048000D03*
Y048598D03*
X-004213Y048000D03*
Y048598D03*
X-000122Y016614D03*
Y017205D03*
X000429Y016614D03*
Y017205D03*
G54D71*
X-097217Y067197D03*
X-096717Y014272D03*
X-096508Y067197D03*
X-096008Y014272D03*
X-089567Y011283D03*
X-089563Y010402D03*
X-088858Y011283D03*
X-088854Y010402D03*
X-087563Y069677D03*
X-087559Y068795D03*
X-086854Y069677D03*
X-086850Y068795D03*
X-080409Y065807D03*
X-079909Y012882D03*
X-079701Y065807D03*
X-079201Y012882D03*
X-070209Y067197D03*
X-069709Y014272D03*
X-069500Y067197D03*
X-069000Y014272D03*
X-062559Y011283D03*
X-062555Y010402D03*
X-061850Y011283D03*
X-061846Y010402D03*
X-060555Y069677D03*
X-060551Y068795D03*
X-059846Y069677D03*
X-059843Y068795D03*
X-053402Y065807D03*
X-052902Y012882D03*
X-052693Y065807D03*
X-052193Y012882D03*
X-043201Y067197D03*
X-042701Y014272D03*
X-042492Y067197D03*
X-041992Y014272D03*
X-035551Y011283D03*
X-035547Y010402D03*
X-034843Y011283D03*
X-034839Y010402D03*
X-033547Y069677D03*
X-033543Y068795D03*
X-032839Y069677D03*
X-032835Y068795D03*
X-026394Y065807D03*
X-025894Y012882D03*
X-025685Y065807D03*
X-025185Y012882D03*
X-016193Y067197D03*
X-015693Y014272D03*
X-015484Y067197D03*
X-014984Y014272D03*
X-008543Y011283D03*
X-008539Y010402D03*
X-007835Y011283D03*
X-007831Y010402D03*
X-006539Y069677D03*
X-006535Y068795D03*
X-005831Y069677D03*
X-005827Y068795D03*
X000614Y065807D03*
X001114Y012882D03*
X001323Y065807D03*
X001823Y012882D03*
G54D72*
X-092248Y015445D03*
X-084169Y064634D03*
X-065240Y015445D03*
X-057161Y064634D03*
X-038232Y015445D03*
X-030154Y064634D03*
X-011224Y015445D03*
X-003146Y064634D03*
G54D73*
X-092583Y015110D03*
Y015307D03*
X-091913Y015110D03*
Y015307D03*
X-084504Y064772D03*
Y064969D03*
X-083835Y064772D03*
Y064969D03*
X-065575Y015110D03*
Y015307D03*
X-064906Y015110D03*
Y015307D03*
X-057496Y064772D03*
Y064969D03*
X-056827Y064772D03*
Y064969D03*
X-038567Y015110D03*
Y015307D03*
X-037898Y015110D03*
Y015307D03*
X-030488Y064772D03*
Y064969D03*
X-029819Y064772D03*
Y064969D03*
X-011559Y015110D03*
Y015307D03*
X-010890Y015110D03*
Y015307D03*
X-003480Y064772D03*
Y064969D03*
X-002811Y064772D03*
Y064969D03*
M02*
