*
G04 Job   : C:\Users\kuehne01\Desktop\Mentor_kuehne01\_JLR\12158607\Panel_12158609\12158609.pnl*
G04 User  : DE230259:kuehne01*
G04 Layer : SolderPasteBot.gbr*
G04 Date  : Tue Jul 23 11:50:03 2024*
G04 Expedition Layer: Solder Paste - Bottom*
%ICAS*%
%MOIN*%
%FSDAX24Y24*%
%OFA0.0000B0.0000*%
G90*
G74*
%AMVB_RECTANGLE*
21,1,$1,$2,0,0,$3*
%
%AMVB_RCRECTANGLE*
$3=$3X2*
21,1,$1-$3,$2,0,0,0*
21,1,$1,$2-$3,0,0,0*
$1=$1/2*
$2=$2/2*
$3=$3/2*
$1=$1-$3*
$2=$2-$3*
1,1,$3X2,0-$1,0-$2*
1,1,$3X2,0-$1,$2*
1,1,$3X2,$1,$2*
1,1,$3X2,$1,0-$2*
%
%ADD11C,0.00787*%
%ADD10C,0.03937*%
%ADD24VB_RECTANGLE,0.01969X0.01575X0.00000*%
%ADD31VB_RECTANGLE,0.04331X0.03150X270.00000*%
%ADD14VB_RCRECTANGLE,0.02362X0.01378X0.00197*%
%ADD32VB_RCRECTANGLE,0.02362X0.01575X0.00197*%
%ADD18VB_RCRECTANGLE,0.01575X0.02362X0.00197*%
%ADD26VB_RCRECTANGLE,0.02362X0.02165X0.00197*%
%ADD16VB_RCRECTANGLE,0.02165X0.02362X0.00197*%
%ADD35VB_RCRECTANGLE,0.02559X0.02362X0.00197*%
%ADD25VB_RCRECTANGLE,0.02362X0.02559X0.00197*%
%ADD30VB_RCRECTANGLE,0.02756X0.01575X0.00197*%
%ADD23VB_RCRECTANGLE,0.02756X0.01969X0.00197*%
%ADD12VB_RCRECTANGLE,0.01969X0.02756X0.00197*%
%ADD70VB_RCRECTANGLE,0.02362X0.03150X0.00197*%
%ADD29VB_RCRECTANGLE,0.03150X0.03150X0.00197*%
%ADD72VB_RCRECTANGLE,0.03543X0.01575X0.00197*%
%ADD17VB_RCRECTANGLE,0.03937X0.02756X0.00197*%
%ADD21VB_RCRECTANGLE,0.02756X0.03937X0.00197*%
%ADD19VB_RCRECTANGLE,0.04724X0.03150X0.00197*%
%ADD28VB_RCRECTANGLE,0.03150X0.04724X0.00197*%
%ADD15VB_RCRECTANGLE,0.02756X0.05118X0.00295*%
%ADD27VB_RCRECTANGLE,0.03150X0.05118X0.00197*%
%ADD20VB_RCRECTANGLE,0.03543X0.05512X0.00197*%
%ADD22VB_RCRECTANGLE,0.05906X0.03150X0.00197*%
%ADD34VB_RCRECTANGLE,0.02362X0.06102X0.00197*%
%ADD71VB_RCRECTANGLE,0.02362X0.06299X0.00197*%
%ADD37VB_RCRECTANGLE,0.06693X0.02362X0.00197*%
%ADD33VB_RCRECTANGLE,0.04724X0.07087X0.00197*%
%ADD36VB_RCRECTANGLE,0.06693X0.07087X0.00197*%
%ADD13VB_RCRECTANGLE,0.06299X0.09055X0.00197*%
%ADD73VB_RCRECTANGLE,0.06299X0.09449X0.00197*%
G01*
G36*
X-103425Y-000283D02*
G03X-103386Y-000285I000039J000283D01*
X-103100Y000000J000285*
X-103103Y000039I000286*
G01X-103346*
Y000283*
G03X-103386Y000285I000040J000283*
X-103671Y000000J000285*
X-103669Y-000039I000285*
G01X-103425*
Y-000283*
Y000283D02*
Y000039D01*
X-103669*
G03X-103671Y000000I000283J000039*
X-103386Y-000285I000285*
X-103346Y-000283J000285*
G01Y-000039*
X-103103*
G03X-103100Y000000I000283J000039*
X-103386Y000285I000286*
X-103425Y000283J000285*
G01Y080347D02*
G03X-103386Y080344I000039J000283D01*
X-103100Y080630J000286*
X-103103Y080669I000286*
G01X-103346*
Y080913*
G03X-103386Y080915I000040J000283*
X-103671Y080630J000285*
X-103669Y080591I000285*
G01X-103425*
Y080347*
Y080913D02*
Y080669D01*
X-103669*
G03X-103671Y080630I000283J000039*
X-103386Y080344I000285*
X-103346Y080347J000286*
G01Y080591*
X-103103*
G03X-103100Y080630I000283J000039*
X-103386Y080915I000286*
X-103425Y080913J000285*
G01X-093464Y052223D02*
G02X-093444Y052243I000020D01*
G01X-093050*
G02X-093031Y052223J000020*
G01Y051633*
G02X-093050Y051613I000019*
G01X-093444*
G02X-093464Y051633J000020*
G01Y051849*
X-093621*
G02X-093641Y051869J000020*
G01Y051987*
G02X-093621Y052007I000020*
G01X-093464*
Y052223*
X-091772Y080512D02*
X-091496D01*
Y081063*
X-091772*
Y080512*
X-090945D02*
X-090669D01*
Y081063*
X-090945*
Y080512*
X-090276D02*
X-090000D01*
Y081063*
X-090276*
Y080512*
X-089685D02*
X-089409D01*
Y081063*
X-089685*
Y080512*
X-089173D02*
X-088898D01*
Y081063*
X-089173*
Y080512*
X-088701D02*
X-088425D01*
Y081063*
X-088701*
Y080512*
X-082954Y027855D02*
G02X-082973Y027836I000019D01*
G01X-083367*
G02X-083387Y027855J000019*
G01Y028446*
G02X-083367Y028466I000020*
G01X-082973*
G02X-082954Y028446J000020*
G01Y028229*
X-082796*
G02X-082777Y028210J000019*
G01Y028092*
G02X-082796Y028072I000019*
G01X-082954*
Y027855*
X-066456Y052223D02*
G02X-066436Y052243I000020D01*
G01X-066042*
G02X-066023Y052223J000020*
G01Y051633*
G02X-066042Y051613I000019*
G01X-066436*
G02X-066456Y051633J000020*
G01Y051849*
X-066613*
G02X-066633Y051869J000020*
G01Y051987*
G02X-066613Y052007I000020*
G01X-066456*
Y052223*
X-055946Y027855D02*
G02X-055966Y027836I000020D01*
G01X-056359*
G02X-056379Y027855J000019*
G01Y028446*
G02X-056359Y028466I000020*
G01X-055966*
G02X-055946Y028446J000020*
G01Y028229*
X-055788*
G02X-055769Y028210J000019*
G01Y028092*
G02X-055788Y028072I000019*
G01X-055946*
Y027855*
X-039448Y052223D02*
G02X-039428Y052243I000020D01*
G01X-039034*
G02X-039015Y052223J000020*
G01Y051633*
G02X-039034Y051613I000019*
G01X-039428*
G02X-039448Y051633J000020*
G01Y051849*
X-039605*
G02X-039625Y051869J000020*
G01Y051987*
G02X-039605Y052007I000020*
G01X-039448*
Y052223*
X-028938Y027855D02*
G02X-028958Y027836I000020D01*
G01X-029351*
G02X-029371Y027855J000019*
G01Y028446*
G02X-029351Y028466I000020*
G01X-028958*
G02X-028938Y028446J000020*
G01Y028229*
X-028781*
G02X-028761Y028210J000019*
G01Y028092*
G02X-028781Y028072I000020*
G01X-028938*
Y027855*
X-012440Y052223D02*
G02X-012420Y052243I000020D01*
G01X-012027*
G02X-012007Y052223J000020*
G01Y051633*
G02X-012027Y051613I000020*
G01X-012420*
G02X-012440Y051633J000020*
G01Y051849*
X-012597*
G02X-012617Y051869J000020*
G01Y051987*
G02X-012597Y052007I000020*
G01X-012440*
Y052223*
X-006929Y-000433D02*
X-006654D01*
Y000118*
X-006929*
Y-000433*
X-006457D02*
X-006181D01*
Y000118*
X-006457*
Y-000433*
X-005945D02*
X-005669D01*
Y000118*
X-005945*
Y-000433*
X-005354D02*
X-005079D01*
Y000118*
X-005354*
Y-000433*
X-004685D02*
X-004409D01*
Y000118*
X-004685*
Y-000433*
X-003858D02*
X-003583D01*
Y000118*
X-003858*
Y-000433*
X-001930Y027855D02*
G02X-001950Y027836I000020D01*
G01X-002344*
G02X-002363Y027855J000019*
G01Y028446*
G02X-002344Y028466I000019*
G01X-001950*
G02X-001930Y028446J000020*
G01Y028229*
X-001773*
G02X-001753Y028210J000019*
G01Y028092*
G02X-001773Y028072I000020*
G01X-001930*
Y027855*
X006024Y080347D02*
G03X006063Y080344I000039J000283D01*
X006348Y080630J000286*
X006346Y080669I000285*
G01X006102*
Y080913*
G03X006063Y080915I000039J000283*
X005778Y080630J000285*
X005780Y080591I000285*
G01X006024*
Y080347*
Y080913D02*
Y080669D01*
X005780*
G03X005778Y080630I000283J000039*
X006063Y080344I000285*
X006102Y080347J000286*
G01Y080591*
X006346*
G03X006348Y080630I000283J000039*
X006063Y080915I000285*
X006024Y080913J000285*
G37*
G54D10*
G01X-105354Y081220D02*
Y-000591D01*
G03X-104567Y-001704I001181*
G01X-103493Y-001987*
G03X-103339Y-002008I000154J000570*
G01X007995*
G03X008151Y-001987J000591*
G01X009213Y-001704*
G03X010000Y-000591I000394J001113*
G01Y081220*
G03X009213Y082334I001181*
G01X008142Y082618*
G03X007992Y082638I000151J000571*
G01X-103339*
G03X-103341I000002J000591*
X-103492Y082618J000591*
G01X-104567Y082334*
G03X-105354Y081220I000394J001114*
G54D11*
G01X-052699Y081025D02*
Y082009D01*
X-052919Y081025*
X-053138Y082009*
Y081025*
X-052010D02*
Y082009D01*
X-052292*
X-052386Y081949*
X-052417Y081904*
X-052449Y081815*
Y081681*
X-052417Y081576*
X-052386Y081532*
X-052292Y081487*
X-052010*
X-048686Y082009D02*
Y081025D01*
X-048467Y082009D02*
X-048905D01*
X-047935D02*
X-047882Y081949D01*
X-047830Y081860*
X-047799Y081770*
X-047778Y081636*
Y081397*
X-047799Y081263*
X-047830Y081159*
X-047882Y081069*
X-047935Y081025*
X-048049*
X-048102Y081069*
X-048164Y081159*
X-048185Y081263*
X-048216Y081397*
Y081636*
X-048185Y081770*
X-048164Y081860*
X-048102Y081949*
X-048049Y082009*
X-047935*
X-047089Y081532D02*
X-047371D01*
X-047465Y081487*
X-047496Y081442*
X-047527Y081353*
Y081204*
X-047496Y081114*
X-047465Y081069*
X-047371Y081025*
X-047089*
Y082009*
X-047371*
X-047465Y081949*
X-047496Y081904*
X-047527Y081815*
Y081726*
X-047496Y081636*
X-047465Y081576*
X-047371Y081532*
X-045711Y081397D02*
X-045763Y081532D01*
X-045868Y081621*
X-045982Y081666*
X-046149*
X-045711D02*
Y081025D01*
X-045022Y081397D02*
X-045461D01*
Y081487*
X-045429Y081576*
X-045387Y081621*
X-045314Y081666*
X-045200*
X-045126Y081621*
X-045053Y081532*
X-045022Y081397*
Y081293*
X-045053Y081159*
X-045126Y081069*
X-045200Y081025*
X-045314*
X-045387Y081069*
X-045461Y081159*
X-044772Y081666D02*
X-044563Y081025D01*
X-044500Y080831*
X-044427Y080741*
X-044364Y080697*
X-044333*
X-044364Y081666D02*
X-044563Y081025D01*
X-044083Y081532D02*
X-044010Y081621D01*
X-043936Y081666*
X-043822*
X-043749Y081621*
X-043675Y081532*
X-043644Y081397*
Y081293*
X-043675Y081159*
X-043749Y081069*
X-043822Y081025*
X-043936*
X-044010Y081069*
X-044083Y081159*
Y081666D02*
Y081025D01*
X-042955Y082009D02*
Y081025D01*
X-043394*
X-039901Y081994D02*
Y081025D01*
Y081994D02*
X-039608Y081353D01*
X-040047*
X-039107Y081994D02*
X-039013Y081949D01*
X-038951Y081815*
X-038919Y081577*
Y081442*
X-038951Y081204*
X-039013Y081070*
X-039107Y081025*
X-039170*
X-039264Y081070*
X-039326Y081204*
X-039358Y081442*
Y081577*
X-039326Y081815*
X-039264Y081949*
X-039170Y081994*
X-039107*
X-037980Y081681D02*
X-037949Y081532D01*
X-037886Y081442*
X-037771Y081398*
X-037740*
X-037635Y081442*
X-037573Y081532*
X-037541Y081681*
Y081726*
X-037573Y081860*
X-037635Y081949*
X-037740Y081994*
X-037771*
X-037886Y081949*
X-037949Y081860*
X-037980Y081681*
Y081442*
X-037949Y081204*
X-037886Y081070*
X-037771Y081025*
X-037708*
X-037604Y081070*
X-037573Y081159*
X-037040Y081994D02*
X-036946Y081949D01*
X-036884Y081815*
X-036852Y081577*
Y081442*
X-036884Y081204*
X-036946Y081070*
X-037040Y081025*
X-037103*
X-037197Y081070*
X-037260Y081204*
X-037291Y081442*
Y081577*
X-037260Y081815*
X-037197Y081949*
X-037103Y081994*
X-037040*
X-036571Y081860D02*
X-036539Y081949D01*
X-036435Y081994*
X-036362*
X-036257Y081949*
X-036195Y081815*
X-036164Y081577*
Y081353*
X-036195Y081159*
X-036257Y081070*
X-036362Y081025*
X-036393*
X-036498Y081070*
X-036571Y081159*
X-036602Y081293*
Y081353*
X-036571Y081487*
X-036498Y081577*
X-036393Y081621*
X-036362*
X-036257Y081577*
X-036195Y081487*
X-036164Y081353*
X-035631Y081994D02*
X-035537Y081949D01*
X-035506Y081860*
Y081770*
X-035537Y081666*
X-035600Y081621*
X-035725Y081577*
X-035819Y081532*
X-035882Y081442*
X-035913Y081353*
Y081204*
X-035882Y081114*
X-035850Y081070*
X-035756Y081025*
X-035631*
X-035537Y081070*
X-035506Y081114*
X-035475Y081204*
Y081353*
X-035506Y081442*
X-035569Y081532*
X-035662Y081577*
X-035788Y081621*
X-035850Y081666*
X-035882Y081770*
Y081860*
X-035850Y081949*
X-035756Y081994*
X-035631*
X-035161D02*
X-034848D01*
X-034817Y081577*
X-034848Y081621*
X-034942Y081666*
X-035036*
X-035130Y081621*
X-035193Y081532*
X-035224Y081398*
Y081293*
X-035193Y081159*
X-035130Y081070*
X-035036Y081025*
X-034942*
X-034848Y081070*
X-034817Y081114*
X-034786Y081204*
X-034264Y081815D02*
X-034305Y081860D01*
X-034358Y081994*
Y081025*
X-033439Y081770D02*
Y081815D01*
X-033470Y081905*
X-033502Y081949*
X-033564Y082009*
X-033690*
X-033752Y081949*
X-033783Y081905*
X-033815Y081815*
Y081726*
X-033783Y081636*
X-033721Y081487*
X-033408Y081025*
X-033846*
X-032886Y081815D02*
X-032927Y081860D01*
X-032980Y081994*
Y081025*
X-031341Y082009D02*
Y081025D01*
X-031779*
X-030652D02*
Y082009D01*
X-031090Y081025*
Y082009*
X-029963Y081025D02*
Y082009D01*
X-030245*
X-030339Y081949*
X-030370Y081905*
X-030401Y081815*
Y081681*
X-030370Y081577*
X-030339Y081532*
X-030245Y081487*
X-029963*
X-028877Y081994D02*
X-028585Y081353D01*
X-029023*
X-028877Y081994D02*
Y081025D01*
X-028084Y081994D02*
X-027990Y081949D01*
X-027927Y081815*
X-027896Y081577*
Y081442*
X-027927Y081204*
X-027990Y081070*
X-028084Y081025*
X-028147*
X-028240Y081070*
X-028303Y081204*
X-028334Y081442*
Y081577*
X-028303Y081815*
X-028240Y081949*
X-028147Y081994*
X-028084*
X-026518D02*
X-026956D01*
X-026643Y081025*
X-026017Y081994D02*
X-025923Y081949D01*
X-025860Y081815*
X-025829Y081577*
Y081442*
X-025860Y081204*
X-025923Y081070*
X-026017Y081025*
X-026080*
X-026174Y081070*
X-026236Y081204*
X-026268Y081442*
Y081577*
X-026236Y081815*
X-026174Y081949*
X-026080Y081994*
X-026017*
X-025547Y081860D02*
X-025516Y081949D01*
X-025412Y081994*
X-025338*
X-025234Y081949*
X-025171Y081815*
X-025140Y081577*
Y081353*
X-025171Y081159*
X-025234Y081070*
X-025338Y081025*
X-025370*
X-025474Y081070*
X-025547Y081159*
X-025579Y081293*
Y081353*
X-025547Y081487*
X-025474Y081577*
X-025370Y081621*
X-025338*
X-025234Y081577*
X-025171Y081487*
X-025140Y081353*
X-024608Y081994D02*
X-024514Y081949D01*
X-024482Y081860*
Y081770*
X-024514Y081666*
X-024576Y081621*
X-024702Y081577*
X-024796Y081532*
X-024858Y081442*
X-024890Y081353*
Y081204*
X-024858Y081114*
X-024827Y081070*
X-024733Y081025*
X-024608*
X-024514Y081070*
X-024482Y081114*
X-024451Y081204*
Y081353*
X-024482Y081442*
X-024545Y081532*
X-024639Y081577*
X-024764Y081621*
X-024827Y081666*
X-024858Y081770*
Y081860*
X-024827Y081949*
X-024733Y081994*
X-024608*
X-024138D02*
X-023825D01*
X-023794Y081577*
X-023825Y081621*
X-023919Y081666*
X-024013*
X-024107Y081621*
X-024169Y081532*
X-024201Y081398*
Y081293*
X-024169Y081159*
X-024107Y081070*
X-024013Y081025*
X-023919*
X-023825Y081070*
X-023794Y081114*
X-023762Y081204*
X-023240Y081815D02*
X-023282Y081860D01*
X-023334Y081994*
Y081025*
X-022416Y081770D02*
Y081815D01*
X-022447Y081905*
X-022478Y081949*
X-022541Y082009*
X-022666*
X-022729Y081949*
X-022760Y081905*
X-022791Y081815*
Y081726*
X-022760Y081636*
X-022697Y081487*
X-022384Y081025*
X-022823*
X-021862Y081815D02*
X-021904Y081860D01*
X-021956Y081994*
Y081025*
X-020317Y082009D02*
X-020537D01*
X-020631Y081949*
X-020693Y081860*
X-020725Y081770*
X-020756Y081636*
Y081398*
X-020725Y081263*
X-020693Y081159*
X-020631Y081070*
X-020537Y081025*
X-020317*
Y082009*
X-019848Y081532D02*
X-020067Y081025D01*
X-019628D02*
Y082009D01*
X-019910*
X-020004Y081949*
X-020036Y081905*
X-020067Y081815*
Y081726*
X-020036Y081636*
X-020004Y081577*
X-019910Y081532*
X-019628*
X-018939D02*
X-019221D01*
X-019315Y081487*
X-019347Y081442*
X-019378Y081353*
Y081204*
X-019347Y081114*
X-019315Y081070*
X-019221Y081025*
X-018939*
Y082009*
X-019221*
X-019315Y081949*
X-019347Y081905*
X-019378Y081815*
Y081726*
X-019347Y081636*
X-019315Y081577*
X-019221Y081532*
X-000591Y000000D02*
X000591D01*
X000000Y000591D02*
Y-000591D01*
G54D12*
X-098709Y022913D03*
X-098354D03*
X-097728Y070925D03*
X-097661Y065921D03*
X-097374Y070925D03*
X-097358Y022913D03*
X-097307Y065921D03*
X-097004Y022913D03*
X-096646Y022921D03*
X-096291D03*
X-095016Y041929D03*
X-094661D03*
X-094520Y070535D03*
X-094295Y041929D03*
X-094165Y070535D03*
X-093945Y069598D03*
X-093941Y041929D03*
X-093837Y067500D03*
X-093591Y069598D03*
X-093482Y067500D03*
X-093437Y025740D03*
Y026295D03*
X-093083Y025740D03*
Y026295D03*
X-092906Y069476D03*
X-092551D03*
X-092437Y064579D03*
X-092327Y065130D03*
Y065563D03*
X-092083Y064579D03*
X-091972Y065130D03*
Y065563D03*
X-091622Y048868D03*
Y050600D03*
X-091612Y049291D03*
Y050154D03*
X-091307Y010000D03*
X-091280Y065130D03*
Y065563D03*
X-091268Y048868D03*
Y050600D03*
X-091258Y049291D03*
Y050154D03*
X-091093Y064614D03*
X-090953Y010000D03*
X-090925Y065130D03*
Y065563D03*
X-090738Y064614D03*
X-090197Y015841D03*
X-089925Y044303D03*
X-089843Y015841D03*
X-089624Y051776D03*
X-089571Y044303D03*
X-089567Y069563D03*
X-089270Y051776D03*
X-089236Y044303D03*
X-089213Y069563D03*
X-088882Y044303D03*
X-087535Y035776D03*
X-087205Y010516D03*
X-087181Y035776D03*
X-087148Y028303D03*
X-086850Y010516D03*
X-086846Y035776D03*
X-086793Y028303D03*
X-086575Y064238D03*
X-086492Y035776D03*
X-086220Y064238D03*
X-085679Y015465D03*
X-085492Y014516D03*
Y014949D03*
X-085465Y070079D03*
X-085325Y015465D03*
X-085159Y029925D03*
Y030787D03*
X-085150Y029478D03*
Y031211D03*
X-085138Y014516D03*
Y014949D03*
X-085110Y070079D03*
X-084805Y029925D03*
Y030787D03*
X-084795Y029478D03*
Y031211D03*
X-084445Y014516D03*
Y014949D03*
X-084335Y015500D03*
X-084091Y014516D03*
Y014949D03*
X-083980Y015500D03*
X-083866Y010602D03*
X-083512D03*
X-083335Y053783D03*
Y054339D03*
X-082980Y053783D03*
Y054339D03*
X-082935Y012579D03*
X-082827Y010480D03*
X-082581Y012579D03*
X-082476Y038150D03*
X-082472Y010480D03*
X-082252Y009543D03*
X-082122Y038150D03*
X-081898Y009543D03*
X-081756Y038150D03*
X-081402D03*
X-080126Y057157D03*
X-079772D03*
X-079413Y057165D03*
X-079110Y014157D03*
X-079059Y057165D03*
X-079043Y009154D03*
X-078756Y014157D03*
X-078689Y009154D03*
X-078063Y057165D03*
X-077709D03*
X-071701Y022913D03*
X-071346D03*
X-070720Y070925D03*
X-070654Y065921D03*
X-070366Y070925D03*
X-070350Y022913D03*
X-070299Y065921D03*
X-069996Y022913D03*
X-069638Y022921D03*
X-069283D03*
X-068008Y041929D03*
X-067654D03*
X-067512Y070535D03*
X-067287Y041929D03*
X-067157Y070535D03*
X-066937Y069598D03*
X-066933Y041929D03*
X-066829Y067500D03*
X-066583Y069598D03*
X-066474Y067500D03*
X-066429Y025740D03*
Y026295D03*
X-066075Y025740D03*
Y026295D03*
X-065898Y069476D03*
X-065543D03*
X-065429Y064579D03*
X-065319Y065130D03*
Y065563D03*
X-065075Y064579D03*
X-064965Y065130D03*
Y065563D03*
X-064614Y048868D03*
Y050600D03*
X-064604Y049291D03*
Y050154D03*
X-064299Y010000D03*
X-064272Y065130D03*
Y065563D03*
X-064260Y048868D03*
Y050600D03*
X-064250Y049291D03*
Y050154D03*
X-064085Y064614D03*
X-063945Y010000D03*
X-063917Y065130D03*
Y065563D03*
X-063730Y064614D03*
X-063189Y015841D03*
X-062917Y044303D03*
X-062835Y015841D03*
X-062616Y051776D03*
X-062563Y044303D03*
X-062559Y069563D03*
X-062262Y051776D03*
X-062228Y044303D03*
X-062205Y069563D03*
X-061874Y044303D03*
X-060528Y035776D03*
X-060197Y010516D03*
X-060173Y035776D03*
X-060140Y028303D03*
X-059843Y010516D03*
X-059839Y035776D03*
X-059785Y028303D03*
X-059567Y064238D03*
X-059484Y035776D03*
X-059213Y064238D03*
X-058671Y015465D03*
X-058484Y014516D03*
Y014949D03*
X-058457Y070079D03*
X-058317Y015465D03*
X-058152Y029925D03*
Y030787D03*
X-058142Y029478D03*
Y031211D03*
X-058130Y014516D03*
Y014949D03*
X-058102Y070079D03*
X-057797Y029925D03*
Y030787D03*
X-057787Y029478D03*
Y031211D03*
X-057437Y014516D03*
Y014949D03*
X-057327Y015500D03*
X-057083Y014516D03*
Y014949D03*
X-056972Y015500D03*
X-056858Y010602D03*
X-056504D03*
X-056327Y053783D03*
Y054339D03*
X-055972Y053783D03*
Y054339D03*
X-055927Y012579D03*
X-055819Y010480D03*
X-055573Y012579D03*
X-055469Y038150D03*
X-055465Y010480D03*
X-055244Y009543D03*
X-055114Y038150D03*
X-054890Y009543D03*
X-054748Y038150D03*
X-054394D03*
X-053118Y057157D03*
X-052764D03*
X-052406Y057165D03*
X-052102Y014157D03*
X-052051Y057165D03*
X-052035Y009154D03*
X-051748Y014157D03*
X-051681Y009154D03*
X-051055Y057165D03*
X-050701D03*
X-044693Y022913D03*
X-044339D03*
X-043713Y070925D03*
X-043646Y065921D03*
X-043358Y070925D03*
X-043343Y022913D03*
X-043291Y065921D03*
X-042988Y022913D03*
X-042630Y022921D03*
X-042276D03*
X-041000Y041929D03*
X-040646D03*
X-040504Y070535D03*
X-040280Y041929D03*
X-040150Y070535D03*
X-039929Y069598D03*
X-039925Y041929D03*
X-039821Y067500D03*
X-039575Y069598D03*
X-039467Y067500D03*
X-039421Y025740D03*
Y026295D03*
X-039067Y025740D03*
Y026295D03*
X-038890Y069476D03*
X-038535D03*
X-038421Y064579D03*
X-038311Y065130D03*
Y065563D03*
X-038067Y064579D03*
X-037957Y065130D03*
Y065563D03*
X-037606Y048868D03*
Y050600D03*
X-037596Y049291D03*
Y050154D03*
X-037291Y010000D03*
X-037264Y065130D03*
Y065563D03*
X-037252Y048868D03*
Y050600D03*
X-037242Y049291D03*
Y050154D03*
X-037077Y064614D03*
X-036937Y010000D03*
X-036909Y065130D03*
Y065563D03*
X-036722Y064614D03*
X-036181Y015841D03*
X-035909Y044303D03*
X-035827Y015841D03*
X-035608Y051776D03*
X-035555Y044303D03*
X-035551Y069563D03*
X-035254Y051776D03*
X-035220Y044303D03*
X-035197Y069563D03*
X-034866Y044303D03*
X-033520Y035776D03*
X-033189Y010516D03*
X-033165Y035776D03*
X-033132Y028303D03*
X-032835Y010516D03*
X-032831Y035776D03*
X-032778Y028303D03*
X-032559Y064238D03*
X-032476Y035776D03*
X-032205Y064238D03*
X-031663Y015465D03*
X-031476Y014516D03*
Y014949D03*
X-031449Y070079D03*
X-031309Y015465D03*
X-031144Y029925D03*
Y030787D03*
X-031134Y029478D03*
Y031211D03*
X-031122Y014516D03*
Y014949D03*
X-031094Y070079D03*
X-030789Y029925D03*
Y030787D03*
X-030780Y029478D03*
Y031211D03*
X-030429Y014516D03*
Y014949D03*
X-030319Y015500D03*
X-030075Y014516D03*
Y014949D03*
X-029965Y015500D03*
X-029850Y010602D03*
X-029496D03*
X-029319Y053783D03*
Y054339D03*
X-028965Y053783D03*
Y054339D03*
X-028919Y012579D03*
X-028811Y010480D03*
X-028565Y012579D03*
X-028461Y038150D03*
X-028457Y010480D03*
X-028236Y009543D03*
X-028106Y038150D03*
X-027882Y009543D03*
X-027740Y038150D03*
X-027386D03*
X-026110Y057157D03*
X-025756D03*
X-025398Y057165D03*
X-025094Y014157D03*
X-025043Y057165D03*
X-025028Y009154D03*
X-024740Y014157D03*
X-024673Y009154D03*
X-024047Y057165D03*
X-023693D03*
X-017685Y022913D03*
X-017331D03*
X-016705Y070925D03*
X-016638Y065921D03*
X-016350Y070925D03*
X-016335Y022913D03*
X-016283Y065921D03*
X-015980Y022913D03*
X-015622Y022921D03*
X-015268D03*
X-013992Y041929D03*
X-013638D03*
X-013496Y070535D03*
X-013272Y041929D03*
X-013142Y070535D03*
X-012921Y069598D03*
X-012917Y041929D03*
X-012813Y067500D03*
X-012567Y069598D03*
X-012459Y067500D03*
X-012413Y025740D03*
Y026295D03*
X-012059Y025740D03*
Y026295D03*
X-011882Y069476D03*
X-011528D03*
X-011413Y064579D03*
X-011303Y065130D03*
Y065563D03*
X-011059Y064579D03*
X-010949Y065130D03*
Y065563D03*
X-010598Y048868D03*
Y050600D03*
X-010589Y049291D03*
Y050154D03*
X-010283Y010000D03*
X-010256Y065130D03*
Y065563D03*
X-010244Y048868D03*
Y050600D03*
X-010234Y049291D03*
Y050154D03*
X-010069Y064614D03*
X-009929Y010000D03*
X-009902Y065130D03*
Y065563D03*
X-009715Y064614D03*
X-009173Y015841D03*
X-008902Y044303D03*
X-008819Y015841D03*
X-008600Y051776D03*
X-008547Y044303D03*
X-008543Y069563D03*
X-008246Y051776D03*
X-008213Y044303D03*
X-008189Y069563D03*
X-007858Y044303D03*
X-006512Y035776D03*
X-006181Y010516D03*
X-006157Y035776D03*
X-006124Y028303D03*
X-005827Y010516D03*
X-005823Y035776D03*
X-005770Y028303D03*
X-005551Y064238D03*
X-005469Y035776D03*
X-005197Y064238D03*
X-004656Y015465D03*
X-004469Y014516D03*
Y014949D03*
X-004441Y070079D03*
X-004301Y015465D03*
X-004136Y029925D03*
Y030787D03*
X-004126Y029478D03*
Y031211D03*
X-004114Y014516D03*
Y014949D03*
X-004087Y070079D03*
X-003781Y029925D03*
Y030787D03*
X-003772Y029478D03*
Y031211D03*
X-003421Y014516D03*
Y014949D03*
X-003311Y015500D03*
X-003067Y014516D03*
Y014949D03*
X-002957Y015500D03*
X-002843Y010602D03*
X-002488D03*
X-002311Y053783D03*
Y054339D03*
X-001957Y053783D03*
Y054339D03*
X-001911Y012579D03*
X-001803Y010480D03*
X-001557Y012579D03*
X-001453Y038150D03*
X-001449Y010480D03*
X-001228Y009543D03*
X-001098Y038150D03*
X-000874Y009543D03*
X-000732Y038150D03*
X-000378D03*
X000898Y057157D03*
X001252D03*
X001610Y057165D03*
X001913Y014157D03*
X001965Y057165D03*
X001980Y009154D03*
X002268Y014157D03*
X002335Y009154D03*
X002961Y057165D03*
X003315D03*
G54D13*
X-094577Y013614D03*
X-092864D03*
X-083553Y066465D03*
X-081841D03*
X-067569Y013614D03*
X-065856D03*
X-056545Y066465D03*
X-054833D03*
X-040561Y013614D03*
X-038848D03*
X-029537Y066465D03*
X-027825D03*
X-013553Y013614D03*
X-011841D03*
X-002530Y066465D03*
X-000817D03*
G54D14*
X-090925Y010469D03*
Y010724D03*
Y010980D03*
X-090177Y010469D03*
Y010724D03*
Y010980D03*
X-086240Y069098D03*
Y069354D03*
Y069610D03*
X-085492Y069098D03*
Y069354D03*
Y069610D03*
X-063917Y010469D03*
Y010724D03*
Y010980D03*
X-063169Y010469D03*
Y010724D03*
Y010980D03*
X-059232Y069098D03*
Y069354D03*
Y069610D03*
X-058484Y069098D03*
Y069354D03*
Y069610D03*
X-036909Y010469D03*
Y010724D03*
Y010980D03*
X-036161Y010469D03*
Y010724D03*
Y010980D03*
X-032224Y069098D03*
Y069354D03*
Y069610D03*
X-031476Y069098D03*
Y069354D03*
Y069610D03*
X-009902Y010469D03*
Y010724D03*
Y010980D03*
X-009154Y010469D03*
Y010724D03*
Y010980D03*
X-005217Y069098D03*
Y069354D03*
Y069610D03*
X-004469Y069098D03*
Y069354D03*
Y069610D03*
G54D15*
X-090551Y010724D03*
X-085866Y069354D03*
X-063543Y010724D03*
X-058858Y069354D03*
X-036535Y010724D03*
X-031850Y069354D03*
X-009528Y010724D03*
X-004843Y069354D03*
G54D16*
X-097661Y065449D03*
X-097307D03*
X-090909Y049291D03*
Y050154D03*
X-090555Y049291D03*
Y050154D03*
X-089624Y051335D03*
X-089270D03*
X-087148Y028744D03*
X-086793D03*
X-085862Y029925D03*
Y030787D03*
X-085508Y029925D03*
Y030787D03*
X-079110Y014630D03*
X-078756D03*
X-070654Y065449D03*
X-070299D03*
X-063902Y049291D03*
Y050154D03*
X-063547Y049291D03*
Y050154D03*
X-062616Y051335D03*
X-062262D03*
X-060140Y028744D03*
X-059785D03*
X-058854Y029925D03*
Y030787D03*
X-058500Y029925D03*
Y030787D03*
X-052102Y014630D03*
X-051748D03*
X-043646Y065449D03*
X-043291D03*
X-036894Y049291D03*
Y050154D03*
X-036539Y049291D03*
Y050154D03*
X-035608Y051335D03*
X-035254D03*
X-033132Y028744D03*
X-032778D03*
X-031846Y029925D03*
Y030787D03*
X-031492Y029925D03*
Y030787D03*
X-025094Y014630D03*
X-024740D03*
X-016638Y065449D03*
X-016283D03*
X-009886Y049291D03*
Y050154D03*
X-009531Y049291D03*
Y050154D03*
X-008600Y051335D03*
X-008246D03*
X-006124Y028744D03*
X-005770D03*
X-004839Y029925D03*
Y030787D03*
X-004484Y029925D03*
Y030787D03*
X001913Y014630D03*
X002268D03*
G54D17*
X-099028Y025799D03*
Y026350D03*
X-098441Y025799D03*
Y026350D03*
X-097988Y015315D03*
Y015866D03*
X-097366Y012232D03*
Y012783D03*
X-096465Y012232D03*
Y012783D03*
X-095890Y012232D03*
Y012783D03*
X-095315Y012232D03*
Y012783D03*
X-095138Y022748D03*
Y023299D03*
X-094567Y022748D03*
Y023299D03*
X-094492Y039398D03*
Y039949D03*
X-093992Y022748D03*
Y023299D03*
X-093917Y039394D03*
Y039945D03*
X-093736Y017937D03*
Y018488D03*
X-093524Y014949D03*
Y015500D03*
X-093299Y039394D03*
Y039945D03*
X-089909Y045461D03*
Y046012D03*
Y046528D03*
Y047079D03*
X-089720Y014177D03*
Y014728D03*
X-089335Y045461D03*
Y046012D03*
Y046528D03*
Y047079D03*
X-087083Y033000D03*
Y033551D03*
Y034067D03*
Y034618D03*
X-086697Y065350D03*
Y065902D03*
X-086508Y033000D03*
Y033551D03*
Y034067D03*
Y034618D03*
X-083118Y040134D03*
Y040685D03*
X-082894Y064579D03*
Y065130D03*
X-082681Y061591D03*
Y062142D03*
X-082500Y040134D03*
Y040685D03*
X-082425Y056780D03*
Y057331D03*
X-081925Y040130D03*
Y040681D03*
X-081850Y056780D03*
Y057331D03*
X-081280Y056780D03*
Y057331D03*
X-081102Y067295D03*
Y067846D03*
X-080528Y067295D03*
Y067846D03*
X-079953Y067295D03*
Y067846D03*
X-079051Y067295D03*
Y067846D03*
X-078429Y064213D03*
Y064764D03*
X-077976Y053728D03*
Y054280D03*
X-077390Y053728D03*
Y054280D03*
X-072020Y025799D03*
Y026350D03*
X-071433Y025799D03*
Y026350D03*
X-070980Y015315D03*
Y015866D03*
X-070358Y012232D03*
Y012783D03*
X-069457Y012232D03*
Y012783D03*
X-068882Y012232D03*
Y012783D03*
X-068307Y012232D03*
Y012783D03*
X-068130Y022748D03*
Y023299D03*
X-067559Y022748D03*
Y023299D03*
X-067484Y039398D03*
Y039949D03*
X-066984Y022748D03*
Y023299D03*
X-066909Y039394D03*
Y039945D03*
X-066728Y017937D03*
Y018488D03*
X-066516Y014949D03*
Y015500D03*
X-066291Y039394D03*
Y039945D03*
X-062902Y045461D03*
Y046012D03*
Y046528D03*
Y047079D03*
X-062713Y014177D03*
Y014728D03*
X-062327Y045461D03*
Y046012D03*
Y046528D03*
Y047079D03*
X-060075Y033000D03*
Y033551D03*
Y034067D03*
Y034618D03*
X-059689Y065350D03*
Y065902D03*
X-059500Y033000D03*
Y033551D03*
Y034067D03*
Y034618D03*
X-056110Y040134D03*
Y040685D03*
X-055886Y064579D03*
Y065130D03*
X-055673Y061591D03*
Y062142D03*
X-055492Y040134D03*
Y040685D03*
X-055417Y056780D03*
Y057331D03*
X-054917Y040130D03*
Y040681D03*
X-054843Y056780D03*
Y057331D03*
X-054272Y056780D03*
Y057331D03*
X-054094Y067295D03*
Y067846D03*
X-053520Y067295D03*
Y067846D03*
X-052945Y067295D03*
Y067846D03*
X-052043Y067295D03*
Y067846D03*
X-051421Y064213D03*
Y064764D03*
X-050969Y053728D03*
Y054280D03*
X-050382Y053728D03*
Y054280D03*
X-045012Y025799D03*
Y026350D03*
X-044425Y025799D03*
Y026350D03*
X-043972Y015315D03*
Y015866D03*
X-043350Y012232D03*
Y012783D03*
X-042449Y012232D03*
Y012783D03*
X-041874Y012232D03*
Y012783D03*
X-041299Y012232D03*
Y012783D03*
X-041122Y022748D03*
Y023299D03*
X-040551Y022748D03*
Y023299D03*
X-040476Y039398D03*
Y039949D03*
X-039976Y022748D03*
Y023299D03*
X-039902Y039394D03*
Y039945D03*
X-039720Y017937D03*
Y018488D03*
X-039508Y014949D03*
Y015500D03*
X-039283Y039394D03*
Y039945D03*
X-035894Y045461D03*
Y046012D03*
Y046528D03*
Y047079D03*
X-035705Y014177D03*
Y014728D03*
X-035319Y045461D03*
Y046012D03*
Y046528D03*
Y047079D03*
X-033067Y033000D03*
Y033551D03*
Y034067D03*
Y034618D03*
X-032681Y065350D03*
Y065902D03*
X-032492Y033000D03*
Y033551D03*
Y034067D03*
Y034618D03*
X-029102Y040134D03*
Y040685D03*
X-028878Y064579D03*
Y065130D03*
X-028665Y061591D03*
Y062142D03*
X-028484Y040134D03*
Y040685D03*
X-028409Y056780D03*
Y057331D03*
X-027909Y040130D03*
Y040681D03*
X-027835Y056780D03*
Y057331D03*
X-027264Y056780D03*
Y057331D03*
X-027087Y067295D03*
Y067846D03*
X-026512Y067295D03*
Y067846D03*
X-025937Y067295D03*
Y067846D03*
X-025035Y067295D03*
Y067846D03*
X-024413Y064213D03*
Y064764D03*
X-023961Y053728D03*
Y054280D03*
X-023374Y053728D03*
Y054280D03*
X-018004Y025799D03*
Y026350D03*
X-017417Y025799D03*
Y026350D03*
X-016965Y015315D03*
Y015866D03*
X-016343Y012232D03*
Y012783D03*
X-015441Y012232D03*
Y012783D03*
X-014866Y012232D03*
Y012783D03*
X-014291Y012232D03*
Y012783D03*
X-014114Y022748D03*
Y023299D03*
X-013543Y022748D03*
Y023299D03*
X-013469Y039398D03*
Y039949D03*
X-012969Y022748D03*
Y023299D03*
X-012894Y039394D03*
Y039945D03*
X-012713Y017937D03*
Y018488D03*
X-012500Y014949D03*
Y015500D03*
X-012276Y039394D03*
Y039945D03*
X-008886Y045461D03*
Y046012D03*
Y046528D03*
Y047079D03*
X-008697Y014177D03*
Y014728D03*
X-008311Y045461D03*
Y046012D03*
Y046528D03*
Y047079D03*
X-006059Y033000D03*
Y033551D03*
Y034067D03*
Y034618D03*
X-005673Y065350D03*
Y065902D03*
X-005484Y033000D03*
Y033551D03*
Y034067D03*
Y034618D03*
X-002094Y040134D03*
Y040685D03*
X-001870Y064579D03*
Y065130D03*
X-001657Y061591D03*
Y062142D03*
X-001476Y040134D03*
Y040685D03*
X-001402Y056780D03*
Y057331D03*
X-000902Y040130D03*
Y040681D03*
X-000827Y056780D03*
Y057331D03*
X-000256Y056780D03*
Y057331D03*
X-000079Y067295D03*
Y067846D03*
X000496Y067295D03*
Y067846D03*
X001071Y067295D03*
Y067846D03*
X001972Y067295D03*
Y067846D03*
X002594Y064213D03*
Y064764D03*
X003047Y053728D03*
Y054280D03*
X003634Y053728D03*
Y054280D03*
G54D18*
X-091945Y068209D03*
Y068996D03*
X-091689Y068209D03*
Y068996D03*
X-091433Y068209D03*
Y068996D03*
X-088976Y008787D03*
Y009575D03*
X-088720Y008787D03*
Y009575D03*
X-088465Y008787D03*
Y009575D03*
X-087953Y070504D03*
Y071291D03*
X-087697Y070504D03*
Y071291D03*
X-087441Y070504D03*
Y071291D03*
X-084984Y011083D03*
Y011870D03*
X-084728Y011083D03*
Y011870D03*
X-084472Y011083D03*
Y011870D03*
X-064937Y068209D03*
Y068996D03*
X-064681Y068209D03*
Y068996D03*
X-064425Y068209D03*
Y068996D03*
X-061969Y008787D03*
Y009575D03*
X-061713Y008787D03*
Y009575D03*
X-061457Y008787D03*
Y009575D03*
X-060945Y070504D03*
Y071291D03*
X-060689Y070504D03*
Y071291D03*
X-060433Y070504D03*
Y071291D03*
X-057976Y011083D03*
Y011870D03*
X-057720Y011083D03*
Y011870D03*
X-057465Y011083D03*
Y011870D03*
X-037929Y068209D03*
Y068996D03*
X-037673Y068209D03*
Y068996D03*
X-037417Y068209D03*
Y068996D03*
X-034961Y008787D03*
Y009575D03*
X-034705Y008787D03*
Y009575D03*
X-034449Y008787D03*
Y009575D03*
X-033937Y070504D03*
Y071291D03*
X-033681Y070504D03*
Y071291D03*
X-033425Y070504D03*
Y071291D03*
X-030969Y011083D03*
Y011870D03*
X-030713Y011083D03*
Y011870D03*
X-030457Y011083D03*
Y011870D03*
X-010921Y068209D03*
Y068996D03*
X-010665Y068209D03*
Y068996D03*
X-010409Y068209D03*
Y068996D03*
X-007953Y008787D03*
Y009575D03*
X-007697Y008787D03*
Y009575D03*
X-007441Y008787D03*
Y009575D03*
X-006929Y070504D03*
Y071291D03*
X-006673Y070504D03*
Y071291D03*
X-006417Y070504D03*
Y071291D03*
X-003961Y011083D03*
Y011870D03*
X-003705Y011083D03*
Y011870D03*
X-003449Y011083D03*
Y011870D03*
G54D19*
X-094465Y023953D03*
Y024701D03*
X-093677Y024327D03*
X-093283Y040465D03*
Y041213D03*
X-092665Y053173D03*
X-092496Y040839D03*
X-092335Y062071D03*
Y062819D03*
X-091720Y052799D03*
Y053547D03*
X-091390Y062445D03*
X-090012Y049382D03*
Y050130D03*
X-089067Y049756D03*
X-087350Y030323D03*
X-086406Y029949D03*
Y030697D03*
X-085028Y017634D03*
X-084697Y026531D03*
Y027280D03*
X-084083Y017260D03*
Y018008D03*
X-083921Y039240D03*
X-083752Y026906D03*
X-083134Y038866D03*
Y039614D03*
X-082740Y055752D03*
X-081953Y055378D03*
Y056126D03*
X-067457Y023953D03*
Y024701D03*
X-066669Y024327D03*
X-066276Y040465D03*
Y041213D03*
X-065657Y053173D03*
X-065488Y040839D03*
X-065327Y062071D03*
Y062819D03*
X-064713Y052799D03*
Y053547D03*
X-064382Y062445D03*
X-063004Y049382D03*
Y050130D03*
X-062059Y049756D03*
X-060343Y030323D03*
X-059398Y029949D03*
Y030697D03*
X-058020Y017634D03*
X-057689Y026531D03*
Y027280D03*
X-057075Y017260D03*
Y018008D03*
X-056913Y039240D03*
X-056744Y026906D03*
X-056126Y038866D03*
Y039614D03*
X-055732Y055752D03*
X-054945Y055378D03*
Y056126D03*
X-040449Y023953D03*
Y024701D03*
X-039661Y024327D03*
X-039268Y040465D03*
Y041213D03*
X-038650Y053173D03*
X-038480Y040839D03*
X-038319Y062071D03*
Y062819D03*
X-037705Y052799D03*
Y053547D03*
X-037374Y062445D03*
X-035996Y049382D03*
Y050130D03*
X-035051Y049756D03*
X-033335Y030323D03*
X-032390Y029949D03*
Y030697D03*
X-031012Y017634D03*
X-030681Y026531D03*
Y027280D03*
X-030067Y017260D03*
Y018008D03*
X-029906Y039240D03*
X-029736Y026906D03*
X-029118Y038866D03*
Y039614D03*
X-028724Y055752D03*
X-027937Y055378D03*
Y056126D03*
X-013441Y023953D03*
Y024701D03*
X-012654Y024327D03*
X-012260Y040465D03*
Y041213D03*
X-011642Y053173D03*
X-011472Y040839D03*
X-011311Y062071D03*
Y062819D03*
X-010697Y052799D03*
Y053547D03*
X-010366Y062445D03*
X-008988Y049382D03*
Y050130D03*
X-008043Y049756D03*
X-006327Y030323D03*
X-005382Y029949D03*
Y030697D03*
X-004004Y017634D03*
X-003673Y026531D03*
Y027280D03*
X-003059Y017260D03*
Y018008D03*
X-002898Y039240D03*
X-002728Y026906D03*
X-002110Y038866D03*
Y039614D03*
X-001717Y055752D03*
X-000929Y055378D03*
Y056126D03*
G54D20*
X-099811Y016575D03*
Y018346D03*
X-098827Y016575D03*
Y018346D03*
X-077591Y061732D03*
Y063504D03*
X-076606Y061732D03*
Y063504D03*
X-072803Y016575D03*
Y018346D03*
X-071819Y016575D03*
Y018346D03*
X-050583Y061732D03*
Y063504D03*
X-049598Y061732D03*
Y063504D03*
X-045795Y016575D03*
Y018346D03*
X-044811Y016575D03*
Y018346D03*
X-023575Y061732D03*
Y063504D03*
X-022591Y061732D03*
Y063504D03*
X-018787Y016575D03*
Y018346D03*
X-017803Y016575D03*
Y018346D03*
X003433Y061732D03*
Y063504D03*
X004417Y061732D03*
Y063504D03*
G54D21*
X-100349Y023147D03*
X-099798D03*
X-099697Y013539D03*
X-099445Y014114D03*
X-099146Y013539D03*
X-098894Y014114D03*
X-098626Y029343D03*
X-098075D03*
X-097600Y013417D03*
Y014055D03*
X-097049Y013417D03*
Y014055D03*
X-096154Y019150D03*
X-095602D03*
X-094976Y018496D03*
X-094967Y017935D03*
X-094425Y018496D03*
X-094415Y017935D03*
X-092382Y016650D03*
X-091831D03*
X-090953Y013626D03*
X-090866Y015339D03*
X-090402Y013626D03*
X-090315Y015339D03*
X-089811Y044909D03*
X-089260D03*
X-087157Y035169D03*
X-086606D03*
X-086102Y064740D03*
X-086016Y066453D03*
X-085551Y064740D03*
X-085465Y066453D03*
X-084587Y063429D03*
X-084035D03*
X-082002Y062144D03*
X-081992Y061583D03*
X-081451Y062144D03*
X-081441Y061583D03*
X-080815Y060929D03*
X-080264D03*
X-079368Y066024D03*
Y066661D03*
X-078817Y066024D03*
Y066661D03*
X-078343Y050736D03*
X-077791D03*
X-077524Y065965D03*
X-077272Y066539D03*
X-076972Y065965D03*
X-076720Y066539D03*
X-076619Y056932D03*
X-076068D03*
X-073341Y023147D03*
X-072790D03*
X-072689Y013539D03*
X-072437Y014114D03*
X-072138Y013539D03*
X-071886Y014114D03*
X-071618Y029343D03*
X-071067D03*
X-070593Y013417D03*
Y014055D03*
X-070041Y013417D03*
Y014055D03*
X-069146Y019150D03*
X-068594D03*
X-067969Y018496D03*
X-067959Y017935D03*
X-067417Y018496D03*
X-067407Y017935D03*
X-065374Y016650D03*
X-064823D03*
X-063945Y013626D03*
X-063858Y015339D03*
X-063394Y013626D03*
X-063307Y015339D03*
X-062803Y044909D03*
X-062252D03*
X-060150Y035169D03*
X-059598D03*
X-059094Y064740D03*
X-059008Y066453D03*
X-058543Y064740D03*
X-058457Y066453D03*
X-057579Y063429D03*
X-057028D03*
X-054994Y062144D03*
X-054984Y061583D03*
X-054443Y062144D03*
X-054433Y061583D03*
X-053807Y060929D03*
X-053256D03*
X-052360Y066024D03*
Y066661D03*
X-051809Y066024D03*
Y066661D03*
X-051335Y050736D03*
X-050783D03*
X-050516Y065965D03*
X-050264Y066539D03*
X-049965Y065965D03*
X-049713Y066539D03*
X-049611Y056932D03*
X-049060D03*
X-046333Y023147D03*
X-045782D03*
X-045681Y013539D03*
X-045429Y014114D03*
X-045130Y013539D03*
X-044878Y014114D03*
X-044610Y029343D03*
X-044059D03*
X-043585Y013417D03*
Y014055D03*
X-043033Y013417D03*
Y014055D03*
X-042138Y019150D03*
X-041587D03*
X-040961Y018496D03*
X-040951Y017935D03*
X-040409Y018496D03*
X-040400Y017935D03*
X-038366Y016650D03*
X-037815D03*
X-036937Y013626D03*
X-036850Y015339D03*
X-036386Y013626D03*
X-036299Y015339D03*
X-035795Y044909D03*
X-035244D03*
X-033142Y035169D03*
X-032591D03*
X-032087Y064740D03*
X-032000Y066453D03*
X-031535Y064740D03*
X-031449Y066453D03*
X-030571Y063429D03*
X-030020D03*
X-027986Y062144D03*
X-027976Y061583D03*
X-027435Y062144D03*
X-027425Y061583D03*
X-026799Y060929D03*
X-026248D03*
X-025352Y066024D03*
Y066661D03*
X-024801Y066024D03*
Y066661D03*
X-024327Y050736D03*
X-023776D03*
X-023508Y065965D03*
X-023256Y066539D03*
X-022957Y065965D03*
X-022705Y066539D03*
X-022604Y056932D03*
X-022052D03*
X-019326Y023147D03*
X-018774D03*
X-018673Y013539D03*
X-018421Y014114D03*
X-018122Y013539D03*
X-017870Y014114D03*
X-017602Y029343D03*
X-017051D03*
X-016577Y013417D03*
Y014055D03*
X-016026Y013417D03*
Y014055D03*
X-015130Y019150D03*
X-014579D03*
X-013953Y018496D03*
X-013943Y017935D03*
X-013402Y018496D03*
X-013392Y017935D03*
X-011358Y016650D03*
X-010807D03*
X-009929Y013626D03*
X-009843Y015339D03*
X-009378Y013626D03*
X-009291Y015339D03*
X-008787Y044909D03*
X-008236D03*
X-006134Y035169D03*
X-005583D03*
X-005079Y064740D03*
X-004992Y066453D03*
X-004528Y064740D03*
X-004441Y066453D03*
X-003563Y063429D03*
X-003012D03*
X-000978Y062144D03*
X-000969Y061583D03*
X-000427Y062144D03*
X-000417Y061583D03*
X000209Y060929D03*
X000760D03*
X001656Y066024D03*
Y066661D03*
X002207Y066024D03*
Y066661D03*
X002681Y050736D03*
X003232D03*
X003500Y065965D03*
X003752Y066539D03*
X004051Y065965D03*
X004303Y066539D03*
X004404Y056932D03*
X004956D03*
G54D22*
X-099634Y014701D03*
Y015882D03*
X-099004Y027441D03*
Y028622D03*
X-098728Y014685D03*
Y015866D03*
X-098098Y027445D03*
Y028626D03*
X-078319Y051453D03*
Y052634D03*
X-077689Y064213D03*
Y065394D03*
X-077413Y051457D03*
Y052638D03*
X-076783Y064197D03*
Y065378D03*
X-072626Y014701D03*
Y015882D03*
X-071996Y027441D03*
Y028622D03*
X-071720Y014685D03*
Y015866D03*
X-071091Y027445D03*
Y028626D03*
X-051311Y051453D03*
Y052634D03*
X-050681Y064213D03*
Y065394D03*
X-050406Y051457D03*
Y052638D03*
X-049776Y064197D03*
Y065378D03*
X-045618Y014701D03*
Y015882D03*
X-044988Y027441D03*
Y028622D03*
X-044713Y014685D03*
Y015866D03*
X-044083Y027445D03*
Y028626D03*
X-024303Y051453D03*
Y052634D03*
X-023673Y064213D03*
Y065394D03*
X-023398Y051457D03*
Y052638D03*
X-022768Y064197D03*
Y065378D03*
X-018610Y014701D03*
Y015882D03*
X-017980Y027441D03*
Y028622D03*
X-017705Y014685D03*
Y015866D03*
X-017075Y027445D03*
Y028626D03*
X002705Y051453D03*
Y052634D03*
X003335Y064213D03*
Y065394D03*
X003610Y051457D03*
Y052638D03*
X004240Y064197D03*
Y065378D03*
G54D23*
X-100303Y016492D03*
Y016846D03*
X-099862Y019713D03*
Y020067D03*
X-098307Y016492D03*
Y016846D03*
X-097858Y067232D03*
Y067587D03*
X-095791Y019917D03*
Y020272D03*
X-094795Y068539D03*
Y068894D03*
X-094244Y068539D03*
Y068894D03*
X-093004Y015020D03*
Y015374D03*
X-092878Y067961D03*
Y068315D03*
Y068748D03*
Y069102D03*
X-092453Y067961D03*
Y068315D03*
Y068748D03*
Y069102D03*
X-092299Y020870D03*
Y021224D03*
X-092209Y051854D03*
Y052209D03*
X-089457Y066272D03*
Y066626D03*
X-088563Y070496D03*
Y070850D03*
Y071220D03*
Y071575D03*
X-087854Y008504D03*
Y008858D03*
Y009228D03*
Y009583D03*
X-086961Y013453D03*
Y013807D03*
X-084209Y027870D03*
Y028224D03*
X-084118Y058854D03*
Y059209D03*
X-083965Y010976D03*
Y011331D03*
Y011764D03*
Y012118D03*
X-083539Y010976D03*
Y011331D03*
Y011764D03*
Y012118D03*
X-083413Y064705D03*
Y065059D03*
X-082173Y011185D03*
Y011539D03*
X-081622Y011185D03*
Y011539D03*
X-080626Y059807D03*
Y060161D03*
X-078559Y012492D03*
Y012846D03*
X-078110Y063232D03*
Y063587D03*
X-076555Y060012D03*
Y060366D03*
X-076114Y063232D03*
Y063587D03*
X-073295Y016492D03*
Y016846D03*
X-072854Y019713D03*
Y020067D03*
X-071299Y016492D03*
Y016846D03*
X-070850Y067232D03*
Y067587D03*
X-068783Y019917D03*
Y020272D03*
X-067787Y068539D03*
Y068894D03*
X-067236Y068539D03*
Y068894D03*
X-065996Y015020D03*
Y015374D03*
X-065870Y067961D03*
Y068315D03*
Y068748D03*
Y069102D03*
X-065445Y067961D03*
Y068315D03*
Y068748D03*
Y069102D03*
X-065291Y020870D03*
Y021224D03*
X-065201Y051854D03*
Y052209D03*
X-062449Y066272D03*
Y066626D03*
X-061555Y070496D03*
Y070850D03*
Y071220D03*
Y071575D03*
X-060846Y008504D03*
Y008858D03*
Y009228D03*
Y009583D03*
X-059953Y013453D03*
Y013807D03*
X-057201Y027870D03*
Y028224D03*
X-057110Y058854D03*
Y059209D03*
X-056957Y010976D03*
Y011331D03*
Y011764D03*
Y012118D03*
X-056531Y010976D03*
Y011331D03*
Y011764D03*
Y012118D03*
X-056406Y064705D03*
Y065059D03*
X-055165Y011185D03*
Y011539D03*
X-054614Y011185D03*
Y011539D03*
X-053618Y059807D03*
Y060161D03*
X-051551Y012492D03*
Y012846D03*
X-051102Y063232D03*
Y063587D03*
X-049547Y060012D03*
Y060366D03*
X-049106Y063232D03*
Y063587D03*
X-046287Y016492D03*
Y016846D03*
X-045846Y019713D03*
Y020067D03*
X-044291Y016492D03*
Y016846D03*
X-043843Y067232D03*
Y067587D03*
X-041776Y019917D03*
Y020272D03*
X-040780Y068539D03*
Y068894D03*
X-040228Y068539D03*
Y068894D03*
X-038988Y015020D03*
Y015374D03*
X-038862Y067961D03*
Y068315D03*
Y068748D03*
Y069102D03*
X-038437Y067961D03*
Y068315D03*
Y068748D03*
Y069102D03*
X-038283Y020870D03*
Y021224D03*
X-038193Y051854D03*
Y052209D03*
X-035441Y066272D03*
Y066626D03*
X-034547Y070496D03*
Y070850D03*
Y071220D03*
Y071575D03*
X-033839Y008504D03*
Y008858D03*
Y009228D03*
Y009583D03*
X-032945Y013453D03*
Y013807D03*
X-030193Y027870D03*
Y028224D03*
X-030102Y058854D03*
Y059209D03*
X-029949Y010976D03*
Y011331D03*
Y011764D03*
Y012118D03*
X-029524Y010976D03*
Y011331D03*
Y011764D03*
Y012118D03*
X-029398Y064705D03*
Y065059D03*
X-028157Y011185D03*
Y011539D03*
X-027606Y011185D03*
Y011539D03*
X-026610Y059807D03*
Y060161D03*
X-024543Y012492D03*
Y012846D03*
X-024094Y063232D03*
Y063587D03*
X-022539Y060012D03*
Y060366D03*
X-022098Y063232D03*
Y063587D03*
X-019280Y016492D03*
Y016846D03*
X-018839Y019713D03*
Y020067D03*
X-017283Y016492D03*
Y016846D03*
X-016835Y067232D03*
Y067587D03*
X-014768Y019917D03*
Y020272D03*
X-013772Y068539D03*
Y068894D03*
X-013220Y068539D03*
Y068894D03*
X-011980Y015020D03*
Y015374D03*
X-011854Y067961D03*
Y068315D03*
Y068748D03*
Y069102D03*
X-011429Y067961D03*
Y068315D03*
Y068748D03*
Y069102D03*
X-011276Y020870D03*
Y021224D03*
X-011185Y051854D03*
Y052209D03*
X-008433Y066272D03*
Y066626D03*
X-007539Y070496D03*
Y070850D03*
Y071220D03*
Y071575D03*
X-006831Y008504D03*
Y008858D03*
Y009228D03*
Y009583D03*
X-005937Y013453D03*
Y013807D03*
X-003185Y027870D03*
Y028224D03*
X-003094Y058854D03*
Y059209D03*
X-002941Y010976D03*
Y011331D03*
Y011764D03*
Y012118D03*
X-002516Y010976D03*
Y011331D03*
Y011764D03*
Y012118D03*
X-002390Y064705D03*
Y065059D03*
X-001150Y011185D03*
Y011539D03*
X-000598Y011185D03*
Y011539D03*
X000398Y059807D03*
Y060161D03*
X002465Y012492D03*
Y012846D03*
X002913Y063232D03*
Y063587D03*
X004469Y060012D03*
Y060366D03*
X004909Y063232D03*
Y063587D03*
G54D24*
X-097898Y064976D03*
X-097307D03*
X-089807Y050862D03*
X-089217D03*
X-087201Y029217D03*
X-086610D03*
X-079110Y015102D03*
X-078520D03*
X-070890Y064976D03*
X-070299D03*
X-062799Y050862D03*
X-062209D03*
X-060193Y029217D03*
X-059602D03*
X-052102Y015102D03*
X-051512D03*
X-043882Y064976D03*
X-043291D03*
X-035791Y050862D03*
X-035201D03*
X-033185Y029217D03*
X-032594D03*
X-025094Y015102D03*
X-024504D03*
X-016874Y064976D03*
X-016283D03*
X-008783Y050862D03*
X-008193D03*
X-006177Y029217D03*
X-005587D03*
X001913Y015102D03*
X002504D03*
G54D25*
X-099638Y013018D03*
X-099382Y012250D03*
X-099126Y013018D03*
X-077291Y067061D03*
X-077035Y067829D03*
X-076780Y067061D03*
X-072630Y013018D03*
X-072374Y012250D03*
X-072118Y013018D03*
X-050283Y067061D03*
X-050028Y067829D03*
X-049772Y067061D03*
X-045622Y013018D03*
X-045366Y012250D03*
X-045110Y013018D03*
X-023276Y067061D03*
X-023020Y067829D03*
X-022764Y067061D03*
X-018614Y013018D03*
X-018358Y012250D03*
X-018102Y013018D03*
X003732Y067061D03*
X003988Y067829D03*
X004244Y067061D03*
G54D26*
X-092073Y063785D03*
Y064140D03*
X-091199Y063667D03*
Y064022D03*
X-085219Y016057D03*
Y016411D03*
X-084344Y015939D03*
Y016293D03*
X-065065Y063785D03*
Y064140D03*
X-064191Y063667D03*
Y064022D03*
X-058211Y016057D03*
Y016411D03*
X-057337Y015939D03*
Y016293D03*
X-038057Y063785D03*
Y064140D03*
X-037183Y063667D03*
Y064022D03*
X-031203Y016057D03*
Y016411D03*
X-030329Y015939D03*
Y016293D03*
X-011049Y063785D03*
Y064140D03*
X-010175Y063667D03*
Y064022D03*
X-004195Y016057D03*
Y016411D03*
X-003321Y015939D03*
Y016293D03*
G54D27*
X-097350Y019079D03*
X-096642D03*
X-096157Y018433D03*
X-096138Y017671D03*
X-095449Y018433D03*
X-095429Y017671D03*
X-094642Y012354D03*
X-093933D03*
X-091669Y052031D03*
X-091303Y009303D03*
X-090961Y052031D03*
X-090594Y009303D03*
X-089756Y010976D03*
X-089047D03*
X-087370Y069102D03*
X-086661D03*
X-085823Y070776D03*
X-085457Y028047D03*
X-085114Y070776D03*
X-084748Y028047D03*
X-082484Y067724D03*
X-081776D03*
X-080988Y062408D03*
X-080969Y061646D03*
X-080280Y062408D03*
X-080260Y061646D03*
X-079776Y061000D03*
X-079067D03*
X-070343Y019079D03*
X-069634D03*
X-069150Y018433D03*
X-069130Y017671D03*
X-068441Y018433D03*
X-068421Y017671D03*
X-067634Y012354D03*
X-066925D03*
X-064661Y052031D03*
X-064295Y009303D03*
X-063953Y052031D03*
X-063587Y009303D03*
X-062748Y010976D03*
X-062039D03*
X-060362Y069102D03*
X-059654D03*
X-058815Y070776D03*
X-058449Y028047D03*
X-058106Y070776D03*
X-057740Y028047D03*
X-055476Y067724D03*
X-054768D03*
X-053980Y062408D03*
X-053961Y061646D03*
X-053272Y062408D03*
X-053252Y061646D03*
X-052768Y061000D03*
X-052059D03*
X-043335Y019079D03*
X-042626D03*
X-042142Y018433D03*
X-042122Y017671D03*
X-041433Y018433D03*
X-041413Y017671D03*
X-040626Y012354D03*
X-039917D03*
X-037654Y052031D03*
X-037287Y009303D03*
X-036945Y052031D03*
X-036579Y009303D03*
X-035740Y010976D03*
X-035031D03*
X-033354Y069102D03*
X-032646D03*
X-031807Y070776D03*
X-031441Y028047D03*
X-031098Y070776D03*
X-030732Y028047D03*
X-028469Y067724D03*
X-027760D03*
X-026972Y062408D03*
X-026953Y061646D03*
X-026264Y062408D03*
X-026244Y061646D03*
X-025760Y061000D03*
X-025051D03*
X-016327Y019079D03*
X-015618D03*
X-015134Y018433D03*
X-015114Y017671D03*
X-014425Y018433D03*
X-014406Y017671D03*
X-013618Y012354D03*
X-012909D03*
X-010646Y052031D03*
X-010280Y009303D03*
X-009937Y052031D03*
X-009571Y009303D03*
X-008732Y010976D03*
X-008024D03*
X-006346Y069102D03*
X-005638D03*
X-004799Y070776D03*
X-004433Y028047D03*
X-004091Y070776D03*
X-003724Y028047D03*
X-001461Y067724D03*
X-000752D03*
X000035Y062408D03*
X000055Y061646D03*
X000744Y062408D03*
X000764Y061646D03*
X001248Y061000D03*
X001957D03*
G54D28*
X-090193Y064555D03*
X-089819Y065343D03*
X-089445Y064555D03*
X-086972Y015524D03*
X-086598Y014736D03*
X-086224Y015524D03*
X-063185Y064555D03*
X-062811Y065343D03*
X-062437Y064555D03*
X-059965Y015524D03*
X-059591Y014736D03*
X-059217Y015524D03*
X-036177Y064555D03*
X-035803Y065343D03*
X-035429Y064555D03*
X-032957Y015524D03*
X-032583Y014736D03*
X-032209Y015524D03*
X-009169Y064555D03*
X-008795Y065343D03*
X-008421Y064555D03*
X-005949Y015524D03*
X-005575Y014736D03*
X-005201Y015524D03*
G54D29*
X-089169Y053449D03*
Y054118D03*
X-088421Y053449D03*
Y054118D03*
X-087996Y025961D03*
Y026630D03*
X-087248Y025961D03*
Y026630D03*
X-062161Y053449D03*
Y054118D03*
X-061413Y053449D03*
Y054118D03*
X-060988Y025961D03*
Y026630D03*
X-060240Y025961D03*
Y026630D03*
X-035154Y053449D03*
Y054118D03*
X-034406Y053449D03*
Y054118D03*
X-033980Y025961D03*
Y026630D03*
X-033232Y025961D03*
Y026630D03*
X-008146Y053449D03*
Y054118D03*
X-007398Y053449D03*
Y054118D03*
X-006972Y025961D03*
Y026630D03*
X-006224Y025961D03*
Y026630D03*
G54D30*
X-092794Y051672D03*
Y052184D03*
X-083623Y027895D03*
Y028406D03*
X-065786Y051672D03*
Y052184D03*
X-056615Y027895D03*
Y028406D03*
X-038779Y051672D03*
Y052184D03*
X-029607Y027895D03*
Y028406D03*
X-011771Y051672D03*
Y052184D03*
X-002599Y027895D03*
Y028406D03*
G54D31*
X-096827Y015421D03*
X-095449D03*
X-080969Y064657D03*
X-079591D03*
X-069819Y015421D03*
X-068441D03*
X-053961Y064657D03*
X-052583D03*
X-042811Y015421D03*
X-041433D03*
X-026953Y064657D03*
X-025575D03*
X-015803Y015421D03*
X-014425D03*
X000055Y064657D03*
X001433D03*
G54D32*
X-091012Y014213D03*
Y014469D03*
Y014724D03*
X-090224Y014213D03*
Y014469D03*
Y014724D03*
X-086193Y065354D03*
Y065610D03*
Y065866D03*
X-085406Y065354D03*
Y065610D03*
Y065866D03*
X-064004Y014213D03*
Y014469D03*
Y014724D03*
X-063217Y014213D03*
Y014469D03*
Y014724D03*
X-059185Y065354D03*
Y065610D03*
Y065866D03*
X-058398Y065354D03*
Y065610D03*
Y065866D03*
X-036996Y014213D03*
Y014469D03*
Y014724D03*
X-036209Y014213D03*
Y014469D03*
Y014724D03*
X-032177Y065354D03*
Y065610D03*
Y065866D03*
X-031390Y065354D03*
Y065610D03*
Y065866D03*
X-009988Y014213D03*
Y014469D03*
Y014724D03*
X-009201Y014213D03*
Y014469D03*
Y014724D03*
X-005169Y065354D03*
Y065610D03*
Y065866D03*
X-004382Y065354D03*
Y065610D03*
Y065866D03*
G54D33*
X-096717Y063849D03*
X-092937D03*
X-083480Y016230D03*
X-079701D03*
X-069709Y063849D03*
X-065929D03*
X-056472Y016230D03*
X-052693D03*
X-042701Y063849D03*
X-038921D03*
X-029465Y016230D03*
X-025685D03*
X-015693Y063849D03*
X-011913D03*
X-002457Y016230D03*
X001323D03*
G54D34*
X-096205Y062855D03*
X-095811D03*
X-095417D03*
X-095024D03*
X-094630D03*
X-094236D03*
X-093843D03*
X-093449D03*
X-082968Y017224D03*
X-082575D03*
X-082181D03*
X-081787D03*
X-081394D03*
X-081000D03*
X-080606D03*
X-080213D03*
X-069197Y062855D03*
X-068803D03*
X-068409D03*
X-068016D03*
X-067622D03*
X-067228D03*
X-066835D03*
X-066441D03*
X-055961Y017224D03*
X-055567D03*
X-055173D03*
X-054780D03*
X-054386D03*
X-053992D03*
X-053598D03*
X-053205D03*
X-042189Y062855D03*
X-041795D03*
X-041402D03*
X-041008D03*
X-040614D03*
X-040220D03*
X-039827D03*
X-039433D03*
X-028953Y017224D03*
X-028559D03*
X-028165D03*
X-027772D03*
X-027378D03*
X-026984D03*
X-026591D03*
X-026197D03*
X-015181Y062855D03*
X-014787D03*
X-014394D03*
X-014000D03*
X-013606D03*
X-013213D03*
X-012819D03*
X-012425D03*
X-001945Y017224D03*
X-001551D03*
X-001157D03*
X-000764D03*
X-000370D03*
X000024D03*
X000417D03*
X000811D03*
G54D35*
X-100341Y025740D03*
X-099573Y025484D03*
Y025996D03*
X-076844Y054083D03*
Y054594D03*
X-076077Y054339D03*
X-073333Y025740D03*
X-072565Y025484D03*
Y025996D03*
X-049837Y054083D03*
Y054594D03*
X-049069Y054339D03*
X-046325Y025740D03*
X-045557Y025484D03*
Y025996D03*
X-022829Y054083D03*
Y054594D03*
X-022061Y054339D03*
X-019317Y025740D03*
X-018549Y025484D03*
Y025996D03*
X004179Y054083D03*
Y054594D03*
X004947Y054339D03*
G54D36*
X-089961Y028681D03*
Y033602D03*
X-088346Y028681D03*
Y033602D03*
X-088071Y046476D03*
Y051398D03*
X-086457Y046476D03*
Y051398D03*
X-062953Y028681D03*
Y033602D03*
X-061339Y028681D03*
Y033602D03*
X-061063Y046476D03*
Y051398D03*
X-059449Y046476D03*
Y051398D03*
X-035945Y028681D03*
Y033602D03*
X-034331Y028681D03*
Y033602D03*
X-034055Y046476D03*
Y051398D03*
X-032441Y046476D03*
Y051398D03*
X-008937Y028681D03*
Y033602D03*
X-007323Y028681D03*
Y033602D03*
X-007047Y046476D03*
Y051398D03*
X-005433Y046476D03*
Y051398D03*
G54D37*
X-089961Y029370D03*
Y030157D03*
Y030945D03*
Y031732D03*
Y032520D03*
X-088346Y029764D03*
Y030551D03*
Y031339D03*
Y032126D03*
Y032913D03*
X-088071Y047165D03*
Y047953D03*
Y048740D03*
Y049528D03*
Y050315D03*
X-086457Y047559D03*
Y048346D03*
Y049134D03*
Y049921D03*
Y050709D03*
X-062953Y029370D03*
Y030157D03*
Y030945D03*
Y031732D03*
Y032520D03*
X-061339Y029764D03*
Y030551D03*
Y031339D03*
Y032126D03*
Y032913D03*
X-061063Y047165D03*
Y047953D03*
Y048740D03*
Y049528D03*
Y050315D03*
X-059449Y047559D03*
Y048346D03*
Y049134D03*
Y049921D03*
Y050709D03*
X-035945Y029370D03*
Y030157D03*
Y030945D03*
Y031732D03*
Y032520D03*
X-034331Y029764D03*
Y030551D03*
Y031339D03*
Y032126D03*
Y032913D03*
X-034055Y047165D03*
Y047953D03*
Y048740D03*
Y049528D03*
Y050315D03*
X-032441Y047559D03*
Y048346D03*
Y049134D03*
Y049921D03*
Y050709D03*
X-008937Y029370D03*
Y030157D03*
Y030945D03*
Y031732D03*
Y032520D03*
X-007323Y029764D03*
Y030551D03*
Y031339D03*
Y032126D03*
Y032913D03*
X-007047Y047165D03*
Y047953D03*
Y048740D03*
Y049528D03*
Y050315D03*
X-005433Y047559D03*
Y048346D03*
Y049134D03*
Y049921D03*
Y050709D03*
G54D70*
X-098157Y012291D03*
Y013236D03*
X-095630Y021257D03*
Y022191D03*
X-091075Y012139D03*
Y013073D03*
X-085343Y067006D03*
Y067939D03*
X-080787Y057887D03*
Y058821D03*
X-078260Y066843D03*
Y067787D03*
X-071150Y012291D03*
Y013236D03*
X-068622Y021257D03*
Y022191D03*
X-064067Y012139D03*
Y013073D03*
X-058335Y067006D03*
Y067939D03*
X-053780Y057887D03*
Y058821D03*
X-051252Y066843D03*
Y067787D03*
X-044142Y012291D03*
Y013236D03*
X-041614Y021257D03*
Y022191D03*
X-037059Y012139D03*
Y013073D03*
X-031327Y067006D03*
Y067939D03*
X-026772Y057887D03*
Y058821D03*
X-024244Y066843D03*
Y067787D03*
X-017134Y012291D03*
Y013236D03*
X-014606Y021257D03*
Y022191D03*
X-010051Y012139D03*
Y013073D03*
X-004319Y067006D03*
Y067939D03*
X000236Y057887D03*
Y058821D03*
X002764Y066843D03*
Y067787D03*
G54D71*
X-099350Y019917D03*
Y022201D03*
X-098850Y019917D03*
Y022201D03*
X-098350Y019917D03*
Y022201D03*
X-097850Y019917D03*
Y022201D03*
X-097350Y019917D03*
Y022201D03*
X-096850Y019917D03*
Y022201D03*
X-096350Y019917D03*
Y022201D03*
X-080067Y057878D03*
Y060161D03*
X-079567Y057878D03*
Y060161D03*
X-079067Y057878D03*
Y060161D03*
X-078567Y057878D03*
Y060161D03*
X-078067Y057878D03*
Y060161D03*
X-077567Y057878D03*
Y060161D03*
X-077067Y057878D03*
Y060161D03*
X-072343Y019917D03*
Y022201D03*
X-071843Y019917D03*
Y022201D03*
X-071343Y019917D03*
Y022201D03*
X-070843Y019917D03*
Y022201D03*
X-070343Y019917D03*
Y022201D03*
X-069843Y019917D03*
Y022201D03*
X-069343Y019917D03*
Y022201D03*
X-053059Y057878D03*
Y060161D03*
X-052559Y057878D03*
Y060161D03*
X-052059Y057878D03*
Y060161D03*
X-051559Y057878D03*
Y060161D03*
X-051059Y057878D03*
Y060161D03*
X-050559Y057878D03*
Y060161D03*
X-050059Y057878D03*
Y060161D03*
X-045335Y019917D03*
Y022201D03*
X-044835Y019917D03*
Y022201D03*
X-044335Y019917D03*
Y022201D03*
X-043835Y019917D03*
Y022201D03*
X-043335Y019917D03*
Y022201D03*
X-042835Y019917D03*
Y022201D03*
X-042335Y019917D03*
Y022201D03*
X-026051Y057878D03*
Y060161D03*
X-025551Y057878D03*
Y060161D03*
X-025051Y057878D03*
Y060161D03*
X-024551Y057878D03*
Y060161D03*
X-024051Y057878D03*
Y060161D03*
X-023551Y057878D03*
Y060161D03*
X-023051Y057878D03*
Y060161D03*
X-018327Y019917D03*
Y022201D03*
X-017827Y019917D03*
Y022201D03*
X-017327Y019917D03*
Y022201D03*
X-016827Y019917D03*
Y022201D03*
X-016327Y019917D03*
Y022201D03*
X-015827Y019917D03*
Y022201D03*
X-015327Y019917D03*
Y022201D03*
X000957Y057878D03*
Y060161D03*
X001457Y057878D03*
Y060161D03*
X001957Y057878D03*
Y060161D03*
X002457Y057878D03*
Y060161D03*
X002957Y057878D03*
Y060161D03*
X003457Y057878D03*
Y060161D03*
X003957Y057878D03*
Y060161D03*
G54D72*
X-089189Y053783D03*
X-088402D03*
X-088016Y026295D03*
X-087228D03*
X-062181Y053783D03*
X-061394D03*
X-061008Y026295D03*
X-060220D03*
X-035173Y053783D03*
X-034386D03*
X-034000Y026295D03*
X-033213D03*
X-008165Y053783D03*
X-007378D03*
X-006992Y026295D03*
X-006205D03*
G54D73*
X-098961Y023862D03*
X-097780D03*
X-091303Y008156D03*
X-090122D03*
X-086295Y071923D03*
X-085114D03*
X-078638Y056217D03*
X-077457D03*
X-071953Y023862D03*
X-070772D03*
X-064295Y008156D03*
X-063114D03*
X-059287Y071923D03*
X-058106D03*
X-051630Y056217D03*
X-050449D03*
X-044945Y023862D03*
X-043764D03*
X-037287Y008156D03*
X-036106D03*
X-032280Y071923D03*
X-031098D03*
X-024622Y056217D03*
X-023441D03*
X-017937Y023862D03*
X-016756D03*
X-010280Y008156D03*
X-009098D03*
X-005272Y071923D03*
X-004091D03*
X002386Y056217D03*
X003567D03*
M02*
